# Blender v3.2.0 OBJ File: ''
# www.blender.org
mtllib FenceBlock.mtl
o Cube.001
v 0.474875 -0.929984 0.030260
v 0.474875 -0.929984 -0.030260
v -0.466477 -0.929984 -0.030260
v -0.466477 -0.929984 0.030260
v 0.474875 0.915989 0.030260
v -0.466477 0.915989 0.030260
v -0.466477 0.915989 -0.030259
v 0.474874 0.915989 -0.030260
v 0.474875 -0.929984 0.030260
v 0.474875 0.915989 0.030260
v 0.474874 0.915989 -0.030260
v 0.474875 -0.929984 -0.030260
v 0.474875 -0.929984 -0.030260
v 0.474874 0.915989 -0.030260
v -0.466477 0.915989 -0.030259
v -0.466477 -0.929984 -0.030260
v -0.466477 -0.929984 -0.030260
v -0.466477 0.915989 -0.030259
v -0.466477 0.915989 0.030260
v -0.466477 -0.929984 0.030260
v 0.474875 0.915989 0.030260
v 0.474875 -0.929984 0.030260
v -0.466477 -0.929984 0.030260
v -0.466477 0.915989 0.030260
vt 0.676487 0.014831
vt 0.989820 0.014471
vt 0.990180 0.327803
vt 0.676847 0.328164
vt 0.323333 0.010000
vt 0.323333 0.323333
vt 0.010000 0.323333
vt 0.010000 0.010000
vt 0.344028 0.012621
vt 0.657361 0.012154
vt 0.657829 0.325486
vt 0.344495 0.325954
vt 0.010418 0.353899
vt 0.323751 0.353573
vt 0.324077 0.666907
vt 0.010745 0.667233
vt 0.343751 0.353552
vt 0.657085 0.353226
vt 0.657411 0.666560
vt 0.344077 0.666886
vt 0.987811 0.666433
vt 0.674478 0.666400
vt 0.674512 0.353067
vt 0.987845 0.353100
vn 0.0000 -1.0000 0.0000
vn 0.0000 1.0000 0.0000
vn 1.0000 0.0000 -0.0000
vn -0.0000 0.0000 -1.0000
vn -1.0000 0.0000 0.0000
vn 0.0000 -0.0000 1.0000
usemtl Material.002
s 1
f 1/1/1 4/2/1 3/3/1 2/4/1
f 5/5/2 8/6/2 7/7/2 6/8/2
f 9/9/3 12/10/3 11/11/3 10/12/3
f 13/13/4 16/14/4 15/15/4 14/16/4
f 17/17/5 20/18/5 19/19/5 18/20/5
f 21/21/6 24/22/6 23/23/6 22/24/6
