# Blender v2.90.0 OBJ File: ''
# www.blender.org
mtllib Pathtrim.mtl
o Cube.001_Cube.012
v -0.366407 0.134880 -5.716354
v -0.343957 0.134880 -5.716354
v -0.317766 0.124031 -5.716354
v -0.306917 0.097840 -5.716354
v -0.306917 0.075113 -5.716354
v 0.300649 0.097838 5.721372
v 0.300649 0.097840 -5.716354
v 0.300649 0.075113 -5.716354
v 0.300649 0.075111 5.721372
v 0.360139 0.134878 5.721372
v 0.360139 0.134880 -5.716354
v 0.337689 0.134880 -5.716354
v 0.337689 0.134878 5.721372
v -0.563307 -0.013083 5.721372
v 0.557041 -0.013083 5.721372
v 0.300649 0.075111 5.721372
v -0.306917 0.075111 5.721372
v -0.563307 -0.851334 5.721372
v 0.557041 -0.851334 5.721372
v 0.557039 -0.013081 -5.716354
v 0.557039 0.063995 -5.716354
v 0.557041 0.063993 5.721372
v 0.557041 -0.013083 5.721372
v 0.557041 0.063993 5.721372
v 0.557039 0.063995 -5.716354
v -0.366405 0.134878 5.721372
v -0.366407 0.134880 -5.716354
v -0.563307 0.063995 -5.716354
v -0.563307 0.063993 5.721372
v -0.563307 -0.013083 5.721372
v -0.563307 0.063993 5.721372
v -0.563307 0.063995 -5.716354
v -0.563307 -0.013081 -5.716354
v 0.360139 0.134878 5.721372
v 0.337689 0.134878 5.721372
v 0.311498 0.124029 5.721372
v 0.300649 0.097838 5.721372
v 0.300649 0.075111 5.721372
v 0.300649 0.075113 -5.716354
v -0.306917 0.075113 -5.716354
v -0.306917 0.075111 5.721372
v 0.557041 0.063993 5.721372
v 0.300649 0.097840 -5.716354
v 0.311498 0.124031 -5.716354
v 0.337689 0.134880 -5.716354
v 0.360139 0.134880 -5.716354
v 0.300649 0.075113 -5.716354
v -0.343957 0.134878 5.721372
v -0.343957 0.134880 -5.716354
v -0.366405 0.134878 5.721372
v -0.563307 0.063993 5.721372
v -0.306917 0.097838 5.721372
v -0.317766 0.124029 5.721372
v -0.343957 0.134878 5.721372
v -0.563307 -0.013081 -5.716354
v -0.563307 0.063995 -5.716354
v 0.557039 -0.013081 -5.716354
v 0.557039 0.063995 -5.716354
v 0.557039 -0.851332 -5.716354
v 0.557041 -0.851334 5.721372
v -0.563307 -0.851334 5.721372
v -0.563307 -0.851332 -5.716354
v -0.563307 -0.851332 -5.716354
v -0.563307 -0.851334 5.721372
v 0.557041 -0.851334 5.721372
v 0.557039 -0.851332 -5.716354
v 0.557039 -0.851332 -5.716354
v -0.563307 -0.851332 -5.716354
v 0.311498 0.124029 5.721372
v 0.311498 0.124031 -5.716354
v 0.311498 0.124031 -5.716354
v 0.311498 0.124029 5.721372
v -0.306917 0.097838 5.721372
v -0.306917 0.097840 -5.716354
v -0.317766 0.124031 -5.716354
v -0.317766 0.124029 5.721372
v -0.317766 0.124029 5.721372
v -0.317766 0.124031 -5.716354
v -0.306917 0.075111 5.721372
v -0.306917 0.075113 -5.716354
vt 0.980595 0.117130
vt 0.978479 0.119420
vt 0.973370 0.120368
vt 0.985885 0.000000
vt 0.990298 1.000000
vt 0.985886 1.000000
vt 0.701927 1.000000
vt 0.697547 0.000000
vt 0.701926 0.000000
vt 0.951735 0.097952
vt 0.968937 0.022416
vt 0.968937 0.075536
vt 0.788228 0.000000
vt 0.951735 0.000000
vt 0.396230 1.000000
vt 0.411193 0.000000
vt 0.411193 1.000000
vt 0.740333 1.000000
vt 0.778740 1.000000
vt 0.740333 0.000000
vt 0.778741 0.000000
vt 0.218532 1.000000
vt 0.233495 0.000000
vt 0.233495 1.000000
vt 0.980595 0.019178
vt 0.978479 0.021468
vt 0.973370 0.022416
vt 0.692438 1.000000
vt 0.573928 0.000000
vt 0.692438 0.000000
vt 0.980595 0.017215
vt 0.980595 0.178689
vt 0.973370 0.173488
vt 0.980595 0.176726
vt 0.783119 1.000000
vt 0.980595 0.080737
vt 0.973370 0.075536
vt 0.980595 0.078774
vt 0.980595 0.115167
vt 0.951735 0.097952
vt 0.966769 0.097952
vt 0.968937 0.173488
vt 0.951735 0.195904
vt 0.218532 1.000000
vt 0.000001 0.000000
vt 0.218532 0.000000
vt 0.396230 1.000000
vt 0.573928 1.000000
vt 0.788228 0.097952
vt 0.980595 0.000000
vt 0.692438 0.000000
vt 0.697548 1.000000
vt 0.692439 1.000000
vt 0.994710 0.000000
vt 1.000000 1.000000
vt 0.994710 1.000000
vt 0.788228 1.000000
vt 0.783119 0.000000
vt 0.788228 0.000000
vt 0.990298 0.000000
vt 0.968937 0.120368
vt 0.990297 0.000000
vt 0.788228 0.097952
vt 0.396230 0.000000
vt 0.740333 0.000000
vt 0.740333 1.000000
vt 0.218532 0.000000
vt 0.573928 1.000000
vt 0.966769 0.000000
vt 0.978479 0.174436
vt 0.966769 0.097952
vt 0.978479 0.076484
vt 0.966769 0.195904
vt 0.000000 1.000000
vt 0.396230 0.000000
vt 0.573928 0.000000
vt 0.788228 0.195904
vt 0.980595 1.000000
vt 1.000000 0.000000
vt 0.990298 1.000000
vn 0.0000 0.0000 -1.0000
vn -0.9808 0.1951 0.0000
vn -1.0000 0.0000 0.0000
vn 0.1719 0.9851 0.0000
vn -0.1951 0.9808 0.0000
vn -0.0000 0.0000 1.0000
vn 1.0000 0.0000 -0.0000
vn 0.3387 0.9409 0.0000
vn -0.1719 0.9851 0.0000
vn -0.3387 0.9409 0.0000
vn 0.0000 1.0000 0.0000
vn 0.1951 0.9808 0.0000
vn 0.0000 -1.0000 -0.0000
vn -0.9239 0.3827 0.0000
vn -0.3827 0.9239 0.0000
vn 0.9808 0.1951 0.0000
vn 0.9239 0.3827 0.0000
vn 0.3827 0.9239 0.0000
usemtl None.006
s 1
f 2/1/1 3/2/1 4/3/1
f 7/4/2 9/5/3 6/6/2
f 11/7/4 13/8/5 10/9/4
f 14/10/6 16/11/6 17/12/6
f 14/10/6 19/13/6 15/14/6
f 21/15/7 23/16/7 20/17/7
f 10/9/4 25/18/8 11/7/4
f 27/19/9 29/20/10 26/21/9
f 31/22/3 33/23/3 30/24/3
f 35/25/6 36/26/6 37/27/6
f 39/28/11 41/29/11 38/30/11
f 15/14/6 34/31/6 16/11/6
f 46/32/1 43/33/1 45/34/1
f 26/21/9 49/35/12 27/19/9
f 50/36/6 14/10/6 17/12/6
f 50/36/6 52/37/6 54/38/6
f 1/39/1 55/40/1 56/41/1
f 55/40/1 47/42/1 57/43/1
f 46/32/1 57/43/1 47/42/1
f 60/44/13 62/45/13 59/46/13
f 33/23/3 64/47/3 30/24/3
f 23/16/7 66/48/7 20/17/7
f 57/43/1 68/49/1 55/40/1
f 6/6/2 70/50/14 7/4/2
f 72/51/15 12/52/5 71/53/15
f 74/54/16 76/55/17 73/56/16
f 78/57/18 48/58/12 77/59/18
f 73/56/16 80/60/7 74/54/16
f 5/61/1 1/39/1 4/3/1
f 1/39/1 2/1/1 4/3/1
f 7/4/2 8/62/3 9/5/3
f 11/7/4 12/52/5 13/8/5
f 14/10/6 15/14/6 16/11/6
f 14/10/6 18/63/6 19/13/6
f 21/15/7 22/64/7 23/16/7
f 10/9/4 24/65/8 25/18/8
f 27/19/9 28/66/10 29/20/10
f 31/22/3 32/67/3 33/23/3
f 16/11/6 34/31/6 37/27/6
f 34/31/6 35/25/6 37/27/6
f 39/28/11 40/68/11 41/29/11
f 15/14/6 42/69/6 34/31/6
f 47/42/1 43/33/1 46/32/1
f 43/33/1 44/70/1 45/34/1
f 26/21/9 48/58/12 49/35/12
f 50/36/6 51/71/6 14/10/6
f 17/12/6 52/37/6 50/36/6
f 52/37/6 53/72/6 54/38/6
f 1/39/1 5/61/1 55/40/1
f 55/40/1 5/61/1 47/42/1
f 46/32/1 58/73/1 57/43/1
f 60/44/13 61/74/13 62/45/13
f 33/23/3 63/75/3 64/47/3
f 23/16/7 65/76/7 66/48/7
f 57/43/1 67/77/1 68/49/1
f 6/6/2 69/78/14 70/50/14
f 72/51/15 13/8/5 12/52/5
f 74/54/16 75/79/17 76/55/17
f 78/57/18 49/35/12 48/58/12
f 73/56/16 79/80/7 80/60/7
