# Blender 3.4.1
# www.blender.org
mtllib GunkBag_HULL.mtl
o Gunk_Bag_BAG_MAIN_LOWPOLY.001
v -0.089231 0.051462 -0.035373
v -0.057178 0.051591 -0.047717
v -0.098722 0.001780 -0.034298
v -0.068182 -0.060991 -0.035783
v 0.042264 0.047686 -0.050824
v 0.048882 -0.071397 -0.039190
v 0.105214 0.003951 -0.033156
v 0.090651 -0.064157 -0.022937
v -0.085730 -0.066784 0.013320
v -0.056361 -0.071677 0.026337
v 0.087607 -0.067971 0.022339
v -0.075053 0.044666 0.028390
v -0.090031 0.044839 0.017701
v -0.091544 -0.018707 0.031703
v 0.105394 -0.014590 0.028331
v 0.085630 0.009613 0.042165
v 0.095584 0.051185 -0.036559
v 0.073277 0.013551 0.035757
v -0.069039 0.004046 0.043883
v 0.083098 -0.056207 0.051632
v -0.057460 -0.072703 0.049825
v -0.051185 0.001822 0.055145
v 0.065879 0.003197 0.053744
v -0.059589 -0.000080 0.036835
v -0.042577 -0.057479 0.042323
v 0.039027 -0.036517 0.027427
v -0.048240 -0.044102 0.028666
v 0.003322 0.041809 0.033333
v 0.089450 0.047665 0.026384
v -0.070289 -0.010346 -0.025699
v -0.065209 -0.026131 0.016059
v 0.072592 -0.026760 0.013375
v 0.076236 -0.026701 -0.024171
v 0.004749 -0.039331 -0.035212
v 0.063566 -0.049154 -0.004807
v -0.037342 -0.050318 -0.012956
v 0.075438 0.063380 -0.096261
v 0.092520 0.064007 -0.093908
v 0.083880 0.085203 -0.093468
v 0.080840 0.077220 -0.083677
v 0.090748 0.086514 -0.079992
v 0.075257 0.090339 -0.076814
v 0.081919 0.096800 -0.067793
v 0.087021 0.082840 -0.065290
v 0.082433 0.078446 -0.056106
v 0.091527 0.086681 -0.052534
v 0.076649 0.084308 -0.045948
v 0.082832 0.056998 -0.041485
v 0.074891 0.049233 -0.050773
v 0.086530 0.059339 -0.055089
v 0.092405 0.048501 -0.050472
v 0.094615 0.045830 -0.041873
v 0.073739 0.049057 -0.040262
v -0.067584 0.061624 -0.096163
v -0.078606 0.066937 -0.087361
v -0.086237 0.064349 -0.096643
v -0.075014 0.076805 -0.082257
v -0.069105 0.083282 -0.090372
v -0.085183 0.086678 -0.086681
v -0.073305 0.096335 -0.064638
v -0.079987 0.081105 -0.057745
v -0.084919 0.092729 -0.066516
v -0.068258 0.087439 -0.062043
v -0.072382 0.078374 -0.040678
v -0.085398 0.079679 -0.045576
v -0.068175 0.076234 -0.049437
v -0.070033 0.054565 -0.053515
v -0.084409 0.044338 -0.049777
v -0.068546 0.050544 -0.044270
v -0.083261 0.052074 -0.042409
v 0.065814 0.054742 -0.054322
v 0.065459 0.045355 -0.043866
v 0.071095 0.053982 -0.039207
v 0.065171 0.062944 -0.052501
v 0.075380 0.056162 -0.050729
v 0.070940 0.070577 -0.041692
v 0.072206 0.078727 -0.049112
v 0.072649 0.066388 -0.033773
v 0.064517 0.074064 -0.037370
v 0.073233 0.069796 -0.029578
v 0.064880 0.065308 -0.029779
v 0.073897 0.048746 -0.032814
v -0.065855 0.048375 -0.046669
v -0.056358 0.056610 -0.050491
v -0.061515 0.050736 -0.054166
v -0.057390 0.077542 -0.049813
v -0.063870 0.064789 -0.049935
v -0.066140 0.077971 -0.046063
v -0.060062 0.069652 -0.042123
v -0.055379 0.071397 -0.032171
v -0.061620 0.060397 -0.035005
v -0.065852 0.056055 -0.029358
v -0.056077 0.049325 -0.031717
v -0.060048 0.053318 -0.043126
v 0.097378 0.063547 -0.038464
v -0.008046 0.062096 -0.051002
v 0.095607 0.047848 0.026351
v 0.093617 0.050692 -0.038687
v 0.096195 0.051851 0.029502
v 0.077092 0.062768 0.032874
v -0.084481 0.065849 -0.035638
v -0.083434 0.048429 -0.038793
v -0.046399 0.059857 0.034019
v -0.089516 0.043604 0.006318
v -0.087315 0.052589 0.027958
v -0.084229 0.031035 0.027043
v -0.089128 0.020233 0.028798
v -0.110099 0.035242 0.024105
v -0.114811 0.036435 0.020863
v -0.116388 0.022496 0.022725
v -0.132650 0.029917 0.011510
v -0.076819 0.025785 -0.030252
v -0.109665 0.023338 -0.040897
v -0.093650 0.028697 -0.038749
v -0.122781 0.035318 -0.035991
v 0.119473 0.007697 0.005089
v 0.114152 0.021865 0.009260
v 0.109752 0.024366 -0.008936
v 0.112864 0.007275 -0.010810
v 0.095744 0.017607 -0.022934
v 0.057747 0.021537 0.027354
v 0.062281 0.019202 0.036356
v 0.065935 0.007137 0.037821
v 0.082230 0.015642 0.043466
v 0.057039 0.008748 0.024240
v -0.083290 0.037625 -0.033318
v 0.110615 0.025882 0.005203
v 0.113776 -0.065604 0.000798
v 0.077511 -0.069779 0.037133
v 0.102121 -0.069596 0.062538
v 0.142225 -0.063372 0.025433
v 0.076670 0.021237 0.036501
v 0.141226 0.017982 0.039055
v 0.129289 -0.024331 0.058473
v 0.111930 0.017123 0.064063
v -0.094544 0.053676 -0.020778
v -0.102527 -0.041710 0.026816
v -0.107012 0.050407 0.018233
v -0.098525 -0.028745 -0.040428
v -0.121096 -0.043169 -0.031430
v -0.123406 -0.045178 0.013930
v -0.138977 0.038998 0.008195
v -0.134814 -0.001511 -0.037806
v -0.126795 0.047197 -0.031052
vn -0.5208 0.8417 -0.1424
vn -0.1211 0.6557 -0.7453
vn -0.8285 -0.0678 -0.5559
vn -0.3795 -0.6297 -0.6779
vn 0.0777 0.5041 -0.8601
vn 0.1257 -0.7245 -0.6778
vn 0.6548 -0.6258 -0.4238
vn 0.8208 -0.0130 -0.5711
vn 0.5739 -0.8076 0.1357
vn -0.3003 -0.9456 0.1247
vn -0.6736 -0.7066 0.2165
vn -0.8476 -0.0621 0.5270
vn 0.3962 0.3708 0.8400
vn 0.9316 -0.0158 0.3631
vn 0.2665 0.9297 0.2542
vn 0.4737 -0.5177 0.7124
vn -0.3827 -0.6599 0.6466
vn -0.2413 0.4583 0.8554
vn -0.2353 0.6059 0.7600
vn 0.1553 0.9091 0.3865
vn 0.3285 0.9294 -0.1683
vn 0.0626 0.3542 0.9331
vn 0.5079 0.2004 0.8378
vn -0.1105 0.9831 0.1459
vn -0.0005 0.4341 0.9009
vn 0.3855 0.8463 -0.3676
vn -0.0012 0.5564 0.8309
vn -0.7043 0.4495 0.5494
vn 0.6894 0.4320 0.5814
vn -0.3159 0.9224 0.2224
vn 0.5624 0.5711 -0.5980
vn -0.5838 0.4689 -0.6628
vn -0.4012 0.9131 -0.0722
vn -0.5935 -0.7061 -0.3862
vn -0.9016 0.3891 -0.1890
vn 0.0465 0.6077 -0.7928
vn -0.1395 -0.7100 0.6902
vn 0.6828 -0.6979 -0.2161
vn 0.9758 0.1891 -0.1102
vn -0.0367 0.9984 0.0436
vn -0.2905 -0.5992 -0.7460
vn 0.8535 0.3580 0.3785
vn 0.6783 -0.7347 -0.0115
vn -0.6172 0.4062 0.6738
vn 0.0091 0.2585 0.9660
vn 0.7451 -0.5258 -0.4103
vn 0.1350 -0.1305 -0.9822
vn -0.7339 -0.4961 -0.4640
vn -0.8332 -0.2454 0.4956
vn 0.7600 -0.4366 0.4814
vn 0.7374 0.4003 -0.5440
vn -0.7383 -0.4860 -0.4677
vn -0.7956 0.4240 -0.4328
vn 0.1985 -0.7578 0.6216
vn -0.2250 -0.6102 0.7596
vn 0.9932 -0.0511 0.1048
vn -0.4484 -0.7026 -0.5525
vn 0.3481 0.3895 0.8527
vn 0.3057 0.9441 0.1233
vn 0.9875 0.0792 -0.1364
vn 0.7068 -0.5703 0.4186
vn -0.5266 -0.3048 0.7936
vn -0.8176 0.3684 0.4425
vn -0.4991 -0.8403 -0.2115
vn 0.5844 -0.3353 -0.7390
vn 0.6636 -0.6489 -0.3724
vn -0.5080 -0.8555 -0.1007
vn -0.8665 0.2154 -0.4503
vn -0.4221 -0.3230 -0.8471
vn 0.5518 0.7969 -0.2459
vn 0.9233 -0.0565 -0.3798
vn 0.5296 -0.8475 0.0358
vn 0.2858 0.8455 -0.4510
vn -0.8533 0.4713 0.2231
vn 0.5828 0.3988 0.7080
vn -0.8445 0.0161 0.5353
vn 0.8061 -0.2930 -0.5141
vn 0.5074 -0.6170 0.6015
vn 0.9822 0.0115 -0.1877
vn -0.0304 0.9834 0.1789
vn 0.6353 -0.6001 0.4860
vn -0.7324 -0.6689 -0.1271
vn 0.1773 -0.1936 0.9649
vn 0.5291 0.6560 -0.5383
vn -0.0235 -0.5352 -0.8444
vn -0.7447 0.6545 -0.1305
vn 0.4464 -0.8720 -0.2008
vn 0.6612 0.4228 0.6197
vn -0.7159 -0.1120 0.6891
vn 0.0217 -0.0406 -0.9989
vn 0.5196 -0.7808 0.3471
vn -0.5516 -0.5400 -0.6357
vn 0.5189 -0.6272 -0.5808
vn 0.0081 0.2999 -0.9539
vn 0.6827 0.5229 -0.5104
vn 0.6505 -0.0076 0.7595
vn 0.1904 0.5623 0.8047
vn -0.0868 0.4021 0.9115
vn -0.7371 -0.6690 0.0954
vn -0.6104 0.6523 -0.4494
vn -0.6439 -0.7628 -0.0603
vn 0.5657 -0.7871 0.2460
vn -0.1454 0.6479 0.7477
vn -0.5687 0.7370 -0.3653
vn 0.9549 0.2924 0.0519
vn -0.8606 -0.0500 -0.5069
vn 0.8556 -0.3700 0.3620
vn 0.2256 -0.0322 -0.9737
vn 0.4580 0.8762 0.1502
vn -0.9506 0.2924 0.1046
vn -0.6040 -0.7162 -0.3497
vn 0.2379 0.9105 0.3383
vn 0.0275 -0.5510 -0.8341
vn 0.4031 -0.8295 -0.3865
vn -0.3289 0.9441 0.0217
vn -0.7195 0.1291 -0.6824
vn 0.9122 0.0335 0.4083
vn -0.4996 0.5544 0.6656
vn -0.0891 -0.9778 0.1895
vn -0.5201 0.5693 -0.6367
vn -0.3694 -0.5913 -0.7168
vn 0.0053 -0.5507 -0.8347
vn -0.7877 -0.6160 -0.0124
vn -0.8163 0.5756 0.0488
vn -0.0783 -0.6508 0.7552
vn 0.6253 -0.0788 0.7764
vn 0.0039 0.5689 0.8224
vn 0.8217 -0.5547 -0.1310
vn 0.8155 0.5735 0.0781
vn 0.0207 0.6719 -0.7404
vn 0.2681 0.6814 0.6810
vn 0.4136 -0.5399 0.7331
vn 0.5997 0.7301 -0.3275
vn 0.6216 -0.3606 -0.6954
vn -0.3739 -0.8022 -0.4654
vn -0.8036 0.4310 0.4104
vn -0.4333 0.6540 -0.6202
vn -0.6889 -0.0285 -0.7243
vn 0.4870 0.3471 0.8015
vn -0.4688 0.7677 0.4368
vn 0.3206 0.9425 0.0947
vn -0.8295 0.5524 0.0823
vn -0.6403 0.0249 0.7677
vn -0.5652 -0.7200 0.4026
vt 0.211409 0.857890
vt 0.974071 0.631777
vt 0.046379 0.099232
vt 0.220130 0.909725
vt 0.865239 0.619679
vt 0.957161 0.658207
vt 0.123806 0.853062
vt 0.750179 0.616904
vt 0.465169 0.371586
vt 0.043852 0.865471
vt 0.927285 0.723732
vt 0.748058 0.745907
vt 0.653762 0.314767
vt 0.833965 0.827186
vt 0.754668 0.826981
vt 0.720016 0.315000
vt 0.465787 0.445632
vt 0.032954 0.757119
vt 0.593466 0.418012
vt 0.034473 0.717682
vt 0.325615 0.622321
vt 0.744591 0.925664
vt 0.735541 0.377951
vt 0.563662 0.635315
vt 0.217402 0.735902
vt 0.258614 0.644019
vt 0.141296 0.028052
vt 0.083259 0.054481
vt 0.203010 0.764672
vt 0.096358 0.751639
vt 0.288394 0.676916
vt 0.827401 0.917432
vt 0.596120 0.686484
vt 0.984329 0.452426
vt 0.875990 0.944984
vt 0.577891 0.753818
vt 0.923259 0.806866
vt 0.176442 0.438009
vt 0.894350 0.968215
vt 0.974253 0.477751
vt 0.147956 0.709198
vt 0.298244 0.752714
vt 0.744404 0.458728
vt 0.548847 0.663089
vt 0.343746 0.643610
vt 0.747271 0.430329
vt 0.335989 0.750696
vt 0.510716 0.760050
vt 0.939883 0.417285
vt 0.751934 0.477982
vt 0.155417 0.687384
vt 0.822884 0.440859
vt 0.901927 0.461839
vt 0.811544 0.465210
vt 0.959605 0.976136
vt 0.860393 0.586761
vt 0.226896 0.695400
vt 0.218115 0.580460
vt 0.928405 0.921638
vt 0.323166 0.518629
vt 0.200930 0.491096
vt 0.367912 0.106039
vt 0.106405 0.145619
vt 0.165491 0.118040
vt 0.356168 0.414172
vt 0.292919 0.218508
vt 0.268910 0.374070
vt 0.246594 0.271951
vt 0.157683 0.236601
vt 0.247286 0.230884
vt 0.164008 0.175230
vt 0.801036 0.173649
vt 0.788292 0.176315
vt 0.799931 0.205214
vt 0.764501 0.204944
vt 0.825312 0.191722
vt 0.781895 0.223490
vt 0.819929 0.224272
vt 0.808191 0.241951
vt 0.772955 0.250378
vt 0.841063 0.227618
vt 0.770616 0.273818
vt 0.845561 0.261110
vt 0.795930 0.270266
vt 0.822484 0.276599
vt 0.825678 0.313327
vt 0.850844 0.324272
vt 0.860298 0.300507
vt 0.783412 0.320383
vt 0.858331 0.335340
vt 0.799404 0.335599
vt 0.821578 0.336788
vt 0.835669 0.329933
vt 0.659358 0.655813
vt 0.654773 0.647677
vt 0.689232 0.655414
vt 0.679199 0.659546
vt 0.705970 0.685387
vt 0.639799 0.680118
vt 0.658633 0.686224
vt 0.684506 0.692880
vt 0.668711 0.726547
vt 0.631696 0.752248
vt 0.708761 0.745032
vt 0.685194 0.724512
vt 0.715092 0.706716
vt 0.650733 0.729790
vt 0.668020 0.769613
vt 0.689829 0.766531
vt 0.649914 0.768377
vt 0.646865 0.808281
vt 0.716970 0.811984
vt 0.662809 0.829202
vt 0.699259 0.818907
vt 0.663542 0.808514
vt 0.686339 0.806309
vt 0.537088 0.044974
vt 0.518159 0.044578
vt 0.514634 0.025410
vt 0.515931 0.066851
vt 0.540001 0.070287
vt 0.548337 0.037742
vt 0.550771 0.028546
vt 0.539321 0.057732
vt 0.488373 0.031236
vt 0.573638 0.067394
vt 0.573577 0.028482
vt 0.566964 0.049324
vt 0.594545 0.061972
vt 0.490010 0.065322
vt 0.492066 0.024883
vt 0.582781 0.040943
vt 0.592214 0.054753
vt 0.493311 0.056330
vt 0.598501 0.043967
vt 0.488894 0.043436
vt 0.508736 0.051628
vt 0.381198 0.037384
vt 0.393053 0.058717
vt 0.390661 0.047491
vt 0.422156 0.051027
vt 0.409509 0.029747
vt 0.408614 0.067950
vt 0.426188 0.040940
vt 0.431489 0.065626
vt 0.432886 0.026911
vt 0.443960 0.056395
vt 0.354180 0.067205
vt 0.456656 0.068624
vt 0.456227 0.026146
vt 0.354947 0.023789
vt 0.354943 0.040475
vt 0.460931 0.043764
vt 0.457720 0.055282
vt 0.362721 0.051551
vt 0.379011 0.065675
vt 0.379076 0.023344
vt 0.590566 0.932236
vt 0.425958 0.954290
vt 0.619457 0.857899
vt 0.538546 0.139973
vt 0.450383 0.789954
vt 0.476727 0.093221
vt 0.603254 0.945750
vt 0.597761 0.836969
vt 0.564928 0.832448
vt 0.310834 0.922103
vt 0.301284 0.329061
vt 0.296762 0.932826
vt 0.374566 0.819261
vt 0.351431 0.369900
vt 0.277058 0.865671
vt 0.383769 0.394169
vt 0.301700 0.827329
vt 0.294612 0.595793
vt 0.647676 0.628091
vt 0.278041 0.597777
vt 0.662258 0.623442
vt 0.628341 0.591358
vt 0.291442 0.546739
vt 0.619254 0.585318
vt 0.266787 0.553657
vt 0.648327 0.581673
vt 0.273136 0.521380
vt 0.620545 0.553315
vt 0.488309 0.567364
vt 0.598748 0.611155
vt 0.439797 0.574638
vt 0.566218 0.573787
vt 0.583770 0.585762
vt 0.464335 0.560421
vt 0.418557 0.565738
vt 0.533217 0.575881
vt 0.688394 0.532608
vt 0.495353 0.511653
vt 0.669690 0.533413
vt 0.492153 0.497389
vt 0.676952 0.564874
vt 0.511748 0.483122
vt 0.544617 0.503037
vt 0.700248 0.558155
vt 0.701249 0.589339
vt 0.548840 0.486233
vt 0.382649 0.578111
vt 0.452910 0.493616
vt 0.352661 0.580913
vt 0.373870 0.549286
vt 0.435902 0.494115
vt 0.427541 0.503480
vt 0.364756 0.553127
vt 0.403769 0.490116
vt 0.337073 0.565393
vt 0.386347 0.558918
vt 0.461835 0.506574
vt 0.484237 0.547522
vt 0.578238 0.614825
vt 0.900439 0.025150
vt 0.613485 0.236425
vt 0.692951 0.430186
vt 0.921960 0.152066
vt 0.607402 0.153693
vt 0.897845 0.196382
vt 0.649337 0.098968
vt 0.755813 0.047884
vt 0.947239 0.225722
vt 0.694668 0.069938
vt 0.827836 0.057892
vt 0.968363 0.164265
vt 0.655359 0.228051
vt 0.714997 0.488262
vt 0.834741 0.168699
vt 0.963414 0.023662
vt 0.624362 0.449869
vt 0.790523 0.117935
vt 0.580416 0.499734
vt 0.748034 0.157105
vt 0.716144 0.210554
vt 0.642060 0.501934
vt 0.173890 0.537352
vt 0.714417 0.867694
vt 0.111970 0.527229
vt 0.022202 0.417547
vt 0.077484 0.618979
vt 0.652522 0.866233
vt 0.189902 0.581024
vt 0.065325 0.428537
vt 0.964993 0.326157
vt 0.021136 0.672853
vt 0.063056 0.375466
vt 0.898013 0.331645
vt 0.063956 0.655686
vt 0.658220 0.927724
vt 0.898791 0.237198
vt 0.172355 0.650090
vt 0.720281 0.973965
vt 0.966776 0.257460
vt 0.134692 0.425001
vt 0.713635 0.917813
vt 0.159084 0.505417
s 1
f 1/1/1 2/4/2 3/7/3
f 2/4/2 4/10/4 3/7/3
f 2/5/2 5/11/5 6/12/6
f 8/15/7 6/12/6 7/14/8
f 11/23/9 10/19/10 6/13/6
f 4/9/4 10/19/10 9/17/11
f 3/7/3 9/18/11 14/30/12
f 16/35/13 15/32/14 29/59/15
f 8/15/7 15/32/14 11/22/9
f 8/15/7 7/14/8 15/32/14
f 15/33/14 20/44/16 11/24/9
f 14/31/12 10/21/10 21/45/17
f 16/34/13 18/40/18 23/49/19
f 22/46/20 23/49/19 25/52/21
f 22/46/20 25/52/21 19/43/22
f 18/39/18 16/35/13 29/59/15
f 24/51/23 12/25/24 19/41/22
f 18/39/18 29/59/15 28/55/25
f 6/12/6 5/11/5 17/37/26 7/14/8
f 17/38/26 34/69/27 33/68/28
f 1/3/1 30/63/29 34/69/27
f 13/28/30 30/63/29 1/3/1
f 30/63/29 13/28/30 31/64/31
f 12/27/24 31/64/31 13/28/30
f 12/27/24 32/66/32 31/64/31
f 35/70/33 33/68/28 34/69/27
f 37/72/34 42/78/35 39/74/36
f 40/75/37 38/73/38 41/77/39
f 39/74/36 42/78/35 43/79/40
f 42/78/35 40/76/37 45/83/41
f 41/77/39 43/79/40 46/84/42
f 44/80/43 41/77/39 46/84/42
f 42/78/35 45/83/41 47/85/44
f 44/80/43 46/84/42 45/82/41
f 46/84/42 48/86/45 51/91/46
f 45/83/41 50/88/47 49/87/48
f 48/86/45 47/85/44 49/87/48
f 48/86/45 49/87/48 53/93/49
f 50/88/47 51/90/46 49/87/48
f 52/92/50 48/86/45 53/93/49
f 58/100/51 56/97/52 59/101/53
f 57/98/54 59/101/53 55/96/55
f 63/107/56 57/99/54 58/100/51
f 61/104/57 57/98/54 63/106/56
f 61/104/57 59/101/53 57/98/54
f 64/108/58 63/107/56 60/102/59
f 66/110/60 61/103/57 63/107/56
f 69/115/61 66/110/60 64/108/58
f 69/115/61 64/108/58 70/116/62
f 70/116/62 65/109/63 68/114/64
f 68/113/64 67/111/65 69/115/61
f 68/113/64 69/115/61 70/116/62
f 55/96/55 56/97/52 54/94/66
f 72/118/67 74/122/68 71/117/69
f 72/118/67 73/119/70 74/122/68
f 75/124/71 72/118/67 71/117/69
f 73/120/70 75/124/71 74/121/68
f 74/122/68 75/123/71 76/127/72
f 71/117/69 74/122/68 77/128/73
f 77/128/73 79/132/74 80/133/75
f 81/136/76 76/125/72 78/131/77
f 78/131/77 73/119/70 72/118/67
f 82/137/78 81/136/76 72/118/67
f 73/120/70 80/134/75 82/137/78
f 84/139/79 94/156/80 93/155/81
f 83/138/82 94/157/80 87/142/83
f 86/141/84 84/139/79 85/140/85
f 88/144/86 83/138/82 87/142/83
f 87/143/83 84/139/79 89/145/87
f 88/144/86 87/142/83 89/146/87
f 90/147/88 89/145/87 86/141/84
f 90/147/88 88/144/86 92/153/89
f 93/154/81 90/147/88 92/153/89
f 93/154/81 91/149/90 90/147/88
f 94/156/80 91/148/90 93/155/81
f 83/138/82 92/152/89 91/151/90
f 93/155/81 92/152/89 83/138/82
f 97/161/91 102/168/92 98/163/93
f 98/164/93 96/159/94 95/158/95
f 99/165/96 100/166/97 97/162/91
f 103/170/98 97/162/91 100/166/97
f 97/161/91 104/171/99 102/168/92
f 103/170/98 100/166/97 101/167/100
f 101/167/100 102/169/92 104/172/99
f 110/183/101 107/178/102 108/179/103
f 109/180/104 106/175/105 107/177/102
f 109/180/104 110/182/101 111/184/106
f 108/179/103 109/181/104 111/185/106
f 112/186/107 114/191/108 126/215/109
f 115/192/110 114/191/108 113/188/111
f 118/198/112 117/196/113 119/201/114
f 119/200/114 116/195/115 120/203/116
f 124/211/117 122/208/118 123/209/119
f 119/201/114 117/196/113 116/194/115
f 124/212/117 121/204/120 122/206/118
f 123/210/119 125/213/121 121/204/120
f 125/213/121 123/210/119 122/207/118
f 109/180/104 107/177/102 110/182/101
f 112/187/107 113/189/111 114/190/108
f 126/215/109 114/191/108 115/192/110
f 120/202/116 118/198/112 119/201/114
f 128/221/122 129/223/123 132/229/124
f 130/224/125 134/234/126 135/236/127
f 134/234/126 130/224/125 131/227/128
f 131/227/128 133/231/129 134/234/126
f 133/232/129 131/228/128 127/217/130
f 128/220/122 127/217/130 131/228/128
f 138/245/131 137/243/132 136/239/133
f 137/242/132 139/246/134 136/241/133
f 140/249/135 139/246/134 137/242/132
f 136/240/133 142/252/136 138/244/131
f 136/240/133 144/258/137 142/252/136
f 143/255/138 142/252/136 144/258/137
f 2/5/2 6/12/6 4/8/4
f 13/29/30 14/30/12 19/41/22 12/25/24
f 8/16/7 11/23/9 6/13/6
f 4/9/4 6/13/6 10/19/10
f 3/7/3 4/10/4 9/18/11
f 3/7/3 14/30/12 13/29/30 1/1/1
f 5/11/5 2/6/2 17/37/26
f 15/32/14 7/14/8 17/37/26 29/59/15
f 14/30/12 9/18/11 10/20/10
f 11/24/9 20/44/16 21/45/17 10/21/10
f 20/44/16 15/33/14 16/36/13
f 22/47/20 19/42/22 14/31/12 21/45/17
f 22/47/20 21/45/17 20/44/16 23/48/19
f 19/43/22 25/52/21 27/54/139 24/50/23
f 20/44/16 16/36/13 23/48/19
f 23/49/19 18/40/18 26/53/140
f 23/49/19 26/53/140 25/52/21
f 25/52/21 26/53/140 27/54/139
f 28/56/25 24/50/23 27/54/139 26/53/140
f 33/67/28 32/65/32 29/60/15 17/38/26
f 28/56/25 26/53/140 18/40/18
f 24/51/23 28/57/25 12/25/24
f 28/58/25 29/61/15 12/26/24
f 1/2/1 17/37/26 2/6/2
f 17/38/26 1/3/1 34/69/27
f 12/27/24 29/62/15 32/66/32
f 31/64/31 32/66/32 35/70/33 36/71/141
f 33/68/28 35/70/33 32/66/32
f 51/91/46 50/89/47 45/82/41 46/84/42
f 36/71/141 30/63/29 31/64/31
f 36/71/141 35/70/33 34/69/27
f 34/69/27 30/63/29 36/71/141
f 39/74/36 38/73/38 37/72/34
f 40/76/37 37/72/34 38/73/38
f 41/77/39 38/73/38 39/74/36
f 42/78/35 37/72/34 40/76/37
f 41/77/39 39/74/36 43/79/40
f 44/80/43 40/75/37 41/77/39
f 45/83/41 40/76/37 44/81/43
f 43/79/40 42/78/35 47/85/44
f 46/84/42 43/79/40 47/85/44
f 48/86/45 46/84/42 47/85/44
f 49/87/48 47/85/44 45/83/41
f 51/90/46 52/92/50 53/93/49 49/87/48
f 51/91/46 48/86/45 52/92/50
f 95/158/95 99/165/96 97/160/91 98/164/93
f 56/97/52 58/100/51 54/94/66
f 54/94/66 57/99/54 55/95/55
f 58/100/51 57/99/54 54/94/66
f 59/101/53 56/97/52 55/96/55
f 59/101/53 60/102/59 58/100/51
f 60/102/59 63/107/56 58/100/51
f 62/105/142 60/102/59 59/101/53
f 61/104/57 62/105/142 59/101/53
f 61/104/57 65/109/63 62/105/142
f 65/109/63 60/102/59 62/105/142
f 66/110/60 63/107/56 64/108/58
f 64/108/58 60/102/59 65/109/63
f 68/114/64 65/109/63 61/104/57
f 66/110/60 67/111/65 61/103/57
f 69/115/61 67/111/65 66/110/60
f 67/112/65 68/114/64 61/104/57
f 70/116/62 64/108/58 65/109/63
f 73/120/70 82/137/78 75/124/71
f 75/124/71 82/137/78 72/118/67
f 75/124/71 71/117/69 77/128/73
f 76/126/72 75/124/71 77/128/73
f 78/129/77 76/126/72 77/128/73
f 77/128/73 74/122/68 79/132/74
f 79/132/74 74/122/68 76/127/72
f 78/129/77 77/128/73 80/133/75
f 80/133/75 79/132/74 81/135/76
f 81/135/76 79/132/74 76/127/72
f 73/120/70 78/130/77 80/134/75
f 82/137/78 80/134/75 81/136/76
f 81/136/76 78/131/77 72/118/67
f 85/140/85 93/155/81 83/138/82
f 85/140/85 84/139/79 93/155/81
f 87/143/83 94/156/80 84/139/79
f 88/144/86 85/140/85 83/138/82
f 88/144/86 86/141/84 85/140/85
f 89/145/87 84/139/79 86/141/84
f 90/147/88 86/141/84 88/144/86
f 90/147/88 91/149/90 89/145/87
f 92/153/89 88/144/86 89/146/87
f 91/150/90 92/153/89 89/146/87
f 83/138/82 91/151/90 94/157/80
f 95/158/95 100/166/97 99/165/96
f 98/164/93 102/169/92 96/159/94
f 131/228/128 130/225/125 129/222/123 128/220/122
f 95/158/95 101/167/100 100/166/97
f 101/167/100 95/158/95 96/159/94
f 102/169/92 101/167/100 96/159/94
f 97/161/91 105/173/143 104/171/99
f 105/174/143 97/162/91 103/170/98
f 101/167/100 105/174/143 103/170/98
f 105/174/143 101/167/100 104/172/99
f 120/203/116 116/195/115 118/199/112
f 118/199/112 116/195/115 117/197/113
f 124/212/117 123/210/119 121/204/120
f 121/205/120 125/214/121 122/208/118
f 107/178/102 106/176/105 108/179/103
f 108/179/103 106/176/105 109/181/104
f 110/183/101 108/179/103 111/185/106
f 113/189/111 112/187/107 126/216/109
f 115/193/110 113/189/111 126/216/109
f 127/218/130 128/221/122 132/229/124
f 143/256/138 140/247/135 141/250/144 142/253/136
f 132/229/124 130/226/125 135/237/127
f 130/226/125 132/229/124 129/223/123
f 134/235/126 133/233/129 135/238/127
f 127/219/130 135/238/127 133/233/129
f 127/219/130 132/230/124 135/238/127
f 141/251/144 140/248/135 137/243/132
f 137/243/132 142/254/136 141/251/144
f 137/243/132 138/245/131 142/254/136
f 144/259/137 136/241/133 139/246/134 143/257/138
f 143/257/138 139/246/134 140/249/135
