# Blender 4.0.0
# www.blender.org
o cassette_player_tape
v -0.032005 -0.017427 -0.003546
v -0.048252 -0.032250 -0.002288
v -0.049423 -0.031513 -0.002296
v -0.050193 -0.030216 -0.002306
v -0.048648 0.032169 -0.002297
v -0.050201 0.030258 -0.002297
v -0.034945 -0.032380 -0.003546
v 0.048662 -0.032159 -0.002262
v 0.050171 -0.030315 -0.002302
v 0.048854 0.032077 -0.002298
v 0.050175 0.030256 -0.002266
v 0.033223 -0.032383 -0.003679
v -0.032005 -0.017427 0.003546
v -0.050253 -0.029467 0.002348
v -0.048274 -0.032221 0.002296
v -0.049755 -0.031193 0.002283
v -0.048308 0.032222 0.002293
v -0.050019 0.030823 0.002282
v -0.034945 -0.032380 0.003546
v 0.033359 -0.032384 0.003675
v 0.048324 -0.032214 0.002292
v 0.050022 -0.030815 0.002298
v 0.048648 0.032169 0.002297
v 0.050201 0.030258 0.002296
vn 0.0007 0.9999 -0.0159
vn -0.4289 0.3472 -0.8340
vn -0.0449 0.0090 -0.9990
vn -0.0452 0.0089 -0.9989
vn 0.4646 0.3655 0.8066
vn 0.6623 0.5377 0.5218
vn 0.0206 0.0165 0.9997
vn -0.0020 0.0004 -1.0000
vn 0.0809 0.0006 -0.9967
vn -0.0680 0.0037 0.9977
vn -0.0097 -1.0000 -0.0000
vn 0.7115 0.5262 -0.4657
vn -0.4916 0.5962 0.6348
vn -0.6257 0.5694 -0.5331
vn -0.4582 0.4912 0.7408
vn 0.0013 0.0230 0.9997
vn 0.9999 -0.0015 0.0133
vn 0.3809 -0.4656 0.7989
vn 0.4745 -0.4434 -0.7604
vn 0.6384 -0.6946 0.3316
vn -0.0001 -1.0000 -0.0001
vn -0.9207 -0.2639 -0.2875
vn -0.3387 -0.4909 -0.8027
vn -0.5293 -0.5363 -0.6574
vn -0.0019 0.0004 1.0000
vn -0.9304 -0.1371 0.3400
vn -0.6433 -0.4739 0.6013
vn -0.9992 0.0039 0.0392
vn -0.3556 -0.5031 0.7877
vn 0.0103 -0.9999 -0.0113
vn -0.0810 0.0001 -0.9967
vn 0.0013 0.0230 -0.9997
vn -0.0000 -1.0000 -0.0000
vn -0.0126 -0.9999 0.0064
vn -0.0915 -0.0866 0.9920
vn 0.4896 0.3411 -0.8024
vn -0.9999 -0.0001 -0.0128
vn 0.0924 -0.0968 -0.9910
vn 0.6781 -0.5651 -0.4700
vn 0.0013 0.0231 0.9997
vn -0.0215 0.0182 0.9996
vn 0.0007 0.9999 -0.0158
vn 0.0013 0.0231 -0.9997
vn -0.0946 -0.0991 -0.9906
vn 0.0402 0.0117 -0.9991
vn 0.0927 -0.1164 0.9889
vn 0.0824 -0.0002 0.9966
vn 0.0145 -0.9999 -0.0004
vt 0.486725 0.001280
vt 0.010626 0.002401
vt 0.000000 0.000000
vt 0.615099 0.780457
vt 0.001156 0.013141
vt 0.613586 0.010077
vt 0.009450 0.790569
vt 0.003359 0.000053
vt 0.605584 0.791112
vt 0.002643 0.386677
vt 0.012134 0.395443
vt 0.010577 0.399325
vt 0.388730 0.257871
vt 0.603650 0.398061
vt 0.610915 0.402138
vt 0.615979 0.378928
vt 0.645220 0.459299
vt 0.002382 0.001162
vt 0.612448 0.389166
vt 0.469052 0.306245
vt 0.251248 0.157719
vt 0.001160 0.780475
vt 0.001230 0.409570
s 0
f 17/1/1 23/2/1 10/3/1
s 1
f 6/4/2 1/3/3 7/3/4
f 24/5/5 23/2/6 20/3/7
s 0
f 12/3/8 7/3/8 1/3/8
f 9/3/9 12/3/9 11/3/9
f 13/3/10 18/6/10 14/3/10
f 19/3/11 2/3/11 7/3/11
s 1
f 24/5/5 10/7/12 23/8/6
f 17/1/13 5/9/14 18/3/15
s 0
f 13/3/16 20/3/16 23/2/16
f 24/5/17 22/10/17 9/3/17
s 1
f 21/11/18 8/12/19 22/3/20
s 0
f 12/3/21 20/3/21 19/3/21
s 1
f 4/13/22 2/14/23 3/15/24
s 0
f 20/3/25 13/3/25 19/3/25
s 1
f 14/16/26 4/13/22 16/3/27
s 0
f 6/17/28 14/18/28 18/6/28
s 1
f 6/4/2 5/9/14 1/3/3
f 16/19/27 2/14/23 15/3/29
s 0
f 20/3/30 8/3/30 21/3/30
f 4/13/31 6/17/31 7/3/31
f 1/3/32 10/3/32 12/3/32
f 12/3/33 19/3/33 7/3/33
f 24/5/17 9/3/17 11/3/17
f 19/3/34 15/20/34 2/3/34
s 1
f 14/16/26 16/21/27 19/3/35
f 24/5/5 11/22/36 10/7/12
f 14/18/26 6/17/37 4/13/22
f 15/20/29 19/3/35 16/21/27
f 8/12/19 12/3/38 9/23/39
s 0
f 13/3/40 23/2/40 17/1/40
f 13/3/10 14/3/10 19/3/10
s 1
f 18/6/15 13/3/41 17/1/13
s 0
f 17/1/42 10/3/42 5/3/42
s 1
f 22/10/20 8/12/19 9/23/39
f 18/6/15 5/9/14 6/4/2
s 0
f 1/3/43 5/3/43 10/3/43
s 1
f 4/13/22 7/3/44 2/14/23
f 11/22/36 12/3/45 10/7/12
f 22/10/20 20/3/46 21/11/18
s 0
f 22/10/47 24/5/47 20/3/47
s 1
f 16/21/27 4/13/22 3/15/24
f 16/19/27 3/15/24 2/14/23
s 0
f 20/3/48 12/3/48 8/3/48
