# Blender 4.0.0
# www.blender.org
o Cube.001_Cube.002
v -0.298780 -0.786393 -0.064781
v -1.677592 0.627980 -0.046391
v 0.297355 0.637352 -0.099668
v 0.314216 0.631887 -0.099668
v 0.321200 0.319272 -0.099668
v 0.313061 0.316823 -0.124575
v -1.656495 0.151837 -0.059472
v 7.724945 0.284282 -0.006406
v 0.099139 0.712933 0.386873
v 0.209227 0.346430 0.641876
v 0.224434 0.547621 0.641876
v 0.173896 0.637209 0.641876
v -0.045063 0.459131 -0.415865
v -0.019780 0.446347 -0.415865
v -0.008151 0.456341 -0.415865
v -0.032279 0.484415 -0.415865
v -0.039087 0.480574 -0.415865
v -0.043908 0.474421 -0.415865
v -0.262527 0.125831 1.541344
v 0.314216 0.631887 0.099668
v 0.321200 0.319272 0.099668
v 0.122889 -0.778244 -0.063227
v 0.295003 0.633352 -0.124810
v 0.099139 0.712933 0.431767
v -0.007251 0.743285 0.396823
v 0.236840 0.445513 0.641876
v 0.024659 0.728112 0.646443
v 0.004406 0.458840 -0.382293
v -0.022338 0.514216 -0.405183
v -0.041308 0.511911 -0.405183
v -0.041223 0.452323 -0.415865
v -0.035069 0.447503 -0.415865
v -0.027539 0.445404 -0.415865
v -0.012971 0.450188 -0.415865
v -0.017745 0.484784 -0.415984
v -0.046006 0.466891 -0.415865
vn 0.2743 0.9616 -0.0000
vn -0.0000 -0.0000 -1.0000
vn -0.3559 0.2788 -0.8920
vn 0.0422 -0.3476 -0.9367
vn 0.0028 -0.9113 -0.4118
vn 0.0100 -0.8512 -0.5248
vn -0.0085 0.0151 -0.9998
vn -0.7864 0.2191 -0.5776
vn -0.1946 -0.1098 -0.9747
vn -0.1713 -0.2187 -0.9606
vn -0.1948 0.2266 -0.9543
vn -0.1808 0.3205 -0.9298
vn -0.1879 0.2750 -0.9429
vn -0.0721 -0.2587 -0.9633
vn -0.0074 0.9877 -0.1564
vn 0.0487 0.9898 -0.1339
vn -0.9483 -0.1152 0.2959
vn -0.1592 -0.9871 0.0166
vn -0.1731 0.3068 -0.9359
vn 0.5120 0.8500 0.1242
vn 0.9594 -0.2025 0.1964
vn -0.5113 -0.7423 0.4331
vn 0.0532 0.0138 -0.9985
vn -0.0909 0.7485 -0.6569
vn 0.1456 -0.2581 -0.9551
vn 0.8535 0.1037 0.5107
vn 0.0150 -0.8696 0.4936
vn 0.0755 0.9836 -0.1636
vn 0.0492 0.8980 -0.4372
vn -0.0040 -0.9988 0.0492
vn 0.9402 -0.1795 -0.2896
vn -0.7536 -0.0514 0.6554
vn 0.2708 0.9619 -0.0391
vn 0.0519 -0.0407 -0.9978
vn -0.2469 0.8388 0.4853
vn 0.5931 -0.1473 -0.7915
vn -0.6152 -0.7855 0.0670
vn -0.0000 -0.0000 1.0000
vn -0.8605 -0.4853 0.1551
vn 0.9200 -0.2564 0.2963
vn 0.8718 -0.3065 0.3821
vn 0.8909 -0.0315 -0.4530
vn 0.0025 -0.9138 -0.4062
vn -0.0066 0.0051 -1.0000
vn -0.2035 0.1594 -0.9660
vn -0.2148 0.0599 -0.9748
vn -0.3438 -0.9390 -0.0103
vn 0.0865 0.0105 0.9962
vn 0.5191 0.8462 0.1203
vn 0.0585 0.3520 -0.9342
vn -0.1160 0.9546 -0.2743
vn 0.4313 0.6783 0.5949
vn -0.9725 -0.1182 0.2008
vn 0.0877 0.0495 0.9949
vn 0.7129 0.4021 0.5745
vn 0.0561 0.9984 -0.0000
vn -0.0046 -0.9999 0.0111
vn -0.2112 -0.0257 -0.9771
vn -0.0876 0.9936 0.0716
vn 0.2668 0.9634 0.0245
vn 0.0857 -0.0239 0.9960
vn -0.1836 0.3030 -0.9351
vn -0.1196 0.9552 -0.2706
vn -0.0425 0.3496 -0.9359
vn -0.9853 0.0653 0.1581
vn 0.8819 -0.2458 0.4023
vn 0.0713 0.9462 0.3156
vn 0.3083 0.9510 -0.0222
vn -0.0025 -0.0050 -1.0000
vn 0.9841 -0.1778 -0.0000
vn 0.0507 -0.0899 -0.9947
vn 0.0489 0.9857 -0.1614
vn 0.0089 -0.2759 -0.9611
vn -0.1672 -0.2366 -0.9571
vn 0.7640 -0.5985 -0.2412
vn -0.2192 0.0171 -0.9755
vn -0.2669 -0.9574 -0.1106
vn -0.1688 0.9621 -0.2142
vn -0.9626 -0.1667 0.2137
vn 0.0065 0.9615 -0.2747
vn -0.0164 0.3422 -0.9395
vn -0.8613 0.5081 -0.0000
vn 0.0332 -0.2730 -0.9614
vt 0.576132 0.596739
vt 0.000000 0.000000
vt 0.863109 0.336930
vt 0.648711 0.487739
vt 0.648711 0.489430
vt 0.001538 0.000507
vt 0.862299 0.338886
vt 0.073980 0.022506
vt 0.648747 0.194961
vt 0.868673 0.334623
vt 0.866558 0.334623
vt 0.258863 0.558709
vt 0.648749 0.193103
vt 0.833370 0.085786
vt 0.553388 0.312168
vt 0.674696 0.237611
vt 0.083810 0.017127
vt 0.325062 0.539391
vt 0.654535 0.194738
vt 0.626915 0.184780
vt 0.813944 0.867275
vt 0.578297 0.165177
vt 0.586929 0.385032
vt 0.356315 0.131265
vt 0.178944 0.227604
vt 0.110891 0.176169
vt 0.910948 0.656774
vt 0.100614 0.264316
vt 0.332611 0.509835
vt 0.047526 0.437222
vt 0.100678 0.222999
vt 0.742878 0.766658
vt 0.706007 0.015844
vt 0.706951 0.109960
s 1
f 25/1/1 24/2/1 9/2/1
s 0
f 32/3/2 18/4/2 33/2/2
f 17/5/3 18/4/3 30/2/3
s 1
f 14/2/4 8/6/5 33/7/6
s 0
f 35/8/7 17/5/7 16/9/7
s 1
f 30/2/8 18/4/8 36/10/8
s 0
f 31/2/9 7/2/9 13/11/9
f 31/2/10 32/3/10 7/2/10
s 1
f 2/12/11 16/9/12 17/13/13
f 32/3/14 33/7/14 1/14/14
s 0
f 3/2/15 23/2/15 9/2/15
f 8/15/16 3/2/16 9/2/16
f 12/2/17 24/2/17 10/2/17
f 6/2/18 21/2/18 10/2/18
f 16/9/19 17/13/19 30/2/19
f 24/2/20 12/2/20 20/2/20
f 22/16/21 21/2/21 26/2/21
f 1/17/22 19/2/22 7/18/22
f 15/19/23 35/8/23 8/20/23
f 29/2/24 30/2/24 2/21/24
s 1
f 22/16/25 14/2/25 34/2/25
s 0
f 19/22/26 26/2/26 11/2/26
f 19/22/27 1/17/27 22/23/27
f 25/2/28 3/2/28 23/2/28
f 23/2/29 8/15/29 29/2/29
s 1
f 8/15/30 10/2/30 21/2/30
s 0
f 22/16/31 6/2/31 5/2/31
f 7/18/32 19/24/32 2/25/32
f 9/2/33 3/2/33 25/2/33
f 34/2/34 15/19/34 8/6/34
f 27/26/35 2/27/35 19/22/35
s 1
f 6/2/36 22/16/36 28/2/36
s 0
f 31/2/37 32/3/37 10/2/37
f 26/2/38 12/2/38 10/2/38
s 1
f 13/2/2 18/4/2 31/2/2
f 31/2/39 10/2/39 13/11/39
s 0
f 10/2/40 22/16/40 26/2/40
f 10/2/41 19/22/41 22/16/41
f 34/2/42 28/2/42 22/16/42
f 32/3/2 31/2/2 18/4/2
s 1
f 8/28/5 6/2/43 33/7/6
s 0
f 35/8/44 18/4/44 17/5/44
s 1
f 2/12/11 17/5/13 18/4/45
s 0
f 36/10/46 2/12/46 18/4/46
f 32/3/47 6/2/47 10/2/47
f 8/15/48 11/2/48 26/2/48
f 24/2/49 27/2/49 12/2/49
f 8/15/50 35/8/50 29/2/50
f 30/2/51 23/2/51 29/2/51
f 12/2/52 27/29/52 19/22/52
f 13/11/53 24/2/53 36/10/53
f 8/15/54 12/2/54 11/2/54
s 1
f 11/2/55 12/2/55 19/22/55
f 9/2/56 24/2/56 8/15/56
s 0
f 8/30/57 21/2/57 6/2/57
s 1
f 7/31/58 36/10/58 13/11/58
s 0
f 25/32/59 2/27/59 27/26/59
f 24/2/60 25/32/60 27/26/60
f 26/2/61 10/2/61 8/15/61
f 30/2/62 16/9/62 2/21/62
f 29/2/63 25/2/63 23/2/63
f 29/2/64 16/9/64 30/2/64
f 36/10/65 9/2/65 30/2/65
f 10/2/66 26/2/66 19/22/66
f 8/15/67 24/2/67 12/2/67
f 9/2/68 4/2/68 3/2/68
f 15/19/69 18/4/69 35/2/69
f 5/2/70 21/2/70 22/16/70
f 8/6/71 14/2/71 34/2/71
f 8/15/72 23/2/72 3/2/72
f 18/4/2 14/2/2 33/2/2
f 33/7/73 22/33/73 1/34/73
s 1
f 13/2/2 36/10/2 18/4/2
s 0
f 32/3/74 1/14/74 7/31/74
f 26/2/38 11/2/38 12/2/38
f 34/2/75 15/19/75 28/2/75
f 36/10/76 7/31/76 2/12/76
f 32/3/77 33/7/77 6/2/77
f 30/2/78 9/2/78 23/2/78
f 13/11/79 10/2/79 24/2/79
f 29/2/80 2/21/80 25/2/80
f 29/2/81 35/8/81 16/9/81
f 36/10/82 24/2/82 9/2/82
f 15/19/2 34/2/2 18/4/2
f 18/4/2 34/2/2 14/2/2
f 33/7/83 14/2/83 22/33/83
