# Blender v3.4.1 OBJ File: 'letter.blend'
# www.blender.org
mtllib letter.mtl
o Cube
v 0.102971 -0.001171 -0.059806
v 0.102971 -0.001598 -0.059806
v 0.102971 -0.001598 0.059806
v -0.101516 -0.001171 -0.059806
v -0.101516 -0.001598 -0.059806
v -0.101516 -0.001598 0.059806
v 0.102971 -0.001171 0.059806
v -0.101516 -0.001171 0.059806
v 0.100374 0.001426 -0.035376
v 0.102942 -0.001142 -0.059777
v 0.078540 0.001426 -0.057210
v -0.098920 0.001426 -0.035376
v -0.077086 0.001426 -0.057210
v -0.101487 -0.001142 -0.059777
v 0.100374 0.001426 0.035376
v 0.078540 0.001426 0.057210
v 0.102942 -0.001142 0.059777
v -0.098920 0.001426 0.035376
v -0.101487 -0.001142 0.059777
v -0.077086 0.001426 0.057210
v 0.100374 -0.004195 -0.034054
v 0.077219 -0.004195 -0.057210
v 0.102942 -0.001627 -0.059777
v 0.100374 -0.004195 0.034054
v 0.102942 -0.001627 0.059777
v 0.077219 -0.004195 0.057210
v -0.075764 -0.004195 -0.057210
v -0.098920 -0.004195 -0.034054
v -0.101487 -0.001627 -0.059777
v -0.075764 -0.004195 0.057210
v -0.101487 -0.001627 0.059777
v -0.098920 -0.004195 0.034054
vt 0.055598 0.092056
vt 0.934559 0.086217
vt 0.055598 0.086217
vt 0.934559 0.092056
vt 0.934559 0.086217
vt 0.166289 0.069943
vt 0.055598 0.933594
vt 0.055598 0.050781
vt 0.066758 0.231091
vt 0.934559 0.092056
vt 0.055598 0.086217
vt 0.934559 0.086217
vt 0.279729 0.069943
vt 0.214538 0.240846
vt 0.279729 0.566776
vt 0.055598 0.050781
vt 0.055598 0.933594
vt 0.066758 0.743529
vt 0.934559 0.050781
vt 0.934559 0.933594
vt 0.923399 0.753284
vt 0.055598 0.086217
vt 0.823867 0.050781
vt 0.829548 0.069943
vt 0.923399 0.231091
vt 0.829548 0.914432
vt 0.055598 0.092056
vt 0.934435 0.933381
vt 0.066758 0.753284
vt 0.160608 0.914432
vt 0.055722 0.933381
vt 0.934435 0.050994
vt 0.055722 0.050994
vt 0.160608 0.069943
vt 0.745323 0.050781
vt 0.823867 0.914432
vt 0.934435 0.085823
vt 0.923399 0.240846
vt 0.055810 0.085823
vt 0.823867 0.069943
vt 0.166289 0.050781
vt 0.055722 0.933381
vt 0.055722 0.086036
vt 0.066758 0.240846
vt 0.244833 0.050781
vt 0.934559 0.092056
vt 0.934435 0.086036
vt 0.055598 0.092056
vt 0.214538 0.395873
vt 0.710428 0.566776
vt 0.710428 0.069943
vt 0.775618 0.395873
vt 0.775618 0.240846
vt 0.055722 0.050994
vt 0.055722 0.085823
vt 0.934347 0.085823
vn -1.0000 0.0000 0.0000
vn 0.0000 0.0000 1.0000
vn 0.0000 -0.7071 0.7071
vn -0.7071 0.7071 0.0000
vn 1.0000 0.0000 0.0000
vn 0.0000 -1.0000 0.0000
vn -0.7071 -0.7071 0.0000
vn 0.7071 0.7071 0.0000
vn 0.0000 -0.7071 -0.7071
vn 0.0000 0.7071 0.7071
vn 0.0000 1.0000 0.0000
vn 0.0000 0.0000 -1.0000
vn 0.0943 0.9911 -0.0943
vn -0.0943 0.9911 -0.0943
vn 0.0943 0.9911 0.0943
vn -0.0943 0.9911 0.0943
vn 0.0000 0.7071 -0.7071
vn 0.0900 -0.9919 -0.0900
vn 0.0900 -0.9919 0.0900
vn -0.0900 -0.9919 -0.0900
vn -0.0900 -0.9919 0.0900
vn 0.7071 -0.7071 0.0000
vn -0.7072 0.7070 0.0000
vn -0.7072 -0.7070 -0.0000
vn 0.7072 0.7070 -0.0000
vn 0.7070 -0.7072 0.0000
usemtl Material
s off
f 8/1/1 5/2/1 6/3/1
f 7/4/2 6/3/2 3/5/2
f 3/5/3 6/3/3 30/6/3
f 4/7/4 8/8/4 18/9/4
f 1/10/5 3/11/5 2/12/5
f 30/13/6 32/14/6 27/15/6
f 6/16/7 5/17/7 28/18/7
f 7/19/8 1/20/8 9/21/8
f 5/22/9 2/12/9 22/23/9
f 8/8/10 7/19/10 16/24/10
f 16/24/11 15/25/11 11/26/11
f 4/27/12 2/12/12 5/22/12
f 9/21/13 10/28/13 11/26/13
f 12/29/14 13/30/14 14/31/14
f 15/25/15 16/24/15 17/32/15
f 18/9/16 19/33/16 20/34/16
f 1/20/17 4/7/17 13/30/17
f 21/35/18 22/36/18 23/37/18
f 24/38/19 25/39/19 26/40/19
f 27/41/20 28/18/20 29/42/20
f 30/6/21 31/43/21 32/44/21
f 2/12/22 3/11/22 24/45/22
f 8/1/1 4/46/1 5/2/1
f 7/4/2 8/1/2 6/3/2
f 6/3/3 31/43/3 30/6/3
f 30/6/3 26/40/3 3/5/3
f 26/40/3 25/47/3 3/5/3
f 8/8/23 19/33/23 18/9/23
f 18/9/4 12/29/4 4/7/4
f 12/29/4 14/31/4 4/7/4
f 1/10/5 7/48/5 3/11/5
f 32/14/6 28/49/6 27/15/6
f 27/15/6 22/50/6 26/51/6
f 22/50/6 21/52/6 26/51/6
f 21/52/6 24/53/6 26/51/6
f 26/51/6 30/13/6 27/15/6
f 5/17/24 29/42/24 28/18/24
f 28/18/7 32/44/7 6/16/7
f 32/44/7 31/54/7 6/16/7
f 1/20/25 10/28/25 9/21/25
f 9/21/8 15/25/8 7/19/8
f 15/25/25 17/32/25 7/19/25
f 2/12/9 23/37/9 22/23/9
f 22/23/9 27/41/9 5/22/9
f 27/41/9 29/55/9 5/22/9
f 7/19/10 17/32/10 16/24/10
f 16/24/10 20/34/10 8/8/10
f 20/34/10 19/33/10 8/8/10
f 15/25/11 9/21/11 11/26/11
f 11/26/11 13/30/11 20/34/11
f 13/30/11 12/29/11 20/34/11
f 12/29/11 18/9/11 20/34/11
f 20/34/11 16/24/11 11/26/11
f 4/27/12 1/10/12 2/12/12
f 4/7/17 14/31/17 13/30/17
f 13/30/17 11/26/17 1/20/17
f 11/26/17 10/28/17 1/20/17
f 3/11/26 25/39/26 24/45/26
f 24/45/22 21/35/22 2/12/22
f 21/35/26 23/56/26 2/12/26
