# Exported from Wings 3D 2.2.4
mtllib ConstanceBuildingRoof.mtl
o Cube3_extract6
#30 vertices, 56 faces
v -11.57128916 18.33310507 -10.74687646
v -11.50121748 18.33362648 -10.85778989
v -11.38573439 18.33362715 -10.97292254
v -11.24830101 18.33293200 -11.04671028
v -11.41086572 18.32320464 -5.48775460
v -11.56653392 18.33243002 -5.61838309
v 2.85990852 14.57225481 -11.30303529
v 3.34569352 14.48024290 -5.49179969
v 3.31346022 14.48224706 -10.80045015
v 3.22548112 14.49283160 -10.99184846
v 3.07970381 14.52064544 -11.14562500
v -11.57456087 18.18339639 -10.74820644
v -11.50357273 18.18391987 -10.86019389
v -11.38808964 18.18392055 -10.97532653
v -11.27595250 18.18349656 -11.04731632
v -11.43941453 18.17401320 -5.48727049
v -11.57072177 18.18273881 -5.61863893
v 2.83248377 14.36400293 -11.30235294
v 3.31826876 14.30920038 -5.49111734
v 3.31819678 14.24747580 -10.80328356
v 3.23683964 14.26470319 -10.99764129
v 3.08444036 14.29778546 -11.14845841
v 3.07537626 14.33660166 -8.39673514
v -11.35768351 18.17875488 -8.26729340
v 3.31823277 14.27833809 -8.40392612
v -11.57264132 18.18306760 -8.18342268
v 3.10280102 14.59542593 -8.39741749
v -11.32958336 18.48348787 -8.26723244
v 3.32957687 14.55042205 -8.40285059
v -11.56891154 18.48818710 -8.18262977
vt 9.8848629e-2 0.64286524
vt 0.10446669 0.77095380
vt 0.10467122 0.77732671
vt 0.10869950 0.49975118
vt 0.10873193 0.50356824
vt 0.10874249 0.51503183
vt 0.10874377 0.50942747
vt 0.11194082 0.77107449
vt 0.11214278 0.77750147
vt 0.11283873 0.34214458
vt 0.11407940 0.64307335
vt 0.11471570 0.47013903
vt 0.11488566 0.21412865
vt 0.11618331 0.49987085
vt 0.11620703 0.50357349
vt 0.11621765 0.51509158
vt 0.11621829 0.51505284
vt 0.11621886 0.50943272
vt 0.11771111 0.79239219
vt 0.11809483 0.47567608
vt 0.11824746 0.78430603
vt 0.11973624 0.50952491
vt 0.12251865 0.20760781
vt 0.12367381 0.48142391
vt 0.12445795 0.34951473
vt 0.12458441 0.64234447
vt 0.12541156 0.50387867
vt 0.13029316 0.49140613
vt 0.13088785 0.50038291
vt 0.85920668 0.49140613
vt 0.86062372 0.50038291
vt 0.87015875 0.64234447
vt 0.87044348 0.48984397
vt 0.87057844 0.34951473
vt 0.87348692 0.50829110
vt 0.87783312 0.48216627
vt 0.87891679 0.79239219
vt 0.87929976 0.79020814
vt 0.87972729 0.78430603
vt 0.88113191 0.51595508
vt 0.88209917 0.35292996
vt 0.88221329 0.47261147
vt 0.88262944 0.64538693
vt 0.88372474 0.20760781
vt 0.88510647 0.52582197
vt 0.88611466 0.51594801
vt 0.88769076 0.50788453
vt 0.88788512 0.79054029
vt 0.89071129 0.49931771
vt 0.89621597 0.64579971
vt 0.89679201 0.52638857
vt 0.89745195 0.51653186
vt 0.89878451 0.50833990
vt 0.90115137 0.49970554
vn 0.58472861 0.80099126 -0.12847357
vn 0.81357415 0.25984682 -0.52016991
vn 0.58488377 0.62225644 -0.52029597
vn 0.59188311 -0.79189688 -0.15024551
vn 0.71431029 -0.43792182 -0.54588028
vn 0.49562558 -0.46499784 -0.73357501
vn -0.24763156 -0.96881846 8.3305866e-3
vn -0.16305006 -0.98661550 -2.1290173e-3
vn 0.60279862 -0.79783858 9.3496410e-3
vn 0.23082734 0.97299007 3.0094871e-3
vn 0.12869820 0.99161725 -1.1489216e-2
vn 0.92920121 0.36954399 -4.7280883e-3
vn -7.2137096e-3 0.99971106 -2.2929352e-2
vn -0.92897818 2.3119336e-2 -0.36941173
vn -0.92897818 2.3119336e-2 -0.36941173
vn -7.2137096e-3 0.99971106 -2.2929352e-2
vn -0.92897818 2.3119336e-2 -0.36941173
vn -7.2137096e-3 0.99971106 -2.2929352e-2
vn -7.2137096e-3 0.99971106 -2.2929352e-2
vn -0.78042469 2.2311878e-2 -0.62485156
vn 1.2643911e-2 0.99983956 1.2688280e-2
vn -0.78042469 2.2311878e-2 -0.62485156
vn 1.1951882e-2 0.99985512 1.2120249e-2
vn -0.61096589 3.9752071e-2 -0.79065824
vn -0.61096589 3.9752071e-2 -0.79065824
vn 1.1951882e-2 0.99985512 1.2120249e-2
vn -0.61096589 3.9752071e-2 -0.79065824
vn -0.61096589 3.9752071e-2 -0.79065824
vn 7.2958793e-2 0.99688775 -2.9863460e-2
vn -0.25077102 5.0323225e-2 -0.96673754
vn -0.25077102 5.0323225e-2 -0.96673754
vn 7.2958793e-2 0.99688775 -2.9863460e-2
vn 7.2958793e-2 0.99688775 -2.9863460e-2
vn 0.14118973 0.98870371 5.0303346e-2
vn -0.35887110 4.2708478e-2 0.93240952
vn -0.35887110 4.2708478e-2 0.93240952
vn 0.14118973 0.98870371 5.0303346e-2
vn 0.14118973 0.98870371 5.0303346e-2
vn -0.35887110 4.2708478e-2 0.93240952
vn 0.14118973 0.98870371 5.0303346e-2
vn -0.35887110 4.2708478e-2 0.93240952
vn -0.95995726 2.0654411e-2 0.27938405
vn 8.2826623e-3 0.99812653 6.0620369e-2
vn -0.95995726 2.0654411e-2 0.27938405
vn -0.95995726 2.0654411e-2 0.27938405
vn 0.35839004 0.65669263 -0.66355962
vn 0.35839004 0.65669263 -0.66355962
vn 0.35839004 0.65669263 -0.66355962
vn 0.35839004 0.65669263 -0.66355962
vn 0.35839004 0.65669263 -0.66355962
vn 0.35839004 0.65669263 -0.66355962
vn 0.35839004 0.65669263 -0.66355962
vn 0.35839004 0.65669263 -0.66355962
vn 0.57018954 0.71229945 0.40928400
vn 0.57018954 0.71229945 0.40928400
vn 0.57018954 0.71229945 0.40928400
vn 0.57018954 0.71229945 0.40928400
vn -5.8498427e-3 -0.99996382 -6.1749112e-3
vn -0.98258310 1.9789596e-2 -0.18476696
vn -0.98258310 1.9789596e-2 -0.18476696
vn -5.8498427e-3 -0.99996382 -6.1749112e-3
vn -0.98258310 1.9789596e-2 -0.18476696
vn -1.1267195e-2 -0.99987104 -1.1443750e-2
vn -0.78018197 2.2647211e-2 -0.62514254
vn -0.78018197 2.2647211e-2 -0.62514254
vn -1.1267195e-2 -0.99987104 -1.1443750e-2
vn -0.78018197 2.2647211e-2 -0.62514254
vn -0.78018197 2.2647211e-2 -0.62514254
vn -0.62650488 2.2367220e-2 -0.77909649
vn -0.62650488 2.2367220e-2 -0.77909649
vn -1.0628233e-2 -0.99988663 -1.0666467e-2
vn -9.4280403e-2 -0.99553894 -3.6638929e-3
vn -9.4280403e-2 -0.99553894 -3.6638929e-3
vn -9.4280403e-2 -0.99553894 -3.6638929e-3
vn -0.27049704 3.0759136e-2 -0.96222930
vn -0.27049704 3.0759136e-2 -0.96222930
vn -0.27049704 3.0759136e-2 -0.96222930
vn -9.4280403e-2 -0.99553894 -3.6638929e-3
vn -9.4280403e-2 -0.99553894 -3.6638929e-3
vn -9.4280403e-2 -0.99553894 -3.6638929e-3
vn -0.27049704 3.0759136e-2 -0.96222930
vn -0.37650435 7.5042951e-2 0.92337047
vn -0.37650435 7.5042951e-2 0.92337047
vn -0.11410051 -0.99346174 -3.8525560e-3
vn -0.11410051 -0.99346174 -3.8525560e-3
vn -0.11410051 -0.99346174 -3.8525560e-3
vn -0.84443912 6.5061917e-2 0.53168555
vn -0.84443912 6.5061917e-2 0.53168555
vn -6.6227626e-2 -0.99780454 -7.8345052e-5
vn -0.84443912 6.5061917e-2 0.53168555
vn -8.6654139e-2 -0.85363958 -0.51360542
vn -8.6654139e-2 -0.85363958 -0.51360542
vn -8.6654139e-2 -0.85363958 -0.51360542
vn -8.6654139e-2 -0.85363958 -0.51360542
vn -8.6654139e-2 -0.85363958 -0.51360542
vn 0.31968672 -0.79559025 0.51462274
vn 0.31968672 -0.79559025 0.51462274
vn 0.31968672 -0.79559025 0.51462274
vn 0.31968672 -0.79559025 0.51462274
vn 0.31968672 -0.79559025 0.51462274
vn 0.31968672 -0.79559025 0.51462274
vn 0.31968672 -0.79559025 0.51462274
vn -2.6995387e-2 -0.99963482 -1.2128258e-3
vn -2.6995387e-2 -0.99963482 -1.2128258e-3
vn -0.99984685 1.7468560e-2 1.0570254e-3
vn -2.6995387e-2 -0.99963482 -1.2128258e-3
vn -2.6995387e-2 -0.99963482 -1.2128258e-3
vn -0.99984685 1.7468560e-2 1.0570254e-3
vn -0.99984685 1.7468560e-2 1.0570254e-3
vn 1.5653572e-2 0.99968367 1.9685908e-2
vn -0.99988071 1.5430820e-2 6.7490232e-4
vn 1.5653572e-2 0.99968367 1.9685908e-2
vn 1.5653572e-2 0.99968367 1.9685908e-2
vn -0.99988071 1.5430820e-2 6.7490232e-4
vn -0.99988071 1.5430820e-2 6.7490232e-4
g Cube3_extract6
usemtl Cube3_extract6_auv
s 1
f 2/20/21 1/12/18 3/24/26
f 2/7/20 13/18/67 1/6/17
f 3/24/23 1/12/13 4/28/29
f 3/5/27 13/18/68 2/7/22
f 4/28/33 1/12/19 28/25/11
f 4/4/31 15/14/81 3/5/28
f 4/28/32 28/25/11 7/30/53
f 5/19/39 19/39/100 8/37/56
f 5/23/37 27/34/10 28/25/11
f 6/13/43 5/23/38 30/10/113
f 6/2/44 17/8/90 5/3/41
f 6/2/42 26/11/105 17/8/88
f 7/30/50 9/42/1 11/33/3
f 7/30/52 15/29/77 4/28/30
f 7/30/46 28/25/11 27/34/10
f 8/44/57 27/34/10 5/23/40
f 8/44/55 29/41/12 27/34/10
f 9/51/1 20/45/4 10/52/2
f 9/42/1 27/34/10 29/41/12
f 10/36/2 11/33/3 9/42/1
f 10/52/2 22/47/6 11/53/3
f 11/53/3 22/47/6 7/54/51
f 12/16/60 1/6/15 13/18/65
f 12/17/61 15/29/79 26/11/106
f 12/16/59 30/1/111 1/6/14
f 13/18/64 3/5/25 14/15/70
f 13/22/63 15/29/74 12/17/58
f 14/15/69 3/5/24 15/14/76
f 14/27/71 15/29/80 13/22/66
f 15/29/75 7/30/49 18/31/92
f 15/29/73 23/32/7 24/26/8
f 16/9/82 5/3/35 17/8/87
f 16/21/86 24/26/8 19/39/102
f 16/21/84 26/11/104 24/26/8
f 17/8/89 26/11/107 16/21/85
f 18/49/91 7/54/48 22/47/6
f 18/31/94 20/45/4 23/32/7
f 18/31/95 23/32/7 15/29/78
f 19/39/97 5/19/36 16/21/83
f 19/39/96 23/32/7 25/43/9
f 19/39/99 24/26/8 23/32/7
f 19/38/98 29/50/12 8/48/54
f 20/45/4 22/35/6 21/40/5
f 20/45/4 29/50/12 25/43/9
f 21/46/5 10/52/2 20/45/4
f 22/47/6 10/52/2 21/46/5
f 22/35/6 20/45/4 18/31/93
f 24/26/8 26/11/103 15/29/72
f 25/43/9 23/32/7 20/45/4
f 25/43/9 29/50/12 19/38/101
f 26/11/108 30/1/114 12/16/62
f 27/34/10 9/42/1 7/30/47
f 28/25/11 30/10/110 5/23/34
f 29/50/12 20/45/4 9/51/1
f 30/1/115 26/11/109 6/2/45
f 30/10/112 28/25/11 1/12/16
