# Blender 4.0.0
# www.blender.org
o spirit
v 0.273724 0.145176 0.262636
v 0.364337 -0.165128 0.079847
v -0.145636 -0.329407 -0.184626
v 0.079140 -0.215679 -0.341150
v -0.338011 -0.060267 -0.238540
v -0.159026 0.131443 -0.366701
v 0.123165 0.110229 -0.372409
v 0.355163 -0.112977 -0.150278
v 0.064454 -0.420714 0.035143
v -0.341574 -0.177622 0.169975
v 0.359169 0.119095 -0.102665
v 0.138918 0.361883 -0.146171
v -0.386379 0.117145 0.003017
v -0.131048 -0.235923 0.292267
v -0.126928 0.402382 -0.017039
v -0.145664 0.146654 0.361563
v 0.184899 0.334007 0.141860
v 0.225042 -0.148034 0.302289
vn -0.0270 -0.0918 -0.9954
vn 0.6530 -0.7326 -0.1921
vn -0.4854 -0.8681 0.1034
vn -0.7807 0.4188 -0.4639
vn 0.7444 0.6655 -0.0544
vn 0.8487 0.5032 0.1626
vn -0.5298 -0.1707 0.8307
vn 0.1873 0.5903 0.7852
vn 0.2289 0.0930 0.9690
vn -0.7834 -0.5956 -0.1779
vn -0.8235 0.1796 0.5381
vn -0.6913 0.6005 -0.4019
vn -0.3624 -0.4252 -0.8294
vn 0.1637 -0.7379 0.6548
vn -0.3297 -0.2923 -0.8977
vn 0.1137 -0.8743 -0.4719
vn 0.5437 -0.7457 -0.3851
vn 0.0351 0.6669 -0.7443
vn -0.4136 -0.8587 0.3026
vn -0.1687 0.7866 -0.5940
vn 0.1815 0.9812 0.0660
vn 0.0161 -0.1776 0.9840
vn -0.1007 0.8268 0.5535
vn 0.8432 -0.0679 0.5333
vn 0.5574 -0.7249 0.4048
vn 0.9991 -0.0087 -0.0418
vn -0.9810 -0.1839 -0.0614
vn -0.6657 0.6333 0.3948
vn 0.7450 0.1217 -0.6558
vn 0.6502 0.4850 -0.5848
vn 0.6005 -0.1563 -0.7842
vn 0.9643 0.1553 0.2145
vt 0.743371 0.608379
vt 0.478833 0.807133
vt 0.559309 0.608860
vt 0.121548 0.810187
vt 0.199965 0.690597
vt 0.387508 0.918802
vt 0.297354 0.466297
vt 0.363815 0.697025
vt 0.454971 0.599039
vt 0.421533 0.461006
vt 0.410778 0.431780
vt 0.683759 0.439506
vt 0.625751 0.292028
vt 0.605944 0.279717
vt 0.613240 0.171451
vt 0.171263 0.413506
vt 0.261945 0.232199
vt 0.441560 0.116747
vt 0.227212 0.094101
vt 0.361838 0.228142
vt 0.215726 0.015986
vt 0.063557 0.107850
vt 0.203529 0.164843
vt 0.489453 0.774009
vt 0.551045 0.399513
vt 0.219529 0.135862
vt 0.041992 0.521138
vt 0.876650 0.189647
vt 0.171222 0.038067
vt 0.754088 0.062306
vt 0.919906 0.368367
vt 0.398641 0.519917
vt 0.231038 0.433935
vt 0.000000 0.000000
vt 0.563509 0.249814
vt 0.847177 0.447130
vt 0.650105 0.305083
s 0
f 7/1/1 4/2/1 6/3/1
f 2/4/2 9/5/2 8/6/2
f 10/7/3 3/8/3 9/5/3
f 5/9/4 13/10/4 6/11/4
f 12/12/5 17/13/5 11/14/5
f 1/15/6 11/14/6 17/13/6
f 14/16/7 16/17/7 10/7/7
f 1/18/8 17/19/8 16/20/8
f 1/18/9 16/20/9 18/21/9
f 10/22/10 5/9/10 3/8/10
f 10/7/11 16/17/11 13/10/11
f 6/11/12 13/10/12 15/23/12
f 4/24/13 3/8/13 5/9/13
f 18/21/14 14/16/14 9/5/14
f 6/3/15 4/24/15 5/9/15
f 4/2/16 9/5/16 3/8/16
f 9/5/17 4/2/17 8/6/17
f 6/11/18 12/12/18 7/1/18
f 10/7/19 9/5/19 14/16/19
f 15/25/20 12/12/20 6/11/20
f 17/13/21 12/26/21 15/25/21
f 14/16/22 18/27/22 16/17/22
f 15/25/23 16/20/23 17/13/23
f 2/28/24 1/29/24 18/30/24
f 18/27/25 9/5/25 2/4/25
f 11/14/26 2/28/26 8/31/26
f 13/10/27 5/32/27 10/33/27
f 15/34/28 13/10/28 16/17/28
f 8/35/29 7/1/29 11/36/29
f 11/37/30 7/1/30 12/12/30
f 8/6/31 4/34/31 7/1/31
f 11/14/32 1/15/32 2/28/32
