# Blender 5.0.1
# www.blender.org
g Plane_Mesh
v -0.154069 -0.220098 0.000000
v 0.154069 -0.220098 0.000000
v -0.154069 0.220098 -0.000000
v 0.154069 0.220098 -0.000000
v 0.154069 -0.220098 -0.001150
v -0.154069 -0.220098 -0.001150
v 0.154069 0.220098 -0.001150
v -0.154069 0.220098 -0.001150
vn -0.0000 -0.0000 1.0000
vn -0.0000 -0.0000 -1.0000
vt 0.993298 0.016349
vt 0.305860 0.987147
vt 0.305860 0.016349
vt 0.303057 0.016349
vt 0.002829 0.983112
vt 0.002829 0.016349
vt 0.993298 0.987147
vt 0.303057 0.983112
s 0
f 2/1/1 3/2/1 1/3/1
f 6/4/2 7/5/2 5/6/2
f 2/1/1 4/7/1 3/2/1
f 6/4/2 8/8/2 7/5/2
