# Blender v2.90.0 OBJ File: ''
# www.blender.org
mtllib Ouruinpillar.mtl
o Cube.001_Cube.007
v -1.373746 0.626704 -0.820616
v -1.373746 11.601891 -0.820614
v -1.373746 11.601891 -1.389542
v -1.373746 0.626704 -1.389544
v -0.804818 11.601891 -1.389542
v -0.804818 0.626704 -1.389544
v -0.804818 11.601891 -1.261378
v -0.804818 0.626704 -1.261380
v -1.245583 0.626704 -0.820616
v -1.245583 11.601891 -0.820614
v 1.373746 0.626704 -0.820616
v 1.373746 0.626704 -1.389544
v 1.373746 11.601891 -1.389542
v 1.373746 11.601891 -0.820614
v 0.804818 0.626704 -1.389544
v 0.804818 11.601891 -1.389542
v 0.804818 0.626704 -1.261380
v 0.804818 11.601891 -1.261378
v 1.245583 0.626704 -0.820616
v 1.245583 11.601891 -0.820614
v -1.373746 0.626704 0.820616
v -1.373746 0.626704 1.389544
v -1.373746 11.601891 1.389546
v -1.373746 11.601891 0.820618
v -0.804818 0.626704 1.389544
v -0.804818 11.601891 1.389546
v -0.804818 0.626704 1.261380
v -0.804818 11.601891 1.261382
v -1.245583 0.626704 0.820616
v -1.245583 11.601891 0.820618
v 1.373746 0.626704 0.820616
v 1.373746 11.601891 0.820618
v 1.373746 11.601891 1.389546
v 1.373746 0.626704 1.389544
v 0.804818 11.601891 1.389546
v 0.804818 0.626704 1.389544
v 0.804818 11.601891 1.261382
v 0.804818 0.626704 1.261380
v 1.245583 0.626704 0.820616
v 1.245583 11.601891 0.820618
v -1.285652 2.084499 1.285652
v -1.285652 11.478181 1.285654
v -1.285652 11.478181 -1.285650
v -1.285652 2.084500 -1.285652
v 1.285652 11.478181 -1.285650
v 1.285652 2.084500 -1.285652
v 1.285652 11.478181 1.285654
v 1.285652 2.084499 1.285652
v 1.446168 2.084499 1.446169
v 1.446168 2.084500 -1.446168
v -1.496397 11.478181 -1.496395
v 1.496397 11.478181 -1.496395
v 1.496397 11.478181 1.496399
v 1.496397 12.047218 -1.496395
v 1.496397 12.047218 1.496399
v -1.496397 11.478181 1.496399
v -1.496397 12.047218 -1.496395
v -1.496397 12.047218 1.496399
v -1.354197 12.047218 1.354199
v -1.354197 12.047218 -1.354195
v 1.354197 12.047218 1.354199
v 1.354197 11.942766 1.354199
v -1.354197 11.942766 1.354199
v 1.354197 12.047218 -1.354195
v 1.354197 11.942766 -1.354195
v -1.354197 11.942766 -1.354195
v -1.446168 2.084499 1.446169
v -1.446168 1.425793 1.446168
v 1.446168 1.425793 1.446168
v -1.446168 2.084500 -1.446168
v -1.446168 1.425794 -1.446168
v 1.446168 1.425794 -1.446168
v 1.345373 1.425794 -1.345373
v -1.345373 1.425794 -1.345373
v 1.345373 1.425793 1.345373
v 1.345373 1.340385 1.345373
v 1.345373 1.340385 -1.345373
v -1.345373 1.425793 1.345373
v -1.345373 1.340385 1.345373
v -1.442669 1.340385 1.431638
v 1.444597 1.340385 1.431638
v -1.345373 1.340385 -1.345373
v 1.444597 1.340385 -1.442838
v 1.444597 0.661464 1.431638
v 1.444597 0.661464 -1.442838
v -1.442669 1.340385 -1.442838
v 1.533108 0.661464 1.533108
v 1.533108 0.661464 -1.533108
v -1.442669 0.661464 -1.442838
v -1.442669 0.661464 1.431638
v -1.533108 0.661464 1.533108
v -1.592045 0.506889 1.592045
v 1.592045 0.506889 1.592045
v -1.533108 0.661464 -1.533108
v 1.592045 0.506889 -1.592045
v 1.592045 -0.011160 1.592045
v 1.592045 -0.011159 -1.592045
v -1.592045 0.506889 -1.592045
v -1.592045 -0.011160 1.592045
v -1.592045 -0.011159 -1.592045
v -1.485363 -0.011159 -1.485363
v -1.485363 -0.011160 1.485363
v 1.485363 -0.011160 1.485363
v -1.456776 0.045018 1.456776
v 1.456776 0.045018 1.456776
v 1.485363 -0.011159 -1.485363
v -1.456776 0.045019 -1.456776
v 1.456776 0.045019 -1.456776
vt 0.031917 0.461178
vt 0.063833 1.000000
vt 0.031917 1.000000
vt 0.861111 0.461178
vt 0.893027 1.000000
vt 0.861111 1.000000
vt 0.964050 1.000000
vt 0.956860 0.461178
vt 0.964050 0.461178
vt 0.978430 0.461178
vt 0.985620 1.000000
vt 0.978430 1.000000
vt 0.956861 0.461178
vt 0.924944 1.000000
vt 0.924944 0.461178
vt 0.829194 1.000000
vt 0.861111 0.461178
vt 0.861111 1.000000
vt 0.095750 1.000000
vt 0.102940 0.461178
vt 0.102940 1.000000
vt 0.971240 1.000000
vt 0.978430 0.461178
vt 0.978430 1.000000
vt 0.000000 1.000000
vt 0.031917 0.461178
vt 0.031917 1.000000
vt 0.063833 1.000000
vt 0.095750 0.461178
vt 0.095750 1.000000
vt 0.971240 0.461178
vt 0.964050 1.000000
vt 0.964050 0.461178
vt 0.992810 1.000000
vt 1.000000 0.461178
vt 1.000000 1.000000
vt 0.924944 1.000000
vt 0.893027 0.461178
vt 0.924944 0.461178
vt 0.797278 0.461178
vt 0.829194 1.000000
vt 0.797278 1.000000
vt 0.102940 0.461178
vt 0.110130 1.000000
vt 0.102940 1.000000
vt 0.985620 0.461178
vt 0.992810 1.000000
vt 0.985620 1.000000
vt 0.000000 0.000000
vt 0.144249 0.461178
vt 0.000000 0.461178
vt 0.288498 0.461178
vt 0.144249 0.000000
vt 0.288498 0.000000
vt 0.576996 0.461178
vt 0.432747 0.000000
vt 0.576996 0.000000
vt 0.288498 0.000000
vt 0.432747 0.461178
vt 0.288498 0.461178
vt 0.730250 0.297858
vt 0.739255 0.431980
vt 0.730250 0.424099
vt 0.588819 0.010347
vt 0.744891 0.000000
vt 0.733068 0.010347
vt 0.421216 0.764438
vt 0.389294 0.617504
vt 0.421216 0.617504
vt 0.744891 0.146934
vt 0.733068 0.136587
vt 0.588819 0.136587
vt 0.576996 0.000000
vt 0.576996 0.146934
vt 0.467124 0.461178
vt 0.475102 0.601131
vt 0.467124 0.608112
vt 0.389294 0.764438
vt 0.357372 0.617504
vt 0.389294 0.617504
vt 0.325450 0.617504
vt 0.357372 0.764438
vt 0.325450 0.764438
vt 0.421216 0.617504
vt 0.453137 0.764438
vt 0.752164 0.289978
vt 0.746305 0.157007
vt 0.752164 0.157007
vt 0.635019 0.461178
vt 0.475102 0.468160
vt 0.627041 0.601131
vt 0.635019 0.608112
vt 0.627041 0.468160
vt 0.467124 0.741083
vt 0.619064 0.608112
vt 0.619064 0.741083
vt 0.115990 0.594149
vt 0.110130 0.461178
vt 0.115990 0.461178
vt 0.740445 0.157007
vt 0.746305 0.289978
vt 0.740445 0.289978
vt 0.758024 0.289978
vt 0.752164 0.289978
vt 0.228475 0.753719
vt 0.191523 0.611717
vt 0.228475 0.611717
vt 0.586001 0.297858
vt 0.739255 0.289978
vt 0.576996 0.431980
vt 0.586001 0.424099
vt 0.576996 0.289978
vt 0.797278 0.461178
vt 0.640673 0.466127
vt 0.635019 0.461178
vt 0.228475 0.611717
vt 0.265427 0.753719
vt 0.228475 0.753719
vt 0.154571 0.611717
vt 0.191523 0.753719
vt 0.154571 0.753719
vt 0.288498 0.617504
vt 0.325450 0.759506
vt 0.288498 0.759506
vt 0.772398 0.157007
vt 0.777189 0.289111
vt 0.772398 0.289111
vt 0.797278 0.603180
vt 0.791623 0.466127
vt 0.640673 0.598232
vt 0.635019 0.603180
vt 0.791623 0.598232
vt 0.791436 0.740062
vt 0.796275 0.603180
vt 0.796276 0.744933
vt 0.767606 0.157007
vt 0.772398 0.289111
vt 0.767606 0.289111
vt 0.762815 0.157007
vt 0.767606 0.157007
vt 0.762815 0.289111
vt 0.758024 0.157007
vt 0.762815 0.157007
vt 0.858392 0.282878
vt 0.820306 0.141753
vt 0.858392 0.141753
vt 0.640487 0.740062
vt 0.635019 0.603180
vt 0.640486 0.607957
vt 0.635019 0.744933
vt 0.791436 0.607957
vt 0.283533 0.466160
vt 0.288498 0.611717
vt 0.283533 0.607285
vt 0.116485 0.611717
vt 0.154571 0.752842
vt 0.116485 0.752842
vt 0.858392 0.141753
vt 0.820306 0.000000
vt 0.858392 0.000000
vt 0.814671 0.289978
vt 0.852757 0.431731
vt 0.814671 0.431731
vt 0.814671 0.443410
vt 0.806024 0.289978
vt 0.814671 0.292871
vt 0.121558 0.466160
vt 0.116485 0.611717
vt 0.116485 0.461178
vt 0.288498 0.461178
vt 0.121558 0.607285
vt 0.747901 0.289978
vt 0.776963 0.446304
vt 0.747901 0.446304
vt 0.744891 0.002894
vt 0.753537 0.156326
vt 0.744891 0.153432
vt 0.739255 0.292871
vt 0.739255 0.443410
vt 0.782598 0.002894
vt 0.791245 0.156326
vt 0.782598 0.153432
vt 0.288498 0.461178
vt 0.294483 0.612267
vt 0.288498 0.617504
vt 0.791245 0.000000
vt 0.820306 0.156326
vt 0.806024 0.446304
vt 0.776963 0.289978
vt 0.753537 0.000000
vt 0.782598 0.156326
vt 0.852757 0.289978
vt 0.855920 0.434425
vt 0.852757 0.435828
vt 0.461139 0.612267
vt 0.467124 0.617504
vt 0.467124 0.461178
vt 0.294483 0.466416
vt 0.461139 0.466416
vt 0.740445 0.146934
vt 0.576996 0.289978
vt 0.576996 0.146934
vt 0.113294 0.594149
vt 0.116457 0.738596
vt 0.113294 0.740000
vt 0.855920 0.289978
vt 0.859084 0.434425
vt 0.855920 0.435828
vt 0.110130 0.594149
vt 0.113294 0.738596
vt 0.110130 0.740000
vt 0.063833 0.461178
vt 0.893027 0.461178
vt 0.956860 1.000000
vt 0.985620 0.461178
vt 0.956861 1.000000
vt 0.829194 0.461178
vt 0.095750 0.461178
vt 0.971240 0.461178
vt 0.000000 0.461178
vt 0.063833 0.461178
vt 0.971240 1.000000
vt 0.992810 0.461178
vt 0.893027 1.000000
vt 0.829194 0.461178
vt 0.110130 0.461178
vt 0.992810 0.461178
vt 0.144249 0.000000
vt 0.144249 0.461178
vt 0.432747 0.461178
vt 0.432747 0.000000
vt 0.389294 0.764438
vt 0.357372 0.617504
vt 0.453137 0.617504
vt 0.467124 0.608112
vt 0.110130 0.594149
vt 0.746305 0.157007
vt 0.758024 0.157007
vt 0.191523 0.753719
vt 0.265427 0.611717
vt 0.325450 0.617504
vt 0.777189 0.157007
vt 0.772398 0.157007
vt 0.762815 0.289111
vt 0.758024 0.289111
vt 0.820306 0.282878
vt 0.154571 0.611717
vt 0.820306 0.141753
vt 0.852757 0.289978
vt 0.820306 0.000000
vt 0.776963 0.446304
vt 0.782598 0.000000
vt 0.855920 0.291381
vt 0.740445 0.289978
vt 0.116457 0.595553
vt 0.859084 0.291381
vt 0.113294 0.595553
vn -1.0000 0.0000 0.0000
vn 0.0000 0.0000 -1.0000
vn 1.0000 -0.0000 0.0000
vn 0.0000 -0.0000 1.0000
vn -0.0000 1.0000 0.0000
vn 0.0000 -1.0000 -0.0000
vn 0.0000 0.3563 0.9344
vn 0.0000 0.3563 -0.9344
vn 0.9344 0.3563 0.0000
vn -0.9344 0.3563 0.0000
vn 0.0000 -0.4535 -0.8912
vn 0.0000 -0.4535 0.8912
vn -0.8912 -0.4535 -0.0000
vn 0.8912 -0.4535 -0.0000
usemtl None.002
s 1
f 2/1/1 4/2/1 1/3/1
f 3/4/2 6/5/2 4/6/2
f 5/7/3 8/8/3 6/9/3
f 10/10/4 1/11/4 9/12/4
f 12/13/3 14/14/3 11/15/3
f 15/16/2 13/17/2 12/18/2
f 17/19/1 16/20/1 15/21/1
f 11/22/4 20/23/4 19/24/4
f 22/25/1 24/26/1 21/27/1
f 25/28/4 23/29/4 22/30/4
f 27/31/3 26/32/3 25/33/3
f 21/34/2 30/35/2 29/36/2
f 32/37/3 34/38/3 31/39/3
f 33/40/4 36/41/4 34/42/4
f 35/43/1 38/44/1 36/45/1
f 40/46/2 31/47/2 39/48/2
f 42/49/1 44/50/1 41/51/1
f 43/52/2 46/53/2 44/54/2
f 45/55/3 48/56/3 46/57/3
f 47/58/4 41/59/4 48/60/4
f 48/61/5 50/62/5 46/63/5
f 43/64/6 52/65/6 45/66/6
f 52/67/3 55/68/3 53/69/3
f 45/66/6 53/70/6 47/71/6
f 42/72/6 51/73/6 43/64/6
f 47/71/6 56/74/6 42/72/6
f 58/75/5 60/76/5 57/77/5
f 56/78/1 57/79/1 51/80/1
f 53/81/4 58/82/4 56/83/4
f 51/84/2 54/85/2 52/67/2
f 61/86/2 63/87/2 59/88/2
f 55/89/5 59/90/5 58/75/5
f 57/77/5 64/91/5 54/92/5
f 54/92/5 61/93/5 55/89/5
f 66/94/5 62/95/5 65/96/5
f 60/97/4 65/98/4 64/99/4
f 64/100/1 62/101/1 61/102/1
f 59/88/3 66/103/3 60/104/3
f 67/105/4 69/106/4 49/107/4
f 41/108/5 49/109/5 48/61/5
f 46/63/5 70/110/5 44/111/5
f 44/111/5 67/112/5 41/108/5
f 72/113/6 74/114/6 71/115/6
f 50/116/2 71/117/2 70/118/2
f 49/119/3 72/120/3 50/121/3
f 70/122/1 68/123/1 67/124/1
f 75/125/3 77/126/3 73/127/3
f 69/128/6 73/129/6 72/113/6
f 71/115/6 78/130/6 68/131/6
f 68/131/6 75/132/6 69/128/6
f 76/133/5 80/134/5 81/135/5
f 74/136/1 79/137/1 78/138/1
f 78/138/4 76/139/4 75/140/4
f 73/141/2 82/142/2 74/143/2
f 81/144/3 85/145/3 83/146/3
f 77/147/5 86/148/5 82/149/5
f 77/147/5 81/135/5 83/150/5
f 82/149/5 80/134/5 79/151/5
f 84/152/5 88/153/5 85/154/5
f 86/155/1 90/156/1 80/157/1
f 80/158/4 84/159/4 81/160/4
f 83/161/2 89/162/2 86/163/2
f 91/164/7 93/165/7 87/166/7
f 90/167/5 94/168/5 91/169/5
f 90/167/5 87/170/5 84/152/5
f 89/171/5 88/153/5 94/168/5
f 93/172/3 97/173/3 95/174/3
f 88/175/8 98/176/8 94/177/8
f 87/178/9 95/174/9 88/179/9
f 94/180/10 92/181/10 91/182/10
f 100/183/6 102/184/6 99/185/6
f 98/186/1 99/187/1 92/181/1
f 92/188/4 96/189/4 93/165/4
f 95/190/2 100/191/2 98/176/2
f 102/192/11 105/193/11 103/194/11
f 99/185/6 103/195/6 96/196/6
f 97/197/6 101/198/6 100/183/6
f 96/196/6 106/199/6 97/197/6
f 108/200/6 104/201/6 107/202/6
f 106/203/12 107/204/12 101/205/12
f 103/206/13 108/207/13 106/208/13
f 101/209/14 104/210/14 102/211/14
f 2/1/1 3/212/1 4/2/1
f 3/4/2 5/213/2 6/5/2
f 5/7/3 7/214/3 8/8/3
f 10/10/4 2/215/4 1/11/4
f 12/13/3 13/216/3 14/14/3
f 15/16/2 16/217/2 13/17/2
f 17/19/1 18/218/1 16/20/1
f 11/22/4 14/219/4 20/23/4
f 22/25/1 23/220/1 24/26/1
f 25/28/4 26/221/4 23/29/4
f 27/31/3 28/222/3 26/32/3
f 21/34/2 24/223/2 30/35/2
f 32/37/3 33/224/3 34/38/3
f 33/40/4 35/225/4 36/41/4
f 35/43/1 37/226/1 38/44/1
f 40/46/2 32/227/2 31/47/2
f 42/49/1 43/228/1 44/50/1
f 43/52/2 45/229/2 46/53/2
f 45/55/3 47/230/3 48/56/3
f 47/58/4 42/231/4 41/59/4
f 48/61/5 49/109/5 50/62/5
f 43/64/6 51/73/6 52/65/6
f 52/67/3 54/232/3 55/68/3
f 45/66/6 52/65/6 53/70/6
f 42/72/6 56/74/6 51/73/6
f 47/71/6 53/70/6 56/74/6
f 58/75/5 59/90/5 60/76/5
f 56/78/1 58/82/1 57/79/1
f 53/81/4 55/233/4 58/82/4
f 51/84/2 57/234/2 54/85/2
f 61/86/2 62/101/2 63/87/2
f 55/89/5 61/93/5 59/90/5
f 57/77/5 60/76/5 64/91/5
f 54/92/5 64/91/5 61/93/5
f 66/94/5 63/235/5 62/95/5
f 60/97/4 66/236/4 65/98/4
f 64/100/1 65/237/1 62/101/1
f 59/88/3 63/238/3 66/103/3
f 67/105/4 68/239/4 69/106/4
f 41/108/5 67/112/5 49/109/5
f 46/63/5 50/62/5 70/110/5
f 44/111/5 70/110/5 67/112/5
f 72/113/6 73/129/6 74/114/6
f 50/116/2 72/240/2 71/117/2
f 49/119/3 69/106/3 72/120/3
f 70/122/1 71/241/1 68/123/1
f 75/125/3 76/242/3 77/126/3
f 69/128/6 75/132/6 73/129/6
f 71/115/6 74/114/6 78/130/6
f 68/131/6 78/130/6 75/132/6
f 76/133/5 79/151/5 80/134/5
f 74/136/1 82/243/1 79/137/1
f 78/138/4 79/244/4 76/139/4
f 73/141/2 77/245/2 82/142/2
f 81/144/3 84/246/3 85/145/3
f 77/147/5 83/150/5 86/148/5
f 77/147/5 76/133/5 81/135/5
f 82/149/5 86/148/5 80/134/5
f 84/152/5 87/170/5 88/153/5
f 86/155/1 89/247/1 90/156/1
f 80/158/4 90/248/4 84/159/4
f 83/161/2 85/249/2 89/162/2
f 91/164/7 92/188/7 93/165/7
f 90/167/5 89/171/5 94/168/5
f 90/167/5 91/169/5 87/170/5
f 89/171/5 85/154/5 88/153/5
f 93/172/3 96/189/3 97/173/3
f 88/175/8 95/190/8 98/176/8
f 87/178/9 93/172/9 95/174/9
f 94/180/10 98/186/10 92/181/10
f 100/183/6 101/198/6 102/184/6
f 98/186/1 100/250/1 99/187/1
f 92/188/4 99/251/4 96/189/4
f 95/190/2 97/252/2 100/191/2
f 102/192/11 104/253/11 105/193/11
f 99/185/6 102/184/6 103/195/6
f 97/197/6 106/199/6 101/198/6
f 96/196/6 103/195/6 106/199/6
f 108/200/6 105/254/6 104/201/6
f 106/203/12 108/255/12 107/204/12
f 103/206/13 105/256/13 108/207/13
f 101/209/14 107/257/14 104/210/14
