# Blender 3.6.1
# www.blender.org
mtllib arch_circle_wall.mtl
o Cube_Cube.003
v -1.965393 0.000000 -0.102368
v -1.385055 0.001447 -0.105737
v -1.385055 0.001447 0.105736
v -1.342115 0.015011 0.100363
v -1.342115 0.015011 -0.100363
v -0.805097 2.565395 0.128948
v -1.965393 2.565395 0.128948
v -1.387325 0.016163 -0.128948
v -1.965393 0.025319 -0.128948
v -1.965393 1.974681 0.128948
v -1.965393 0.025319 0.128948
v -1.387325 0.016163 0.128948
v -1.990713 2.025319 0.102369
v -1.990713 2.565395 0.102369
v -1.990713 2.565395 -0.102368
v -0.754458 2.590714 0.102369
v -0.754458 2.565395 -0.128948
v -1.965393 2.025319 -0.128948
v -1.965393 2.565395 -0.128948
v -0.805097 2.565395 -0.128948
v 1.398613 0.164667 0.128948
v 1.398613 0.164667 -0.128948
v 1.373246 0.304037 0.128948
v -0.805097 2.590714 -0.102368
v -1.965393 2.590714 -0.102368
v -1.965393 2.590714 0.102369
v 1.373246 0.304037 -0.128948
v 1.314087 0.469817 0.128948
v 1.314087 0.469817 -0.128948
v 1.211508 0.640965 0.128948
v 1.211508 0.640965 -0.128948
v 1.069004 0.780897 0.128948
v 1.069004 0.780897 -0.128948
v 0.891426 0.900491 0.128948
v 0.891426 0.900491 -0.128948
v 0.684823 0.995677 0.128948
v 0.684823 0.995677 -0.128948
v 0.456229 1.063211 0.128948
v 0.456229 1.063211 -0.128948
v 0.213430 1.100794 0.128948
v 0.213430 1.100794 -0.128948
v 1.363510 0.153353 0.104664
v 1.363510 0.153353 -0.104664
v 1.332095 0.318177 0.104664
v 1.332095 0.318177 -0.104664
v 1.274875 0.478522 0.104664
v 1.274875 0.478522 -0.104664
v 1.175660 0.628927 0.104664
v 1.175660 0.628927 -0.104664
v 1.037827 0.764271 0.104664
v 1.037827 0.764271 -0.104664
v -1.965393 -0.000000 0.102368
v -1.990713 0.025319 0.102368
v -1.990713 0.025319 -0.102368
v -1.965393 2.025319 0.128948
v -1.990713 2.025319 -0.102368
v -1.965393 1.974681 -0.128948
v 0.866072 0.879945 0.104664
v -0.754458 2.590714 -0.102368
v -0.805097 2.590714 0.102369
v 0.866072 0.879945 -0.104664
v 0.666242 0.972009 0.104664
v 0.666242 0.972009 -0.104664
v 0.445143 1.037329 0.104664
v 0.445143 1.037329 -0.104664
v 0.210304 1.073680 0.104664
v -1.990713 1.974681 0.102369
v -1.990713 1.974681 -0.102368
v -0.754458 2.565395 0.128948
v 0.210304 1.073680 -0.104664
v 0.775853 2.565395 0.128948
v 2.012108 1.974681 -0.102368
v 2.012108 1.974681 0.102369
v 0.826492 2.590714 0.102369
v 0.775853 2.590714 -0.102368
v 1.986788 1.974681 -0.128948
v 2.012108 2.025319 -0.102368
v 1.986788 2.025319 0.128948
v 2.012108 0.025319 -0.102368
v 2.012108 0.025319 0.102368
v 1.986788 -0.000000 0.102368
v 1.986788 2.590714 0.102369
v 1.986788 2.590714 -0.102368
v 0.826492 2.590714 -0.102368
v -0.188910 1.073680 -0.104664
v -0.188910 1.073680 0.104664
v -0.423749 1.037329 -0.104664
v -0.423749 1.037329 0.104664
v -0.644848 0.972009 -0.104664
v -0.644848 0.972009 0.104664
v -0.844677 0.879945 -0.104664
v -0.844677 0.879945 0.104664
v -1.016433 0.764271 -0.104664
v -1.016433 0.764271 0.104664
v -1.154265 0.628927 -0.104664
v -1.154265 0.628927 0.104664
v -1.253480 0.478522 -0.104664
v -1.253480 0.478522 0.104664
v -1.310700 0.318177 -0.104664
v -1.310700 0.318177 0.104664
v -1.342115 0.153353 -0.104664
v -1.342115 0.153353 0.104664
v 0.826492 2.565395 -0.128948
v 1.986788 2.565395 -0.128948
v 1.986788 2.025319 -0.128948
v 0.775853 2.565395 -0.128948
v 0.775853 2.590714 0.102369
v 2.012108 2.565395 -0.102368
v 2.012108 2.565395 0.102369
v 2.012108 2.025319 0.102369
v 1.408720 0.016163 0.128948
v 1.986788 0.025319 0.128948
v 1.986788 1.974681 0.128948
v 1.986788 0.025319 -0.128948
v 1.408720 0.016163 -0.128948
v 1.986788 2.565395 0.128948
v 0.826492 2.565395 0.128948
v -0.192035 1.100794 -0.128948
v -0.192035 1.100794 0.128948
v -0.434835 1.063211 -0.128948
v -0.434834 1.063211 0.128948
v -0.663428 0.995677 -0.128948
v -0.663428 0.995677 0.128948
v -0.870031 0.900491 -0.128948
v -0.870031 0.900491 0.128948
v -1.047609 0.780897 -0.128948
v -1.047609 0.780897 0.128948
v -1.190114 0.640965 -0.128948
v -1.190114 0.640965 0.128948
v -1.292692 0.469817 -0.128948
v -1.292692 0.469817 0.128948
v -1.351851 0.304037 -0.128948
v -1.351851 0.304037 0.128948
v -1.377219 0.164667 -0.128948
v -1.377219 0.164667 0.128948
v 1.363510 0.015011 -0.100363
v 1.363510 0.015011 0.100363
v 1.406450 0.001447 0.105736
v 1.406450 0.001447 -0.105737
v 1.986788 0.000000 -0.102368
v -0.000597 2.565395 -0.128948
v -0.000597 2.565395 0.128948
v -0.000597 2.590714 0.102369
v -0.000597 2.590714 -0.102368
v -0.754458 2.578054 0.116229
v -0.754458 2.590714 0.000000
v -0.754458 2.578054 -0.116229
v 0.775853 2.590714 0.000000
v 0.775853 2.578054 -0.116229
v 0.775853 2.578054 0.116229
v 0.387628 2.565395 -0.128948
v 0.387628 2.565395 0.128948
v 0.387628 2.590714 0.102369
v 0.387628 2.590714 -0.102368
v -0.366233 2.565395 -0.128948
v -0.366233 2.565395 0.128948
v -0.366233 2.590714 0.102369
v -0.366233 2.590714 -0.102368
vn -0.3429 -0.8792 -0.3309
vn 0.1597 -0.9448 -0.2859
vn 0.1626 -0.9449 0.2841
vn -0.2678 -0.0658 0.9612
vn -0.2788 -0.0363 0.9597
vn 0.3529 -0.3477 0.8687
vn -0.9285 -0.0000 0.3714
vn -0.8788 0.3430 0.3317
vn -0.8788 0.3430 -0.3317
vn -0.1963 -0.8865 -0.4191
vn -0.1963 -0.8865 0.4191
vn -0.0692 -0.9063 -0.4169
vn -0.2276 -0.4452 0.8660
vn -0.8466 -0.2393 -0.4753
vn -0.8466 -0.2393 0.4753
vn -0.7941 -0.4154 -0.4438
vn -0.0000 0.9285 -0.3714
vn -0.3429 0.8788 -0.3317
vn -0.3429 0.8788 0.3317
vn -0.1190 -0.3070 0.9443
vn -0.0760 -0.3302 0.9408
vn -0.3142 -0.8477 0.4274
vn -0.2699 -0.1206 -0.9553
vn -0.2678 -0.0658 -0.9612
vn 0.1190 -0.3070 0.9443
vn 0.0760 -0.3302 0.9408
vn 0.0005 0.3841 0.9233
vn -0.2727 -0.1182 0.9548
vn -0.3451 -0.8790 0.3290
vn -0.3529 -0.3477 0.8687
vn -0.8788 -0.3430 0.3317
vn -0.8788 -0.3430 -0.3317
vn -0.3506 -0.3496 -0.8688
vn 0.2241 -0.4477 -0.8656
vn 0.7647 -0.5126 -0.3904
vn 0.7647 -0.5126 0.3904
vn 0.2276 -0.4452 0.8660
vn -0.3939 -0.0000 0.9192
vn -0.9285 -0.0000 -0.3714
vn -0.3939 -0.0000 -0.9192
vn -0.3500 0.3500 0.8689
vn -0.3500 0.3500 -0.8689
vn -0.0008 0.3937 -0.9193
vn -0.0024 0.9315 -0.3636
vn -0.0025 0.9315 0.3636
vn -0.0000 0.9285 0.3714
vn -0.0008 0.3937 0.9193
vn -0.4350 -0.7854 0.4404
vn -0.3142 -0.8477 -0.4274
vn -0.7943 -0.4038 0.4540
vn -0.6738 -0.5643 0.4771
vn -0.6779 -0.5610 -0.4751
vn -0.1915 -0.2263 0.9551
vn -0.1582 -0.2720 0.9492
vn -0.5568 -0.6933 0.4575
vn -0.2241 -0.4477 -0.8656
vn -0.7647 -0.5126 -0.3904
vn -0.8679 -0.0896 -0.4887
vn -0.0760 -0.3302 -0.9408
vn -0.7647 -0.5126 0.3904
vn -0.8679 -0.0896 0.4887
vn -0.1914 -0.2263 -0.9551
vn -0.2165 -0.1633 -0.9625
vn -0.5568 -0.6933 -0.4575
vn 0.3939 -0.0000 0.9192
vn -0.0000 1.0000 -0.0000
vn -0.2174 -0.1709 0.9610
vn -0.2788 -0.0363 -0.9597
vn -0.0000 0.3939 0.9192
vn -0.0266 -0.3394 0.9403
vn 0.0266 -0.3394 0.9403
vn -0.0000 0.3838 0.9234
vn 0.0008 0.3937 0.9193
vn -0.4350 -0.7854 -0.4404
vn 0.3500 0.3500 0.8689
vn -0.1582 -0.2720 -0.9492
vn 0.1915 -0.2263 0.9551
vn 0.1582 -0.2720 0.9492
vn 0.2174 -0.1709 0.9610
vn -0.0041 0.7251 -0.6886
vn 0.0005 0.3841 -0.9233
vn -0.0041 0.7251 0.6886
vn -0.0692 -0.9063 0.4169
vn 0.8788 0.3430 0.3317
vn 0.9285 -0.0000 0.3714
vn 0.8788 -0.3430 0.3317
vn 0.9285 -0.0000 -0.3714
vn 0.3939 -0.0000 -0.9192
vn 0.8788 0.3430 -0.3317
vn 0.2727 -0.1182 0.9548
vn 0.2788 -0.0363 0.9597
vn 0.2678 -0.0658 0.9612
vn -0.1190 -0.3070 -0.9443
vn 0.0008 0.3937 -0.9193
vn 0.1582 -0.2720 -0.9492
vn 0.1914 -0.2263 -0.9551
vn 0.2165 -0.1633 -0.9625
vn 0.3506 -0.3496 -0.8688
vn 0.2699 -0.1206 -0.9553
vn -0.0266 -0.3394 -0.9403
vn 0.0020 0.9314 -0.3639
vn -0.1626 -0.9449 0.2841
vn -0.1597 -0.9448 -0.2859
vn 0.0041 0.7256 0.6882
vn 0.3500 0.3500 -0.8689
vn 0.8788 -0.3430 -0.3317
vn 0.3429 0.8788 -0.3317
vn 0.0020 0.9314 0.3639
vn 0.3429 -0.8792 -0.3309
vn 0.0266 -0.3394 -0.9403
vn 0.0692 -0.9063 -0.4169
vn 0.0760 -0.3302 -0.9408
vn 0.1963 -0.8865 -0.4191
vn 0.1190 -0.3070 -0.9443
vn 0.3142 -0.8477 -0.4274
vn 0.4350 -0.7854 -0.4404
vn 0.5568 -0.6933 -0.4575
vn 0.6779 -0.5610 -0.4751
vn 0.7941 -0.4154 -0.4438
vn 0.8466 -0.2393 -0.4753
vn 0.2678 -0.0658 -0.9612
vn 0.8679 -0.0896 -0.4887
vn 0.2788 -0.0363 -0.9597
vn 0.8679 -0.0896 0.4887
vn 0.8466 -0.2393 0.4753
vn 0.7943 -0.4038 0.4540
vn 0.6738 -0.5643 0.4771
vn 0.5568 -0.6933 0.4575
vn 0.4350 -0.7854 0.4404
vn 0.3142 -0.8477 0.4274
vn 0.1963 -0.8865 0.4191
vn 0.0692 -0.9063 0.4169
vn 0.3451 -0.8790 0.3290
vn 0.3429 0.8788 0.3317
vn -0.0000 0.3939 -0.9192
vn 0.0041 0.7256 -0.6881
vn -0.0000 0.3838 -0.9234
vt 0.843137 0.229123
vt 0.843780 0.350354
vt 0.803432 0.350354
vt 0.640971 0.568934
vt 0.645452 0.544513
vt 0.749350 0.520095
vt 0.989481 0.439621
vt 0.989481 0.552441
vt 0.950419 0.552441
vt 0.853009 0.657168
vt 0.892947 0.657168
vt 0.853009 0.706809
vt 0.647237 0.518491
vt 0.853009 0.406232
vt 0.892947 0.406232
vt 0.853009 0.441796
vt 0.950419 0.802303
vt 0.950419 0.559921
vt 0.989481 0.559921
vt 0.519364 0.687388
vt 0.478984 0.699222
vt 0.516082 0.685982
vt 0.630631 0.111470
vt 0.641082 0.082421
vt 0.633812 0.084899
vt 0.281202 0.687388
vt 0.321582 0.699222
vt 0.265122 0.965188
vt 0.630521 0.597984
vt 0.051216 0.515658
vt 0.051216 0.520095
vt 0.046743 0.520095
vt 0.046854 0.033582
vt 0.051326 0.033582
vt 0.051326 0.029145
vt 0.153440 0.031978
vt 0.161426 0.031776
vt 0.153840 0.029399
vt 0.161315 0.518289
vt 0.153329 0.518491
vt 0.153730 0.515912
vt 0.051216 0.861678
vt 0.051216 0.870551
vt 0.046743 0.870551
vt 0.046854 0.384038
vt 0.051326 0.384038
vt 0.051326 0.375165
vt 0.051216 0.969624
vt 0.046743 0.965188
vt 0.051216 0.965188
vt 0.051326 0.478675
vt 0.046854 0.478675
vt 0.051326 0.483111
vt 0.256287 0.478675
vt 0.256287 0.483111
vt 0.265232 0.483111
vt 0.265122 0.969624
vt 0.256177 0.969624
vt 0.256177 0.965188
vt 0.892947 0.563047
vt 0.892947 0.609007
vt 0.853009 0.609007
vt 0.892947 0.441796
vt 0.892947 0.479436
vt 0.853009 0.479436
vt 0.587228 0.649752
vt 0.555860 0.670709
vt 0.581721 0.649580
vt 0.647348 0.031978
vt 0.639362 0.031776
vt 0.639362 0.056017
vt 0.435653 0.217284
vt 0.479095 0.212709
vt 0.477136 0.210915
vt 0.892126 0.342320
vt 0.892947 0.371223
vt 0.853009 0.371223
vt 0.587338 0.163239
vt 0.612511 0.138719
vt 0.581831 0.163067
vt 0.046743 0.861678
vt 0.950419 0.439621
vt 0.950419 0.429043
vt 0.989481 0.429043
vt 0.046854 0.375165
vt 0.989481 0.014347
vt 0.989481 0.021827
vt 0.950419 0.021827
vt 0.749350 0.861678
vt 0.749350 0.870551
vt 0.842755 0.359545
vt 0.804458 0.359545
vt 0.989481 0.802304
vt 0.969950 0.812882
vt 0.950419 0.812882
vt 0.612401 0.625232
vt 0.623594 0.599509
vt 0.645562 0.058000
vt 0.466866 0.965188
vt 0.436095 0.705807
vt 0.606068 0.625864
vt 0.477026 0.697428
vt 0.398288 0.965188
vt 0.364471 0.705807
vt 0.535444 0.965188
vt 0.606179 0.139351
vt 0.623705 0.112996
vt 0.804075 0.229123
vt 0.544389 0.965188
vt 0.853009 0.563047
vt 0.749350 0.965188
vt 0.551381 0.669849
vt 0.639251 0.542530
vt 0.555970 0.184195
vt 0.551491 0.183336
vt 0.213338 0.649752
vt 0.244706 0.670709
vt 0.188165 0.625232
vt 0.265232 0.480893
vt 0.265232 0.478675
vt 0.265122 0.967406
vt 0.639251 0.518289
vt 0.950419 0.014347
vt 0.333700 0.965188
vt 0.633702 0.571412
vt 0.853009 0.519789
vt 0.435543 0.703797
vt 0.892947 0.706809
vt 0.753823 0.965188
vt 0.753823 0.870551
vt 0.942625 0.560384
vt 0.942625 0.967600
vt 0.903563 0.560384
vt 0.753933 0.384038
vt 0.749461 0.384038
vt 0.753933 0.478675
vt 0.892947 0.519789
vt 0.170045 0.597984
vt 0.155114 0.544513
vt 0.159595 0.568934
vt 0.519475 0.200875
vt 0.544500 0.478675
vt 0.749461 0.375165
vt 0.244817 0.184195
vt 0.213449 0.163239
vt 0.188276 0.138719
vt 0.749461 0.033582
vt 0.170156 0.111470
vt 0.516193 0.199469
vt 0.436205 0.219294
vt 0.942625 0.549806
vt 0.903563 0.436985
vt 0.942625 0.436985
vt 0.853829 0.342320
vt 0.903563 0.187123
vt 0.903563 0.176545
vt 0.942625 0.187123
vt 0.893151 0.333129
vt 0.852804 0.333129
vt 0.646947 0.029399
vt 0.535444 0.967406
vt 0.753823 0.520095
vt 0.903563 0.549806
vt 0.749461 0.478675
vt 0.903563 0.967600
vt 0.749461 0.483111
vt 0.544500 0.483111
vt 0.923094 0.176545
vt 0.942625 0.176545
vt 0.749461 0.029145
vt 0.535555 0.483111
vt 0.535444 0.969624
vt 0.544389 0.969624
vt 0.646836 0.515912
vt 0.364582 0.219294
vt 0.365134 0.217284
vt 0.321692 0.212709
vt 0.323651 0.210915
vt 0.281312 0.200875
vt 0.284595 0.199469
vt 0.249296 0.183336
vt 0.218956 0.163067
vt 0.194608 0.139351
vt 0.177082 0.112996
vt 0.166975 0.084899
vt 0.159706 0.082421
vt 0.161426 0.056017
vt 0.155225 0.058000
vt 0.161315 0.542530
vt 0.166864 0.571412
vt 0.176972 0.599509
vt 0.194498 0.625864
vt 0.218845 0.649580
vt 0.249185 0.669849
vt 0.284484 0.685982
vt 0.323540 0.697428
vt 0.365023 0.703797
vt 0.853446 0.211898
vt 0.749350 0.515658
vt 0.942625 0.429505
vt 0.903563 0.429505
vt 0.749350 0.969624
vt 0.753933 0.375165
vt 0.753933 0.033582
vt 0.753823 0.861678
vt 0.903563 0.975080
vt 0.942625 0.975080
vt 0.843575 0.388448
vt 0.803637 0.388448
vt 0.843575 0.423457
vt 0.803637 0.423457
vt 0.843575 0.459022
vt 0.803637 0.459022
vt 0.843575 0.496661
vt 0.803637 0.496661
vt 0.843575 0.537014
vt 0.803637 0.537014
vt 0.843575 0.580272
vt 0.803637 0.580272
vt 0.843575 0.626233
vt 0.803637 0.626233
vt 0.843575 0.674393
vt 0.803637 0.674393
vt 0.843575 0.724034
vt 0.803637 0.724034
vt 0.892509 0.211898
vt 0.398399 0.478675
vt 0.535555 0.480893
vt 0.535555 0.478675
vt 0.466977 0.478675
vt 0.892947 0.790204
vt 0.853009 0.790204
vt 0.333811 0.478675
vt 0.333811 0.483111
vt 0.398399 0.483111
vt 0.466977 0.483111
vt 0.333700 0.969624
vt 0.398288 0.969624
vt 0.466866 0.969624
vt 0.903563 0.095446
vt 0.942625 0.095446
vt 0.903563 0.014347
vt 0.942625 0.014347
vt 0.950419 0.970361
vt 0.950419 0.893981
vt 0.989481 0.970361
vt 0.989481 0.893981
vt 0.989481 0.812882
s 1
usemtl Default_OBJ
f 1/1/1 2/2/2 3/3/3
f 23/4/4 21/5/5 112/6/6
f 13/7/7 14/8/8 15/9/9
f 65/10/10 64/11/11 70/12/12
f 21/5/5 111/13/13 112/6/6
f 45/14/14 44/15/15 47/16/16
f 24/17/17 25/18/18 26/19/19
f 36/20/20 38/21/21 62/22/22
f 29/23/23 27/24/24 45/25/14
f 123/26/25 121/27/26 69/28/27
f 112/6/6 28/29/28 23/4/4
f 52/30/29 11/31/30 53/32/31
f 54/33/32 9/34/33 1/35/1
f 8/36/34 5/37/35 2/38/2
f 4/39/36 12/40/37 3/41/3
f 10/42/38 55/43/38 13/44/7
f 56/45/39 18/46/40 57/47/40
f 26/48/19 14/49/8 7/50/41
f 19/51/42 15/52/9 25/53/18
f 20/54/43 24/55/17 59/56/44
f 16/57/45 60/58/46 6/59/47
f 58/60/48 62/61/22 63/62/49
f 46/63/50 48/64/51 49/65/52
f 32/66/53 34/67/54 50/68/55
f 115/69/56 136/70/57 43/71/58
f 70/72/12 39/73/59 65/74/10
f 137/75/60 42/76/61 43/77/58
f 33/78/62 31/79/63 51/80/64
f 10/42/38 67/81/7 53/32/31
f 56/82/39 68/83/39 67/84/7
f 9/34/33 54/33/32 68/85/39
f 52/86/29 53/87/31 54/88/32
f 113/89/65 78/90/65 34/67/54
f 2/38/2 1/35/1 9/34/33
f 2/2/2 5/91/35 4/92/36
f 52/30/29 3/41/3 12/40/37
f 25/18/18 15/9/9 14/8/8
f 25/53/18 24/55/17 20/54/43
f 60/93/46 146/94/66 59/95/44
f 60/58/46 26/48/19 7/50/41
f 13/44/7 55/43/38 7/50/41
f 112/6/6 113/89/65 28/29/28
f 15/52/9 19/51/42 18/46/40
f 28/29/28 30/96/67 46/97/50
f 63/62/49 62/61/22 65/10/10
f 22/98/68 115/69/56 43/71/58
f 152/99/69 40/100/70 38/21/21
f 48/101/51 32/66/53 50/68/55
f 30/96/67 32/66/53 48/101/51
f 62/22/22 38/21/21 64/102/11
f 142/103/69 119/104/71 40/100/70
f 71/105/72 152/99/69 38/21/21
f 49/106/52 29/23/23 47/107/16
f 42/76/61 44/15/15 45/14/14
f 51/80/64 31/79/63 49/106/52
f 44/15/15 46/63/50 47/16/16
f 68/83/39 54/88/32 53/87/31
f 52/108/29 1/1/1 3/3/3
f 117/109/73 71/105/72 36/20/20
f 56/82/39 13/7/7 15/9/9
f 61/110/74 58/60/48 63/62/49
f 116/111/75 117/109/73 78/90/65
f 60/93/46 24/17/17 26/19/19
f 58/112/48 36/20/20 62/22/22
f 111/13/13 21/5/5 42/113/61
f 45/25/14 27/24/24 43/71/58
f 35/114/76 33/78/62 61/115/74
f 10/42/38 127/116/77 125/117/78
f 10/42/38 129/118/79 127/116/77
f 67/81/7 10/42/38 13/44/7
f 68/85/39 56/45/39 57/47/40
f 20/54/43 147/119/80 17/120/81
f 145/121/82 6/59/47 69/28/27
f 111/13/13 42/113/61 137/122/60
f 46/97/50 30/96/67 48/101/51
f 11/31/30 10/42/38 53/32/31
f 13/7/7 56/82/39 67/84/7
f 57/47/40 9/34/33 68/85/39
f 1/123/1 52/86/29 54/88/32
f 6/59/47 125/117/78 123/26/25
f 8/36/34 2/38/2 9/34/33
f 3/3/3 2/2/2 4/92/36
f 11/31/30 52/30/29 12/40/37
f 26/19/19 25/18/18 14/8/8
f 19/51/42 25/53/18 20/54/43
f 24/17/17 60/93/46 59/95/44
f 6/59/47 60/58/46 7/50/41
f 14/49/8 13/44/7 7/50/41
f 156/124/69 69/28/27 121/27/26
f 56/45/39 15/52/9 18/46/40
f 23/4/4 28/29/28 44/125/15
f 62/61/22 64/11/11 65/10/10
f 119/104/71 156/124/69 121/27/26
f 142/103/69 156/124/69 119/104/71
f 50/68/55 34/67/54 58/112/48
f 47/16/16 46/63/50 49/65/52
f 34/67/54 36/20/20 58/112/48
f 61/115/74 33/78/62 51/80/64
f 27/24/24 22/98/68 43/71/58
f 45/25/14 47/107/16 29/23/23
f 43/77/58 42/76/61 45/14/14
f 31/79/63 29/23/23 49/106/52
f 49/65/52 48/64/51 51/126/64
f 67/84/7 68/83/39 53/87/31
f 64/102/11 40/100/70 66/127/83
f 152/99/69 142/103/69 40/100/70
f 6/59/47 55/43/38 125/117/78
f 64/11/11 66/128/83 70/12/12
f 109/129/84 116/111/75 110/130/85
f 73/131/85 80/132/86 72/133/87
f 77/134/87 105/135/88 108/136/89
f 51/126/64 50/137/55 61/110/74
f 48/64/51 50/137/55 51/126/64
f 50/137/55 58/60/48 61/110/74
f 69/28/27 6/59/47 123/26/25
f 10/42/38 131/138/90 129/118/79
f 6/59/47 7/50/41 55/43/38
f 11/31/30 135/139/91 133/140/92
f 11/31/30 12/40/37 135/139/91
f 131/138/90 11/31/30 133/140/92
f 10/42/38 11/31/30 131/138/90
f 55/43/38 10/42/38 125/117/78
f 34/67/54 78/90/65 117/109/73
f 35/114/76 37/141/93 103/142/94
f 105/135/88 35/114/76 103/142/94
f 76/143/88 33/78/62 35/114/76
f 76/143/88 31/79/63 33/78/62
f 76/143/88 29/23/23 31/79/63
f 124/144/95 126/145/96 57/47/40
f 126/145/96 128/146/97 57/47/40
f 114/147/98 22/98/68 27/24/24
f 114/147/98 115/69/56 22/98/68
f 128/146/97 130/148/99 57/47/40
f 42/113/61 23/4/4 44/125/15
f 21/5/5 23/4/4 42/113/61
f 44/125/15 28/29/28 46/97/50
f 29/23/23 114/147/98 27/24/24
f 63/149/49 35/114/76 61/115/74
f 65/74/10 37/141/93 63/149/49
f 37/141/93 35/114/76 63/149/49
f 41/150/100 39/73/59 70/72/12
f 110/151/85 108/152/89 109/153/84
f 136/154/57 137/75/60 43/77/58
f 38/21/21 40/100/70 64/102/11
f 84/155/17 75/156/101 74/157/46
f 138/158/102 137/75/60 139/159/103
f 115/69/56 114/147/98 139/160/103
f 117/109/73 150/161/104 71/105/72
f 112/6/6 80/162/86 113/89/65
f 77/163/87 108/152/89 110/151/85
f 76/143/88 114/147/98 29/23/23
f 108/136/89 105/135/88 104/164/105
f 72/133/87 80/132/86 79/165/106
f 83/166/107 103/142/94 84/167/17
f 74/157/46 148/168/66 107/169/108
f 105/135/88 76/143/88 35/114/76
f 139/160/103 114/147/98 140/170/109
f 103/142/94 75/171/101 84/167/17
f 107/172/108 117/109/73 74/173/46
f 115/69/56 139/160/103 136/70/57
f 137/122/60 138/174/102 111/13/13
f 118/175/110 85/176/111 120/177/112
f 85/176/111 87/178/113 120/177/112
f 120/177/112 87/178/113 122/179/114
f 87/178/113 89/180/115 122/179/114
f 122/179/114 89/180/115 124/144/95
f 89/180/115 91/181/116 124/144/95
f 124/144/95 91/181/116 126/145/96
f 91/181/116 93/182/117 126/145/96
f 126/145/96 93/182/117 128/146/97
f 93/182/117 95/183/118 128/146/97
f 128/146/97 95/183/118 130/148/99
f 95/183/118 97/184/119 130/148/99
f 99/185/120 130/148/99 97/184/119
f 130/148/99 99/185/120 132/186/121
f 99/185/120 101/187/122 132/186/121
f 132/186/121 101/187/122 134/188/123
f 134/188/123 101/187/122 8/36/34
f 12/40/37 102/189/124 135/139/91
f 12/40/37 4/39/36 102/189/124
f 135/139/91 102/189/124 133/140/92
f 102/189/124 100/190/125 133/140/92
f 133/140/92 100/190/125 131/138/90
f 100/190/125 98/191/126 131/138/90
f 131/138/90 98/191/126 129/118/79
f 98/191/126 96/192/127 129/118/79
f 129/118/79 96/192/127 127/116/77
f 96/192/127 94/193/128 127/116/77
f 127/116/77 94/193/128 125/117/78
f 94/193/128 92/194/129 125/117/78
f 125/117/78 92/194/129 123/26/25
f 92/194/129 90/195/130 123/26/25
f 123/26/25 90/195/130 121/27/26
f 90/195/130 88/196/131 121/27/26
f 121/27/26 88/196/131 119/104/71
f 88/196/131 86/197/132 119/104/71
f 140/198/109 138/158/102 139/159/103
f 81/199/133 80/162/86 112/6/6
f 84/155/17 82/200/134 83/201/107
f 82/202/134 116/111/75 109/129/84
f 77/134/87 76/143/88 105/135/88
f 114/147/98 72/203/87 79/204/106
f 77/163/87 73/131/85 72/133/87
f 81/199/133 111/13/13 138/174/102
f 110/130/85 116/111/75 78/90/65
f 132/186/121 9/34/33 130/148/99
f 72/203/87 76/143/88 77/134/87
f 73/205/85 110/130/85 113/89/65
f 140/206/109 79/165/106 81/207/133
f 76/143/88 72/203/87 114/147/98
f 82/200/134 109/153/84 83/201/107
f 39/73/59 37/141/93 65/74/10
f 5/91/35 101/208/122 4/92/36
f 8/36/34 101/187/122 5/37/35
f 4/92/36 101/208/122 102/209/124
f 101/208/122 99/210/120 102/209/124
f 102/209/124 99/210/120 100/211/125
f 99/210/120 97/212/119 100/211/125
f 100/211/125 97/212/119 98/213/126
f 97/212/119 95/214/118 98/213/126
f 98/213/126 95/214/118 96/215/127
f 95/214/118 93/216/117 96/215/127
f 96/215/127 93/216/117 94/217/128
f 93/216/117 91/218/116 94/217/128
f 94/217/128 91/218/116 92/219/129
f 91/218/116 89/220/115 92/219/129
f 92/219/129 89/220/115 90/221/130
f 89/220/115 87/222/113 90/221/130
f 90/221/130 87/222/113 88/223/131
f 87/222/113 85/224/111 88/223/131
f 88/223/131 85/224/111 86/225/132
f 113/89/65 110/130/85 78/90/65
f 79/204/106 140/170/109 114/147/98
f 113/89/65 80/162/86 73/205/85
f 104/164/105 83/166/107 108/136/89
f 139/159/103 137/75/60 136/154/57
f 81/207/133 79/165/106 80/132/86
f 74/173/46 116/111/75 82/202/134
f 83/201/107 109/153/84 108/152/89
f 81/226/133 138/158/102 140/198/109
f 118/175/110 141/227/135 41/150/100
f 74/157/46 82/200/134 84/155/17
f 110/151/85 73/131/85 77/163/87
f 149/228/136 103/142/94 106/229/137
f 112/6/6 111/13/13 81/199/133
f 41/150/100 151/230/135 39/73/59
f 117/109/73 116/111/75 74/173/46
f 104/164/105 103/142/94 83/166/107
f 103/142/94 104/164/105 105/135/88
f 106/229/137 103/142/94 37/141/93
f 70/12/12 66/128/83 86/231/132
f 86/231/132 85/232/111 70/12/12
f 66/127/83 40/100/70 86/197/132
f 86/197/132 40/100/70 119/104/71
f 70/72/12 85/176/111 41/150/100
f 85/176/111 118/175/110 41/150/100
f 122/179/114 17/120/81 120/177/112
f 134/188/123 9/34/33 132/186/121
f 9/34/33 57/47/40 130/148/99
f 8/36/34 9/34/33 134/188/123
f 18/46/40 124/144/95 57/47/40
f 17/120/81 155/233/135 120/177/112
f 151/230/135 106/229/137 39/73/59
f 124/144/95 20/54/43 122/179/114
f 155/233/135 118/175/110 120/177/112
f 59/56/44 158/234/17 147/119/80
f 147/119/80 158/234/17 17/120/81
f 155/233/135 17/120/81 158/234/17
f 158/234/17 144/235/17 155/233/135
f 155/233/135 144/235/17 141/227/135
f 144/235/17 154/236/17 141/227/135
f 141/227/135 154/236/17 151/230/135
f 154/236/17 75/171/101 151/230/135
f 75/171/101 149/228/136 151/230/135
f 151/230/135 149/228/136 106/229/137
f 145/121/82 157/237/46 16/57/45
f 69/28/27 157/237/46 145/121/82
f 156/124/69 157/237/46 69/28/27
f 157/237/46 156/124/69 143/238/46
f 156/124/69 142/103/69 143/238/46
f 143/238/46 142/103/69 153/239/46
f 142/103/69 152/99/69 153/239/46
f 153/239/46 152/99/69 107/172/108
f 150/161/104 107/172/108 152/99/69
f 71/105/72 150/161/104 152/99/69
f 75/156/101 154/240/17 148/168/66
f 148/168/66 154/240/17 153/241/46
f 148/168/66 153/241/46 107/169/108
f 154/240/17 144/242/17 153/241/46
f 153/241/46 144/242/17 143/243/46
f 144/244/17 158/245/17 143/246/46
f 143/246/46 158/245/17 157/247/46
f 158/245/17 59/95/44 157/247/46
f 59/95/44 146/94/66 157/247/46
f 146/94/66 16/248/45 157/247/46
f 39/73/59 106/229/137 37/141/93
f 141/227/135 151/230/135 41/150/100
f 155/233/135 141/227/135 118/175/110
f 60/93/46 16/248/45 146/94/66
f 32/66/53 113/89/65 34/67/54
f 117/109/73 36/20/20 34/67/54
f 20/54/43 59/56/44 147/119/80
f 145/121/82 16/57/45 6/59/47
f 19/51/42 20/54/43 18/46/40
f 18/46/40 20/54/43 124/144/95
f 20/54/43 17/120/81 122/179/114
f 117/109/73 107/172/108 150/161/104
f 74/157/46 75/156/101 148/168/66
f 30/96/67 113/89/65 32/66/53
f 28/29/28 113/89/65 30/96/67
f 71/105/72 38/21/21 36/20/20
f 149/228/136 75/171/101 103/142/94
