# Blender v2.80 (sub 75) OBJ File: ''
# www.blender.org
mtllib untitled.mtl
o Cylinder_Cylinder.003
v 0.000000 0.000000 0.000000
v 0.000000 0.000000 -1.000000
v 0.195090 0.000000 -0.980785
v 0.382683 0.000000 -0.923880
v 0.555570 0.000000 -0.831470
v 0.707107 0.000000 -0.707107
v 0.831470 0.000000 -0.555570
v 0.923880 0.000000 -0.382683
v 0.980785 0.000000 -0.195090
v 1.000000 0.000000 0.000000
v 0.980785 -0.000000 0.195090
v 0.923880 -0.000000 0.382683
v 0.831470 -0.000000 0.555570
v 0.707107 -0.000000 0.707107
v 0.555570 -0.000000 0.831470
v 0.382683 -0.000000 0.923880
v 0.195090 -0.000000 0.980785
v 0.000000 -0.000000 1.000000
v -0.195091 -0.000000 0.980785
v -0.382684 -0.000000 0.923879
v -0.555571 -0.000000 0.831469
v -0.707107 -0.000000 0.707106
v -0.831470 -0.000000 0.555570
v -0.923880 -0.000000 0.382683
v -0.980785 -0.000000 0.195089
v -1.000000 0.000000 -0.000001
v -0.980785 0.000000 -0.195091
v -0.923879 0.000000 -0.382684
v -0.831469 0.000000 -0.555571
v -0.707106 0.000000 -0.707108
v -0.555569 0.000000 -0.831470
v -0.382682 0.000000 -0.923880
v -0.195089 0.000000 -0.980786
v 0.000000 2.000000 0.000000
v 0.001384 2.000000 -0.006956
v 0.000000 2.000000 -0.007093
v 0.002714 2.000000 -0.006553
v 0.003940 2.000000 -0.005897
v 0.005015 2.000000 -0.005015
v 0.005897 2.000000 -0.003941
v 0.006553 2.000000 -0.002714
v 0.006956 2.000000 -0.001384
v 0.007093 2.000000 0.000000
v 0.006956 2.000000 0.001383
v 0.006553 2.000000 0.002714
v 0.005897 2.000000 0.003940
v 0.005015 2.000000 0.005015
v 0.003940 2.000000 0.005897
v 0.002714 2.000000 0.006552
v 0.001384 2.000000 0.006956
v 0.000000 2.000000 0.007092
v -0.001384 2.000000 0.006956
v -0.002714 2.000000 0.006552
v -0.003940 2.000000 0.005897
v -0.005015 2.000000 0.005015
v -0.005897 2.000000 0.003940
v -0.006552 2.000000 0.002714
v -0.006956 2.000000 0.001383
v -0.007092 2.000000 0.000000
v -0.006956 2.000000 -0.001384
v -0.006552 2.000000 -0.002714
v -0.005897 2.000000 -0.003941
v -0.005015 2.000000 -0.005015
v -0.003940 2.000000 -0.005897
v -0.002714 2.000000 -0.006553
v -0.001384 2.000000 -0.006956
v 0.000000 0.000000 -1.000000
v 0.000000 2.000000 -0.007093
v 0.001384 2.000000 -0.006956
v 0.195090 0.000000 -0.980785
v 0.002714 2.000000 -0.006553
v 0.003940 2.000000 -0.005897
v 0.555570 0.000000 -0.831470
v 0.005015 2.000000 -0.005015
v 0.707107 0.000000 -0.707107
v 0.005897 2.000000 -0.003941
v 0.006553 2.000000 -0.002714
v 0.923880 0.000000 -0.382683
v 0.006956 2.000000 -0.001384
v 0.980785 0.000000 -0.195090
v 0.007093 2.000000 0.000000
v 0.006956 2.000000 0.001383
v 0.980785 -0.000000 0.195090
v 0.006553 2.000000 0.002714
v 0.923880 -0.000000 0.382683
v 0.005897 2.000000 0.003940
v 0.005015 2.000000 0.005015
v 0.707107 -0.000000 0.707107
v 0.003940 2.000000 0.005897
v 0.002714 2.000000 0.006552
v 0.382683 -0.000000 0.923880
v 0.001384 2.000000 0.006956
v 0.000000 2.000000 0.007092
v 0.000000 -0.000000 1.000000
v -0.001384 2.000000 0.006956
v -0.195091 -0.000000 0.980785
v -0.002714 2.000000 0.006552
v -0.382684 -0.000000 0.923879
v -0.003940 2.000000 0.005897
v -0.005015 2.000000 0.005015
v -0.707107 -0.000000 0.707106
v -0.005897 2.000000 0.003940
v -0.831470 -0.000000 0.555570
v -0.006552 2.000000 0.002714
v -0.923880 -0.000000 0.382683
v -0.006956 2.000000 0.001383
v -0.007092 2.000000 0.000000
v -1.000000 0.000000 -0.000001
v -0.006956 2.000000 -0.001384
v -0.980785 0.000000 -0.195091
v -0.006552 2.000000 -0.002714
v -0.923879 0.000000 -0.382684
v -0.005897 2.000000 -0.003941
v -0.831469 0.000000 -0.555571
v -0.005015 2.000000 -0.005015
v -0.003940 2.000000 -0.005897
v -0.555569 0.000000 -0.831470
v -0.002714 2.000000 -0.006553
v -0.382682 0.000000 -0.923880
v -0.001384 2.000000 -0.006956
v -0.195089 0.000000 -0.980786
v 0.382683 0.000000 -0.923880
v 0.831470 0.000000 -0.555570
v 1.000000 0.000000 0.000000
v 0.831470 -0.000000 0.555570
v 0.555570 -0.000000 0.831470
v 0.195090 -0.000000 0.980785
v -0.555571 -0.000000 0.831469
v -0.980785 -0.000000 0.195089
v -0.707106 0.000000 -0.707108
vt 0.779509 0.220491
vt 0.717971 0.017627
vt 0.758730 0.009520
vt 0.800288 0.009520
vt 0.841047 0.017627
vt 0.879442 0.033531
vt 0.913996 0.056619
vt 0.943381 0.086005
vt 0.966469 0.120559
vt 0.982373 0.158953
vt 0.990480 0.199713
vt 0.990480 0.241270
vt 0.982373 0.282030
vt 0.966469 0.320424
vt 0.943381 0.354978
vt 0.913995 0.384364
vt 0.879441 0.407452
vt 0.841047 0.423356
vt 0.800287 0.431463
vt 0.758730 0.431463
vt 0.717970 0.423356
vt 0.679576 0.407452
vt 0.645022 0.384364
vt 0.615636 0.354978
vt 0.592548 0.320424
vt 0.576644 0.282029
vt 0.568537 0.241270
vt 0.568537 0.199712
vt 0.576644 0.158953
vt 0.592548 0.120558
vt 0.615637 0.086004
vt 0.645023 0.056618
vt 0.679577 0.033530
vt 0.641975 0.407175
vt 0.643450 0.406882
vt 0.643479 0.407175
vt 0.643364 0.406600
vt 0.643226 0.406340
vt 0.643039 0.406112
vt 0.642811 0.405925
vt 0.642551 0.405786
vt 0.642269 0.405700
vt 0.641975 0.405671
vt 0.641682 0.405700
vt 0.641400 0.405786
vt 0.641140 0.405925
vt 0.640912 0.406112
vt 0.640725 0.406340
vt 0.640586 0.406600
vt 0.640501 0.406882
vt 0.640472 0.407175
vt 0.642090 0.408960
vt 0.640615 0.409253
vt 0.640587 0.408960
vt 0.640701 0.409535
vt 0.640840 0.409795
vt 0.641027 0.410023
vt 0.641255 0.410210
vt 0.641515 0.410349
vt 0.641797 0.410435
vt 0.642090 0.410464
vt 0.642383 0.410435
vt 0.642666 0.410349
vt 0.642925 0.410210
vt 0.643153 0.410023
vt 0.643340 0.409795
vt 0.643479 0.409535
vt 0.643565 0.409253
vt 0.643594 0.408960
vt 0.611997 0.555168
vt 0.364704 0.950102
vt 0.358167 0.950102
vt 0.579787 0.555168
vt 0.351378 0.950102
vt 0.344370 0.950102
vt 0.511485 0.555168
vt 0.337177 0.950102
vt 0.475730 0.555168
vt 0.329836 0.950102
vt 0.322383 0.950102
vt 0.401900 0.555168
vt 0.314855 0.950102
vt 0.364190 0.555168
vt 0.307288 0.950102
vt 0.299720 0.950102
vt 0.288109 0.555168
vt 0.292190 0.950102
vt 0.250116 0.555168
vt 0.284733 0.950102
vt 0.277387 0.950102
vt 0.175164 0.555168
vt 0.270189 0.950102
vt 0.263174 0.950102
vt 0.102821 0.555168
vt 0.256376 0.950102
vt 0.249830 0.950102
vt 0.034520 0.555168
vt 0.372748 0.434618
vt 0.366211 0.434626
vt 0.587369 0.039434
vt 0.359422 0.434634
vt 0.553809 0.039473
vt 0.352413 0.434642
vt 0.345221 0.434651
vt 0.483312 0.039556
vt 0.337880 0.434659
vt 0.446723 0.039599
vt 0.330427 0.434668
vt 0.409482 0.039642
vt 0.322898 0.434677
vt 0.315332 0.434686
vt 0.333779 0.039731
vt 0.307764 0.434694
vt 0.295691 0.039775
vt 0.300233 0.434703
vt 0.257698 0.039820
vt 0.292777 0.434712
vt 0.219987 0.039864
vt 0.285431 0.434721
vt 0.278233 0.434729
vt 0.146157 0.039950
vt 0.271218 0.434737
vt 0.110403 0.039992
vt 0.264420 0.434745
vt 0.075660 0.040033
vt 0.257874 0.434753
vt 0.546227 0.555168
vt 0.439142 0.555168
vt 0.326197 0.555168
vt 0.212405 0.555168
vt 0.138575 0.555168
vt 0.068079 0.555168
vt 0.619579 0.039396
vt 0.519067 0.039514
vt 0.371771 0.039686
vt 0.182745 0.039907
vt 0.042101 0.040072
vn -0.0000 -1.0000 -0.0000
vn 0.0000 1.0000 0.0000
vn 0.0000 0.4447 -0.8957
vn 0.0001 0.4447 -0.8957
vn 0.1745 0.4448 -0.8785
vn 0.1747 0.4447 -0.8785
vn 0.3428 0.4447 -0.8275
vn 0.4978 0.4447 -0.7447
vn 0.4976 0.4447 -0.7447
vn 0.6332 0.4447 -0.6335
vn 0.6333 0.4447 -0.6334
vn 0.7446 0.4447 -0.4978
vn 0.8275 0.4447 -0.3427
vn 0.8275 0.4447 -0.3428
vn 0.8785 0.4447 -0.1748
vn 0.8785 0.4447 -0.1747
vn 0.8957 0.4447 0.0000
vn 0.8785 0.4447 0.1748
vn 0.8785 0.4447 0.1747
vn 0.8275 0.4447 0.3427
vn 0.8275 0.4447 0.3428
vn 0.7447 0.4446 0.4978
vn 0.6334 0.4447 0.6334
vn 0.6333 0.4447 0.6334
vn 0.4975 0.4447 0.7448
vn 0.3428 0.4447 0.8275
vn 0.1748 0.4447 0.8785
vn 0.0000 0.4447 0.8957
vn -0.1748 0.4447 0.8785
vn -0.1747 0.4447 0.8785
vn -0.3428 0.4447 0.8275
vn -0.4975 0.4447 0.7448
vn -0.6333 0.4447 0.6334
vn -0.6334 0.4447 0.6334
vn -0.7448 0.4447 0.4975
vn -0.7447 0.4447 0.4976
vn -0.8275 0.4447 0.3428
vn -0.8785 0.4447 0.1747
vn -0.8957 0.4447 0.0000
vn -0.8785 0.4447 -0.1748
vn -0.8785 0.4447 -0.1747
vn -0.8275 0.4447 -0.3427
vn -0.8275 0.4447 -0.3428
vn -0.7448 0.4447 -0.4976
vn -0.7447 0.4447 -0.4976
vn -0.6332 0.4447 -0.6335
vn -0.4973 0.4447 -0.7449
vn -0.4976 0.4447 -0.7447
vn -0.3428 0.4447 -0.8275
vn -0.1748 0.4447 -0.8785
vn -0.1747 0.4447 -0.8785
vn 0.7447 0.4447 -0.4976
vn 0.7447 0.4447 0.4976
vn 0.4976 0.4447 0.7447
vn 0.1747 0.4447 0.8785
vn -0.4976 0.4447 0.7447
vn -0.6334 0.4447 -0.6334
usemtl None
s 1
f 1/1/1 2/2/1 3/3/1
f 1/1/1 3/3/1 4/4/1
f 1/1/1 4/4/1 5/5/1
f 1/1/1 5/5/1 6/6/1
f 1/1/1 6/6/1 7/7/1
f 1/1/1 7/7/1 8/8/1
f 1/1/1 8/8/1 9/9/1
f 1/1/1 9/9/1 10/10/1
f 1/1/1 10/10/1 11/11/1
f 1/1/1 11/11/1 12/12/1
f 1/1/1 12/12/1 13/13/1
f 1/1/1 13/13/1 14/14/1
f 1/1/1 14/14/1 15/15/1
f 1/1/1 15/15/1 16/16/1
f 1/1/1 16/16/1 17/17/1
f 1/1/1 17/17/1 18/18/1
f 1/1/1 18/18/1 19/19/1
f 1/1/1 19/19/1 20/20/1
f 1/1/1 20/20/1 21/21/1
f 1/1/1 21/21/1 22/22/1
f 1/1/1 22/22/1 23/23/1
f 1/1/1 23/23/1 24/24/1
f 1/1/1 24/24/1 25/25/1
f 1/1/1 25/25/1 26/26/1
f 1/1/1 26/26/1 27/27/1
f 1/1/1 27/27/1 28/28/1
f 1/1/1 28/28/1 29/29/1
f 1/1/1 29/29/1 30/30/1
f 1/1/1 30/30/1 31/31/1
f 1/1/1 31/31/1 32/32/1
f 1/1/1 32/32/1 33/33/1
f 1/1/1 33/33/1 2/2/1
f 34/34/2 35/35/2 36/36/2
f 34/34/2 37/37/2 35/35/2
f 34/34/2 38/38/2 37/37/2
f 34/34/2 39/39/2 38/38/2
f 34/34/2 40/40/2 39/39/2
f 34/34/2 41/41/2 40/40/2
f 34/34/2 42/42/2 41/41/2
f 34/34/2 43/43/2 42/42/2
f 34/34/2 44/44/2 43/43/2
f 34/34/2 45/45/2 44/44/2
f 34/34/2 46/46/2 45/45/2
f 34/34/2 47/47/2 46/46/2
f 34/34/2 48/48/2 47/47/2
f 34/34/2 49/49/2 48/48/2
f 34/34/2 50/50/2 49/49/2
f 34/34/2 51/51/2 50/50/2
f 34/52/2 52/53/2 51/54/2
f 34/52/2 53/55/2 52/53/2
f 34/52/2 54/56/2 53/55/2
f 34/52/2 55/57/2 54/56/2
f 34/52/2 56/58/2 55/57/2
f 34/52/2 57/59/2 56/58/2
f 34/52/2 58/60/2 57/59/2
f 34/52/2 59/61/2 58/60/2
f 34/52/2 60/62/2 59/61/2
f 34/52/2 61/63/2 60/62/2
f 34/52/2 62/64/2 61/63/2
f 34/52/2 63/65/2 62/64/2
f 34/52/2 64/66/2 63/65/2
f 34/52/2 65/67/2 64/66/2
f 34/52/2 66/68/2 65/67/2
f 34/52/2 36/69/2 66/68/2
f 67/70/3 68/71/4 69/72/5
f 70/73/6 69/72/5 71/74/7
f 71/74/7 72/75/8 73/76/9
f 72/75/8 74/77/10 75/78/11
f 75/78/11 74/77/10 76/79/12
f 76/79/12 77/80/13 78/81/14
f 77/80/13 79/82/15 80/83/16
f 80/83/16 79/82/15 81/84/17
f 81/84/17 82/85/18 83/86/19
f 82/85/18 84/87/20 85/88/21
f 85/88/21 84/87/20 86/89/22
f 86/89/22 87/90/23 88/91/24
f 88/91/24 87/90/23 89/92/25
f 89/92/25 90/93/26 91/94/26
f 91/94/26 90/93/26 92/95/27
f 92/95/27 93/96/28 94/97/28
f 93/98/28 95/99/29 96/100/30
f 96/100/30 95/99/29 97/101/31
f 98/102/31 97/101/31 99/103/32
f 99/103/32 100/104/33 101/105/34
f 100/104/33 102/106/35 103/107/36
f 103/107/36 102/106/35 104/108/37
f 105/109/37 104/108/37 106/110/38
f 106/110/38 107/111/39 108/112/39
f 107/111/39 109/113/40 110/114/41
f 109/113/40 111/115/42 112/116/43
f 112/116/43 111/115/42 113/117/44
f 114/118/45 113/117/44 115/119/46
f 115/119/46 116/120/47 117/121/48
f 116/120/47 118/122/49 119/123/49
f 118/122/49 120/124/50 121/125/51
f 121/125/51 120/124/50 68/126/4
f 70/73/6 67/70/3 69/72/5
f 122/127/7 70/73/6 71/74/7
f 122/127/7 71/74/7 73/76/9
f 73/76/9 72/75/8 75/78/11
f 123/128/52 75/78/11 76/79/12
f 123/128/52 76/79/12 78/81/14
f 78/81/14 77/80/13 80/83/16
f 124/129/17 80/83/16 81/84/17
f 124/129/17 81/84/17 83/86/19
f 83/86/19 82/85/18 85/88/21
f 125/130/53 85/88/21 86/89/22
f 125/130/53 86/89/22 88/91/24
f 126/131/54 88/91/24 89/92/25
f 126/131/54 89/92/25 91/94/26
f 127/132/55 91/94/26 92/95/27
f 127/132/55 92/95/27 94/97/28
f 94/133/28 93/98/28 96/100/30
f 98/102/31 96/100/30 97/101/31
f 128/134/56 98/102/31 99/103/32
f 128/134/56 99/103/32 101/105/34
f 101/105/34 100/104/33 103/107/36
f 105/109/37 103/107/36 104/108/37
f 129/135/38 105/109/37 106/110/38
f 129/135/38 106/110/38 108/112/39
f 108/112/39 107/111/39 110/114/41
f 110/114/41 109/113/40 112/116/43
f 114/118/45 112/116/43 113/117/44
f 130/136/57 114/118/45 115/119/46
f 130/136/57 115/119/46 117/121/48
f 117/121/48 116/120/47 119/123/49
f 119/123/49 118/122/49 121/125/51
f 67/137/3 121/125/51 68/126/4
