# Blender 3.5.1
# www.blender.org
mtllib cone_short.mtl
o Cylinder_Cylinder.003
v 0.000000 0.000000 0.000000
v 0.000000 -0.000000 -1.000000
v 0.195090 -0.000000 -0.980785
v 0.382683 -0.000000 -0.923880
v 0.555570 -0.000000 -0.831470
v 0.707107 -0.000000 -0.707107
v 0.831470 -0.000000 -0.555570
v 0.923880 -0.000000 -0.382683
v 0.980785 -0.000000 -0.195090
v 1.000000 0.000000 0.000000
v 0.980785 0.000000 0.195090
v 0.923880 0.000000 0.382683
v 0.831470 0.000000 0.555570
v 0.707107 0.000000 0.707107
v 0.555570 0.000000 0.831470
v 0.382683 0.000000 0.923880
v 0.195090 0.000000 0.980785
v 0.000000 0.000000 1.000000
v -0.195091 0.000000 0.980785
v -0.382684 0.000000 0.923879
v -0.555571 0.000000 0.831469
v -0.707107 0.000000 0.707106
v -0.831470 0.000000 0.555570
v -0.923880 0.000000 0.382683
v -0.980785 0.000000 0.195089
v -1.000000 -0.000000 -0.000001
v -0.980785 -0.000000 -0.195091
v -0.923879 -0.000000 -0.382684
v -0.831469 -0.000000 -0.555571
v -0.707106 -0.000000 -0.707108
v -0.555569 -0.000000 -0.831470
v -0.382682 -0.000000 -0.923880
v -0.195089 -0.000000 -0.980786
v 0.000000 0.334906 -0.000000
v 0.001384 0.334906 -0.006956
v 0.000000 0.334906 -0.007093
v 0.002714 0.334906 -0.006553
v 0.003940 0.334906 -0.005897
v 0.005015 0.334906 -0.005015
v 0.005897 0.334906 -0.003941
v 0.006553 0.334906 -0.002714
v 0.006956 0.334906 -0.001384
v 0.007093 0.334906 -0.000000
v 0.006956 0.334906 0.001383
v 0.006553 0.334906 0.002714
v 0.005897 0.334906 0.003940
v 0.005015 0.334906 0.005015
v 0.003940 0.334906 0.005897
v 0.002714 0.334906 0.006552
v 0.001384 0.334906 0.006956
v 0.000000 0.334906 0.007092
v -0.001384 0.334906 0.006956
v -0.002714 0.334906 0.006552
v -0.003940 0.334906 0.005897
v -0.005015 0.334906 0.005015
v -0.005897 0.334906 0.003940
v -0.006552 0.334906 0.002714
v -0.006956 0.334906 0.001383
v -0.007092 0.334906 -0.000000
v -0.006956 0.334906 -0.001384
v -0.006552 0.334906 -0.002714
v -0.005897 0.334906 -0.003941
v -0.005015 0.334906 -0.005015
v -0.003940 0.334906 -0.005897
v -0.002714 0.334906 -0.006553
v -0.001384 0.334906 -0.006956
v 0.000000 -0.000000 -1.000000
v 0.000000 0.334906 -0.007093
v 0.001384 0.334906 -0.006956
v 0.195090 -0.000000 -0.980785
v 0.002714 0.334906 -0.006553
v 0.003940 0.334906 -0.005897
v 0.555570 -0.000000 -0.831470
v 0.005015 0.334906 -0.005015
v 0.707107 -0.000000 -0.707107
v 0.005897 0.334906 -0.003941
v 0.006553 0.334906 -0.002714
v 0.923880 -0.000000 -0.382683
v 0.006956 0.334906 -0.001384
v 0.980785 -0.000000 -0.195090
v 0.007093 0.334906 -0.000000
v 0.006956 0.334906 0.001383
v 0.980785 0.000000 0.195090
v 0.006553 0.334906 0.002714
v 0.923880 0.000000 0.382683
v 0.005897 0.334906 0.003940
v 0.005015 0.334906 0.005015
v 0.707107 0.000000 0.707107
v 0.003940 0.334906 0.005897
v 0.002714 0.334906 0.006552
v 0.382683 0.000000 0.923880
v 0.001384 0.334906 0.006956
v 0.000000 0.334906 0.007092
v 0.000000 0.000000 1.000000
v -0.001384 0.334906 0.006956
v -0.195091 0.000000 0.980785
v -0.002714 0.334906 0.006552
v -0.382684 0.000000 0.923879
v -0.003940 0.334906 0.005897
v -0.005015 0.334906 0.005015
v -0.707107 0.000000 0.707106
v -0.005897 0.334906 0.003940
v -0.831470 0.000000 0.555570
v -0.006552 0.334906 0.002714
v -0.923880 0.000000 0.382683
v -0.006956 0.334906 0.001383
v -0.007092 0.334906 -0.000000
v -1.000000 -0.000000 -0.000001
v -0.006956 0.334906 -0.001384
v -0.980785 -0.000000 -0.195091
v -0.006552 0.334906 -0.002714
v -0.923879 -0.000000 -0.382684
v -0.005897 0.334906 -0.003941
v -0.831469 -0.000000 -0.555571
v -0.005015 0.334906 -0.005015
v -0.003940 0.334906 -0.005897
v -0.555569 -0.000000 -0.831470
v -0.002714 0.334906 -0.006553
v -0.382682 -0.000000 -0.923880
v -0.001384 0.334906 -0.006956
v -0.195089 -0.000000 -0.980786
v 0.382683 -0.000000 -0.923880
v 0.831470 -0.000000 -0.555570
v 1.000000 0.000000 0.000000
v 0.831470 0.000000 0.555570
v 0.555570 0.000000 0.831470
v 0.195090 0.000000 0.980785
v -0.555571 0.000000 0.831469
v -0.980785 0.000000 0.195089
v -0.707106 -0.000000 -0.707108
vn -0.0000 -1.0000 -0.0000
vn -0.0000 1.0000 -0.0000
vn -0.0000 0.9476 -0.3196
vn 0.0622 0.9476 -0.3134
vn 0.0624 0.9476 -0.3135
vn 0.1223 0.9476 -0.2953
vn 0.1776 0.9476 -0.2657
vn 0.2259 0.9476 -0.2260
vn 0.2260 0.9476 -0.2260
vn 0.2657 0.9475 -0.1776
vn 0.2953 0.9476 -0.1223
vn 0.3135 0.9476 -0.0624
vn 0.3196 0.9476 -0.0000
vn 0.3135 0.9475 0.0624
vn 0.3135 0.9476 0.0624
vn 0.2953 0.9476 0.1223
vn 0.2657 0.9475 0.1776
vn 0.2260 0.9476 0.2260
vn 0.1775 0.9476 0.2658
vn 0.1223 0.9476 0.2953
vn 0.0624 0.9476 0.3134
vn -0.0000 0.9475 0.3196
vn -0.0000 0.9476 0.3196
vn -0.0624 0.9475 0.3135
vn -0.0624 0.9476 0.3135
vn -0.1223 0.9475 0.2953
vn -0.1223 0.9476 0.2953
vn -0.1775 0.9476 0.2658
vn -0.2260 0.9476 0.2260
vn -0.2658 0.9475 0.1775
vn -0.2657 0.9476 0.1776
vn -0.2953 0.9475 0.1223
vn -0.2953 0.9476 0.1223
vn -0.3135 0.9476 0.0623
vn -0.3196 0.9475 -0.0000
vn -0.3196 0.9476 -0.0000
vn -0.3135 0.9476 -0.0624
vn -0.2953 0.9475 -0.1223
vn -0.2953 0.9476 -0.1223
vn -0.2657 0.9476 -0.1775
vn -0.2657 0.9476 -0.1776
vn -0.2260 0.9475 -0.2260
vn -0.1773 0.9476 -0.2659
vn -0.1776 0.9476 -0.2657
vn -0.1223 0.9476 -0.2953
vn -0.0624 0.9475 -0.3135
vn -0.0624 0.9476 -0.3135
vn 0.2657 0.9476 -0.1776
vn 0.2657 0.9476 0.1776
vn 0.1776 0.9476 0.2657
vn 0.0624 0.9476 0.3135
vn -0.1776 0.9476 0.2657
vn -0.3135 0.9476 0.0624
vn -0.2260 0.9476 -0.2260
vt 0.711522 0.289355
vt 0.998779 0.261062
vt 0.998779 0.317647
vt 0.987740 0.373144
vt 0.966086 0.425422
vt 0.934649 0.472471
vt 0.894638 0.512482
vt 0.847589 0.543919
vt 0.795312 0.565573
vt 0.739814 0.576612
vt 0.683230 0.576612
vt 0.627733 0.565574
vt 0.575455 0.543919
vt 0.528406 0.512483
vt 0.488395 0.472471
vt 0.456958 0.425423
vt 0.435304 0.373145
vt 0.424265 0.317648
vt 0.424265 0.261063
vt 0.435304 0.205566
vt 0.456958 0.153288
vt 0.488394 0.106240
vt 0.528406 0.066228
vt 0.575454 0.034792
vt 0.627732 0.013137
vt 0.683229 0.002098
vt 0.739814 0.002098
vt 0.795311 0.013137
vt 0.847589 0.034791
vt 0.894637 0.066228
vt 0.934649 0.106240
vt 0.966085 0.153288
vt 0.987740 0.205565
vt 0.257254 0.335440
vt 0.259616 0.336703
vt 0.259325 0.337139
vt 0.259817 0.336218
vt 0.259919 0.335703
vt 0.259919 0.335177
vt 0.259817 0.334663
vt 0.259616 0.334177
vt 0.259324 0.333741
vt 0.258953 0.333369
vt 0.258516 0.333078
vt 0.258031 0.332877
vt 0.257516 0.332775
vt 0.256991 0.332775
vt 0.256476 0.332877
vt 0.255991 0.333078
vt 0.255554 0.333370
vt 0.255183 0.333741
vt 0.254891 0.334178
vt 0.254690 0.334663
vt 0.254588 0.335178
vt 0.254588 0.335703
vt 0.254691 0.336218
vt 0.254892 0.336703
vt 0.255184 0.337140
vt 0.255555 0.337511
vt 0.255992 0.337803
vt 0.256477 0.338003
vt 0.256992 0.338106
vt 0.257517 0.338106
vt 0.258032 0.338003
vt 0.258517 0.337802
vt 0.258953 0.337511
vt 0.648374 0.584003
vt 0.764395 0.841064
vt 0.764069 0.841207
vt 0.591920 0.584003
vt 0.763772 0.841403
vt 0.258579 0.273598
vt 0.258288 0.273394
vt 0.443471 0.016043
vt 0.257966 0.273242
vt 0.386010 0.016043
vt 0.257623 0.273147
vt 0.257269 0.273112
vt 0.261523 0.016043
vt 0.256915 0.273137
vt 0.198132 0.016043
vt 0.256569 0.273223
vt 0.256244 0.273366
vt 0.078256 0.016043
vt 0.255947 0.273562
vt 0.432630 0.997122
vt 0.025272 0.016043
vt 0.656181 0.739603
vt 0.432334 0.996926
vt 0.432008 0.996783
vt 0.548379 0.739603
vt 0.431663 0.996697
vt 0.431308 0.996672
vt 0.427089 0.739603
vt 0.430954 0.996707
vt 0.430611 0.996802
vt 0.306375 0.739603
vt 0.430290 0.996954
vt 0.250655 0.739603
vt 0.242717 0.724406
vt 0.429999 0.997159
vt 0.200232 0.739603
vt 0.475653 0.465930
vt 0.242422 0.724207
vt 0.242098 0.724060
vt 0.365090 0.465930
vt 0.241754 0.723971
vt 0.303556 0.465930
vt 0.241399 0.723942
vt 0.240213 0.465930
vt 0.241045 0.723974
vt 0.240701 0.724065
vt 0.115501 0.465930
vt 0.766656 0.841694
vt 0.240378 0.724214
vt 0.057774 0.465930
vt 0.766404 0.841443
vt 0.005415 0.465930
vt 0.996441 0.584003
vt 0.766113 0.841238
vt 0.946061 0.584003
vt 0.765792 0.841085
vt 0.765449 0.840990
vt 0.831004 0.584003
vt 0.765095 0.840954
vt 0.769687 0.584003
vt 0.764741 0.840979
vt 0.708211 0.584003
vt 0.540500 0.584003
vt 0.495469 0.016043
vt 0.324765 0.016043
vt 0.136443 0.016043
vt 0.604802 0.739603
vt 0.488559 0.739603
vt 0.365764 0.739603
vt 0.423020 0.465930
vt 0.176912 0.465930
vt 0.890374 0.584003
s 1
usemtl None
f 1/1/1 2/2/1 3/3/1
f 1/1/1 3/3/1 4/4/1
f 1/1/1 4/4/1 5/5/1
f 1/1/1 5/5/1 6/6/1
f 1/1/1 6/6/1 7/7/1
f 1/1/1 7/7/1 8/8/1
f 1/1/1 8/8/1 9/9/1
f 1/1/1 9/9/1 10/10/1
f 1/1/1 10/10/1 11/11/1
f 1/1/1 11/11/1 12/12/1
f 1/1/1 12/12/1 13/13/1
f 1/1/1 13/13/1 14/14/1
f 1/1/1 14/14/1 15/15/1
f 1/1/1 15/15/1 16/16/1
f 1/1/1 16/16/1 17/17/1
f 1/1/1 17/17/1 18/18/1
f 1/1/1 18/18/1 19/19/1
f 1/1/1 19/19/1 20/20/1
f 1/1/1 20/20/1 21/21/1
f 1/1/1 21/21/1 22/22/1
f 1/1/1 22/22/1 23/23/1
f 1/1/1 23/23/1 24/24/1
f 1/1/1 24/24/1 25/25/1
f 1/1/1 25/25/1 26/26/1
f 1/1/1 26/26/1 27/27/1
f 1/1/1 27/27/1 28/28/1
f 1/1/1 28/28/1 29/29/1
f 1/1/1 29/29/1 30/30/1
f 1/1/1 30/30/1 31/31/1
f 1/1/1 31/31/1 32/32/1
f 1/1/1 32/32/1 33/33/1
f 1/1/1 33/33/1 2/2/1
f 34/34/2 35/35/2 36/36/2
f 34/34/2 37/37/2 35/35/2
f 34/34/2 38/38/2 37/37/2
f 34/34/2 39/39/2 38/38/2
f 34/34/2 40/40/2 39/39/2
f 34/34/2 41/41/2 40/40/2
f 34/34/2 42/42/2 41/41/2
f 34/34/2 43/43/2 42/42/2
f 34/34/2 44/44/2 43/43/2
f 34/34/2 45/45/2 44/44/2
f 34/34/2 46/46/2 45/45/2
f 34/34/2 47/47/2 46/46/2
f 34/34/2 48/48/2 47/47/2
f 34/34/2 49/49/2 48/48/2
f 34/34/2 50/50/2 49/49/2
f 34/34/2 51/51/2 50/50/2
f 34/34/2 52/52/2 51/51/2
f 34/34/2 53/53/2 52/52/2
f 34/34/2 54/54/2 53/53/2
f 34/34/2 55/55/2 54/54/2
f 34/34/2 56/56/2 55/55/2
f 34/34/2 57/57/2 56/56/2
f 34/34/2 58/58/2 57/57/2
f 34/34/2 59/59/2 58/58/2
f 34/34/2 60/60/2 59/59/2
f 34/34/2 61/61/2 60/60/2
f 34/34/2 62/62/2 61/61/2
f 34/34/2 63/63/2 62/62/2
f 34/34/2 64/64/2 63/63/2
f 34/34/2 65/65/2 64/64/2
f 34/34/2 66/66/2 65/65/2
f 34/34/2 36/36/2 66/66/2
f 67/67/3 68/68/3 69/69/4
f 70/70/5 69/69/4 71/71/6
f 71/72/6 72/73/7 73/74/7
f 72/73/7 74/75/8 75/76/9
f 75/76/9 74/75/8 76/77/10
f 76/77/10 77/78/11 78/79/11
f 77/78/11 79/80/12 80/81/12
f 80/81/12 79/80/12 81/82/13
f 81/82/13 82/83/14 83/84/15
f 82/83/14 84/85/16 85/87/16
f 85/88/16 84/86/16 86/89/17
f 86/89/17 87/90/18 88/91/18
f 88/91/18 87/90/18 89/92/19
f 89/92/19 90/93/20 91/94/20
f 91/94/20 90/93/20 92/95/21
f 92/95/21 93/96/22 94/97/23
f 93/96/22 95/98/24 96/99/25
f 96/99/25 95/98/24 97/101/26
f 98/103/27 97/100/26 99/104/28
f 99/104/28 100/105/29 101/106/29
f 100/105/29 102/107/30 103/108/31
f 103/108/31 102/107/30 104/109/32
f 105/110/33 104/109/32 106/111/34
f 106/111/34 107/112/35 108/113/36
f 107/112/35 109/115/37 110/116/37
f 109/114/37 111/117/38 112/119/39
f 112/119/39 111/117/38 113/120/40
f 114/121/41 113/120/40 115/122/42
f 115/122/42 116/123/43 117/124/44
f 116/123/43 118/125/45 119/126/45
f 118/125/45 120/127/46 121/128/47
f 121/128/47 120/127/46 68/68/3
f 70/70/5 67/67/3 69/69/4
f 122/129/6 70/70/5 71/71/6
f 122/130/6 71/72/6 73/74/7
f 73/74/7 72/73/7 75/76/9
f 123/131/48 75/76/9 76/77/10
f 123/131/48 76/77/10 78/79/11
f 78/79/11 77/78/11 80/81/12
f 124/132/13 80/81/12 81/82/13
f 124/132/13 81/82/13 83/84/15
f 83/84/15 82/83/14 85/87/16
f 125/133/49 85/88/16 86/89/17
f 125/133/49 86/89/17 88/91/18
f 126/134/50 88/91/18 89/92/19
f 126/134/50 89/92/19 91/94/20
f 127/135/51 91/94/20 92/95/21
f 127/135/51 92/95/21 94/97/23
f 94/97/23 93/96/22 96/99/25
f 98/102/27 96/99/25 97/101/26
f 128/136/52 98/103/27 99/104/28
f 128/136/52 99/104/28 101/106/29
f 101/106/29 100/105/29 103/108/31
f 105/110/33 103/108/31 104/109/32
f 129/137/53 105/110/33 106/111/34
f 129/137/53 106/111/34 108/113/36
f 108/113/36 107/112/35 110/116/37
f 110/116/37 109/115/37 112/118/39
f 114/121/41 112/119/39 113/120/40
f 130/138/54 114/121/41 115/122/42
f 130/138/54 115/122/42 117/124/44
f 117/124/44 116/123/43 119/126/45
f 119/126/45 118/125/45 121/128/47
f 67/67/3 121/128/47 68/68/3
