# Blender v2.80 (sub 75) OBJ File: 'half_sphere_new_lowpoly.blend'
# www.blender.org
mtllib half_sphere_new_lowpoly.mtl
o Sphere
v -0.150431 -0.327559 -0.831364
v 0.153122 0.387627 -1.275100
v 0.054399 -0.442568 -0.690064
v 0.188115 0.114163 -1.176171
v 0.531677 0.569430 -1.206541
v 0.309839 -0.107335 -1.013869
v 0.470827 0.333709 -1.179260
v 0.791862 0.309435 -0.986702
v 0.631032 0.055927 -0.973741
v 0.427725 -0.268051 -0.807927
v 0.370991 -0.432425 -0.600798
v 0.110671 -0.573821 -0.384596
v 0.936191 0.360396 -0.869101
v 0.909994 0.100647 -0.750495
v 0.771364 -0.119465 -0.704563
v 0.751109 -0.242580 -0.567012
v 1.032278 -0.013913 -0.431587
v 0.621678 -0.405677 -0.415160
v 1.142654 0.272695 -0.520541
v 1.274176 0.566779 -0.304608
v 1.000554 -0.154583 -0.195943
v 1.232967 0.233630 -0.132252
v 0.424112 -0.547950 -0.215806
v 0.854597 -0.322350 -0.087284
v 0.670337 -0.448605 -0.076183
v 1.314557 0.567889 0.007327
v 1.109144 -0.035072 0.021681
v 1.223953 0.252839 0.221003
v 0.483137 -0.539925 0.101382
v 0.260145 -0.606649 -0.077304
v 1.231058 0.567558 0.478813
v 0.965615 -0.171016 0.273974
v 1.174008 0.365720 0.504494
v 1.063772 0.062501 0.471914
v 0.796155 -0.289049 0.397933
v 0.105904 -0.625679 -0.092150
v 1.010609 0.281466 0.748716
v 0.629865 -0.441158 0.285134
v 0.834290 -0.135599 0.610676
v 0.748488 0.110456 0.927363
v 0.508412 -0.404378 0.544489
v 0.577343 0.283763 1.117618
v 0.199729 -0.610567 0.143208
v 0.560205 -0.134223 0.877137
v 0.375636 -0.369107 0.700130
v 0.291202 -0.545482 0.377394
v 0.358274 0.404312 1.234331
v 0.259470 0.091184 1.152878
v 0.238354 -0.255215 0.897095
v 0.166920 -0.452815 0.653613
v -0.003882 0.378106 1.282618
v -0.068949 0.097394 1.176427
v -0.004477 -0.147178 1.024328
v -0.250862 0.569139 1.288344
v -0.334302 0.294772 1.217180
v -0.259034 -0.130935 1.004615
v -0.638643 0.569452 1.140247
v -0.162963 -0.384286 0.755412
v -0.062080 -0.523550 0.531206
v -0.516502 0.028925 1.022373
v -0.670536 0.338683 1.083928
v -0.362010 -0.541327 0.346144
v -0.960178 0.566598 0.898762
v -0.488778 -0.246234 0.802649
v -0.817206 0.073747 0.840157
v -0.479829 -0.405784 0.568238
v -0.014978 -0.612364 0.255014
v -1.053281 0.283268 0.688336
v -0.959627 -0.024051 0.561413
v -0.669922 -0.384354 0.381776
v -0.830877 -0.228737 0.475789
v -0.452364 -0.518108 0.295141
v -1.221473 0.570687 0.483916
v -1.193033 0.275379 0.396079
v -1.074230 -0.055136 0.203766
v -0.012163 -0.628708 0.107322
v -1.185697 0.119310 0.070275
v -1.280352 0.387299 0.078524
v -1.310748 0.568137 -0.058753
v -0.904990 -0.279579 -0.000738
v -0.562813 -0.507005 0.048400
v -1.218290 0.307236 -0.338024
v -0.770026 -0.388861 0.076316
v -1.234546 0.565855 -0.451967
v -1.130805 0.024854 -0.185705
v -0.377898 -0.578383 -0.043454
v -1.016117 0.001517 -0.483966
v -0.860271 -0.239106 -0.388381
v -0.678827 -0.401532 -0.312885
v -1.114903 0.570471 -0.687765
v -1.044573 0.307112 -0.717950
v -0.904806 0.055514 -0.731162
v -0.505923 -0.493795 -0.317194
v -0.646235 -0.267297 -0.653636
v -0.810484 0.568368 -1.034725
v -0.707942 0.374203 -1.067309
v -0.655746 0.102894 -0.986168
v -0.410722 -0.376707 -0.666352
v -0.318586 0.569540 -1.273099
v -0.448474 0.388819 -1.199661
v -0.476858 -0.153012 -0.901505
v -0.389835 0.052734 -1.090112
v -0.269148 -0.493387 -0.533604
v -0.162300 -0.600119 -0.262037
v -0.168449 0.223150 -1.223457
v -0.078546 -0.157314 -1.017270
v -0.151310 -0.626352 -0.007556
v -0.114293 0.571686 -1.312600
v 0.950026 0.570121 -0.898993
v 1.140325 0.567810 -0.648892
v 0.872961 0.565763 0.986449
v 0.333535 0.570613 1.273760
vt 0.147035 0.239998
vt 0.123375 0.180513
vt 0.170435 0.186960
vt 0.296242 0.305068
vt 0.276164 0.313759
vt 0.281265 0.281365
vt 0.249327 0.263826
vt 0.247795 0.300829
vt 0.211616 0.192520
vt 0.208619 0.250285
vt 0.095370 0.072124
vt 0.123968 0.116867
vt 0.076171 0.159013
vt 0.237682 0.218602
vt 0.189446 0.133359
vt 0.185019 0.080079
vt 0.243523 0.145774
vt 0.285616 0.238367
vt 0.241703 0.103293
vt 0.262343 0.165754
vt 0.274216 0.199659
vt 0.291464 0.265262
vt 0.197627 0.015097
vt 0.268974 0.000101
vt 0.214949 0.057521
vt 0.295050 0.063305
vt 0.299083 0.119624
vt 0.326955 0.152515
vt 0.355237 0.007049
vt 0.366546 0.085766
vt 0.368141 0.143025
vt 0.316445 0.215739
vt 0.324308 0.249845
vt 0.312032 0.284167
vt 0.424526 0.033259
vt 0.425197 0.115268
vt 0.328512 0.187740
vt 0.356107 0.241662
vt 0.435344 0.176810
vt 0.386280 0.189824
vt 0.385601 0.224296
vt 0.508988 0.103877
vt 0.479302 0.138957
vt 0.423932 0.228334
vt 0.495655 0.194945
vt 0.344157 0.287071
vt 0.380788 0.270761
vt 0.482684 0.257138
vt 0.572695 0.225897
vt 0.440018 0.283485
vt 0.392315 0.296215
vt 0.312140 0.313717
vt 0.370786 0.317620
vt 0.519405 0.297331
vt 0.413575 0.326227
vt 0.572695 0.361325
vt 0.537684 0.347511
vt 0.341372 0.335542
vt 0.509338 0.412764
vt 0.455924 0.398576
vt 0.476250 0.347392
vt 0.420398 0.368372
vt 0.365226 0.364008
vt 0.521127 0.478729
vt 0.460996 0.458204
vt 0.401580 0.401746
vt 0.354587 0.412447
vt 0.394540 0.449292
vt 0.322842 0.389112
vt 0.303145 0.358097
vt 0.412580 0.510208
vt 0.346846 0.483935
vt 0.365036 0.586664
vt 0.292131 0.365905
vt 0.290839 0.434916
vt 0.307453 0.532942
vt 0.294052 0.473897
vt 0.289238 0.400747
vt 0.247227 0.393643
vt 0.236514 0.460762
vt 0.226929 0.410395
vt 0.257721 0.364224
vt 0.259107 0.336817
vt 0.246934 0.528034
vt 0.250848 0.593923
vt 0.180578 0.529529
vt 0.202767 0.482110
vt 0.173481 0.446031
vt 0.137076 0.552165
vt 0.120931 0.471671
vt 0.065848 0.494372
vt 0.179846 0.381097
vt 0.206994 0.358834
vt 0.219695 0.336556
vt 0.032838 0.445008
vt 0.074516 0.408300
vt 0.110722 0.373370
vt 0.141227 0.405745
vt 0.162698 0.336187
vt 0.181008 0.305788
vt 0.000101 0.348989
vt 0.038845 0.324550
vt 0.089513 0.319025
vt 0.135000 0.299221
vt 0.209218 0.297017
vt 0.099009 0.273123
vt 0.035776 0.269480
vt 0.002224 0.233459
vt 0.011404 0.187142
vt 0.077363 0.225595
vt 0.174905 0.264404
vt 0.650278 0.043805
vt 0.914910 0.037144
vt 0.999899 0.260185
vt 0.950802 0.356575
vt 0.925542 0.379905
vt 0.572897 0.186308
vt 0.591138 0.120185
vt 0.573582 0.252754
vt 0.952491 0.073049
vt 0.985228 0.124567
vt 0.845660 0.422066
vt 0.769670 0.428637
vt 0.726555 0.421511
vt 0.666754 0.393146
vt 0.603233 0.328152
vt 0.741328 0.000101
vt 0.843965 0.002112
vt 0.999899 0.174385
vt 0.450928 0.546384
vn 0.0793 -0.5605 -0.8244
vn -0.0030 -0.9999 -0.0169
vn 0.0166 -0.9846 -0.1743
vn 0.1387 -0.7407 -0.6574
vn 0.2567 -0.1763 -0.9503
vn 0.1885 -0.7938 -0.5783
vn 0.3255 -0.4339 -0.8401
vn 0.4888 -0.2238 -0.8432
vn 0.4589 -0.6158 -0.6405
vn 0.2425 -0.9195 -0.3094
vn 0.6072 -0.4197 -0.6747
vn 0.4281 -0.7740 -0.4665
vn 0.1830 -0.9642 -0.1920
vn 0.7876 -0.1376 -0.6006
vn 0.8116 -0.2276 -0.5380
vn 0.7754 -0.3253 -0.5412
vn 0.6849 -0.6625 -0.3033
vn 0.9215 -0.1487 -0.3587
vn 0.9394 -0.2418 -0.2428
vn 0.8766 -0.4138 -0.2455
vn 0.8552 -0.4903 -0.1679
vn 0.8626 -0.4769 -0.1686
vn 0.3984 -0.9158 -0.0510
vn 0.3113 -0.9497 -0.0339
vn 0.1210 -0.9925 0.0155
vn 0.9670 -0.2521 0.0384
vn 0.5667 -0.8200 0.0804
vn 0.8599 -0.4740 0.1894
vn 0.8336 -0.5165 0.1959
vn 0.6283 -0.7673 0.1283
vn 0.9379 -0.2323 0.2577
vn 0.2486 -0.9673 0.0509
vn 0.7241 -0.5970 0.3452
vn 0.8451 -0.1746 0.5052
vn 0.3412 -0.9141 0.2189
vn 0.0799 -0.9963 0.0321
vn 0.4953 -0.7973 0.3450
vn 0.6857 -0.4730 0.5533
vn 0.5176 -0.7353 0.4376
vn 0.6565 -0.2708 0.7040
vn 0.5743 -0.5638 0.5936
vn 0.4258 -0.7337 0.5295
vn 0.1231 -0.9675 0.2208
vn 0.2549 -0.8764 0.4087
vn 0.2568 -0.8720 0.4167
vn 0.5880 -0.2601 0.7659
vn 0.3999 -0.4693 0.7873
vn 0.3077 -0.7149 0.6279
vn 0.0661 -0.9916 0.1110
vn 0.3964 -0.1555 0.9048
vn 0.0971 -0.9296 0.3556
vn 0.1859 -0.7889 0.5857
vn 0.1440 -0.2080 0.9675
vn 0.0597 -0.3653 0.9290
vn 0.0098 -0.7529 0.6581
vn 0.0306 -0.7805 0.6244
vn -0.1391 -0.2088 0.9680
vn -0.1023 -0.3311 0.9380
vn -0.2152 -0.4665 0.8580
vn -0.0992 -0.5442 0.8330
vn -0.2122 -0.7250 0.6553
vn -0.3286 -0.6093 0.7216
vn -0.2622 -0.8024 0.5361
vn -0.2206 -0.8699 0.4411
vn -0.3840 -0.3599 0.8503
vn -0.5170 -0.4068 0.7532
vn -0.4850 -0.5750 0.6589
vn -0.6621 -0.2750 0.6972
vn -0.3988 -0.8615 0.3142
vn -0.5526 -0.6310 0.5445
vn -0.6820 -0.2783 0.6764
vn -0.7282 -0.4392 0.5262
vn -0.4039 -0.8596 0.3129
vn -0.4945 -0.7630 0.4164
vn -0.1639 -0.9769 0.1372
vn -0.6125 -0.7615 0.2120
vn -0.6980 -0.6925 0.1824
vn -0.4704 -0.8656 0.1716
vn -0.3135 -0.9440 0.1026
vn -0.9651 -0.1556 0.2105
vn -0.8861 -0.4255 0.1839
vn -0.9324 -0.3336 0.1388
vn -0.8474 -0.5307 0.0141
vn -0.9407 -0.3298 -0.0800
vn -0.8013 -0.5983 -0.0065
vn -0.9665 -0.2372 -0.0984
vn -0.9717 -0.1437 -0.1875
vn -0.7466 -0.6472 -0.1537
vn -0.5862 -0.8025 -0.1112
vn -0.1922 -0.9770 -0.0924
vn -0.2666 -0.9490 -0.1686
vn -0.8754 -0.1824 -0.4477
vn -0.7916 -0.4162 -0.4474
vn -0.6407 -0.6215 -0.4509
vn -0.4054 -0.8276 -0.3881
vn -0.6757 -0.2398 -0.6971
vn -0.5288 -0.5759 -0.6235
vn -0.3476 -0.8563 -0.3819
vn -0.3676 -0.7233 -0.5846
vn -0.2285 -0.6036 -0.7639
vn -0.1809 -0.2559 -0.9496
vn -0.1343 -0.4965 -0.8576
vn -0.1178 -0.8469 -0.5186
vn -0.0429 -0.9208 -0.3877
vn -0.0307 -0.9944 -0.1012
vn 0.0024 1.0000 -0.0003
vn -0.0029 0.9992 0.0391
vn 0.0108 0.9996 -0.0262
vn 0.0253 0.9997 -0.0068
vn -0.0002 1.0000 0.0045
vn -0.0018 1.0000 -0.0076
vn -0.0806 0.9965 -0.0214
vn 0.0313 0.9995 -0.0098
vn -0.0026 1.0000 -0.0018
vn 0.0134 0.9999 0.0082
vn -0.0054 1.0000 -0.0003
vn 0.0189 0.9998 -0.0051
vn 0.6056 -0.1019 -0.7892
vn 0.0020 1.0000 0.0043
vn 0.0002 1.0000 0.0015
vn -0.0049 1.0000 0.0044
vn -0.0029 1.0000 -0.0007
vn 0.0216 -0.3377 -0.9410
vn 0.0413 -0.7448 -0.6661
vn 0.1620 0.0345 -0.9862
vn 0.0998 -0.7296 -0.6766
vn 0.1453 -0.8990 -0.4131
vn 0.2271 -0.3055 -0.9247
vn 0.3281 -0.4343 -0.8389
vn 0.4654 -0.3371 -0.8184
vn 0.3929 -0.6022 -0.6949
vn 0.4653 -0.6925 -0.5513
vn 0.4242 -0.7623 -0.4888
vn -0.3661 -0.1483 0.9187
vn 0.1368 -0.9758 -0.1708
vn 0.5879 -0.5025 -0.6339
vn 0.3267 -0.8919 -0.3127
vn 0.6621 -0.3655 -0.6542
vn 0.7746 -0.4395 -0.4549
vn 0.7030 -0.5395 -0.4634
vn 0.6854 -0.5898 -0.4270
vn 0.6397 -0.7239 -0.2584
vn 0.6258 -0.7363 -0.2574
vn 0.4524 -0.8743 -0.1757
vn 0.5483 -0.8162 -0.1821
vn 0.9746 -0.1855 -0.1255
vn 0.7506 -0.6606 -0.0117
vn 0.7367 -0.6739 0.0559
vn 0.9168 -0.3967 0.0450
vn 0.9716 -0.1628 0.1719
vn 0.4924 -0.8673 0.0730
vn 0.6208 -0.7735 0.1279
vn 0.8866 -0.3543 0.2973
vn 0.6915 -0.6390 0.3369
vn 0.8301 -0.3486 0.4352
vn 0.2612 -0.9515 0.1624
vn 0.8143 -0.0858 0.5741
vn 0.7175 -0.4727 0.5117
vn 0.3532 -0.8890 0.2915
vn 0.4864 -0.7138 0.5040
vn 0.4680 -0.0813 0.8800
vn 0.2977 -0.3272 0.8968
vn 0.3754 -0.4737 0.7967
vn 0.2667 -0.5830 0.7675
vn 0.0795 -0.9449 0.3174
vn 0.1471 -0.2922 0.9450
vn 0.1505 -0.5932 0.7909
vn 0.0515 -0.5176 0.8541
vn 0.0249 0.0023 0.9997
vn -0.0159 -0.8526 0.5224
vn -0.0992 -0.7167 0.6903
vn -0.2311 -0.4670 0.8535
vn -0.4883 -0.8673 -0.0964
vn -0.1961 -0.8798 0.4330
vn -0.1197 -0.9509 0.2854
vn -0.5961 -0.1116 0.7951
vn -0.4927 -0.7280 0.4767
vn -0.1054 -0.9886 0.1074
vn -0.6074 -0.5999 0.5208
vn -0.8409 -0.1162 0.5285
vn -0.8165 -0.4147 0.4016
vn -0.8795 -0.2115 0.4263
vn -0.4676 -0.8682 0.1661
vn -0.2948 -0.9514 0.0892
vn -0.2214 -0.9699 0.1013
vn -0.8254 -0.4746 0.3057
vn -0.7498 -0.5938 0.2919
vn -0.6793 -0.7110 0.1815
vn -0.9858 -0.0424 0.1624
vn -0.9401 -0.3323 -0.0762
vn -0.6469 -0.3270 -0.6889
vn -0.3992 -0.9119 -0.0951
vn -0.6234 -0.7670 -0.1520
vn -0.8557 -0.4247 -0.2958
vn -0.7653 -0.5941 -0.2478
vn -0.8843 -0.2337 -0.4043
vn -0.8436 -0.3738 -0.3856
vn -0.6683 -0.6049 -0.4331
vn -0.5382 -0.7653 -0.3530
vn -0.4454 -0.8177 -0.3647
vn -0.7462 -0.1243 -0.6540
vn -0.2449 -0.9313 -0.2697
vn -0.4404 -0.0655 -0.8954
vn -0.5286 -0.5737 -0.6257
vn -0.4048 -0.3403 -0.8487
vn -0.3939 -0.5250 -0.7545
vn -0.1817 -0.8265 -0.5327
vn -0.2585 -0.7352 -0.6267
vn -0.2117 -0.6786 -0.7033
vn -0.2067 -0.2122 -0.9551
vn -0.2782 -0.3412 -0.8979
vn -0.0638 -0.9371 -0.3432
vn -0.0314 -0.2431 -0.9695
vn -0.0312 -0.4819 -0.8757
usemtl None
s off
f 106/1/1 4/2/1 6/3/1
f 76/4/2 107/5/2 36/6/2
f 12/7/3 36/6/3 104/8/3
f 6/3/4 10/9/4 3/10/4
f 5/11/5 7/12/5 2/13/5
f 10/9/6 11/14/6 3/10/6
f 7/12/7 9/15/7 6/3/7
f 5/11/8 8/16/8 7/12/8
f 9/15/9 15/17/9 10/9/9
f 11/14/10 23/18/10 12/7/10
f 8/16/11 14/19/11 9/15/11
f 16/20/12 18/21/12 11/14/12
f 23/18/13 30/22/13 12/7/13
f 109/23/14 110/24/14 13/25/14
f 110/24/15 19/26/15 13/25/15
f 13/25/16 19/26/16 14/19/16
f 17/27/17 21/28/17 16/20/17
f 110/24/18 20/29/18 19/26/18
f 20/29/19 22/30/19 19/26/19
f 19/26/20 22/30/20 17/27/20
f 22/30/21 27/31/21 17/27/21
f 17/27/22 27/31/22 21/28/22
f 25/32/23 29/33/23 23/18/23
f 23/18/24 29/33/24 30/22/24
f 36/6/25 30/22/25 43/34/25
f 26/35/26 28/36/26 22/30/26
f 24/37/27 38/38/27 25/32/27
f 28/36/28 34/39/28 27/31/28
f 27/31/29 34/39/29 32/40/29
f 24/37/30 32/40/30 35/41/30
f 31/42/31 33/43/31 28/36/31
f 29/33/32 43/34/32 30/22/32
f 32/40/33 34/39/33 39/44/33
f 31/42/34 37/45/34 33/43/34
f 29/33/35 38/38/35 46/46/35
f 43/34/36 76/4/36 36/6/36
f 35/41/37 41/47/37 38/38/37
f 37/45/38 40/48/38 39/44/38
f 35/41/39 39/44/39 41/47/39
f 37/45/40 111/49/40 40/48/40
f 40/48/41 44/50/41 39/44/41
f 41/47/42 44/50/42 45/51/42
f 46/46/43 67/52/43 43/34/43
f 46/46/44 41/47/44 50/53/44
f 41/47/45 45/51/45 50/53/45
f 111/49/46 42/54/46 40/48/46
f 40/48/47 42/54/47 44/50/47
f 44/50/48 49/55/48 45/51/48
f 43/34/49 67/52/49 76/4/49
f 42/54/50 112/56/50 47/57/50
f 46/46/51 50/53/51 59/58/51
f 49/55/52 50/53/52 45/51/52
f 47/57/53 112/56/53 51/59/53
f 51/59/54 52/60/54 48/61/54
f 49/55/55 53/62/55 58/63/55
f 49/55/56 58/63/56 50/53/56
f 51/59/57 54/64/57 55/65/57
f 51/59/58 55/65/58 52/60/58
f 52/60/59 55/65/59 56/66/59
f 52/60/60 56/66/60 53/62/60
f 58/63/61 56/66/61 64/67/61
f 60/68/62 64/67/62 56/66/62
f 58/63/63 64/67/63 66/69/63
f 59/58/64 58/63/64 62/70/64
f 55/65/65 61/71/65 60/68/65
f 61/71/66 65/72/66 60/68/66
f 60/68/67 65/72/67 64/67/67
f 61/71/68 63/73/68 65/72/68
f 66/69/69 72/74/69 62/70/69
f 64/67/70 65/72/70 71/75/70
f 65/72/71 63/73/71 68/76/71
f 65/72/72 68/76/72 69/77/72
f 66/69/73 70/78/73 72/74/73
f 71/75/74 70/78/74 66/69/74
f 62/70/75 107/5/75 67/52/75
f 70/78/76 71/75/76 83/79/76
f 71/75/77 75/80/77 80/81/77
f 83/79/78 81/82/78 72/74/78
f 62/70/79 81/82/79 86/83/79
f 74/84/80 73/85/80 78/86/80
f 74/84/81 77/87/81 75/80/81
f 74/84/82 78/86/82 77/87/82
f 75/80/83 77/87/83 85/88/83
f 77/87/84 78/86/84 85/88/84
f 75/80/85 85/88/85 80/81/85
f 79/89/86 82/90/86 78/86/86
f 79/89/87 84/91/87 82/90/87
f 80/81/88 85/88/88 88/92/88
f 80/81/89 89/93/89 83/79/89
f 86/83/90 104/8/90 107/5/90
f 86/83/91 93/94/91 104/8/91
f 84/91/92 90/95/92 91/96/92
f 91/96/93 92/97/93 87/98/93
f 92/97/94 94/99/94 88/92/94
f 94/99/95 98/100/95 93/94/95
f 95/101/96 96/102/96 91/96/96
f 92/97/97 97/103/97 101/104/97
f 98/100/98 103/105/98 93/94/98
f 94/99/99 101/104/99 98/100/99
f 102/106/100 106/1/100 101/104/100
f 100/107/101 99/108/101 108/109/101
f 102/106/102 105/110/102 106/1/102
f 1/111/103 3/10/103 103/105/103
f 103/105/104 3/10/104 12/7/104
f 104/8/105 36/6/105 107/5/105
f 112/112/106 26/113/106 5/114/106
f 5/114/107 108/115/107 99/116/107
f 57/117/108 54/118/108 63/119/108
f 26/113/109 20/120/109 110/121/109
f 99/116/110 95/122/110 5/114/110
f 95/122/111 90/123/111 5/114/111
f 90/123/112 84/124/112 79/125/112
f 79/125/113 73/126/113 63/119/113
f 54/118/114 112/112/114 63/119/114
f 112/112/115 111/127/115 26/113/115
f 111/127/116 31/128/116 26/113/116
f 26/113/117 110/121/117 109/129/117
f 109/23/118 13/25/118 8/16/118 5/11/118
f 90/123/119 79/125/119 5/114/119
f 79/125/120 63/119/120 5/114/120
f 26/113/121 109/129/121 5/114/121
f 63/119/122 112/112/122 5/114/122
f 105/110/123 2/13/123 4/2/123
f 1/111/124 106/1/124 3/10/124
f 108/109/125 5/11/125 2/13/125
f 106/1/126 6/3/126 3/10/126
f 3/10/127 11/14/127 12/7/127
f 4/2/128 2/13/128 7/12/128
f 4/2/129 7/12/129 6/3/129
f 7/12/130 8/16/130 9/15/130
f 6/3/131 9/15/131 10/9/131
f 10/9/132 15/17/132 16/20/132
f 11/14/133 10/9/133 16/20/133
f 57/130/134 61/71/134 55/65/134 54/64/134
f 36/6/135 12/7/135 30/22/135
f 15/17/136 9/15/136 14/19/136
f 23/18/137 11/14/137 18/21/137
f 8/16/138 13/25/138 14/19/138
f 14/19/139 19/26/139 17/27/139
f 15/17/140 14/19/140 17/27/140
f 15/17/141 17/27/141 16/20/141
f 16/20/142 21/28/142 24/37/142
f 18/21/143 16/20/143 24/37/143
f 23/18/144 18/21/144 25/32/144
f 18/21/145 24/37/145 25/32/145
f 20/29/146 26/35/146 22/30/146
f 21/28/147 27/31/147 24/37/147
f 27/31/148 32/40/148 24/37/148
f 22/30/149 28/36/149 27/31/149
f 26/35/150 31/42/150 28/36/150
f 25/32/151 38/38/151 29/33/151
f 24/37/152 35/41/152 38/38/152
f 28/36/153 33/43/153 34/39/153
f 35/41/154 32/40/154 39/44/154
f 33/43/155 37/45/155 34/39/155
f 43/34/156 29/33/156 46/46/156
f 31/42/157 111/49/157 37/45/157
f 34/39/158 37/45/158 39/44/158
f 46/46/159 38/38/159 41/47/159
f 41/47/160 39/44/160 44/50/160
f 42/54/161 111/49/161 112/56/161
f 42/54/162 47/57/162 48/61/162
f 44/50/163 42/54/163 48/61/163
f 49/55/164 44/50/164 48/61/164
f 46/46/165 59/58/165 67/52/165
f 48/61/166 47/57/166 51/59/166
f 49/55/167 48/61/167 53/62/167
f 48/61/168 52/60/168 53/62/168
f 51/59/169 112/56/169 54/64/169
f 50/53/170 58/63/170 59/58/170
f 58/63/171 53/62/171 56/66/171
f 56/66/172 55/65/172 60/68/172
f 93/94/173 81/82/173 83/79/173 89/93/173
f 62/70/174 58/63/174 66/69/174
f 59/58/175 62/70/175 67/52/175
f 61/71/176 57/130/176 63/73/176
f 66/69/177 64/67/177 71/75/177
f 67/52/178 107/5/178 76/4/178
f 71/75/179 65/72/179 69/77/179
f 63/73/180 73/85/180 68/76/180
f 68/76/181 74/84/181 69/77/181
f 68/76/182 73/85/182 74/84/182
f 70/78/183 83/79/183 72/74/183
f 72/74/184 81/82/184 62/70/184
f 62/70/185 86/83/185 107/5/185
f 69/77/186 74/84/186 75/80/186
f 69/77/187 75/80/187 71/75/187
f 83/79/188 71/75/188 80/81/188
f 78/86/189 73/85/189 79/89/189
f 85/88/190 78/86/190 82/90/190
f 96/102/191 97/103/191 92/97/191 91/96/191
f 81/82/192 93/94/192 86/83/192
f 80/81/193 88/92/193 89/93/193
f 85/88/194 82/90/194 87/98/194
f 85/88/195 87/98/195 88/92/195
f 82/90/196 84/91/196 91/96/196
f 82/90/197 91/96/197 87/98/197
f 87/98/198 92/97/198 88/92/198
f 88/92/199 94/99/199 89/93/199
f 89/93/200 94/99/200 93/94/200
f 91/96/201 90/95/201 95/101/201
f 104/8/202 93/94/202 103/105/202
f 99/108/203 100/107/203 96/102/203 95/101/203
f 94/99/204 92/97/204 101/104/204
f 100/107/205 102/106/205 97/103/205 96/102/205
f 101/104/206 97/103/206 102/106/206
f 98/100/207 1/111/207 103/105/207
f 98/100/208 101/104/208 1/111/208
f 101/104/209 106/1/209 1/111/209
f 100/107/210 108/109/210 105/110/210
f 102/106/211 100/107/211 105/110/211
f 103/105/212 12/7/212 104/8/212
f 105/110/213 108/109/213 2/13/213
f 106/1/214 105/110/214 4/2/214
