# Blender 3.5.1
# www.blender.org
mtllib half_tapered_cylinder.mtl
o Cylinder.001
v -0.000000 -0.004808 -0.384254
v -0.000000 0.882190 -0.158961
v -0.000000 -0.004808 0.384254
v -0.000000 0.882190 0.158961
v -0.074964 -0.004808 0.376870
v -0.031012 0.882190 0.155906
v -0.147048 -0.004808 0.355004
v -0.060832 0.882190 0.146861
v -0.213480 -0.004808 0.319495
v -0.088314 0.882190 0.132171
v -0.271708 -0.004808 0.271708
v -0.112402 0.882190 0.112402
v -0.319495 -0.004808 0.213480
v -0.132171 0.882190 0.088314
v -0.355004 -0.004808 0.147047
v -0.146861 0.882190 0.060832
v -0.376870 -0.004808 0.074964
v -0.155906 0.882190 0.031012
v -0.384254 -0.004808 0.000000
v -0.158961 0.882190 -0.000000
v -0.376870 -0.004808 -0.074964
v -0.155906 0.882190 -0.031012
v -0.355004 -0.004808 -0.147047
v -0.146861 0.882190 -0.060832
v -0.319495 -0.004808 -0.213480
v -0.132171 0.882190 -0.088314
v -0.271708 -0.004808 -0.271708
v -0.112402 0.882190 -0.112402
v -0.213480 -0.004808 -0.319495
v -0.088314 0.882190 -0.132171
v -0.147048 -0.004808 -0.355004
v -0.060832 0.882190 -0.146861
v -0.074964 -0.004808 -0.376870
v -0.031012 0.882190 -0.155906
vn 1.0000 -0.0000 -0.0000
vn -0.0000 -1.0000 -0.0000
vn 0.5361 -0.4990 0.6809
vn -0.1242 0.7711 0.6245
vn -0.1574 -0.5911 0.7911
vn -0.2437 0.7711 0.5883
vn -0.3087 -0.5911 0.7452
vn -0.4481 -0.5911 0.6707
vn -0.3538 0.7711 0.5294
vn -0.5704 -0.5911 0.5704
vn -0.4502 0.7711 0.4502
vn -0.6707 -0.5911 0.4481
vn -0.5294 0.7711 0.3538
vn -0.7452 -0.5911 0.3087
vn -0.5883 0.7711 0.2437
vn -0.7911 -0.5911 0.1574
vn -0.6245 0.7711 0.1242
vn -0.8066 -0.5911 -0.0000
vn -0.6368 0.7711 -0.0000
vn -0.7911 -0.5911 -0.1574
vn -0.6245 0.7711 -0.1242
vn -0.7452 -0.5911 -0.3087
vn -0.5294 0.7711 -0.3538
vn -0.6707 -0.5911 -0.4481
vn -0.5704 -0.5911 -0.5704
vn -0.4502 0.7711 -0.4502
vn -0.4481 -0.5911 -0.6707
vn -0.2437 0.7711 -0.5883
vn -0.3087 -0.5911 -0.7452
vn -0.1574 -0.5911 -0.7911
vn -0.1242 0.7711 -0.6245
vn 0.5361 -0.4990 -0.6809
vn -0.0000 1.0000 -0.0000
vn 0.5680 0.6346 0.5241
vn -0.5883 0.7711 -0.2437
vn -0.3538 0.7711 -0.5294
vn 0.5680 0.6346 -0.5241
vt 0.997709 0.409378
vt 0.001758 0.001464
vt 0.872622 0.905321
vt 0.199151 0.494111
vt 0.568199 0.410095
vt 0.675097 0.001464
vt 0.694939 0.905617
vt 0.477703 0.494111
vt 0.572255 0.368191
vt 0.634749 0.001464
vt 0.696675 0.922947
vt 0.461012 0.494111
vt 0.584409 0.327884
vt 0.593711 0.001464
vt 0.701759 0.939604
vt 0.444035 0.494111
vt 0.604192 0.290723
vt 0.552079 0.001464
vt 0.709994 0.954950
vt 0.426812 0.494111
vt 0.630846 0.258135
vt 0.509949 0.001464
vt 0.721065 0.968394
vt 0.409383 0.494111
vt 0.663344 0.231373
vt 0.467419 0.001464
vt 0.734546 0.979421
vt 0.391789 0.494111
vt 0.700439 0.211466
vt 0.424589 0.001464
vt 0.749919 0.987605
vt 0.374071 0.494111
vt 0.740706 0.199178
vt 0.381559 0.001464
vt 0.766594 0.992632
vt 0.356270 0.494111
vt 0.782595 0.194981
vt 0.338428 0.001464
vt 0.783929 0.994311
vt 0.338427 0.494111
vt 0.824499 0.199038
vt 0.295296 0.001464
vt 0.801258 0.992575
vt 0.320585 0.494111
vt 0.864806 0.211192
vt 0.252266 0.001464
vt 0.817916 0.987491
vt 0.302783 0.494111
vt 0.901967 0.230975
vt 0.209436 0.001464
vt 0.833261 0.979256
vt 0.285065 0.494111
vt 0.934555 0.257628
vt 0.166906 0.001464
vt 0.846706 0.968185
vt 0.267471 0.494111
vt 0.961317 0.290127
vt 0.124776 0.001464
vt 0.857732 0.954704
vt 0.250042 0.494111
vt 0.981224 0.327222
vt 0.083144 0.001464
vt 0.865916 0.939330
vt 0.232820 0.494111
vt 0.993512 0.367488
vt 0.042106 0.001464
vt 0.870944 0.922656
vt 0.215843 0.494111
s 0
usemtl Material.005
f 4/7/1 1/1/1 2/3/1
f 23/45/2 25/49/2 27/53/2
f 5/9/2 9/17/2 11/21/2
f 21/41/2 27/53/2 5/9/2
f 17/33/2 5/9/2 11/21/2
f 31/61/2 33/65/2 29/57/2
f 5/9/2 27/53/2 33/65/2
f 21/41/2 5/9/2 17/33/2
f 11/21/2 13/25/2 15/29/2
f 15/29/2 17/33/2 11/21/2
f 23/45/2 27/53/2 21/41/2
f 17/33/2 19/37/2 21/41/2
f 33/65/2 27/53/2 29/57/2
f 4/7/1 3/5/1 1/1/1
f 5/9/2 7/13/2 9/17/2
f 3/5/2 5/9/2 33/65/2
s 1
f 3/6/3 6/12/4 5/10/5
f 5/10/5 8/16/6 7/14/7
f 8/16/6 9/18/8 7/14/7
f 10/20/9 11/22/10 9/18/8
f 12/24/11 13/26/12 11/22/10
f 14/28/13 15/30/14 13/26/12
f 16/32/15 17/34/16 15/30/14
f 18/36/17 19/38/18 17/34/16
f 20/40/19 21/42/20 19/38/18
f 22/44/21 23/46/22 21/42/20
f 23/46/22 26/52/23 25/50/24
f 26/52/23 27/54/25 25/50/24
f 28/56/26 29/58/27 27/54/25
f 29/58/27 32/64/28 31/62/29
f 32/64/28 33/66/30 31/62/29
f 34/68/31 1/2/32 33/66/30
s 0
f 18/35/33 28/55/33 22/43/33
f 28/55/33 26/51/33 22/43/33
f 8/15/33 6/11/33 10/19/33
f 10/19/33 6/11/33 12/23/33
f 12/23/33 6/11/33 34/67/33
f 34/67/33 30/59/33 28/55/33
f 16/31/33 14/27/33 18/35/33
f 18/35/33 14/27/33 12/23/33
f 20/39/33 18/35/33 22/43/33
f 18/35/33 12/23/33 28/55/33
f 24/47/33 22/43/33 26/51/33
f 33/65/2 1/1/2 3/5/2
f 28/55/33 12/23/33 34/67/33
f 6/11/33 4/7/33 34/67/33
f 32/63/33 30/59/33 34/67/33
f 34/67/33 4/7/33 2/3/33
s 1
f 3/6/3 4/8/34 6/12/4
f 5/10/5 6/12/4 8/16/6
f 8/16/6 10/20/9 9/18/8
f 10/20/9 12/24/11 11/22/10
f 12/24/11 14/28/13 13/26/12
f 14/28/13 16/32/15 15/30/14
f 16/32/15 18/36/17 17/34/16
f 18/36/17 20/40/19 19/38/18
f 20/40/19 22/44/21 21/42/20
f 22/44/21 24/48/35 23/46/22
f 23/46/22 24/48/35 26/52/23
f 26/52/23 28/56/26 27/54/25
f 28/56/26 30/60/36 29/58/27
f 29/58/27 30/60/36 32/64/28
f 32/64/28 34/68/31 33/66/30
f 34/68/31 2/4/37 1/2/32
