# Blender 3.5.1
# www.blender.org
mtllib half_tapered_tube.mtl
o Cylinder.001
v -0.000000 -0.002737 -1.899988
v -0.000000 3.581869 -0.786000
v 0.370696 -0.002737 -1.863479
v 0.153352 3.581869 -0.770897
v 0.727147 -0.002737 -1.755359
v 0.300811 3.581869 -0.726170
v 1.055653 -0.002737 -1.579782
v 0.436710 3.581869 -0.653535
v 1.343592 -0.002737 -1.343494
v 0.555827 3.581869 -0.555786
v 1.579897 -0.002737 -1.055577
v 0.653583 3.581869 -0.436678
v 1.755488 -0.002737 -0.727094
v 0.726223 3.581869 -0.300789
v 1.863616 -0.002737 -0.370669
v 0.770954 3.581869 -0.153341
v 1.900126 -0.002737 0.000000
v 0.786058 3.581869 -0.000000
v 1.863616 -0.002737 0.370669
v 0.770954 3.581869 0.153341
v 1.755488 -0.002737 0.727094
v 0.726223 3.581869 0.300789
v 1.579897 -0.002737 1.055577
v 0.653583 3.581869 0.436678
v 1.343592 -0.002737 1.343494
v 0.555827 3.581869 0.555786
v 1.055653 -0.002737 1.579782
v 0.436710 3.581869 0.653535
v 0.727147 -0.002737 1.755359
v 0.300811 3.581869 0.726170
v 0.370696 -0.002737 1.863479
v 0.153352 3.581869 0.770897
v -0.000000 -0.002737 1.899988
v -0.000000 3.581869 0.786000
v -0.000000 -0.002737 -1.738489
v -0.000000 3.581869 -0.719190
v 0.339187 -0.002737 -1.705084
v 0.140317 3.581869 -0.705371
v 0.665339 -0.002737 -1.606154
v 0.275242 3.581869 -0.664445
v 0.965923 -0.002737 -1.445500
v 0.399590 3.581869 -0.597985
v 1.229386 -0.002737 -1.229297
v 0.508581 3.581869 -0.508544
v 1.445606 -0.002737 -0.965853
v 0.598028 3.581869 -0.399561
v 1.606271 -0.002737 -0.665291
v 0.664494 3.581869 -0.275222
v 1.705208 -0.002737 -0.339162
v 0.705423 3.581869 -0.140307
v 1.738615 -0.002737 0.000000
v 0.719243 3.581869 -0.000000
v 1.705208 -0.002737 0.339162
v 0.705423 3.581869 0.140307
v 1.606271 -0.002737 0.665291
v 0.664494 3.581869 0.275222
v 1.445606 -0.002737 0.965853
v 0.598028 3.581869 0.399561
v 1.229386 -0.002737 1.229297
v 0.508581 3.581869 0.508544
v 0.965923 -0.002737 1.445500
v 0.399590 3.581869 0.597985
v 0.665339 -0.002737 1.606154
v 0.275242 3.581869 0.664445
v 0.339187 -0.002737 1.705084
v 0.140317 3.581869 0.705371
v -0.000000 -0.002737 1.738489
v -0.000000 3.581869 0.719190
vn -0.5069 -0.5734 -0.6436
vn 0.1094 0.8279 -0.5501
vn 0.1457 -0.6652 -0.7323
vn 0.2857 -0.6652 -0.6899
vn 0.2146 0.8279 -0.5183
vn 0.4149 -0.6651 -0.6209
vn 0.3116 0.8278 -0.4665
vn 0.5281 -0.6650 -0.5281
vn 0.3967 0.8278 -0.3967
vn 0.6210 -0.6650 -0.4149
vn 0.4665 0.8278 -0.3117
vn 0.6901 -0.6649 -0.2858
vn 0.5184 0.8278 -0.2147
vn 0.7326 -0.6649 -0.1457
vn 0.5503 0.8277 -0.1095
vn 0.7470 -0.6649 -0.0000
vn 0.5611 0.8277 -0.0000
vn 0.7326 -0.6649 0.1457
vn 0.5503 0.8277 0.1095
vn 0.6901 -0.6649 0.2858
vn 0.5184 0.8278 0.2147
vn 0.6210 -0.6650 0.4149
vn 0.4665 0.8278 0.3117
vn 0.5281 -0.6650 0.5281
vn 0.3967 0.8278 0.3967
vn 0.4149 -0.6651 0.6209
vn 0.3116 0.8278 0.4664
vn 0.2857 -0.6652 0.6899
vn 0.1094 0.8279 0.5501
vn 0.1457 -0.6652 0.7323
vn -0.5069 -0.5734 0.6436
vn -0.5201 0.7071 -0.4791
vn 0.2147 0.8279 0.5183
vn -0.5201 0.7071 0.4791
vn -0.5605 -0.7068 0.4316
vn -0.1017 -0.8535 0.5111
vn -0.1358 0.7178 0.6828
vn -0.1994 -0.8535 0.4815
vn -0.2664 0.7178 0.6432
vn -0.2895 -0.8534 0.4334
vn -0.3868 0.7178 0.5789
vn -0.3685 -0.8534 0.3686
vn -0.4924 0.7177 0.4924
vn -0.4334 -0.8534 0.2896
vn -0.5790 0.7177 0.3869
vn -0.4816 -0.8534 0.1995
vn -0.6434 0.7177 0.2665
vn -0.5113 -0.8534 0.1017
vn -0.6830 0.7176 0.1359
vn -0.5213 -0.8534 -0.0000
vn -0.6964 0.7176 -0.0000
vn -0.5113 -0.8534 -0.1017
vn -0.6830 0.7176 -0.1359
vn -0.4816 -0.8534 -0.1995
vn -0.6434 0.7177 -0.2665
vn -0.4334 -0.8534 -0.2896
vn -0.5790 0.7177 -0.3869
vn -0.3685 -0.8534 -0.3686
vn -0.4924 0.7177 -0.4924
vn -0.2895 -0.8534 -0.4334
vn -0.3868 0.7178 -0.5789
vn -0.1994 -0.8535 -0.4815
vn -0.1017 -0.8535 -0.5111
vn -0.1358 0.7178 -0.6828
vn -0.5605 -0.7068 -0.4316
vn -0.5587 0.5954 0.5774
vn -0.2664 0.7178 -0.6432
vn -0.5587 0.5954 -0.5774
vn -0.0000 1.0000 -0.0000
vn -0.0000 -1.0000 -0.0000
vn -1.0000 -0.0000 -0.0000
vt 0.991240 0.044507
vt 0.015593 0.526930
vt 0.810707 0.492961
vt 0.192318 0.990810
vt 0.954343 0.044507
vt 0.053873 0.526930
vt 0.795443 0.492961
vt 0.218820 0.990810
vt 0.916809 0.044507
vt 0.095738 0.526930
vt 0.779916 0.492961
vt 0.238657 0.990810
vt 0.878730 0.044507
vt 0.136748 0.526930
vt 0.764163 0.492961
vt 0.255958 0.990810
vt 0.840196 0.044507
vt 0.177265 0.526930
vt 0.748222 0.492961
vt 0.272534 0.990810
vt 0.801298 0.044507
vt 0.217712 0.526930
vt 0.732131 0.492961
vt 0.288966 0.990810
vt 0.762126 0.044507
vt 0.258298 0.526930
vt 0.715926 0.492961
vt 0.305442 0.990810
vt 0.722773 0.044507
vt 0.299177 0.526930
vt 0.699646 0.492961
vt 0.322065 0.990810
vt 0.683328 0.044507
vt 0.340653 0.526930
vt 0.683328 0.492961
vt 0.339037 0.990810
vt 0.643884 0.044507
vt 0.382134 0.526930
vt 0.667011 0.492961
vt 0.356004 0.990810
vt 0.604530 0.044507
vt 0.423003 0.526930
vt 0.650730 0.492961
vt 0.372623 0.990810
vt 0.565359 0.044507
vt 0.463558 0.526930
vt 0.634526 0.492961
vt 0.389096 0.990810
vt 0.526460 0.044507
vt 0.503946 0.526930
vt 0.618434 0.492961
vt 0.405530 0.990810
vt 0.487926 0.044507
vt 0.544370 0.526930
vt 0.602493 0.492961
vt 0.422113 0.990810
vt 0.449847 0.044507
vt 0.585250 0.526930
vt 0.586740 0.492961
vt 0.439428 0.990810
vt 0.412314 0.044507
vt 0.627015 0.526930
vt 0.571213 0.492961
vt 0.459246 0.990810
vt 0.375416 0.044507
vt 0.665110 0.526930
vt 0.555949 0.492961
vt 0.485769 0.990810
vt 0.036560 0.538456
vt 0.199492 0.983296
vt 0.065648 0.538456
vt 0.219913 0.983296
vt 0.102600 0.538456
vt 0.237598 0.983296
vt 0.141413 0.538456
vt 0.254633 0.983296
vt 0.180725 0.538456
vt 0.271394 0.983296
vt 0.220284 0.538456
vt 0.288120 0.983296
vt 0.260071 0.538456
vt 0.304911 0.983296
vt 0.300134 0.538456
vt 0.321836 0.983296
vt 0.340625 0.538456
vt 0.339032 0.983296
vt 0.381119 0.538456
vt 0.356224 0.983296
vt 0.421166 0.538456
vt 0.373149 0.983296
vt 0.460921 0.538456
vt 0.389939 0.983296
vt 0.500430 0.538456
vt 0.406666 0.983296
vt 0.539661 0.538456
vt 0.423435 0.983296
vt 0.578332 0.538456
vt 0.440500 0.983296
vt 0.615167 0.538456
vt 0.458191 0.983296
vt 0.644104 0.538456
vt 0.478637 0.983296
s 1
usemtl Material.005
f 1/1/1 4/7/2 3/5/3
f 4/7/2 5/9/4 3/5/3
f 6/11/5 7/13/6 5/9/4
f 8/15/7 9/17/8 7/13/6
f 10/19/9 11/21/10 9/17/8
f 12/23/11 13/25/12 11/21/10
f 14/27/13 15/29/14 13/25/12
f 16/31/15 17/33/16 15/29/14
f 18/35/17 19/37/18 17/33/16
f 20/39/19 21/41/20 19/37/18
f 22/43/21 23/45/22 21/41/20
f 24/47/23 25/49/24 23/45/22
f 26/51/25 27/53/26 25/49/24
f 28/55/27 29/57/28 27/53/26
f 29/57/28 32/63/29 31/61/30
f 32/63/29 33/65/31 31/61/30
f 1/1/1 2/3/32 4/7/2
f 4/7/2 6/11/5 5/9/4
f 6/11/5 8/15/7 7/13/6
f 8/15/7 10/19/9 9/17/8
f 10/19/9 12/23/11 11/21/10
f 12/23/11 14/27/13 13/25/12
f 14/27/13 16/31/15 15/29/14
f 16/31/15 18/35/17 17/33/16
f 18/35/17 20/39/19 19/37/18
f 20/39/19 22/43/21 21/41/20
f 22/43/21 24/47/23 23/45/22
f 24/47/23 26/51/25 25/49/24
f 26/51/25 28/55/27 27/53/26
f 28/55/27 30/59/33 29/57/28
f 29/57/28 30/59/33 32/63/29
f 32/63/29 34/67/34 33/65/31
f 35/69/35 37/71/36 38/72/37
f 38/72/37 37/71/36 39/73/38
f 40/74/39 39/73/38 41/75/40
f 42/76/41 41/75/40 43/77/42
f 44/78/43 43/77/42 45/79/44
f 46/80/45 45/79/44 47/81/46
f 48/82/47 47/81/46 49/83/48
f 50/84/49 49/83/48 51/85/50
f 52/86/51 51/85/50 53/87/52
f 54/88/53 53/87/52 55/89/54
f 56/90/55 55/89/54 57/91/56
f 58/92/57 57/91/56 59/93/58
f 60/94/59 59/93/58 61/95/60
f 62/96/61 61/95/60 63/97/62
f 63/97/62 65/99/63 66/100/64
f 66/100/64 65/99/63 67/101/65
f 35/69/35 38/72/37 36/70/66
f 38/72/37 39/73/38 40/74/39
f 40/74/39 41/75/40 42/76/41
f 42/76/41 43/77/42 44/78/43
f 44/78/43 45/79/44 46/80/45
f 46/80/45 47/81/46 48/82/47
f 48/82/47 49/83/48 50/84/49
f 50/84/49 51/85/50 52/86/51
f 52/86/51 53/87/52 54/88/53
f 54/88/53 55/89/54 56/90/55
f 56/90/55 57/91/56 58/92/57
f 58/92/57 59/93/58 60/94/59
f 60/94/59 61/95/60 62/96/61
f 62/96/61 63/97/62 64/98/67
f 63/97/62 66/100/64 64/98/67
f 66/100/64 67/101/65 68/102/68
s 0
f 26/52/69 58/92/69 60/94/69
f 32/64/69 64/98/69 66/100/69
f 36/70/69 38/72/69 2/4/69
f 30/60/69 62/96/69 64/98/69
f 40/74/69 42/76/69 6/12/69
f 10/20/69 8/16/69 44/78/69
f 28/56/69 60/94/69 62/96/69
f 12/24/69 10/20/69 46/80/69
f 44/78/69 8/16/69 42/76/69
f 14/28/69 12/24/69 48/82/69
f 24/48/69 56/90/69 58/92/69
f 16/32/69 14/28/69 50/84/69
f 18/36/69 16/32/69 52/86/69
f 20/40/69 52/86/69 54/88/69
f 66/100/69 34/68/69 32/64/69
f 18/36/69 52/86/69 20/40/69
f 52/86/69 16/32/69 50/84/69
f 20/40/69 54/88/69 22/44/69
f 22/44/69 54/88/69 56/90/69
f 50/84/69 14/28/69 48/82/69
f 22/44/69 56/90/69 24/48/69
f 6/12/69 42/76/69 8/16/69
f 24/48/69 58/92/69 26/52/69
f 46/80/69 10/20/69 44/78/69
f 26/52/69 60/94/69 28/56/69
f 48/82/69 12/24/69 46/80/69
f 28/56/69 62/96/69 30/60/69
f 4/8/69 40/74/69 6/12/69
f 30/60/69 64/98/69 32/64/69
f 68/102/69 34/68/69 66/100/69
f 2/4/69 38/72/69 4/8/69
f 65/99/70 31/62/70 33/66/70
f 38/72/69 40/74/69 4/8/69
f 31/62/70 65/99/70 63/97/70
f 35/69/70 1/2/70 37/71/70
f 3/6/70 5/10/70 39/73/70
f 39/73/70 5/10/70 41/75/70
f 9/18/70 43/77/70 7/14/70
f 27/54/70 61/95/70 59/93/70
f 11/22/70 45/79/70 9/18/70
f 45/79/70 43/77/70 9/18/70
f 25/50/70 59/93/70 57/91/70
f 13/26/70 47/81/70 11/22/70
f 15/30/70 49/83/70 13/26/70
f 21/42/70 55/89/70 53/87/70
f 51/85/70 49/83/70 15/30/70
f 17/34/70 51/85/70 15/30/70
f 19/38/70 53/87/70 51/85/70
f 17/34/70 19/38/70 51/85/70
f 1/2/70 3/6/70 37/71/70
f 19/38/70 21/42/70 53/87/70
f 49/83/70 47/81/70 13/26/70
f 21/42/70 23/46/70 55/89/70
f 47/81/70 45/79/70 11/22/70
f 23/46/70 25/50/70 57/91/70
f 25/50/70 27/54/70 59/93/70
f 43/77/70 41/75/70 7/14/70
f 23/46/70 57/91/70 55/89/70
f 27/54/70 29/58/70 61/95/70
f 29/58/70 63/97/70 61/95/70
f 5/10/70 7/14/70 41/75/70
f 29/58/70 31/62/70 63/97/70
f 68/102/71 67/101/71 34/68/71
f 67/101/70 65/99/70 33/66/70
f 67/101/71 33/66/71 34/68/71
f 36/70/71 2/4/71 35/69/71
f 35/69/71 2/4/71 1/2/71
f 37/71/70 3/6/70 39/73/70
