# Blender v3.1.2 OBJ File: 'half_torus_fat_lowpoly.blend'
# www.blender.org
mtllib half_torus_fat_lowpoly.mtl
o Torus.003
v 2.940000 0.000000 0.000000
v 2.860955 0.295000 0.000000
v 2.645000 0.510955 0.000000
v 2.350000 0.590000 0.000000
v 2.055000 0.510955 0.000000
v 1.839045 0.295000 0.000000
v 1.760000 0.000000 0.000000
v 1.839045 -0.295000 -0.000000
v 2.055000 -0.510955 -0.000000
v 2.350000 -0.590000 -0.000000
v 2.645000 -0.510955 -0.000000
v 2.860955 -0.295000 -0.000000
v -2.940000 0.000000 0.000000
v -2.860955 0.295000 0.000000
v -2.645000 0.510955 0.000000
v -2.350000 0.590000 0.000000
v -2.055000 0.510955 0.000000
v -1.839045 0.295000 0.000000
v -1.760000 0.000000 0.000000
v -1.839045 -0.295000 -0.000000
v -2.055000 -0.510955 -0.000000
v -2.350000 -0.590000 -0.000000
v -2.645000 -0.510955 -0.000000
v -2.860955 -0.295000 -0.000000
v -2.839822 -0.000000 0.760928
v -2.763470 0.295000 0.740469
v -2.554874 0.510955 0.684576
v -2.269926 0.590000 0.608224
v -1.984977 0.510955 0.531873
v -1.776381 0.295000 0.475980
v -1.700029 -0.000000 0.455521
v -1.776381 -0.295000 0.475980
v -1.984977 -0.510955 0.531873
v -2.269926 -0.590000 0.608224
v -2.554874 -0.510955 0.684576
v -2.763470 -0.295000 0.740469
v -2.546115 -0.000000 1.469999
v -2.477660 0.295000 1.430477
v -2.290637 0.510955 1.322500
v -2.035160 0.590000 1.174999
v -1.779682 0.510955 1.027500
v -1.592660 0.295000 0.919522
v -1.524205 -0.000000 0.880000
v -1.592660 -0.295000 0.919522
v -1.779682 -0.510955 1.027500
v -2.035160 -0.590000 1.174999
v -2.290637 -0.510955 1.322500
v -2.477660 -0.295000 1.430477
v -2.078894 -0.000000 2.078893
v -2.023001 0.295000 2.023000
v -1.870298 0.510955 1.870297
v -1.661701 0.590000 1.661700
v -1.453105 0.510955 1.453104
v -1.300402 0.295000 1.300401
v -1.244508 -0.000000 1.244508
v -1.300402 -0.295000 1.300401
v -1.453105 -0.510955 1.453104
v -1.661701 -0.590000 1.661700
v -1.870298 -0.510955 1.870297
v -2.023001 -0.295000 2.023000
v -1.469999 -0.000000 2.546115
v -1.430477 0.295000 2.477660
v -1.322500 0.510955 2.290637
v -1.175000 0.590000 2.035160
v -1.027500 0.510955 1.779682
v -0.919522 0.295000 1.592660
v -0.880000 -0.000000 1.524205
v -0.919522 -0.295000 1.592660
v -1.027500 -0.510955 1.779682
v -1.175000 -0.590000 2.035160
v -1.322500 -0.510955 2.290637
v -1.430477 -0.295000 2.477660
v -0.760929 -0.000000 2.839822
v -0.740471 0.295000 2.763470
v -0.684577 0.510955 2.554874
v -0.608226 0.590000 2.269925
v -0.531874 0.510955 1.984977
v -0.475980 0.295000 1.776381
v -0.455522 -0.000000 1.700029
v -0.475980 -0.295000 1.776381
v -0.531874 -0.510955 1.984977
v -0.608226 -0.590000 2.269925
v -0.684577 -0.510955 2.554874
v -0.740471 -0.295000 2.763470
v 0.000000 -0.000000 2.940000
v 0.000000 0.295000 2.860955
v 0.000000 0.510955 2.645000
v 0.000000 0.590000 2.350000
v 0.000000 0.510955 2.055000
v 0.000000 0.295000 1.839045
v 0.000000 -0.000000 1.760000
v 0.000000 -0.295000 1.839045
v 0.000000 -0.510955 2.055000
v 0.000000 -0.590000 2.350000
v 0.000000 -0.510955 2.645000
v 0.000000 -0.295000 2.860955
v 0.760927 -0.000000 2.839822
v 0.740468 0.295000 2.763470
v 0.684575 0.510955 2.554874
v 0.608224 0.590000 2.269926
v 0.531872 0.510955 1.984978
v 0.475979 0.295000 1.776381
v 0.455521 -0.000000 1.700030
v 0.475979 -0.295000 1.776381
v 0.531872 -0.510955 1.984978
v 0.608224 -0.590000 2.269926
v 0.684575 -0.510955 2.554874
v 0.740468 -0.295000 2.763470
v 1.470000 -0.000000 2.546115
v 1.430477 0.295000 2.477660
v 1.322500 0.510955 2.290637
v 1.175000 0.590000 2.035160
v 1.027500 0.510955 1.779682
v 0.919522 0.295000 1.592660
v 0.880000 -0.000000 1.524205
v 0.919522 -0.295000 1.592660
v 1.027500 -0.510955 1.779682
v 1.175000 -0.590000 2.035160
v 1.322500 -0.510955 2.290637
v 1.430477 -0.295000 2.477660
v 2.078893 -0.000000 2.078895
v 2.023000 0.295000 2.023002
v 1.870296 0.510955 1.870299
v 1.661700 0.590000 1.661702
v 1.453104 0.510955 1.453105
v 1.300400 0.295000 1.300402
v 1.244507 -0.000000 1.244509
v 1.300400 -0.295000 1.300402
v 1.453104 -0.510955 1.453105
v 1.661700 -0.590000 1.661702
v 1.870296 -0.510955 1.870299
v 2.023000 -0.295000 2.023002
v 2.546114 -0.000000 1.470000
v 2.477659 0.295000 1.430478
v 2.290637 0.510955 1.322500
v 2.035159 0.590000 1.175000
v 1.779682 0.510955 1.027500
v 1.592660 0.295000 0.919523
v 1.524205 -0.000000 0.880000
v 1.592660 -0.295000 0.919523
v 1.779682 -0.510955 1.027500
v 2.035159 -0.590000 1.175000
v 2.290637 -0.510955 1.322500
v 2.477659 -0.295000 1.430478
v 2.839822 -0.000000 0.760927
v 2.763470 0.295000 0.740469
v 2.554874 0.510955 0.684576
v 2.269926 0.590000 0.608224
v 1.984977 0.510955 0.531873
v 1.776381 0.295000 0.475979
v 1.700029 -0.000000 0.455521
v 1.776381 -0.295000 0.475979
v 1.984977 -0.510955 0.531873
v 2.269926 -0.590000 0.608224
v 2.554874 -0.510955 0.684576
v 2.763470 -0.295000 0.740469
vt 0.335744 0.337720
vt 0.216091 0.305659
vt 0.271622 0.098413
vt 0.423336 0.250128
vt 0.391275 0.130474
vt 0.184030 0.186006
vt 0.216091 0.130474
vt 0.184030 0.250128
vt 0.271622 0.337720
vt 0.391275 0.305659
vt 0.423336 0.186006
vt 0.335744 0.098413
vt 0.813665 0.182534
vt 0.781604 0.302188
vt 0.574358 0.246656
vt 0.726073 0.094942
vt 0.606419 0.127003
vt 0.661950 0.334249
vt 0.606419 0.302188
vt 0.726072 0.334249
vt 0.813665 0.246657
vt 0.781604 0.127003
vt 0.661950 0.094942
vt 0.574358 0.182534
vt 0.006149 0.611085
vt 0.108452 0.616192
vt 0.108408 0.653099
vt 0.006720 0.656992
vt 0.110590 0.691404
vt 0.014063 0.703027
vt 0.115358 0.731213
vt 0.026747 0.748372
vt 0.121673 0.774822
vt 0.042223 0.793174
vt 0.129874 0.820257
vt 0.057368 0.837661
vt 0.137975 0.866929
vt 0.069421 0.882482
vt 0.087337 0.356314
vt 0.152764 0.374665
vt 0.142274 0.419113
vt 0.073676 0.399368
vt 0.131675 0.462447
vt 0.057266 0.440621
vt 0.122966 0.503960
vt 0.040211 0.482100
vt 0.115679 0.542623
vt 0.024478 0.523414
vt 0.110838 0.579696
vt 0.012447 0.566339
vt 0.194262 0.619148
vt 0.194107 0.652359
vt 0.194827 0.687018
vt 0.196883 0.724498
vt 0.199460 0.765862
vt 0.204052 0.810916
vt 0.208414 0.858004
vt 0.219650 0.386903
vt 0.213177 0.431678
vt 0.206602 0.475155
vt 0.202002 0.515286
vt 0.197979 0.551888
vt 0.195467 0.586088
vt 0.273371 0.621064
vt 0.273239 0.652598
vt 0.273497 0.685121
vt 0.274162 0.721902
vt 0.275616 0.761088
vt 0.277702 0.806337
vt 0.280056 0.853307
vt 0.288001 0.394063
vt 0.284184 0.439300
vt 0.280655 0.483137
vt 0.277813 0.521533
vt 0.275420 0.556947
vt 0.274008 0.589654
vt 0.349283 0.622196
vt 0.349136 0.652524
vt 0.349164 0.684938
vt 0.349309 0.719836
vt 0.350046 0.759810
vt 0.350686 0.803419
vt 0.352196 0.850170
vt 0.357338 0.398261
vt 0.355061 0.443771
vt 0.353679 0.486645
vt 0.351678 0.525175
vt 0.350280 0.559806
vt 0.349537 0.591695
vt 0.423469 0.622761
vt 0.423333 0.653059
vt 0.423301 0.684821
vt 0.423421 0.718830
vt 0.423237 0.758039
vt 0.423221 0.801774
vt 0.423979 0.848487
vt 0.426981 0.400234
vt 0.426241 0.446171
vt 0.425664 0.488303
vt 0.424549 0.526748
vt 0.423780 0.560988
vt 0.423466 0.592822
vt 0.496907 0.623065
vt 0.496929 0.653142
vt 0.496727 0.684644
vt 0.496475 0.719806
vt 0.496214 0.757566
vt 0.495464 0.801114
vt 0.495301 0.847558
vt 0.497162 0.399475
vt 0.497742 0.445611
vt 0.497636 0.488673
vt 0.497249 0.527360
vt 0.496924 0.561860
vt 0.496847 0.592943
vt 0.570823 0.623632
vt 0.570589 0.653756
vt 0.570220 0.685380
vt 0.569401 0.719957
vt 0.568673 0.759328
vt 0.567314 0.802027
vt 0.566338 0.848005
vt 0.568412 0.397234
vt 0.569772 0.443955
vt 0.570310 0.487597
vt 0.570489 0.526792
vt 0.570538 0.561574
vt 0.570666 0.593311
vt 0.645556 0.623926
vt 0.645191 0.654819
vt 0.644436 0.686951
vt 0.643002 0.721927
vt 0.640935 0.761035
vt 0.638977 0.803567
vt 0.636576 0.849603
vt 0.640621 0.393969
vt 0.642664 0.441170
vt 0.643823 0.485119
vt 0.644927 0.525584
vt 0.645236 0.560908
vt 0.645452 0.593191
vt 0.722166 0.625057
vt 0.721534 0.656817
vt 0.720079 0.689874
vt 0.717612 0.725617
vt 0.714119 0.765124
vt 0.710762 0.808712
vt 0.706247 0.854419
vt 0.713418 0.389800
vt 0.716589 0.437521
vt 0.718761 0.482679
vt 0.721115 0.523326
vt 0.721842 0.559782
vt 0.722204 0.593196
vt 0.802610 0.626906
vt 0.801020 0.660450
vt 0.798519 0.695193
vt 0.794379 0.732430
vt 0.789083 0.772418
vt 0.782633 0.817221
vt 0.775425 0.862714
vt 0.786143 0.383327
vt 0.791429 0.431176
vt 0.796143 0.477913
vt 0.799793 0.519260
vt 0.801678 0.557605
vt 0.802612 0.593013
vt 0.889860 0.629546
vt 0.887400 0.666894
vt 0.882350 0.704712
vt 0.874770 0.744085
vt 0.865659 0.786241
vt 0.854620 0.830413
vt 0.843617 0.875691
vt 0.858275 0.373057
vt 0.867150 0.420821
vt 0.875995 0.467284
vt 0.882872 0.511558
vt 0.887544 0.552944
vt 0.889882 0.591967
vt 0.994535 0.635009
vt 0.987916 0.680808
vt 0.975401 0.724658
vt 0.959100 0.766769
vt 0.941460 0.808969
vt 0.924474 0.850967
vt 0.910270 0.894818
vt 0.928613 0.356314
vt 0.941473 0.402273
vt 0.957437 0.447910
vt 0.973577 0.493943
vt 0.986635 0.540697
vt 0.994080 0.587977
vn -0.6191 -0.3666 -0.6945
vn -0.6191 0.3666 -0.6945
vn 0.6903 0.3890 -0.6100
vn 0.0163 -0.7579 -0.6521
vn 0.6903 -0.3890 -0.6100
vn 0.0163 0.7579 -0.6521
vn 0.4015 0.6669 -0.6277
vn -0.3560 0.6445 -0.6766
vn -0.7131 -0.0000 -0.7010
vn -0.3560 -0.6445 -0.6766
vn 0.4015 -0.6669 -0.6277
vn 0.7973 -0.0000 -0.6036
vn 0.6191 0.3666 -0.6945
vn 0.6191 -0.3666 -0.6945
vn -0.6903 -0.3890 -0.6100
vn -0.0163 0.7579 -0.6521
vn -0.6903 0.3890 -0.6100
vn -0.0163 -0.7579 -0.6521
vn -0.4015 -0.6669 -0.6277
vn 0.3560 -0.6445 -0.6766
vn 0.7131 -0.0000 -0.7010
vn 0.3560 0.6445 -0.6766
vn -0.4015 0.6669 -0.6277
vn -0.7973 -0.0000 -0.6036
vn -0.9659 -0.0000 0.2588
vn -0.8415 0.4909 0.2255
vn -0.4982 0.8567 0.1335
vn -0.0208 0.9998 0.0056
vn 0.4670 0.8753 -0.1251
vn 0.8311 0.5096 -0.2227
vn 0.9659 -0.0000 -0.2588
vn 0.8311 -0.5095 -0.2227
vn 0.4670 -0.8753 -0.1251
vn -0.0208 -0.9998 0.0056
vn -0.4982 -0.8567 0.1335
vn -0.8415 -0.4909 0.2255
vn -0.8660 0.0000 0.5000
vn -0.7545 0.4909 0.4356
vn -0.4467 0.8567 0.2579
vn -0.0187 0.9998 0.0108
vn 0.4187 0.8753 -0.2417
vn 0.7452 0.5096 -0.4302
vn 0.8660 0.0000 -0.5000
vn 0.7452 -0.5095 -0.4302
vn 0.4187 -0.8753 -0.2417
vn -0.0187 -0.9998 0.0108
vn -0.4467 -0.8567 0.2579
vn -0.7545 -0.4909 0.4356
vn -0.7071 0.0000 0.7071
vn -0.6160 0.4909 0.6160
vn -0.3647 0.8567 0.3647
vn -0.0152 0.9998 0.0152
vn 0.3419 0.8753 -0.3419
vn 0.6084 0.5096 -0.6084
vn 0.7071 0.0000 -0.7071
vn 0.6084 -0.5096 -0.6084
vn 0.3419 -0.8753 -0.3419
vn -0.0152 -0.9998 0.0152
vn -0.3647 -0.8567 0.3647
vn -0.6160 -0.4909 0.6160
vn -0.5000 -0.0000 0.8660
vn -0.4356 0.4909 0.7545
vn -0.2579 0.8567 0.4467
vn -0.0108 0.9998 0.0187
vn 0.2417 0.8753 -0.4187
vn 0.4302 0.5096 -0.7452
vn 0.5000 -0.0000 -0.8660
vn 0.4302 -0.5095 -0.7452
vn 0.2417 -0.8753 -0.4187
vn -0.0108 -0.9998 0.0187
vn -0.2579 -0.8567 0.4467
vn -0.4356 -0.4909 0.7545
vn -0.2588 -0.0000 0.9659
vn -0.2255 0.4909 0.8415
vn -0.1335 0.8567 0.4982
vn -0.0056 0.9998 0.0208
vn 0.1251 0.8753 -0.4670
vn 0.2227 0.5096 -0.8311
vn 0.2588 -0.0000 -0.9659
vn 0.2227 -0.5096 -0.8311
vn 0.1251 -0.8753 -0.4670
vn -0.0056 -0.9998 0.0208
vn -0.1335 -0.8567 0.4982
vn -0.2255 -0.4909 0.8415
vn 0.0000 -0.0000 1.0000
vn 0.0000 0.4909 0.8712
vn 0.0000 0.8567 0.5158
vn 0.0000 0.9998 0.0216
vn 0.0000 0.8753 -0.4835
vn 0.0000 0.5096 -0.8604
vn 0.0000 0.0000 -1.0000
vn 0.0000 -0.5096 -0.8604
vn 0.0000 -0.8753 -0.4835
vn 0.0000 -0.9998 0.0216
vn 0.0000 -0.8567 0.5158
vn 0.0000 -0.4909 0.8712
vn 0.2588 -0.0000 0.9659
vn 0.2255 0.4909 0.8415
vn 0.1335 0.8567 0.4982
vn 0.0056 0.9998 0.0208
vn -0.1251 0.8753 -0.4670
vn -0.2227 0.5095 -0.8311
vn -0.2588 0.0000 -0.9659
vn -0.2227 -0.5095 -0.8311
vn -0.1251 -0.8753 -0.4670
vn 0.0056 -0.9998 0.0208
vn 0.1335 -0.8567 0.4982
vn 0.2255 -0.4909 0.8415
vn 0.5000 -0.0000 0.8660
vn 0.4356 0.4909 0.7545
vn 0.2579 0.8567 0.4467
vn 0.0108 0.9998 0.0187
vn -0.2417 0.8753 -0.4187
vn -0.4302 0.5096 -0.7452
vn -0.5000 0.0000 -0.8660
vn -0.4302 -0.5095 -0.7452
vn -0.2417 -0.8753 -0.4187
vn 0.0108 -0.9998 0.0187
vn 0.2579 -0.8567 0.4467
vn 0.4356 -0.4909 0.7545
vn 0.7071 -0.0000 0.7071
vn 0.6160 0.4909 0.6160
vn 0.3647 0.8567 0.3647
vn 0.0152 0.9998 0.0152
vn -0.3419 0.8753 -0.3419
vn -0.6084 0.5096 -0.6084
vn -0.7071 0.0000 -0.7071
vn -0.6084 -0.5095 -0.6084
vn -0.3419 -0.8753 -0.3419
vn 0.0152 -0.9998 0.0152
vn 0.3647 -0.8567 0.3647
vn 0.6160 -0.4909 0.6160
vn 0.8660 0.0000 0.5000
vn 0.7545 0.4909 0.4356
vn 0.4467 0.8567 0.2579
vn 0.0187 0.9998 0.0108
vn -0.4187 0.8753 -0.2417
vn -0.7452 0.5096 -0.4302
vn -0.8660 0.0000 -0.5000
vn -0.7452 -0.5096 -0.4302
vn -0.4187 -0.8753 -0.2417
vn 0.0187 -0.9998 0.0108
vn 0.4467 -0.8567 0.2579
vn 0.7545 -0.4909 0.4356
vn 0.9659 -0.0000 0.2588
vn 0.8415 0.4909 0.2255
vn 0.4982 0.8567 0.1335
vn 0.0208 0.9998 0.0056
vn -0.4670 0.8753 -0.1251
vn -0.8311 0.5096 -0.2227
vn -0.9659 -0.0000 -0.2588
vn -0.8311 -0.5095 -0.2227
vn -0.4670 -0.8753 -0.1251
vn 0.0208 -0.9998 0.0056
vn 0.4982 -0.8567 0.1335
vn 0.8415 -0.4909 0.2255
usemtl None
s 1
f 8/1/1 6/2/2 2/3/3
f 10/4/4 8/1/1 2/3/3
f 2/3/3 12/5/5 10/4/4
f 4/6/6 3/7/7 2/3/3
f 6/2/2 5/8/8 4/6/6
f 8/1/1 7/9/9 6/2/2
f 10/4/4 9/10/10 8/1/1
f 12/5/5 11/11/11 10/4/4
f 2/3/3 1/12/12 12/5/5
f 18/13/13 20/14/14 24/15/15
f 16/16/16 18/13/13 24/15/15
f 24/15/15 14/17/17 16/16/16
f 22/18/18 23/19/19 24/15/15
f 20/14/14 21/20/20 22/18/18
f 18/13/13 19/21/21 20/14/14
f 16/16/16 17/22/22 18/13/13
f 14/17/17 15/23/23 16/16/16
f 24/15/15 13/24/24 14/17/17
f 20/14/14 22/18/18 24/15/15
f 6/2/2 4/6/6 2/3/3
f 13/25/24 25/26/25 26/27/26 14/28/17
f 14/28/17 26/27/26 27/29/27 15/30/23
f 15/30/23 27/29/27 28/31/28 16/32/16
f 16/32/16 28/31/28 29/33/29 17/34/22
f 17/34/22 29/33/29 30/35/30 18/36/13
f 18/36/13 30/35/30 31/37/31 19/38/21
f 19/39/21 31/40/31 32/41/32 20/42/14
f 20/42/14 32/41/32 33/43/33 21/44/20
f 21/44/20 33/43/33 34/45/34 22/46/18
f 22/46/18 34/45/34 35/47/35 23/48/19
f 23/48/19 35/47/35 36/49/36 24/50/15
f 24/50/15 36/49/36 25/26/25 13/25/24
f 25/26/25 37/51/37 38/52/38 26/27/26
f 26/27/26 38/52/38 39/53/39 27/29/27
f 27/29/27 39/53/39 40/54/40 28/31/28
f 28/31/28 40/54/40 41/55/41 29/33/29
f 29/33/29 41/55/41 42/56/42 30/35/30
f 30/35/30 42/56/42 43/57/43 31/37/31
f 31/40/31 43/58/43 44/59/44 32/41/32
f 32/41/32 44/59/44 45/60/45 33/43/33
f 33/43/33 45/60/45 46/61/46 34/45/34
f 34/45/34 46/61/46 47/62/47 35/47/35
f 35/47/35 47/62/47 48/63/48 36/49/36
f 36/49/36 48/63/48 37/51/37 25/26/25
f 37/51/37 49/64/49 50/65/50 38/52/38
f 38/52/38 50/65/50 51/66/51 39/53/39
f 39/53/39 51/66/51 52/67/52 40/54/40
f 40/54/40 52/67/52 53/68/53 41/55/41
f 41/55/41 53/68/53 54/69/54 42/56/42
f 42/56/42 54/69/54 55/70/55 43/57/43
f 43/58/43 55/71/55 56/72/56 44/59/44
f 44/59/44 56/72/56 57/73/57 45/60/45
f 45/60/45 57/73/57 58/74/58 46/61/46
f 46/61/46 58/74/58 59/75/59 47/62/47
f 47/62/47 59/75/59 60/76/60 48/63/48
f 48/63/48 60/76/60 49/64/49 37/51/37
f 49/64/49 61/77/61 62/78/62 50/65/50
f 50/65/50 62/78/62 63/79/63 51/66/51
f 51/66/51 63/79/63 64/80/64 52/67/52
f 52/67/52 64/80/64 65/81/65 53/68/53
f 53/68/53 65/81/65 66/82/66 54/69/54
f 54/69/54 66/82/66 67/83/67 55/70/55
f 55/71/55 67/84/67 68/85/68 56/72/56
f 56/72/56 68/85/68 69/86/69 57/73/57
f 57/73/57 69/86/69 70/87/70 58/74/58
f 58/74/58 70/87/70 71/88/71 59/75/59
f 59/75/59 71/88/71 72/89/72 60/76/60
f 60/76/60 72/89/72 61/77/61 49/64/49
f 61/77/61 73/90/73 74/91/74 62/78/62
f 62/78/62 74/91/74 75/92/75 63/79/63
f 63/79/63 75/92/75 76/93/76 64/80/64
f 64/80/64 76/93/76 77/94/77 65/81/65
f 65/81/65 77/94/77 78/95/78 66/82/66
f 66/82/66 78/95/78 79/96/79 67/83/67
f 67/84/67 79/97/79 80/98/80 68/85/68
f 68/85/68 80/98/80 81/99/81 69/86/69
f 69/86/69 81/99/81 82/100/82 70/87/70
f 70/87/70 82/100/82 83/101/83 71/88/71
f 71/88/71 83/101/83 84/102/84 72/89/72
f 72/89/72 84/102/84 73/90/73 61/77/61
f 73/90/73 85/103/85 86/104/86 74/91/74
f 74/91/74 86/104/86 87/105/87 75/92/75
f 75/92/75 87/105/87 88/106/88 76/93/76
f 76/93/76 88/106/88 89/107/89 77/94/77
f 77/94/77 89/107/89 90/108/90 78/95/78
f 78/95/78 90/108/90 91/109/91 79/96/79
f 79/97/79 91/110/91 92/111/92 80/98/80
f 80/98/80 92/111/92 93/112/93 81/99/81
f 81/99/81 93/112/93 94/113/94 82/100/82
f 82/100/82 94/113/94 95/114/95 83/101/83
f 83/101/83 95/114/95 96/115/96 84/102/84
f 84/102/84 96/115/96 85/103/85 73/90/73
f 85/103/85 97/116/97 98/117/98 86/104/86
f 86/104/86 98/117/98 99/118/99 87/105/87
f 87/105/87 99/118/99 100/119/100 88/106/88
f 88/106/88 100/119/100 101/120/101 89/107/89
f 89/107/89 101/120/101 102/121/102 90/108/90
f 90/108/90 102/121/102 103/122/103 91/109/91
f 91/110/91 103/123/103 104/124/104 92/111/92
f 92/111/92 104/124/104 105/125/105 93/112/93
f 93/112/93 105/125/105 106/126/106 94/113/94
f 94/113/94 106/126/106 107/127/107 95/114/95
f 95/114/95 107/127/107 108/128/108 96/115/96
f 96/115/96 108/128/108 97/116/97 85/103/85
f 97/116/97 109/129/109 110/130/110 98/117/98
f 98/117/98 110/130/110 111/131/111 99/118/99
f 99/118/99 111/131/111 112/132/112 100/119/100
f 100/119/100 112/132/112 113/133/113 101/120/101
f 101/120/101 113/133/113 114/134/114 102/121/102
f 102/121/102 114/134/114 115/135/115 103/122/103
f 103/123/103 115/136/115 116/137/116 104/124/104
f 104/124/104 116/137/116 117/138/117 105/125/105
f 105/125/105 117/138/117 118/139/118 106/126/106
f 106/126/106 118/139/118 119/140/119 107/127/107
f 107/127/107 119/140/119 120/141/120 108/128/108
f 108/128/108 120/141/120 109/129/109 97/116/97
f 109/129/109 121/142/121 122/143/122 110/130/110
f 110/130/110 122/143/122 123/144/123 111/131/111
f 111/131/111 123/144/123 124/145/124 112/132/112
f 112/132/112 124/145/124 125/146/125 113/133/113
f 113/133/113 125/146/125 126/147/126 114/134/114
f 114/134/114 126/147/126 127/148/127 115/135/115
f 115/136/115 127/149/127 128/150/128 116/137/116
f 116/137/116 128/150/128 129/151/129 117/138/117
f 117/138/117 129/151/129 130/152/130 118/139/118
f 118/139/118 130/152/130 131/153/131 119/140/119
f 119/140/119 131/153/131 132/154/132 120/141/120
f 120/141/120 132/154/132 121/142/121 109/129/109
f 121/142/121 133/155/133 134/156/134 122/143/122
f 122/143/122 134/156/134 135/157/135 123/144/123
f 123/144/123 135/157/135 136/158/136 124/145/124
f 124/145/124 136/158/136 137/159/137 125/146/125
f 125/146/125 137/159/137 138/160/138 126/147/126
f 126/147/126 138/160/138 139/161/139 127/148/127
f 127/149/127 139/162/139 140/163/140 128/150/128
f 128/150/128 140/163/140 141/164/141 129/151/129
f 129/151/129 141/164/141 142/165/142 130/152/130
f 130/152/130 142/165/142 143/166/143 131/153/131
f 131/153/131 143/166/143 144/167/144 132/154/132
f 132/154/132 144/167/144 133/155/133 121/142/121
f 133/155/133 145/168/145 146/169/146 134/156/134
f 134/156/134 146/169/146 147/170/147 135/157/135
f 135/157/135 147/170/147 148/171/148 136/158/136
f 136/158/136 148/171/148 149/172/149 137/159/137
f 137/159/137 149/172/149 150/173/150 138/160/138
f 138/160/138 150/173/150 151/174/151 139/161/139
f 139/162/139 151/175/151 152/176/152 140/163/140
f 140/163/140 152/176/152 153/177/153 141/164/141
f 141/164/141 153/177/153 154/178/154 142/165/142
f 142/165/142 154/178/154 155/179/155 143/166/143
f 143/166/143 155/179/155 156/180/156 144/167/144
f 144/167/144 156/180/156 145/168/145 133/155/133
f 145/168/145 1/181/12 2/182/3 146/169/146
f 146/169/146 2/182/3 3/183/7 147/170/147
f 147/170/147 3/183/7 4/184/6 148/171/148
f 148/171/148 4/184/6 5/185/8 149/172/149
f 149/172/149 5/185/8 6/186/2 150/173/150
f 150/173/150 6/186/2 7/187/9 151/174/151
f 151/175/151 7/188/9 8/189/1 152/176/152
f 152/176/152 8/189/1 9/190/10 153/177/153
f 153/177/153 9/190/10 10/191/4 154/178/154
f 154/178/154 10/191/4 11/192/11 155/179/155
f 155/179/155 11/192/11 12/193/5 156/180/156
f 156/180/156 12/193/5 1/181/12 145/168/145
