# Blender 3.5.1
# www.blender.org
mtllib half_cone_short.mtl
o Cylinder_Cylinder.003
v 0.000615 0.000000 0.000000
v 0.000615 -0.000000 -1.000000
v 0.000615 0.000000 1.000000
v -0.195091 0.000000 0.980785
v -0.382684 0.000000 0.923879
v -0.555571 0.000000 0.831469
v -0.707107 0.000000 0.707106
v -0.831470 0.000000 0.555570
v -0.923880 0.000000 0.382683
v -0.980785 0.000000 0.195089
v -1.000000 -0.000000 -0.000001
v -0.980785 -0.000000 -0.195091
v -0.923879 -0.000000 -0.382684
v -0.831469 -0.000000 -0.555571
v -0.707106 -0.000000 -0.707108
v -0.555569 -0.000000 -0.831470
v -0.382682 -0.000000 -0.923880
v -0.195089 -0.000000 -0.980786
v 0.000000 0.334906 -0.000000
v 0.000615 0.334906 -0.006956
v 0.000000 0.334906 -0.007093
v 0.000615 0.334906 0.006956
v 0.000000 0.334906 0.007092
v -0.001384 0.334906 0.006956
v -0.002714 0.334906 0.006552
v -0.003940 0.334906 0.005897
v -0.005015 0.334906 0.005015
v -0.005897 0.334906 0.003940
v -0.006552 0.334906 0.002714
v -0.006956 0.334906 0.001383
v -0.007092 0.334906 -0.000000
v -0.006956 0.334906 -0.001384
v -0.006552 0.334906 -0.002714
v -0.005897 0.334906 -0.003941
v -0.005015 0.334906 -0.005015
v -0.003940 0.334906 -0.005897
v -0.002714 0.334906 -0.006553
v -0.001384 0.334906 -0.006956
v 0.000615 -0.000000 -1.000000
v 0.000000 0.334906 -0.007093
v 0.000615 0.334906 -0.006956
v 0.000615 0.334906 0.006956
v 0.000000 0.334906 0.007092
v 0.000615 0.000000 1.000000
v -0.001384 0.334906 0.006956
v -0.195091 0.000000 0.980785
v -0.002714 0.334906 0.006552
v -0.382684 0.000000 0.923879
v -0.003940 0.334906 0.005897
v -0.005015 0.334906 0.005015
v -0.707107 0.000000 0.707106
v -0.005897 0.334906 0.003940
v -0.831470 0.000000 0.555570
v -0.006552 0.334906 0.002714
v -0.923880 0.000000 0.382683
v -0.006956 0.334906 0.001383
v -0.007092 0.334906 -0.000000
v -1.000000 -0.000000 -0.000001
v -0.006956 0.334906 -0.001384
v -0.980785 -0.000000 -0.195091
v -0.006552 0.334906 -0.002714
v -0.923879 -0.000000 -0.382684
v -0.005897 0.334906 -0.003941
v -0.831469 -0.000000 -0.555571
v -0.005015 0.334906 -0.005015
v -0.003940 0.334906 -0.005897
v -0.555569 -0.000000 -0.831470
v -0.002714 0.334906 -0.006553
v -0.382682 -0.000000 -0.923880
v -0.001384 0.334906 -0.006956
v -0.195089 -0.000000 -0.980786
v -0.555571 0.000000 0.831469
v -0.980785 0.000000 0.195089
v -0.707106 -0.000000 -0.707108
vn -0.0000 -1.0000 -0.0000
vn -0.0000 1.0000 -0.0000
vn 0.2272 0.9214 -0.3153
vn 0.0212 0.9473 -0.3195
vn 0.7674 0.6221 -0.1551
vn 0.7667 0.6232 0.1546
vn 0.0211 0.9473 0.3195
vn 0.2272 0.9214 0.3153
vn -0.0624 0.9475 0.3135
vn -0.0623 0.9476 0.3135
vn -0.1223 0.9475 0.2953
vn -0.1223 0.9476 0.2953
vn -0.1775 0.9476 0.2658
vn -0.2260 0.9476 0.2260
vn -0.2658 0.9475 0.1775
vn -0.2657 0.9476 0.1776
vn -0.2953 0.9475 0.1223
vn -0.2953 0.9476 0.1223
vn -0.3135 0.9476 0.0623
vn -0.3196 0.9475 -0.0000
vn -0.3196 0.9476 -0.0000
vn -0.3135 0.9476 -0.0624
vn -0.2953 0.9475 -0.1223
vn -0.2953 0.9476 -0.1223
vn -0.2657 0.9476 -0.1775
vn -0.2657 0.9476 -0.1776
vn -0.2260 0.9475 -0.2260
vn -0.1773 0.9476 -0.2659
vn -0.1776 0.9476 -0.2657
vn -0.1223 0.9476 -0.2953
vn -0.0624 0.9475 -0.3135
vn -0.0623 0.9476 -0.3135
vn -0.1776 0.9476 0.2657
vn -0.3135 0.9476 0.0624
vn -0.2260 0.9476 -0.2260
vn 1.0000 -0.0000 -0.0000
vt 0.357997 0.415234
vt 0.642361 0.003892
vt 0.712470 0.415234
vt 0.003524 0.415234
vt 0.010335 0.345861
vt 0.030507 0.279364
vt 0.063264 0.218081
vt 0.107347 0.164365
vt 0.161063 0.120282
vt 0.222346 0.087525
vt 0.288844 0.067354
vt 0.357998 0.060542
vt 0.427152 0.067354
vt 0.493648 0.087525
vt 0.554932 0.120282
vt 0.608648 0.164365
vt 0.652731 0.218081
vt 0.685488 0.279365
vt 0.705660 0.345862
vt 0.103549 0.511211
vt 0.103761 0.513605
vt 0.103549 0.513652
vt 0.103761 0.508818
vt 0.103549 0.508771
vt 0.103073 0.508818
vt 0.102616 0.508957
vt 0.102194 0.509182
vt 0.101824 0.509486
vt 0.101520 0.509856
vt 0.101295 0.510278
vt 0.101156 0.510736
vt 0.101109 0.511211
vt 0.101156 0.511688
vt 0.101295 0.512145
vt 0.101520 0.512568
vt 0.101824 0.512937
vt 0.102194 0.513241
vt 0.102616 0.513466
vt 0.103073 0.513605
vt 0.425192 0.460155
vt 0.996834 0.003892
vt 0.696840 0.784321
vt 0.696604 0.784611
vt 0.644826 0.122607
vt 0.270506 0.998730
vt 0.639895 0.122607
vt 0.270249 0.998465
vt 0.541898 0.674300
vt 0.287888 0.003892
vt 0.269883 0.998208
vt 0.482224 0.674300
vt 0.269478 0.998016
vt 0.416467 0.674300
vt 0.269047 0.997896
vt 0.268601 0.997852
vt 0.273989 0.674300
vt 0.268154 0.997884
vt 0.201427 0.674300
vt 0.267720 0.997991
vt 0.130808 0.674300
vt 0.267310 0.998171
vt 0.266936 0.998418
vt 0.700153 0.784274
vt 0.003528 0.674300
vt 0.963561 0.460155
vt 0.699779 0.784027
vt 0.902896 0.460155
vt 0.699369 0.783847
vt 0.836281 0.460155
vt 0.698934 0.783739
vt 0.765661 0.460155
vt 0.698488 0.783707
vt 0.698042 0.783752
vt 0.620715 0.460155
vt 0.697611 0.783872
vt 0.550622 0.460155
vt 0.697206 0.784063
vt 0.484865 0.460155
vt 0.346373 0.674300
vt 0.064193 0.674300
vt 0.693100 0.460155
s 1
usemtl None
f 1/1/1 3/4/1 4/5/1
f 1/1/1 4/5/1 5/6/1
f 1/1/1 5/6/1 6/7/1
f 1/1/1 6/7/1 7/8/1
f 1/1/1 7/8/1 8/9/1
f 1/1/1 8/9/1 9/10/1
f 1/1/1 9/10/1 10/11/1
f 1/1/1 10/11/1 11/12/1
f 1/1/1 11/12/1 12/13/1
f 1/1/1 12/13/1 13/14/1
f 1/1/1 13/14/1 14/15/1
f 1/1/1 14/15/1 15/16/1
f 1/1/1 15/16/1 16/17/1
f 1/1/1 16/17/1 17/18/1
f 1/1/1 17/18/1 18/19/1
f 1/1/1 18/19/1 2/3/1
f 19/20/2 20/21/2 21/22/2
f 20/21/2 19/20/2 22/23/2
f 19/20/2 23/24/2 22/23/2
f 19/20/2 24/25/2 23/24/2
f 19/20/2 25/26/2 24/25/2
f 19/20/2 26/27/2 25/26/2
f 19/20/2 27/28/2 26/27/2
f 19/20/2 28/29/2 27/28/2
f 19/20/2 29/30/2 28/29/2
f 19/20/2 30/31/2 29/30/2
f 19/20/2 31/32/2 30/31/2
f 19/20/2 32/33/2 31/32/2
f 19/20/2 33/34/2 32/33/2
f 19/20/2 34/35/2 33/34/2
f 19/20/2 35/36/2 34/35/2
f 19/20/2 36/37/2 35/36/2
f 19/20/2 37/38/2 36/37/2
f 19/20/2 38/39/2 37/38/2
f 19/20/2 21/22/2 38/39/2
f 39/40/3 40/42/4 41/43/5
f 42/45/6 43/47/7 44/48/8
f 43/47/7 45/50/9 46/51/10
f 46/51/10 45/50/9 47/52/11
f 48/53/12 47/52/11 49/54/13
f 49/54/13 50/55/14 51/56/14
f 50/55/14 52/57/15 53/58/16
f 53/58/16 52/57/15 54/59/17
f 55/60/18 54/59/17 56/61/19
f 56/61/19 57/62/20 58/64/21
f 57/63/20 59/66/22 60/67/22
f 59/66/22 61/68/23 62/69/24
f 62/69/24 61/68/23 63/70/25
f 64/71/26 63/70/25 65/72/27
f 65/72/27 66/73/28 67/74/29
f 66/73/28 68/75/30 69/76/30
f 68/75/30 70/77/31 71/78/32
f 71/78/32 70/77/31 40/42/4
f 44/48/8 43/47/7 46/51/10
f 48/53/12 46/51/10 47/52/11
f 72/79/33 48/53/12 49/54/13
f 72/79/33 49/54/13 51/56/14
f 51/56/14 50/55/14 53/58/16
f 55/60/18 53/58/16 54/59/17
f 73/80/34 55/60/18 56/61/19
f 73/80/34 56/61/19 58/64/21
f 58/65/21 57/63/20 60/67/22
f 60/67/22 59/66/22 62/69/24
f 64/71/26 62/69/24 63/70/25
f 74/81/35 64/71/26 65/72/27
f 74/81/35 65/72/27 67/74/29
f 67/74/29 66/73/28 69/76/30
f 69/76/30 68/75/30 71/78/32
f 39/40/3 71/78/32 40/42/4
f 39/41/3 41/44/5 1/2/36
f 44/49/8 1/2/36 42/46/6
f 1/2/36 41/44/5 42/46/6
