# Blender 3.5.1
# www.blender.org
mtllib half_tapered_rectangle.mtl
o Cube
v -0.565712 3.434438 0.565712
v -0.565712 3.434438 -0.565712
v -0.619483 3.388603 0.619483
v -0.619483 3.388603 -0.619483
v -1.954604 0.050630 -1.979931
v -1.954604 0.050630 1.979931
v 0.000000 3.388603 -0.619483
v 0.000000 3.388603 0.619483
v -0.045584 0.050630 -1.979931
v -0.045584 0.050630 1.979931
v -0.064591 3.434438 -0.565712
v -0.064591 3.434438 0.565712
v -2.000188 0.096097 -2.000188
v -2.000188 0.096097 2.000188
v 0.000000 0.096097 -2.000188
v 0.000000 0.096097 2.000188
vn -0.9222 0.3867 -0.0000
vn -0.0000 1.0000 -0.0000
vn -0.6487 0.7610 -0.0000
vn -0.0000 0.7610 -0.6487
vn -0.0000 0.7610 0.6487
vn -0.0000 -1.0000 -0.0000
vn -0.0000 0.3867 -0.9222
vn 1.0000 -0.0000 -0.0000
vn 0.5787 0.8155 -0.0000
vn -0.0000 0.3867 0.9222
vn -0.7062 -0.7080 -0.0000
vn 0.7062 -0.7080 -0.0000
vn -0.0000 -0.4070 -0.9134
vn -0.0000 -0.4070 0.9134
vt 0.674640 0.986469
vt 0.814309 0.987172
vt 0.333165 0.605701
vt 0.665366 0.995730
vt 0.647478 0.456034
vt 0.176483 0.605701
vt 0.823667 0.996112
vt 0.823505 0.456324
vt 0.526390 0.674170
vt 0.032681 0.673764
vt 0.745166 0.456803
vt 0.822087 0.890550
vt 0.823950 0.913201
vt 0.665405 0.890550
vt 0.663724 0.913201
vt 0.725819 0.456034
vt 0.530743 0.917871
vt 0.037034 0.917466
vt 0.814815 0.923607
vt 0.672918 0.923224
vt 0.001877 0.154197
vt 0.995350 0.003761
vt 0.532676 0.665422
vt 0.507771 0.154197
vt 0.472871 0.004530
vt 0.025745 0.665422
vt 0.742407 0.005307
vt 0.996693 0.474174
vt 0.537679 0.926214
vt 0.490799 0.474174
vt 0.725819 0.004530
vt 0.030748 0.926214
s 0
f 3/3/1 13/21/1 14/24/1
f 1/1/2 11/19/2 2/2/2
f 2/2/3 3/4/3 1/1/3
f 4/7/4 2/2/4 11/19/4
f 12/20/5 1/1/5 3/4/5
f 10/18/6 6/10/6 5/9/6
f 3/3/1 4/6/1 13/21/1
f 12/20/2 11/19/2 1/1/2
f 2/2/3 4/7/3 3/4/3
f 7/13/4 4/7/4 11/19/4
f 8/15/5 12/20/5 3/4/5
f 10/18/6 5/9/6 9/17/6
f 4/8/7 15/27/7 13/22/7
f 4/8/7 7/11/7 15/27/7
f 8/14/8 16/30/8 15/28/8
f 8/14/8 15/28/8 7/12/8
f 12/20/9 8/15/9 7/13/9
f 12/20/9 7/13/9 11/19/9
f 8/16/10 3/5/10 16/31/10
f 3/5/10 14/25/10 16/31/10
f 6/10/11 13/23/11 5/9/11
f 9/17/12 16/32/12 10/18/12
f 5/9/13 15/29/13 9/17/13
f 10/18/14 14/26/14 6/10/14
f 6/10/11 14/26/11 13/23/11
f 9/17/12 15/29/12 16/32/12
f 5/9/13 13/23/13 15/29/13
f 10/18/14 16/32/14 14/26/14
