# Blender v2.80 (sub 75) OBJ File: 'torus_lowpoly.blend'
# www.blender.org
mtllib half_torus_lowpoly.mtl
o Torus.004
v 5.079378 0.000000 -2.043123
v 5.015154 0.239689 -2.043123
v 4.839689 0.415154 -2.043123
v 4.600000 0.479378 -2.043123
v 4.360311 0.415154 -2.043123
v 4.184846 0.239689 -2.043123
v 4.120622 0.000000 -2.043123
v 4.184846 -0.239689 -2.043123
v 4.360311 -0.415154 -2.043123
v 4.600000 -0.479378 -2.043123
v 4.839689 -0.415154 -2.043123
v 5.015154 -0.239689 -2.043123
v -5.079378 0.000000 -2.043124
v -5.015154 0.239689 -2.043124
v -4.839689 0.415154 -2.043124
v -4.600000 0.479378 -2.043124
v -4.360311 0.415154 -2.043124
v -4.184846 0.239689 -2.043124
v -4.120622 0.000000 -2.043124
v -4.184846 -0.239689 -2.043124
v -4.360311 -0.415154 -2.043124
v -4.600000 -0.479378 -2.043124
v -4.839689 -0.415154 -2.043124
v -5.015154 -0.239689 -2.043124
v -4.962927 0.000000 -0.643312
v -4.893305 0.269000 -0.661967
v -4.703093 0.465922 -0.712934
v -4.443259 0.538000 -0.782557
v -4.183425 0.465922 -0.852179
v -3.993213 0.269000 -0.903146
v -3.923591 0.000000 -0.921801
v -3.993213 -0.269000 -0.903146
v -4.183425 -0.465922 -0.852179
v -4.443259 -0.538000 -0.782557
v -4.703093 -0.465922 -0.712934
v -4.893305 -0.269000 -0.661967
v -4.449639 0.000000 0.595876
v -4.387218 0.269000 0.559836
v -4.216678 0.465922 0.461375
v -3.983717 0.538000 0.326876
v -3.750756 0.465922 0.192376
v -3.580217 0.269000 0.093915
v -3.517795 0.000000 0.057876
v -3.580217 -0.269000 0.093915
v -3.750756 -0.465922 0.192376
v -3.983717 -0.538000 0.326876
v -4.216678 -0.465922 0.461375
v -4.387218 -0.269000 0.559836
v -3.633116 0.000000 1.659990
v -3.582149 0.269000 1.609023
v -3.442904 0.465922 1.469778
v -3.252692 0.538000 1.279567
v -3.062480 0.465922 1.089355
v -2.923235 0.269000 0.950110
v -2.872268 0.000000 0.899143
v -2.923235 -0.269000 0.950110
v -3.062480 -0.465922 1.089355
v -3.252692 -0.538000 1.279567
v -3.442904 -0.465922 1.469778
v -3.582149 -0.269000 1.609023
v -2.568999 0.000000 2.476515
v -2.532960 0.269000 2.414094
v -2.434499 0.465922 2.243555
v -2.299999 0.538000 2.010594
v -2.165499 0.465922 1.777633
v -2.067038 0.269000 1.607094
v -2.030999 0.000000 1.544672
v -2.067038 -0.269000 1.607094
v -2.165499 -0.465922 1.777633
v -2.299999 -0.538000 2.010594
v -2.434499 -0.465922 2.243555
v -2.532960 -0.269000 2.414094
v -1.329814 0.000000 2.989803
v -1.311159 0.269000 2.920181
v -1.260192 0.465922 2.729969
v -1.190569 0.538000 2.470135
v -1.120947 0.465922 2.210301
v -1.069979 0.269000 2.020089
v -1.051324 0.000000 1.950467
v -1.069979 -0.269000 2.020089
v -1.120947 -0.465922 2.210301
v -1.190569 -0.538000 2.470135
v -1.260192 -0.465922 2.729969
v -1.311159 -0.269000 2.920181
v 0.000000 0.000000 3.164876
v 0.000000 0.269000 3.092798
v 0.000000 0.465922 2.895876
v 0.000000 0.538000 2.626876
v 0.000000 0.465922 2.357876
v 0.000000 0.269000 2.160954
v 0.000000 0.000000 2.088876
v 0.000000 -0.269000 2.160954
v 0.000000 -0.465922 2.357876
v 0.000000 -0.538000 2.626876
v 0.000000 -0.465922 2.895876
v 0.000000 -0.269000 3.092798
v 1.329810 0.000000 2.989804
v 1.311155 0.269000 2.920182
v 1.260188 0.465922 2.729970
v 1.190565 0.538000 2.470136
v 1.120943 0.465922 2.210301
v 1.069976 0.269000 2.020090
v 1.051321 0.000000 1.950467
v 1.069976 -0.269000 2.020090
v 1.120943 -0.465922 2.210301
v 1.190565 -0.538000 2.470136
v 1.260188 -0.465922 2.729970
v 1.311155 -0.269000 2.920182
v 2.569000 0.000000 2.476515
v 2.532961 0.269000 2.414093
v 2.434500 0.465922 2.243554
v 2.300000 0.538000 2.010593
v 2.165500 0.465922 1.777632
v 2.067039 0.269000 1.607093
v 2.031000 0.000000 1.544672
v 2.067039 -0.269000 1.607093
v 2.165500 -0.465922 1.777632
v 2.300000 -0.538000 2.010593
v 2.434500 -0.465922 2.243554
v 2.532961 -0.269000 2.414093
v 3.633113 0.000000 1.659993
v 3.582146 0.269000 1.609026
v 3.442901 0.465922 1.469781
v 3.252689 0.538000 1.279569
v 3.062478 0.465922 1.089358
v 2.923233 0.269000 0.950113
v 2.872266 0.000000 0.899146
v 2.923233 -0.269000 0.950113
v 3.062478 -0.465922 1.089358
v 3.252689 -0.538000 1.279569
v 3.442901 -0.465922 1.469781
v 3.582146 -0.269000 1.609026
v 4.449638 0.000000 0.595877
v 4.387217 0.269000 0.559838
v 4.216677 0.465922 0.461377
v 3.983716 0.538000 0.326877
v 3.750756 0.465922 0.192377
v 3.580216 0.269000 0.093916
v 3.517795 0.000000 0.057877
v 3.580216 -0.269000 0.093916
v 3.750756 -0.465922 0.192377
v 3.983716 -0.538000 0.326877
v 4.216677 -0.465922 0.461377
v 4.387217 -0.269000 0.559838
v 4.962927 0.000000 -0.643313
v 4.893305 0.269000 -0.661968
v 4.703093 0.465922 -0.712935
v 4.443259 0.538000 -0.782557
v 4.183425 0.465922 -0.852180
v 3.993213 0.269000 -0.903147
v 3.923591 0.000000 -0.921802
v 3.993213 -0.269000 -0.903147
v 4.183425 -0.465922 -0.852180
v 4.443259 -0.538000 -0.782557
v 4.703093 -0.465922 -0.712935
v 4.893305 -0.269000 -0.661968
v 5.138000 0.000000 -1.973124
v 5.065922 0.269000 -1.973124
v 4.869000 0.465922 -1.973124
v 4.600000 0.538000 -1.973124
v 4.331000 0.465922 -1.973124
v 4.134078 0.269000 -1.973124
v 4.062000 0.000000 -1.973124
v 4.134078 -0.269000 -1.973124
v 4.331000 -0.465922 -1.973124
v 4.600000 -0.538000 -1.973124
v 4.869000 -0.465922 -1.973124
v 5.065922 -0.269000 -1.973124
v -5.138000 0.000000 -1.973124
v -5.065922 0.269000 -1.973124
v -4.869000 0.465922 -1.973124
v -4.600000 0.538000 -1.973124
v -4.331000 0.465922 -1.973124
v -4.134078 0.269000 -1.973124
v -4.062000 0.000000 -1.973124
v -4.134078 -0.269000 -1.973124
v -4.331000 -0.465922 -1.973124
v -4.600000 -0.538000 -1.973124
v -4.869000 -0.465922 -1.973124
v -5.065922 -0.269000 -1.973124
vt 0.500950 0.317908
vt 0.513783 0.270016
vt 0.596733 0.292243
vt 0.465708 0.352967
vt 0.417816 0.340134
vt 0.440043 0.257184
vt 0.015253 0.479804
vt 0.097517 0.480774
vt 0.097661 0.497989
vt 0.015838 0.497455
vt 0.097844 0.515530
vt 0.017242 0.515589
vt 0.098019 0.533715
vt 0.019177 0.534033
vt 0.098148 0.552797
vt 0.021022 0.552838
vt 0.098199 0.572830
vt 0.021919 0.572257
vt 0.098136 0.593192
vt 0.020243 0.592545
vt 0.021079 0.369084
vt 0.098443 0.367968
vt 0.098445 0.388813
vt 0.022577 0.388704
vt 0.098196 0.408819
vt 0.021738 0.407545
vt 0.097861 0.427884
vt 0.019674 0.426118
vt 0.097593 0.446034
vt 0.017495 0.443864
vt 0.097473 0.463557
vt 0.016001 0.461852
vt 0.178376 0.480698
vt 0.178464 0.497812
vt 0.178498 0.515264
vt 0.178450 0.533386
vt 0.178348 0.552427
vt 0.178235 0.572399
vt 0.178207 0.593119
vt 0.178872 0.368174
vt 0.178792 0.388948
vt 0.178619 0.408942
vt 0.178443 0.427997
vt 0.178325 0.446127
vt 0.178307 0.463583
vt 0.258842 0.480654
vt 0.258914 0.497745
vt 0.258918 0.515180
vt 0.258833 0.533291
vt 0.258696 0.552330
vt 0.258566 0.572309
vt 0.258527 0.593068
vt 0.259230 0.368221
vt 0.259175 0.388986
vt 0.259030 0.408969
vt 0.258878 0.428012
vt 0.258779 0.446126
vt 0.258773 0.463562
vt 0.339234 0.480621
vt 0.339303 0.497708
vt 0.339301 0.515138
vt 0.339209 0.533248
vt 0.339067 0.552286
vt 0.338932 0.572268
vt 0.338890 0.593033
vt 0.339594 0.368208
vt 0.339549 0.388973
vt 0.339410 0.408955
vt 0.339265 0.427994
vt 0.339170 0.446104
vt 0.339166 0.463534
vt 0.419612 0.480590
vt 0.419680 0.497676
vt 0.419677 0.515106
vt 0.419584 0.533215
vt 0.419441 0.552253
vt 0.419305 0.572236
vt 0.419262 0.593003
vt 0.419964 0.368179
vt 0.419921 0.388946
vt 0.419785 0.408928
vt 0.419640 0.427966
vt 0.419547 0.446075
vt 0.419544 0.463505
vt 0.499987 0.480558
vt 0.500055 0.497644
vt 0.500053 0.515073
vt 0.499960 0.533183
vt 0.499816 0.552222
vt 0.499681 0.572205
vt 0.499638 0.592972
vt 0.500337 0.368149
vt 0.500294 0.388915
vt 0.500158 0.408897
vt 0.500014 0.427935
vt 0.499921 0.446044
vt 0.499918 0.463473
vt 0.580360 0.480524
vt 0.580430 0.497609
vt 0.580428 0.515039
vt 0.580336 0.533148
vt 0.580193 0.552188
vt 0.580058 0.572172
vt 0.580016 0.592940
vt 0.580708 0.368120
vt 0.580665 0.388885
vt 0.580529 0.408866
vt 0.580385 0.427903
vt 0.580293 0.446010
vt 0.580291 0.463439
vt 0.660733 0.480481
vt 0.660806 0.497567
vt 0.660806 0.514998
vt 0.660716 0.533109
vt 0.660574 0.552150
vt 0.660439 0.572136
vt 0.660397 0.592906
vt 0.661069 0.368095
vt 0.661025 0.388854
vt 0.660890 0.408830
vt 0.660748 0.427864
vt 0.660659 0.445969
vt 0.660660 0.463396
vt 0.741112 0.480412
vt 0.741193 0.497502
vt 0.741200 0.514939
vt 0.741114 0.533057
vt 0.740973 0.552107
vt 0.740836 0.572101
vt 0.740788 0.592880
vt 0.741397 0.368076
vt 0.741353 0.388814
vt 0.741223 0.408775
vt 0.741090 0.427799
vt 0.741013 0.445900
vt 0.741027 0.463326
vt 0.821548 0.480259
vt 0.821654 0.497372
vt 0.821672 0.514834
vt 0.821586 0.532979
vt 0.821437 0.552056
vt 0.821288 0.572082
vt 0.821223 0.592896
vt 0.821604 0.368069
vt 0.821563 0.388720
vt 0.821454 0.408633
vt 0.821370 0.427630
vt 0.821353 0.445722
vt 0.821422 0.463155
vt 0.902383 0.479880
vt 0.902517 0.497099
vt 0.902483 0.514650
vt 0.902289 0.532850
vt 0.902026 0.551967
vt 0.901828 0.572064
vt 0.901873 0.593025
vt 0.901268 0.368118
vt 0.901198 0.388207
vt 0.901298 0.408032
vt 0.901516 0.426996
vt 0.901810 0.445127
vt 0.902124 0.462661
vt 0.984692 0.480142
vt 0.984111 0.497811
vt 0.982673 0.515800
vt 0.980701 0.533995
vt 0.978875 0.552499
vt 0.978061 0.571612
vt 0.979849 0.591656
vt 0.977573 0.368959
vt 0.976195 0.388179
vt 0.977374 0.406614
vt 0.979679 0.424909
vt 0.982125 0.443236
vt 0.983894 0.461932
vt 0.990475 0.498198
vt 0.990816 0.480193
vt 0.989105 0.516454
vt 0.987166 0.534708
vt 0.985420 0.552975
vt 0.984812 0.571443
vt 0.982477 0.388221
vt 0.983897 0.370554
vt 0.983733 0.406029
vt 0.986106 0.424103
vt 0.988697 0.442492
vt 0.990816 0.461498
vt 0.009456 0.497822
vt 0.010744 0.516226
vt 0.012619 0.534744
vt 0.014374 0.553336
vt 0.015071 0.572120
vt 0.013542 0.590845
vt 0.014435 0.370799
vt 0.016226 0.388815
vt 0.015017 0.407012
vt 0.013287 0.425398
vt 0.011434 0.443196
vt 0.009285 0.461439
vt 0.009184 0.479824
vt 0.536009 0.257184
vt 0.561674 0.257184
vt 0.583901 0.270016
vt 0.596733 0.317908
vt 0.536009 0.352967
vt 0.583901 0.340135
vt 0.561674 0.352967
vt 0.513783 0.340134
vt 0.500950 0.292243
vt 0.404984 0.317908
vt 0.404984 0.292243
vt 0.417816 0.270016
vt 0.465708 0.257184
vt 0.487935 0.270016
vt 0.500767 0.292243
vt 0.500767 0.317908
vt 0.487934 0.340134
vt 0.440043 0.352967
vt 0.986456 0.589929
vn 0.0000 0.0000 -1.0000
vn -0.9582 0.2568 0.1262
vn -0.7041 0.7041 0.0927
vn -0.2587 0.9654 0.0341
vn 0.2587 0.9654 -0.0341
vn 0.7041 0.7041 -0.0927
vn 0.9582 0.2567 -0.1262
vn 0.9582 -0.2567 -0.1262
vn 0.7041 -0.7041 -0.0927
vn 0.2587 -0.9654 -0.0341
vn -0.2587 -0.9654 0.0341
vn -0.7041 -0.7041 0.0927
vn -0.9582 -0.2568 0.1262
vn -0.8929 0.2568 0.3699
vn -0.6561 0.7041 0.2718
vn -0.2410 0.9654 0.0998
vn 0.2410 0.9654 -0.0998
vn 0.6561 0.7041 -0.2718
vn 0.8929 0.2568 -0.3699
vn 0.8929 -0.2568 -0.3699
vn 0.6561 -0.7041 -0.2718
vn 0.2410 -0.9654 -0.0998
vn -0.2410 -0.9654 0.0998
vn -0.6561 -0.7041 0.2718
vn -0.8929 -0.2568 0.3699
vn -0.7668 0.2567 0.5884
vn -0.5634 0.7041 0.4323
vn -0.2070 0.9654 0.1588
vn 0.2070 0.9654 -0.1588
vn 0.5634 0.7041 -0.4323
vn 0.7668 0.2568 -0.5884
vn 0.7668 -0.2568 -0.5884
vn 0.5634 -0.7041 -0.4323
vn 0.2070 -0.9654 -0.1588
vn -0.2070 -0.9654 0.1588
vn -0.5634 -0.7041 0.4323
vn -0.7668 -0.2567 0.5884
vn -0.5884 0.2568 0.7668
vn -0.4323 0.7041 0.5634
vn -0.1588 0.9654 0.2070
vn 0.1588 0.9654 -0.2070
vn 0.4323 0.7041 -0.5634
vn 0.5884 0.2568 -0.7668
vn 0.5884 -0.2568 -0.7668
vn 0.4323 -0.7041 -0.5634
vn 0.1588 -0.9654 -0.2070
vn -0.1588 -0.9654 0.2070
vn -0.4323 -0.7041 0.5634
vn -0.5884 -0.2568 0.7668
vn -0.3699 0.2568 0.8929
vn -0.2718 0.7041 0.6561
vn -0.0998 0.9654 0.2410
vn 0.0998 0.9654 -0.2410
vn 0.2718 0.7041 -0.6561
vn 0.3699 0.2568 -0.8929
vn 0.3699 -0.2568 -0.8929
vn 0.2718 -0.7041 -0.6561
vn 0.0998 -0.9654 -0.2410
vn -0.0998 -0.9654 0.2410
vn -0.2718 -0.7041 0.6561
vn -0.3699 -0.2568 0.8929
vn -0.1262 0.2568 0.9582
vn -0.0927 0.7041 0.7041
vn -0.0341 0.9654 0.2587
vn 0.0341 0.9654 -0.2587
vn 0.0927 0.7041 -0.7041
vn 0.1262 0.2568 -0.9582
vn 0.1262 -0.2568 -0.9582
vn 0.0927 -0.7041 -0.7041
vn 0.0341 -0.9654 -0.2587
vn -0.0341 -0.9654 0.2587
vn -0.0927 -0.7041 0.7041
vn -0.1262 -0.2568 0.9582
vn 0.1262 0.2568 0.9582
vn 0.0927 0.7041 0.7041
vn 0.0341 0.9654 0.2587
vn -0.0341 0.9654 -0.2587
vn -0.0927 0.7041 -0.7041
vn -0.1262 0.2568 -0.9582
vn -0.1262 -0.2568 -0.9582
vn -0.0927 -0.7041 -0.7041
vn -0.0341 -0.9654 -0.2587
vn 0.0341 -0.9654 0.2587
vn 0.0927 -0.7041 0.7041
vn 0.1262 -0.2568 0.9582
vn 0.3699 0.2568 0.8929
vn 0.2718 0.7041 0.6561
vn 0.0998 0.9654 0.2410
vn -0.0998 0.9654 -0.2410
vn -0.2718 0.7041 -0.6561
vn -0.3699 0.2568 -0.8929
vn -0.3699 -0.2568 -0.8929
vn -0.2718 -0.7041 -0.6561
vn -0.0998 -0.9654 -0.2410
vn 0.0998 -0.9654 0.2410
vn 0.2718 -0.7041 0.6561
vn 0.3699 -0.2568 0.8929
vn 0.5884 0.2568 0.7668
vn 0.4323 0.7041 0.5634
vn 0.1588 0.9654 0.2070
vn -0.1588 0.9654 -0.2070
vn -0.4323 0.7041 -0.5634
vn -0.5884 0.2568 -0.7668
vn -0.5884 -0.2568 -0.7668
vn -0.4323 -0.7041 -0.5634
vn -0.1588 -0.9654 -0.2070
vn 0.1588 -0.9654 0.2070
vn 0.4323 -0.7041 0.5634
vn 0.5884 -0.2568 0.7668
vn 0.7668 0.2568 0.5884
vn 0.5634 0.7041 0.4323
vn 0.2070 0.9654 0.1588
vn -0.2070 0.9654 -0.1588
vn -0.5634 0.7041 -0.4323
vn -0.7668 0.2568 -0.5884
vn -0.7668 -0.2568 -0.5884
vn -0.5634 -0.7041 -0.4323
vn -0.2070 -0.9654 -0.1588
vn 0.2070 -0.9654 0.1588
vn 0.5634 -0.7041 0.4323
vn 0.7668 -0.2568 0.5884
vn 0.8929 0.2568 0.3699
vn 0.6561 0.7041 0.2718
vn 0.2410 0.9654 0.0998
vn -0.2410 0.9654 -0.0998
vn -0.6561 0.7041 -0.2718
vn -0.8929 0.2568 -0.3699
vn -0.8929 -0.2568 -0.3699
vn -0.6561 -0.7041 -0.2718
vn -0.2410 -0.9654 -0.0998
vn 0.2410 -0.9654 0.0998
vn 0.6561 -0.7041 0.2718
vn 0.8929 -0.2568 0.3699
vn 0.9582 0.2568 0.1262
vn 0.7041 0.7041 0.0927
vn 0.2587 0.9654 0.0341
vn -0.2587 0.9654 -0.0341
vn -0.7041 0.7041 -0.0927
vn -0.9582 0.2567 -0.1262
vn -0.9582 -0.2567 -0.1262
vn -0.7041 -0.7041 -0.0927
vn -0.2587 -0.9654 -0.0341
vn 0.2587 -0.9654 0.0341
vn 0.7041 -0.7041 0.0927
vn 0.9582 -0.2568 0.1262
vn 0.7510 0.2012 -0.6289
vn 0.5498 0.5498 -0.6289
vn 0.2012 0.7510 -0.6289
vn -0.2012 0.7510 -0.6289
vn -0.5498 0.5498 -0.6289
vn -0.7510 0.2012 -0.6289
vn -0.7510 -0.2012 -0.6289
vn -0.5498 -0.5498 -0.6289
vn -0.2012 -0.7510 -0.6289
vn 0.2012 -0.7510 -0.6289
vn 0.5498 -0.5498 -0.6289
vn 0.7510 -0.2012 -0.6289
usemtl None
s off
f 22/1/1 24/2/1 16/3/1
f 4/4/1 2/5/1 10/6/1
f 169/7/2 25/8/2 26/9/2 170/10/2
f 170/10/3 26/9/3 27/11/3 171/12/3
f 171/12/4 27/11/4 28/13/4 172/14/4
f 172/14/5 28/13/5 29/15/5 173/16/5
f 173/16/6 29/15/6 30/17/6 174/18/6
f 174/18/7 30/17/7 31/19/7 175/20/7
f 175/21/8 31/22/8 32/23/8 176/24/8
f 176/24/9 32/23/9 33/25/9 177/26/9
f 177/26/10 33/25/10 34/27/10 178/28/10
f 178/28/11 34/27/11 35/29/11 179/30/11
f 179/30/12 35/29/12 36/31/12 180/32/12
f 180/32/13 36/31/13 25/8/13 169/7/13
f 25/8/14 37/33/14 38/34/14 26/9/14
f 26/9/15 38/34/15 39/35/15 27/11/15
f 27/11/16 39/35/16 40/36/16 28/13/16
f 28/13/17 40/36/17 41/37/17 29/15/17
f 29/15/18 41/37/18 42/38/18 30/17/18
f 30/17/19 42/38/19 43/39/19 31/19/19
f 31/22/20 43/40/20 44/41/20 32/23/20
f 32/23/21 44/41/21 45/42/21 33/25/21
f 33/25/22 45/42/22 46/43/22 34/27/22
f 34/27/23 46/43/23 47/44/23 35/29/23
f 35/29/24 47/44/24 48/45/24 36/31/24
f 36/31/25 48/45/25 37/33/25 25/8/25
f 37/33/26 49/46/26 50/47/26 38/34/26
f 38/34/27 50/47/27 51/48/27 39/35/27
f 39/35/28 51/48/28 52/49/28 40/36/28
f 40/36/29 52/49/29 53/50/29 41/37/29
f 41/37/30 53/50/30 54/51/30 42/38/30
f 42/38/31 54/51/31 55/52/31 43/39/31
f 43/40/32 55/53/32 56/54/32 44/41/32
f 44/41/33 56/54/33 57/55/33 45/42/33
f 45/42/34 57/55/34 58/56/34 46/43/34
f 46/43/35 58/56/35 59/57/35 47/44/35
f 47/44/36 59/57/36 60/58/36 48/45/36
f 48/45/37 60/58/37 49/46/37 37/33/37
f 49/46/38 61/59/38 62/60/38 50/47/38
f 50/47/39 62/60/39 63/61/39 51/48/39
f 51/48/40 63/61/40 64/62/40 52/49/40
f 52/49/41 64/62/41 65/63/41 53/50/41
f 53/50/42 65/63/42 66/64/42 54/51/42
f 54/51/43 66/64/43 67/65/43 55/52/43
f 55/53/44 67/66/44 68/67/44 56/54/44
f 56/54/45 68/67/45 69/68/45 57/55/45
f 57/55/46 69/68/46 70/69/46 58/56/46
f 58/56/47 70/69/47 71/70/47 59/57/47
f 59/57/48 71/70/48 72/71/48 60/58/48
f 60/58/49 72/71/49 61/59/49 49/46/49
f 61/59/50 73/72/50 74/73/50 62/60/50
f 62/60/51 74/73/51 75/74/51 63/61/51
f 63/61/52 75/74/52 76/75/52 64/62/52
f 64/62/53 76/75/53 77/76/53 65/63/53
f 65/63/54 77/76/54 78/77/54 66/64/54
f 66/64/55 78/77/55 79/78/55 67/65/55
f 67/66/56 79/79/56 80/80/56 68/67/56
f 68/67/57 80/80/57 81/81/57 69/68/57
f 69/68/58 81/81/58 82/82/58 70/69/58
f 70/69/59 82/82/59 83/83/59 71/70/59
f 71/70/60 83/83/60 84/84/60 72/71/60
f 72/71/61 84/84/61 73/72/61 61/59/61
f 73/72/62 85/85/62 86/86/62 74/73/62
f 74/73/63 86/86/63 87/87/63 75/74/63
f 75/74/64 87/87/64 88/88/64 76/75/64
f 76/75/65 88/88/65 89/89/65 77/76/65
f 77/76/66 89/89/66 90/90/66 78/77/66
f 78/77/67 90/90/67 91/91/67 79/78/67
f 79/79/68 91/92/68 92/93/68 80/80/68
f 80/80/69 92/93/69 93/94/69 81/81/69
f 81/81/70 93/94/70 94/95/70 82/82/70
f 82/82/71 94/95/71 95/96/71 83/83/71
f 83/83/72 95/96/72 96/97/72 84/84/72
f 84/84/73 96/97/73 85/85/73 73/72/73
f 85/85/74 97/98/74 98/99/74 86/86/74
f 86/86/75 98/99/75 99/100/75 87/87/75
f 87/87/76 99/100/76 100/101/76 88/88/76
f 88/88/77 100/101/77 101/102/77 89/89/77
f 89/89/78 101/102/78 102/103/78 90/90/78
f 90/90/79 102/103/79 103/104/79 91/91/79
f 91/92/80 103/105/80 104/106/80 92/93/80
f 92/93/81 104/106/81 105/107/81 93/94/81
f 93/94/82 105/107/82 106/108/82 94/95/82
f 94/95/83 106/108/83 107/109/83 95/96/83
f 95/96/84 107/109/84 108/110/84 96/97/84
f 96/97/85 108/110/85 97/98/85 85/85/85
f 97/98/86 109/111/86 110/112/86 98/99/86
f 98/99/87 110/112/87 111/113/87 99/100/87
f 99/100/88 111/113/88 112/114/88 100/101/88
f 100/101/89 112/114/89 113/115/89 101/102/89
f 101/102/90 113/115/90 114/116/90 102/103/90
f 102/103/91 114/116/91 115/117/91 103/104/91
f 103/105/92 115/118/92 116/119/92 104/106/92
f 104/106/93 116/119/93 117/120/93 105/107/93
f 105/107/94 117/120/94 118/121/94 106/108/94
f 106/108/95 118/121/95 119/122/95 107/109/95
f 107/109/96 119/122/96 120/123/96 108/110/96
f 108/110/97 120/123/97 109/111/97 97/98/97
f 109/111/98 121/124/98 122/125/98 110/112/98
f 110/112/99 122/125/99 123/126/99 111/113/99
f 111/113/100 123/126/100 124/127/100 112/114/100
f 112/114/101 124/127/101 125/128/101 113/115/101
f 113/115/102 125/128/102 126/129/102 114/116/102
f 114/116/103 126/129/103 127/130/103 115/117/103
f 115/118/104 127/131/104 128/132/104 116/119/104
f 116/119/105 128/132/105 129/133/105 117/120/105
f 117/120/106 129/133/106 130/134/106 118/121/106
f 118/121/107 130/134/107 131/135/107 119/122/107
f 119/122/108 131/135/108 132/136/108 120/123/108
f 120/123/109 132/136/109 121/124/109 109/111/109
f 121/124/110 133/137/110 134/138/110 122/125/110
f 122/125/111 134/138/111 135/139/111 123/126/111
f 123/126/112 135/139/112 136/140/112 124/127/112
f 124/127/113 136/140/113 137/141/113 125/128/113
f 125/128/114 137/141/114 138/142/114 126/129/114
f 126/129/115 138/142/115 139/143/115 127/130/115
f 127/131/116 139/144/116 140/145/116 128/132/116
f 128/132/117 140/145/117 141/146/117 129/133/117
f 129/133/118 141/146/118 142/147/118 130/134/118
f 130/134/119 142/147/119 143/148/119 131/135/119
f 131/135/120 143/148/120 144/149/120 132/136/120
f 132/136/121 144/149/121 133/137/121 121/124/121
f 133/137/122 145/150/122 146/151/122 134/138/122
f 134/138/123 146/151/123 147/152/123 135/139/123
f 135/139/124 147/152/124 148/153/124 136/140/124
f 136/140/125 148/153/125 149/154/125 137/141/125
f 137/141/126 149/154/126 150/155/126 138/142/126
f 138/142/127 150/155/127 151/156/127 139/143/127
f 139/144/128 151/157/128 152/158/128 140/145/128
f 140/145/129 152/158/129 153/159/129 141/146/129
f 141/146/130 153/159/130 154/160/130 142/147/130
f 142/147/131 154/160/131 155/161/131 143/148/131
f 143/148/132 155/161/132 156/162/132 144/149/132
f 144/149/133 156/162/133 145/150/133 133/137/133
f 145/150/134 157/163/134 158/164/134 146/151/134
f 146/151/135 158/164/135 159/165/135 147/152/135
f 147/152/136 159/165/136 160/166/136 148/153/136
f 148/153/137 160/166/137 161/167/137 149/154/137
f 149/154/138 161/167/138 162/168/138 150/155/138
f 150/155/139 162/168/139 163/169/139 151/156/139
f 151/157/140 163/170/140 164/171/140 152/158/140
f 152/158/141 164/171/141 165/172/141 153/159/141
f 153/159/142 165/172/142 166/173/142 154/160/142
f 154/160/143 166/173/143 167/174/143 155/161/143
f 155/161/144 167/174/144 168/175/144 156/162/144
f 156/162/145 168/175/145 157/163/145 145/150/145
f 2/176/146 157/163/146 1/177/146
f 3/178/147 158/164/147 2/176/147
f 4/179/148 159/165/148 3/178/148
f 5/180/149 160/166/149 4/179/149
f 6/181/150 161/167/150 5/180/150
f 6/181/151 163/169/151 162/168/151
f 8/182/152 163/170/152 7/183/152
f 9/184/153 164/171/153 8/182/153
f 10/185/154 165/172/154 9/184/154
f 11/186/155 166/173/155 10/185/155
f 12/187/156 167/174/156 11/186/156
f 12/187/157 157/163/157 168/175/157
f 14/188/151 169/7/151 170/10/151
f 15/189/150 170/10/150 171/12/150
f 16/190/149 171/12/149 172/14/149
f 17/191/148 172/14/148 173/16/148
f 18/192/147 173/16/147 174/18/147
f 18/192/146 175/20/146 19/193/146
f 19/194/157 176/24/157 20/195/157
f 21/196/156 176/24/156 177/26/156
f 21/196/155 178/28/155 22/197/155
f 22/197/154 179/30/154 23/198/154
f 24/199/153 179/30/153 180/32/153
f 24/199/152 169/7/152 13/200/152
f 24/2/1 13/201/1 16/3/1
f 13/201/1 14/202/1 16/3/1
f 14/202/1 15/203/1 16/3/1
f 16/3/1 17/204/1 20/205/1
f 17/204/1 18/206/1 20/205/1
f 18/206/1 19/207/1 20/205/1
f 20/205/1 21/208/1 22/1/1
f 22/1/1 23/209/1 24/2/1
f 20/205/1 22/1/1 16/3/1
f 2/5/1 1/210/1 12/211/1
f 12/211/1 11/212/1 2/5/1
f 11/212/1 10/6/1 2/5/1
f 10/6/1 9/213/1 8/214/1
f 8/214/1 7/215/1 10/6/1
f 7/215/1 6/216/1 10/6/1
f 6/216/1 5/217/1 4/4/1
f 4/4/1 3/218/1 2/5/1
f 6/216/1 4/4/1 10/6/1
f 2/176/146 158/164/146 157/163/146
f 3/178/147 159/165/147 158/164/147
f 4/179/148 160/166/148 159/165/148
f 5/180/149 161/167/149 160/166/149
f 6/181/150 162/168/150 161/167/150
f 6/181/151 7/219/151 163/169/151
f 8/182/152 164/171/152 163/170/152
f 9/184/153 165/172/153 164/171/153
f 10/185/154 166/173/154 165/172/154
f 11/186/155 167/174/155 166/173/155
f 12/187/156 168/175/156 167/174/156
f 12/187/157 1/177/157 157/163/157
f 14/188/151 13/200/151 169/7/151
f 15/189/150 14/188/150 170/10/150
f 16/190/149 15/189/149 171/12/149
f 17/191/148 16/190/148 172/14/148
f 18/192/147 17/191/147 173/16/147
f 18/192/146 174/18/146 175/20/146
f 19/194/157 175/21/157 176/24/157
f 21/196/156 20/195/156 176/24/156
f 21/196/155 177/26/155 178/28/155
f 22/197/154 178/28/154 179/30/154
f 24/199/153 23/198/153 179/30/153
f 24/199/152 180/32/152 169/7/152
