# Blender 3.5.1
# www.blender.org
mtllib hex_thin.mtl
o Cylinder
v 0.000000 0.005764 -0.953964
v 0.000000 0.201311 -0.953964
v 0.826157 0.005764 -0.476982
v 0.826157 0.201311 -0.476982
v 0.826157 0.005764 0.476982
v 0.826157 0.201311 0.476982
v 0.000000 0.005764 0.953964
v 0.000000 0.201311 0.953964
v -0.826157 0.005764 0.476982
v -0.826157 0.201311 0.476982
v -0.826157 0.005764 -0.476982
v -0.826157 0.201311 -0.476982
v 0.000000 0.029016 -1.000000
v 0.866025 0.029016 -0.500000
v 0.866025 0.178059 -0.500000
v 0.000000 0.178059 -1.000000
v 0.866025 0.029016 0.500000
v 0.866025 0.178059 0.500000
v 0.000000 0.029016 1.000000
v 0.000000 0.178059 1.000000
v -0.866025 0.029016 0.500000
v -0.866025 0.178059 0.500000
v -0.866025 0.029016 -0.500000
v -0.866025 0.178059 -0.500000
vn 0.5000 -0.0000 -0.8660
vn 1.0000 -0.0000 -0.0000
vn 0.5000 -0.0000 0.8660
vn -0.5000 -0.0000 0.8660
vn -0.0000 1.0000 -0.0000
vn -1.0000 -0.0000 -0.0000
vn -0.5000 -0.0000 -0.8660
vn -0.0000 -1.0000 -0.0000
vn 0.2519 -0.8638 -0.4363
vn 0.2519 0.8638 -0.4363
vn 0.5038 -0.8638 -0.0000
vn 0.5038 0.8638 -0.0000
vn 0.2519 -0.8638 0.4363
vn 0.2519 0.8638 0.4363
vn -0.2519 -0.8638 0.4363
vn -0.2519 0.8638 0.4363
vn -0.5038 -0.8638 -0.0000
vn -0.5038 0.8638 -0.0000
vn -0.2519 -0.8638 -0.4363
vn -0.2519 0.8638 -0.4363
vt 0.746143 0.474432
vt 0.253857 0.474432
vt 0.941362 0.361722
vt 0.449076 0.361722
vt 0.941362 0.136303
vt 0.449076 0.136303
vt 0.746143 0.023593
vt 0.253857 0.023593
vt 0.550924 0.136303
vt 0.058638 0.136303
vt 0.550924 0.361722
vt 0.058638 0.361722
vt 0.992287 0.725770
vt 0.007713 0.725770
vt 0.746143 0.485310
vt 0.828191 0.725770
vt 0.950783 0.367161
vt 0.828191 0.756828
vt 0.458496 0.367161
vt 0.992287 0.756828
vt 0.007713 0.756828
vt 0.253857 0.485310
vt 0.664096 0.725770
vt 0.950783 0.130863
vt 0.664096 0.756828
vt 0.458496 0.130863
vt 0.500000 0.725770
vt 0.746143 0.012715
vt 0.500000 0.756828
vt 0.253857 0.012715
vt 0.335904 0.725770
vt 0.541504 0.130863
vt 0.335904 0.756828
vt 0.049217 0.130863
vt 0.171809 0.725770
vt 0.541504 0.367161
vt 0.171809 0.756828
vt 0.049217 0.367161
s 0
f 16/20/1 14/16/1 13/13/1
f 15/18/2 17/23/2 14/16/2
f 18/25/3 19/27/3 17/23/3
f 20/29/4 21/31/4 19/27/4
f 2/2/5 10/10/5 6/6/5
f 22/33/6 23/35/6 21/31/6
f 24/37/7 13/14/7 23/35/7
f 3/3/8 7/7/8 11/11/8
f 16/20/1 15/18/1 14/16/1
f 15/18/2 18/25/2 17/23/2
f 18/25/3 20/29/3 19/27/3
f 20/29/4 22/33/4 21/31/4
f 6/6/5 4/4/5 2/2/5
f 2/2/5 12/12/5 10/10/5
f 10/10/5 8/8/5 6/6/5
f 22/33/6 24/37/6 23/35/6
f 24/37/7 16/21/7 13/14/7
f 11/11/8 1/1/8 3/3/8
f 3/3/8 5/5/8 7/7/8
f 7/7/8 9/9/8 11/11/8
f 3/3/9 1/1/9 13/15/9 14/17/9
f 2/2/10 4/4/10 15/19/10 16/22/10
f 5/5/11 3/3/11 14/17/11 17/24/11
f 4/4/12 6/6/12 18/26/12 15/19/12
f 7/7/13 5/5/13 17/24/13 19/28/13
f 6/6/14 8/8/14 20/30/14 18/26/14
f 9/9/15 7/7/15 19/28/15 21/32/15
f 8/8/16 10/10/16 22/34/16 20/30/16
f 11/11/17 9/9/17 21/32/17 23/36/17
f 10/10/18 12/12/18 24/38/18 22/34/18
f 1/1/19 11/11/19 23/36/19 13/15/19
f 12/12/20 2/2/20 16/22/20 24/38/20
