# Blender v2.80 (sub 75) OBJ File: 'hollow_half_cone.blend'
# www.blender.org
mtllib hollow_half_cone.mtl
o Cylinder_Cylinder.003
v 0.000000 2.000000 -0.007093
v 0.000000 2.000000 0.007092
v -0.001384 2.000000 0.006956
v -0.195091 -0.000000 0.980785
v -0.002714 2.000000 0.006552
v -0.382684 -0.000000 0.923879
v -0.003940 2.000000 0.005897
v -0.005015 2.000000 0.005015
v -0.707107 -0.000000 0.707106
v -0.005897 2.000000 0.003940
v -0.831470 -0.000000 0.555570
v -0.006552 2.000000 0.002714
v -0.923880 -0.000000 0.382683
v -0.006956 2.000000 0.001383
v -0.007092 2.000000 0.000000
v -1.000000 0.000000 -0.000001
v -0.006956 2.000000 -0.001384
v -0.980785 0.000000 -0.195091
v -0.006552 2.000000 -0.002714
v -0.923879 0.000000 -0.382684
v -0.005897 2.000000 -0.003941
v -0.831469 0.000000 -0.555571
v -0.005015 2.000000 -0.005015
v -0.003940 2.000000 -0.005897
v -0.555569 0.000000 -0.831470
v -0.002714 2.000000 -0.006553
v -0.382682 0.000000 -0.923880
v -0.001384 2.000000 -0.006956
v -0.195089 0.000000 -0.980786
v -0.555571 -0.000000 0.831469
v -0.980785 -0.000000 0.195089
v -0.707106 0.000000 -0.707108
v 0.000425 1.935082 -0.006667
v 0.001384 2.000000 0.000000
v 0.001384 2.000000 0.006956
v 0.000000 -0.000000 1.000000
v -0.201046 -0.000006 0.951294
v -0.382998 -0.000006 0.896099
v -0.550687 -0.000006 0.806468
v -0.697666 -0.000006 0.685844
v -0.818290 -0.000006 0.538865
v -0.907921 -0.000006 0.371176
v -0.963115 -0.000006 0.189223
v -0.981752 -0.000006 -0.000001
v -0.963115 -0.000006 -0.189225
v -0.907920 -0.000006 -0.371177
v -0.818289 -0.000006 -0.538866
v -0.697665 -0.000006 -0.685846
v -0.550685 -0.000005 -0.806469
v -0.382996 -0.000005 -0.896100
v -0.201044 -0.000005 -0.951295
v 0.000000 0.000000 -1.000000
v 0.001384 2.000000 -0.006956
v 0.000425 1.935082 0.006667
v -0.000876 1.935082 0.006539
v -0.182960 -0.001318 0.921938
v -0.002126 1.935082 0.006175
v -0.359298 -0.001318 0.868446
v -0.003278 1.935082 0.005560
v -0.004289 1.935082 0.004714
v -0.664255 -0.001318 0.664680
v -0.005118 1.935082 0.003704
v -0.781157 -0.001318 0.522236
v -0.005733 1.935082 0.002551
v -0.868022 -0.001318 0.359722
v -0.006113 1.935082 0.001300
v -0.006241 1.935082 0.000000
v -0.939575 -0.001318 -0.000001
v -0.006113 1.935082 -0.001301
v -0.921513 -0.001318 -0.183386
v -0.005733 1.935082 -0.002551
v -0.868021 -0.001318 -0.359723
v -0.005118 1.935082 -0.003704
v -0.781156 -0.001318 -0.522237
v -0.004289 1.935082 -0.004714
v -0.003278 1.935082 -0.005543
v -0.521810 -0.001318 -0.781582
v -0.002126 1.935082 -0.006160
v -0.359296 -0.001318 -0.868447
v -0.000876 1.935082 -0.006538
v -0.182958 -0.001318 -0.921939
v -0.521811 -0.001318 0.781581
v -0.921513 -0.001318 0.183384
v -0.664254 -0.001318 -0.664682
v 0.001726 1.935082 0.000000
v 0.001726 1.935082 0.006539
v 0.000425 -0.001318 0.940000
v 0.000425 -0.001318 -0.940000
v 0.001726 1.935082 -0.006538
v 0.000692 1.000000 -0.503478
v 0.000692 1.000000 0.503478
v 0.001076 0.966882 -0.473269
v 0.001076 0.966882 0.473269
v 0.001555 1.967541 -0.006747
v 0.001555 1.967541 0.006748
v 0.000863 0.967541 -0.503269
v 0.000213 -0.000659 -0.970000
v 0.000213 -0.000659 0.970000
v 0.000863 0.967541 0.503269
vt 0.820430 0.256367
vt 0.820751 0.256335
vt 0.821072 0.257981
vt 0.820121 0.256461
vt 0.820430 0.259595
vt 0.820121 0.259505
vt 0.819837 0.256613
vt 0.819587 0.256818
vt 0.819383 0.257067
vt 0.819231 0.257352
vt 0.819137 0.257660
vt 0.819105 0.257981
vt 0.819137 0.258302
vt 0.819231 0.258611
vt 0.819383 0.258895
vt 0.767061 0.807876
vt 0.769648 0.807880
vt 0.767010 0.808391
vt 0.772235 0.807878
vt 0.772286 0.808393
vt 0.767060 0.808906
vt 0.819837 0.259353
vt 0.819587 0.259145
vt 0.767453 0.809857
vt 0.767210 0.809401
vt 0.767781 0.810258
vt 0.768637 0.810830
vt 0.768180 0.810586
vt 0.769132 0.810981
vt 0.769646 0.811032
vt 0.770161 0.810982
vt 0.770656 0.810832
vt 0.771113 0.810588
vt 0.771513 0.810260
vt 0.771841 0.809860
vt 0.772085 0.809403
vt 0.772235 0.808908
vt 0.367326 0.462627
vt 0.675534 0.032163
vt 0.522578 0.247361
vt 0.369621 0.462560
vt 0.820751 0.259627
vt 0.821072 0.256367
vt 0.821072 0.259595
vt 0.548648 0.287018
vt 0.555343 0.285650
vt 0.544453 0.331452
vt 0.567830 0.244421
vt 0.561539 0.244489
vt 0.588159 0.206516
vt 0.582507 0.205401
vt 0.615503 0.173355
vt 0.610703 0.171209
vt 0.648789 0.146199
vt 0.645025 0.143210
vt 0.686726 0.126086
vt 0.684141 0.122473
vt 0.727845 0.113784
vt 0.726537 0.109791
vt 0.770553 0.109760
vt 0.770571 0.105644
vt 0.813199 0.114161
vt 0.814541 0.110184
vt 0.854139 0.126806
vt 0.856750 0.123224
vt 0.891792 0.147196
vt 0.895570 0.144249
vt 0.924714 0.174534
vt 0.929510 0.172438
vt 0.951644 0.207762
vt 0.957275 0.206698
vt 0.971564 0.245609
vt 0.977816 0.245720
vt 0.983728 0.286671
vt 0.990378 0.288055
vt 0.994498 0.332206
vt 0.301653 0.992967
vt 0.299503 0.992999
vt 0.153079 0.785414
vt 0.006654 0.577829
vt 0.977067 0.290710
vt 0.965301 0.250905
vt 0.593780 0.213058
vt 0.946002 0.214225
vt 0.919904 0.182027
vt 0.620270 0.180921
vt 0.888000 0.155538
vt 0.689282 0.135107
vt 0.851510 0.135785
vt 0.811838 0.123537
vt 0.729126 0.123181
vt 0.770511 0.119277
vt 0.652522 0.154602
vt 0.574094 0.249790
vt 0.562024 0.289735
vt 0.772596 0.783776
vt 0.772415 0.795822
vt 0.769665 0.783618
vt 0.766733 0.783774
vt 0.766898 0.795819
vt 0.654866 0.565592
vt 0.884294 0.566295
vt 0.884004 0.556543
vt 0.980828 0.332131
vt 0.987656 0.332173
vt 0.877043 0.556537
vt 0.551321 0.331428
vt 0.655156 0.555824
vt 0.662129 0.555816
vt 0.558176 0.331396
vt 0.080352 0.577835
vt 0.308470 0.992868
vt 0.306142 0.992902
vt 0.043037 0.577832
vt 0.303889 0.992935
vt 0.364939 0.462697
vt 0.637306 0.032559
vt 0.362524 0.462768
vt 0.597966 0.032966
vt 0.360030 0.462841
vt 0.357434 0.462917
vt 0.515426 0.033821
vt 0.354795 0.462994
vt 0.472708 0.034263
vt 0.352142 0.463072
vt 0.429493 0.034711
vt 0.349462 0.463151
vt 0.346769 0.463230
vt 0.341914 0.035618
vt 0.344086 0.463308
vt 0.298059 0.036072
vt 0.341426 0.463386
vt 0.254476 0.036523
vt 0.338770 0.463464
vt 0.211217 0.036971
vt 0.336153 0.463541
vt 0.333637 0.463614
vt 0.127045 0.037843
vt 0.331195 0.463686
vt 0.086623 0.038261
vt 0.328840 0.463755
vt 0.047518 0.038666
vt 0.326508 0.463823
vt 0.557339 0.033387
vt 0.385820 0.035163
vt 0.168582 0.037412
vt 0.009521 0.039060
vt 0.324276 0.463888
vt 0.166898 0.251474
vt 0.158348 0.577841
vt 0.310904 0.992833
vt 0.198600 0.577844
vt 0.313378 0.992797
vt 0.315857 0.992761
vt 0.239237 0.577847
vt 0.318366 0.992725
vt 0.321459 0.577854
vt 0.320899 0.992688
vt 0.362590 0.577857
vt 0.323426 0.992651
vt 0.403450 0.577860
vt 0.325937 0.992615
vt 0.328438 0.992578
vt 0.443974 0.577863
vt 0.330909 0.992542
vt 0.522879 0.577869
vt 0.333304 0.992508
vt 0.560824 0.577872
vt 0.335636 0.992474
vt 0.597579 0.577875
vt 0.337894 0.992441
vt 0.340129 0.992409
vt 0.118781 0.577838
vt 0.280249 0.577850
vt 0.483918 0.577866
vt 0.633320 0.577878
vt 0.487799 0.785127
vt 0.342277 0.992377
vn 0.0000 -1.0000 0.0000
vn 0.0000 -1.0000 -0.0001
vn 0.0000 -1.0000 0.0002
vn 0.0000 1.0000 0.0000
vn 0.0000 1.0000 -0.0001
vn 0.0000 1.0000 0.0003
vn 0.0000 1.0000 -0.0003
vn 0.0877 0.4430 0.8922
vn 0.0000 -1.0000 0.0001
vn -0.0001 -1.0000 0.0002
vn -0.0002 -1.0000 0.0002
vn -0.0003 -1.0000 0.0001
vn -0.0003 -1.0000 0.0000
vn -0.0003 -1.0000 -0.0001
vn -0.0002 -1.0000 -0.0002
vn -0.0001 -1.0000 -0.0002
vn -0.0000 -1.0000 -0.0002
vn -0.0882 -0.4325 -0.8973
vn -0.0114 -0.9992 -0.0376
vn -0.0174 -0.9993 0.0325
vn -0.0174 -0.9993 -0.0325
vn -0.0222 -0.9994 -0.0270
vn -0.0222 -0.9994 0.0270
vn -0.0258 -0.9994 -0.0212
vn -0.0285 -0.9995 0.0152
vn -0.0285 -0.9995 -0.0152
vn -0.0302 -0.9995 -0.0092
vn -0.0302 -0.9995 0.0092
vn -0.0311 -0.9995 -0.0031
vn -0.0311 -0.9995 0.0031
vn -0.0258 -0.9994 0.0212
vn -0.0114 -0.9992 0.0376
vn 1.0000 0.0053 0.0000
vn 0.9999 0.0052 0.0119
vn 0.9999 0.0052 -0.0119
vn 1.0000 0.0027 -0.0070
vn -0.0022 -0.9998 -0.0220
vn -0.0022 -0.9998 0.0220
vn 1.0000 0.0027 0.0070
vn -0.0094 -0.9992 -0.0389
vn -0.0094 -0.9992 0.0389
vn 0.3447 -0.4342 -0.8323
vn 0.5037 -0.4345 -0.7466
vn 0.3399 -0.4346 -0.8340
vn 0.1757 -0.4342 -0.8835
vn 0.1704 -0.4342 -0.8846
vn 0.0882 -0.4325 -0.8973
vn -0.0877 0.4429 0.8923
vn -0.1748 0.4447 0.8785
vn -0.1747 0.4447 0.8785
vn -0.3428 0.4447 0.8275
vn -0.4975 0.4447 0.7448
vn -0.6333 0.4447 0.6334
vn -0.6334 0.4447 0.6334
vn -0.7448 0.4447 0.4975
vn -0.7447 0.4447 0.4976
vn -0.8275 0.4447 0.3428
vn -0.8785 0.4447 0.1747
vn -0.8957 0.4447 0.0000
vn -0.8785 0.4447 -0.1748
vn -0.8785 0.4447 -0.1747
vn -0.8275 0.4447 -0.3427
vn -0.8275 0.4447 -0.3428
vn -0.7448 0.4447 -0.4976
vn -0.7447 0.4447 -0.4976
vn -0.6332 0.4447 -0.6335
vn -0.4973 0.4447 -0.7449
vn -0.4976 0.4447 -0.7447
vn -0.3428 0.4447 -0.8275
vn -0.1748 0.4447 -0.8785
vn -0.1747 0.4447 -0.8785
vn 0.0000 0.4447 -0.8957
vn -0.0879 0.4430 0.8922
vn -0.4976 0.4447 0.7447
vn -0.6334 0.4447 -0.6334
vn -0.0878 0.4430 -0.8922
vn 0.0883 0.4429 -0.8922
vn 0.6370 -0.4342 -0.6370
vn 0.6401 -0.4342 -0.6339
vn 0.7490 -0.4342 -0.5005
vn 0.7491 -0.4342 -0.5004
vn 0.8323 -0.4342 -0.3447
vn 0.8835 -0.4342 -0.1757
vn 0.9008 -0.4342 -0.0000
vn 0.8835 -0.4342 0.1757
vn 0.8835 -0.4342 0.1758
vn 0.8323 -0.4342 0.3447
vn 0.7490 -0.4342 0.5004
vn 0.7490 -0.4342 0.5005
vn 0.6368 -0.4342 0.6371
vn 0.5005 -0.4342 0.7490
vn 0.5002 -0.4341 0.7492
vn 0.3447 -0.4342 0.8322
vn 0.3448 -0.4342 0.8322
vn 0.1757 -0.4342 0.8835
vn 0.1758 -0.4342 0.8835
vn 0.0000 -0.4342 0.9008
vn 0.0884 -0.4325 -0.8973
vn 0.5005 -0.4342 -0.7490
vn 0.6370 -0.4342 0.6370
vn 0.0883 -0.4325 0.8973
vn -0.0888 -0.4325 0.8973
usemtl Material
s off
f 80/1/1 33/2/1 85/3/1
f 78/4/1 80/1/1 85/3/1
f 85/3/1 55/5/1 57/6/1
f 76/7/2 78/4/2 85/3/2
f 75/8/1 76/7/1 85/3/1
f 73/9/1 75/8/1 85/3/1
f 71/10/3 73/9/3 85/3/3
f 69/11/1 71/10/1 85/3/1
f 67/12/1 69/11/1 85/3/1
f 66/13/1 67/12/1 85/3/1
f 66/13/1 85/3/1 64/14/1
f 85/3/2 62/15/2 64/14/2
f 35/16/4 34/17/4 2/18/4
f 34/17/4 53/19/4 1/20/4
f 34/17/4 3/21/4 2/18/4
f 85/3/2 59/22/2 60/23/2
f 34/17/5 7/24/5 5/25/5
f 34/17/4 8/26/4 7/24/4
f 34/17/4 12/27/4 10/28/4
f 14/29/6 12/27/6 34/17/6
f 14/29/4 34/17/4 15/30/4
f 15/30/4 34/17/4 17/31/4
f 17/31/7 34/17/7 19/32/7
f 19/32/4 34/17/4 21/33/4
f 21/33/4 34/17/4 23/34/4
f 23/34/4 34/17/4 24/35/4
f 24/35/4 34/17/4 26/36/4
f 34/17/4 5/25/4 3/21/4
f 26/36/5 34/17/5 28/37/5
f 28/37/4 34/17/4 1/20/4
f 34/17/4 10/28/4 8/26/4
f 2/38/8 36/39/8 91/40/8 35/41/8
f 85/3/9 57/6/9 59/22/9
f 85/3/1 54/42/1 55/5/1
f 85/3/1 33/2/1 89/43/1
f 86/44/1 54/42/1 85/3/1
f 4/45/3 37/46/3 36/47/3
f 38/48/10 37/46/10 4/45/10 6/49/10
f 39/50/10 38/48/10 6/49/10 30/51/10
f 40/52/11 39/50/11 30/51/11 9/53/11
f 41/54/11 40/52/11 9/53/11 11/55/11
f 42/56/12 41/54/12 11/55/12 13/57/12
f 43/58/12 42/56/12 13/57/12 31/59/12
f 44/60/13 43/58/13 31/59/13 16/61/13
f 45/62/13 44/60/13 16/61/13 18/63/13
f 46/64/14 45/62/14 18/63/14 20/65/14
f 47/66/14 46/64/14 20/65/14 22/67/14
f 48/68/15 47/66/15 22/67/15 32/69/15
f 49/70/15 48/68/15 32/69/15 25/71/15
f 50/72/16 49/70/16 25/71/16 27/73/16
f 51/74/16 50/72/16 27/73/16 29/75/16
f 51/74/17 29/75/17 52/76/17
f 85/3/9 60/23/9 62/15/9
f 54/77/18 86/78/18 93/79/18 87/80/18
f 81/81/19 79/82/19 51/74/19
f 38/48/20 39/50/20 82/83/20
f 79/82/21 77/84/21 50/72/21
f 77/84/22 84/85/22 49/70/22
f 39/50/23 40/52/23 61/86/23
f 84/85/24 74/87/24 48/68/24
f 41/54/25 42/56/25 65/88/25
f 74/87/26 72/89/26 47/66/26
f 70/90/27 45/62/27 46/64/27
f 72/89/27 70/90/27 46/64/27
f 42/56/28 43/58/28 83/91/28
f 70/90/29 68/92/29 45/62/29
f 43/58/30 44/60/30 68/92/30
f 43/58/30 68/92/30 83/91/30
f 65/88/28 42/56/28 83/91/28
f 68/92/29 44/60/29 45/62/29
f 63/93/25 41/54/25 65/88/25
f 72/89/26 46/64/26 47/66/26
f 61/86/31 40/52/31 63/93/31
f 74/87/24 47/66/24 48/68/24
f 82/83/23 39/50/23 61/86/23
f 40/52/31 41/54/31 63/93/31
f 58/94/20 38/48/20 82/83/20
f 77/84/21 49/70/21 50/72/21
f 56/95/32 37/46/32 58/94/32
f 79/82/19 50/72/19 51/74/19
f 84/85/22 48/68/22 49/70/22
f 37/46/32 38/48/32 58/94/32
f 89/96/33 94/97/33 53/19/33 34/17/33
f 85/98/33 89/96/33 34/17/33
f 86/99/33 85/98/33 34/17/33
f 86/99/33 34/17/33 35/16/33 95/100/33
f 35/16/34 91/101/34 95/100/34
f 52/76/35 90/102/35 96/103/35
f 88/104/36 97/105/36 92/106/36
f 97/105/37 81/81/37 52/76/37
f 56/95/38 98/107/38 36/47/38
f 36/47/39 98/107/39 99/108/39
f 99/108/39 93/109/39 86/99/39
f 99/108/39 98/107/39 93/109/39
f 98/107/39 87/110/39 93/109/39
f 92/106/36 96/103/36 89/96/36
f 92/106/36 97/105/36 96/103/36
f 97/105/36 52/76/36 96/103/36
f 96/103/35 94/97/35 89/96/35
f 96/103/35 90/102/35 94/97/35
f 90/102/35 53/19/35 94/97/35
f 95/100/34 99/108/34 86/99/34
f 95/100/34 91/101/34 99/108/34
f 91/101/34 36/47/34 99/108/34
f 88/104/37 81/81/37 97/105/37
f 81/81/40 51/74/40 52/76/40
f 36/47/41 37/46/41 56/95/41
f 56/95/38 87/110/38 98/107/38
s 1
f 58/111/42 59/112/43 57/113/44
f 56/114/45 57/113/44 55/115/46
f 54/77/47 56/114/45 55/115/46
f 2/38/48 3/116/49 4/117/50
f 4/117/50 3/116/49 5/118/51
f 6/119/51 5/118/51 7/120/52
f 7/120/52 8/121/53 9/122/54
f 8/121/53 10/123/55 11/124/56
f 11/124/56 10/123/55 12/125/57
f 13/126/57 12/125/57 14/127/58
f 14/127/58 15/128/59 16/129/59
f 15/128/59 17/130/60 18/131/61
f 17/130/60 19/132/62 20/133/63
f 20/133/63 19/132/62 21/134/64
f 22/135/65 21/134/64 23/136/66
f 23/136/66 24/137/67 25/138/68
f 24/137/67 26/139/69 27/140/69
f 26/139/69 28/141/70 29/142/71
f 29/142/71 28/141/70 1/143/72
f 36/39/73 2/38/48 4/117/50
f 6/119/51 4/117/50 5/118/51
f 30/144/74 6/119/51 7/120/52
f 30/144/74 7/120/52 9/122/54
f 9/122/54 8/121/53 11/124/56
f 13/126/57 11/124/56 12/125/57
f 31/145/58 13/126/57 14/127/58
f 31/145/58 14/127/58 16/129/59
f 16/129/59 15/128/59 18/131/61
f 18/131/61 17/130/60 20/133/63
f 22/135/65 20/133/63 21/134/64
f 32/146/75 22/135/65 23/136/66
f 32/146/75 23/136/66 25/138/68
f 25/138/68 24/137/67 27/140/69
f 27/140/69 26/139/69 29/142/71
f 52/147/76 29/142/71 1/143/72
f 1/143/72 53/148/77 90/149/77 52/147/76
f 59/112/43 61/150/78 60/151/79
f 60/151/79 63/152/80 62/153/81
f 63/152/80 64/154/82 62/153/81
f 65/155/82 66/156/83 64/154/82
f 66/156/83 68/157/84 67/158/84
f 67/158/84 70/159/85 69/160/86
f 69/160/86 72/161/87 71/162/87
f 72/161/87 73/163/88 71/162/87
f 74/164/89 75/165/90 73/163/88
f 75/165/90 77/166/91 76/167/92
f 76/167/92 79/168/93 78/169/94
f 78/169/94 81/170/95 80/171/96
f 81/170/95 33/172/97 80/171/96
f 87/80/98 56/114/45 54/77/47
f 58/111/42 57/113/44 56/114/45
f 82/173/99 59/112/43 58/111/42
f 82/173/99 61/150/78 59/112/43
f 61/150/78 63/152/80 60/151/79
f 65/155/82 64/154/82 63/152/80
f 83/174/83 66/156/83 65/155/82
f 83/174/83 68/157/84 66/156/83
f 68/157/84 70/159/85 67/158/84
f 70/159/85 72/161/87 69/160/86
f 74/164/89 73/163/88 72/161/87
f 84/175/100 75/165/90 74/164/89
f 84/175/100 77/166/91 75/165/90
f 77/166/91 79/168/93 76/167/92
f 79/168/93 81/170/95 78/169/94
f 88/176/101 33/172/97 81/170/95
f 33/172/97 88/176/101 92/177/102 89/178/102
