# Blender 3.5.1
# www.blender.org
mtllib hollow_half_tapered_rectangle.mtl
o Cube
v -1.979966 0.059708 1.979966
v -0.590586 3.434438 0.590603
v -1.979966 0.059708 -1.979966
v -0.590586 3.434438 -0.590603
v -0.619483 3.401701 0.619483
v -0.619483 3.401701 -0.619483
v -2.000188 0.107986 -2.000188
v -2.000188 0.107986 2.000188
v -1.920567 0.059708 1.920567
v -1.920567 0.059708 -1.920567
v -1.882156 0.117672 1.882156
v -1.882156 0.117672 -1.882156
v -0.548741 3.434438 0.548741
v -0.548741 3.434438 -0.548741
v -0.518652 3.398968 0.518652
v -0.518652 3.398968 -0.518652
v -0.027219 3.434438 0.548741
v 0.000000 3.398968 0.518652
v 0.000000 0.107986 -2.000188
v 0.000000 3.401701 -0.619483
v 0.000000 0.107986 2.000188
v 0.000000 3.401701 0.619483
v -0.027219 3.434438 -0.590603
v -0.027219 3.434438 0.590603
v -0.039738 0.059708 -1.979966
v -0.039738 0.059708 1.979966
v -0.039738 0.059708 -1.920567
v -0.039738 0.059708 1.920567
v 0.000000 0.117672 -1.882156
v 0.000000 0.117672 1.882156
v -0.027219 3.434438 -0.548741
v 0.000000 3.398968 -0.518652
vn -0.9222 0.3866 -0.0000
vn -0.0000 -1.0000 -0.0000
vn -0.7497 0.6618 -0.0000
vn -0.0000 0.6616 0.7499
vn -0.9224 -0.3863 -0.0000
vn -0.0000 -0.3863 0.9224
vn -0.0000 0.6469 -0.7626
vn -0.0000 -0.5524 -0.8336
vn 0.8336 -0.5524 -0.0000
vn -0.0000 -0.5524 0.8336
vn -0.0000 1.0000 -0.0000
vn -0.0000 0.6469 0.7626
vn 0.7626 0.6469 -0.0000
vn 0.9234 -0.3837 -0.0000
vn -0.0000 -0.3863 -0.9224
vn -0.0000 0.6616 -0.7499
vn -0.0000 0.3866 -0.9222
vn -0.0000 0.3866 0.9222
vn -0.0000 -0.3837 -0.9234
vn -0.0000 -0.3837 0.9234
vn 0.7721 -0.6355 -0.0000
vn 0.8087 -0.5863 0.0481
vn 1.0000 -0.0000 -0.0000
vn 0.7863 0.6176 0.0167
vn 0.7689 0.6393 -0.0000
vn 0.8087 -0.5863 -0.0481
vn 0.7863 0.6176 -0.0167
vt 0.014854 0.537290
vt 0.995048 0.532442
vt 0.501345 0.084449
vt 0.521216 0.084918
vt 0.172056 0.957677
vt 0.339908 0.510583
vt 0.041221 0.084449
vt 0.981340 0.084918
vt 0.516669 0.534681
vt 0.496911 0.535485
vt 0.202658 0.510583
vt 0.345699 0.962994
vt 0.343264 0.505509
vt 0.168356 0.951661
vt 0.199302 0.505509
vt 0.349700 0.957628
vt 0.038871 0.090531
vt 0.501219 0.538980
vt 0.503694 0.090531
vt 0.010261 0.540394
vt 0.988146 0.539344
vt 0.528118 0.091820
vt 0.523571 0.541583
vt 0.974438 0.091820
vt 0.532581 0.099900
vt 0.983683 0.547424
vt 0.969975 0.099900
vt 0.528034 0.549663
vt 0.828747 0.965705
vt 0.177269 0.963131
vt 0.335044 0.515445
vt 0.687517 0.518182
vt 0.207522 0.515445
vt 0.682970 0.967944
vt 0.815039 0.518182
vt 0.340354 0.967710
vt 0.691013 0.512777
vt 0.825251 0.960301
vt 0.811543 0.512777
vt 0.686466 0.962540
vt 0.768149 0.965705
vt 0.239970 0.964047
vt 0.764986 0.960301
vt 0.247252 0.964185
vt 0.279180 0.543319
vt 0.277478 0.954190
vt 0.238090 0.543098
vt 0.240845 0.954666
vt 0.279988 0.958980
vt 0.238041 0.959210
vt 0.742113 0.534681
vt 0.278244 0.537896
vt 0.769603 0.532442
vt 0.239492 0.537780
vt 0.742113 0.541583
vt 0.271799 0.538059
vt 0.769603 0.539344
vt 0.245895 0.538501
vt 0.746731 0.549663
vt 0.269000 0.546868
vt 0.764986 0.547424
vt 0.247918 0.547513
vt 0.743568 0.967944
vt 0.277667 0.963779
vt 0.746731 0.962540
vt 0.270269 0.963345
s 0
f 5/13/1 7/17/1 8/19/1
f 1/4/2 10/24/2 9/22/2
f 28/57/2 1/2/2 9/21/2
f 4/11/3 5/13/3 2/6/3
f 2/5/4 5/14/4 22/48/4
f 2/5/4 22/48/4 24/50/4
f 1/3/5 7/17/5 3/7/5
f 8/20/6 1/1/6 26/54/6
f 21/47/6 8/20/6 26/54/6
f 5/13/1 6/15/1 7/17/1
f 1/2/2 28/57/2 26/53/2
f 4/11/3 6/15/3 5/13/3
f 13/29/7 17/41/7 15/38/7
f 17/41/7 18/43/7 15/38/7
f 1/3/5 8/19/5 7/17/5
f 9/21/8 11/26/8 28/57/8
f 30/61/8 28/57/8 11/26/8
f 10/24/9 11/25/9 9/22/9
f 27/55/10 12/28/10 10/23/10
f 29/59/10 12/28/10 27/55/10
f 24/50/11 13/30/11 2/5/11
f 17/42/11 13/30/11 24/50/11
f 4/11/11 13/31/11 14/33/11
f 14/34/12 16/40/12 32/65/12
f 14/34/12 32/65/12 31/63/12
f 13/32/13 16/39/13 14/35/13
f 11/25/14 12/27/14 15/37/14
f 15/37/14 12/27/14 16/39/14
f 1/4/2 3/8/2 10/24/2
f 10/23/2 3/9/2 27/55/2
f 27/55/2 3/9/2 25/51/2
f 10/24/9 12/27/9 11/25/9
f 25/52/15 3/10/15 7/18/15
f 19/45/15 25/52/15 7/18/15
f 4/12/11 14/36/11 31/64/11
f 4/12/11 31/64/11 23/49/11
f 4/11/11 2/6/11 13/31/11
f 6/16/16 4/12/16 23/49/16
f 20/46/16 6/16/16 23/49/16
f 13/32/13 15/37/13 16/39/13
f 6/16/17 19/45/17 7/18/17
f 6/16/17 20/46/17 19/45/17
f 22/48/18 5/14/18 21/47/18
f 18/43/19 30/61/19 15/38/19
f 5/14/18 8/20/18 21/47/18
f 16/40/20 12/28/20 29/59/20
f 15/38/19 30/61/19 11/26/19
f 16/40/20 29/59/20 32/65/20
f 19/45/21 27/56/21 25/52/21
f 19/45/22 29/60/22 27/56/22
f 20/46/23 29/60/23 19/45/23
f 20/46/23 32/66/23 29/60/23
f 20/46/24 31/64/24 32/66/24
f 23/49/25 31/64/25 20/46/25
f 21/47/21 26/54/21 28/58/21
f 21/47/26 28/58/26 30/62/26
f 22/48/23 21/47/23 30/62/23
f 22/48/23 30/62/23 18/44/23
f 22/48/27 18/44/27 17/42/27
f 24/50/25 22/48/25 17/42/25
