# Blender 3.5.1
# www.blender.org
mtllib hollow_cone_short.mtl
o Cylinder_Cylinder.003
v -0.001312 0.332913 -0.006592
v -0.002572 0.332913 -0.006211
v -0.003734 0.332913 -0.005589
v -0.004753 0.332913 -0.004753
v -0.005589 0.332913 -0.003735
v -0.006209 0.332913 -0.002572
v -0.006592 0.332913 -0.001312
v -0.006721 0.332913 -0.000000
v -0.006592 0.332913 0.001311
v -0.006209 0.332913 0.002572
v -0.005589 0.332913 0.003734
v -0.004753 0.332913 0.004753
v -0.003734 0.332913 0.005588
v -0.002572 0.332913 0.006209
v -0.001312 0.332913 0.006592
v 0.000000 0.332913 0.006721
v 0.001312 0.332913 0.006592
v 0.002572 0.332913 0.006209
v 0.003734 0.332913 0.005588
v 0.004753 0.332913 0.004753
v 0.005589 0.332913 0.003734
v 0.006210 0.332913 0.002572
v 0.006592 0.332913 0.001311
v 0.006722 0.332913 -0.000000
v 0.006592 0.332913 -0.001312
v 0.006210 0.332913 -0.002572
v 0.005589 0.332913 -0.003735
v 0.004753 0.332913 -0.004753
v 0.003734 0.332913 -0.005589
v 0.002572 0.332913 -0.006211
v 0.000000 0.332913 -0.006722
v 0.001312 0.332913 -0.006592
v 0.000000 0.332913 -0.000000
v 0.000000 0.342006 -0.000000
v 0.001384 0.342006 -0.006956
v 0.000000 0.342006 -0.007093
v 0.002714 0.342006 -0.006553
v 0.003940 0.342006 -0.005897
v 0.005015 0.342006 -0.005015
v 0.005897 0.342006 -0.003941
v 0.006553 0.342006 -0.002714
v 0.006956 0.342006 -0.001384
v 0.007093 0.342006 -0.000000
v 0.006956 0.342006 0.001383
v 0.006553 0.342006 0.002714
v 0.005897 0.342006 0.003940
v 0.005015 0.342006 0.005015
v 0.003940 0.342006 0.005897
v 0.002714 0.342006 0.006552
v 0.001384 0.342006 0.006956
v 0.000000 0.342006 0.007092
v -0.001384 0.342006 0.006956
v -0.002714 0.342006 0.006552
v -0.003940 0.342006 0.005897
v -0.005015 0.342006 0.005015
v -0.005897 0.342006 0.003940
v -0.006552 0.342006 0.002714
v -0.006956 0.342006 0.001383
v -0.007092 0.342006 -0.000000
v -0.006956 0.342006 -0.001384
v -0.006552 0.342006 -0.002714
v -0.005897 0.342006 -0.003941
v -0.005015 0.342006 -0.005015
v -0.003940 0.342006 -0.005897
v -0.002714 0.342006 -0.006553
v -0.001384 0.342006 -0.006956
v 0.000000 0.007100 -1.000000
v 0.000000 0.342006 -0.007093
v 0.001384 0.342006 -0.006956
v 0.195090 0.007100 -0.980785
v 0.002714 0.342006 -0.006553
v 0.003940 0.342006 -0.005897
v 0.555570 0.007100 -0.831470
v 0.005015 0.342006 -0.005015
v 0.707107 0.007100 -0.707107
v 0.005897 0.342006 -0.003941
v 0.006553 0.342006 -0.002714
v 0.923880 0.007100 -0.382683
v 0.006956 0.342006 -0.001384
v 0.980785 0.007100 -0.195090
v 0.007093 0.342006 -0.000000
v 0.006956 0.342006 0.001383
v 0.980785 0.007100 0.195090
v 0.006553 0.342006 0.002714
v 0.923880 0.007100 0.382683
v 0.005897 0.342006 0.003940
v 0.005015 0.342006 0.005015
v 0.707107 0.007100 0.707107
v 0.003940 0.342006 0.005897
v 0.002714 0.342006 0.006552
v 0.382683 0.007100 0.923880
v 0.001384 0.342006 0.006956
v 0.000000 0.342006 0.007092
v 0.000000 0.007100 1.000000
v -0.001384 0.342006 0.006956
v -0.195091 0.007100 0.980785
v -0.002714 0.342006 0.006552
v -0.382684 0.007100 0.923879
v -0.003940 0.342006 0.005897
v -0.005015 0.342006 0.005015
v -0.707107 0.007100 0.707106
v -0.005897 0.342006 0.003940
v -0.831470 0.007100 0.555570
v -0.006552 0.342006 0.002714
v -0.923880 0.007100 0.382683
v -0.006956 0.342006 0.001383
v -0.007092 0.342006 -0.000000
v -1.000000 0.007100 -0.000001
v -0.006956 0.342006 -0.001384
v -0.980785 0.007100 -0.195091
v -0.006552 0.342006 -0.002714
v -0.923879 0.007100 -0.382684
v -0.005897 0.342006 -0.003941
v -0.831469 0.007100 -0.555571
v -0.005015 0.342006 -0.005015
v -0.003940 0.342006 -0.005897
v -0.555569 0.007100 -0.831470
v -0.002714 0.342006 -0.006553
v -0.382682 0.007100 -0.923880
v -0.001384 0.342006 -0.006956
v -0.195089 0.007100 -0.980786
v 0.382683 0.007100 -0.923880
v 0.831470 0.007100 -0.555570
v 1.000000 0.007100 -0.000000
v 0.831470 0.007100 0.555570
v 0.555570 0.007100 0.831470
v 0.195090 0.007100 0.980785
v -0.555571 0.007100 0.831469
v -0.980785 0.007100 0.195089
v -0.707106 0.007100 -0.707108
v 0.000000 0.006377 -0.947712
v 0.000000 0.332913 -0.006722
v 0.001312 0.332913 -0.006592
v 0.184889 0.006377 -0.929501
v 0.002572 0.332913 -0.006211
v 0.003734 0.332913 -0.005589
v 0.526520 0.006377 -0.787994
v 0.004753 0.332913 -0.004753
v 0.670134 0.006377 -0.670134
v 0.005589 0.332913 -0.003735
v 0.006210 0.332913 -0.002572
v 0.875572 0.006377 -0.362673
v 0.006592 0.332913 -0.001312
v 0.929501 0.006377 -0.184889
v 0.006722 0.332913 -0.000000
v 0.006592 0.332913 0.001311
v 0.929501 0.006377 0.184889
v 0.006210 0.332913 0.002572
v 0.875572 0.006377 0.362673
v 0.005589 0.332913 0.003734
v 0.004753 0.332913 0.004753
v 0.670134 0.006377 0.670134
v 0.003734 0.332913 0.005588
v 0.002572 0.332913 0.006209
v 0.362673 0.006377 0.875572
v 0.001312 0.332913 0.006592
v 0.000000 0.332913 0.006721
v 0.000000 0.006377 0.947712
v -0.001312 0.332913 0.006592
v -0.184890 0.006377 0.929501
v -0.002572 0.332913 0.006209
v -0.362674 0.006377 0.875571
v -0.003734 0.332913 0.005588
v -0.004753 0.332913 0.004753
v -0.670134 0.006377 0.670133
v -0.005589 0.332913 0.003734
v -0.787994 0.006377 0.526520
v -0.006209 0.332913 0.002572
v -0.875572 0.006377 0.362673
v -0.006592 0.332913 0.001311
v -0.006721 0.332913 -0.000000
v -0.947712 0.006377 -0.000001
v -0.006592 0.332913 -0.001312
v -0.929501 0.006377 -0.184890
v -0.006209 0.332913 -0.002572
v -0.875571 0.006377 -0.362674
v -0.005589 0.332913 -0.003735
v -0.787993 0.006377 -0.526521
v -0.004753 0.332913 -0.004753
v -0.003734 0.332913 -0.005589
v -0.526519 0.006377 -0.787994
v -0.002572 0.332913 -0.006211
v -0.362672 0.006377 -0.875572
v -0.001312 0.332913 -0.006592
v -0.184888 0.006377 -0.929502
v 0.362673 0.006377 -0.875572
v 0.787994 0.006377 -0.526520
v 0.947712 0.006377 -0.000000
v 0.787994 0.006377 0.526520
v 0.526520 0.006377 0.787994
v 0.184889 0.006377 0.929501
v -0.526521 0.006377 0.787993
v -0.929501 0.006377 0.184888
v -0.670133 0.006377 -0.670135
vn -0.0000 -1.0000 -0.0000
vn -0.0000 1.0000 -0.0000
vn -0.0000 -0.1464 -0.9892
vn -0.0000 0.9476 -0.3196
vn 0.0624 0.9475 -0.3135
vn 0.1930 -0.1465 -0.9702
vn 0.1223 0.9476 -0.2952
vn 0.1776 0.9476 -0.2657
vn 0.5496 -0.1465 -0.8225
vn 0.2259 0.9475 -0.2261
vn 0.6995 -0.1464 -0.6995
vn 0.2657 0.9475 -0.1776
vn 0.2953 0.9475 -0.1223
vn 0.9139 -0.1464 -0.3786
vn 0.3135 0.9476 -0.0624
vn 0.9702 -0.1464 -0.1930
vn 0.3196 0.9476 -0.0000
vn 0.3135 0.9475 0.0624
vn 0.9702 -0.1464 0.1930
vn 0.2953 0.9475 0.1223
vn 0.9139 -0.1465 0.3786
vn 0.2657 0.9475 0.1776
vn 0.2260 0.9475 0.2260
vn 0.6995 -0.1464 0.6995
vn 0.1775 0.9476 0.2658
vn 0.1223 0.9475 0.2953
vn 0.3786 -0.1465 0.9139
vn 0.0624 0.9476 0.3134
vn -0.0000 0.9475 0.3196
vn -0.0000 -0.1465 0.9892
vn -0.0624 0.9475 0.3135
vn -0.1930 -0.1465 0.9702
vn -0.1223 0.9475 0.2953
vn -0.3786 -0.1465 0.9139
vn -0.1775 0.9476 0.2658
vn -0.2260 0.9476 0.2260
vn -0.6995 -0.1465 0.6995
vn -0.2658 0.9475 0.1775
vn -0.8225 -0.1464 0.5496
vn -0.2953 0.9475 0.1223
vn -0.9139 -0.1465 0.3786
vn -0.3135 0.9476 0.0623
vn -0.3196 0.9475 -0.0000
vn -0.9892 -0.1465 -0.0000
vn -0.3135 0.9476 -0.0624
vn -0.9702 -0.1465 -0.1930
vn -0.2953 0.9475 -0.1223
vn -0.9139 -0.1464 -0.3786
vn -0.2657 0.9476 -0.1775
vn -0.8225 -0.1465 -0.5496
vn -0.2260 0.9476 -0.2260
vn -0.1776 0.9476 -0.2657
vn -0.5496 -0.1465 -0.8225
vn -0.1223 0.9476 -0.2953
vn -0.3786 -0.1464 -0.9139
vn -0.0624 0.9476 -0.3135
vn -0.1930 -0.1465 -0.9702
vn 0.3786 -0.1465 -0.9139
vn 0.8225 -0.1465 -0.5496
vn 0.9892 -0.1465 -0.0000
vn 0.8225 -0.1465 0.5496
vn 0.5496 -0.1465 0.8225
vn 0.1930 -0.1465 0.9702
vn -0.5496 -0.1465 0.8225
vn -0.9702 -0.1465 0.1930
vn -0.6995 -0.1465 -0.6995
vn -0.0000 -0.9889 0.1488
vn -0.0640 -0.9447 0.3215
vn -0.0000 -0.9447 0.3278
vn -0.0290 -0.9889 0.1460
vn -0.1255 -0.9447 0.3029
vn -0.0827 -0.9889 0.1238
vn -0.1822 -0.9447 0.2726
vn -0.1052 -0.9889 0.1052
vn -0.2318 -0.9447 0.2319
vn -0.2725 -0.9447 0.1822
vn -0.1375 -0.9889 0.0570
vn -0.3029 -0.9447 0.1254
vn -0.1460 -0.9889 0.0290
vn -0.3215 -0.9447 0.0640
vn -0.3278 -0.9447 -0.0000
vn -0.1460 -0.9889 -0.0290
vn -0.3215 -0.9447 -0.0640
vn -0.1375 -0.9889 -0.0570
vn -0.3029 -0.9447 -0.1255
vn -0.2726 -0.9447 -0.1822
vn -0.1052 -0.9889 -0.1052
vn -0.2318 -0.9447 -0.2318
vn -0.1821 -0.9447 -0.2726
vn -0.0570 -0.9889 -0.1375
vn -0.1255 -0.9447 -0.3029
vn -0.0640 -0.9447 -0.3215
vn -0.0000 -0.9889 -0.1488
vn -0.0000 -0.9447 -0.3278
vn 0.0290 -0.9889 -0.1460
vn 0.0640 -0.9447 -0.3215
vn 0.1255 -0.9447 -0.3029
vn 0.0570 -0.9889 -0.1375
vn 0.1821 -0.9447 -0.2726
vn 0.1052 -0.9889 -0.1052
vn 0.2318 -0.9447 -0.2318
vn 0.1237 -0.9889 -0.0827
vn 0.2726 -0.9447 -0.1821
vn 0.3029 -0.9447 -0.1255
vn 0.1375 -0.9889 -0.0570
vn 0.3215 -0.9447 -0.0640
vn 0.1488 -0.9889 -0.0000
vn 0.3278 -0.9447 -0.0000
vn 0.1460 -0.9889 0.0290
vn 0.3215 -0.9447 0.0640
vn 0.1375 -0.9889 0.0570
vn 0.3029 -0.9447 0.1254
vn 0.2726 -0.9447 0.1821
vn 0.1238 -0.9889 0.0827
vn 0.2318 -0.9447 0.2319
vn 0.0827 -0.9889 0.1237
vn 0.1822 -0.9447 0.2726
vn 0.0570 -0.9889 0.1375
vn 0.1255 -0.9447 0.3029
vn 0.0290 -0.9889 0.1460
vn 0.0640 -0.9447 0.3215
vn -0.0570 -0.9889 0.1375
vn -0.1237 -0.9889 0.0827
vn -0.1488 -0.9889 -0.0000
vn -0.1237 -0.9889 -0.0827
vn -0.0827 -0.9889 -0.1237
vn -0.0290 -0.9889 -0.1460
vn 0.0827 -0.9889 -0.1237
vn 0.1460 -0.9889 -0.0290
vn 0.1052 -0.9889 0.1052
vt 0.528106 0.944203
vt 0.528328 0.944054
vt 0.528576 0.943952
vt 0.528838 0.943900
vt 0.529106 0.943900
vt 0.529368 0.943952
vt 0.529616 0.944054
vt 0.529838 0.944203
vt 0.530027 0.944392
vt 0.530176 0.944615
vt 0.530279 0.944862
vt 0.530331 0.945125
vt 0.530331 0.945392
vt 0.530279 0.945655
vt 0.530176 0.945902
vt 0.530028 0.946124
vt 0.529838 0.946314
vt 0.529616 0.946463
vt 0.529369 0.946565
vt 0.529106 0.946617
vt 0.528839 0.946617
vt 0.528576 0.946565
vt 0.528329 0.946463
vt 0.528106 0.946314
vt 0.527917 0.946125
vt 0.527768 0.945902
vt 0.527666 0.945655
vt 0.527614 0.945392
vt 0.527614 0.945125
vt 0.527666 0.944862
vt 0.527917 0.944392
vt 0.527768 0.944615
vt 0.528972 0.945258
vt 0.466600 0.878308
vt 0.465330 0.877629
vt 0.465487 0.877394
vt 0.465222 0.877890
vt 0.465167 0.878167
vt 0.465167 0.878449
vt 0.465222 0.878726
vt 0.465330 0.878987
vt 0.465487 0.879222
vt 0.465687 0.879422
vt 0.465921 0.879578
vt 0.466182 0.879687
vt 0.466459 0.879742
vt 0.466742 0.879742
vt 0.467019 0.879686
vt 0.467280 0.879578
vt 0.467514 0.879421
vt 0.467714 0.879222
vt 0.467871 0.878987
vt 0.467979 0.878726
vt 0.468034 0.878449
vt 0.468034 0.878167
vt 0.467979 0.877890
vt 0.467871 0.877629
vt 0.467714 0.877394
vt 0.467514 0.877194
vt 0.467279 0.877037
vt 0.467018 0.876929
vt 0.466741 0.876874
vt 0.466459 0.876874
vt 0.466182 0.876930
vt 0.465921 0.877038
vt 0.465687 0.877195
vt 0.108087 0.004433
vt 0.890585 0.007975
vt 0.215764 0.243007
vt 0.215461 0.243139
vt 0.055694 0.004433
vt 0.942736 0.007975
vt 0.215186 0.243321
vt 0.233071 0.741622
vt 0.232801 0.741432
vt 0.412699 0.502590
vt 0.595792 0.261016
vt 0.232502 0.741291
vt 0.356849 0.502590
vt 0.647985 0.261016
vt 0.232184 0.741203
vt 0.231856 0.741170
vt 0.235854 0.502590
vt 0.760070 0.261016
vt 0.231527 0.741194
vt 0.174241 0.502590
vt 0.816691 0.261016
vt 0.231206 0.741273
vt 0.230904 0.741406
vt 0.057728 0.502590
vt 0.922951 0.261016
vt 0.230628 0.741588
vt 0.219582 0.493345
vt 0.006230 0.502590
vt 0.427055 0.254347
vt 0.969195 0.261016
vt 0.554578 0.757257
vt 0.219307 0.493163
vt 0.219005 0.493030
vt 0.327007 0.254347
vt 0.654066 0.757257
vt 0.218684 0.492951
vt 0.218355 0.492927
vt 0.214439 0.254347
vt 0.766281 0.757257
vt 0.218027 0.492960
vt 0.217709 0.493048
vt 0.102407 0.254347
vt 0.877617 0.757257
vt 0.217410 0.493189
vt 0.050695 0.254347
vt 0.929039 0.757257
vt 0.758302 0.748410
vt 0.217140 0.493379
vt 0.003899 0.254347
vt 0.971543 0.509378
vt 0.041810 0.753360
vt 0.975209 0.757257
vt 0.758032 0.748220
vt 0.757734 0.748079
vt 0.873035 0.509378
vt 0.126290 0.753360
vt 0.757415 0.747991
vt 0.817917 0.509378
vt 0.173720 0.753360
vt 0.757087 0.747958
vt 0.761003 0.509378
vt 0.222763 0.753360
vt 0.756758 0.747982
vt 0.756437 0.748061
vt 0.648436 0.509378
vt 0.319625 0.753360
vt 0.217862 0.243591
vt 0.756135 0.748194
vt 0.596070 0.509378
vt 0.364769 0.753360
vt 0.217628 0.243358
vt 0.548387 0.509378
vt 0.431120 0.004433
vt 0.569406 0.007975
vt 0.405616 0.753360
vt 0.217358 0.243167
vt 0.384364 0.004433
vt 0.615539 0.007975
vt 0.217060 0.243026
vt 0.216742 0.242938
vt 0.277582 0.004433
vt 0.721739 0.007975
vt 0.216413 0.242904
vt 0.220675 0.004433
vt 0.778288 0.007975
vt 0.216084 0.242928
vt 0.163621 0.004433
vt 0.835179 0.007975
vt 0.007972 0.004433
vt 0.463238 0.502590
vt 0.990048 0.007975
vt 0.548494 0.261016
vt 0.297322 0.502590
vt 0.703290 0.261016
vt 0.114282 0.502590
vt 0.871528 0.261016
vt 0.379372 0.254347
vt 0.601826 0.757257
vt 0.271489 0.254347
vt 0.709484 0.757257
vt 0.157525 0.254347
vt 0.822807 0.757257
vt 0.924747 0.509378
vt 0.081823 0.753360
vt 0.703953 0.509378
vt 0.271808 0.753360
vt 0.332682 0.004433
vt 0.666937 0.007975
vt 0.885676 0.021102
vt 0.783962 0.248617
vt 0.784248 0.248741
vt 0.935419 0.021102
vt 0.784508 0.248911
vt 0.754289 0.503232
vt 0.754550 0.503061
vt 0.603126 0.275341
vt 0.754835 0.502937
vt 0.652904 0.275341
vt 0.755138 0.502863
vt 0.755449 0.502842
vt 0.759853 0.275341
vt 0.755758 0.502874
vt 0.813904 0.275341
vt 0.756059 0.502957
vt 0.756340 0.503090
vt 0.915251 0.275341
vt 0.756595 0.503270
vt 0.760351 0.998290
vt 0.959196 0.275341
vt 0.564226 0.770382
vt 0.760613 0.998119
vt 0.760898 0.997995
vt 0.658991 0.770382
vt 0.761201 0.997921
vt 0.761512 0.997900
vt 0.766037 0.770382
vt 0.761822 0.997931
vt 0.762122 0.998015
vt 0.872288 0.770382
vt 0.762403 0.998148
vt 0.921318 0.770382
vt 0.225988 0.994461
vt 0.762658 0.998327
vt 0.050432 0.766500
vt 0.965252 0.770382
vt 0.226244 0.994282
vt 0.226525 0.994149
vt 0.130866 0.766500
vt 0.226826 0.994065
vt 0.176143 0.766500
vt 0.227135 0.994034
vt 0.222930 0.766500
vt 0.227446 0.994055
vt 0.227749 0.994129
vt 0.315365 0.766500
vt 0.781981 0.249172
vt 0.228034 0.994253
vt 0.358408 0.766500
vt 0.782202 0.248952
vt 0.579377 0.021102
vt 0.397273 0.766500
vt 0.782457 0.248772
vt 0.623276 0.021102
vt 0.782738 0.248638
vt 0.783039 0.248554
vt 0.724551 0.021102
vt 0.783348 0.248522
vt 0.778544 0.021102
vt 0.783659 0.248544
vt 0.832816 0.021102
vt 0.980380 0.021102
vt 0.558179 0.275341
vt 0.705655 0.275341
vt 0.866205 0.275341
vt 0.609182 0.770382
vt 0.711832 0.770382
vt 0.820012 0.770382
vt 0.088505 0.766500
vt 0.269757 0.766500
vt 0.672283 0.021102
s 1
usemtl None
f 33/33/1 1/1/1 31/31/1
f 33/33/1 2/2/1 1/1/1
f 33/33/1 3/3/1 2/2/1
f 33/33/1 4/4/1 3/3/1
f 33/33/1 5/5/1 4/4/1
f 33/33/1 6/6/1 5/5/1
f 33/33/1 7/7/1 6/6/1
f 33/33/1 8/8/1 7/7/1
f 33/33/1 9/9/1 8/8/1
f 33/33/1 10/10/1 9/9/1
f 33/33/1 11/11/1 10/10/1
f 33/33/1 12/12/1 11/11/1
f 33/33/1 13/13/1 12/12/1
f 33/33/1 14/14/1 13/13/1
f 33/33/1 15/15/1 14/14/1
f 33/33/1 16/16/1 15/15/1
f 33/33/1 17/17/1 16/16/1
f 33/33/1 18/18/1 17/17/1
f 33/33/1 19/19/1 18/18/1
f 33/33/1 20/20/1 19/19/1
f 33/33/1 21/21/1 20/20/1
f 33/33/1 22/22/1 21/21/1
f 33/33/1 23/23/1 22/22/1
f 33/33/1 24/24/1 23/23/1
f 33/33/1 25/25/1 24/24/1
f 33/33/1 26/26/1 25/25/1
f 33/33/1 27/27/1 26/26/1
f 33/33/1 28/28/1 27/27/1
f 33/33/1 29/29/1 28/28/1
f 33/33/1 30/30/1 29/29/1
f 33/33/1 32/32/1 30/30/1
f 33/33/1 31/31/1 32/32/1
f 34/34/2 35/35/2 36/36/2
f 34/34/2 37/37/2 35/35/2
f 34/34/2 38/38/2 37/37/2
f 34/34/2 39/39/2 38/38/2
f 34/34/2 40/40/2 39/39/2
f 34/34/2 41/41/2 40/40/2
f 34/34/2 42/42/2 41/41/2
f 34/34/2 43/43/2 42/42/2
f 34/34/2 44/44/2 43/43/2
f 34/34/2 45/45/2 44/44/2
f 34/34/2 46/46/2 45/45/2
f 34/34/2 47/47/2 46/46/2
f 34/34/2 48/48/2 47/47/2
f 34/34/2 49/49/2 48/48/2
f 34/34/2 50/50/2 49/49/2
f 34/34/2 51/51/2 50/50/2
f 34/34/2 52/52/2 51/51/2
f 34/34/2 53/53/2 52/52/2
f 34/34/2 54/54/2 53/53/2
f 34/34/2 55/55/2 54/54/2
f 34/34/2 56/56/2 55/55/2
f 34/34/2 57/57/2 56/56/2
f 34/34/2 58/58/2 57/57/2
f 34/34/2 59/59/2 58/58/2
f 34/34/2 60/60/2 59/59/2
f 34/34/2 61/61/2 60/60/2
f 34/34/2 62/62/2 61/61/2
f 34/34/2 63/63/2 62/62/2
f 34/34/2 64/64/2 63/63/2
f 34/34/2 65/65/2 64/64/2
f 34/34/2 66/66/2 65/65/2
f 34/34/2 36/36/2 66/66/2
f 67/67/3 68/69/4 69/70/5
f 70/71/6 69/70/5 71/73/7
f 71/74/7 72/75/8 73/76/9
f 72/75/8 74/78/10 75/79/11
f 75/79/11 74/78/10 76/81/12
f 76/81/12 77/82/13 78/83/14
f 77/82/13 79/85/15 80/86/16
f 80/86/16 79/85/15 81/88/17
f 81/88/17 82/89/18 83/90/19
f 82/89/18 84/92/20 85/94/21
f 85/95/21 84/93/20 86/98/22
f 86/98/22 87/99/23 88/100/24
f 88/100/24 87/99/23 89/102/25
f 89/102/25 90/103/26 91/104/27
f 91/104/27 90/103/26 92/106/28
f 92/106/28 93/107/29 94/108/30
f 93/107/29 95/110/31 96/111/32
f 96/111/32 95/110/31 97/114/33
f 98/116/34 97/113/33 99/119/35
f 99/119/35 100/120/36 101/121/37
f 100/120/36 102/123/38 103/124/39
f 103/124/39 102/123/38 104/126/40
f 105/127/41 104/126/40 106/129/42
f 106/129/42 107/130/43 108/131/44
f 107/130/43 109/134/45 110/135/46
f 109/133/45 111/137/47 112/139/48
f 112/139/48 111/137/47 113/142/49
f 114/143/50 113/142/49 115/145/51
f 115/145/51 116/146/52 117/147/53
f 116/146/52 118/149/54 119/150/55
f 118/149/54 120/152/56 121/153/57
f 121/153/57 120/152/56 68/69/4
f 70/71/6 67/67/3 69/70/5
f 122/155/58 70/71/6 71/73/7
f 122/156/58 71/74/7 73/76/9
f 73/76/9 72/75/8 75/79/11
f 123/159/59 75/79/11 76/81/12
f 123/159/59 76/81/12 78/83/14
f 78/83/14 77/82/13 80/86/16
f 124/161/60 80/86/16 81/88/17
f 124/161/60 81/88/17 83/90/19
f 83/90/19 82/89/18 85/94/21
f 125/163/61 85/95/21 86/98/22
f 125/163/61 86/98/22 88/100/24
f 126/165/62 88/100/24 89/102/25
f 126/165/62 89/102/25 91/104/27
f 127/167/63 91/104/27 92/106/28
f 127/167/63 92/106/28 94/108/30
f 94/108/30 93/107/29 96/111/32
f 98/115/34 96/111/32 97/114/33
f 128/169/64 98/116/34 99/119/35
f 128/169/64 99/119/35 101/121/37
f 101/121/37 100/120/36 103/124/39
f 105/127/41 103/124/39 104/126/40
f 129/171/65 105/127/41 106/129/42
f 129/171/65 106/129/42 108/131/44
f 108/131/44 107/130/43 110/135/46
f 110/135/46 109/134/45 112/138/48
f 114/143/50 112/139/48 113/142/49
f 130/173/66 114/143/50 115/145/51
f 130/173/66 115/145/51 117/147/53
f 117/147/53 116/146/52 119/150/55
f 119/150/55 118/149/54 121/153/57
f 67/67/3 121/153/57 68/69/4
f 131/175/67 133/177/68 132/176/69
f 134/178/70 135/179/71 133/177/68
f 135/180/71 137/182/72 136/181/73
f 136/181/73 139/184/74 138/183/75
f 139/184/74 140/185/76 138/183/75
f 140/185/76 142/187/77 141/186/78
f 141/186/78 144/189/79 143/188/80
f 144/189/79 145/190/81 143/188/80
f 145/190/81 147/192/82 146/191/83
f 146/191/83 149/195/84 148/193/85
f 149/196/84 150/197/86 148/194/85
f 150/197/86 152/199/87 151/198/88
f 152/199/87 153/200/89 151/198/88
f 153/200/89 155/202/90 154/201/91
f 155/202/90 156/203/92 154/201/91
f 156/203/92 158/205/93 157/204/94
f 157/204/94 160/207/95 159/206/96
f 160/207/95 161/209/97 159/206/96
f 162/210/98 163/212/99 161/208/97
f 163/212/99 165/214/100 164/213/101
f 164/213/101 167/216/102 166/215/103
f 167/216/102 168/217/104 166/215/103
f 169/218/105 170/219/106 168/217/104
f 170/219/106 172/221/107 171/220/108
f 171/220/108 174/224/109 173/223/110
f 173/222/110 176/226/111 175/225/112
f 176/226/111 177/228/113 175/225/112
f 178/229/114 179/230/115 177/228/113
f 179/230/115 181/232/116 180/231/117
f 180/231/117 183/234/118 182/233/119
f 182/233/119 185/236/120 184/235/121
f 185/236/120 132/176/69 184/235/121
f 134/178/70 133/177/68 131/175/67
f 186/237/122 135/179/71 134/178/70
f 186/238/122 137/182/72 135/180/71
f 137/182/72 139/184/74 136/181/73
f 187/239/123 140/185/76 139/184/74
f 187/239/123 142/187/77 140/185/76
f 142/187/77 144/189/79 141/186/78
f 188/240/124 145/190/81 144/189/79
f 188/240/124 147/192/82 145/190/81
f 147/192/82 149/195/84 146/191/83
f 189/241/125 150/197/86 149/196/84
f 189/241/125 152/199/87 150/197/86
f 190/242/126 153/200/89 152/199/87
f 190/242/126 155/202/90 153/200/89
f 191/243/127 156/203/92 155/202/90
f 191/243/127 158/205/93 156/203/92
f 158/205/93 160/207/95 157/204/94
f 162/211/98 161/209/97 160/207/95
f 192/244/128 163/212/99 162/210/98
f 192/244/128 165/214/100 163/212/99
f 165/214/100 167/216/102 164/213/101
f 169/218/105 168/217/104 167/216/102
f 193/245/129 170/219/106 169/218/105
f 193/245/129 172/221/107 170/219/106
f 172/221/107 174/224/109 171/220/108
f 174/224/109 176/227/111 173/223/110
f 178/229/114 177/228/113 176/226/111
f 194/246/130 179/230/115 178/229/114
f 194/246/130 181/232/116 179/230/115
f 181/232/116 183/234/118 180/231/117
f 183/234/118 185/236/120 182/233/119
f 131/175/67 132/176/69 185/236/120
f 70/72/6 131/175/67 67/68/3
f 188/240/124 144/189/79 80/87/16
f 131/175/67 185/236/120 67/68/3
f 127/168/63 191/243/127 155/202/90
f 119/151/55 121/154/57 185/236/120
f 70/72/6 122/157/58 186/237/122
f 119/151/55 185/236/120 183/234/118
f 134/178/70 70/72/6 186/237/122
f 117/148/53 119/151/55 183/234/118
f 186/238/122 122/158/58 73/77/9
f 117/148/53 183/234/118 181/232/116
f 137/182/72 186/238/122 73/77/9
f 181/232/116 194/246/130 117/148/53
f 75/80/11 139/184/74 73/77/9
f 185/236/120 121/154/57 67/68/3
f 114/144/50 130/174/66 194/246/130
f 139/184/74 75/80/11 123/160/59
f 114/144/50 194/246/130 178/229/114
f 187/239/123 139/184/74 123/160/59
f 112/140/48 114/144/50 178/229/114
f 78/84/14 142/187/77 123/160/59
f 112/140/48 178/229/114 176/226/111
f 139/184/74 137/182/72 73/77/9
f 176/227/111 174/224/109 112/141/48
f 142/187/77 78/84/14 80/87/16
f 98/117/34 128/170/64 192/244/128
f 144/189/79 142/187/77 80/87/16
f 174/224/109 172/221/107 110/136/46
f 124/162/60 188/240/124 80/87/16
f 142/187/77 187/239/123 123/160/59
f 83/91/19 147/192/82 188/240/124
f 129/172/65 108/132/44 172/221/107
f 129/172/65 172/221/107 193/245/129
f 124/162/60 83/91/19 188/240/124
f 101/122/37 103/125/39 167/216/102
f 129/172/65 193/245/129 169/218/105
f 149/195/84 147/192/82 83/91/19
f 105/128/41 129/172/65 169/218/105
f 149/195/84 83/91/19 85/96/21
f 105/128/41 169/218/105 167/216/102
f 189/241/125 149/196/84 85/97/21
f 103/125/39 105/128/41 167/216/102
f 189/241/125 85/97/21 125/164/61
f 165/214/100 101/122/37 167/216/102
f 152/199/87 189/241/125 125/164/61
f 91/105/27 155/202/90 190/242/126
f 152/199/87 125/164/61 88/101/24
f 101/122/37 165/214/100 192/244/128
f 88/101/24 126/166/62 152/199/87
f 128/170/64 101/122/37 192/244/128
f 172/221/107 108/132/44 110/136/46
f 162/210/98 98/117/34 192/244/128
f 126/166/62 91/105/27 190/242/126
f 126/166/62 190/242/126 152/199/87
f 174/224/109 110/136/46 112/141/48
f 98/118/34 162/211/98 160/207/95
f 91/105/27 127/168/63 155/202/90
f 96/112/32 98/118/34 160/207/95
f 194/246/130 130/174/66 117/148/53
f 96/112/32 160/207/95 158/205/93
f 158/205/93 191/243/127 127/168/63
f 127/168/63 94/109/30 158/205/93
f 134/178/70 131/175/67 70/72/6
f 94/109/30 96/112/32 158/205/93
