# Blender 3.5.1
# www.blender.org
mtllib hollow_tapered_rectangle.mtl
o Cube
v -1.979966 0.059708 1.979966
v -0.590586 3.434438 0.590603
v -1.979966 0.059708 -1.979966
v -0.590586 3.434438 -0.590603
v 1.979966 0.059708 1.979966
v 0.590586 3.434438 0.590603
v 1.979966 0.059708 -1.979966
v 0.590586 3.434438 -0.590603
v -0.619483 3.401701 0.619483
v -0.619483 3.401701 -0.619483
v 0.619483 3.401701 -0.619483
v 0.619483 3.401701 0.619483
v -2.000188 0.107986 -2.000188
v -2.000188 0.107986 2.000188
v 2.000188 0.107986 -2.000188
v 2.000188 0.107986 2.000188
v -1.920567 0.059708 1.920567
v -1.920567 0.059708 -1.920567
v 1.920567 0.059708 1.920567
v 1.920567 0.059708 -1.920567
v -1.882156 0.117672 1.882156
v -1.882156 0.117672 -1.882156
v 1.882156 0.117672 1.882156
v 1.882156 0.117672 -1.882156
v -0.548741 3.434438 0.548741
v -0.548741 3.434438 -0.548741
v 0.548741 3.434438 0.548741
v 0.548741 3.434438 -0.548741
v -0.518652 3.398968 0.518652
v -0.518652 3.398968 -0.518652
v 0.518652 3.398968 0.518652
v 0.518652 3.398968 -0.518652
vn -0.9222 0.3866 -0.0000
vn -0.0000 0.3866 -0.9222
vn 0.9222 0.3866 -0.0000
vn -0.0000 0.3866 0.9222
vn -0.0000 -1.0000 -0.0000
vn -0.7497 0.6618 -0.0000
vn -0.0000 0.6616 -0.7499
vn 0.7497 0.6618 -0.0000
vn -0.0000 0.6616 0.7499
vn -0.9224 -0.3863 -0.0000
vn -0.0000 -0.3863 -0.9224
vn 0.9224 -0.3863 -0.0000
vn -0.0000 -0.3863 0.9224
vn 0.8336 -0.5524 -0.0000
vn -0.0000 -0.5524 -0.8336
vn -0.0000 -0.5524 0.8336
vn -0.8336 -0.5524 -0.0000
vn -0.0000 1.0000 -0.0000
vn -0.0000 0.6469 -0.7626
vn -0.0000 0.6469 0.7626
vn -0.7626 0.6469 -0.0000
vn 0.7626 0.6469 -0.0000
vn -0.0000 -0.3837 -0.9234
vn 0.9234 -0.3837 -0.0000
vn -0.0000 -0.3837 0.9234
vn -0.9234 -0.3837 -0.0000
vt 0.002963 0.001186
vt 0.994950 0.342521
vt 0.328662 0.561346
vt 0.348405 0.336441
vt 0.123353 0.318965
vt 0.874562 0.660302
vt 0.651822 0.342521
vt 0.667991 0.139264
vt 0.671789 0.561346
vt 0.655760 0.001169
vt 0.547601 0.457044
vt 0.772210 0.660302
vt 0.003099 0.677679
vt 0.346091 0.001186
vt 0.999739 0.675727
vt 0.005277 0.336441
vt 0.225701 0.318965
vt 0.123487 0.995460
vt 0.324863 0.139264
vt 0.346226 0.677679
vt 0.998887 0.001169
vt 0.656612 0.675727
vt 0.445253 0.457044
vt 0.225838 0.995460
vt 0.877064 0.656518
vt 0.120849 0.315183
vt 0.769708 0.656518
vt 0.550105 0.453261
vt 0.442749 0.453261
vt 0.228341 0.991676
vt 0.120985 0.991676
vt 0.228205 0.315183
vt 0.650070 0.347057
vt 0.669743 0.143800
vt 0.996702 0.347057
vt 0.001211 0.005721
vt 0.323111 0.143800
vt 0.347979 0.682215
vt 0.001347 0.682215
vt 0.347843 0.005721
vt 0.333808 0.566493
vt 0.343258 0.341588
vt 0.660907 0.006316
vt 0.666642 0.566493
vt 0.010424 0.341588
vt 0.994592 0.680874
vt 0.661759 0.680874
vt 0.993740 0.006316
vt 0.337137 0.572518
vt 0.339930 0.347613
vt 0.663314 0.572518
vt 0.664235 0.012341
vt 0.013753 0.347613
vt 0.991264 0.686899
vt 0.990412 0.012341
vt 0.665087 0.686899
vt 0.224390 0.659537
vt 0.126979 0.322593
vt 0.870934 0.663928
vt 0.452677 0.884442
vt 0.775838 0.663928
vt 0.547773 0.884442
vt 0.543975 0.460671
vt 0.779775 0.324266
vt 0.127114 0.999086
vt 0.875724 0.998824
vt 0.222075 0.322593
vt 0.129293 0.659537
vt 0.874872 0.324266
vt 0.448879 0.460671
vt 0.222211 0.999086
vt 0.780627 0.998824
vt 0.221782 0.655507
vt 0.455284 0.880412
vt 0.782382 0.320236
vt 0.545166 0.880412
vt 0.131900 0.655507
vt 0.873116 0.994793
vt 0.872265 0.320236
vt 0.783234 0.994793
s 0
f 9/25/1 13/33/1 14/35/1
f 10/28/2 15/37/2 13/34/2
f 11/30/3 16/39/3 15/38/3
f 12/32/4 14/36/4 16/40/4
f 1/3/5 18/44/5 17/41/5
f 3/10/5 20/48/5 18/43/5
f 4/12/6 9/25/6 2/6/6
f 8/23/7 10/28/7 4/11/7
f 6/18/8 11/30/8 8/24/8
f 2/5/9 12/32/9 6/17/9
f 1/2/10 13/33/10 3/7/10
f 3/8/11 15/37/11 7/19/11
f 7/20/12 16/39/12 5/13/12
f 5/14/13 14/36/13 1/1/13
f 9/25/1 10/27/1 13/33/1
f 10/28/2 11/29/2 15/37/2
f 11/30/3 12/31/3 16/39/3
f 12/32/4 9/26/4 14/36/4
f 7/22/5 19/46/5 20/47/5
f 5/16/5 17/42/5 19/45/5
f 4/12/6 10/27/6 9/25/6
f 8/23/7 11/29/7 10/28/7
f 6/18/8 12/31/8 11/30/8
f 2/5/9 9/26/9 12/32/9
f 1/2/10 14/35/10 13/33/10
f 3/8/11 13/34/11 15/37/11
f 7/20/12 15/38/12 16/39/12
f 5/14/13 16/40/13 14/36/13
f 18/44/14 21/49/14 17/41/14
f 17/42/15 23/53/15 19/45/15
f 20/48/16 22/52/16 18/43/16
f 19/46/17 24/56/17 20/47/17
f 6/17/18 25/58/18 2/5/18
f 4/11/18 28/70/18 8/23/18
f 6/18/18 28/71/18 27/65/18
f 4/12/18 25/59/18 26/61/18
f 27/68/19 29/73/19 25/57/19
f 26/64/20 32/79/20 28/69/20
f 28/72/21 31/78/21 27/66/21
f 25/60/22 30/76/22 26/62/22
f 23/53/23 29/73/23 31/77/23
f 23/53/23 21/50/23 29/73/23
f 21/49/24 22/51/24 29/74/24
f 29/74/24 22/51/24 30/76/24
f 22/52/25 24/55/25 30/75/25
f 30/75/25 24/55/25 32/79/25
f 24/56/26 23/54/26 32/80/26
f 32/80/26 23/54/26 31/78/26
f 1/3/5 3/9/5 18/44/5
f 3/10/5 7/21/5 20/48/5
f 7/22/5 5/15/5 19/46/5
f 5/16/5 1/4/5 17/42/5
f 18/44/14 22/51/14 21/49/14
f 17/42/15 21/50/15 23/53/15
f 20/48/16 24/55/16 22/52/16
f 19/46/17 23/54/17 24/56/17
f 6/17/18 27/67/18 25/58/18
f 4/11/18 26/63/18 28/70/18
f 6/18/18 8/24/18 28/71/18
f 4/12/18 2/6/18 25/59/18
f 27/68/19 31/77/19 29/73/19
f 26/64/20 30/75/20 32/79/20
f 28/72/21 32/80/21 31/78/21
f 25/60/22 29/74/22 30/76/22
