# Blender v2.80 (sub 75) OBJ File: 'hollow_triangle.blend'
# www.blender.org
mtllib hollow_triangle.mtl
o Cylinder
v 0.000000 1.879694 -1.930450
v 0.000000 1.879694 0.445000
v 1.299038 -0.370307 -1.930450
v 1.299038 -0.370307 0.445000
v -1.299038 -0.370306 -1.930450
v -1.299038 -0.370306 0.445000
v -0.000000 1.715172 -1.930829
v -0.000000 1.715172 0.445379
v 1.143568 -0.368046 -1.930829
v 1.143568 -0.368046 0.445379
v -1.143568 -0.368094 -1.930829
v -1.143568 -0.368094 0.445379
vt 0.648460 0.373838
vt 0.325680 0.374620
vt 0.324824 0.021589
vt 0.647604 0.020807
vt 0.661868 0.010944
vt 0.661869 0.333867
vt 0.984752 0.333867
vt 0.984752 0.010944
vt 0.001541 0.022373
vt 0.324322 0.021590
vt 0.325177 0.374621
vt 0.002397 0.375403
vt 0.982230 0.670856
vt 0.982230 0.347939
vt 0.659346 0.347939
vt 0.659346 0.670856
vt 0.001439 0.001245
vt 0.324322 0.000463
vt 0.806711 0.989802
vt 0.806878 0.967447
vt 0.964376 0.685537
vt 0.985503 0.685394
vt 0.632479 0.682761
vt 0.653601 0.683226
vt 0.324721 0.000461
vt 0.647604 -0.000321
vt 0.337660 0.731247
vt 0.337827 0.708892
vt 0.495326 0.426986
vt 0.516453 0.426837
vt 0.163428 0.424206
vt 0.184551 0.424664
vn 0.8660 0.5000 -0.0000
vn 0.8766 -0.4812 0.0000
vn -0.8660 0.5000 -0.0000
vn -0.8766 -0.4812 0.0000
vn 0.0142 -0.9999 0.0000
vn -0.0031 0.0017 -1.0000
vn 0.0031 0.0017 -1.0000
vn -0.0145 -0.9999 0.0000
vn 0.0031 0.0017 1.0000
vn -0.0031 0.0017 1.0000
usemtl None
s off
f 1/1/1 2/2/1 4/3/1 3/4/1
f 11/5/2 7/6/2 8/7/2 12/8/2
f 5/9/3 6/10/3 2/11/3 1/12/3
f 7/13/4 9/14/4 10/15/4 8/16/4
f 5/9/5 11/17/5 12/18/5 6/10/5
f 1/19/6 7/20/6 11/21/6 5/22/6
f 3/23/7 9/24/7 7/20/7 1/19/7
f 4/3/8 10/25/8 9/26/8 3/4/8
f 2/27/9 8/28/9 10/29/9 4/30/9
f 6/31/10 12/32/10 8/28/10 2/27/10
