# Blender v2.80 (sub 75) OBJ File: 'octagon_tall.blend'
# www.blender.org
mtllib octagon_tall.mtl
o Cylinder
v 0.000000 -1.140000 -5.960000
v 0.000000 1.140000 -5.960000
v 4.214356 -1.140000 -4.214356
v 4.214356 1.140000 -4.214356
v 5.960000 -1.140000 0.000000
v 5.960000 1.140000 0.000000
v 4.214356 -1.140000 4.214356
v 4.214356 1.140000 4.214356
v -0.000001 -1.140000 5.960000
v -0.000001 1.140000 5.960000
v -4.214357 -1.140000 4.214355
v -4.214357 1.140000 4.214355
v -5.960000 -1.140000 -0.000000
v -5.960000 1.140000 -0.000000
v -4.214357 -1.140000 -4.214356
v -4.214357 1.140000 -4.214356
v 4.214356 11.656804 -4.214356
v 0.000000 11.656804 -5.960000
v 5.960000 11.656804 0.000000
v 4.214356 11.656804 4.214356
v -0.000001 11.656804 5.960000
v -4.214357 11.656804 4.214355
v -5.960000 11.656804 -0.000000
v -4.214357 11.656804 -4.214356
vt 0.749940 0.062583
vt 0.624970 0.000120
vt 0.749940 0.000120
vt 0.624970 0.062583
vt 0.500000 0.000120
vt 0.500000 0.062583
vt 0.375030 0.000120
vt 0.375030 0.062583
vt 0.250060 0.000120
vt 0.250060 0.062583
vt 0.125090 0.000120
vt 0.125090 0.062583
vt 0.000120 0.000120
vt 0.624970 0.350703
vt 0.999880 0.062583
vt 0.874910 0.000120
vt 0.999880 0.000120
vt 0.874910 0.062583
vt 0.515401 0.652647
vt 0.302063 0.564280
vt 0.390430 0.350942
vt 0.749940 0.350703
vt 0.125090 0.350703
vt 0.500000 0.350703
vt 0.874910 0.350703
vt 0.250060 0.350703
vt 0.515401 0.350942
vt 0.603768 0.439310
vt 0.603768 0.564280
vt 0.390430 0.652647
vt 0.302063 0.439310
vt 0.000120 0.062583
vt 0.213457 0.652647
vt 0.000120 0.564280
vt 0.088487 0.350942
vt 0.088487 0.652647
vt 0.000120 0.439310
vt 0.213457 0.350942
vt 0.301824 0.439310
vt 0.301824 0.564280
vt 0.375030 0.350703
vt 0.000120 0.350703
vt 0.999880 0.350703
vn 0.3827 0.0000 -0.9239
vn 0.9239 0.0000 -0.3827
vn 0.9239 0.0000 0.3827
vn 0.3827 0.0000 0.9239
vn -0.3827 0.0000 0.9239
vn -0.9239 0.0000 0.3827
vn -0.9239 0.0000 -0.3827
vn -0.3827 0.0000 -0.9239
vn 0.0000 -1.0000 0.0000
vn 0.0000 1.0000 0.0000
usemtl None
s off
f 2/1/1 3/2/1 1/3/1
f 4/4/2 5/5/2 3/2/2
f 6/6/3 7/7/3 5/5/3
f 8/8/4 9/9/4 7/7/4
f 10/10/5 11/11/5 9/9/5
f 12/12/6 13/13/6 11/11/6
f 2/1/1 17/14/1 4/4/1
f 14/15/7 15/16/7 13/17/7
f 16/18/8 1/3/8 15/16/8
f 7/19/9 11/20/9 15/21/9
f 16/18/8 18/22/8 2/1/8
f 10/10/5 22/23/5 12/12/5
f 4/4/2 19/24/2 6/6/2
f 14/15/7 24/25/7 16/18/7
f 8/8/4 21/26/4 10/10/4
f 15/21/9 1/27/9 3/28/9
f 3/28/9 5/29/9 7/19/9
f 7/19/9 9/30/9 11/20/9
f 11/20/9 13/31/9 15/21/9
f 15/21/9 3/28/9 7/19/9
f 2/1/1 4/4/1 3/2/1
f 4/4/2 6/6/2 5/5/2
f 6/6/3 8/8/3 7/7/3
f 8/8/4 10/10/4 9/9/4
f 10/10/5 12/12/5 11/11/5
f 12/12/6 14/32/6 13/13/6
f 14/15/7 16/18/7 15/16/7
f 16/18/8 2/1/8 1/3/8
f 19/33/10 18/34/10 23/35/10
f 19/33/10 17/36/10 18/34/10
f 18/34/10 24/37/10 23/35/10
f 23/35/10 22/38/10 19/33/10
f 22/38/10 21/39/10 19/33/10
f 21/39/10 20/40/10 19/33/10
f 6/6/3 20/41/3 8/8/3
f 12/12/6 23/42/6 14/32/6
f 2/1/1 18/22/1 17/14/1
f 16/18/8 24/25/8 18/22/8
f 10/10/5 21/26/5 22/23/5
f 4/4/2 17/14/2 19/24/2
f 14/15/7 23/43/7 24/25/7
f 8/8/4 20/41/4 21/26/4
f 6/6/3 19/24/3 20/41/3
f 12/12/6 22/23/6 23/42/6
