# Blender 3.5.1
# www.blender.org
mtllib post_round_edged.mtl
o Cylinder
v 0.000000 -0.055439 -0.073179
v 0.000000 3.749867 -0.073179
v 0.014277 -0.055439 -0.071773
v 0.014277 3.749867 -0.071773
v 0.028004 -0.055439 -0.067609
v 0.028004 3.749867 -0.067609
v 0.040656 -0.055439 -0.060846
v 0.040656 3.749867 -0.060846
v 0.051745 -0.055439 -0.051745
v 0.051745 3.749867 -0.051745
v 0.060846 -0.055439 -0.040656
v 0.060846 3.749867 -0.040656
v 0.067609 -0.055439 -0.028004
v 0.067609 3.749867 -0.028004
v 0.071773 -0.055439 -0.014277
v 0.071773 3.749867 -0.014277
v 0.073179 -0.055439 0.000000
v 0.073179 3.749867 0.000000
v 0.071773 -0.055439 0.014277
v 0.071773 3.749867 0.014277
v 0.067609 -0.055439 0.028004
v 0.067609 3.749867 0.028004
v 0.060846 -0.055439 0.040656
v 0.060846 3.749867 0.040656
v 0.051745 -0.055439 0.051745
v 0.051745 3.749867 0.051745
v 0.040656 -0.055439 0.060846
v 0.040656 3.749867 0.060846
v 0.028004 -0.055439 0.067609
v 0.028004 3.749867 0.067609
v 0.014277 -0.055439 0.071773
v 0.014277 3.749867 0.071773
v 0.000000 -0.055439 0.073179
v 0.000000 3.749867 0.073179
v -0.014277 -0.055439 0.071773
v -0.014277 3.749867 0.071773
v -0.028004 -0.055439 0.067609
v -0.028004 3.749867 0.067609
v -0.040656 -0.055439 0.060846
v -0.040656 3.749867 0.060846
v -0.051745 -0.055439 0.051745
v -0.051745 3.749867 0.051745
v -0.060846 -0.055439 0.040656
v -0.060846 3.749867 0.040656
v -0.067609 -0.055439 0.028004
v -0.067609 3.749867 0.028004
v -0.071773 -0.055439 0.014277
v -0.071773 3.749867 0.014277
v -0.073179 -0.055439 0.000000
v -0.073179 3.749867 0.000000
v -0.071773 -0.055439 -0.014277
v -0.071773 3.749867 -0.014277
v -0.067609 -0.055439 -0.028004
v -0.067609 3.749867 -0.028004
v -0.060846 -0.055439 -0.040656
v -0.060846 3.749867 -0.040656
v -0.051745 -0.055439 -0.051745
v -0.051745 3.749867 -0.051745
v -0.040656 -0.055439 -0.060846
v -0.040656 3.749867 -0.060846
v -0.028004 -0.055439 -0.067609
v -0.028004 3.749867 -0.067609
v -0.014277 -0.055439 -0.071773
v -0.014277 3.749867 -0.071773
v 0.000000 1.835455 -0.073179
v 0.014277 1.835455 -0.071773
v 0.028004 1.835455 -0.067609
v 0.040656 1.835455 -0.060846
v 0.051745 1.835455 -0.051745
v 0.060846 1.835455 -0.040656
v 0.067609 1.835455 -0.028004
v 0.071773 1.835455 -0.014277
v 0.073179 1.835455 0.000000
v 0.071773 1.835455 0.014277
v 0.067609 1.835455 0.028004
v 0.060846 1.835455 0.040656
v 0.051745 1.835455 0.051745
v 0.040656 1.835455 0.060846
v 0.028004 1.835455 0.067609
v 0.014277 1.835455 0.071773
v 0.000000 1.835455 0.073179
v -0.014277 1.835455 0.071773
v -0.028004 1.835455 0.067609
v -0.040656 1.835455 0.060846
v -0.051745 1.835455 0.051745
v -0.060846 1.835455 0.040656
v -0.067609 1.835455 0.028004
v -0.071773 1.835455 0.014277
v -0.073179 1.835455 0.000000
v -0.071773 1.835455 -0.014277
v -0.067609 1.835455 -0.028004
v -0.060846 1.835455 -0.040656
v -0.051745 1.835455 -0.051745
v -0.040656 1.835455 -0.060846
v -0.028004 1.835455 -0.067609
v -0.014277 1.835455 -0.071773
vn 0.0980 -0.0000 -0.9952
vn 0.2903 -0.0000 -0.9569
vn 0.4714 -0.0000 -0.8819
vn 0.6344 -0.0000 -0.7730
vn 0.7730 -0.0000 -0.6344
vn 0.8819 -0.0000 -0.4714
vn 0.9569 -0.0000 -0.2903
vn 0.9952 -0.0000 -0.0980
vn 0.9952 -0.0000 0.0980
vn 0.9569 -0.0000 0.2903
vn 0.8819 -0.0000 0.4714
vn 0.7730 -0.0000 0.6344
vn 0.6344 -0.0000 0.7730
vn 0.4714 -0.0000 0.8819
vn 0.2903 -0.0000 0.9569
vn 0.0980 -0.0000 0.9952
vn -0.0980 -0.0000 0.9952
vn -0.2903 -0.0000 0.9569
vn -0.4714 -0.0000 0.8819
vn -0.6344 -0.0000 0.7730
vn -0.7730 -0.0000 0.6344
vn -0.8819 -0.0000 0.4714
vn -0.9569 -0.0000 0.2903
vn -0.9952 -0.0000 0.0980
vn -0.9952 -0.0000 -0.0980
vn -0.9569 -0.0000 -0.2903
vn -0.8819 -0.0000 -0.4714
vn -0.7730 -0.0000 -0.6344
vn -0.6344 -0.0000 -0.7730
vn -0.4714 -0.0000 -0.8819
vn -0.0000 1.0000 -0.0000
vn -0.2903 -0.0000 -0.9569
vn -0.0980 -0.0000 -0.9952
vn -0.0000 -1.0000 -0.0000
vn 0.0001 1.0000 -0.0000
vn -0.0001 1.0000 -0.0000
vn 0.0001 -1.0000 -0.0000
vn -0.0001 -1.0000 -0.0000
vn -0.0003 -1.0000 -0.0000
vn 0.0003 -1.0000 -0.0000
vt 0.323532 0.484708
vt 0.504477 0.988126
vt 0.625193 0.491715
vt 0.504477 0.011874
vt 0.324029 0.479764
vt 0.508157 0.988126
vt 0.508157 0.011874
vt 0.624773 0.486764
vt 0.325481 0.475013
vt 0.511837 0.988126
vt 0.511837 0.011874
vt 0.623396 0.481991
vt 0.327832 0.470636
vt 0.515518 0.988126
vt 0.515518 0.011874
vt 0.621114 0.477578
vt 0.330992 0.466803
vt 0.519198 0.988126
vt 0.519198 0.011874
vt 0.618015 0.473695
vt 0.334839 0.463659
vt 0.522879 0.988126
vt 0.522879 0.011874
vt 0.614217 0.470491
vt 0.339225 0.461326
vt 0.526559 0.988126
vt 0.526559 0.011874
vt 0.609868 0.468089
vt 0.343983 0.459894
vt 0.530239 0.988126
vt 0.530239 0.011874
vt 0.605134 0.466583
vt 0.416148 0.988126
vt 0.348928 0.459417
vt 0.533920 0.988126
vt 0.533920 0.011874
vt 0.416148 0.011874
vt 0.600197 0.466028
vt 0.353871 0.459914
vt 0.419828 0.988126
vt 0.419828 0.011874
vt 0.595246 0.466448
vt 0.358622 0.461366
vt 0.423509 0.988126
vt 0.423509 0.011874
vt 0.590473 0.467825
vt 0.362999 0.463717
vt 0.427189 0.988126
vt 0.427189 0.011874
vt 0.586060 0.470107
vt 0.366833 0.466877
vt 0.430869 0.988126
vt 0.430869 0.011874
vt 0.582177 0.473206
vt 0.369977 0.470724
vt 0.434550 0.988126
vt 0.434550 0.011874
vt 0.578973 0.477004
vt 0.372309 0.475110
vt 0.438230 0.988126
vt 0.438230 0.011874
vt 0.576572 0.481353
vt 0.373742 0.479868
vt 0.441911 0.988126
vt 0.441911 0.011874
vt 0.575065 0.486087
vt 0.374218 0.484813
vt 0.445591 0.988126
vt 0.445591 0.011874
vt 0.574511 0.491024
vt 0.373721 0.489756
vt 0.449271 0.988126
vt 0.449271 0.011874
vt 0.574930 0.495975
vt 0.372269 0.494507
vt 0.452952 0.988126
vt 0.452952 0.011874
vt 0.576307 0.500748
vt 0.369918 0.498884
vt 0.456632 0.988126
vt 0.456632 0.011874
vt 0.578589 0.505161
vt 0.366758 0.502718
vt 0.460312 0.988126
vt 0.460312 0.011874
vt 0.581689 0.509044
vt 0.362911 0.505862
vt 0.463993 0.988126
vt 0.463993 0.011874
vt 0.585486 0.512248
vt 0.358525 0.508195
vt 0.467673 0.988126
vt 0.467673 0.011874
vt 0.589835 0.514649
vt 0.353768 0.509627
vt 0.471353 0.988126
vt 0.471353 0.011874
vt 0.594569 0.516156
vt 0.348822 0.510104
vt 0.475034 0.988126
vt 0.475034 0.011874
vt 0.599506 0.516711
vt 0.343879 0.509606
vt 0.478714 0.988126
vt 0.478714 0.011874
vt 0.604457 0.516291
vt 0.339128 0.508154
vt 0.482395 0.988126
vt 0.482395 0.011874
vt 0.609230 0.514914
vt 0.334751 0.505803
vt 0.486075 0.988126
vt 0.486075 0.011874
vt 0.613643 0.512632
vt 0.330917 0.502643
vt 0.489755 0.988126
vt 0.489755 0.011874
vt 0.617526 0.509532
vt 0.327774 0.498796
vt 0.493436 0.988126
vt 0.493436 0.011874
vt 0.620730 0.505735
vt 0.325441 0.494410
vt 0.497116 0.988126
vt 0.623132 0.501386
vt 0.497116 0.011874
vt 0.324008 0.489653
vt 0.500796 0.988126
vt 0.624638 0.496652
vt 0.500796 0.011874
vt 0.504476 0.503017
vt 0.508156 0.503017
vt 0.511837 0.503017
vt 0.515517 0.503017
vt 0.519197 0.503017
vt 0.522878 0.503017
vt 0.526558 0.503017
vt 0.530238 0.503017
vt 0.416147 0.503017
vt 0.533919 0.503017
vt 0.419828 0.503017
vt 0.423508 0.503017
vt 0.427188 0.503017
vt 0.430869 0.503017
vt 0.434549 0.503017
vt 0.438229 0.503017
vt 0.441910 0.503017
vt 0.445590 0.503017
vt 0.449270 0.503017
vt 0.452951 0.503017
vt 0.456631 0.503017
vt 0.460312 0.503017
vt 0.463992 0.503017
vt 0.467672 0.503017
vt 0.471353 0.503017
vt 0.475033 0.503017
vt 0.478713 0.503017
vt 0.482394 0.503017
vt 0.486074 0.503017
vt 0.489754 0.503017
vt 0.493435 0.503017
vt 0.497115 0.503017
vt 0.500796 0.503017
s 0
f 2/4/1 66/132/1 65/131/1
f 4/7/2 67/133/2 66/132/2
f 6/11/3 68/134/3 67/133/3
f 8/15/4 69/135/4 68/134/4
f 10/19/5 70/136/5 69/135/5
f 12/23/6 71/137/6 70/136/6
f 14/27/7 72/138/7 71/137/7
f 16/31/8 73/140/8 72/138/8
f 18/37/9 74/141/9 73/139/9
f 20/41/10 75/142/10 74/141/10
f 22/45/11 76/143/11 75/142/11
f 24/49/12 77/144/12 76/143/12
f 26/53/13 78/145/13 77/144/13
f 28/57/14 79/146/14 78/145/14
f 30/61/15 80/147/15 79/146/15
f 32/65/16 81/148/16 80/147/16
f 34/69/17 82/149/17 81/148/17
f 36/73/18 83/150/18 82/149/18
f 38/77/19 84/151/19 83/150/19
f 40/81/20 85/152/20 84/151/20
f 42/85/21 86/153/21 85/152/21
f 44/89/22 87/154/22 86/153/22
f 46/93/23 88/155/23 87/154/23
f 48/97/24 89/156/24 88/155/24
f 50/101/25 90/157/25 89/156/25
f 52/105/26 91/158/26 90/157/26
f 54/109/27 92/159/27 91/158/27
f 56/113/28 93/160/28 92/159/28
f 58/117/29 94/161/29 93/160/29
f 60/121/30 95/162/30 94/161/30
f 38/78/31 22/46/31 6/12/31
f 62/126/32 96/163/32 95/162/32
f 64/130/33 65/131/33 96/163/33
f 39/79/34 47/95/34 63/127/34
f 96/163/33 1/2/33 63/128/33
f 95/162/32 63/128/32 61/124/32
f 94/161/30 61/124/30 59/120/30
f 93/160/29 59/120/29 57/116/29
f 92/159/28 57/116/28 55/112/28
f 91/158/27 55/112/27 53/108/27
f 90/157/26 53/108/26 51/104/26
f 89/156/25 51/104/25 49/100/25
f 88/155/24 49/100/24 47/96/24
f 87/154/23 47/96/23 45/92/23
f 86/153/22 45/92/22 43/88/22
f 85/152/21 43/88/21 41/84/21
f 84/151/20 41/84/20 39/80/20
f 83/150/19 39/80/19 37/76/19
f 82/149/18 37/76/18 35/72/18
f 81/148/17 35/72/17 33/68/17
f 80/147/16 33/68/16 31/64/16
f 79/146/15 31/64/15 29/60/15
f 78/145/14 29/60/14 27/56/14
f 77/144/13 27/56/13 25/52/13
f 76/143/12 25/52/12 23/48/12
f 75/142/11 23/48/11 21/44/11
f 74/141/10 21/44/10 19/40/10
f 73/139/9 19/40/9 17/33/9
f 72/138/8 17/35/8 15/30/8
f 71/137/7 15/30/7 13/26/7
f 70/136/6 13/26/6 11/22/6
f 69/135/5 11/22/5 9/18/5
f 68/134/4 9/18/4 7/14/4
f 67/133/3 7/14/3 5/10/3
f 66/132/2 5/10/2 3/6/2
f 65/131/1 3/6/1 1/2/1
f 2/4/1 4/7/1 66/132/1
f 4/7/2 6/11/2 67/133/2
f 6/11/3 8/15/3 68/134/3
f 8/15/4 10/19/4 69/135/4
f 10/19/5 12/23/5 70/136/5
f 12/23/6 14/27/6 71/137/6
f 14/27/7 16/31/7 72/138/7
f 16/31/8 18/36/8 73/140/8
f 18/37/9 20/41/9 74/141/9
f 20/41/10 22/45/10 75/142/10
f 22/45/11 24/49/11 76/143/11
f 24/49/12 26/53/12 77/144/12
f 26/53/13 28/57/13 78/145/13
f 28/57/14 30/61/14 79/146/14
f 30/61/15 32/65/15 80/147/15
f 32/65/16 34/69/16 81/148/16
f 34/69/17 36/73/17 82/149/17
f 36/73/18 38/77/18 83/150/18
f 38/77/19 40/81/19 84/151/19
f 40/81/20 42/85/20 85/152/20
f 42/85/21 44/89/21 86/153/21
f 44/89/22 46/93/22 87/154/22
f 46/93/23 48/97/23 88/155/23
f 48/97/24 50/101/24 89/156/24
f 50/101/25 52/105/25 90/157/25
f 52/105/26 54/109/26 91/158/26
f 54/109/27 56/113/27 92/159/27
f 56/113/28 58/117/28 93/160/28
f 58/117/29 60/121/29 94/161/29
f 60/121/30 62/126/30 95/162/30
f 6/12/31 4/8/31 2/3/31
f 2/3/31 64/129/31 62/125/31
f 62/125/31 60/122/31 54/110/31
f 60/122/31 58/118/31 54/110/31
f 58/118/35 56/114/35 54/110/35
f 54/110/35 52/106/35 50/102/35
f 50/102/35 48/98/35 46/94/35
f 46/94/31 44/90/31 38/78/31
f 44/90/31 42/86/31 38/78/31
f 42/86/31 40/82/31 38/78/31
f 38/78/31 36/74/31 34/70/31
f 34/70/31 32/66/31 30/62/31
f 30/62/31 28/58/31 22/46/31
f 28/58/31 26/54/31 22/46/31
f 26/54/36 24/50/36 22/46/36
f 22/46/36 20/42/36 18/38/36
f 18/38/36 16/32/36 14/28/36
f 14/28/31 12/24/31 6/12/31
f 12/24/31 10/20/31 6/12/31
f 10/20/31 8/16/31 6/12/31
f 6/12/31 2/3/31 54/110/31
f 2/3/31 62/125/31 54/110/31
f 54/110/31 50/102/31 38/78/31
f 50/102/31 46/94/31 38/78/31
f 38/78/31 34/70/31 22/46/31
f 34/70/31 30/62/31 22/46/31
f 22/46/31 18/38/31 6/12/31
f 18/38/31 14/28/31 6/12/31
f 6/12/31 54/110/31 38/78/31
f 62/126/32 64/130/32 96/163/32
f 64/130/33 2/4/33 65/131/33
f 63/127/34 1/1/34 3/5/34
f 3/5/37 5/9/37 7/13/37
f 7/13/38 9/17/38 11/21/38
f 11/21/39 13/25/39 15/29/39
f 15/29/34 17/34/34 19/39/34
f 19/39/39 21/43/39 23/47/39
f 23/47/38 25/51/38 27/55/38
f 27/55/37 29/59/37 31/63/37
f 31/63/34 33/67/34 35/71/34
f 35/71/38 37/75/38 39/79/38
f 39/79/37 41/83/37 43/87/37
f 43/87/40 45/91/40 47/95/40
f 47/95/34 49/99/34 51/103/34
f 51/103/40 53/107/40 55/111/40
f 55/111/37 57/115/37 59/119/37
f 59/119/38 61/123/38 63/127/38
f 63/127/34 3/5/34 7/13/34
f 7/13/34 11/21/34 15/29/34
f 15/29/34 19/39/34 23/47/34
f 23/47/34 27/55/34 15/29/34
f 27/55/34 31/63/34 15/29/34
f 31/63/34 35/71/34 39/79/34
f 39/79/34 43/87/34 47/95/34
f 47/95/34 51/103/34 55/111/34
f 55/111/34 59/119/34 47/95/34
f 59/119/34 63/127/34 47/95/34
f 63/127/34 7/13/34 31/63/34
f 7/13/34 15/29/34 31/63/34
f 31/63/34 39/79/34 63/127/34
f 96/163/33 65/131/33 1/2/33
f 95/162/32 96/163/32 63/128/32
f 94/161/30 95/162/30 61/124/30
f 93/160/29 94/161/29 59/120/29
f 92/159/28 93/160/28 57/116/28
f 91/158/27 92/159/27 55/112/27
f 90/157/26 91/158/26 53/108/26
f 89/156/25 90/157/25 51/104/25
f 88/155/24 89/156/24 49/100/24
f 87/154/23 88/155/23 47/96/23
f 86/153/22 87/154/22 45/92/22
f 85/152/21 86/153/21 43/88/21
f 84/151/20 85/152/20 41/84/20
f 83/150/19 84/151/19 39/80/19
f 82/149/18 83/150/18 37/76/18
f 81/148/17 82/149/17 35/72/17
f 80/147/16 81/148/16 33/68/16
f 79/146/15 80/147/15 31/64/15
f 78/145/14 79/146/14 29/60/14
f 77/144/13 78/145/13 27/56/13
f 76/143/12 77/144/12 25/52/12
f 75/142/11 76/143/11 23/48/11
f 74/141/10 75/142/10 21/44/10
f 73/139/9 74/141/9 19/40/9
f 72/138/8 73/140/8 17/35/8
f 71/137/7 72/138/7 15/30/7
f 70/136/6 71/137/6 13/26/6
f 69/135/5 70/136/5 11/22/5
f 68/134/4 69/135/4 9/18/4
f 67/133/3 68/134/3 7/14/3
f 66/132/2 67/133/2 5/10/2
f 65/131/1 66/132/1 3/6/1
