# Blender 3.5.1
# www.blender.org
mtllib post_round_straightened.mtl
o PostRound1
v 0.040450 -0.037690 1.012033
v 0.050984 -0.048224 0.975570
v 0.070913 -0.000110 0.975570
v 0.056016 -0.000110 1.012033
v 0.002870 -0.053257 1.012033
v 0.002870 -0.068154 0.975570
v -0.034710 -0.037690 1.012033
v -0.045244 -0.048224 0.975570
v -0.050277 -0.000110 1.012033
v -0.065174 -0.000110 0.975570
v -0.034710 0.037470 1.012033
v -0.045244 0.048004 0.975570
v 0.002870 0.053036 1.012033
v 0.002869 0.067933 0.975570
v 0.040450 0.037470 1.012033
v 0.050984 0.048004 0.975570
v 0.002870 -0.000110 1.012033
v 0.054874 -0.000110 -1.028217
v 0.039656 -0.036848 -1.028218
v 0.002918 -0.000110 -1.028217
v 0.002918 -0.052065 -1.028218
v -0.026070 -0.036848 -1.028218
v -0.041287 -0.000110 -1.028217
v -0.026070 0.036628 -1.028218
v 0.002918 0.051846 -1.028218
v 0.039656 0.036628 -1.028218
v 0.070913 -0.000110 -1.003994
v 0.050984 -0.048224 -1.003994
v 0.002870 -0.068154 -1.003994
v -0.045244 -0.048224 -1.003994
v -0.065174 -0.000110 -1.003994
v -0.045244 0.048004 -1.003994
v 0.002869 0.067933 -1.003994
v 0.050984 0.048004 -1.003994
v -0.065174 -0.000110 0.000244
v 0.070913 -0.000110 0.000244
v 0.050984 0.048004 0.000244
v 0.002870 -0.068154 0.000244
v -0.045244 -0.048224 0.000244
v 0.002869 0.067933 0.000244
v 0.050984 -0.048224 0.000244
v -0.045244 0.048004 0.000244
vn 0.6546 -0.6546 0.3782
vn 0.8244 -0.5310 0.1959
vn 0.9328 -0.1399 0.3321
vn 0.9257 -0.0000 0.3782
vn -0.0000 -0.9257 0.3782
vn 0.2070 -0.9585 0.1959
vn -0.6546 -0.6546 0.3782
vn -0.5318 -0.8239 0.1959
vn -0.9257 -0.0000 0.3782
vn -0.9587 -0.2064 0.1959
vn -0.6546 0.6546 0.3782
vn -0.8239 0.5318 0.1959
vn -0.0000 0.9257 0.3782
vn -0.2070 0.9585 0.1959
vn 0.6546 0.6546 0.3782
vn 0.5309 0.8245 0.1959
vn -0.0000 -0.0000 1.0000
vn -0.0219 0.0033 -0.9998
vn 0.0132 -0.0563 -0.9983
vn -0.0000 -0.0000 -1.0000
vn 0.0167 -0.0122 -0.9998
vn 0.0318 0.0039 -0.9995
vn 0.0431 -0.0000 -0.9991
vn 0.0309 -0.0063 -0.9995
vn 0.0158 0.0057 -0.9999
vn 0.0104 0.0478 -0.9988
vn 0.9739 -0.0021 -0.2270
vn 0.6855 -0.6950 -0.2169
vn 0.0076 -0.9730 -0.2307
vn -0.6746 -0.6947 -0.2494
vn -0.9709 0.0009 -0.2396
vn -0.6779 0.6916 -0.2491
vn 0.0072 0.9726 -0.2322
vn 0.6858 0.6924 -0.2242
vn 0.9929 0.0519 -0.1068
vn 0.6170 0.7869 -0.0057
vn -0.0182 0.9926 -0.1201
vn -0.7209 0.6798 -0.1346
vn -0.9887 -0.0006 -0.1500
vn -0.7233 -0.6774 -0.1342
vn -0.0181 -0.9925 -0.1207
vn 0.7890 -0.6144 0.0072
vt 0.322185 0.545585
vt 0.340580 0.524463
vt 0.408122 0.994262
vt 0.357756 0.564347
vt 0.434128 0.994262
vt 0.329813 0.566275
vt 0.302161 0.536349
vt 0.300233 0.508406
vt 0.590164 0.994262
vt 0.382116 0.994262
vt 0.281471 0.543978
vt 0.260349 0.525583
vt 0.564158 0.994262
vt 0.272235 0.564002
vt 0.244293 0.565930
vt 0.538152 0.994262
vt 0.279864 0.584692
vt 0.261469 0.605814
vt 0.512145 0.994262
vt 0.299888 0.593927
vt 0.301815 0.621870
vt 0.486140 0.994262
vt 0.320578 0.586299
vt 0.341699 0.604694
vt 0.460134 0.994262
vt 0.301024 0.565138
vt 0.641996 0.564037
vt 0.650967 0.543073
vt 0.671919 0.565318
vt 0.672447 0.534909
vt 0.689857 0.543642
vt 0.698891 0.566472
vt 0.687939 0.588448
vt 0.669847 0.595661
vt 0.649143 0.585692
vt 0.620742 0.563128
vt 0.434128 0.005739
vt 0.638126 0.527371
vt 0.408122 0.005738
vt 0.674558 0.515378
vt 0.590164 0.005738
vt 0.382116 0.005739
vt 0.708855 0.531685
vt 0.564158 0.005739
vt 0.721667 0.567447
vt 0.538152 0.005739
vt 0.705846 0.601984
vt 0.512145 0.005739
vt 0.670282 0.615300
vt 0.486140 0.005738
vt 0.635007 0.600240
vt 0.460134 0.005739
vt 0.538152 0.507219
vt 0.434128 0.507219
vt 0.460134 0.507219
vt 0.382116 0.507219
vt 0.590164 0.507219
vt 0.564158 0.507219
vt 0.486140 0.507219
vt 0.408122 0.507219
vt 0.512145 0.507219
s 1
usemtl Material.001
f 1/1/1 2/2/2 3/4/3
f 3/4/3 4/6/4 1/1/1
f 5/7/5 6/8/6 2/2/2
f 2/2/2 1/1/1 5/7/5
f 7/11/7 8/12/8 6/8/6
f 6/8/6 5/7/5 7/11/7
f 9/14/9 10/15/10 8/12/8
f 8/12/8 7/11/7 9/14/9
f 11/17/11 12/18/12 10/15/10
f 10/15/10 9/14/9 11/17/11
f 13/20/13 14/21/14 12/18/12
f 12/18/12 11/17/11 13/20/13
f 15/23/15 16/24/16 14/21/14
f 14/21/14 13/20/13 15/23/15
f 4/6/4 3/4/3 16/24/16
f 16/24/16 15/23/15 4/6/4
f 1/1/1 4/6/4 17/26/17
f 5/7/5 1/1/1 17/26/17
f 7/11/7 5/7/5 17/26/17
f 9/14/9 7/11/7 17/26/17
f 11/17/11 9/14/9 17/26/17
f 13/20/13 11/17/11 17/26/17
f 15/23/15 13/20/13 17/26/17
f 4/6/4 15/23/15 17/26/17
f 18/27/18 19/28/19 20/29/20
f 19/28/19 21/30/21 20/29/20
f 21/30/21 22/31/22 20/29/20
f 22/31/22 23/32/23 20/29/20
f 23/32/23 24/33/24 20/29/20
f 24/33/24 25/34/25 20/29/20
f 25/34/25 26/35/26 20/29/20
f 26/35/26 18/27/18 20/29/20
f 19/28/19 18/27/18 27/36/27
f 27/36/27 28/38/28 19/28/19
f 21/30/21 19/28/19 28/38/28
f 28/38/28 29/40/29 21/30/21
f 22/31/22 21/30/21 29/40/29
f 29/40/29 30/43/30 22/31/22
f 23/32/23 22/31/22 30/43/30
f 30/43/30 31/45/31 23/32/23
f 32/47/32 24/33/24 23/32/23
f 23/32/23 31/45/31 32/47/32
f 33/49/33 25/34/25 24/33/24
f 24/33/24 32/47/32 33/49/33
f 34/51/34 26/35/26 25/34/25
f 25/34/25 33/49/33 34/51/34
f 27/36/27 18/27/18 26/35/26
f 26/35/26 34/51/34 27/36/27
f 36/54/35 28/39/28 27/37/27
f 37/55/36 33/50/33 40/59/37
f 36/54/35 34/52/34 37/55/36
f 40/59/37 32/48/32 42/61/38
f 35/53/39 32/48/32 31/46/31
f 39/58/40 31/46/31 30/44/30
f 39/58/40 29/41/29 38/57/41
f 38/56/41 28/39/28 41/60/42
f 2/3/2 38/56/41 41/60/42
f 8/13/8 38/57/41 6/9/6
f 10/16/10 39/58/40 8/13/8
f 12/19/12 35/53/39 10/16/10
f 14/22/14 42/61/38 12/19/12
f 3/5/3 37/55/36 16/25/16
f 16/25/16 40/59/37 14/22/14
f 2/3/2 36/54/35 3/5/3
f 36/54/35 41/60/42 28/39/28
f 37/55/36 34/52/34 33/50/33
f 36/54/35 27/37/27 34/52/34
f 40/59/37 33/50/33 32/48/32
f 35/53/39 42/61/38 32/48/32
f 39/58/40 35/53/39 31/46/31
f 39/58/40 30/44/30 29/41/29
f 38/56/41 29/42/29 28/39/28
f 2/3/2 6/10/6 38/56/41
f 8/13/8 39/58/40 38/57/41
f 10/16/10 35/53/39 39/58/40
f 12/19/12 42/61/38 35/53/39
f 14/22/14 40/59/37 42/61/38
f 3/5/3 36/54/35 37/55/36
f 16/25/16 37/55/36 40/59/37
f 2/3/2 41/60/42 36/54/35
