# Blender 3.5.1
# www.blender.org
mtllib pyramid_short.mtl
o Cone_Cone.003
v -0.009899 0.373564 -0.009899
v 0.009899 0.373564 -0.009899
v 0.989950 0.002323 -0.989949
v -0.989949 0.002323 -0.989949
v 0.009899 0.373564 -0.009899
v 0.009899 0.373564 0.009899
v 0.989949 0.002324 0.989950
v 0.989950 0.002323 -0.989949
v -0.009899 0.373564 -0.009899
v -0.009899 0.373564 0.009899
v 0.009899 0.373564 0.009899
v 0.009899 0.373564 -0.009899
v -0.009899 0.373564 0.009899
v -0.009899 0.373564 -0.009899
v -0.989949 0.002323 -0.989949
v -0.989949 0.002324 0.989949
v 0.009899 0.373564 0.009899
v -0.009899 0.373564 0.009899
v -0.989949 0.002324 0.989949
v 0.989949 0.002324 0.989950
v 0.989950 0.002323 -0.989949
v 0.989949 0.002324 0.989950
v -0.989949 0.002324 0.989949
v -0.989949 0.002323 -0.989949
vn -0.0000 0.9352 -0.3542
vn 0.3542 0.9352 -0.0000
vn -0.0000 1.0000 -0.0000
vn -0.3542 0.9352 -0.0000
vn -0.0000 0.9352 0.3542
vn -0.0000 -1.0000 -0.0000
vt 0.268683 0.735855
vt 0.263404 0.735855
vt 0.002059 0.550413
vt 0.530028 0.550413
vt 0.735278 0.997079
vt 0.729999 0.997079
vt 0.468654 0.811638
vt 0.996623 0.811638
vt 0.755481 0.320103
vt 0.755481 0.325870
vt 0.749714 0.325870
vt 0.749714 0.320103
vt 0.270861 0.931387
vt 0.265582 0.931387
vt 0.004237 0.745946
vt 0.532206 0.745946
vt 0.729911 0.806295
vt 0.724631 0.806295
vt 0.463287 0.620853
vt 0.991256 0.620853
vt 0.532163 0.535685
vt 0.004195 0.535685
vt 0.004195 0.007717
vt 0.532163 0.007717
s 1
usemtl None.001
f 1/1/1 2/2/1 3/3/1
f 4/4/1 1/1/1 3/3/1
f 5/5/2 6/6/2 7/7/2
f 8/8/2 5/5/2 7/7/2
f 9/9/3 10/10/3 11/11/3
f 12/12/3 9/9/3 11/11/3
f 13/13/4 14/14/4 15/15/4
f 16/16/4 13/13/4 15/15/4
f 17/17/5 18/18/5 19/19/5
f 20/20/5 17/17/5 19/19/5
f 21/21/6 22/22/6 23/23/6
f 24/24/6 21/21/6 23/23/6
