# Blender v3.2.1 OBJ File: 'quarter_disk.blend'
# www.blender.org
mtllib quarter_disk.mtl
o Cylinder.001
v 0.522187 -0.114868 0.781508
v -0.002053 -0.114868 0.781508
v -0.001391 -0.114868 0.257929
v 0.781508 -0.114868 0.522187
v -0.001065 -0.114868 -0.000712
v -0.000408 0.114868 -0.000274
v 0.781508 0.114868 0.522187
v 0.921852 -0.114868 0.183368
v 0.522187 0.114868 0.781508
v -0.000192 0.114868 0.259128
v 0.000243 0.114868 0.781508
v 0.921852 0.114868 0.183368
v 0.193475 -0.061171 0.972664
v -0.001015 -0.061171 0.972663
v -0.001426 -0.077523 0.966900
v 0.191179 -0.093921 0.961120
v 0.193475 0.061171 0.972664
v 0.550970 0.061171 0.824584
v 0.191179 0.093921 0.961120
v 0.544431 -0.093921 0.814799
v 0.550970 -0.061171 0.824584
v 0.824584 0.061171 0.550970
v 0.544431 0.093921 0.814799
v 0.814798 -0.093921 0.544431
v 0.824584 -0.061171 0.550970
v 0.972664 0.061171 0.193475
v 0.814798 0.093921 0.544431
v 0.961120 -0.093921 0.191179
v 0.972664 -0.061171 0.193475
v 0.961120 0.093921 0.191179
v 0.000719 0.061171 0.972664
v 0.000782 0.020402 0.972664
v -0.001838 -0.093921 0.961120
v -0.002245 -0.104488 0.941312
v 0.183368 -0.114868 0.921852
v 0.183368 0.114868 0.921852
v 0.000516 0.093921 0.961120
v 0.000617 0.077591 0.966876
v 0.000360 0.114868 0.921852
v 0.000436 0.104637 0.941031
v -0.002184 -0.114868 0.884943
v 0.000330 0.114868 0.885312
v 0.000330 -0.000104 0.972664
v -0.002644 -0.114868 0.921852
v -0.016040 0.058711 0.958286
v -0.015970 0.020402 0.958286
v -0.016433 0.100490 0.918257
v -0.016352 0.091952 0.934264
v -0.018894 -0.100491 0.884944
v -0.018763 -0.100491 0.781508
v -0.016265 0.083867 0.949419
v -0.016149 0.072811 0.953316
v -0.016550 0.100490 0.781508
v -0.016463 0.100490 0.885312
v 0.773367 0.101338 -0.017866
v 0.773367 -0.101338 -0.017866
v 0.909643 -0.101338 -0.017866
v 0.947773 -0.082859 -0.017866
v -0.017201 0.100490 -0.000274
v -0.018561 -0.083868 0.949419
v -0.018960 -0.091802 0.934544
v -0.018164 -0.072743 0.953340
v 0.909643 0.101338 -0.017866
v -0.016985 0.100490 0.259128
v 0.947773 0.082859 -0.017866
v 0.958982 0.053966 -0.017866
v 0.958982 -0.053966 -0.017866
v -0.016422 -0.000104 0.958286
v -0.017760 -0.058712 0.958286
v -0.002752 -0.088654 -0.018580
v -0.002194 0.088654 -0.018141
v -0.019354 -0.100491 0.918257
v 0.014112 0.101338 -0.018141
v -0.018101 -0.100491 0.257929
v -0.017775 -0.100490 -0.000712
v 0.013474 -0.101338 -0.018580
v 0.972664 -0.061171 -0.000000
v 0.972664 0.061171 0.000000
v 0.961120 0.093921 0.000000
v 0.921852 0.114868 0.000000
v 0.961120 -0.093921 -0.000000
v 0.921852 -0.114868 -0.000000
v 0.781508 -0.114868 -0.000000
v 0.781508 0.114868 0.000000
vt 0.757297 0.897700
vt 0.859083 0.512927
vt 0.859947 0.897470
vt 0.757452 0.966721
vt 0.860103 0.966490
vt 0.781501 0.991656
vt 0.762838 0.504602
vt 0.852640 0.504682
vt 0.756432 0.512834
vt 0.766855 0.986012
vt 0.836166 0.991533
vt 0.850787 0.985823
vt 0.287848 0.420374
vt 0.021406 0.414596
vt 0.029484 0.149982
vt 0.422806 0.290692
vt 0.041670 0.025547
vt 0.634535 0.743231
vt 0.361689 0.486477
vt 0.628822 0.477191
vt 0.906756 0.696771
vt 0.896756 0.797803
vt 0.888605 0.696621
vt 0.970035 0.696884
vt 0.970671 0.499904
vt 0.988230 0.696855
vt 0.890253 0.499887
vt 0.908047 0.500022
vt 0.970924 0.306337
vt 0.988477 0.499923
vt 0.891780 0.306406
vt 0.909279 0.306519
vt 0.971190 0.115964
vt 0.988432 0.306343
vt 0.892955 0.116150
vt 0.910086 0.116251
vt 0.970526 0.796706
vt 0.949033 0.797704
vt 0.020528 0.508532
vt 0.114642 0.488012
vt 0.118705 0.510717
vt 0.300395 0.439921
vt 0.442234 0.304042
vt 0.522013 0.119638
vt 0.498506 0.115018
vt 0.725348 0.573579
vt 0.654236 0.755844
vt 0.702661 0.569589
vt 0.504591 0.878381
vt 0.517935 0.897808
vt 0.329335 0.953814
vt 0.979705 0.797246
vt 0.988368 0.115978
vt 0.333932 0.977255
vt 0.700342 0.478294
vt 0.711173 0.477194
vt 0.021275 0.467606
vt 0.682068 0.477304
vt 0.887495 0.798269
vt 0.239268 0.498967
vt 0.722959 0.476373
vt 0.938101 0.797983
vt 0.905868 0.797158
vt 0.022097 0.485971
vt 0.021147 0.496935
vt 0.970624 0.808636
vt 0.700153 0.466826
vt 0.010129 0.414425
vt 0.009870 0.468031
vt 0.985351 0.809622
vt 0.988956 0.797587
vt 0.682519 0.465786
vt 0.628633 0.465814
vt 0.009029 0.504630
vt 0.891080 0.810240
vt 0.897515 0.809736
vt 0.910554 0.021486
vt 0.968269 0.009282
vt 0.971256 0.020950
vt 0.360868 0.475122
vt 0.236952 0.488754
vt 0.858644 0.492869
vt 0.756852 0.492774
vt 0.718994 0.464836
vt 0.709871 0.465683
vt 0.897345 0.008008
vt 0.913352 0.010083
vt 0.905739 0.809039
vt 0.937961 0.809933
vt 0.428423 0.020419
vt 0.493948 0.011815
vt 0.498636 0.023515
vt 0.238127 0.953907
vt 0.223798 0.970985
vt 0.226463 0.949231
vt 0.010703 0.485804
vt 0.984634 0.007130
vt 0.988956 0.019808
vt 0.235038 0.883899
vt 0.223798 0.880008
vt 0.978927 0.809227
vt 0.047288 0.014186
vt 0.424504 0.009145
vt 0.009698 0.495684
vt 0.515772 0.009145
vt 0.520742 0.021431
vt 0.031261 0.023291
vt 0.018553 0.149282
vt 0.036969 0.010976
vt 0.228049 0.504573
vt 0.224880 0.494397
vt 0.949325 0.809723
vt 0.819607 0.007250
vt 0.839009 0.007314
vt 0.860047 0.044344
vt 0.846142 0.009855
vt 0.855805 0.019537
vt 0.851736 0.011847
vt 0.860103 0.027658
vt 0.859883 0.096918
vt 0.758248 0.044212
vt 0.859055 0.361489
vt 0.758085 0.096600
vt 0.809218 0.007220
vt 0.772410 0.009613
vt 0.779527 0.007130
vt 0.762720 0.019104
vt 0.766766 0.011582
vt 0.758289 0.027339
vt 0.757260 0.361779
vt 0.893107 0.020411
vt 0.236043 0.975942
vn 0.0004 0.0000 -1.0000
vn -0.0000 0.0000 -1.0000
vn 0.0019 0.0025 -1.0000
vn -0.0017 0.0022 -1.0000
vn 0.0009 0.0022 -1.0000
vn 0.1480 -0.9639 0.2215
vn -0.3478 -0.9376 -0.0004
vn 0.1671 -0.9649 0.2028
vn -0.2606 -0.9059 -0.3338
vn 0.1480 0.9639 0.2215
vn -0.3467 0.9380 0.0003
vn 0.1923 -0.1682 0.9668
vn -0.3471 -0.3033 0.8875
vn 0.1506 -0.6355 0.7573
vn 0.1923 0.1682 0.9668
vn 0.5477 0.1681 0.8196
vn 0.1506 0.6355 0.7573
vn 0.4290 -0.6354 0.6420
vn 0.5477 -0.1681 0.8196
vn 0.8196 0.1681 0.5477
vn 0.4290 0.6354 0.6420
vn 0.6420 -0.6355 0.4290
vn 0.8196 -0.1681 0.5477
vn 0.9022 0.1897 0.3873
vn 0.6420 0.6355 0.4290
vn 0.8436 -0.5101 0.1678
vn 0.9020 -0.1897 0.3879
vn -0.3383 0.1576 0.9277
vn -0.3449 0.0035 0.9386
vn -0.3388 -0.6082 0.7178
vn 0.0520 -0.9639 0.2613
vn 0.4859 -0.8686 0.0967
vn 0.0520 0.9639 0.2613
vn 0.1671 0.9649 0.2028
vn 0.1623 0.9466 0.2787
vn -0.3469 0.3096 0.8853
vn 0.7069 0.6428 0.2951
vn -0.3371 0.9132 0.2290
vn -0.3468 0.8269 0.4427
vn -0.3466 -0.9380 -0.0025
vn -0.3433 0.8947 -0.2859
vn -0.3379 0.6120 0.7150
vn -0.3472 0.0078 0.9378
vn -0.3387 -0.1516 0.9286
vn -0.3407 -0.9119 0.2289
vn -0.3479 -0.8239 0.4474
vn -0.8921 0.0728 0.4459
vn -0.8886 0.4444 0.1134
vn -0.9111 -0.4123 -0.0007
vn -0.9125 -0.4090 -0.0015
vn -0.8813 0.3037 0.3620
vn -0.9068 0.4216 0.0034
vn -0.9060 0.4233 0.0006
vn -0.8830 -0.2893 0.3698
vn -0.9060 -0.1169 0.4068
vn 0.9268 -0.1727 -0.3336
vn 0.5242 0.0882 -0.8470
vn 0.9269 0.1727 -0.3331
vn -0.9071 0.4209 0.0003
vn -0.8344 0.4105 -0.3677
vn -0.4610 -0.1609 -0.8727
vn -0.8358 -0.4067 -0.3688
vn -0.9100 0.3640 0.1986
vn 0.3557 -0.3158 -0.8797
vn 0.5242 -0.0882 -0.8470
vn -0.8930 -0.0547 0.4466
vn -0.9049 0.0169 0.4252
vn -0.0069 -0.9356 -0.3529
vn 0.0952 -0.4934 -0.8646
vn 0.2367 -0.9000 -0.3660
vn 0.2345 0.9007 -0.3657
vn 0.3557 0.3158 -0.8797
vn 0.0952 0.4934 -0.8646
vn -0.9025 -0.4170 0.1074
vn 0.6998 0.6145 -0.3642
vn 0.0001 0.9354 -0.3536
vn 0.0001 0.5340 -0.8455
vn -0.9081 0.1327 0.3971
vn -0.2011 -0.3927 -0.8974
vn 0.0004 -0.5339 -0.8455
vn -0.9173 -0.3438 0.2011
vn 0.6998 -0.6145 -0.3642
vn -0.9099 -0.4147 -0.0008
vn -0.0550 0.4449 -0.8939
vn -0.4605 0.1658 -0.8721
vn -0.9028 0.0126 0.4300
usemtl None.003
s off
f 56/1/1 73/2/1 55/3/1
f 57/4/2 63/5/2 67/6/2
f 70/7/3 71/8/3 76/9/3
f 57/4/2 56/1/2 63/5/2
f 71/8/4 73/2/4 76/9/4
f 73/2/5 56/1/5 76/9/5
f 56/1/2 55/3/2 63/5/2
f 67/6/2 58/10/2 57/4/2
f 63/5/2 66/11/2 67/6/2
f 63/5/2 65/12/2 66/11/2
s 1
f 1/13/6 2/14/7 3/15/7
f 4/16/8 3/15/7 5/17/9
f 9/18/10 10/19/11 11/20/11
f 13/21/12 15/22/13 16/23/14
f 17/24/15 18/25/16 19/26/17
f 20/27/18 21/28/19 16/23/14
f 18/25/16 22/29/20 23/30/21
f 24/31/22 25/32/23 20/27/18
f 22/29/20 26/33/24 27/34/25
f 28/35/26 29/36/27 24/31/22
f 17/24/15 31/37/28 32/38/29
f 33/39/30 35/40/31 16/41/14
f 18/25/16 17/24/15 21/28/19
f 20/42/18 16/41/14 1/13/6
f 22/29/20 18/25/16 25/32/23
f 24/43/22 20/42/18 4/16/8
f 26/33/24 22/29/20 29/36/27
f 28/44/26 24/43/22 8/45/32
f 19/46/17 23/47/21 36/48/33
f 9/18/10 23/47/21 7/49/34
f 7/49/34 27/50/25 12/51/35
f 19/26/17 38/52/36 17/24/15
f 18/25/16 23/30/21 19/26/17
f 21/28/19 13/21/12 16/23/14
f 22/29/20 27/34/25 23/30/21
f 25/32/23 21/28/19 20/27/18
f 26/33/24 30/53/37 27/34/25
f 29/36/27 25/32/23 24/31/22
f 17/24/15 13/21/12 21/28/19
f 16/41/14 35/40/31 1/13/6
f 18/25/16 21/28/19 25/32/23
f 20/42/18 1/13/6 4/16/8
f 22/29/20 25/32/23 29/36/27
f 24/43/22 4/16/8 8/45/32
f 23/47/21 9/18/10 36/48/33
f 23/47/21 27/50/25 7/49/34
f 27/50/25 30/54/37 12/51/35
f 39/55/38 40/56/39 36/48/33
f 2/14/7 35/40/31 41/57/40
f 11/20/11 42/58/11 9/18/10
f 15/22/13 33/59/30 16/23/14
f 42/58/11 36/48/33 9/18/10
f 10/19/11 7/49/34 6/60/41
f 37/61/42 36/48/33 40/56/39
f 43/62/43 14/63/44 13/21/12
f 44/64/45 41/57/40 35/40/31
f 38/52/36 31/37/28 17/24/15
f 34/65/46 44/64/45 35/40/31
f 43/62/43 17/24/15 32/38/29
f 45/66/47 32/38/29 31/37/28
f 47/67/48 40/56/39 39/55/38
f 50/68/49 41/57/40 49/69/50
f 51/70/51 38/52/36 37/71/42
f 54/72/52 11/20/11 53/73/53
f 60/74/54 34/65/46 33/39/30
f 60/75/54 15/22/13 62/76/55
f 77/77/56 66/78/57 78/79/58
f 47/67/48 42/58/11 54/72/52
f 64/80/59 6/60/41 59/81/60
f 59/82/60 70/7/61 75/83/62
f 51/84/51 40/56/39 48/85/63
f 77/77/56 58/86/64 67/87/65
f 69/88/66 43/62/43 68/89/67
f 83/90/68 57/91/69 82/92/70
f 80/93/71 65/94/72 63/95/73
f 72/96/74 41/57/40 44/64/45
f 78/79/58 65/97/72 79/98/75
f 84/99/76 63/95/73 55/100/77
f 45/66/47 38/52/36 52/101/78
f 83/90/68 76/102/79 56/103/80
f 72/96/74 34/65/46 61/104/81
f 82/92/70 58/105/64 81/106/82
f 75/107/62 3/15/7 74/108/83
f 74/108/83 2/14/7 50/68/49
f 5/17/9 70/109/61 76/102/79
f 69/88/66 15/22/13 14/63/44
f 84/99/76 73/110/84 6/60/41
f 53/73/53 10/19/11 64/80/59
f 6/60/41 71/111/85 59/81/60
f 46/112/86 43/62/43 32/38/29
f 46/113/86 45/114/47 54/115/52
f 45/114/47 52/116/78 48/117/63
f 54/115/52 45/114/47 48/117/63
f 52/116/78 51/118/51 48/117/63
f 48/117/63 47/119/48 54/115/52
f 54/115/52 53/120/53 49/121/50
f 53/120/53 64/122/59 50/123/49
f 68/124/67 46/113/86 54/115/52
f 62/125/55 69/126/66 61/127/81
f 69/126/66 68/124/67 49/121/50
f 61/127/81 69/126/66 49/121/50
f 61/127/81 60/128/54 62/125/55
f 49/121/50 72/129/74 61/127/81
f 75/83/62 74/130/83 59/82/60
f 74/130/83 50/123/49 64/122/59
f 50/123/49 49/121/50 53/120/53
f 64/122/59 59/82/60 74/130/83
f 7/49/34 84/99/76 6/60/41
f 68/124/67 54/115/52 49/121/50
f 4/16/8 5/17/9 83/90/68
f 4/16/8 83/90/68 8/45/32
f 8/45/32 83/90/68 82/92/70
f 8/45/32 82/92/70 28/44/26
f 28/44/26 82/92/70 81/106/82
f 29/36/27 28/35/26 81/131/82
f 29/36/27 81/131/82 77/77/56
f 26/33/24 29/36/27 77/77/56
f 26/33/24 77/77/56 78/79/58
f 79/98/75 26/33/24 78/79/58
f 30/53/37 26/33/24 79/98/75
f 80/93/71 30/54/37 79/132/75
f 30/54/37 80/93/71 12/51/35
f 80/93/71 84/99/76 12/51/35
f 7/49/34 12/51/35 84/99/76
f 4/16/8 1/13/6 3/15/7
f 13/21/12 14/63/44 15/22/13
f 33/39/30 34/65/46 35/40/31
f 19/26/17 37/71/42 38/52/36
f 2/14/7 1/13/6 35/40/31
f 42/58/11 39/55/38 36/48/33
f 10/19/11 9/18/10 7/49/34
f 37/61/42 19/46/17 36/48/33
f 43/62/43 13/21/12 17/24/15
f 45/66/47 46/112/86 32/38/29
f 47/67/48 48/85/63 40/56/39
f 50/68/49 2/14/7 41/57/40
f 51/70/51 52/101/78 38/52/36
f 54/72/52 42/58/11 11/20/11
f 60/74/54 61/104/81 34/65/46
f 60/75/54 33/59/30 15/22/13
f 77/77/56 67/87/65 66/78/57
f 47/67/48 39/55/38 42/58/11
f 64/80/59 10/19/11 6/60/41
f 59/82/60 71/8/85 70/7/61
f 51/84/51 37/61/42 40/56/39
f 77/77/56 81/131/82 58/86/64
f 69/88/66 14/63/44 43/62/43
f 83/90/68 56/103/80 57/91/69
f 80/93/71 79/132/75 65/94/72
f 72/96/74 49/69/50 41/57/40
f 78/79/58 66/78/57 65/97/72
f 84/99/76 80/93/71 63/95/73
f 45/66/47 31/37/28 38/52/36
f 83/90/68 5/17/9 76/102/79
f 72/96/74 44/64/45 34/65/46
f 82/92/70 57/91/69 58/105/64
f 75/107/62 5/17/9 3/15/7
f 74/108/83 3/15/7 2/14/7
f 5/17/9 75/107/62 70/109/61
f 69/88/66 62/76/55 15/22/13
f 84/99/76 55/100/77 73/110/84
f 53/73/53 11/20/11 10/19/11
f 6/60/41 73/110/84 71/111/85
f 46/112/86 68/89/67 43/62/43
