# Blender v2.80 (sub 75) OBJ File: 'quarter_pyramid.blend'
# www.blender.org
mtllib quarter_pyramid.mtl
o Cone_Cone.003
v -0.522319 -0.072508 -1.306049
v 1.478940 -0.072508 0.691975
v -0.521119 -0.072508 0.690745
v -0.520685 1.927478 0.693012
v 0.478310 -0.072508 -0.307037
v 0.479127 0.927485 0.692493
v 0.478910 -0.072508 0.691360
v -0.521502 0.927485 -0.306518
v -0.520902 0.927485 0.691878
v -0.521719 -0.072508 -0.307652
vt 0.992862 0.543884
vt 0.865409 0.763920
vt 0.738564 0.543492
vt 0.000100 0.000730
vt 0.254419 0.000415
vt 0.127422 0.127760
vt 0.254743 0.254789
vt 0.381741 0.127445
vt 0.381741 0.381728
vt 0.866116 0.416694
vt 0.611818 0.416301
vt 0.739371 0.289503
vt 0.484266 0.543099
vt 0.508738 0.254383
vt 0.508738 0.508667
vt 0.508738 0.000100
vt 0.611111 0.763527
vt 0.737956 0.983956
vn 0.5770 0.5772 -0.5779
vn -0.0006 -0.0011 1.0000
vn -1.0000 0.0002 0.0006
vn 0.0000 -1.0000 0.0000
usemtl quarter_pyramid
s off
f 1/1/1 8/2/1 5/3/1
f 2/4/2 6/5/2 7/6/2
f 3/7/3 9/8/3 10/9/3
f 1/1/4 5/3/4 10/10/4
f 10/10/4 7/11/4 3/12/4
f 10/10/4 5/3/4 7/11/4
f 5/3/4 2/13/4 7/11/4
f 10/9/3 8/14/3 1/15/3
f 10/9/3 9/8/3 8/14/3
f 9/8/3 4/16/3 8/14/3
f 7/6/2 9/8/2 3/7/2
f 7/6/2 6/5/2 9/8/2
f 6/5/2 4/16/2 9/8/2
f 5/3/1 6/17/1 2/13/1
f 5/3/1 8/2/1 6/17/1
f 8/2/1 4/18/1 6/17/1
