# Blender v3.2.0 OBJ File: ''
# www.blender.org
mtllib soft_diskFIXED.mtl
o Cylinder.001
v 0.814798 0.093921 -0.544431
v 0.781508 0.114868 -0.522187
v 0.921852 0.114868 -0.183368
v 0.961120 0.093921 -0.191179
v 0.921852 0.114868 0.183368
v 0.814798 0.093921 0.544431
v 0.961120 0.093921 0.191179
v 0.544431 0.093921 0.814799
v 0.781508 0.114868 0.522187
v 0.522187 0.114868 0.781508
v 0.183368 0.114868 0.921852
v -0.191179 0.093921 0.961120
v 0.191179 0.093921 0.961120
v -0.544431 0.093921 0.814798
v -0.183368 0.114868 0.921852
v -0.814799 0.093921 0.544430
v -0.522187 0.114868 0.781508
v -0.961121 0.093921 0.191178
v -0.781508 0.114868 0.522187
v -0.961120 0.093921 -0.191180
v -0.921852 0.114868 0.183367
v -0.921852 0.114868 -0.183369
v -0.781507 0.114868 -0.522188
v -0.814798 0.093921 -0.544432
v -0.522186 0.114868 -0.781509
v -0.544430 0.093921 -0.814799
v -0.183366 0.114868 -0.921852
v 0.544431 0.093921 -0.814798
v 0.522187 0.114868 -0.781508
v 0.550970 0.061171 -0.824584
v 0.550970 -0.061171 -0.824584
v 0.193475 -0.061171 -0.972664
v -0.193473 0.061171 -0.972664
v 0.193475 0.061171 -0.972664
v 0.191179 0.093921 -0.961120
v -0.191177 0.093921 -0.961121
v 0.824584 0.061171 -0.550970
v 0.824584 -0.061171 -0.550970
v 0.814798 -0.093921 -0.544431
v 0.961120 -0.093921 -0.191179
v 0.921852 -0.114868 -0.183368
v 0.972664 0.061171 -0.193475
v 0.972664 -0.061171 -0.193475
v 0.961120 -0.093921 0.191179
v 0.921852 -0.114868 0.183368
v 0.972664 0.061171 0.193475
v 0.972664 -0.061171 0.193475
v 0.814798 -0.093921 0.544431
v 0.781508 -0.114868 0.522187
v 0.824584 0.061171 0.550970
v 0.824584 -0.061171 0.550970
v 0.544431 -0.093921 0.814799
v 0.522187 -0.114868 0.781508
v 0.550970 0.061171 0.824584
v 0.550970 -0.061171 0.824584
v 0.191179 -0.093921 0.961120
v 0.183368 -0.114868 0.921852
v 0.193475 0.061171 0.972664
v 0.193475 -0.061171 0.972664
v -0.191179 -0.093921 0.961120
v -0.183368 -0.114868 0.921852
v -0.193475 0.061171 0.972663
v -0.193475 -0.061171 0.972663
v -0.544431 -0.093921 0.814798
v -0.522187 -0.114868 0.781508
v -0.550970 0.061171 0.824584
v -0.550970 -0.061171 0.824584
v -0.814799 -0.093921 0.544430
v -0.781508 -0.114868 0.522187
v -0.824585 0.061171 0.550969
v -0.824585 -0.061171 0.550969
v -0.961121 -0.093921 0.191178
v -0.921852 -0.114868 0.183367
v -0.972664 0.061171 0.193474
v -0.972664 -0.061171 0.193474
v -0.961120 -0.093921 -0.191180
v -0.921852 -0.114868 -0.183369
v -0.972663 0.061171 -0.193476
v -0.972663 -0.061171 -0.193476
v -0.814798 -0.093921 -0.544432
v -0.781507 -0.114868 -0.522188
v -0.824584 0.061171 -0.550971
v -0.824584 -0.061171 -0.550971
v -0.544430 -0.093921 -0.814799
v -0.522186 -0.114868 -0.781509
v -0.550969 0.061171 -0.824585
v -0.550969 -0.061171 -0.824585
v -0.191177 -0.093921 -0.961121
v -0.183366 -0.114868 -0.921852
v -0.193473 -0.061171 -0.972664
v 0.183368 -0.114868 -0.921852
v 0.191179 -0.093921 -0.961120
v 0.544431 -0.093921 -0.814798
v 0.781508 -0.114868 -0.522187
v 0.183368 0.114868 -0.921852
v 0.522187 -0.114868 -0.781508
vt 0.692817 0.659151
vt 0.692792 0.646897
vt 0.796182 0.646622
vt 0.796302 0.658915
vt 0.899384 0.645193
vt 0.180037 0.538399
vt 0.071743 0.536399
vt 0.074266 0.523589
vt 0.286057 0.539314
vt 0.180210 0.525791
vt 0.286121 0.526791
vt 0.390928 0.527472
vt 0.494649 0.540067
vt 0.390904 0.539866
vt 0.597328 0.539927
vt 0.494634 0.527802
vt 0.698948 0.539451
vt 0.597272 0.527789
vt 0.799511 0.538633
vt 0.698854 0.527444
vt 0.899925 0.536729
vt 0.799304 0.526803
vt 0.072740 0.657715
vt 0.075046 0.645193
vt 0.178387 0.646056
vt 0.178336 0.658360
vt 0.281925 0.646246
vt 0.281923 0.658509
vt 0.384847 0.646539
vt 0.589965 0.659149
vt 0.589960 0.646945
vt 0.589958 0.668422
vt 0.589908 0.700905
vt 0.487332 0.700681
vt 0.384819 0.668023
vt 0.487395 0.668247
vt 0.487410 0.658987
vt 0.384835 0.658747
vt 0.692823 0.668463
vt 0.692812 0.701103
vt 0.692805 0.710419
vt 0.796392 0.710569
vt 0.796341 0.722872
vt 0.796380 0.668231
vt 0.796435 0.701246
vt 0.901988 0.711213
vt 0.899682 0.723736
vt 0.902521 0.667500
vt 0.902702 0.701373
vt 0.179640 0.591392
vt 0.179655 0.604019
vt 0.073429 0.604265
vt 0.179901 0.547956
vt 0.179643 0.581827
vt 0.070464 0.581270
vt 0.285839 0.591724
vt 0.285829 0.604265
vt 0.286004 0.548831
vt 0.285863 0.582198
vt 0.390858 0.591715
vt 0.390890 0.604125
vt 0.390881 0.549284
vt 0.390848 0.582287
vt 0.494772 0.591376
vt 0.494843 0.603657
vt 0.494657 0.549387
vt 0.494732 0.582046
vt 0.597618 0.590708
vt 0.597729 0.602863
vt 0.597366 0.549151
vt 0.597547 0.581474
vt 0.699408 0.589700
vt 0.699562 0.601722
vt 0.699015 0.548575
vt 0.699305 0.580568
vt 0.800144 0.588339
vt 0.800241 0.600178
vt 0.799668 0.547601
vt 0.800088 0.579365
vt 0.900576 0.587686
vt 0.898549 0.599628
vt 0.900709 0.546075
vt 0.901121 0.578317
vt 0.072973 0.711245
vt 0.178426 0.710013
vt 0.178546 0.722306
vt 0.178293 0.667682
vt 0.178348 0.700697
vt 0.072207 0.701429
vt 0.281911 0.709777
vt 0.281936 0.722031
vt 0.281916 0.667826
vt 0.281905 0.700466
vt 0.384763 0.709780
vt 0.384767 0.721983
vt 0.384770 0.700506
vt 0.487309 0.722128
vt 0.487317 0.709941
vt 0.589892 0.710181
vt 0.692803 0.722682
vt 0.487418 0.646801
vt 0.901755 0.657683
vt 0.070885 0.546478
vt 0.072026 0.667555
vt 0.940776 0.124621
vt 0.974893 0.206987
vt 0.974893 0.296138
vt 0.485802 0.296138
vt 0.451685 0.378504
vt 0.485802 0.206987
vt 0.897595 0.524846
vt 0.071137 0.591383
vt 0.075344 0.723735
vt 0.589881 0.722389
vt 0.560815 0.124621
vt 0.623855 0.061582
vt 0.706220 0.027465
vt 0.526698 0.206987
vt 0.623855 0.441543
vt 0.560815 0.378503
vt 0.526698 0.296138
vt 0.706220 0.475660
vt 0.795371 0.475660
vt 0.877737 0.441543
vt 0.071723 0.378504
vt 0.037607 0.296138
vt 0.134763 0.441543
vt 0.877737 0.061582
vt 0.795372 0.027465
vt 0.306280 0.475660
vt 0.217128 0.475660
vt 0.940777 0.378504
vt 0.217129 0.027465
vt 0.037607 0.206987
vt 0.071723 0.124622
vt 0.451685 0.124621
vt 0.388645 0.061582
vt 0.134763 0.061582
vt 0.306280 0.027465
vt 0.388645 0.441543
vn 0.6420 0.6355 -0.4290
vn 0.2215 0.9639 -0.1480
vn 0.2613 0.9639 -0.0520
vn 0.7573 0.6355 -0.1506
vn 0.2613 0.9639 0.0520
vn 0.6420 0.6355 0.4290
vn 0.7573 0.6355 0.1506
vn 0.4290 0.6354 0.6420
vn 0.2215 0.9639 0.1480
vn 0.1480 0.9639 0.2215
vn 0.0520 0.9639 0.2613
vn -0.1506 0.6354 0.7573
vn 0.1506 0.6355 0.7573
vn -0.4290 0.6355 0.6420
vn -0.0520 0.9639 0.2613
vn -0.6420 0.6355 0.4290
vn -0.1480 0.9639 0.2215
vn -0.7573 0.6354 0.1506
vn -0.2215 0.9639 0.1480
vn -0.7573 0.6354 -0.1506
vn -0.2613 0.9639 0.0520
vn -0.2613 0.9639 -0.0520
vn -0.2215 0.9639 -0.1480
vn -0.6420 0.6355 -0.4290
vn -0.1480 0.9639 -0.2215
vn -0.4290 0.6355 -0.6420
vn -0.0520 0.9639 -0.2613
vn 0.4290 0.6355 -0.6420
vn 0.1480 0.9639 -0.2215
vn 0.5477 0.1681 -0.8196
vn 0.5477 -0.1681 -0.8196
vn 0.1923 -0.1682 -0.9668
vn -0.1923 0.1681 -0.9668
vn 0.1923 0.1682 -0.9668
vn 0.1506 0.6355 -0.7573
vn -0.1506 0.6354 -0.7573
vn 0.8196 0.1682 -0.5477
vn 0.8196 -0.1681 -0.5477
vn 0.6420 -0.6355 -0.4290
vn 0.7573 -0.6355 -0.1506
vn 0.2613 -0.9639 -0.0520
vn 0.9668 0.1682 -0.1923
vn 0.9668 -0.1682 -0.1923
vn 0.7573 -0.6355 0.1506
vn 0.2613 -0.9639 0.0520
vn 0.9668 0.1682 0.1923
vn 0.9668 -0.1682 0.1923
vn 0.6420 -0.6355 0.4290
vn 0.2215 -0.9639 0.1480
vn 0.8196 0.1681 0.5477
vn 0.8196 -0.1681 0.5477
vn 0.4290 -0.6354 0.6420
vn 0.1480 -0.9639 0.2215
vn 0.5477 0.1681 0.8196
vn 0.5477 -0.1681 0.8196
vn 0.1506 -0.6355 0.7573
vn 0.0520 -0.9639 0.2613
vn 0.1923 0.1682 0.9668
vn 0.1923 -0.1682 0.9668
vn -0.1506 -0.6354 0.7573
vn -0.0520 -0.9639 0.2613
vn -0.1923 0.1681 0.9668
vn -0.1923 -0.1681 0.9668
vn -0.4290 -0.6355 0.6420
vn -0.1480 -0.9639 0.2215
vn -0.5477 0.1681 0.8196
vn -0.5477 -0.1681 0.8196
vn -0.6420 -0.6355 0.4290
vn -0.2215 -0.9639 0.1480
vn -0.8196 0.1681 0.5477
vn -0.8196 -0.1681 0.5477
vn -0.7573 -0.6354 0.1506
vn -0.2613 -0.9639 0.0520
vn -0.9668 0.1681 0.1923
vn -0.9668 -0.1681 0.1923
vn -0.7573 -0.6354 -0.1506
vn -0.2613 -0.9639 -0.0520
vn -0.9668 0.1681 -0.1923
vn -0.9668 -0.1681 -0.1923
vn -0.6420 -0.6355 -0.4290
vn -0.2215 -0.9639 -0.1480
vn -0.8196 0.1681 -0.5477
vn -0.8196 -0.1681 -0.5477
vn -0.4290 -0.6355 -0.6420
vn -0.1480 -0.9639 -0.2215
vn -0.5477 0.1681 -0.8196
vn -0.5477 -0.1681 -0.8196
vn -0.1506 -0.6354 -0.7573
vn -0.0520 -0.9639 -0.2613
vn -0.1923 -0.1681 -0.9668
vn 0.0520 -0.9639 -0.2613
vn 0.1506 -0.6355 -0.7573
vn 0.4290 -0.6355 -0.6420
vn 0.2215 -0.9639 -0.1480
vn 0.0520 0.9639 -0.2613
vn 0.1480 -0.9639 -0.2215
usemtl None.003
s 1
f 1/1/1 2/2/2 3/3/3
f 4/4/4 3/3/3 5/5/5
f 6/6/6 7/7/7 5/8/5
f 8/9/8 6/6/6 9/10/9
f 8/9/8 10/11/10 11/12/11
f 12/13/12 13/14/13 11/12/11
f 14/15/14 12/13/12 15/16/15
f 16/17/16 14/15/14 17/18/17
f 18/19/18 16/17/16 19/20/19
f 20/21/20 18/19/18 21/22/21
f 20/23/20 22/24/22 23/25/23
f 24/26/24 23/25/23 25/27/25
f 26/28/26 25/27/25 27/29/27
f 28/30/28 29/31/29 2/2/2
f 30/32/30 31/33/31 32/34/32
f 33/35/33 34/36/34 32/34/32
f 35/37/35 36/38/36 27/29/27
f 37/39/37 38/40/38 31/33/31
f 39/41/39 40/42/40 41/43/41
f 42/44/42 43/45/43 38/40/38
f 44/46/44 45/47/45 41/43/41
f 46/48/46 47/49/47 43/45/43
f 48/50/48 49/51/49 45/52/45
f 50/53/50 51/54/51 47/55/47
f 52/56/52 53/57/53 49/51/49
f 54/58/54 55/59/55 51/54/51
f 56/60/56 57/61/57 53/57/53
f 58/62/58 59/63/59 55/59/55
f 60/64/60 61/65/61 57/61/57
f 62/66/62 63/67/63 59/63/59
f 64/68/64 65/69/65 61/65/61
f 66/70/66 67/71/67 63/67/63
f 68/72/68 69/73/69 65/69/65
f 70/74/70 71/75/71 67/71/67
f 72/76/72 73/77/73 69/73/69
f 74/78/74 75/79/75 71/75/71
f 76/80/76 77/81/77 73/77/73
f 78/82/78 79/83/79 75/79/75
f 76/84/76 80/85/80 81/86/81
f 82/87/82 83/88/83 79/89/79
f 80/85/80 84/90/84 85/91/85
f 86/92/86 87/93/87 83/88/83
f 84/90/84 88/94/88 89/95/89
f 33/35/33 90/96/90 87/93/87
f 91/97/91 92/98/92 93/99/93
f 93/99/93 39/41/39 94/100/94
f 28/30/28 35/37/35 95/101/95
f 32/34/32 31/33/31 93/99/93
f 34/36/34 35/37/35 28/30/28
f 31/33/31 38/40/38 39/41/39
f 30/32/30 28/30/28 1/1/1
f 43/45/43 40/42/40 39/41/39
f 42/44/42 37/39/37 1/1/1
f 47/49/47 44/46/44 40/42/40
f 42/44/42 4/4/4 7/102/7
f 47/55/47 51/54/51 48/50/48
f 46/103/46 7/7/7 6/6/6
f 51/54/51 55/59/55 52/56/52
f 50/53/50 6/6/6 8/9/8
f 55/59/55 59/63/59 56/60/56
f 54/58/54 8/9/8 13/14/13
f 63/67/63 60/64/60 56/60/56
f 58/62/58 13/14/13 12/13/12
f 67/71/67 64/68/64 60/64/60
f 62/66/62 12/13/12 14/15/14
f 71/75/71 68/72/68 64/68/64
f 70/74/70 66/70/66 14/15/14
f 71/75/71 75/79/75 72/76/72
f 70/74/70 16/17/16 18/19/18
f 75/79/75 79/83/79 76/80/76
f 74/78/74 18/19/18 20/21/20
f 83/88/83 80/85/80 76/84/76
f 82/87/82 78/104/78 20/23/20
f 87/93/87 84/90/84 80/85/80
f 82/87/82 24/26/24 26/28/26
f 87/93/87 90/96/90 88/94/88
f 86/92/86 26/28/26 36/38/36
f 90/96/90 32/34/32 92/98/92
f 33/35/33 36/38/36 35/37/35
f 89/95/89 88/94/88 92/98/92
f 27/105/27 25/106/25 23/107/23
f 85/108/85 89/109/89 81/110/81
f 4/4/4 1/1/1 3/3/3
f 7/102/7 4/4/4 5/5/5
f 9/10/9 6/6/6 5/8/5
f 10/11/10 8/9/8 9/10/9
f 13/14/13 8/9/8 11/12/11
f 15/16/15 12/13/12 11/12/11
f 17/18/17 14/15/14 15/16/15
f 19/20/19 16/17/16 17/18/17
f 21/22/21 18/19/18 19/20/19
f 22/111/22 20/21/20 21/22/21
f 24/26/24 20/23/20 23/25/23
f 26/28/26 24/26/24 25/27/25
f 36/38/36 26/28/26 27/29/27
f 1/1/1 28/30/28 2/2/2
f 34/36/34 30/32/30 32/34/32
f 90/96/90 33/35/33 32/34/32
f 95/101/95 35/37/35 27/29/27
f 30/32/30 37/39/37 31/33/31
f 94/100/94 39/41/39 41/43/41
f 37/39/37 42/44/42 38/40/38
f 40/42/40 44/46/44 41/43/41
f 42/44/42 46/48/46 43/45/43
f 44/112/44 48/50/48 45/52/45
f 46/103/46 50/53/50 47/55/47
f 48/50/48 52/56/52 49/51/49
f 50/53/50 54/58/54 51/54/51
f 52/56/52 56/60/56 53/57/53
f 54/58/54 58/62/58 55/59/55
f 56/60/56 60/64/60 57/61/57
f 58/62/58 62/66/62 59/63/59
f 60/64/60 64/68/64 61/65/61
f 62/66/62 66/70/66 63/67/63
f 64/68/64 68/72/68 65/69/65
f 66/70/66 70/74/70 67/71/67
f 68/72/68 72/76/72 69/73/69
f 70/74/70 74/78/74 71/75/71
f 72/76/72 76/80/76 73/77/73
f 74/78/74 78/82/78 75/79/75
f 77/113/77 76/84/76 81/86/81
f 78/104/78 82/87/82 79/89/79
f 81/86/81 80/85/80 85/91/85
f 82/87/82 86/92/86 83/88/83
f 85/91/85 84/90/84 89/95/89
f 86/92/86 33/35/33 87/93/87
f 96/114/96 91/97/91 93/99/93
f 96/114/96 93/99/93 94/100/94
f 29/31/29 28/30/28 95/101/95
f 92/98/92 32/34/32 93/99/93
f 30/32/30 34/36/34 28/30/28
f 93/99/93 31/33/31 39/41/39
f 37/39/37 30/32/30 1/1/1
f 38/40/38 43/45/43 39/41/39
f 4/4/4 42/44/42 1/1/1
f 43/45/43 47/49/47 40/42/40
f 46/48/46 42/44/42 7/102/7
f 44/112/44 47/55/47 48/50/48
f 50/53/50 46/103/46 6/6/6
f 48/50/48 51/54/51 52/56/52
f 54/58/54 50/53/50 8/9/8
f 52/56/52 55/59/55 56/60/56
f 58/62/58 54/58/54 13/14/13
f 59/63/59 63/67/63 56/60/56
f 62/66/62 58/62/58 12/13/12
f 63/67/63 67/71/67 60/64/60
f 66/70/66 62/66/62 14/15/14
f 67/71/67 71/75/71 64/68/64
f 16/17/16 70/74/70 14/15/14
f 68/72/68 71/75/71 72/76/72
f 74/78/74 70/74/70 18/19/18
f 72/76/72 75/79/75 76/80/76
f 78/82/78 74/78/74 20/21/20
f 79/89/79 83/88/83 76/84/76
f 24/26/24 82/87/82 20/23/20
f 83/88/83 87/93/87 80/85/80
f 86/92/86 82/87/82 26/28/26
f 84/90/84 87/93/87 88/94/88
f 33/35/33 86/92/86 36/38/36
f 88/94/88 90/96/90 92/98/92
f 34/36/34 33/35/33 35/37/35
f 91/97/91 89/95/89 92/98/92
f 5/115/5 3/116/3 2/117/2
f 5/115/5 2/117/2 9/118/9
f 15/119/15 11/120/11 10/121/10
f 15/119/15 10/121/10 17/122/17
f 19/123/19 23/107/23 21/124/21
f 10/121/10 23/107/23 17/122/17
f 45/125/45 49/126/49 41/127/41
f 95/128/95 27/105/27 29/129/29
f 23/107/23 10/121/10 9/118/9
f 2/117/2 23/107/23 9/118/9
f 23/107/23 19/123/19 17/122/17
f 96/130/96 94/131/94 81/110/81
f 29/129/29 27/105/27 23/107/23
f 2/117/2 29/129/29 23/107/23
f 23/107/23 22/132/22 21/124/21
f 49/126/49 94/131/94 41/127/41
f 65/133/65 53/134/53 57/135/57
f 77/136/77 81/110/81 73/137/73
f 49/126/49 53/134/53 81/110/81
f 61/138/61 65/133/65 57/135/57
f 89/109/89 96/130/96 81/110/81
f 81/110/81 69/139/69 73/137/73
f 65/133/65 69/139/69 81/110/81
f 94/131/94 49/126/49 81/110/81
f 53/134/53 65/133/65 81/110/81
f 89/109/89 91/140/91 96/130/96
