# Blender 3.6.1
# www.blender.org
mtllib soft_round_pillar.mtl
o Cylinder
v 0.058713 -0.358418 -0.295171
v 0.167201 -0.358418 -0.250234
v 0.250234 -0.358418 -0.167201
v 0.295171 -0.358418 -0.058713
v 0.295171 -0.358418 0.058713
v 0.250234 -0.358418 0.167201
v 0.167201 -0.358418 0.250234
v 0.058713 -0.358418 0.295171
v -0.058713 -0.358418 0.295171
v -0.167201 -0.358418 0.250234
v -0.250234 -0.358418 0.167201
v -0.295171 -0.358418 0.058713
v -0.295171 -0.358418 -0.058714
v -0.250234 -0.358418 -0.167201
v -0.167201 -0.358418 -0.250234
v -0.058713 -0.358418 -0.295171
v 0.222723 3.041002 -0.044302
v 0.188815 3.041002 -0.126162
v 0.180169 3.055168 -0.120385
v 0.212523 3.055168 -0.042274
v 0.222723 3.041002 0.044302
v 0.212523 3.055168 0.042273
v 0.188815 3.041002 0.126162
v 0.180169 3.055168 0.120385
v 0.126162 3.041002 0.188815
v 0.120385 3.055168 0.180168
v 0.044302 3.041002 0.222723
v 0.042274 3.055168 0.212523
v -0.044302 3.041002 0.222723
v -0.042273 3.055168 0.212523
v -0.126163 3.041002 0.188815
v -0.120385 3.055168 0.180168
v -0.188815 3.041002 0.126162
v -0.180169 3.055168 0.120384
v -0.222723 3.041002 0.044302
v -0.212523 3.055168 0.042273
v -0.222723 3.041002 -0.044303
v -0.212523 3.055168 -0.042274
v -0.188815 3.041002 -0.126163
v -0.180168 3.055168 -0.120385
v -0.126162 3.041002 -0.188815
v -0.120384 3.055168 -0.180169
v -0.044302 3.041002 -0.222723
v -0.042273 3.055168 -0.212523
v 0.126162 3.041002 -0.188815
v 0.120385 3.055168 -0.180168
v 0.045536 3.020212 -0.228923
v 0.129675 3.020212 -0.194072
v 0.180104 -0.323461 -0.269544
v 0.063244 -0.323461 -0.317949
v 0.042274 3.055168 -0.212523
v -0.063244 -0.323461 -0.317949
v -0.045535 3.020212 -0.228924
v 0.044302 3.041002 -0.222723
v 0.194072 3.020212 -0.129675
v 0.269544 -0.323461 -0.180104
v 0.262244 -0.344252 -0.175225
v 0.309337 -0.344252 -0.061531
v 0.228923 3.020212 -0.045536
v 0.317949 -0.323461 -0.063244
v 0.309337 -0.344252 0.061531
v 0.228923 3.020212 0.045536
v 0.317949 -0.323461 0.063244
v 0.262244 -0.344252 0.175225
v 0.194072 3.020212 0.129675
v 0.269544 -0.323461 0.180104
v 0.175225 -0.344251 0.262244
v 0.129675 3.020212 0.194072
v 0.180104 -0.323461 0.269544
v 0.061531 -0.344251 0.309337
v 0.045536 3.020212 0.228923
v 0.063244 -0.323461 0.317949
v -0.061531 -0.344251 0.309337
v -0.045536 3.020212 0.228923
v -0.063244 -0.323461 0.317949
v -0.175226 -0.344251 0.262243
v -0.129675 3.020212 0.194072
v -0.180104 -0.323461 0.269544
v -0.262244 -0.344252 0.175225
v -0.194072 3.020212 0.129675
v -0.269544 -0.323461 0.180104
v -0.309337 -0.344252 0.061531
v -0.228923 3.020212 0.045535
v -0.317949 -0.323461 0.063244
v -0.309337 -0.344252 -0.061531
v -0.228923 3.020212 -0.045536
v -0.317949 -0.323461 -0.063244
v -0.262243 -0.344252 -0.175226
v -0.194072 3.020212 -0.129675
v -0.269544 -0.323461 -0.180104
v -0.175225 -0.344252 -0.262244
v -0.129674 3.020212 -0.194072
v -0.180103 -0.323461 -0.269544
v -0.061531 -0.344252 -0.309337
v 0.061531 -0.344252 -0.309337
v 0.175225 -0.344252 -0.262243
vn 0.8810 0.4396 -0.1752
vn 0.7468 0.4396 -0.4990
vn 0.4111 0.8692 -0.2747
vn 0.4849 0.8692 -0.0965
vn 0.4849 0.8692 0.0965
vn 0.8810 0.4396 0.1752
vn 0.4111 0.8692 0.2747
vn 0.4990 0.4396 0.7468
vn 0.7468 0.4396 0.4990
vn 0.1752 0.4396 0.8810
vn 0.2747 0.8692 0.4111
vn -0.1752 0.4396 0.8810
vn 0.0965 0.8692 0.4849
vn -0.4990 0.4396 0.7468
vn -0.0965 0.8692 0.4849
vn -0.2747 0.8692 0.4111
vn -0.4111 0.8692 0.2747
vn -0.7468 0.4396 0.4990
vn -0.4849 0.8692 0.0965
vn -0.8810 0.4396 0.1752
vn -0.4849 0.8692 -0.0965
vn -0.8810 0.4396 -0.1752
vn -0.4111 0.8692 -0.2747
vn -0.7468 0.4396 -0.4990
vn -0.2747 0.8692 -0.4111
vn -0.4990 0.4396 -0.7468
vn -0.0965 0.8692 -0.4849
vn 0.4990 0.4396 -0.7468
vn 0.2747 0.8692 -0.4111
vn 0.5486 0.1579 -0.8210
vn 0.5464 -0.1806 -0.8178
vn 0.1919 -0.1805 -0.9647
vn -0.1926 0.1579 -0.9685
vn 0.1926 0.1579 -0.9685
vn -0.1752 0.4396 -0.8810
vn 0.0965 0.8692 -0.4849
vn 0.8210 0.1579 -0.5486
vn 0.8178 -0.1805 -0.5464
vn 0.8182 -0.5514 -0.1628
vn 0.4092 -0.9088 -0.0814
vn 0.3469 -0.9088 -0.2318
vn 0.9685 0.1579 -0.1926
vn 0.9647 -0.1805 -0.1919
vn 0.8182 -0.5514 0.1628
vn 0.4092 -0.9088 0.0814
vn 0.9685 0.1579 0.1926
vn 0.9647 -0.1805 0.1919
vn 0.6937 -0.5514 0.4635
vn 0.3469 -0.9088 0.2318
vn 0.8210 0.1579 0.5486
vn 0.8178 -0.1805 0.5464
vn 0.4635 -0.5514 0.6937
vn 0.2318 -0.9088 0.3469
vn 0.5486 0.1579 0.8210
vn 0.5464 -0.1805 0.8178
vn 0.1628 -0.5514 0.8182
vn 0.0814 -0.9088 0.4092
vn 0.1926 0.1579 0.9685
vn 0.1919 -0.1805 0.9647
vn -0.1628 -0.5514 0.8182
vn -0.0814 -0.9088 0.4092
vn -0.1926 0.1579 0.9685
vn -0.1919 -0.1805 0.9647
vn -0.4635 -0.5514 0.6937
vn -0.2318 -0.9088 0.3469
vn -0.5486 0.1579 0.8210
vn -0.5464 -0.1805 0.8178
vn -0.6937 -0.5514 0.4635
vn -0.3469 -0.9088 0.2318
vn -0.8210 0.1579 0.5486
vn -0.8178 -0.1805 0.5464
vn -0.8182 -0.5514 0.1628
vn -0.4092 -0.9088 0.0814
vn -0.9685 0.1579 0.1926
vn -0.9647 -0.1805 0.1919
vn -0.8182 -0.5514 -0.1628
vn -0.4092 -0.9088 -0.0814
vn -0.9685 0.1579 -0.1926
vn -0.9647 -0.1805 -0.1919
vn -0.6937 -0.5514 -0.4635
vn -0.3469 -0.9088 -0.2318
vn -0.8210 0.1579 -0.5486
vn -0.8178 -0.1805 -0.5464
vn -0.4635 -0.5514 -0.6937
vn -0.2318 -0.9088 -0.3469
vn -0.5486 0.1579 -0.8210
vn -0.5464 -0.1805 -0.8178
vn -0.1628 -0.5514 -0.8182
vn -0.0814 -0.9088 -0.4092
vn -0.1919 -0.1806 -0.9647
vn 0.2318 -0.9088 -0.3469
vn 0.0814 -0.9088 -0.4092
vn 0.1628 -0.5514 -0.8182
vn 0.6937 -0.5514 -0.4635
vn 0.1752 0.4396 -0.8810
vn 0.4635 -0.5514 -0.6937
vt 0.793279 0.985820
vt 0.819536 0.984952
vt 0.819634 0.990324
vt 0.793554 0.991038
vt 0.767827 0.993016
vt 0.767209 0.987757
vt 0.742391 0.997101
vt 0.228671 0.988467
vt 0.255354 0.992658
vt 0.253874 0.997975
vt 0.202309 0.986404
vt 0.228038 0.993800
vt 0.175961 0.985381
vt 0.202000 0.991744
vt 0.149731 0.985062
vt 0.175823 0.990717
vt 0.149725 0.990304
vt 0.123612 0.990661
vt 0.123488 0.985319
vt 0.097390 0.991612
vt 0.097097 0.986260
vt 0.071274 0.993586
vt 0.070659 0.988231
vt 0.045309 0.997685
vt 0.951820 0.991540
vt 0.950396 0.996719
vt 0.924854 0.992789
vt 0.925433 0.987545
vt 0.899003 0.991063
vt 0.846180 0.984721
vt 0.846180 0.990232
vt 0.846156 0.978176
vt 0.844950 0.022524
vt 0.881804 0.022471
vt 0.899586 0.979282
vt 0.872962 0.978418
vt 0.899266 0.985737
vt 0.872763 0.990331
vt 0.819386 0.978455
vt 0.807964 0.022628
vt 0.771382 0.015650
vt 0.771499 0.009548
vt 0.807979 0.009609
vt 0.792905 0.979382
vt 0.771274 0.022352
vt 0.735286 0.014439
vt 0.735743 0.008475
vt 0.766437 0.981369
vt 0.734817 0.021092
vt 0.698629 0.010138
vt 0.700234 0.004081
vt 0.739611 0.985299
vt 0.697313 0.017012
vt 0.259777 0.014802
vt 0.259302 0.008704
vt 0.295009 0.004329
vt 0.256741 0.985972
vt 0.229397 0.981972
vt 0.260299 0.021476
vt 0.223368 0.016183
vt 0.223238 0.010068
vt 0.202666 0.979919
vt 0.223525 0.022945
vt 0.186924 0.016500
vt 0.186906 0.010369
vt 0.176108 0.978920
vt 0.186960 0.023162
vt 0.150511 0.016567
vt 0.150514 0.010448
vt 0.149718 0.978613
vt 0.150517 0.023309
vt 0.114243 0.016505
vt 0.114286 0.010513
vt 0.123315 0.978855
vt 0.114213 0.023185
vt 0.078001 0.016116
vt 0.078158 0.009943
vt 0.096714 0.979766
vt 0.077852 0.022781
vt 0.041961 0.014696
vt 0.042433 0.008761
vt 0.069902 0.981731
vt 0.041444 0.021293
vt 0.005617 0.010333
vt 0.007221 0.004329
vt 0.042502 0.985636
vt 0.004320 0.017172
vt 0.990258 0.009961
vt 0.954086 0.014323
vt 0.953622 0.008365
vt 0.953160 0.984942
vt 0.926153 0.981123
vt 0.954592 0.020953
vt 0.918116 0.015529
vt 0.917994 0.009462
vt 0.918243 0.022149
vt 0.844954 0.009393
vt 0.881788 0.009576
vt 0.881805 0.015735
vt 0.807971 0.015803
vt 0.872862 0.984938
vt 0.844960 0.015729
vt 0.740940 0.991866
vt 0.296612 0.010420
vt 0.043842 0.992340
vt 0.991583 0.016742
vt 0.539997 0.163954
vt 0.508592 0.176963
vt 0.564033 0.139919
vt 0.427501 0.929950
vt 0.454172 0.865558
vt 0.501258 0.979233
vt 0.297898 0.017352
vt 0.988686 0.004081
vt 0.419160 0.139918
vt 0.443196 0.163954
vt 0.406151 0.074522
vt 0.419160 0.043117
vt 0.474600 0.006073
vt 0.539997 0.019081
vt 0.564033 0.043117
vt 0.577041 0.074522
vt 0.577041 0.108514
vt 0.476784 0.979233
vt 0.436866 0.952561
vt 0.508592 0.006073
vt 0.443196 0.019081
vt 0.406151 0.108514
vt 0.436866 0.882864
vt 0.427501 0.905475
vt 0.474600 0.176963
vt 0.523869 0.969867
vt 0.454172 0.969867
vt 0.523869 0.865558
vt 0.541175 0.882864
vt 0.550541 0.905475
vt 0.501258 0.856192
vt 0.550541 0.929950
vt 0.541175 0.952561
vt 0.476784 0.856192
s 1
usemtl None.002
f 17/1/1 18/2/2 19/3/3
f 17/1/1 20/4/4 22/5/5
f 21/6/6 22/5/5 24/7/7
f 25/8/8 23/9/9 24/10/7
f 27/11/10 25/8/8 26/12/11
f 29/13/12 27/11/10 28/14/13
f 31/15/14 29/13/12 30/16/15
f 31/15/14 32/17/16 34/18/17
f 33/19/18 34/18/17 36/20/19
f 35/21/20 36/20/19 38/22/21
f 37/23/22 38/22/21 40/24/23
f 39/25/24 40/26/23 42/27/25
f 41/28/26 42/27/25 44/29/27
f 18/2/2 45/30/28 46/31/29
f 48/32/30 49/33/31 50/34/32
f 53/35/33 47/36/34 50/34/32
f 43/37/35 44/29/27 51/38/36
f 48/32/30 55/39/37 56/40/38
f 58/41/39 4/42/40 3/43/41
f 59/44/42 60/45/43 56/40/38
f 61/46/44 5/47/45 4/42/40
f 62/48/46 63/49/47 60/45/43
f 61/46/44 64/50/48 6/51/49
f 62/48/46 65/52/50 66/53/51
f 67/54/52 7/55/53 6/56/49
f 65/57/50 68/58/54 69/59/55
f 70/60/56 8/61/57 7/55/53
f 71/62/58 72/63/59 69/59/55
f 73/64/60 9/65/61 8/61/57
f 74/66/62 75/67/63 72/63/59
f 76/68/64 10/69/65 9/65/61
f 77/70/66 78/71/67 75/67/63
f 79/72/68 11/73/69 10/69/65
f 77/70/66 80/74/70 81/75/71
f 79/72/68 82/76/72 12/77/73
f 83/78/74 84/79/75 81/75/71
f 85/80/76 13/81/77 12/77/73
f 86/82/78 87/83/79 84/79/75
f 85/80/76 88/84/80 14/85/81
f 89/86/82 90/87/83 87/83/79
f 88/88/80 91/89/84 15/90/85
f 89/91/82 92/92/86 93/93/87
f 91/89/84 94/94/88 16/95/89
f 53/35/33 52/96/90 93/93/87
f 2/97/91 1/98/92 95/99/93
f 57/100/94 3/43/41 2/97/91
f 54/101/95 51/38/36 46/31/29
f 50/34/32 49/33/31 96/102/96
f 47/36/34 54/101/95 45/30/28
f 49/33/31 56/40/38 57/100/94
f 48/32/30 45/30/28 18/2/2
f 60/45/43 58/41/39 57/100/94
f 55/39/37 18/2/2 17/1/1
f 63/49/47 61/46/44 58/41/39
f 59/44/42 17/1/1 21/6/6
f 66/53/51 64/50/48 61/46/44
f 62/48/46 21/6/6 23/103/9
f 69/59/55 67/54/52 64/104/48
f 65/57/50 23/9/9 25/8/8
f 69/59/55 72/63/59 70/60/56
f 68/58/54 25/8/8 27/11/10
f 75/67/63 73/64/60 70/60/56
f 71/62/58 27/11/10 29/13/12
f 75/67/63 78/71/67 76/68/64
f 74/66/62 29/13/12 31/15/14
f 81/75/71 79/72/68 76/68/64
f 77/70/66 31/15/14 33/19/18
f 84/79/75 82/76/72 79/72/68
f 80/74/70 33/19/18 35/21/20
f 87/83/79 85/80/76 82/76/72
f 83/78/74 35/21/20 37/23/22
f 87/83/79 90/87/83 88/84/80
f 86/82/78 37/23/22 39/105/24
f 90/106/83 93/93/87 91/89/84
f 92/92/86 89/91/82 39/25/24
f 52/96/90 94/94/88 91/89/84
f 53/35/33 92/92/86 41/28/26
f 52/96/90 50/34/32 95/99/93
f 53/35/33 43/37/35 54/101/95
f 1/98/92 16/95/89 94/94/88
f 1/107/92 2/108/91 16/109/89
f 22/110/5 46/111/29 30/112/15
f 20/4/4 17/1/1 19/3/3
f 21/6/6 17/1/1 22/5/5
f 23/103/9 21/6/6 24/7/7
f 26/12/11 25/8/8 24/10/7
f 28/14/13 27/11/10 26/12/11
f 30/16/15 29/13/12 28/14/13
f 32/17/16 31/15/14 30/16/15
f 33/19/18 31/15/14 34/18/17
f 35/21/20 33/19/18 36/20/19
f 37/23/22 35/21/20 38/22/21
f 39/105/24 37/23/22 40/24/23
f 41/28/26 39/25/24 42/27/25
f 43/37/35 41/28/26 44/29/27
f 19/3/3 18/2/2 46/31/29
f 47/36/34 48/32/30 50/34/32
f 52/96/90 53/35/33 50/34/32
f 54/101/95 43/37/35 51/38/36
f 49/33/31 48/32/30 56/40/38
f 57/100/94 58/41/39 3/43/41
f 55/39/37 59/44/42 56/40/38
f 58/41/39 61/46/44 4/42/40
f 59/44/42 62/48/46 60/45/43
f 5/47/45 61/46/44 6/51/49
f 63/49/47 62/48/46 66/53/51
f 64/104/48 67/54/52 6/56/49
f 66/113/51 65/57/50 69/59/55
f 67/54/52 70/60/56 7/55/53
f 68/58/54 71/62/58 69/59/55
f 70/60/56 73/64/60 8/61/57
f 71/62/58 74/66/62 72/63/59
f 73/64/60 76/68/64 9/65/61
f 74/66/62 77/70/66 75/67/63
f 76/68/64 79/72/68 10/69/65
f 78/71/67 77/70/66 81/75/71
f 11/73/69 79/72/68 12/77/73
f 80/74/70 83/78/74 81/75/71
f 82/76/72 85/80/76 12/77/73
f 83/78/74 86/82/78 84/79/75
f 13/81/77 85/80/76 14/85/81
f 86/82/78 89/86/82 87/83/79
f 14/114/81 88/88/80 15/90/85
f 90/106/83 89/91/82 93/93/87
f 15/90/85 91/89/84 16/95/89
f 92/92/86 53/35/33 93/93/87
f 96/102/96 2/97/91 95/99/93
f 96/102/96 57/100/94 2/97/91
f 45/30/28 54/101/95 46/31/29
f 95/99/93 50/34/32 96/102/96
f 48/32/30 47/36/34 45/30/28
f 96/102/96 49/33/31 57/100/94
f 55/39/37 48/32/30 18/2/2
f 56/40/38 60/45/43 57/100/94
f 59/44/42 55/39/37 17/1/1
f 60/45/43 63/49/47 58/41/39
f 62/48/46 59/44/42 21/6/6
f 63/49/47 66/53/51 61/46/44
f 65/52/50 62/48/46 23/103/9
f 66/113/51 69/59/55 64/104/48
f 68/58/54 65/57/50 25/8/8
f 67/54/52 69/59/55 70/60/56
f 71/62/58 68/58/54 27/11/10
f 72/63/59 75/67/63 70/60/56
f 74/66/62 71/62/58 29/13/12
f 73/64/60 75/67/63 76/68/64
f 77/70/66 74/66/62 31/15/14
f 78/71/67 81/75/71 76/68/64
f 80/74/70 77/70/66 33/19/18
f 81/75/71 84/79/75 79/72/68
f 83/78/74 80/74/70 35/21/20
f 84/79/75 87/83/79 82/76/72
f 86/82/78 83/78/74 37/23/22
f 85/80/76 87/83/79 88/84/80
f 89/86/82 86/82/78 39/105/24
f 88/88/80 90/106/83 91/89/84
f 41/28/26 92/92/86 39/25/24
f 93/93/87 52/96/90 91/89/84
f 43/37/35 53/35/33 41/28/26
f 94/94/88 52/96/90 95/99/93
f 47/36/34 53/35/33 54/101/95
f 95/99/93 1/98/92 94/94/88
f 5/115/45 16/109/89 4/116/40
f 5/115/45 7/117/53 8/118/57
f 10/119/65 12/120/73 16/109/89
f 13/121/77 14/122/81 15/123/85
f 22/110/5 28/124/13 24/125/7
f 11/126/69 12/120/73 10/119/65
f 9/127/61 10/119/65 8/118/57
f 5/115/45 6/128/49 7/117/53
f 16/109/89 5/115/45 10/119/65
f 19/129/3 46/111/29 20/130/4
f 12/120/73 13/121/77 16/109/89
f 13/121/77 15/123/85 16/109/89
f 16/109/89 2/108/91 4/116/40
f 2/108/91 3/131/41 4/116/40
f 10/119/65 5/115/45 8/118/57
f 30/112/15 46/111/29 32/132/16
f 28/124/13 26/133/11 24/125/7
f 42/134/25 40/135/23 38/136/21
f 32/132/16 46/111/29 44/137/27
f 36/138/19 34/139/17 32/132/16
f 22/110/5 30/112/15 28/124/13
f 42/134/25 38/136/21 36/138/19
f 46/111/29 51/140/36 44/137/27
f 44/137/27 36/138/19 32/132/16
f 46/111/29 22/110/5 20/130/4
f 44/137/27 42/134/25 36/138/19
