# Blender 3.5.1
# www.blender.org
mtllib tapered_cylinder.mtl
o Cylinder.001
v -0.000000 -0.004808 -0.384254
v -0.000000 0.882190 -0.158961
v 0.074964 -0.004808 -0.376870
v 0.031012 0.882190 -0.155906
v 0.147047 -0.004808 -0.355004
v 0.060832 0.882190 -0.146861
v 0.213480 -0.004808 -0.319495
v 0.088314 0.882190 -0.132171
v 0.271708 -0.004808 -0.271708
v 0.112402 0.882190 -0.112402
v 0.319495 -0.004808 -0.213480
v 0.132171 0.882190 -0.088314
v 0.355004 -0.004808 -0.147047
v 0.146861 0.882190 -0.060832
v 0.376870 -0.004808 -0.074964
v 0.155906 0.882190 -0.031012
v 0.384254 -0.004808 0.000000
v 0.158961 0.882190 -0.000000
v 0.376870 -0.004808 0.074964
v 0.155906 0.882190 0.031012
v 0.355004 -0.004808 0.147047
v 0.146861 0.882190 0.060832
v 0.319495 -0.004808 0.213480
v 0.132171 0.882190 0.088314
v 0.271708 -0.004808 0.271708
v 0.112402 0.882190 0.112402
v 0.213480 -0.004808 0.319495
v 0.088314 0.882190 0.132171
v 0.147047 -0.004808 0.355004
v 0.060832 0.882190 0.146861
v 0.074964 -0.004808 0.376870
v 0.031012 0.882190 0.155906
v -0.000000 -0.004808 0.384254
v -0.000000 0.882190 0.158961
v -0.074964 -0.004808 0.376870
v -0.031012 0.882190 0.155906
v -0.147048 -0.004808 0.355004
v -0.060832 0.882190 0.146861
v -0.213480 -0.004808 0.319495
v -0.088314 0.882190 0.132171
v -0.271708 -0.004808 0.271708
v -0.112402 0.882190 0.112402
v -0.319495 -0.004808 0.213480
v -0.132171 0.882190 0.088314
v -0.355004 -0.004808 0.147047
v -0.146861 0.882190 0.060832
v -0.376870 -0.004808 0.074964
v -0.155906 0.882190 0.031012
v -0.384254 -0.004808 0.000000
v -0.158961 0.882190 -0.000000
v -0.376870 -0.004808 -0.074964
v -0.155906 0.882190 -0.031012
v -0.355004 -0.004808 -0.147047
v -0.146861 0.882190 -0.060832
v -0.319495 -0.004808 -0.213480
v -0.132171 0.882190 -0.088314
v -0.271708 -0.004808 -0.271708
v -0.112402 0.882190 -0.112402
v -0.213480 -0.004808 -0.319495
v -0.088314 0.882190 -0.132171
v -0.147048 -0.004808 -0.355004
v -0.060832 0.882190 -0.146861
v -0.074964 -0.004808 -0.376870
v -0.031012 0.882190 -0.155906
vn -0.0000 -0.5911 -0.8066
vn 0.1242 0.7711 -0.6245
vn 0.1574 -0.5911 -0.7911
vn 0.3087 -0.5911 -0.7452
vn 0.2437 0.7711 -0.5883
vn 0.4481 -0.5911 -0.6707
vn 0.3538 0.7711 -0.5294
vn 0.5704 -0.5911 -0.5704
vn 0.4502 0.7711 -0.4502
vn 0.6707 -0.5911 -0.4481
vn 0.5294 0.7711 -0.3538
vn 0.7452 -0.5911 -0.3087
vn 0.5883 0.7711 -0.2437
vn 0.7911 -0.5911 -0.1574
vn 0.6245 0.7711 -0.1242
vn 0.8066 -0.5911 -0.0000
vn 0.6368 0.7711 -0.0000
vn 0.7911 -0.5911 0.1574
vn 0.6245 0.7711 0.1242
vn 0.7452 -0.5911 0.3087
vn 0.5883 0.7711 0.2437
vn 0.6707 -0.5911 0.4481
vn 0.5294 0.7711 0.3538
vn 0.5704 -0.5911 0.5704
vn 0.4502 0.7711 0.4502
vn 0.4481 -0.5911 0.6707
vn 0.3538 0.7711 0.5294
vn 0.3087 -0.5911 0.7452
vn 0.1242 0.7711 0.6245
vn 0.1574 -0.5911 0.7911
vn -0.0000 -0.5911 0.8066
vn -0.1242 0.7711 0.6245
vn -0.1574 -0.5911 0.7911
vn -0.2437 0.7711 0.5883
vn -0.3087 -0.5911 0.7452
vn -0.4481 -0.5911 0.6707
vn -0.3538 0.7711 0.5294
vn -0.5704 -0.5911 0.5704
vn -0.4502 0.7711 0.4502
vn -0.6707 -0.5911 0.4481
vn -0.5294 0.7711 0.3538
vn -0.7452 -0.5911 0.3087
vn -0.5883 0.7711 0.2437
vn -0.7911 -0.5911 0.1574
vn -0.6245 0.7711 0.1242
vn -0.8066 -0.5911 -0.0000
vn -0.6368 0.7711 -0.0000
vn -0.7911 -0.5911 -0.1574
vn -0.6245 0.7711 -0.1242
vn -0.7452 -0.5911 -0.3087
vn -0.5294 0.7711 -0.3538
vn -0.6707 -0.5911 -0.4481
vn -0.5704 -0.5911 -0.5704
vn -0.4502 0.7711 -0.4502
vn -0.4481 -0.5911 -0.6707
vn -0.2437 0.7711 -0.5883
vn -0.3087 -0.5911 -0.7452
vn -0.1574 -0.5911 -0.7911
vn -0.1242 0.7711 -0.6245
vn -0.0000 0.7711 -0.6367
vn 0.2437 0.7711 0.5883
vn -0.0000 0.7711 0.6367
vn -0.5883 0.7711 -0.2437
vn -0.3538 0.7711 -0.5294
vt 0.996233 0.509560
vt 0.349666 0.002452
vt 0.425584 0.367053
vt 0.806230 0.995524
vt 0.224080 0.905133
vt 0.539669 0.488416
vt 0.957396 0.509560
vt 0.409691 0.405420
vt 0.790163 0.995524
vt 0.239952 0.898559
vt 0.917894 0.509560
vt 0.386620 0.439950
vt 0.773822 0.995524
vt 0.254236 0.889014
vt 0.877821 0.509560
vt 0.357255 0.469315
vt 0.757244 0.995524
vt 0.266384 0.876866
vt 0.837268 0.509560
vt 0.322725 0.492386
vt 0.740468 0.995524
vt 0.275928 0.862582
vt 0.796331 0.509560
vt 0.284358 0.508279
vt 0.723533 0.995524
vt 0.282503 0.846710
vt 0.755104 0.509560
vt 0.243628 0.516381
vt 0.706478 0.995524
vt 0.285855 0.829860
vt 0.713685 0.509560
vt 0.202100 0.516381
vt 0.689343 0.995524
vt 0.285855 0.812681
vt 0.672169 0.509560
vt 0.161369 0.508279
vt 0.672168 0.995524
vt 0.282503 0.795831
vt 0.630653 0.509560
vt 0.123002 0.492387
vt 0.654994 0.995524
vt 0.275929 0.779959
vt 0.589233 0.509560
vt 0.088473 0.469315
vt 0.637859 0.995524
vt 0.266384 0.765675
vt 0.548007 0.509560
vt 0.059108 0.439950
vt 0.620804 0.995524
vt 0.254236 0.753527
vt 0.507070 0.509560
vt 0.036036 0.405421
vt 0.603869 0.995524
vt 0.239952 0.743982
vt 0.466517 0.509560
vt 0.020143 0.367053
vt 0.587093 0.995524
vt 0.224080 0.737408
vt 0.426443 0.509560
vt 0.012042 0.326323
vt 0.570515 0.995524
vt 0.207230 0.734056
vt 0.386942 0.509560
vt 0.012042 0.284795
vt 0.554174 0.995524
vt 0.190050 0.734056
vt 0.348105 0.509560
vt 0.997794 0.002452
vt 0.020143 0.244065
vt 0.538107 0.995524
vt 0.807791 0.488416
vt 0.173201 0.737408
vt 0.958957 0.002452
vt 0.036035 0.205697
vt 0.791724 0.488416
vt 0.157329 0.743982
vt 0.919456 0.002452
vt 0.059107 0.171168
vt 0.775383 0.488416
vt 0.143044 0.753527
vt 0.879382 0.002452
vt 0.088472 0.141803
vt 0.758805 0.488416
vt 0.130896 0.765674
vt 0.838829 0.002452
vt 0.123002 0.118731
vt 0.742029 0.488416
vt 0.121352 0.779959
vt 0.797892 0.002452
vt 0.161369 0.102839
vt 0.725094 0.488416
vt 0.114778 0.795831
vt 0.756666 0.002452
vt 0.202099 0.094737
vt 0.708039 0.488416
vt 0.111426 0.812680
vt 0.715246 0.002452
vt 0.243627 0.094737
vt 0.690904 0.488416
vt 0.111426 0.829860
vt 0.673730 0.002452
vt 0.284358 0.102838
vt 0.673730 0.488416
vt 0.114777 0.846710
vt 0.632214 0.002452
vt 0.322725 0.118731
vt 0.656555 0.488416
vt 0.121352 0.862582
vt 0.590794 0.002452
vt 0.357254 0.141802
vt 0.639420 0.488416
vt 0.130896 0.876866
vt 0.549568 0.002452
vt 0.386619 0.171167
vt 0.622365 0.488416
vt 0.143044 0.889014
vt 0.508631 0.002452
vt 0.409691 0.205697
vt 0.605430 0.488416
vt 0.157329 0.898559
vt 0.468078 0.002452
vt 0.425583 0.244064
vt 0.588654 0.488416
vt 0.173201 0.905133
vt 0.428004 0.002452
vt 0.433685 0.284794
vt 0.190050 0.908485
vt 0.572076 0.488416
vt 0.388503 0.002452
vt 0.433685 0.326322
vt 0.207230 0.908485
vt 0.555735 0.488416
s 1
usemtl Material.005
f 1/1/1 4/9/2 3/7/3
f 4/9/2 5/11/4 3/7/3
f 6/13/5 7/15/6 5/11/4
f 8/17/7 9/19/8 7/15/6
f 10/21/9 11/23/10 9/19/8
f 12/25/11 13/27/12 11/23/10
f 14/29/13 15/31/14 13/27/12
f 16/33/15 17/35/16 15/31/14
f 18/37/17 19/39/18 17/35/16
f 20/41/19 21/43/20 19/39/18
f 22/45/21 23/47/22 21/43/20
f 24/49/23 25/51/24 23/47/22
f 26/53/25 27/55/26 25/51/24
f 28/57/27 29/59/28 27/55/26
f 29/59/28 32/65/29 31/63/30
f 32/65/29 33/67/31 31/63/30
f 33/68/31 36/75/32 35/73/33
f 35/73/33 38/79/34 37/77/35
f 38/79/34 39/81/36 37/77/35
f 40/83/37 41/85/38 39/81/36
f 42/87/39 43/89/40 41/85/38
f 44/91/41 45/93/42 43/89/40
f 46/95/43 47/97/44 45/93/42
f 48/99/45 49/101/46 47/97/44
f 50/103/47 51/105/48 49/101/46
f 52/107/49 53/109/50 51/105/48
f 53/109/50 56/115/51 55/113/52
f 56/115/51 57/117/53 55/113/52
f 58/119/54 59/121/55 57/117/53
f 59/121/55 62/128/56 61/125/57
f 38/80/34 22/46/21 6/14/5
f 62/128/56 63/129/58 61/125/57
f 64/132/59 1/2/1 63/129/58
f 15/32/14 31/64/30 47/98/44
f 1/1/1 2/4/60 4/9/2
f 4/9/2 6/13/5 5/11/4
f 6/13/5 8/17/7 7/15/6
f 8/17/7 10/21/9 9/19/8
f 10/21/9 12/25/11 11/23/10
f 12/25/11 14/29/13 13/27/12
f 14/29/13 16/33/15 15/31/14
f 16/33/15 18/37/17 17/35/16
f 18/37/17 20/41/19 19/39/18
f 20/41/19 22/45/21 21/43/20
f 22/45/21 24/49/23 23/47/22
f 24/49/23 26/53/25 25/51/24
f 26/53/25 28/57/27 27/55/26
f 28/57/27 30/61/61 29/59/28
f 29/59/28 30/61/61 32/65/29
f 32/65/29 34/70/62 33/67/31
f 33/68/31 34/71/62 36/75/32
f 35/73/33 36/75/32 38/79/34
f 38/79/34 40/83/37 39/81/36
f 40/83/37 42/87/39 41/85/38
f 42/87/39 44/91/41 43/89/40
f 44/91/41 46/95/43 45/93/42
f 46/95/43 48/99/45 47/97/44
f 48/99/45 50/103/47 49/101/46
f 50/103/47 52/107/49 51/105/48
f 52/107/49 54/111/63 53/109/50
f 53/109/50 54/111/63 56/115/51
f 56/115/51 58/119/54 57/117/53
f 58/119/54 60/123/64 59/121/55
f 59/121/55 60/123/64 62/128/56
f 6/14/5 4/10/2 2/5/60
f 2/5/60 64/131/59 6/14/5
f 64/131/59 62/127/56 6/14/5
f 62/127/56 60/124/64 54/112/63
f 60/124/64 58/120/54 54/112/63
f 58/120/54 56/116/51 54/112/63
f 54/112/63 52/108/49 46/96/43
f 52/108/49 50/104/47 46/96/43
f 50/104/47 48/100/45 46/96/43
f 46/96/43 44/92/41 42/88/39
f 42/88/39 40/84/37 38/80/34
f 38/80/34 36/76/32 30/62/61
f 36/76/32 34/72/62 30/62/61
f 34/72/62 32/66/29 30/62/61
f 30/62/61 28/58/27 26/54/25
f 26/54/25 24/50/23 22/46/21
f 22/46/21 20/42/19 18/38/17
f 18/38/17 16/34/15 22/46/21
f 16/34/15 14/30/13 22/46/21
f 14/30/13 12/26/11 10/22/9
f 10/22/9 8/18/7 6/14/5
f 46/96/43 42/88/39 38/80/34
f 30/62/61 26/54/25 38/80/34
f 26/54/25 22/46/21 38/80/34
f 14/30/13 10/22/9 22/46/21
f 10/22/9 6/14/5 22/46/21
f 6/14/5 62/127/56 54/112/63
f 54/112/63 46/96/43 6/14/5
f 46/96/43 38/80/34 6/14/5
f 62/128/56 64/132/59 63/129/58
f 64/132/59 2/6/60 1/2/1
f 63/130/58 1/3/1 3/8/3
f 3/8/3 5/12/4 7/16/6
f 7/16/6 9/20/8 15/32/14
f 9/20/8 11/24/10 15/32/14
f 11/24/10 13/28/12 15/32/14
f 15/32/14 17/36/16 19/40/18
f 19/40/18 21/44/20 23/48/22
f 23/48/22 25/52/24 31/64/30
f 25/52/24 27/56/26 31/64/30
f 27/56/26 29/60/28 31/64/30
f 31/64/30 33/69/31 35/74/33
f 35/74/33 37/78/35 39/82/36
f 39/82/36 41/86/38 47/98/44
f 41/86/38 43/90/40 47/98/44
f 43/90/40 45/94/42 47/98/44
f 47/98/44 49/102/46 51/106/48
f 51/106/48 53/110/50 55/114/52
f 55/114/52 57/118/53 63/130/58
f 57/118/53 59/122/55 63/130/58
f 59/122/55 61/126/57 63/130/58
f 63/130/58 3/8/3 15/32/14
f 3/8/3 7/16/6 15/32/14
f 15/32/14 19/40/18 31/64/30
f 19/40/18 23/48/22 31/64/30
f 31/64/30 35/74/33 47/98/44
f 35/74/33 39/82/36 47/98/44
f 47/98/44 51/106/48 63/130/58
f 51/106/48 55/114/52 63/130/58
f 63/130/58 15/32/14 47/98/44
