# Blender 3.5.1
# www.blender.org
mtllib tapered_tube.mtl
o Cylinder.001
v -0.000000 -0.002737 -1.899988
v -0.000000 3.581869 -0.786000
v 0.370696 -0.002737 -1.863479
v 0.153352 3.581869 -0.770897
v 0.727147 -0.002737 -1.755359
v 0.300811 3.581869 -0.726170
v 1.055653 -0.002737 -1.579782
v 0.436710 3.581869 -0.653535
v 1.343592 -0.002737 -1.343494
v 0.555827 3.581869 -0.555786
v 1.579897 -0.002737 -1.055577
v 0.653583 3.581869 -0.436678
v 1.755488 -0.002737 -0.727094
v 0.726223 3.581869 -0.300789
v 1.863616 -0.002737 -0.370669
v 0.770954 3.581869 -0.153341
v 1.900126 -0.002737 0.000000
v 0.786058 3.581869 -0.000000
v 1.863616 -0.002737 0.370669
v 0.770954 3.581869 0.153341
v 1.755488 -0.002737 0.727094
v 0.726223 3.581869 0.300789
v 1.579897 -0.002737 1.055577
v 0.653583 3.581869 0.436678
v 1.343592 -0.002737 1.343494
v 0.555827 3.581869 0.555786
v 1.055653 -0.002737 1.579782
v 0.436710 3.581869 0.653535
v 0.727147 -0.002737 1.755359
v 0.300811 3.581869 0.726170
v 0.370696 -0.002737 1.863479
v 0.153352 3.581869 0.770897
v -0.000000 -0.002737 1.899988
v -0.000000 3.581869 0.786000
v -0.370697 -0.002737 1.863479
v -0.153352 3.581869 0.770897
v -0.727147 -0.002737 1.755359
v -0.300811 3.581869 0.726170
v -1.055654 -0.002737 1.579782
v -0.436711 3.581869 0.653535
v -1.343593 -0.002737 1.343494
v -0.555827 3.581869 0.555786
v -1.579898 -0.002737 1.055577
v -0.653583 3.581869 0.436678
v -1.755488 -0.002737 0.727094
v -0.726223 3.581869 0.300789
v -1.863616 -0.002737 0.370669
v -0.770954 3.581869 0.153341
v -1.900127 -0.002737 0.000000
v -0.786058 3.581869 -0.000000
v -1.863616 -0.002737 -0.370669
v -0.770954 3.581869 -0.153341
v -1.755488 -0.002737 -0.727094
v -0.726223 3.581869 -0.300789
v -1.579898 -0.002737 -1.055577
v -0.653583 3.581869 -0.436678
v -1.343593 -0.002737 -1.343494
v -0.555827 3.581869 -0.555786
v -1.055654 -0.002737 -1.579782
v -0.436711 3.581869 -0.653535
v -0.727147 -0.002737 -1.755359
v -0.300811 3.581869 -0.726170
v -0.370697 -0.002737 -1.863479
v -0.153352 3.581869 -0.770897
v -0.000000 -0.002737 -1.738489
v -0.000000 3.581869 -0.719190
v 0.339187 -0.002737 -1.705084
v 0.140317 3.581869 -0.705371
v 0.665339 -0.002737 -1.606154
v 0.275242 3.581869 -0.664445
v 0.965923 -0.002737 -1.445500
v 0.399590 3.581869 -0.597985
v 1.229386 -0.002737 -1.229297
v 0.508581 3.581869 -0.508544
v 1.445606 -0.002737 -0.965853
v 0.598028 3.581869 -0.399561
v 1.606271 -0.002737 -0.665291
v 0.664494 3.581869 -0.275222
v 1.705208 -0.002737 -0.339162
v 0.705423 3.581869 -0.140307
v 1.738615 -0.002737 0.000000
v 0.719243 3.581869 -0.000000
v 1.705208 -0.002737 0.339162
v 0.705423 3.581869 0.140307
v 1.606271 -0.002737 0.665291
v 0.664494 3.581869 0.275222
v 1.445606 -0.002737 0.965853
v 0.598028 3.581869 0.399561
v 1.229386 -0.002737 1.229297
v 0.508581 3.581869 0.508544
v 0.965923 -0.002737 1.445500
v 0.399590 3.581869 0.597985
v 0.665339 -0.002737 1.606154
v 0.275242 3.581869 0.664445
v 0.339187 -0.002737 1.705084
v 0.140317 3.581869 0.705371
v -0.000000 -0.002737 1.738489
v -0.000000 3.581869 0.719190
v -0.339188 -0.002737 1.705084
v -0.140317 3.581869 0.705371
v -0.665340 -0.002737 1.606154
v -0.275242 3.581869 0.664445
v -0.965924 -0.002737 1.445500
v -0.399590 3.581869 0.597985
v -1.229387 -0.002737 1.229297
v -0.508582 3.581869 0.508544
v -1.445606 -0.002737 0.965853
v -0.598029 3.581869 0.399561
v -1.606272 -0.002737 0.665291
v -0.664494 3.581869 0.275222
v -1.705209 -0.002737 0.339162
v -0.705423 3.581869 0.140307
v -1.738616 -0.002737 0.000000
v -0.719243 3.581869 -0.000000
v -1.705209 -0.002737 -0.339162
v -0.705423 3.581869 -0.140307
v -1.606272 -0.002737 -0.665291
v -0.664494 3.581869 -0.275222
v -1.445606 -0.002737 -0.965853
v -0.598029 3.581869 -0.399561
v -1.229387 -0.002737 -1.229297
v -0.508582 3.581869 -0.508544
v -0.965924 -0.002737 -1.445500
v -0.399590 3.581869 -0.597985
v -0.665340 -0.002737 -1.606154
v -0.275242 3.581869 -0.664445
v -0.339188 -0.002737 -1.705084
v -0.140317 3.581869 -0.705371
vn -0.0000 -0.6652 -0.7467
vn 0.1094 0.8279 -0.5501
vn 0.1457 -0.6652 -0.7323
vn 0.2857 -0.6652 -0.6899
vn 0.2146 0.8279 -0.5183
vn 0.4149 -0.6651 -0.6209
vn 0.3116 0.8278 -0.4665
vn 0.5281 -0.6650 -0.5281
vn 0.3967 0.8278 -0.3967
vn 0.6210 -0.6650 -0.4149
vn 0.4665 0.8278 -0.3117
vn 0.6901 -0.6649 -0.2858
vn 0.5184 0.8278 -0.2147
vn 0.7326 -0.6649 -0.1457
vn 0.5503 0.8277 -0.1095
vn 0.7470 -0.6649 -0.0000
vn 0.5611 0.8277 -0.0000
vn 0.7326 -0.6649 0.1457
vn 0.5503 0.8277 0.1095
vn 0.6901 -0.6649 0.2858
vn 0.5184 0.8278 0.2147
vn 0.6210 -0.6650 0.4149
vn 0.4665 0.8278 0.3117
vn 0.5281 -0.6650 0.5281
vn 0.3967 0.8278 0.3967
vn 0.4149 -0.6651 0.6209
vn 0.3116 0.8278 0.4664
vn 0.2857 -0.6652 0.6899
vn 0.1094 0.8279 0.5501
vn 0.1457 -0.6652 0.7323
vn -0.0000 -0.6652 0.7467
vn -0.1094 0.8279 0.5501
vn -0.1457 -0.6652 0.7323
vn -0.2146 0.8279 0.5183
vn -0.2857 -0.6652 0.6899
vn -0.4149 -0.6651 0.6209
vn -0.3116 0.8278 0.4664
vn -0.5281 -0.6650 0.5281
vn -0.3967 0.8278 0.3967
vn -0.6210 -0.6650 0.4149
vn -0.4665 0.8278 0.3117
vn -0.6901 -0.6649 0.2858
vn -0.5184 0.8278 0.2147
vn -0.7326 -0.6649 0.1457
vn -0.5503 0.8277 0.1095
vn -0.7470 -0.6649 -0.0000
vn -0.5611 0.8277 -0.0000
vn -0.7326 -0.6649 -0.1457
vn -0.5503 0.8277 -0.1095
vn -0.6901 -0.6649 -0.2858
vn -0.4665 0.8278 -0.3117
vn -0.6210 -0.6650 -0.4149
vn -0.5281 -0.6650 -0.5281
vn -0.3967 0.8278 -0.3967
vn -0.4149 -0.6651 -0.6209
vn -0.2147 0.8279 -0.5183
vn -0.2857 -0.6652 -0.6899
vn -0.1457 -0.6652 -0.7323
vn -0.1094 0.8279 -0.5501
vn -0.0000 0.8279 -0.5609
vn 0.2147 0.8279 0.5183
vn -0.0000 0.8279 0.5609
vn -0.5184 0.8278 -0.2147
vn -0.3116 0.8278 -0.4664
vn -0.0000 -0.8535 0.5211
vn -0.1017 -0.8535 0.5111
vn -0.1358 0.7178 0.6828
vn -0.1994 -0.8535 0.4815
vn -0.2664 0.7178 0.6432
vn -0.2895 -0.8534 0.4334
vn -0.3868 0.7178 0.5789
vn -0.3685 -0.8534 0.3686
vn -0.4924 0.7177 0.4924
vn -0.4334 -0.8534 0.2896
vn -0.5790 0.7177 0.3869
vn -0.4816 -0.8534 0.1995
vn -0.6434 0.7177 0.2665
vn -0.5113 -0.8534 0.1017
vn -0.6830 0.7176 0.1359
vn -0.5213 -0.8534 -0.0000
vn -0.6964 0.7176 -0.0000
vn -0.5113 -0.8534 -0.1017
vn -0.6830 0.7176 -0.1359
vn -0.4816 -0.8534 -0.1995
vn -0.6434 0.7177 -0.2665
vn -0.4334 -0.8534 -0.2896
vn -0.5790 0.7177 -0.3869
vn -0.3685 -0.8534 -0.3686
vn -0.4924 0.7177 -0.4924
vn -0.2895 -0.8534 -0.4334
vn -0.3868 0.7178 -0.5789
vn -0.1994 -0.8535 -0.4815
vn -0.1017 -0.8535 -0.5111
vn -0.1358 0.7178 -0.6828
vn -0.0000 -0.8535 -0.5211
vn 0.1017 -0.8535 -0.5111
vn 0.1358 0.7178 -0.6828
vn 0.1994 -0.8535 -0.4815
vn 0.2664 0.7178 -0.6432
vn 0.2895 -0.8534 -0.4334
vn 0.3868 0.7178 -0.5789
vn 0.3685 -0.8534 -0.3686
vn 0.4923 0.7177 -0.4924
vn 0.4334 -0.8534 -0.2896
vn 0.5790 0.7177 -0.3869
vn 0.4816 -0.8534 -0.1995
vn 0.6434 0.7176 -0.2665
vn 0.5113 -0.8534 -0.1017
vn 0.6831 0.7176 -0.1359
vn 0.5213 -0.8534 -0.0000
vn 0.6964 0.7176 -0.0000
vn 0.5113 -0.8534 0.1017
vn 0.6830 0.7176 0.1359
vn 0.4816 -0.8534 0.1995
vn 0.4334 -0.8534 0.2896
vn 0.5790 0.7177 0.3869
vn 0.3685 -0.8534 0.3686
vn 0.4923 0.7177 0.4924
vn 0.2895 -0.8534 0.4334
vn 0.1994 -0.8535 0.4815
vn 0.2664 0.7178 0.6432
vn 0.1017 -0.8535 0.5111
vn 0.1358 0.7178 0.6828
vn -0.0000 0.7179 0.6962
vn -0.2664 0.7178 -0.6432
vn -0.0000 0.7179 -0.6962
vn 0.6434 0.7177 0.2665
vn 0.3868 0.7178 0.5789
vn -0.0000 1.0000 -0.0000
vn -0.0000 -1.0000 -0.0000
vt 0.999704 0.001773
vt 0.000271 0.251522
vt 0.482919 0.482204
vt 0.516416 0.615626
vt 0.836995 0.361441
vt 0.162980 0.611190
vt 0.365596 0.999211
vt 0.632162 0.865708
vt 0.966449 0.001773
vt 0.513217 0.482204
vt 0.823238 0.361441
vt 0.645629 0.865708
vt 0.932621 0.001773
vt 0.544538 0.482204
vt 0.809244 0.361441
vt 0.658731 0.865708
vt 0.898302 0.001773
vt 0.576280 0.482204
vt 0.795046 0.361441
vt 0.671732 0.865708
vt 0.863572 0.001773
vt 0.608301 0.482204
vt 0.780679 0.361441
vt 0.684761 0.865708
vt 0.828514 0.001773
vt 0.640559 0.482204
vt 0.766176 0.361441
vt 0.697861 0.865708
vt 0.793210 0.001773
vt 0.673043 0.482204
vt 0.751571 0.361441
vt 0.711051 0.865708
vt 0.757742 0.001773
vt 0.705803 0.482204
vt 0.736898 0.361441
vt 0.724376 0.865708
vt 0.722192 0.001773
vt 0.739056 0.482204
vt 0.722192 0.361441
vt 0.737984 0.865708
vt 0.686641 0.001773
vt 0.772314 0.482204
vt 0.707485 0.361441
vt 0.751589 0.865708
vt 0.651173 0.001773
vt 0.805071 0.482204
vt 0.692812 0.361441
vt 0.764911 0.865708
vt 0.615869 0.001773
vt 0.837539 0.482204
vt 0.678207 0.361441
vt 0.778099 0.865708
vt 0.580811 0.001773
vt 0.869767 0.482204
vt 0.663704 0.361441
vt 0.791197 0.865708
vt 0.546081 0.001773
vt 0.901747 0.482204
vt 0.649337 0.361441
vt 0.804224 0.865708
vt 0.511762 0.001773
vt 0.933436 0.482204
vt 0.635139 0.361441
vt 0.817219 0.865708
vt 0.477934 0.001773
vt 0.964705 0.482204
vt 0.621145 0.361441
vt 0.830299 0.865708
vt 0.444679 0.001773
vt 0.555295 0.251522
vt 0.994935 0.482204
vt 0.004481 0.615626
vt 0.607388 0.361441
vt 0.392586 0.611190
vt 0.153938 0.999211
vt 0.843747 0.865708
vt 0.522040 0.251522
vt 0.034758 0.615626
vt 0.378829 0.611190
vt 0.167410 0.999211
vt 0.488213 0.251522
vt 0.066037 0.615626
vt 0.364835 0.611190
vt 0.180536 0.999211
vt 0.453893 0.251522
vt 0.097760 0.615626
vt 0.350637 0.611190
vt 0.193546 0.999211
vt 0.419163 0.251522
vt 0.129772 0.615626
vt 0.336270 0.611190
vt 0.206578 0.999211
vt 0.384106 0.251522
vt 0.162026 0.615626
vt 0.321767 0.611190
vt 0.219678 0.999211
vt 0.348801 0.251522
vt 0.194508 0.615626
vt 0.307162 0.611190
vt 0.232868 0.999211
vt 0.313333 0.251522
vt 0.227268 0.615626
vt 0.292489 0.611190
vt 0.246192 0.999211
vt 0.277783 0.251522
vt 0.260522 0.615626
vt 0.277783 0.611190
vt 0.259800 0.999211
vt 0.242233 0.251522
vt 0.293784 0.615626
vt 0.263076 0.611190
vt 0.273403 0.999211
vt 0.206765 0.251522
vt 0.326547 0.615626
vt 0.248403 0.611190
vt 0.286720 0.999211
vt 0.171460 0.251522
vt 0.359023 0.615626
vt 0.233799 0.611190
vt 0.299902 0.999211
vt 0.136403 0.251522
vt 0.391257 0.615626
vt 0.219295 0.611190
vt 0.313003 0.999211
vt 0.101673 0.251522
vt 0.423244 0.615626
vt 0.204928 0.611190
vt 0.326031 0.999211
vt 0.067353 0.251522
vt 0.454941 0.615626
vt 0.190731 0.611190
vt 0.339026 0.999211
vt 0.033526 0.251522
vt 0.486184 0.615626
vt 0.176737 0.611190
vt 0.352136 0.999211
vt 0.489521 0.494122
vt 0.509776 0.627545
vt 0.631547 0.860454
vt 0.366225 0.993955
vt 0.518311 0.494122
vt 0.644438 0.860454
vt 0.548628 0.494122
vt 0.657460 0.860454
vt 0.579608 0.494122
vt 0.670601 0.860454
vt 0.610968 0.494122
vt 0.683846 0.860454
vt 0.642602 0.494122
vt 0.697188 0.860454
vt 0.674467 0.494122
vt 0.710628 0.860454
vt 0.706578 0.494122
vt 0.724192 0.860454
vt 0.739041 0.494122
vt 0.737977 0.860454
vt 0.771507 0.494122
vt 0.751761 0.860454
vt 0.803607 0.494122
vt 0.765325 0.860454
vt 0.835451 0.494122
vt 0.778765 0.860454
vt 0.867055 0.494122
vt 0.792108 0.860454
vt 0.898373 0.494122
vt 0.805354 0.860454
vt 0.929294 0.494122
vt 0.818499 0.860454
vt 0.959553 0.494122
vt 0.831511 0.860454
vt 0.011082 0.627545
vt 0.988279 0.494122
vt 0.153327 0.993955
vt 0.844385 0.860454
vt 0.039851 0.627545
vt 0.166227 0.993955
vt 0.070125 0.627545
vt 0.179273 0.993955
vt 0.101096 0.627545
vt 0.192415 0.993955
vt 0.132450 0.627545
vt 0.205659 0.993955
vt 0.164080 0.627545
vt 0.219000 0.993955
vt 0.195943 0.627545
vt 0.232440 0.993955
vt 0.228054 0.627545
vt 0.246004 0.993955
vt 0.260517 0.627545
vt 0.259789 0.993955
vt 0.292985 0.627545
vt 0.273574 0.993955
vt 0.325085 0.627545
vt 0.287142 0.993955
vt 0.356937 0.627545
vt 0.300577 0.993955
vt 0.388550 0.627545
vt 0.313916 0.993955
vt 0.419874 0.627545
vt 0.327166 0.993955
vt 0.450811 0.627545
vt 0.340302 0.993955
vt 0.481049 0.627545
vt 0.353337 0.993955
s 1
usemtl Material.005
f 1/1/1 4/11/2 3/9/3
f 4/11/2 5/13/4 3/9/3
f 6/15/5 7/17/6 5/13/4
f 8/19/7 9/21/8 7/17/6
f 10/23/9 11/25/10 9/21/8
f 12/27/11 13/29/12 11/25/10
f 14/31/13 15/33/14 13/29/12
f 16/35/15 17/37/16 15/33/14
f 18/39/17 19/41/18 17/37/16
f 20/43/19 21/45/20 19/41/18
f 22/47/21 23/49/22 21/45/20
f 24/51/23 25/53/24 23/49/22
f 26/55/25 27/57/26 25/53/24
f 28/59/27 29/61/28 27/57/26
f 29/61/28 32/67/29 31/65/30
f 32/67/29 33/69/31 31/65/30
f 33/70/31 36/79/32 35/77/33
f 35/77/33 38/83/34 37/81/35
f 38/83/34 39/85/36 37/81/35
f 40/87/37 41/89/38 39/85/36
f 42/91/39 43/93/40 41/89/38
f 44/95/41 45/97/42 43/93/40
f 46/99/43 47/101/44 45/97/42
f 48/103/45 49/105/46 47/101/44
f 50/107/47 51/109/48 49/105/46
f 52/111/49 53/113/50 51/109/48
f 53/113/50 56/119/51 55/117/52
f 56/119/51 57/121/53 55/117/52
f 58/123/54 59/125/55 57/121/53
f 59/125/55 62/131/56 61/129/57
f 62/131/56 63/133/58 61/129/57
f 64/135/59 1/2/1 63/133/58
f 1/1/1 2/5/60 4/11/2
f 4/11/2 6/15/5 5/13/4
f 6/15/5 8/19/7 7/17/6
f 8/19/7 10/23/9 9/21/8
f 10/23/9 12/27/11 11/25/10
f 12/27/11 14/31/13 13/29/12
f 14/31/13 16/35/15 15/33/14
f 16/35/15 18/39/17 17/37/16
f 18/39/17 20/43/19 19/41/18
f 20/43/19 22/47/21 21/45/20
f 22/47/21 24/51/23 23/49/22
f 24/51/23 26/55/25 25/53/24
f 26/55/25 28/59/27 27/57/26
f 28/59/27 30/63/61 29/61/28
f 29/61/28 30/63/61 32/67/29
f 32/67/29 34/73/62 33/69/31
f 33/70/31 34/74/62 36/79/32
f 35/77/33 36/79/32 38/83/34
f 38/83/34 40/87/37 39/85/36
f 40/87/37 42/91/39 41/89/38
f 42/91/39 44/95/41 43/93/40
f 44/95/41 46/99/43 45/97/42
f 46/99/43 48/103/45 47/101/44
f 48/103/45 50/107/47 49/105/46
f 50/107/47 52/111/49 51/109/48
f 52/111/49 54/115/63 53/113/50
f 53/113/50 54/115/63 56/119/51
f 56/119/51 58/123/54 57/121/53
f 58/123/54 60/127/64 59/125/55
f 59/125/55 60/127/64 62/131/56
f 62/131/56 64/135/59 63/133/58
f 64/135/59 2/6/60 1/2/1
f 65/137/65 67/141/66 68/142/67
f 68/142/67 67/141/66 69/143/68
f 70/144/69 69/143/68 71/145/70
f 72/146/71 71/145/70 73/147/72
f 74/148/73 73/147/72 75/149/74
f 76/150/75 75/149/74 77/151/76
f 78/152/77 77/151/76 79/153/78
f 80/154/79 79/153/78 81/155/80
f 82/156/81 81/155/80 83/157/82
f 84/158/83 83/157/82 85/159/84
f 86/160/85 85/159/84 87/161/86
f 88/162/87 87/161/86 89/163/88
f 90/164/89 89/163/88 91/165/90
f 92/166/91 91/165/90 93/167/92
f 93/167/92 95/169/93 96/170/94
f 96/170/94 95/169/93 97/172/95
f 97/171/95 99/175/96 100/176/97
f 99/175/96 101/177/98 102/178/99
f 102/178/99 101/177/98 103/179/100
f 104/180/101 103/179/100 105/181/102
f 106/182/103 105/181/102 107/183/104
f 108/184/105 107/183/104 109/185/106
f 110/186/107 109/185/106 111/187/108
f 112/188/109 111/187/108 113/189/110
f 114/190/111 113/189/110 115/191/112
f 116/192/113 115/191/112 117/193/114
f 117/193/114 119/195/115 120/196/116
f 120/196/116 119/195/115 121/197/117
f 122/198/118 121/197/117 123/199/119
f 123/199/119 125/201/120 126/202/121
f 126/202/121 125/201/120 127/203/122
f 128/204/123 127/203/122 65/138/65
f 65/137/65 68/142/67 66/139/124
f 68/142/67 69/143/68 70/144/69
f 70/144/69 71/145/70 72/146/71
f 72/146/71 73/147/72 74/148/73
f 74/148/73 75/149/74 76/150/75
f 76/150/75 77/151/76 78/152/77
f 78/152/77 79/153/78 80/154/79
f 80/154/79 81/155/80 82/156/81
f 82/156/81 83/157/82 84/158/83
f 84/158/83 85/159/84 86/160/85
f 86/160/85 87/161/86 88/162/87
f 88/162/87 89/163/88 90/164/89
f 90/164/89 91/165/90 92/166/91
f 92/166/91 93/167/92 94/168/125
f 93/167/92 96/170/94 94/168/125
f 96/170/94 97/172/95 98/174/126
f 97/171/95 100/176/97 98/173/126
f 99/175/96 102/178/99 100/176/97
f 102/178/99 103/179/100 104/180/101
f 104/180/101 105/181/102 106/182/103
f 106/182/103 107/183/104 108/184/105
f 108/184/105 109/185/106 110/186/107
f 110/186/107 111/187/108 112/188/109
f 112/188/109 113/189/110 114/190/111
f 114/190/111 115/191/112 116/192/113
f 116/192/113 117/193/114 118/194/127
f 117/193/114 120/196/116 118/194/127
f 120/196/116 121/197/117 122/198/118
f 122/198/118 123/199/119 124/200/128
f 123/199/119 126/202/121 124/200/128
f 126/202/121 127/203/122 128/204/123
f 128/204/123 65/138/65 66/140/124
s 0
f 128/204/129 2/7/129 64/136/129
f 34/75/129 100/176/129 36/80/129
f 26/56/129 88/162/129 90/164/129
f 62/132/129 126/202/129 64/136/129
f 46/100/129 112/188/129 48/104/129
f 32/68/129 94/168/129 96/170/129
f 66/139/129 68/142/129 2/8/129
f 62/132/129 124/200/129 126/202/129
f 66/140/129 2/7/129 128/204/129
f 30/64/129 92/166/129 94/168/129
f 60/128/129 124/200/129 62/132/129
f 70/144/129 72/146/129 6/16/129
f 124/200/129 60/128/129 122/198/129
f 10/24/129 8/20/129 74/148/129
f 40/88/129 106/182/129 42/92/129
f 28/60/129 90/164/129 92/166/129
f 122/198/129 58/124/129 120/196/129
f 12/28/129 10/24/129 76/150/129
f 42/92/129 108/184/129 44/96/129
f 74/148/129 8/20/129 72/146/129
f 120/196/129 56/120/129 118/194/129
f 14/32/129 12/28/129 78/152/129
f 44/96/129 110/186/129 46/100/129
f 24/52/129 86/160/129 88/162/129
f 118/194/129 54/116/129 116/192/129
f 16/36/129 14/32/129 80/154/129
f 48/104/129 114/190/129 50/108/129
f 116/192/129 54/116/129 52/112/129
f 116/192/129 52/112/129 114/190/129
f 18/40/129 16/36/129 82/156/129
f 20/44/129 82/156/129 84/158/129
f 96/170/129 34/76/129 32/68/129
f 112/188/129 114/190/129 48/104/129
f 18/40/129 82/156/129 20/44/129
f 114/190/129 52/112/129 50/108/129
f 82/156/129 16/36/129 80/154/129
f 110/186/129 112/188/129 46/100/129
f 20/44/129 84/158/129 22/48/129
f 22/48/129 84/158/129 86/160/129
f 80/154/129 14/32/129 78/152/129
f 108/184/129 110/186/129 44/96/129
f 22/48/129 86/160/129 24/52/129
f 6/16/129 72/146/129 8/20/129
f 118/194/129 56/120/129 54/116/129
f 106/182/129 108/184/129 42/92/129
f 24/52/129 88/162/129 26/56/129
f 122/198/129 60/128/129 58/124/129
f 76/150/129 10/24/129 74/148/129
f 104/180/129 106/182/129 40/88/129
f 26/56/129 90/164/129 28/60/129
f 78/152/129 12/28/129 76/150/129
f 120/196/129 58/124/129 56/120/129
f 102/178/129 104/180/129 38/84/129
f 28/60/129 92/166/129 30/64/129
f 4/12/129 70/144/129 6/16/129
f 38/84/129 104/180/129 40/88/129
f 100/176/129 102/178/129 36/80/129
f 30/64/129 94/168/129 32/68/129
f 98/173/129 100/176/129 34/75/129
f 36/80/129 102/178/129 38/84/129
f 98/174/129 34/76/129 96/170/129
f 64/136/129 126/202/129 128/204/129
f 2/8/129 68/142/129 4/12/129
f 95/169/130 31/66/130 33/71/130
f 68/142/129 70/144/129 4/12/129
f 41/90/130 43/94/130 107/183/130
f 61/130/130 63/134/130 125/201/130
f 31/66/130 95/169/130 93/167/130
f 63/134/130 127/203/130 125/201/130
f 65/137/130 1/3/130 67/141/130
f 3/10/130 5/14/130 69/143/130
f 65/138/130 127/203/130 1/4/130
f 117/193/130 53/114/130 55/118/130
f 59/126/130 61/130/130 123/199/130
f 69/143/130 5/14/130 71/145/130
f 123/199/130 121/197/130 59/126/130
f 9/22/130 73/147/130 7/18/130
f 39/86/130 41/90/130 105/181/130
f 27/58/130 91/165/130 89/163/130
f 121/197/130 119/195/130 57/122/130
f 11/26/130 75/149/130 9/22/130
f 75/149/130 73/147/130 9/22/130
f 25/54/130 89/163/130 87/161/130
f 119/195/130 117/193/130 55/118/130
f 13/30/130 77/151/130 11/26/130
f 37/82/130 39/86/130 103/179/130
f 61/130/130 125/201/130 123/199/130
f 117/193/130 115/191/130 53/114/130
f 15/34/130 79/153/130 13/30/130
f 21/46/130 85/159/130 83/157/130
f 81/155/130 79/153/130 15/34/130
f 115/191/130 113/189/130 51/110/130
f 17/38/130 81/155/130 15/34/130
f 47/102/130 49/106/130 113/189/130
f 19/42/130 83/157/130 81/155/130
f 111/187/130 47/102/130 113/189/130
f 17/38/130 19/42/130 81/155/130
f 1/3/130 3/10/130 67/141/130
f 113/189/130 49/106/130 51/110/130
f 109/185/130 45/98/130 111/187/130
f 19/42/130 21/46/130 83/157/130
f 115/191/130 51/110/130 53/114/130
f 79/153/130 77/151/130 13/30/130
f 107/183/130 43/94/130 109/185/130
f 21/46/130 23/50/130 85/159/130
f 77/151/130 75/149/130 11/26/130
f 43/94/130 45/98/130 109/185/130
f 105/181/130 41/90/130 107/183/130
f 23/50/130 25/54/130 87/161/130
f 119/195/130 55/118/130 57/122/130
f 121/197/130 57/122/130 59/126/130
f 103/179/130 39/86/130 105/181/130
f 25/54/130 27/58/130 89/163/130
f 73/147/130 71/145/130 7/18/130
f 23/50/130 87/161/130 85/159/130
f 101/177/130 37/82/130 103/179/130
f 27/58/130 29/62/130 91/165/130
f 29/62/130 93/167/130 91/165/130
f 5/14/130 7/18/130 71/145/130
f 99/175/130 35/78/130 101/177/130
f 29/62/130 31/66/130 93/167/130
f 97/171/130 33/72/130 99/175/130
f 35/78/130 37/82/130 101/177/130
f 97/172/130 95/169/130 33/71/130
f 45/98/130 47/102/130 111/187/130
f 33/72/130 35/78/130 99/175/130
f 127/203/130 63/134/130 1/4/130
f 67/141/130 3/10/130 69/143/130
