# Blender 3.5.1
# www.blender.org
mtllib triangle_x_small.mtl
o Cylinder
v 0.000000 0.323819 -1.930450
v 0.000000 0.323819 0.445000
v 1.299038 -0.025382 -1.930450
v 1.299038 -0.025382 0.445000
v -1.299038 -0.025382 -1.930450
v -1.299038 -0.025381 0.445000
vn 0.2596 0.9657 -0.0000
vn -0.0000 -1.0000 -0.0000
vn -0.0000 -0.0000 1.0000
vn -0.2596 0.9657 -0.0000
vn -0.0000 -0.0000 -1.0000
vt 0.997384 0.997599
vt 0.003970 0.997600
vt 0.727190 0.630946
vt 0.505750 0.997599
vt 0.272835 0.682132
vt 0.495605 0.997600
vt 0.997384 0.709601
vt 0.239326 0.511062
vt 0.458335 0.558674
vt 0.505750 0.709601
vt 0.239326 0.019427
vt 0.541690 0.609860
vt 0.777036 0.511062
vt 0.003970 0.709602
vt 0.996045 0.558674
vt 0.777036 0.019427
vt 0.003980 0.609860
vt 0.495605 0.709602
s 0
usemtl None
f 1/1/1 2/4/1 4/10/1 3/7/1
f 3/8/2 4/11/2 6/16/2 5/13/2
f 4/12/3 2/5/3 6/17/3
f 5/14/4 6/18/4 2/6/4 1/2/4
f 1/3/5 3/9/5 5/15/5
