# Blender v2.80 (sub 75) OBJ File: 'triangle_short.blend'
# www.blender.org
mtllib triangle_short.mtl
o Cylinder
v 0.000000 1.213740 -1.930450
v 0.000000 1.213740 0.445000
v 1.299038 -0.036260 -1.930450
v 1.299038 -0.036260 0.445000
v -1.299038 -0.036260 -1.930450
v -1.299038 -0.036259 0.445000
vt 0.969573 0.366175
vt 0.501176 0.366495
vt 0.500933 0.011020
vt 0.969329 0.010700
vt 0.012809 0.010379
vt 0.481205 0.009644
vt 0.482009 0.521937
vt 0.013613 0.522672
vt 0.999050 0.432588
vt 0.743804 0.678095
vt 0.488662 0.432480
vt 0.482567 0.877412
vt 0.014171 0.878147
vt 0.743752 0.924006
vt 0.488610 0.678391
vt 0.998998 0.678499
vn 0.6934 0.7206 -0.0000
vn -0.0000 -1.0000 0.0000
vn 0.0000 0.0000 1.0000
vn -0.6934 0.7206 -0.0000
vn -0.0000 -0.0000 -1.0000
usemtl None
s off
f 1/1/1 2/2/1 4/3/1 3/4/1
f 3/5/2 4/6/2 6/7/2 5/8/2
f 4/9/3 2/10/3 6/11/3
f 5/8/4 6/7/4 2/12/4 1/13/4
f 1/14/5 3/15/5 5/16/5
