# Blender v2.80 (sub 75) OBJ File: 'wedge_corner.blend'
# www.blender.org
mtllib wedge_corner.mtl
o Cone.001_Cone.006
v 0.858405 -0.076145 -1.147186
v 0.864009 -0.072498 0.839765
v -1.135994 -0.072411 0.840518
v -1.136686 -0.072524 -1.158326
v -1.135397 1.926397 0.839829
v 0.861207 -0.074321 -0.153710
v -1.135696 0.926993 0.840174
v -0.135594 0.926950 0.839697
v -0.135893 -0.072455 0.840042
v -0.138396 0.925126 -0.153778
v -1.136240 -0.072467 -0.159004
v -1.135942 0.926937 -0.159348
v -0.139141 -0.074334 -1.152756
v -0.137517 -0.073394 -0.156357
vt 0.287285 0.494254
vt 0.464504 0.744172
vt 0.463515 0.493428
vt 0.865847 0.005912
vt 0.651396 0.220421
vt 0.651286 0.005967
vt 0.436725 0.006021
vt 0.436835 0.220476
vt 0.222289 0.006193
vt 0.639749 0.492603
vt 0.640739 0.743350
vt 0.816762 0.492469
vt 0.819235 0.342669
vt 0.962689 0.342475
vt 0.962689 0.486433
vt 0.818814 0.486458
vt 0.675781 0.342864
vt 0.674940 0.486483
vt 0.676623 0.199245
vt 0.819656 0.198881
vt 0.962689 0.198517
vt 0.817751 0.743216
vt 0.993774 0.492335
vt 0.641729 0.994097
vt 0.222399 0.220647
vt 0.007852 0.006364
vt 0.436945 0.434930
vt 0.640735 0.743346
vt 0.639746 0.492602
vn 0.7070 0.7072 -0.0033
vn 0.0003 0.0003 1.0000
vn -1.0000 0.0003 0.0002
vn 0.0052 0.7069 -0.7073
vn -0.0005 -1.0000 0.0005
vn -0.0014 -1.0000 0.0005
vn -0.0014 -1.0000 0.0014
vn -0.0005 -1.0000 0.0014
vn 0.0052 0.7070 -0.7072
vn -1.0000 0.0003 0.0004
vn 0.0005 0.0003 1.0000
usemtl wedgecorner
s off
f 1/1/1 10/2/1 6/3/1
f 2/4/2 8/5/2 9/6/2
f 3/7/3 7/8/3 11/9/3
f 4/10/4 12/11/4 13/12/4
f 14/13/5 9/14/5 3/15/5 11/16/5
f 13/17/6 14/13/6 11/16/6 4/18/6
f 1/19/7 6/20/7 14/13/7 13/17/7
f 6/20/8 2/21/8 9/14/8 14/13/8
f 13/12/4 10/22/4 1/23/4
f 13/12/4 12/11/4 10/22/4
f 12/11/9 5/24/9 10/22/9
f 11/9/10 12/25/10 4/26/10
f 11/9/3 7/8/3 12/25/3
f 7/8/3 5/27/3 12/25/3
f 9/6/11 7/8/11 3/7/11
f 9/6/11 8/5/11 7/8/11
f 8/5/11 5/27/11 7/8/11
f 6/3/1 8/28/1 2/29/1
f 6/3/1 10/2/1 8/28/1
f 10/2/1 5/24/1 8/28/1
