<?xml version="1.0" encoding="UTF-8" standalone="no"?>
<svg
   xmlns:dc="http://purl.org/dc/elements/1.1/"
   xmlns:cc="http://creativecommons.org/ns#"
   xmlns:rdf="http://www.w3.org/1999/02/22-rdf-syntax-ns#"
   xmlns:svg="http://www.w3.org/2000/svg"
   xmlns="http://www.w3.org/2000/svg"
   xmlns:sodipodi="http://sodipodi.sourceforge.net/DTD/sodipodi-0.dtd"
   xmlns:inkscape="http://www.inkscape.org/namespaces/inkscape"
   version="1.1"
   x="0px"
   y="0px"
   viewBox="0 0 75.000001 74.999999"
   enable-background="new 0 0 100 100"
   xml:space="preserve"
   id="svg60"
   sodipodi:docname="star_filled.svg"
   width="75"
   height="75"
   inkscape:version="0.92.1 r15371"
   inkscape:export-filename="/mnt/data1/Overgrowth/Data/UI/star_filled.png"
   inkscape:export-xdpi="96"
   inkscape:export-ydpi="96"><metadata
     id="metadata66"><rdf:RDF><cc:Work
         rdf:about=""><dc:format>image/svg+xml</dc:format><dc:type
           rdf:resource="http://purl.org/dc/dcmitype/StillImage" /><dc:title /></cc:Work></rdf:RDF></metadata><defs
     id="defs64" /><sodipodi:namedview
     pagecolor="#ffffff"
     bordercolor="#666666"
     borderopacity="1"
     objecttolerance="10"
     gridtolerance="10"
     guidetolerance="10"
     inkscape:pageopacity="0"
     inkscape:pageshadow="2"
     inkscape:window-width="1916"
     inkscape:window-height="1056"
     id="namedview62"
     showgrid="false"
     fit-margin-top="0"
     fit-margin-left="0"
     fit-margin-right="0"
     fit-margin-bottom="0"
     inkscape:zoom="8.77"
     inkscape:cx="22.952424"
     inkscape:cy="44.059901"
     inkscape:window-x="1920"
     inkscape:window-y="20"
     inkscape:window-maximized="0"
     inkscape:current-layer="svg60"
     inkscape:snap-grids="false"
     inkscape:snap-to-guides="false"
     inkscape:pagecheckerboard="true" /><path
     style="opacity:0.26180258;fill:#ffcc00;fill-opacity:0;stroke:none;stroke-width:0.45610034;stroke-linecap:butt;stroke-linejoin:round;stroke-miterlimit:6.5999999;stroke-dasharray:0.45610034, 0.45610034;stroke-dashoffset:0;stroke-opacity:1"
     d="M 19.97174,56.701765 C 21.621248,47.16163 21.758124,46.142119 21.466512,45.56806 21.289959,45.220502 17.79134,41.685453 13.691802,37.712395 7.4130784,31.627382 6.3166284,30.471175 6.7362724,30.377781 7.0102674,30.316801 11.698528,29.6387 17.154629,28.870885 c 6.071321,-0.854392 10.124973,-1.525226 10.448016,-1.72903 0.354897,-0.2239 2.060105,-3.447566 5.204593,-9.839195 l 4.676757,-9.506193 4.754189,9.633764 c 3.885877,7.874237 4.85855,9.673441 5.32558,9.851005 0.314263,0.119483 4.966222,0.84026 10.337681,1.601726 5.37146,0.761466 10.0096,1.439055 10.30697,1.505754 0.47947,0.107542 -0.11428,0.757652 -5.24515,5.742977 -10.127624,9.840339 -9.548659,9.22888 -9.548659,10.084604 0,0.419227 0.774048,5.222757 1.720105,10.674508 0.946059,5.451759 1.690073,9.988669 1.653364,10.082038 -0.03671,0.0934 -4.222956,-2.01834 -9.302774,-4.69268 -5.651897,-2.975529 -9.491917,-4.866399 -9.895427,-4.872619 -0.430648,-0.007 -3.898826,1.69073 -9.997507,4.892909 -5.135962,2.6967 -9.360229,4.90308 -9.387259,4.90308 -0.02703,0 0.767954,-4.725798 1.766632,-10.501768 z"
     id="path106"
     inkscape:connector-curvature="0"
     inkscape:export-filename="/mnt/data1/Overgrowth/Data/Textures/ui/menus/main/star-filled.png"
     inkscape:export-xdpi="96"
     inkscape:export-ydpi="96" /><path
     style="opacity:0.26180258;fill:#ffcc00;fill-opacity:0;stroke:none;stroke-width:0.45610034;stroke-linecap:butt;stroke-linejoin:round;stroke-miterlimit:6.5999999;stroke-dasharray:0.45610034, 0.45610034;stroke-dashoffset:0;stroke-opacity:1"
     d="M 19.97174,56.701765 C 21.621248,47.16163 21.758124,46.142119 21.466512,45.56806 21.289959,45.220502 17.79134,41.685453 13.691802,37.712395 7.4130784,31.627382 6.3166284,30.471175 6.7362724,30.377781 7.0102674,30.316801 11.698528,29.6387 17.154629,28.870885 c 6.071321,-0.854392 10.124973,-1.525226 10.448016,-1.72903 0.354897,-0.2239 2.060105,-3.447566 5.204593,-9.839195 l 4.676757,-9.506193 4.754189,9.633764 c 3.885877,7.874237 4.85855,9.673441 5.32558,9.851005 0.314263,0.119483 4.966222,0.84026 10.337681,1.601726 5.37146,0.761466 10.0096,1.439055 10.30697,1.505754 0.47947,0.107542 -0.11428,0.757652 -5.24515,5.742977 -10.127624,9.840339 -9.548659,9.22888 -9.548659,10.084604 0,0.419227 0.774048,5.222757 1.720105,10.674508 0.946059,5.451759 1.690073,9.988669 1.653364,10.082038 -0.03671,0.0934 -4.222956,-2.01834 -9.302774,-4.69268 -5.651897,-2.975529 -9.491917,-4.866399 -9.895427,-4.872619 -0.430648,-0.007 -3.898826,1.69073 -9.997507,4.892909 -5.135962,2.6967 -9.360229,4.90308 -9.387259,4.90308 -0.02703,0 0.767954,-4.725798 1.766632,-10.501768 z"
     id="path108"
     inkscape:connector-curvature="0"
     inkscape:export-filename="/mnt/data1/Overgrowth/Data/Textures/ui/menus/main/star-filled.png"
     inkscape:export-xdpi="96"
     inkscape:export-ydpi="96" /><path
     style="opacity:0.26180258;fill:#ffcc00;fill-opacity:0;stroke:none;stroke-width:0.45610034;stroke-linecap:butt;stroke-linejoin:round;stroke-miterlimit:6.5999999;stroke-dasharray:0.45610034, 0.45610034;stroke-dashoffset:0;stroke-opacity:1"
     d="M 19.97174,56.701765 C 21.621248,47.16163 21.758124,46.142119 21.466512,45.56806 21.289959,45.220502 17.79134,41.685453 13.691802,37.712395 7.4130784,31.627382 6.3166284,30.471175 6.7362724,30.377781 7.0102674,30.316801 11.698528,29.6387 17.154629,28.870885 c 6.071321,-0.854392 10.124973,-1.525226 10.448016,-1.72903 0.354897,-0.2239 2.060105,-3.447566 5.204593,-9.839195 l 4.676757,-9.506193 4.754189,9.633764 c 3.885877,7.874237 4.85855,9.673441 5.32558,9.851005 0.314263,0.119483 4.966222,0.84026 10.337681,1.601726 5.37146,0.761466 10.0096,1.439055 10.30697,1.505754 0.47947,0.107542 -0.11428,0.757652 -5.24515,5.742977 -10.127624,9.840339 -9.548659,9.22888 -9.548659,10.084604 0,0.419227 0.774048,5.222757 1.720105,10.674508 0.946059,5.451759 1.690073,9.988669 1.653364,10.082038 -0.03671,0.0934 -4.222956,-2.01834 -9.302774,-4.69268 -5.651897,-2.975529 -9.491917,-4.866399 -9.895427,-4.872619 -0.430648,-0.007 -3.898826,1.69073 -9.997507,4.892909 -5.135962,2.6967 -9.360229,4.90308 -9.387259,4.90308 -0.02703,0 0.767954,-4.725798 1.766632,-10.501768 z"
     id="path110"
     inkscape:connector-curvature="0"
     inkscape:export-filename="/mnt/data1/Overgrowth/Data/Textures/ui/menus/main/star-filled.png"
     inkscape:export-xdpi="96"
     inkscape:export-ydpi="96" /><path
     style="opacity:1;fill:#ffcc00;fill-opacity:1;stroke:#ffcc00;stroke-width:0.23945267;stroke-linecap:butt;stroke-linejoin:round;stroke-miterlimit:6.5999999;stroke-dasharray:0.23945268, 0.23945268;stroke-dashoffset:0;stroke-opacity:1"
     d="m 17.129003,68.608486 c 0.03501,-0.15432 0.899804,-5.1265 1.921771,-11.049299 1.169702,-6.778975 1.831837,-10.908831 1.787173,-11.14691 -0.03902,-0.208011 -0.160723,-0.512637 -0.270444,-0.676947 -0.109718,-0.164309 -3.733025,-3.714617 -8.051788,-7.889573 -4.3187645,-4.174954 -7.8746375,-7.64187 -7.9019395,-7.704255 -0.02841,-0.0649 4.64004,-0.788511 10.9129675,-1.691503 6.723103,-0.967794 11.098553,-1.648771 11.31414,-1.760886 0.19334,-0.100548 0.471329,-0.311109 0.617749,-0.467919 0.146422,-0.156809 2.452581,-4.726424 5.124798,-10.154703 2.67222,-5.428276 4.873116,-9.8841272 4.890876,-9.9018912 0.0178,-0.01776 2.23158,4.4363652 4.9196,9.8980642 2.93129,5.955988 5.01214,10.046627 5.19923,10.220858 0.17157,0.159774 0.44002,0.356525 0.59657,0.437227 0.15655,0.0807 5.2094,0.855282 11.22857,1.721292 6.01916,0.86601 10.9555,1.607558 10.96964,1.647886 0.0141,0.04033 -3.53017,3.53151 -7.87623,7.758182 -6.31416,6.140697 -7.94881,7.792571 -8.13518,8.220916 l -0.23323,0.536061 1.92313,11.100861 c 1.05771,6.105479 1.91695,11.108329 1.9094,11.117459 -0.008,0.009 -0.90269,-0.45242 -1.98921,-1.02565 -15.15968,-7.99804 -17.89866,-9.393319 -18.43937,-9.393319 -0.484369,0 -1.544161,0.52407 -9.639927,4.766999 -5.002651,2.62185 -9.488628,4.98089 -9.968836,5.24232 -0.838231,0.45632 -0.870565,0.4641 -0.80946,0.19473 z"
     id="path4933"
     inkscape:connector-curvature="0"
     inkscape:export-filename="/mnt/data1/Overgrowth/Data/Textures/ui/menus/main/star-filled.png"
     inkscape:export-xdpi="96"
     inkscape:export-ydpi="96" /><g
     inkscape:groupmode="layer"
     id="layer1"
     inkscape:label="Layer 1" /><path
     d="m 73.669396,29.000001 c -0.2,-0.6 -0.8,-1.7 -2.7,-2 l -21.299994,-3.1 -9.3,-18.7999995 c -0.9,-1.8 -2,-2.1 -2.9,-2.1 -1.8,0 -2.8,1.8 -3,2.1 l -9.3,18.7999995 -21.0000015,3 c -1.4,0.2 -2.5,1 -2.8,2.1 -0.40000001,1.2 0.1,2.4 1.3,3.6 l 15.0000015,14.5 -3.5,20.699997 c -0.1,0.5 -0.4,2.1 0.6,3.200001 0.8,1 2.2,1.2 3.7,0.5 0,0 0.1,0 0.1,-0.1 l 18.9,-10 18.9,10 c 0.7,0.4 1.399994,0.6 1.999994,0.6 0.8,0 1.4,-0.3 1.9,-0.8 0.4,-0.400001 0.8,-1.2 0.6,-2.7 l -3.599994,-21.399998 15.299994,-14.9 c 1.3,-1.299999 1.3,-2.4 1.1,-3.2 z M 52.526984,44.535615 c -0.365032,0.365032 -0.547548,0.91258 -0.45629,1.460129 L 55.355985,64.977421 38.290724,56.03413 c -0.45629,-0.273773 -1.095097,-0.273773 -1.551387,0 l -17.06526,8.943291 3.285291,-18.981677 c 0.09126,-0.547549 -0.09126,-1.095097 -0.456291,-1.460129 L 8.6318482,31.120677 27.704788,28.382935 c 0.547548,-0.09126 1.003838,-0.45629 1.277613,-0.912581 l 8.487001,-17.247776 8.487001,17.247776 c 0.273774,0.456291 0.730064,0.821323 1.277613,0.912581 l 19.072932,2.737742 z"
     id="path58"
     style="fill:#666666"
     inkscape:connector-curvature="0"
     inkscape:export-filename="/mnt/data1/Overgrowth/Data/Textures/ui/menus/main/star-filled.png"
     inkscape:export-xdpi="96"
     inkscape:export-ydpi="96"
     sodipodi:nodetypes="ccccsccscccccccccsccccccccccccccccccccc" /></svg>