<?xml version="1.0" encoding="UTF-8" standalone="no"?>
<svg
   xmlns:dc="http://purl.org/dc/elements/1.1/"
   xmlns:cc="http://creativecommons.org/ns#"
   xmlns:rdf="http://www.w3.org/1999/02/22-rdf-syntax-ns#"
   xmlns:svg="http://www.w3.org/2000/svg"
   xmlns="http://www.w3.org/2000/svg"
   xmlns:sodipodi="http://sodipodi.sourceforge.net/DTD/sodipodi-0.dtd"
   xmlns:inkscape="http://www.inkscape.org/namespaces/inkscape"
   version="1.1"
   x="0px"
   y="0px"
   viewBox="0 0 75.000001 74.999999"
   enable-background="new 0 0 100 100"
   xml:space="preserve"
   id="svg60"
   sodipodi:docname="star_hover.svg"
   width="75"
   height="75"
   inkscape:version="0.92.1 r15371"
   inkscape:export-filename="/home/max/dev/Overgrowth/Data/Textures/ui/menus/main/star-hover.png"
   inkscape:export-xdpi="96"
   inkscape:export-ydpi="96"><metadata
     id="metadata66"><rdf:RDF><cc:Work
         rdf:about=""><dc:format>image/svg+xml</dc:format><dc:type
           rdf:resource="http://purl.org/dc/dcmitype/StillImage" /><dc:title /></cc:Work></rdf:RDF></metadata><defs
     id="defs64" /><sodipodi:namedview
     pagecolor="#ffffff"
     bordercolor="#666666"
     borderopacity="1"
     objecttolerance="10"
     gridtolerance="10"
     guidetolerance="10"
     inkscape:pageopacity="0"
     inkscape:pageshadow="2"
     inkscape:window-width="1918"
     inkscape:window-height="1158"
     id="namedview62"
     showgrid="false"
     fit-margin-top="0"
     fit-margin-left="0"
     fit-margin-right="0"
     fit-margin-bottom="0"
     inkscape:zoom="8.77"
     inkscape:cx="37.350964"
     inkscape:cy="44.770951"
     inkscape:window-x="1920"
     inkscape:window-y="20"
     inkscape:window-maximized="1"
     inkscape:current-layer="svg60"
     inkscape:snap-grids="false"
     inkscape:snap-to-guides="false"
     inkscape:pagecheckerboard="true"
     showguides="false" /><path
     style="fill:#ff5555;fill-rule:evenodd;stroke:#000000;stroke-width:1px;stroke-linecap:butt;stroke-linejoin:miter;stroke-opacity:1"
     d="M 37.628279,9.7776513 27.708096,27.109464 9.1220068,30.416191 21.550742,44.783352 19.04219,65.992018 38.540479,57.098061 55.644242,66.676168 55.074117,45.239452 67.502851,30.986317 48.346637,26.539338 Z"
     id="path4709"
     inkscape:connector-curvature="0" /><path
     style="opacity:0.26180258;fill:#ffcc00;fill-opacity:0;stroke:none;stroke-width:0.45610034;stroke-linecap:butt;stroke-linejoin:round;stroke-miterlimit:6.5999999;stroke-dasharray:0.45610034, 0.45610034;stroke-dashoffset:0;stroke-opacity:1"
     d="M 19.97174,56.701765 C 21.621248,47.16163 21.758124,46.142119 21.466512,45.56806 21.289959,45.220502 17.79134,41.685453 13.691802,37.712395 7.4130784,31.627382 6.3166284,30.471175 6.7362724,30.377781 7.0102674,30.316801 11.698528,29.6387 17.154629,28.870885 c 6.071321,-0.854392 10.124973,-1.525226 10.448016,-1.72903 0.354897,-0.2239 2.060105,-3.447566 5.204593,-9.839195 l 4.676757,-9.506193 4.754189,9.633764 c 3.885877,7.874237 4.85855,9.673441 5.32558,9.851005 0.314263,0.119483 4.966222,0.84026 10.337681,1.601726 5.37146,0.761466 10.0096,1.439055 10.30697,1.505754 0.47947,0.107542 -0.11428,0.757652 -5.24515,5.742977 -10.127624,9.840339 -9.548659,9.22888 -9.548659,10.084604 0,0.419227 0.774048,5.222757 1.720105,10.674508 0.946059,5.451759 1.690073,9.988669 1.653364,10.082038 -0.03671,0.0934 -4.222956,-2.01834 -9.302774,-4.69268 -5.651897,-2.975529 -9.491917,-4.866399 -9.895427,-4.872619 -0.430648,-0.007 -3.898826,1.69073 -9.997507,4.892909 -5.135962,2.6967 -9.360229,4.90308 -9.387259,4.90308 -0.02703,0 0.767954,-4.725798 1.766632,-10.501768 z"
     id="path106"
     inkscape:connector-curvature="0"
     inkscape:export-filename="/mnt/data1/Overgrowth/Data/Textures/ui/menus/main/star-filled.png"
     inkscape:export-xdpi="96"
     inkscape:export-ydpi="96" /><path
     style="opacity:0.26180258;fill:#ffcc00;fill-opacity:0;stroke:none;stroke-width:0.45610034;stroke-linecap:butt;stroke-linejoin:round;stroke-miterlimit:6.5999999;stroke-dasharray:0.45610034, 0.45610034;stroke-dashoffset:0;stroke-opacity:1"
     d="M 19.97174,56.701765 C 21.621248,47.16163 21.758124,46.142119 21.466512,45.56806 21.289959,45.220502 17.79134,41.685453 13.691802,37.712395 7.4130784,31.627382 6.3166284,30.471175 6.7362724,30.377781 7.0102674,30.316801 11.698528,29.6387 17.154629,28.870885 c 6.071321,-0.854392 10.124973,-1.525226 10.448016,-1.72903 0.354897,-0.2239 2.060105,-3.447566 5.204593,-9.839195 l 4.676757,-9.506193 4.754189,9.633764 c 3.885877,7.874237 4.85855,9.673441 5.32558,9.851005 0.314263,0.119483 4.966222,0.84026 10.337681,1.601726 5.37146,0.761466 10.0096,1.439055 10.30697,1.505754 0.47947,0.107542 -0.11428,0.757652 -5.24515,5.742977 -10.127624,9.840339 -9.548659,9.22888 -9.548659,10.084604 0,0.419227 0.774048,5.222757 1.720105,10.674508 0.946059,5.451759 1.690073,9.988669 1.653364,10.082038 -0.03671,0.0934 -4.222956,-2.01834 -9.302774,-4.69268 -5.651897,-2.975529 -9.491917,-4.866399 -9.895427,-4.872619 -0.430648,-0.007 -3.898826,1.69073 -9.997507,4.892909 -5.135962,2.6967 -9.360229,4.90308 -9.387259,4.90308 -0.02703,0 0.767954,-4.725798 1.766632,-10.501768 z"
     id="path108"
     inkscape:connector-curvature="0"
     inkscape:export-filename="/mnt/data1/Overgrowth/Data/Textures/ui/menus/main/star-filled.png"
     inkscape:export-xdpi="96"
     inkscape:export-ydpi="96" /><path
     style="opacity:0.26180258;fill:#ffcc00;fill-opacity:0;stroke:none;stroke-width:0.45610034;stroke-linecap:butt;stroke-linejoin:round;stroke-miterlimit:6.5999999;stroke-dasharray:0.45610034, 0.45610034;stroke-dashoffset:0;stroke-opacity:1"
     d="M 19.97174,56.701765 C 21.621248,47.16163 21.758124,46.142119 21.466512,45.56806 21.289959,45.220502 17.79134,41.685453 13.691802,37.712395 7.4130784,31.627382 6.3166284,30.471175 6.7362724,30.377781 7.0102674,30.316801 11.698528,29.6387 17.154629,28.870885 c 6.071321,-0.854392 10.124973,-1.525226 10.448016,-1.72903 0.354897,-0.2239 2.060105,-3.447566 5.204593,-9.839195 l 4.676757,-9.506193 4.754189,9.633764 c 3.885877,7.874237 4.85855,9.673441 5.32558,9.851005 0.314263,0.119483 4.966222,0.84026 10.337681,1.601726 5.37146,0.761466 10.0096,1.439055 10.30697,1.505754 0.47947,0.107542 -0.11428,0.757652 -5.24515,5.742977 -10.127624,9.840339 -9.548659,9.22888 -9.548659,10.084604 0,0.419227 0.774048,5.222757 1.720105,10.674508 0.946059,5.451759 1.690073,9.988669 1.653364,10.082038 -0.03671,0.0934 -4.222956,-2.01834 -9.302774,-4.69268 -5.651897,-2.975529 -9.491917,-4.866399 -9.895427,-4.872619 -0.430648,-0.007 -3.898826,1.69073 -9.997507,4.892909 -5.135962,2.6967 -9.360229,4.90308 -9.387259,4.90308 -0.02703,0 0.767954,-4.725798 1.766632,-10.501768 z"
     id="path110"
     inkscape:connector-curvature="0"
     inkscape:export-filename="/mnt/data1/Overgrowth/Data/Textures/ui/menus/main/star-filled.png"
     inkscape:export-xdpi="96"
     inkscape:export-ydpi="96" /><path
     d="m 73.669396,29.000001 c -0.2,-0.6 -0.8,-1.7 -2.7,-2 l -21.299994,-3.1 -9.3,-18.7999995 c -0.9,-1.8 -2,-2.1 -2.9,-2.1 -1.8,0 -2.8,1.8 -3,2.1 l -9.3,18.7999995 -21.0000015,3 c -1.4,0.2 -2.5,1 -2.8,2.1 -0.40000001,1.2 0.1,2.4 1.3,3.6 l 15.0000015,14.5 -3.5,20.699997 c -0.1,0.5 -0.4,2.1 0.6,3.200001 0.8,1 2.2,1.2 3.7,0.5 0,0 0.1,0 0.1,-0.1 l 18.9,-10 18.9,10 c 0.7,0.4 1.399994,0.6 1.999994,0.6 0.8,0 1.4,-0.3 1.9,-0.8 0.4,-0.400001 0.8,-1.2 0.6,-2.7 l -3.599994,-21.399998 15.299994,-14.9 c 1.3,-1.299999 1.3,-2.4 1.1,-3.2 z m -23.450915,14.2935 c -0.309069,0.299658 -0.463603,0.749145 -0.386336,1.198632 l 2.781617,15.582209 -14.448957,-7.341618 c -0.386335,-0.224743 -0.927205,-0.224743 -1.313541,0 l -14.448957,7.341618 2.781617,-15.582209 c 0.07727,-0.449487 -0.07727,-0.898974 -0.386335,-1.198632 L 13.052981,32.281073 29.201816,30.033638 c 0.463603,-0.07491 0.849939,-0.374572 1.08174,-0.749145 l 7.185845,-14.158836 7.185845,14.158836 c 0.231801,0.374573 0.618137,0.674231 1.08174,0.749145 l 16.14883,2.247435 z"
     id="path58"
     style="fill:#666666"
     inkscape:connector-curvature="0"
     inkscape:export-filename="/mnt/data1/Overgrowth/Data/Textures/ui/menus/main/star-filled.png"
     inkscape:export-xdpi="96"
     inkscape:export-ydpi="96"
     sodipodi:nodetypes="ccccsccscccccccccsccccccccccccccccccccc" /></svg>