# Blender v2.93.10 OBJ File: 'm1911_01.blend'
# www.blender.org
o shell_Mesh.059
v 0.006930 -0.004169 0.004169
v 0.006930 -0.005420 0.002321
v 0.006930 -0.005893 -0.000000
v 0.006930 -0.005420 -0.002321
v 0.006930 -0.004169 -0.004169
v 0.006930 -0.002321 -0.005420
v 0.006930 -0.000000 -0.005893
v 0.006930 0.002321 -0.005420
v 0.006930 0.004169 -0.004169
v 0.006930 0.005420 -0.002321
v 0.006930 0.005893 -0.000000
v 0.006930 0.005420 0.002321
v 0.006930 0.004169 0.004169
v 0.006930 0.002321 0.005420
v 0.006930 -0.000000 0.005893
v 0.006930 -0.002321 0.005420
v -0.011433 -0.004169 0.004169
v -0.011433 -0.005420 0.002321
v -0.011433 -0.005893 -0.000000
v -0.011433 -0.005420 -0.002321
v -0.011433 -0.004169 -0.004169
v -0.011433 -0.002321 -0.005420
v -0.011433 0.000000 -0.005893
v -0.011433 0.002321 -0.005420
v -0.011433 0.004169 -0.004169
v -0.011433 0.005420 -0.002321
v -0.011433 0.005893 -0.000000
v -0.011433 0.005420 0.002321
v -0.011433 0.004169 0.004169
v -0.011433 0.002321 0.005420
v -0.011433 0.000000 0.005893
v -0.011433 -0.002321 0.005420
v -0.013374 -0.003471 0.003471
v -0.013374 -0.004512 0.001932
v -0.013374 -0.004907 -0.000000
v -0.013374 -0.004512 -0.001932
v -0.013374 -0.003471 -0.003471
v -0.013374 -0.001932 -0.004512
v -0.013374 0.000000 -0.004907
v -0.013374 0.001932 -0.004512
v -0.013374 0.003471 -0.003471
v -0.013374 0.004512 -0.001932
v -0.013374 0.004907 -0.000000
v -0.013374 0.004512 0.001932
v -0.013374 0.003471 0.003471
v -0.013374 0.001932 0.004512
v -0.013374 0.000000 0.004907
v -0.013374 -0.001932 0.004512
v -0.014589 -0.003471 0.003471
v -0.014589 -0.004512 0.001932
v -0.014589 -0.004907 -0.000000
v -0.014589 -0.004512 -0.001932
v -0.014589 -0.003471 -0.003471
v -0.014589 -0.001932 -0.004512
v -0.014589 0.000000 -0.004907
v -0.014589 0.001932 -0.004512
v -0.014589 0.003471 -0.003471
v -0.014589 0.004512 -0.001932
v -0.014589 0.004907 -0.000000
v -0.014589 0.004512 0.001932
v -0.014589 0.003471 0.003471
v -0.014589 0.001932 0.004512
v -0.014589 0.000000 0.004907
v -0.014589 -0.001932 0.004512
v -0.014589 -0.004169 0.004169
v -0.014589 -0.005420 0.002321
v -0.014589 -0.005893 -0.000000
v -0.014589 -0.005420 -0.002321
v -0.014589 -0.004169 -0.004169
v -0.014589 -0.002321 -0.005420
v -0.014589 0.000000 -0.005893
v -0.014589 0.002321 -0.005420
v -0.014589 0.004169 -0.004169
v -0.014589 0.005420 -0.002321
v -0.014589 0.005893 -0.000000
v -0.014589 0.005420 0.002321
v -0.014589 0.004169 0.004169
v -0.014589 0.002321 0.005420
v -0.014589 0.000000 0.005893
v -0.014589 -0.002321 0.005420
v -0.015694 -0.004169 0.004169
v -0.015694 -0.005420 0.002321
v -0.015694 -0.005893 -0.000000
v -0.015694 -0.005420 -0.002321
v -0.015694 -0.004169 -0.004169
v -0.015694 -0.002321 -0.005420
v -0.015694 0.000000 -0.005893
v -0.015694 0.002321 -0.005420
v -0.015694 0.004169 -0.004169
v -0.015694 0.005420 -0.002321
v -0.015694 0.005893 -0.000000
v -0.015694 0.005420 0.002321
v -0.015694 0.004169 0.004169
v -0.015694 0.002321 0.005420
v -0.015694 0.000000 0.005893
v -0.015694 -0.002321 0.005420
v -0.015694 0.000000 -0.000000
vt 0.786510 0.750468
vt 0.786510 0.757771
vt 0.727182 0.757771
vt 0.786510 0.743017
vt 0.727182 0.750468
vt 0.786510 0.844655
vt 0.786510 0.851833
vt 0.727182 0.851833
vt 0.786510 0.859287
vt 0.727182 0.859287
vt 0.786510 0.837533
vt 0.727182 0.844655
vt 0.786510 0.830069
vt 0.727182 0.837533
vt 0.786510 0.815684
vt 0.786510 0.822662
vt 0.727182 0.822662
vt 0.727182 0.830069
vt 0.786510 0.808716
vt 0.727182 0.815684
vt 0.786510 0.801360
vt 0.727182 0.808716
vt 0.786510 0.787009
vt 0.786510 0.793996
vt 0.727182 0.793996
vt 0.727182 0.801360
vt 0.786510 0.779987
vt 0.727182 0.787009
vt 0.786510 0.772515
vt 0.727182 0.779987
vt 0.786510 0.764978
vt 0.727182 0.764978
vt 0.727182 0.772515
vt 0.719718 0.757771
vt 0.727182 0.743017
vt 0.719718 0.750468
vt 0.719718 0.851833
vt 0.719718 0.859287
vt 0.719718 0.844655
vt 0.719718 0.837533
vt 0.719718 0.822662
vt 0.719718 0.830069
vt 0.719718 0.815684
vt 0.719718 0.808716
vt 0.719718 0.793996
vt 0.719718 0.801360
vt 0.719718 0.787009
vt 0.719718 0.779987
vt 0.719718 0.764978
vt 0.719718 0.772515
vt 0.715042 0.757771
vt 0.715042 0.750468
vt 0.715042 0.743017
vt 0.715042 0.851833
vt 0.715042 0.844655
vt 0.715042 0.859287
vt 0.715042 0.837533
vt 0.715042 0.830069
vt 0.715042 0.822662
vt 0.715042 0.815684
vt 0.715042 0.808716
vt 0.715042 0.801360
vt 0.715042 0.793996
vt 0.715042 0.787009
vt 0.715042 0.779987
vt 0.715042 0.772515
vt 0.715042 0.764978
vt 0.134558 0.860528
vt 0.134558 0.863693
vt 0.141186 0.863693
vt 0.141186 0.860528
vt 0.148667 0.863693
vt 0.046420 0.860528
vt 0.046420 0.863693
vt 0.053099 0.863693
vt 0.039665 0.860528
vt 0.039665 0.863693
vt 0.053099 0.860528
vt 0.059901 0.863693
vt 0.059901 0.860528
vt 0.066886 0.863693
vt 0.073682 0.860528
vt 0.073682 0.863693
vt 0.080265 0.863693
vt 0.066886 0.860528
vt 0.080265 0.860528
vt 0.087036 0.863693
vt 0.087036 0.860528
vt 0.094027 0.863693
vt 0.100835 0.860528
vt 0.100835 0.863693
vt 0.107428 0.863693
vt 0.094027 0.860528
vt 0.107428 0.860528
vt 0.114209 0.863693
vt 0.114209 0.860528
vt 0.121201 0.863693
vt 0.127971 0.860528
vt 0.127971 0.863693
vt 0.121201 0.860528
vt 0.349445 0.845434
vt 0.356688 0.845434
vt 0.356688 0.841834
vt 0.341737 0.845434
vt 0.349445 0.841834
vt 0.446031 0.845435
vt 0.453389 0.845435
vt 0.453388 0.841835
vt 0.461137 0.845434
vt 0.461137 0.841834
vt 0.438645 0.845435
vt 0.446031 0.841835
vt 0.430819 0.845435
vt 0.438645 0.841835
vt 0.415742 0.845435
vt 0.423029 0.845435
vt 0.423029 0.841835
vt 0.430819 0.841835
vt 0.408520 0.845435
vt 0.415742 0.841835
vt 0.400912 0.845434
vt 0.408520 0.841835
vt 0.386236 0.845434
vt 0.393344 0.845434
vt 0.393344 0.841834
vt 0.400912 0.841834
vt 0.379119 0.845434
vt 0.386236 0.841834
vt 0.371530 0.845434
vt 0.379119 0.841834
vt 0.363904 0.845434
vt 0.363904 0.841834
vt 0.371530 0.841834
vt 0.537091 0.515551
vt 0.543100 0.519617
vt 0.529546 0.533171
vt 0.529546 0.514011
vt 0.515992 0.519617
vt 0.522001 0.515551
vt 0.511926 0.525627
vt 0.510386 0.533171
vt 0.515992 0.546726
vt 0.511926 0.540716
vt 0.522001 0.550791
vt 0.529546 0.552332
vt 0.543100 0.546726
vt 0.537091 0.550791
vt 0.547166 0.540716
vt 0.548706 0.533171
vt 0.547166 0.525627
vt 0.719718 0.743017
vt 0.148667 0.860528
vt 0.341737 0.841834
vn -0.0000 -0.9218 0.3877
vn -0.0000 -0.7071 0.7071
vn -0.2269 -0.6887 0.6887
vn -0.0000 -1.0000 -0.0000
vn -0.2267 -0.8977 0.3777
vn 0.0000 -0.7071 -0.7071
vn -0.0000 -0.9218 -0.3877
vn -0.2267 -0.8977 -0.3777
vn -0.2265 -0.9740 -0.0000
vn 0.0000 -0.3877 -0.9218
vn -0.2269 -0.6887 -0.6887
vn 0.0000 -0.0000 -1.0000
vn -0.2267 -0.3777 -0.8977
vn 0.0000 0.7071 -0.7071
vn 0.0000 0.3877 -0.9218
vn -0.2267 0.3777 -0.8977
vn -0.2265 -0.0000 -0.9740
vn 0.0000 0.9218 -0.3877
vn -0.2269 0.6887 -0.6887
vn 0.0000 1.0000 -0.0000
vn -0.2267 0.8977 -0.3777
vn 0.0000 0.7071 0.7071
vn 0.0000 0.9218 0.3877
vn -0.2267 0.8977 0.3777
vn -0.2265 0.9740 -0.0000
vn -0.0000 0.3877 0.9218
vn -0.2269 0.6887 0.6887
vn -0.0000 -0.0000 1.0000
vn -0.2267 0.3777 0.8977
vn -0.0000 -0.3877 0.9218
vn -0.2267 -0.3777 0.8977
vn -0.2265 -0.0000 0.9740
vn -0.2397 -0.6865 0.6865
vn -0.2399 -0.8950 0.3762
vn -0.2399 -0.8950 -0.3762
vn -0.2400 -0.9708 -0.0000
vn -0.2397 -0.6865 -0.6865
vn -0.2399 -0.3762 -0.8950
vn -0.2399 0.3762 -0.8950
vn -0.2400 -0.0000 -0.9708
vn -0.2397 0.6865 -0.6865
vn -0.2399 0.8950 -0.3762
vn -0.2399 0.8950 0.3762
vn -0.2400 0.9708 -0.0000
vn -0.2397 0.6865 0.6865
vn -0.2399 0.3762 0.8950
vn -0.2399 -0.3762 0.8950
vn -0.2400 -0.0000 0.9708
vn 1.0000 -0.0000 -0.0000
vn -1.0000 0.0000 0.0000
s 1
f 2/1/1 1/2/2 17/3/3
f 3/4/4 2/1/1 18/5/5
f 5/6/6 4/7/7 20/8/8
f 4/7/7 3/9/4 19/10/9
f 6/11/10 5/6/6 21/12/11
f 7/13/12 6/11/10 22/14/13
f 9/15/14 8/16/15 24/17/16
f 8/16/15 7/13/12 23/18/17
f 10/19/18 9/15/14 25/20/19
f 11/21/20 10/19/18 26/22/21
f 13/23/22 12/24/23 28/25/24
f 12/24/23 11/21/20 27/26/25
f 14/27/26 13/23/22 29/28/27
f 15/29/28 14/27/26 30/30/29
f 1/2/2 16/31/30 32/32/31
f 16/31/30 15/29/28 31/33/32
f 18/5/5 17/3/3 33/34/33
f 19/35/9 18/5/5 34/36/34
f 21/12/11 20/8/8 36/37/35
f 20/8/8 19/10/9 35/38/36
f 22/14/13 21/12/11 37/39/37
f 23/18/17 22/14/13 38/40/38
f 25/20/19 24/17/16 40/41/39
f 24/17/16 23/18/17 39/42/40
f 26/22/21 25/20/19 41/43/41
f 27/26/25 26/22/21 42/44/42
f 29/28/27 28/25/24 44/45/43
f 28/25/24 27/26/25 43/46/44
f 30/30/29 29/28/27 45/47/45
f 31/33/32 30/30/29 46/48/46
f 17/3/3 32/32/31 48/49/47
f 32/32/31 31/33/32 47/50/48
f 33/34/33 49/51/2 50/52/1
f 34/36/34 50/52/1 51/53/4
f 36/37/35 52/54/7 53/55/6
f 35/38/36 51/56/4 52/54/7
f 37/39/37 53/55/6 54/57/10
f 38/40/38 54/57/10 55/58/12
f 40/41/39 56/59/15 57/60/14
f 39/42/40 55/58/12 56/59/15
f 41/43/41 57/60/14 58/61/18
f 42/44/42 58/61/18 59/62/20
f 44/45/43 60/63/23 61/64/22
f 43/46/44 59/62/20 60/63/23
f 45/47/45 61/64/22 62/65/26
f 46/48/46 62/65/26 63/66/28
f 48/49/47 64/67/30 49/51/2
f 47/50/48 63/66/28 64/67/30
f 49/68/49 65/69/49 66/70/49
f 50/71/49 66/70/49 67/72/49
f 52/73/49 68/74/49 69/75/49
f 51/76/49 67/77/49 68/74/49
f 53/78/49 69/75/49 70/79/49
f 54/80/49 70/79/49 71/81/49
f 56/82/49 72/83/49 73/84/49
f 55/85/49 71/81/49 72/83/49
f 57/86/49 73/84/49 74/87/49
f 58/88/49 74/87/49 75/89/49
f 60/90/49 76/91/49 77/92/49
f 59/93/49 75/89/49 76/91/49
f 61/94/49 77/92/49 78/95/49
f 62/96/49 78/95/49 79/97/49
f 64/98/49 80/99/49 65/69/49
f 63/100/49 79/97/49 80/99/49
f 66/101/1 65/102/2 81/103/2
f 67/104/4 66/101/1 82/105/1
f 69/106/6 68/107/7 84/108/7
f 68/107/7 67/109/4 83/110/4
f 70/111/10 69/106/6 85/112/6
f 71/113/12 70/111/10 86/114/10
f 73/115/14 72/116/15 88/117/15
f 72/116/15 71/113/12 87/118/12
f 74/119/18 73/115/14 89/120/14
f 75/121/20 74/119/18 90/122/18
f 77/123/22 76/124/23 92/125/23
f 76/124/23 75/121/20 91/126/20
f 78/127/26 77/123/22 93/128/22
f 79/129/28 78/127/26 94/130/26
f 65/102/2 80/131/30 96/132/30
f 80/131/30 79/129/28 95/133/28
f 82/134/50 81/135/50 97/136/50
f 83/137/50 82/134/50 97/136/50
f 85/138/50 84/139/50 97/136/50
f 84/139/50 83/137/50 97/136/50
f 86/140/50 85/138/50 97/136/50
f 87/141/50 86/140/50 97/136/50
f 89/142/50 88/143/50 97/136/50
f 88/143/50 87/141/50 97/136/50
f 90/144/50 89/142/50 97/136/50
f 91/145/50 90/144/50 97/136/50
f 93/146/50 92/147/50 97/136/50
f 92/147/50 91/145/50 97/136/50
f 94/148/50 93/146/50 97/136/50
f 95/149/50 94/148/50 97/136/50
f 81/135/50 96/150/50 97/136/50
f 96/150/50 95/149/50 97/136/50
f 17/3/3 18/5/5 2/1/1
f 18/5/5 19/35/9 3/4/4
f 20/8/8 21/12/11 5/6/6
f 19/10/9 20/8/8 4/7/7
f 21/12/11 22/14/13 6/11/10
f 22/14/13 23/18/17 7/13/12
f 24/17/16 25/20/19 9/15/14
f 23/18/17 24/17/16 8/16/15
f 25/20/19 26/22/21 10/19/18
f 26/22/21 27/26/25 11/21/20
f 28/25/24 29/28/27 13/23/22
f 27/26/25 28/25/24 12/24/23
f 29/28/27 30/30/29 14/27/26
f 30/30/29 31/33/32 15/29/28
f 32/32/31 17/3/3 1/2/2
f 31/33/32 32/32/31 16/31/30
f 33/34/33 34/36/34 18/5/5
f 34/36/34 35/151/36 19/35/9
f 36/37/35 37/39/37 21/12/11
f 35/38/36 36/37/35 20/8/8
f 37/39/37 38/40/38 22/14/13
f 38/40/38 39/42/40 23/18/17
f 40/41/39 41/43/41 25/20/19
f 39/42/40 40/41/39 24/17/16
f 41/43/41 42/44/42 26/22/21
f 42/44/42 43/46/44 27/26/25
f 44/45/43 45/47/45 29/28/27
f 43/46/44 44/45/43 28/25/24
f 45/47/45 46/48/46 30/30/29
f 46/48/46 47/50/48 31/33/32
f 48/49/47 33/34/33 17/3/3
f 47/50/48 48/49/47 32/32/31
f 50/52/1 34/36/34 33/34/33
f 51/53/4 35/151/36 34/36/34
f 53/55/6 37/39/37 36/37/35
f 52/54/7 36/37/35 35/38/36
f 54/57/10 38/40/38 37/39/37
f 55/58/12 39/42/40 38/40/38
f 57/60/14 41/43/41 40/41/39
f 56/59/15 40/41/39 39/42/40
f 58/61/18 42/44/42 41/43/41
f 59/62/20 43/46/44 42/44/42
f 61/64/22 45/47/45 44/45/43
f 60/63/23 44/45/43 43/46/44
f 62/65/26 46/48/46 45/47/45
f 63/66/28 47/50/48 46/48/46
f 49/51/2 33/34/33 48/49/47
f 64/67/30 48/49/47 47/50/48
f 66/70/49 50/71/49 49/68/49
f 67/72/49 51/152/49 50/71/49
f 69/75/49 53/78/49 52/73/49
f 68/74/49 52/73/49 51/76/49
f 70/79/49 54/80/49 53/78/49
f 71/81/49 55/85/49 54/80/49
f 73/84/49 57/86/49 56/82/49
f 72/83/49 56/82/49 55/85/49
f 74/87/49 58/88/49 57/86/49
f 75/89/49 59/93/49 58/88/49
f 77/92/49 61/94/49 60/90/49
f 76/91/49 60/90/49 59/93/49
f 78/95/49 62/96/49 61/94/49
f 79/97/49 63/100/49 62/96/49
f 65/69/49 49/68/49 64/98/49
f 80/99/49 64/98/49 63/100/49
f 81/103/2 82/105/1 66/101/1
f 82/105/1 83/153/4 67/104/4
f 84/108/7 85/112/6 69/106/6
f 83/110/4 84/108/7 68/107/7
f 85/112/6 86/114/10 70/111/10
f 86/114/10 87/118/12 71/113/12
f 88/117/15 89/120/14 73/115/14
f 87/118/12 88/117/15 72/116/15
f 89/120/14 90/122/18 74/119/18
f 90/122/18 91/126/20 75/121/20
f 92/125/23 93/128/22 77/123/22
f 91/126/20 92/125/23 76/124/23
f 93/128/22 94/130/26 78/127/26
f 94/130/26 95/133/28 79/129/28
f 96/132/30 81/103/2 65/102/2
f 95/133/28 96/132/30 80/131/30
