# Blender 5.0.1
# www.blender.org
g book_Mesh
v 0.003354 0.175137 0.023156
v 0.003354 0.455153 0.023156
v 0.003354 0.455152 0.033534
v 0.003354 0.175137 0.033534
v 0.004464 0.479802 0.028345
v 0.004464 0.150488 0.028345
v 0.003354 0.152480 0.033534
v 0.003354 0.152480 0.023156
v 0.003354 0.477810 0.033534
v 0.003354 0.477810 0.023156
v 0.003354 0.175137 -0.023157
v 0.003354 0.455153 -0.023157
v 0.003354 0.455152 -0.033535
v 0.003354 0.175137 -0.033535
v 0.004464 0.479802 -0.028346
v 0.004464 0.150488 -0.028346
v 0.003354 0.152480 -0.033535
v 0.003354 0.152480 -0.023157
v 0.003354 0.477810 -0.033535
v 0.003354 0.477810 -0.023157
v 0.028498 0.173423 -0.028346
v 0.028498 0.456867 -0.028346
v 0.028498 0.456867 0.028345
v 0.028498 0.173423 0.028345
v 0.026278 0.175137 0.023156
v 0.026278 0.455153 0.023156
v 0.026278 0.175137 0.033534
v 0.026278 0.455153 0.033534
v -0.198130 0.175137 0.027709
v -0.198130 0.455153 0.027709
v -0.187996 0.455153 0.021301
v -0.187996 0.175137 0.021301
v -0.183363 0.175137 0.023156
v -0.183363 0.455153 0.023156
v -0.183363 0.175137 0.033534
v -0.183363 0.455152 0.033534
v 0.026278 0.175137 -0.023157
v 0.026278 0.455153 -0.023157
v 0.026278 0.175137 -0.033535
v 0.026278 0.455153 -0.033535
v -0.198130 0.175137 -0.027710
v -0.198130 0.455153 -0.027710
v -0.201906 0.175137 0.000000
v -0.201906 0.455153 0.000000
v -0.187996 0.455153 -0.021302
v -0.187996 0.175137 -0.021302
v -0.191528 0.455153 0.000000
v -0.191528 0.175138 0.000000
v -0.183363 0.175137 -0.023157
v -0.183363 0.455153 -0.023157
v -0.183363 0.175137 -0.033535
v -0.183363 0.455152 -0.033535
v 0.028498 0.150488 0.028345
v 0.028498 0.479802 0.028345
v -0.193063 0.479802 0.024505
v -0.193063 0.150488 0.024505
v -0.183363 0.150488 0.028345
v -0.183363 0.479802 0.028345
v 0.028498 0.150488 -0.028346
v 0.028498 0.479802 -0.028346
v -0.193063 0.479802 -0.024506
v -0.196717 0.479802 0.000000
v -0.193063 0.150488 -0.024506
v -0.196717 0.150488 0.000000
v -0.183363 0.150488 -0.028346
v -0.183363 0.479802 -0.028346
v 0.017167 0.158056 0.013176
v 0.016326 0.158056 0.000000
v 0.017167 0.158056 -0.013177
v 0.017167 0.472234 -0.013177
v 0.016326 0.472234 0.000000
v 0.017167 0.472234 0.013176
v -0.194346 0.158056 -0.013177
v -0.194346 0.158056 0.000000
v -0.194346 0.158056 0.013176
v -0.194346 0.472234 0.013176
v -0.194346 0.472234 0.000000
v -0.194346 0.472234 -0.013177
v 0.026278 0.152480 0.023156
v 0.026278 0.477810 0.023156
v 0.026278 0.152480 0.033534
v 0.026278 0.477810 0.033534
v -0.187996 0.477810 0.021301
v -0.191528 0.477810 0.000000
v -0.187996 0.152480 0.021301
v -0.191528 0.152480 0.000000
v -0.198130 0.477810 0.027709
v -0.201906 0.477810 0.000000
v -0.198130 0.152480 0.027709
v -0.201906 0.152480 0.000000
v -0.183363 0.152480 0.023156
v -0.183363 0.477810 0.023156
v -0.183363 0.152480 0.033534
v -0.183363 0.477810 0.033534
v -0.194346 0.472234 -0.026353
v 0.019269 0.472234 -0.026353
v -0.194346 0.158056 -0.026353
v 0.019269 0.158056 -0.026353
v -0.194346 0.472234 0.026352
v 0.019269 0.472234 0.026352
v -0.194346 0.158056 0.026352
v 0.019269 0.158056 0.026352
v 0.026278 0.152480 -0.023157
v 0.026278 0.477810 -0.023157
v 0.026278 0.152480 -0.033535
v 0.026278 0.477810 -0.033535
v -0.187996 0.477810 -0.021302
v -0.187996 0.152480 -0.021302
v -0.198130 0.477810 -0.027710
v -0.198130 0.152480 -0.027710
v -0.183363 0.152480 -0.023157
v -0.183363 0.477810 -0.023157
v -0.183363 0.152480 -0.033535
v -0.183363 0.477810 -0.033535
vn -0.0000 -1.0000 -0.0000
vn -0.0000 1.0000 -0.0000
vn -0.0168 0.9989 0.0427
vn -0.0000 0.5664 -0.8241
vn -0.0000 -0.0000 -1.0000
vn -0.0000 -0.5664 -0.8241
vn 0.1577 -0.5971 -0.7865
vn -0.0168 -0.9989 0.0427
vn -0.0000 -0.5664 0.8241
vn -0.0000 -0.0000 1.0000
vn -0.0000 0.5664 0.8241
vn -0.1542 0.5352 0.8306
vn -0.1868 -0.0000 0.9824
vn 0.1577 0.5971 -0.7865
vn -0.0168 0.9989 -0.0427
vn 0.1577 0.5971 0.7865
vn 0.1577 -0.5971 0.7865
vn -0.0168 -0.9989 -0.0427
vn -0.1542 -0.5352 -0.8306
vn -0.1542 0.5352 -0.8306
vn -0.1868 -0.0000 -0.9824
vn 0.1893 -0.0000 0.9819
vn -0.7868 -0.0000 -0.6173
vn -0.6794 -0.5092 -0.5284
vn 0.5575 -0.6884 0.4640
vn 0.8032 -0.5957 -0.0000
vn 0.7794 -0.0000 0.6265
vn -1.0000 -0.0000 -0.0000
vn -0.8379 -0.5458 -0.0000
vn 1.0000 -0.0000 -0.0000
vn 0.5507 -0.0000 0.8347
vn 0.5508 -0.0000 0.8347
vn 0.4456 0.4622 0.7667
vn 0.5507 -0.0000 -0.8347
vn 0.5508 -0.0000 -0.8347
vn 0.4456 -0.4621 -0.7667
vn -0.7868 -0.0000 0.6173
vn -0.6794 -0.5092 0.5284
vn -0.1542 -0.5352 0.8306
vn 0.5575 -0.6884 -0.4640
vn 0.7794 -0.0000 -0.6265
vn 0.1893 -0.0000 -0.9819
vn 0.4456 0.4621 -0.7667
vn 0.4456 -0.4621 0.7667
vn 0.4456 0.4621 0.7667
vn 0.4456 0.4622 -0.7667
vn 0.7135 0.7006 -0.0000
vn -0.0747 0.9942 -0.0771
vn -0.0747 -0.9942 -0.0771
vn -0.0355 -0.9994 -0.0000
vn -0.8379 0.5458 -0.0000
vn -0.0355 0.9994 -0.0000
vn 0.7135 -0.7006 -0.0000
vn -0.0747 0.9942 0.0771
vn -0.0747 -0.9942 0.0771
vn -0.6794 0.5092 0.5284
vn 0.6922 0.7217 -0.0000
vn 0.6922 -0.7217 -0.0000
vn 0.6919 -0.7179 0.0771
vn 0.6919 0.7179 -0.0771
vn 0.6919 -0.7179 -0.0771
vn 0.7342 -0.6687 -0.1172
vn 0.8032 0.5957 -0.0000
vn 0.5575 0.6883 -0.4640
vn 0.7794 -0.0000 -0.6266
vn 0.7342 -0.6687 0.1172
vn 0.7343 0.6687 0.1171
vn -0.6794 0.5092 -0.5284
vn 0.7794 -0.0000 0.6266
vn 0.5576 0.6883 0.4640
vn 0.6919 0.7179 0.0771
vn 0.7342 0.6687 -0.1172
vn 0.7343 -0.6687 -0.1171
vn 0.7342 0.6687 0.1172
vt 0.892396 0.487928
vt 0.863081 0.489799
vt 0.863081 0.019222
vt 0.892395 0.019222
vt 0.921710 0.019222
vt 0.921711 0.489799
vt 0.951024 0.019222
vt 0.892396 0.963747
vt 0.863081 0.965618
vt 0.863081 0.495041
vt 0.892396 0.495041
vt 0.921711 0.495041
vt 0.921711 0.965618
vt 0.951025 0.495041
vt 0.833767 0.970296
vt 0.833767 0.495041
vt 0.833767 0.494477
vt 0.833767 0.019222
vt 0.951026 0.494476
vt 0.951026 0.970296
vt 0.545021 0.640920
vt 0.545019 0.342550
vt 0.553848 0.344313
vt 0.545080 0.001891
vt 0.581072 0.001950
vt 0.580585 0.298557
vt 0.535052 0.481474
vt 0.535052 0.779843
vt 0.526222 0.778079
vt 0.045417 0.778079
vt 0.009424 0.778079
vt 0.009425 0.481472
vt 0.589904 0.000202
vt 0.589414 0.298571
vt 0.000594 0.779843
vt 0.000595 0.481472
vt 0.490230 0.778079
vt 0.490230 0.481474
vt 0.045417 0.481472
vt 0.553850 0.640920
vt 0.589840 0.344313
vt 0.636466 0.386126
vt 0.645295 0.386126
vt 0.645295 0.682732
vt 0.626238 0.386126
vt 0.626238 0.682732
vt 0.590246 0.682732
vt 0.535052 0.342191
vt 0.526223 0.342191
vt 0.526224 0.045585
vt 0.009425 0.342189
vt 0.009427 0.045582
vt 0.045419 0.045583
vt 0.635068 0.386126
vt 0.635067 0.684495
vt 0.000595 0.342189
vt 0.000598 0.043819
vt 0.490230 0.342191
vt 0.490231 0.045585
vt 0.045417 0.342190
vt 0.681288 0.386126
vt 0.681288 0.682732
vt 0.490230 0.367407
vt 0.045417 0.367406
vt 0.526222 0.367408
vt 0.626238 0.378199
vt 0.590246 0.386126
vt 0.626238 0.343898
vt 0.590246 0.378199
vt 0.490230 0.411832
vt 0.045417 0.411831
vt 0.526222 0.411832
vt 0.042300 0.879772
vt 0.045023 0.870807
vt 0.489834 0.870826
vt 0.009031 0.870805
vt 0.045025 0.834391
vt 0.489836 0.834410
vt 0.009033 0.834390
vt 0.045419 0.009167
vt 0.490231 0.009169
vt 0.526224 0.009169
vt 0.490230 0.456257
vt 0.526222 0.456257
vt 0.526222 0.481474
vt 0.580572 0.306483
vt 0.544579 0.306424
vt 0.544592 0.298497
vt 0.580516 0.340784
vt 0.544523 0.340725
vt 0.045417 0.456256
vt 0.042301 0.880197
vt 0.492558 0.880199
vt 0.489835 0.889164
vt 0.045024 0.889163
vt 0.009031 0.889163
vt 0.045024 0.925579
vt 0.009031 0.925579
vt 0.490230 0.814495
vt 0.045417 0.814495
vt 0.526222 0.814495
vt 0.492953 0.823461
vt 0.009424 0.814495
vt 0.042693 0.823461
vt 0.042696 0.000202
vt 0.492954 0.000203
vt 0.009427 0.009167
vt 0.006263 0.000202
vt 0.000598 0.005640
vt 0.001111 0.361785
vt 0.001129 0.345214
vt 0.634579 0.372618
vt 0.634519 0.389189
vt 0.634964 0.342550
vt 0.635565 0.381904
vt 0.009425 0.411831
vt 0.000665 0.410718
vt 0.000202 0.371362
vt 0.529388 0.000203
vt 0.534658 0.836176
vt 0.534657 0.874355
vt 0.525827 0.870828
vt 0.000594 0.818022
vt 0.001129 0.478448
vt 0.001111 0.461876
vt 0.588871 0.295506
vt 0.589905 0.302793
vt 0.589239 0.342147
vt 0.009425 0.456256
vt 0.000202 0.452300
vt 0.529387 0.823461
vt 0.525827 0.889164
vt 0.534656 0.885638
vt 0.534656 0.923816
vt 0.772754 0.833472
vt 0.772754 0.134492
vt 0.802128 0.134492
vt 0.743379 0.833472
vt 0.743380 0.134492
vt 0.713695 0.134492
vt 0.535052 0.818022
vt 0.489835 0.925580
vt 0.528991 0.880199
vt 0.589842 0.683147
vt 0.553850 0.683148
vt 0.553850 0.648847
vt 0.545124 0.684496
vt 0.544523 0.645142
vt 0.535445 0.452301
vt 0.534536 0.461878
vt 0.534518 0.478449
vt 0.545569 0.637857
vt 0.000202 0.923816
vt 0.000202 0.885636
vt 0.589842 0.648846
vt 0.831813 0.134492
vt 0.831815 0.833472
vt 0.535053 0.043821
vt 0.525829 0.834412
vt 0.492557 0.879792
vt 0.009425 0.367406
vt 0.681287 0.343898
vt 0.681287 0.378199
vt 0.645295 0.378199
vt 0.636569 0.342550
vt 0.645295 0.343898
vt 0.535445 0.371364
vt 0.534536 0.361787
vt 0.637014 0.389189
vt 0.000203 0.836153
vt 0.589842 0.640920
vt 0.636466 0.684495
vt 0.590246 0.343898
vt 0.005866 0.879771
vt 0.005867 0.880197
vt 0.006259 0.823461
vt 0.588903 0.312078
vt 0.000665 0.412944
vt 0.525827 0.925580
vt 0.802129 0.833472
vt 0.713692 0.833472
vt 0.534981 0.412945
vt 0.545509 0.654428
vt 0.535053 0.005642
vt 0.528991 0.879794
vt 0.635968 0.381904
vt 0.534981 0.410720
vt 0.534518 0.345215
vt 0.636955 0.372618
vt 0.000202 0.874331
s 1
f 68/1/1 67/2/1 75/3/1
f 68/1/1 74/4/1 73/5/1
f 69/6/1 73/5/1 97/7/1
f 71/8/2 70/9/2 78/10/2
f 71/8/2 77/11/2 76/12/2
f 72/13/2 76/12/2 99/14/2
f 70/9/2 96/15/2 95/16/2
f 67/2/1 102/17/1 101/18/1
f 74/4/1 68/1/1 75/3/1
f 69/6/1 68/1/1 73/5/1
f 98/19/1 69/6/1 97/7/1
f 77/11/2 71/8/2 78/10/2
f 72/13/2 71/8/2 76/12/2
f 100/20/2 72/13/2 99/14/2
f 78/10/2 70/9/2 95/16/2
f 75/3/1 67/2/1 101/18/1
f 58/21/3 5/22/2 10/23/4
f 1/24/5 8/25/6 91/26/7
f 57/27/8 6/28/1 7/29/9
f 3/30/10 9/31/11 94/32/12
f 8/25/6 6/33/1 57/34/8
f 9/31/11 5/35/2 58/36/3
f 7/29/9 4/37/10 35/38/13
f 4/37/10 3/30/10 36/39/13
f 92/40/14 10/23/4 2/41/5
f 66/42/15 112/43/16 20/44/11
f 111/45/17 18/46/9 11/47/10
f 65/48/18 113/49/19 17/50/6
f 114/51/20 19/52/4 13/53/5
f 65/54/18 16/55/1 18/46/9
f 66/56/15 15/57/2 19/52/4
f 51/58/21 14/59/5 17/50/6
f 52/60/21 13/53/5 14/59/5
f 112/43/16 50/61/22 12/62/10
f 41/63/23 42/64/23 52/60/21
f 110/65/24 41/63/23 51/58/21
f 108/66/25 111/45/17 49/67/22
f 86/68/26 108/66/25 46/69/27
f 43/70/28 44/71/28 42/64/23
f 90/72/29 43/70/28 41/63/23
f 22/73/30 38/74/31 37/75/32
f 104/76/33 38/74/31 22/73/30
f 12/77/10 11/78/10 37/75/32
f 20/79/11 12/77/10 38/74/31
f 13/53/5 40/80/34 39/81/35
f 14/59/5 39/81/35 105/82/36
f 29/83/37 35/38/13 36/39/13
f 89/84/38 93/85/39 35/38/13
f 85/86/40 32/87/41 33/88/42
f 86/89/26 48/90/30 32/87/41
f 43/70/28 29/83/37 30/91/37
f 90/72/29 89/84/38 29/83/37
f 23/92/30 24/93/30 25/94/35
f 23/92/30 26/95/34 80/96/43
f 2/97/5 26/95/34 25/94/35
f 10/98/4 80/96/43 26/95/34
f 27/99/32 28/100/31 3/30/10
f 81/101/44 27/99/32 4/37/10
f 28/100/31 27/99/32 24/102/30
f 82/103/45 28/100/31 23/104/30
f 40/80/34 22/105/30 21/106/30
f 106/107/46 60/108/47 22/105/30
f 15/57/2 60/109/47 106/107/46
f 61/110/48 66/111/15 114/51/20
f 108/66/25 63/112/49 65/113/18
f 64/114/50 63/115/49 108/66/25
f 88/116/51 62/117/52 61/118/48
f 21/106/30 59/119/53 105/82/36
f 16/120/1 59/121/53 103/122/44
f 82/103/45 54/123/47 5/35/2
f 94/32/12 58/124/3 55/125/54
f 85/86/40 91/26/7 57/126/8
f 85/86/40 56/127/55 64/128/50
f 88/116/51 87/129/56 55/130/54
f 81/101/44 53/131/53 24/102/30
f 79/132/36 53/133/53 6/134/1
f 71/135/57 68/136/58 69/137/59
f 72/138/60 67/139/61 68/136/58
f 102/140/62 67/139/61 72/138/60
f 28/100/31 82/103/45 9/31/11
f 6/28/1 53/141/53 81/101/44
f 1/142/5 25/94/35 79/132/36
f 24/93/30 53/143/53 79/132/36
f 44/71/28 30/91/37 87/129/56
f 47/144/30 84/145/63 83/146/64
f 62/147/52 55/148/54 83/146/64
f 56/149/55 89/84/38 90/72/29
f 56/150/55 57/151/8 93/85/39
f 58/152/3 92/40/14 83/146/64
f 5/153/2 54/154/47 80/96/43
f 31/155/65 83/146/64 92/40/14
f 30/91/37 36/39/13 94/32/12
f 69/137/59 98/156/66 96/157/67
f 19/52/4 106/107/46 40/80/34
f 16/158/1 17/50/6 105/82/36
f 11/78/10 18/159/9 103/122/44
f 21/160/30 37/75/32 103/122/44
f 44/71/28 88/116/51 109/161/68
f 47/162/30 45/163/69 107/164/70
f 62/165/52 84/166/63 107/164/70
f 90/72/29 110/65/24 63/167/49
f 63/168/49 110/65/24 113/49/19
f 107/164/70 112/43/16 66/169/15
f 15/170/2 20/79/11 104/76/33
f 45/163/69 50/61/22 112/43/16
f 42/64/23 109/161/68 114/51/20
f 92/40/14 58/21/3 10/23/4
f 33/88/42 1/24/5 91/26/7
f 93/85/39 57/27/8 7/29/9
f 36/39/13 3/30/10 94/32/12
f 91/26/7 8/25/6 57/34/8
f 94/32/12 9/31/11 58/36/3
f 93/85/39 7/29/9 35/38/13
f 35/38/13 4/37/10 36/39/13
f 34/171/42 92/40/14 2/41/5
f 15/172/2 66/42/15 20/44/11
f 49/67/22 111/45/17 11/47/10
f 16/158/1 65/48/18 17/50/6
f 52/60/21 114/51/20 13/53/5
f 111/45/17 65/54/18 18/46/9
f 114/51/20 66/56/15 19/52/4
f 113/49/19 51/58/21 17/50/6
f 51/58/21 52/60/21 14/59/5
f 20/44/11 112/43/16 12/62/10
f 51/58/21 41/63/23 52/60/21
f 113/49/19 110/65/24 51/58/21
f 46/69/27 108/66/25 49/67/22
f 48/173/30 86/68/26 46/69/27
f 41/63/23 43/70/28 42/64/23
f 110/65/24 90/72/29 41/63/23
f 21/160/30 22/73/30 37/75/32
f 60/174/47 104/76/33 22/73/30
f 38/74/31 12/77/10 37/75/32
f 104/76/33 20/79/11 38/74/31
f 14/59/5 13/53/5 39/81/35
f 17/50/6 14/59/5 105/82/36
f 30/91/37 29/83/37 36/39/13
f 29/83/37 89/84/38 35/38/13
f 91/26/7 85/86/40 33/88/42
f 85/86/40 86/89/26 32/87/41
f 44/71/28 43/70/28 30/91/37
f 43/70/28 90/72/29 29/83/37
f 26/95/34 23/92/30 25/94/35
f 54/175/47 23/92/30 80/96/43
f 1/142/5 2/97/5 25/94/35
f 2/97/5 10/98/4 26/95/34
f 4/37/10 27/99/32 3/30/10
f 7/29/9 81/101/44 4/37/10
f 23/104/30 28/100/31 24/102/30
f 54/176/47 82/103/45 23/104/30
f 39/81/35 40/80/34 21/106/30
f 40/80/34 106/107/46 22/105/30
f 19/52/4 15/57/2 106/107/46
f 109/161/68 61/110/48 114/51/20
f 111/45/17 108/66/25 65/113/18
f 86/68/26 64/114/50 108/66/25
f 109/161/68 88/116/51 61/118/48
f 39/81/35 21/106/30 105/82/36
f 18/159/9 16/120/1 103/122/44
f 9/31/11 82/103/45 5/35/2
f 87/129/56 94/32/12 55/125/54
f 56/177/55 85/86/40 57/126/8
f 86/89/26 85/86/40 64/128/50
f 62/178/52 88/116/51 55/130/54
f 27/99/32 81/101/44 24/102/30
f 8/179/6 79/132/36 6/134/1
f 70/180/71 71/135/57 69/137/59
f 71/135/57 72/138/60 68/136/58
f 100/181/72 102/140/73 72/138/60
f 3/30/10 28/100/31 9/31/11
f 7/29/9 6/28/1 81/101/44
f 8/179/6 1/142/5 79/132/36
f 25/94/35 24/93/30 79/132/36
f 88/116/51 44/71/28 87/129/56
f 31/155/65 47/144/30 83/146/64
f 84/145/63 62/147/52 83/146/64
f 64/182/50 56/149/55 90/72/29
f 89/84/38 56/150/55 93/85/39
f 55/183/54 58/152/3 83/146/64
f 10/98/4 5/153/2 80/96/43
f 34/171/42 31/155/65 92/40/14
f 87/129/56 30/91/37 94/32/12
f 70/180/71 69/137/59 96/157/74
f 13/53/5 19/52/4 40/80/34
f 59/184/53 16/158/1 105/82/36
f 37/75/32 11/78/10 103/122/44
f 59/185/53 21/160/30 103/122/44
f 42/64/23 44/71/28 109/161/68
f 84/166/63 47/162/30 107/164/70
f 61/186/48 62/165/52 107/164/70
f 64/187/50 90/72/29 63/167/49
f 65/188/18 63/168/49 113/49/19
f 61/189/48 107/164/70 66/169/15
f 60/190/47 15/170/2 104/76/33
f 107/164/70 45/163/69 112/43/16
f 52/60/21 42/64/23 114/51/20
