# Blender 5.0.1
# www.blender.org
g hull_Mesh
v -0.190180 0.451733 0.033534
v -0.190180 0.474390 0.033534
v -0.213104 0.451733 0.033534
v -0.003463 0.171718 -0.033535
v -0.215324 0.476382 0.028345
v -0.215324 0.147068 0.028345
v 0.006237 0.147068 0.024505
v 0.006237 0.476382 0.024505
v -0.003463 0.476382 0.028345
v -0.003463 0.147068 0.028345
v -0.215324 0.476382 -0.028346
v -0.215324 0.147068 -0.028346
v 0.006237 0.147068 -0.024506
v 0.009891 0.147068 0.000000
v 0.006237 0.476382 -0.024506
v 0.009891 0.476382 0.000000
v -0.003463 0.476382 -0.028346
v -0.003463 0.147068 -0.028346
v -0.213104 0.474390 0.033534
v -0.213104 0.149061 0.033534
v 0.011304 0.149061 0.027709
v 0.015080 0.149061 0.000000
v 0.011304 0.474390 0.027709
v 0.015080 0.474390 0.000000
v -0.003463 0.474390 0.033534
v -0.003463 0.149061 0.033534
v -0.213104 0.474390 -0.033535
v -0.213104 0.149061 -0.033535
v 0.011304 0.149061 -0.027710
v 0.011304 0.474390 -0.027710
v -0.003463 0.474390 -0.033535
v -0.003463 0.149061 -0.033535
v -0.113615 0.281224 0.000045
v -0.070056 0.281224 0.000045
v -0.113615 0.324783 0.000045
vn -0.4456 0.4622 0.7667
vn -0.1237 -0.0000 0.9923
vn -0.0000 -0.0000 1.0000
vn 0.2002 0.6951 0.6904
vn 0.0440 0.9783 0.2027
vn -0.0000 0.5664 0.8241
vn -1.0000 -0.0000 -0.0000
vn -0.6022 0.6245 -0.4974
vn 0.0459 0.9763 -0.2115
vn 0.2047 0.7108 -0.6729
vn 0.0585 -0.9612 -0.2697
vn 0.1602 -0.9769 -0.1413
vn 0.1987 -0.9801 -0.0000
vn 0.1602 -0.9769 0.1413
vn 0.0585 -0.9612 0.2697
vn 0.2047 -0.7108 0.6730
vn 0.6794 0.5092 0.5284
vn 0.8379 -0.5458 -0.0000
vn 0.6794 -0.5092 0.5284
vn 0.1842 -0.6394 -0.7464
vn 0.6985 -0.5716 -0.4305
vn -0.0000 -0.0000 -1.0000
vn 0.0721 -0.0000 -0.9974
vn 0.1602 0.9769 -0.1413
vn 0.6812 0.5142 -0.5211
vn 0.3669 -0.0000 -0.9302
vn -0.6022 -0.6245 0.4974
vn -0.9194 -0.0000 0.3933
vn -0.6142 -0.6123 0.4978
vn -0.5005 0.7427 0.4449
vn 0.1602 0.9769 0.1413
vn 0.1987 0.9801 -0.0000
vn -0.0000 1.0000 -0.0000
vn 0.8379 0.5459 -0.0000
vn -0.0000 -1.0000 -0.0000
vn -0.6188 -0.6076 -0.4980
vn -0.6022 -0.6245 -0.4974
vn -0.6188 0.6076 -0.4980
vt 0.526222 0.814495
vt 0.490230 0.814495
vt 0.490230 0.778079
vt 0.526222 0.481474
vt 0.535052 0.481474
vt 0.526222 0.778079
vt 0.006263 0.000202
vt 0.000000 0.000000
vt 0.535052 0.342191
vt 0.526223 0.342191
vt 0.001129 0.345214
vt 0.001111 0.361785
vt 0.000665 0.410718
vt 0.544523 0.645142
vt 0.001129 0.478448
vt 0.526222 0.456257
vt 0.009425 0.411831
vt 0.009425 0.342189
vt 0.009425 0.367406
vt 0.045417 0.342190
vt 0.009427 0.009167
vt 0.535445 0.371364
vt 0.526222 0.367408
vt 0.000202 0.452300
vt 0.009425 0.456256
vt 0.009424 0.814495
vt 0.000594 0.818022
vt 0.529387 0.823461
vt 0.534518 0.478449
vt 0.534536 0.461878
vt 0.589239 0.342147
vt 0.635565 0.381904
vt 0.634519 0.389189
vt 0.009425 0.481472
vt 0.526222 0.411832
vt 0.534981 0.412945
vt 0.535445 0.452301
vt 0.526224 0.009169
vt 0.000202 0.371362
vt 1.000000 0.000000
vt 0.000000 1.000000
vt 0.529388 0.000203
s 1
f 19/1/1 3/2/2 1/3/3
f 25/4/4 9/5/5 2/6/6
f 2/6/6 19/1/1 1/3/3
s 0
f 12/7/7 5/8/7 11/8/7
s 1
f 27/8/8 17/9/9 31/10/10
f 18/11/11 13/12/12 14/13/13
f 18/11/11 14/13/13 7/14/14
f 18/11/11 7/14/14 10/15/15
f 26/8/16 23/16/17 25/4/4
f 22/17/18 23/16/17 21/8/19
f 13/12/12 32/18/20 29/19/21
f 27/8/22 4/20/23 32/18/20
s 0
f 27/8/22 32/18/22 28/21/22
s 1
f 31/10/10 15/22/24 30/23/25
s 0
f 4/8/26 30/8/26 29/8/26
s 1
f 4/8/23 29/8/21 32/18/20
f 7/24/14 22/17/18 21/25/19
f 20/26/27 3/8/28 6/27/29
f 3/2/2 19/1/1 5/28/30
s 0
f 3/2/28 5/28/28 6/8/28
s 1
f 5/8/30 9/29/5 8/30/31
f 5/8/30 8/30/31 16/31/32
f 5/8/30 16/31/32 15/32/24
f 5/8/30 15/32/24 17/33/9
s 0
f 5/8/33 17/33/33 11/8/33
s 1
f 20/8/27 10/15/15 26/34/16
s 0
f 31/10/22 4/20/22 27/8/22
s 1
f 24/35/34 15/32/24 16/36/32
s 0
f 6/8/35 18/11/35 10/15/35
s 1
f 31/10/10 30/23/25 4/8/26
f 8/37/31 25/4/4 23/16/17
f 12/7/36 27/38/8 28/8/37
f 19/1/1 2/6/6 9/5/5
f 19/1/1 9/5/5 5/8/30
f 26/34/16 7/24/14 21/25/19
f 13/39/12 22/17/18 14/13/13
f 22/8/18 30/23/25 24/35/34
f 8/37/31 24/35/34 16/36/32
f 18/11/11 28/21/37 32/18/20
f 25/4/4 2/6/6 1/3/3
s 0
f 25/4/3 1/3/3 26/8/3
f 20/26/3 1/3/3 3/2/3
f 34/40/3 35/41/3 33/8/3
f 12/7/7 6/8/7 5/8/7
s 1
f 27/8/8 11/42/38 17/9/9
f 26/8/16 21/25/19 23/16/17
f 22/17/18 24/35/34 23/16/17
f 13/12/12 18/11/11 32/18/20
f 31/10/10 17/33/9 15/22/24
f 7/24/14 14/13/13 22/17/18
f 20/8/27 6/27/29 10/15/15
f 24/35/34 30/23/25 15/32/24
s 0
f 6/8/35 12/7/35 18/11/35
s 1
f 8/37/31 9/29/5 25/4/4
f 12/7/36 11/42/38 27/38/8
f 26/34/16 10/15/15 7/24/14
f 13/39/12 29/19/21 22/17/18
f 22/8/18 29/19/21 30/23/25
f 8/37/31 23/16/17 24/35/34
f 18/11/11 12/7/36 28/21/37
s 0
f 20/26/3 26/8/3 1/3/3
