# Blender 4.3.2
# www.blender.org
o long_trim
v -9.198992 0.032578 2.307235
v 9.198994 0.032578 2.307235
v -9.365337 0.032577 -2.182154
v 9.365339 0.032577 -2.182154
v 9.481600 -0.129273 2.295719
v -9.312860 -0.129273 2.420595
v -9.481600 -0.129274 -2.295721
v 9.312862 -0.129274 -2.420595
v -8.967493 0.104013 2.060009
v 9.111784 0.104013 1.934996
v 8.967493 0.104012 -2.060010
v -9.111782 0.104012 -1.934998
v -8.490416 0.192613 1.870018
v 8.570190 0.192613 1.655591
v 8.495729 0.192612 -1.849465
v -8.564878 0.192612 -1.623924
v -9.365337 0.032578 2.182153
v 9.365339 0.032578 2.182153
v -9.198992 0.032577 -2.307235
v 9.198994 0.032577 -2.307235
v 9.312862 -0.129273 2.420595
v -9.481600 -0.129273 2.295719
v -9.312860 -0.129274 -2.420595
v 9.481600 -0.129274 -2.295719
v -9.111782 0.104013 1.934996
v 8.967493 0.104013 2.060009
v 9.111784 0.104012 -1.934997
v -8.967491 0.104012 -2.060010
v -8.564878 0.192613 1.655591
v 8.495729 0.192613 1.870018
v 8.570190 0.192612 -1.623924
v -8.490416 0.192612 -1.849465
v 9.365339 0.032577 -1.478160
v -9.365337 -0.030762 -0.875987
v 9.481600 -0.129274 -1.478160
v -9.481600 -0.192613 -0.875987
v 9.111784 0.104012 -1.478160
v -9.111782 0.040673 -0.875987
v 8.570190 0.192612 -1.252481
v -8.564878 0.129273 -0.763089
v 9.365339 0.032579 1.478454
v 9.111784 0.104013 1.478454
v 8.570190 0.192613 1.284385
v -9.365337 0.032578 1.478454
v 9.481600 -0.129274 1.478454
v -9.481600 -0.129274 1.478454
v -9.111782 0.104013 1.478454
v -8.564878 0.192613 1.284385
v -8.441368 0.032578 2.307235
v -8.441368 0.032577 -2.307235
v -8.441368 -0.129273 2.420595
v -8.441366 -0.129274 -2.420595
v -8.441368 0.104013 2.060009
v -8.441368 0.104012 -2.060010
v -7.974905 0.192613 1.870018
v -7.974905 0.192612 -1.849465
v -7.974905 0.129273 -0.763089
v -7.974905 0.192613 1.284385
v 8.492773 0.008773 -2.307235
v 8.533039 -0.129273 2.420595
v 8.495375 0.080208 -2.060010
v 8.027742 0.168809 -1.849465
v 8.033132 0.168809 -1.252481
v 8.052160 0.192613 1.284385
v 8.531847 0.032578 2.307235
v 8.491579 -0.153078 -2.420595
v 8.529243 0.104013 2.060009
v 8.057548 0.192613 1.870018
v 8.056391 0.192613 1.655591
v -7.974905 0.192613 1.655591
v 8.028894 0.168809 -1.624403
v -7.974905 0.185945 -1.624058
vn 0.0431 0.9781 0.2036
vn 0.0867 0.9961 0.0159
vn -0.0000 1.0000 -0.0000
vn -0.0000 0.9763 0.2164
vn -0.6825 0.6794 0.2694
vn -0.5837 0.8119 -0.0132
vn -0.9439 0.3303 -0.0043
vn -0.7017 0.6714 0.2385
vn 0.1746 0.7643 0.6208
vn -0.0000 0.8123 0.5833
vn -0.0011 0.3211 0.9470
vn 0.3062 0.3674 0.8782
vn -0.1746 0.7643 -0.6208
vn 0.0006 0.6385 -0.7696
vn 0.0018 0.3309 -0.9437
vn -0.3143 0.3657 -0.8760
vn 0.6825 0.6794 -0.2694
vn 0.7553 0.6553 -0.0000
vn 0.9416 0.3368 -0.0013
vn 0.7017 0.6713 -0.2385
vn -0.0000 0.8136 0.5815
vn -0.0000 0.9363 0.3512
vn -0.0722 0.9739 0.2152
vn -0.2140 0.8745 0.4352
vn 0.5676 0.8233 -0.0000
vn 0.2167 0.9762 -0.0000
vn 0.1833 0.9810 0.0641
vn 0.3652 0.8823 0.2968
vn -0.0224 0.8105 -0.5854
vn -0.0309 0.9290 -0.3688
vn 0.0541 0.9720 -0.2285
vn 0.1954 0.8715 -0.4499
vn -0.5809 0.8127 0.0441
vn -0.2209 0.9751 0.0211
vn -0.2013 0.9789 -0.0365
vn -0.3887 0.8807 -0.2708
vn -0.0355 0.9780 0.2056
vn 0.0810 0.9967 -0.0000
vn -0.0155 0.9788 -0.2041
vn 0.0029 0.9752 -0.2215
vn -0.0817 0.9965 0.0177
vn -0.0890 0.9957 0.0256
vn -0.3045 0.3595 0.8820
vn 0.3025 0.3678 -0.8793
vn 0.6245 0.6965 0.3533
vn -0.8429 0.4292 -0.3246
vn -0.1881 0.9802 0.0616
vn 0.0702 0.9767 0.2030
vn 0.1877 0.9803 -0.0618
vn -0.0683 0.9773 -0.2003
vn -0.0833 0.9965 0.0108
vn 0.0639 0.9979 -0.0069
vn -0.0407 0.9824 -0.1822
vn -0.0235 0.9997 0.0018
vn -0.0228 0.9997 -0.0049
vn 0.0603 0.9982 -0.0020
vn -0.9467 0.3222 0.0031
vn 0.9411 0.3382 0.0015
vn -0.2172 0.9760 -0.0123
vn -0.0834 0.9964 -0.0170
vn -0.0015 1.0000 -0.0026
vn -0.0000 0.3114 0.9503
vn -0.0066 0.3162 -0.9487
vn 0.0004 0.9428 -0.3335
vn 0.0010 0.9828 -0.1845
vn -0.0006 0.9999 0.0167
vn 0.0031 0.9989 0.0471
vn -0.0008 0.9999 -0.0149
vt 0.089613 0.768264
vt 0.086009 0.758305
vt 0.110925 0.758294
vt 0.110866 0.768324
vt 0.958925 0.784235
vt 0.958866 0.750349
vt 0.967948 0.750770
vt 0.967298 0.792428
vt 0.055095 0.789347
vt 0.087622 0.789229
vt 0.087511 0.797974
vt 0.049039 0.797220
vt 0.950608 0.567017
vt 0.913741 0.567504
vt 0.913782 0.558672
vt 0.956611 0.559293
vt 0.046930 0.572613
vt 0.046922 0.606479
vt 0.037661 0.606053
vt 0.038533 0.564485
vt 0.913911 0.789242
vt 0.913850 0.777613
vt 0.939483 0.777735
vt 0.950885 0.789321
vt 0.046945 0.750529
vt 0.059498 0.750241
vt 0.059428 0.771966
vt 0.046986 0.784391
vt 0.089426 0.567353
vt 0.089358 0.579114
vt 0.066319 0.579393
vt 0.055009 0.567599
vt 0.960089 0.635443
vt 0.947101 0.635767
vt 0.946488 0.584550
vt 0.958748 0.572066
vt 0.891119 0.768158
vt 0.916127 0.768288
vt 0.086033 0.740712
vt 0.112280 0.589421
vt 0.089541 0.589637
vt 0.919987 0.641380
vt 0.919737 0.599832
vt 0.956917 0.797111
vt 0.048944 0.559919
vt 0.038617 0.792608
vt 0.966873 0.563942
vt 0.946429 0.771943
vt 0.066394 0.777481
vt 0.059391 0.584961
vt 0.939485 0.578858
vt 0.919685 0.758309
vt 0.085981 0.600070
vt 0.916156 0.589337
vt 0.112269 0.599997
vt 0.112087 0.617642
vt 0.086024 0.617684
vt 0.969976 0.635004
vt 0.037702 0.751013
vt 0.059484 0.606695
vt 0.946410 0.750121
vt 0.919696 0.740663
vt 0.111138 0.740672
vt 0.891111 0.758282
vt 0.913994 0.797948
vt 0.089402 0.558335
vt 0.087770 0.777581
vt 0.913823 0.579159
vt 0.891122 0.589507
vt 0.891173 0.641443
vt 0.891152 0.599923
vt 0.891137 0.740684
s 1
f 30/1/1 14/2/2 69/3/3
f 69/3/3 68/4/4 30/1/1
f 17/5/5 44/6/6 46/7/7
f 46/7/7 22/8/8 17/5/5
f 2/9/9 65/10/10 60/11/11
f 60/11/11 21/12/12 2/9/9
f 19/13/13 50/14/14 52/15/15
f 52/15/15 23/16/16 19/13/13
f 4/17/17 33/18/18 35/19/19
f 35/19/19 24/20/20 4/17/17
f 49/21/21 53/22/22 9/23/23
f 9/23/23 1/24/24 49/21/21
f 41/25/25 42/26/26 10/27/27
f 10/27/27 18/28/28 41/25/25
f 59/29/29 61/30/30 11/31/31
f 11/31/31 20/32/32 59/29/29
f 34/33/33 38/34/34 12/35/35
f 12/35/35 3/36/36 34/33/33
f 9/23/23 53/22/22 55/37/4
f 55/37/4 13/38/37 9/23/23
f 42/26/26 43/39/38 14/2/2
f 14/2/2 10/27/27 42/26/26
f 11/31/31 61/30/30 62/40/39
f 62/40/39 15/41/40 11/31/31
f 38/34/34 40/42/41 16/43/42
f 16/43/42 12/35/35 38/34/34
f 1/24/24 17/5/5 22/8/8
f 22/8/8 6/44/43 1/24/24
f 20/32/32 4/17/17 24/20/20
f 24/20/20 8/45/44 20/32/32
f 21/12/12 5/46/45 18/28/28
f 18/28/28 2/9/9 21/12/12
f 23/16/16 7/47/46 3/36/36
f 3/36/36 19/13/13 23/16/16
f 17/5/5 1/24/24 9/23/23
f 9/23/23 25/48/47 17/5/5
f 2/9/9 18/28/28 10/27/27
f 10/27/27 26/49/48 2/9/9
f 4/17/17 20/32/32 11/31/31
f 11/31/31 27/50/49 4/17/17
f 19/13/13 3/36/36 12/35/35
f 12/35/35 28/51/50 19/13/13
f 25/48/47 9/23/23 13/38/37
f 13/38/37 29/52/51 25/48/47
f 26/49/48 10/27/27 14/2/2
f 14/2/2 30/1/1 26/49/48
f 27/50/49 11/31/31 15/41/40
f 15/41/40 31/53/52 27/50/49
f 28/51/50 12/35/35 16/43/42
f 16/43/42 32/54/53 28/51/50
f 31/53/52 71/55/54 63/56/55
f 63/56/55 39/57/56 31/53/52
f 3/36/36 7/47/46 36/58/57
f 36/58/57 34/33/33 3/36/36
f 41/25/25 45/59/58 35/19/19
f 35/19/19 33/18/18 41/25/25
f 33/18/18 4/17/17 27/50/49
f 27/50/49 37/60/26 33/18/18
f 44/6/6 47/61/59 38/34/34
f 38/34/34 34/33/33 44/6/6
f 27/50/49 31/53/52 39/57/56
f 39/57/56 37/60/26 27/50/49
f 47/61/59 48/62/60 40/42/41
f 40/42/41 38/34/34 47/61/59
f 39/57/56 63/56/55 64/63/61
f 64/63/61 43/39/38 39/57/56
f 34/33/33 36/58/57 46/7/7
f 46/7/7 44/6/6 34/33/33
f 33/18/18 37/60/26 42/26/26
f 42/26/26 41/25/25 33/18/18
f 37/60/26 39/57/56 43/39/38
f 43/39/38 42/26/26 37/60/26
f 18/28/28 5/46/45 45/59/58
f 45/59/58 41/25/25 18/28/28
f 44/6/6 17/5/5 25/48/47
f 25/48/47 47/61/59 44/6/6
f 25/48/47 29/52/51 48/62/60
f 48/62/60 47/61/59 25/48/47
f 13/38/37 55/37/4 70/64/3
f 70/64/3 29/52/51 13/38/37
f 1/24/24 6/44/43 51/65/62
f 51/65/62 49/21/21 1/24/24
f 59/29/29 66/66/63 52/15/15
f 52/15/15 50/14/14 59/29/29
f 65/10/10 67/67/22 53/22/22
f 53/22/22 49/21/21 65/10/10
f 50/14/14 19/13/13 28/51/50
f 28/51/50 54/68/64 50/14/14
f 67/67/22 68/4/4 55/37/4
f 55/37/4 53/22/22 67/67/22
f 28/51/50 32/54/53 56/69/65
f 56/69/65 54/68/64 28/51/50
f 40/42/41 57/70/66 72/71/67
f 72/71/67 16/43/42 40/42/41
f 40/42/41 48/62/60 58/72/68
f 58/72/68 57/70/66 40/42/41
f 55/37/4 68/4/4 69/3/3
f 69/3/3 70/64/3 55/37/4
f 49/21/21 51/65/62 60/11/11
f 60/11/11 65/10/10 49/21/21
f 50/14/14 54/68/64 61/30/30
f 61/30/30 59/29/29 50/14/14
f 54/68/64 56/69/65 62/40/39
f 62/40/39 61/30/30 54/68/64
f 57/70/66 63/56/55 71/55/54
f 71/55/54 72/71/67 57/70/66
f 63/56/55 57/70/66 58/72/68
f 58/72/68 64/63/61 63/56/55
f 20/32/32 8/45/44 66/66/63
f 66/66/63 59/29/29 20/32/32
f 65/10/10 2/9/9 26/49/48
f 26/49/48 67/67/22 65/10/10
f 26/49/48 30/1/1 68/4/4
f 68/4/4 67/67/22 26/49/48
f 43/39/38 64/63/61 69/3/3
f 69/3/3 14/2/2 43/39/38
f 64/63/61 58/72/68 70/64/3
f 70/64/3 69/3/3 64/63/61
f 58/72/68 48/62/60 29/52/51
f 29/52/51 70/64/3 58/72/68
f 15/41/40 62/40/39 71/55/54
f 71/55/54 31/53/52 15/41/40
f 62/40/39 56/69/65 72/71/67
f 72/71/67 71/55/54 62/40/39
f 72/71/67 56/69/65 32/54/53
f 32/54/53 16/43/42 72/71/67
