# Blender 4.3.2
# www.blender.org
o medium_tower
v -1.737139 0.076878 1.855976
v 1.737139 0.076878 1.855976
v -1.903484 0.076877 -1.730896
v 1.903485 0.076877 -1.730896
v 2.019747 -0.084973 1.844460
v -1.851007 -0.084973 1.969337
v -2.019747 -0.084973 -1.844460
v 1.851007 -0.084973 -1.969337
v -1.505640 0.148313 1.608750
v 1.649930 0.148313 1.483737
v 1.505640 0.148312 -1.608750
v -1.649930 0.148312 -1.483737
v -1.442893 -0.050207 1.491593
v 1.524262 -0.050207 1.376415
v 1.446177 -0.050207 -1.477641
v -1.520978 -0.050207 -1.362463
v -1.903484 0.076878 1.730895
v 1.903485 0.076878 1.730895
v -1.737139 0.076877 -1.855975
v 1.737139 0.076877 -1.855975
v 1.851007 -0.084973 1.969337
v -2.019747 -0.084973 1.844460
v -1.851007 -0.084973 -1.969337
v 2.019747 -0.084973 -1.844460
v -1.649930 0.148313 1.483737
v 1.505640 0.148313 1.608750
v 1.649930 0.148312 -1.483737
v -1.505640 0.148312 -1.608750
v -1.520978 -0.050207 1.376415
v 1.446177 -0.050207 1.491593
v 1.524262 -0.050207 -1.362463
v -1.442893 -0.050207 -1.477641
v 1.903485 0.076878 -1.026899
v -1.903484 0.013538 -0.424726
v 2.019747 -0.084973 -1.026899
v -2.019747 -0.148313 -0.424726
v 1.649930 0.148312 -1.026899
v -1.649930 0.084973 -0.424726
v 1.524262 -0.050207 -0.940686
v -1.520978 -0.063450 -0.384978
v 1.903485 0.076879 1.027194
v 1.649930 0.148313 1.027194
v 1.524262 -0.050207 0.954912
v -1.903484 0.076878 1.027194
v 2.019747 -0.084973 1.027194
v -2.019747 -0.084973 1.027194
v -1.649930 0.148313 1.027194
v -1.520978 -0.050207 0.954912
v -0.979514 0.076878 1.855976
v -0.979514 0.076877 -1.855975
v -0.979514 -0.084973 1.969337
v -0.979514 -0.084973 -1.969337
v -0.979514 0.148313 1.608750
v -0.979514 0.148312 -1.608750
v -0.902292 -0.050207 1.491593
v -0.902292 -0.050207 -1.477641
v -0.902292 -0.076633 -0.384978
v -0.902292 -0.050207 0.954912
v 1.030918 0.053074 -1.855975
v 1.071185 -0.084973 1.969337
v 1.033520 0.124509 -1.608750
v 0.955416 -0.074011 -1.477641
v 0.961067 -0.074011 -0.940686
v 0.981022 -0.050207 0.954912
v 1.069992 0.076878 1.855976
v 1.029725 -0.108777 -1.969337
v 1.067389 0.148313 1.608750
v 0.986671 -0.050207 1.491593
v 0.985459 -0.050207 1.376415
v -0.902292 -0.050207 1.376415
v 0.956623 -0.074011 -1.363006
v -0.902292 -0.056874 -1.362615
vn -0.2695 0.8208 -0.5037
vn -0.5022 0.8511 -0.1529
vn -0.0000 1.0000 -0.0000
vn -0.0000 0.8684 -0.4959
vn -0.6825 0.6794 0.2694
vn -0.5899 0.8072 -0.0210
vn -0.9450 0.3271 -0.0071
vn -0.7017 0.6714 0.2385
vn 0.1746 0.7643 0.6208
vn 0.0001 0.8047 0.5937
vn -0.0027 0.3143 0.9493
vn 0.3079 0.3614 0.8801
vn -0.1746 0.7643 -0.6208
vn 0.0051 0.6387 -0.7695
vn 0.0058 0.3215 -0.9469
vn -0.3143 0.3601 -0.8783
vn 0.6825 0.6794 -0.2694
vn 0.7553 0.6553 -0.0000
vn 0.9438 0.3306 -0.0011
vn 0.7017 0.6713 -0.2385
vn -0.0000 0.8136 0.5815
vn -0.0000 0.9293 -0.3692
vn 0.1120 0.9695 -0.2181
vn -0.2140 0.8745 0.4352
vn 0.5648 0.8253 -0.0000
vn -0.3578 0.9338 -0.0000
vn -0.1572 0.9815 -0.1091
vn 0.3652 0.8823 0.2968
vn -0.0199 0.8157 -0.5781
vn -0.0206 0.9375 0.3473
vn -0.1263 0.9737 0.1899
vn 0.1954 0.8715 -0.4499
vn -0.5809 0.8127 0.0442
vn 0.2967 0.9550 0.0013
vn 0.1238 0.9833 0.1337
vn -0.3887 0.8807 -0.2708
vn 0.2203 0.8373 -0.5005
vn -0.4822 0.8760 -0.0000
vn -0.0150 0.8828 0.4696
vn -0.2427 0.8388 0.4873
vn 0.4254 0.9050 -0.0058
vn 0.4890 0.8576 0.1594
vn -0.3066 0.3549 0.8832
vn 0.3043 0.3618 -0.8812
vn 0.6245 0.6965 0.3533
vn -0.8447 0.4246 -0.3259
vn 0.1775 0.9783 -0.1071
vn -0.1154 0.9737 -0.1966
vn -0.1724 0.9790 0.1092
vn 0.1068 0.9777 0.1806
vn 0.4923 0.8620 -0.1212
vn -0.5098 0.8519 0.1198
vn 0.2655 0.8323 0.4866
vn -0.0196 0.9998 0.0028
vn -0.0221 0.9997 -0.0061
vn -0.4990 0.8666 -0.0028
vn -0.9488 0.3160 0.0005
vn 0.9435 0.3313 0.0012
vn 0.3467 0.9379 -0.0150
vn 0.4773 0.8787 -0.0046
vn -0.0019 1.0000 -0.0037
vn -0.0000 0.3091 0.9510
vn -0.0046 0.3115 -0.9502
vn 0.0053 0.9387 0.3446
vn 0.0060 0.8664 0.4992
vn 0.0100 0.9999 -0.0022
vn 0.0095 0.9993 0.0357
vn 0.0006 1.0000 -0.0072
vt 0.917029 0.724583
vt 0.921398 0.729657
vt 0.886877 0.727874
vt 0.887270 0.721557
vt 0.688399 0.695835
vt 0.681575 0.744659
vt 0.668345 0.744328
vt 0.671891 0.686992
vt 0.942166 0.691320
vt 0.895365 0.686166
vt 0.896294 0.673023
vt 0.952188 0.680055
vt 0.699800 0.944956
vt 0.752752 0.949469
vt 0.752222 0.962379
vt 0.690217 0.956427
vt 0.953837 0.939307
vt 0.956353 0.890559
vt 0.968530 0.890653
vt 0.966798 0.948198
vt 0.753536 0.681516
vt 0.753747 0.698155
vt 0.716183 0.703034
vt 0.700587 0.687022
vt 0.956443 0.749207
vt 0.940643 0.749642
vt 0.937622 0.717275
vt 0.953946 0.700486
vt 0.892015 0.954480
vt 0.891456 0.937257
vt 0.925394 0.932895
vt 0.941761 0.948456
vt 0.680959 0.845626
vt 0.698582 0.845253
vt 0.703426 0.919038
vt 0.687966 0.935877
vt 0.759709 0.717674
vt 0.724449 0.721012
vt 0.921638 0.755623
vt 0.884505 0.917355
vt 0.916314 0.914763
vt 0.718794 0.841890
vt 0.719112 0.905916
vt 0.691173 0.675330
vt 0.951669 0.959828
vt 0.966352 0.691639
vt 0.675869 0.944303
vt 0.703669 0.713317
vt 0.925760 0.706871
vt 0.937172 0.922443
vt 0.715599 0.929245
vt 0.719628 0.726188
vt 0.920725 0.909380
vt 0.723753 0.910991
vt 0.883955 0.910654
vt 0.884055 0.882924
vt 0.921080 0.883095
vt 0.667447 0.845610
vt 0.968277 0.748988
vt 0.940286 0.890121
vt 0.698268 0.745572
vt 0.718093 0.752308
vt 0.886368 0.755081
vt 0.759840 0.724647
vt 0.753256 0.668224
vt 0.892415 0.968056
vt 0.894346 0.702644
vt 0.753028 0.933404
vt 0.759154 0.914038
vt 0.759376 0.842216
vt 0.759047 0.907503
vt 0.759590 0.752331
s 1
f 30/1/1 14/2/2 69/3/3
f 69/3/3 68/4/4 30/1/1
f 17/5/5 44/6/6 46/7/7
f 46/7/7 22/8/8 17/5/5
f 2/9/9 65/10/10 60/11/11
f 60/11/11 21/12/12 2/9/9
f 19/13/13 50/14/14 52/15/15
f 52/15/15 23/16/16 19/13/13
f 4/17/17 33/18/18 35/19/19
f 35/19/19 24/20/20 4/17/17
f 49/21/21 53/22/22 9/23/23
f 9/23/23 1/24/24 49/21/21
f 41/25/25 42/26/26 10/27/27
f 10/27/27 18/28/28 41/25/25
f 59/29/29 61/30/30 11/31/31
f 11/31/31 20/32/32 59/29/29
f 34/33/33 38/34/34 12/35/35
f 12/35/35 3/36/36 34/33/33
f 9/23/23 53/22/22 55/37/4
f 55/37/4 13/38/37 9/23/23
f 42/26/26 43/39/38 14/2/2
f 14/2/2 10/27/27 42/26/26
f 11/31/31 61/30/30 62/40/39
f 62/40/39 15/41/40 11/31/31
f 38/34/34 40/42/41 16/43/42
f 16/43/42 12/35/35 38/34/34
f 1/24/24 17/5/5 22/8/8
f 22/8/8 6/44/43 1/24/24
f 20/32/32 4/17/17 24/20/20
f 24/20/20 8/45/44 20/32/32
f 21/12/12 5/46/45 18/28/28
f 18/28/28 2/9/9 21/12/12
f 23/16/16 7/47/46 3/36/36
f 3/36/36 19/13/13 23/16/16
f 17/5/5 1/24/24 9/23/23
f 9/23/23 25/48/47 17/5/5
f 2/9/9 18/28/28 10/27/27
f 10/27/27 26/49/48 2/9/9
f 4/17/17 20/32/32 11/31/31
f 11/31/31 27/50/49 4/17/17
f 19/13/13 3/36/36 12/35/35
f 12/35/35 28/51/50 19/13/13
f 25/48/47 9/23/23 13/38/37
f 13/38/37 29/52/51 25/48/47
f 26/49/48 10/27/27 14/2/2
f 14/2/2 30/1/1 26/49/48
f 27/50/49 11/31/31 15/41/40
f 15/41/40 31/53/52 27/50/49
f 28/51/50 12/35/35 16/43/42
f 16/43/42 32/54/53 28/51/50
f 31/53/52 71/55/54 63/56/55
f 63/56/55 39/57/56 31/53/52
f 3/36/36 7/47/46 36/58/57
f 36/58/57 34/33/33 3/36/36
f 41/25/25 45/59/58 35/19/19
f 35/19/19 33/18/18 41/25/25
f 33/18/18 4/17/17 27/50/49
f 27/50/49 37/60/26 33/18/18
f 44/6/6 47/61/59 38/34/34
f 38/34/34 34/33/33 44/6/6
f 27/50/49 31/53/52 39/57/56
f 39/57/56 37/60/26 27/50/49
f 47/61/59 48/62/60 40/42/41
f 40/42/41 38/34/34 47/61/59
f 39/57/56 63/56/55 64/63/61
f 64/63/61 43/39/38 39/57/56
f 34/33/33 36/58/57 46/7/7
f 46/7/7 44/6/6 34/33/33
f 33/18/18 37/60/26 42/26/26
f 42/26/26 41/25/25 33/18/18
f 37/60/26 39/57/56 43/39/38
f 43/39/38 42/26/26 37/60/26
f 18/28/28 5/46/45 45/59/58
f 45/59/58 41/25/25 18/28/28
f 44/6/6 17/5/5 25/48/47
f 25/48/47 47/61/59 44/6/6
f 25/48/47 29/52/51 48/62/60
f 48/62/60 47/61/59 25/48/47
f 13/38/37 55/37/4 70/64/3
f 70/64/3 29/52/51 13/38/37
f 1/24/24 6/44/43 51/65/62
f 51/65/62 49/21/21 1/24/24
f 59/29/29 66/66/63 52/15/15
f 52/15/15 50/14/14 59/29/29
f 65/10/10 67/67/22 53/22/22
f 53/22/22 49/21/21 65/10/10
f 50/14/14 19/13/13 28/51/50
f 28/51/50 54/68/64 50/14/14
f 67/67/22 68/4/4 55/37/4
f 55/37/4 53/22/22 67/67/22
f 28/51/50 32/54/53 56/69/65
f 56/69/65 54/68/64 28/51/50
f 40/42/41 57/70/66 72/71/67
f 72/71/67 16/43/42 40/42/41
f 40/42/41 48/62/60 58/72/68
f 58/72/68 57/70/66 40/42/41
f 55/37/4 68/4/4 69/3/3
f 69/3/3 70/64/3 55/37/4
f 49/21/21 51/65/62 60/11/11
f 60/11/11 65/10/10 49/21/21
f 50/14/14 54/68/64 61/30/30
f 61/30/30 59/29/29 50/14/14
f 54/68/64 56/69/65 62/40/39
f 62/40/39 61/30/30 54/68/64
f 57/70/66 63/56/55 71/55/54
f 71/55/54 72/71/67 57/70/66
f 63/56/55 57/70/66 58/72/68
f 58/72/68 64/63/61 63/56/55
f 20/32/32 8/45/44 66/66/63
f 66/66/63 59/29/29 20/32/32
f 65/10/10 2/9/9 26/49/48
f 26/49/48 67/67/22 65/10/10
f 26/49/48 30/1/1 68/4/4
f 68/4/4 67/67/22 26/49/48
f 43/39/38 64/63/61 69/3/3
f 69/3/3 14/2/2 43/39/38
f 64/63/61 58/72/68 70/64/3
f 70/64/3 69/3/3 64/63/61
f 58/72/68 48/62/60 29/52/51
f 29/52/51 70/64/3 58/72/68
f 15/41/40 62/40/39 71/55/54
f 71/55/54 31/53/52 15/41/40
f 62/40/39 56/69/65 72/71/67
f 72/71/67 71/55/54 62/40/39
f 72/71/67 56/69/65 32/54/53
f 32/54/53 16/43/42 72/71/67
