# Blender 4.3.2
# www.blender.org
o medium_wall
v -8.209533 0.076878 1.459503
v 8.209532 0.076878 1.459503
v -8.375876 0.076877 -1.334423
v 8.375877 0.076877 -1.334423
v 8.492140 -0.084973 1.447988
v -8.323400 -0.084973 1.572864
v -8.492140 -0.084973 -1.447989
v 8.323400 -0.084973 -1.572864
v -7.978033 0.148313 1.212277
v 8.122322 0.148313 1.087265
v 7.978031 0.148312 -1.212278
v -8.122322 0.148312 -1.087266
v -7.915286 -0.037778 1.095121
v 7.996654 -0.037778 0.979944
v 7.918569 -0.037779 -1.081169
v -7.993372 -0.037779 -0.965992
v -8.375876 0.076878 1.334422
v 8.375877 0.076878 1.334422
v -8.209532 0.076877 -1.459504
v 8.209532 0.076877 -1.459503
v 8.323400 -0.084973 1.572864
v -8.492140 -0.084973 1.447987
v -8.323400 -0.084973 -1.572864
v 8.492140 -0.084973 -1.447988
v -8.122323 0.148313 1.087265
v 7.978031 0.148313 1.212277
v 8.122322 0.148312 -1.087265
v -7.978033 0.148312 -1.212278
v -7.993372 -0.037778 0.979944
v 7.918569 -0.037778 1.095121
v 7.996654 -0.037779 -0.965992
v -7.915286 -0.037779 -1.081169
v 8.375877 0.076878 -0.630427
v -8.375876 0.013538 -0.028255
v 8.492140 -0.084973 -0.630427
v -8.492140 -0.148313 -0.028255
v 8.122322 0.148313 -0.630427
v -8.122322 0.084973 -0.028255
v 7.996654 -0.037779 -0.544215
v -7.993372 -0.101118 0.011493
v 8.375877 0.076879 0.630722
v 8.122322 0.148313 0.630722
v 7.996654 -0.037778 0.558439
v -8.375876 0.076878 0.630722
v 8.492140 -0.084973 0.630722
v -8.492140 -0.084973 0.630722
v -8.122323 0.148313 0.630722
v -7.993372 -0.037778 0.558439
v -7.451908 0.076878 1.459503
v -7.451909 0.076877 -1.459504
v -7.451908 -0.084973 1.572864
v -7.451908 -0.084973 -1.572864
v -7.451908 0.148313 1.212277
v -7.451909 0.148312 -1.212278
v -7.374686 -0.037778 1.095121
v -7.374686 -0.037779 -1.081169
v -7.374686 -0.101118 0.011493
v -7.374686 -0.037778 0.558439
v 7.503311 0.053074 -1.459503
v 7.543577 -0.084973 1.572864
v 7.505912 0.124509 -1.212278
v 7.427808 -0.061582 -1.081169
v 7.433460 -0.061582 -0.544215
v 7.453414 -0.037778 0.558439
v 7.542385 0.076878 1.459503
v 7.502117 -0.108777 -1.572864
v 7.539781 0.148313 1.212277
v 7.459064 -0.037778 1.095121
v 7.457851 -0.037778 0.979944
v -7.374686 -0.037778 0.979944
v 7.429016 -0.061582 -0.966535
v -7.374686 -0.044446 -0.966144
vn -0.2631 0.8302 -0.4914
vn -0.4883 0.8600 -0.1480
vn -0.0000 1.0000 -0.0000
vn -0.0000 0.8754 -0.4833
vn -0.6825 0.6794 0.2694
vn -0.6099 0.7913 -0.0425
vn -0.9434 0.3314 -0.0161
vn -0.7017 0.6714 0.2385
vn 0.1746 0.7643 0.6208
vn -0.0000 0.8122 0.5833
vn -0.0011 0.3165 0.9486
vn 0.3079 0.3614 0.8801
vn -0.1746 0.7643 -0.6208
vn 0.0007 0.6386 -0.7696
vn 0.0019 0.3241 -0.9460
vn -0.3143 0.3601 -0.8783
vn 0.6825 0.6794 -0.2694
vn 0.7553 0.6553 -0.0000
vn 0.9437 0.3307 -0.0011
vn 0.7017 0.6713 -0.2385
vn -0.0000 0.8136 0.5815
vn -0.0000 0.9345 -0.3558
vn 0.1076 0.9725 -0.2067
vn -0.2140 0.8745 0.4352
vn 0.5588 0.8293 -0.0000
vn -0.3439 0.9390 -0.0000
vn -0.1462 0.9838 -0.1038
vn 0.3652 0.8823 0.2968
vn -0.0224 0.8106 -0.5852
vn -0.0253 0.9431 0.3317
vn -0.1217 0.9764 0.1783
vn 0.1954 0.8715 -0.4499
vn -0.5809 0.8127 0.0441
vn 0.3477 0.9375 -0.0132
vn 0.1128 0.9853 0.1282
vn -0.3887 0.8807 -0.2708
vn 0.2131 0.8463 -0.4882
vn -0.4692 0.8831 -0.0000
vn -0.0193 0.8897 0.4561
vn -0.2357 0.8484 0.4741
vn 0.4537 0.8909 -0.0239
vn 0.4805 0.8604 0.1700
vn -0.3066 0.3549 0.8832
vn 0.3043 0.3618 -0.8812
vn 0.6245 0.6965 0.3533
vn -0.8447 0.4246 -0.3259
vn 0.1664 0.9808 -0.1019
vn -0.1109 0.9764 -0.1852
vn -0.1613 0.9814 0.1039
vn 0.1022 0.9803 0.1690
vn 0.4784 0.8704 -0.1165
vn -0.4962 0.8605 0.1151
vn 0.2587 0.8419 0.4736
vn -0.0227 0.9997 0.0019
vn -0.0217 0.9997 -0.0109
vn -0.4851 0.8744 -0.0041
vn -0.9502 0.3117 -0.0075
vn 0.9435 0.3313 0.0012
vn 0.3305 0.9428 -0.0433
vn 0.4645 0.8838 -0.0555
vn -0.0032 1.0000 -0.0069
vn -0.0000 0.3091 0.9510
vn -0.0062 0.3123 -0.9500
vn 0.0007 0.9435 0.3313
vn 0.0008 0.8740 0.4860
vn -0.0015 0.9995 -0.0300
vn 0.0028 0.9984 0.0572
vn -0.0017 0.9984 -0.0565
vt 0.221362 0.541109
vt 0.218513 0.538073
vt 0.241571 0.538797
vt 0.241220 0.542453
vt 0.960680 0.559617
vt 0.963012 0.527347
vt 0.970447 0.527713
vt 0.968383 0.567285
vt 0.205371 0.563336
vt 0.236420 0.564226
vt 0.236286 0.571658
vt 0.199744 0.570578
vt 0.952959 0.431305
vt 0.917802 0.430453
vt 0.917857 0.423044
vt 0.958507 0.424139
vt 0.197564 0.435336
vt 0.195350 0.467641
vt 0.187665 0.467212
vt 0.189850 0.427443
vt 0.917341 0.565255
vt 0.917241 0.555337
vt 0.942146 0.553955
vt 0.952466 0.564544
vt 0.195100 0.525927
vt 0.205548 0.525368
vt 0.207837 0.546558
vt 0.197187 0.558264
vt 0.238623 0.429188
vt 0.238627 0.439307
vt 0.216072 0.440750
vt 0.205772 0.430336
vt 0.964395 0.496221
vt 0.953217 0.496689
vt 0.950717 0.447912
vt 0.961168 0.436415
vt 0.913209 0.543291
vt 0.936763 0.542090
vt 0.218217 0.521196
vt 0.243038 0.451607
vt 0.221730 0.452715
vt 0.940069 0.498752
vt 0.940158 0.456709
vt 0.958008 0.571831
vt 0.200260 0.423191
vt 0.189346 0.565924
vt 0.968790 0.428872
vt 0.950212 0.547809
vt 0.215818 0.552850
vt 0.208142 0.447019
vt 0.942619 0.441697
vt 0.939728 0.539091
vt 0.218767 0.455879
vt 0.937214 0.453721
vt 0.243158 0.455276
vt 0.242902 0.472906
vt 0.218387 0.472879
vt 0.972744 0.495846
vt 0.187408 0.526348
vt 0.205790 0.468159
vt 0.952829 0.526795
vt 0.940358 0.522020
vt 0.241856 0.521207
vt 0.913078 0.539646
vt 0.917350 0.572720
vt 0.238681 0.421489
vt 0.236760 0.554380
vt 0.917669 0.440301
vt 0.913586 0.452515
vt 0.913194 0.498880
vt 0.913355 0.456087
vt 0.913176 0.522137
s 1
f 30/1/1 14/2/2 69/3/3
f 69/3/3 68/4/4 30/1/1
f 17/5/5 44/6/6 46/7/7
f 46/7/7 22/8/8 17/5/5
f 2/9/9 65/10/10 60/11/11
f 60/11/11 21/12/12 2/9/9
f 19/13/13 50/14/14 52/15/15
f 52/15/15 23/16/16 19/13/13
f 4/17/17 33/18/18 35/19/19
f 35/19/19 24/20/20 4/17/17
f 49/21/21 53/22/22 9/23/23
f 9/23/23 1/24/24 49/21/21
f 41/25/25 42/26/26 10/27/27
f 10/27/27 18/28/28 41/25/25
f 59/29/29 61/30/30 11/31/31
f 11/31/31 20/32/32 59/29/29
f 34/33/33 38/34/34 12/35/35
f 12/35/35 3/36/36 34/33/33
f 9/23/23 53/22/22 55/37/4
f 55/37/4 13/38/37 9/23/23
f 42/26/26 43/39/38 14/2/2
f 14/2/2 10/27/27 42/26/26
f 11/31/31 61/30/30 62/40/39
f 62/40/39 15/41/40 11/31/31
f 38/34/34 40/42/41 16/43/42
f 16/43/42 12/35/35 38/34/34
f 1/24/24 17/5/5 22/8/8
f 22/8/8 6/44/43 1/24/24
f 20/32/32 4/17/17 24/20/20
f 24/20/20 8/45/44 20/32/32
f 21/12/12 5/46/45 18/28/28
f 18/28/28 2/9/9 21/12/12
f 23/16/16 7/47/46 3/36/36
f 3/36/36 19/13/13 23/16/16
f 17/5/5 1/24/24 9/23/23
f 9/23/23 25/48/47 17/5/5
f 2/9/9 18/28/28 10/27/27
f 10/27/27 26/49/48 2/9/9
f 4/17/17 20/32/32 11/31/31
f 11/31/31 27/50/49 4/17/17
f 19/13/13 3/36/36 12/35/35
f 12/35/35 28/51/50 19/13/13
f 25/48/47 9/23/23 13/38/37
f 13/38/37 29/52/51 25/48/47
f 26/49/48 10/27/27 14/2/2
f 14/2/2 30/1/1 26/49/48
f 27/50/49 11/31/31 15/41/40
f 15/41/40 31/53/52 27/50/49
f 28/51/50 12/35/35 16/43/42
f 16/43/42 32/54/53 28/51/50
f 31/53/52 71/55/54 63/56/55
f 63/56/55 39/57/56 31/53/52
f 3/36/36 7/47/46 36/58/57
f 36/58/57 34/33/33 3/36/36
f 41/25/25 45/59/58 35/19/19
f 35/19/19 33/18/18 41/25/25
f 33/18/18 4/17/17 27/50/49
f 27/50/49 37/60/26 33/18/18
f 44/6/6 47/61/59 38/34/34
f 38/34/34 34/33/33 44/6/6
f 27/50/49 31/53/52 39/57/56
f 39/57/56 37/60/26 27/50/49
f 47/61/59 48/62/60 40/42/41
f 40/42/41 38/34/34 47/61/59
f 39/57/56 63/56/55 64/63/61
f 64/63/61 43/39/38 39/57/56
f 34/33/33 36/58/57 46/7/7
f 46/7/7 44/6/6 34/33/33
f 33/18/18 37/60/26 42/26/26
f 42/26/26 41/25/25 33/18/18
f 37/60/26 39/57/56 43/39/38
f 43/39/38 42/26/26 37/60/26
f 18/28/28 5/46/45 45/59/58
f 45/59/58 41/25/25 18/28/28
f 44/6/6 17/5/5 25/48/47
f 25/48/47 47/61/59 44/6/6
f 25/48/47 29/52/51 48/62/60
f 48/62/60 47/61/59 25/48/47
f 13/38/37 55/37/4 70/64/3
f 70/64/3 29/52/51 13/38/37
f 1/24/24 6/44/43 51/65/62
f 51/65/62 49/21/21 1/24/24
f 59/29/29 66/66/63 52/15/15
f 52/15/15 50/14/14 59/29/29
f 65/10/10 67/67/22 53/22/22
f 53/22/22 49/21/21 65/10/10
f 50/14/14 19/13/13 28/51/50
f 28/51/50 54/68/64 50/14/14
f 67/67/22 68/4/4 55/37/4
f 55/37/4 53/22/22 67/67/22
f 28/51/50 32/54/53 56/69/65
f 56/69/65 54/68/64 28/51/50
f 40/42/41 57/70/66 72/71/67
f 72/71/67 16/43/42 40/42/41
f 40/42/41 48/62/60 58/72/68
f 58/72/68 57/70/66 40/42/41
f 55/37/4 68/4/4 69/3/3
f 69/3/3 70/64/3 55/37/4
f 49/21/21 51/65/62 60/11/11
f 60/11/11 65/10/10 49/21/21
f 50/14/14 54/68/64 61/30/30
f 61/30/30 59/29/29 50/14/14
f 54/68/64 56/69/65 62/40/39
f 62/40/39 61/30/30 54/68/64
f 57/70/66 63/56/55 71/55/54
f 71/55/54 72/71/67 57/70/66
f 63/56/55 57/70/66 58/72/68
f 58/72/68 64/63/61 63/56/55
f 20/32/32 8/45/44 66/66/63
f 66/66/63 59/29/29 20/32/32
f 65/10/10 2/9/9 26/49/48
f 26/49/48 67/67/22 65/10/10
f 26/49/48 30/1/1 68/4/4
f 68/4/4 67/67/22 26/49/48
f 43/39/38 64/63/61 69/3/3
f 69/3/3 14/2/2 43/39/38
f 64/63/61 58/72/68 70/64/3
f 70/64/3 69/3/3 64/63/61
f 58/72/68 48/62/60 29/52/51
f 29/52/51 70/64/3 58/72/68
f 15/41/40 62/40/39 71/55/54
f 71/55/54 31/53/52 15/41/40
f 62/40/39 56/69/65 72/71/67
f 72/71/67 71/55/54 62/40/39
f 72/71/67 56/69/65 32/54/53
f 32/54/53 16/43/42 72/71/67
