# Blender 5.0.0
# www.blender.org
g Box14_Mesh
v 7.918570 -0.032894 4.315385
v 7.996655 -0.032894 4.200207
v 7.457851 -0.032894 4.200207
v 7.459064 -0.032894 4.315385
v -8.375877 0.076876 4.554686
v -8.375877 0.076876 3.850984
v -8.492140 -0.277340 3.850984
v -8.492140 -0.277340 4.668250
v 8.209532 0.076876 4.679767
v 7.542386 0.076876 4.679767
v 7.543578 -0.277340 4.793126
v 8.323400 -0.277340 4.793126
v -8.209532 0.076878 -4.679766
v -7.451907 0.076878 -4.679766
v -7.451906 -0.277340 -4.793126
v -8.323400 -0.277340 -4.793126
v 8.375877 0.076878 -4.554686
v 8.375877 0.076877 -3.850690
v 8.492140 -0.277340 -3.850690
v 8.492140 -0.277340 -4.668249
v -8.492140 -0.280587 -3.248518
v -8.492140 -0.277340 -4.668250
v -7.451907 0.076876 4.679767
v -7.451907 0.148311 4.432539
v -7.978031 0.148311 4.432539
v -8.209532 0.076876 4.679767
v 8.375877 0.076877 3.844969
v 8.122322 0.148311 3.844969
v 8.122322 0.148311 4.307528
v 8.375877 0.076876 4.554686
v 7.503312 0.053074 -4.679766
v 7.505914 0.124509 -4.432541
v 7.978032 0.148313 -4.432541
v 8.209532 0.076878 -4.679766
v -8.375877 0.013538 -3.248518
v -8.122322 0.084973 -3.248518
v -8.122322 0.148313 -4.307528
v -8.375877 0.076878 -4.554686
v -7.374685 -0.032894 4.315385
v -7.915286 -0.032894 4.315385
v 7.996655 -0.032894 3.772686
v 7.427810 -0.056698 -4.301432
v 7.918570 -0.032894 -4.301431
v -7.993370 -0.096234 -3.208769
v -7.993370 -0.032894 -4.186255
v -8.323400 -0.277340 4.793126
v 8.323400 -0.277340 -4.793125
v 8.492140 -0.277340 4.668251
v -8.122322 0.148311 4.307528
v 7.978032 0.148311 4.432539
v 8.122322 0.148313 -4.307528
v -7.978031 0.148313 -4.432541
v -7.993370 -0.032894 4.200207
v 7.996655 -0.032894 -4.186254
v -7.915284 -0.032894 -4.301432
v 7.429017 -0.056698 -4.186797
v 7.433461 -0.056698 -3.764477
v 7.996655 -0.032894 -3.764477
v 8.375877 0.076877 -2.316195
v 8.492140 -0.277340 -2.321332
v 8.122322 0.148312 -3.850690
v -8.375877 0.023362 -2.147414
v -8.122322 0.094685 -2.159904
v -7.993370 -0.086786 -2.166378
v 7.437304 -0.052113 -2.312567
v 7.996655 -0.032894 -2.317667
v -8.492140 -0.280084 -2.148816
v 8.122322 0.148312 -2.311913
v 8.492140 -0.277340 3.844970
v -8.122322 0.148311 3.850984
v -7.993370 -0.032894 3.778702
v 7.502118 -0.278560 -4.793125
v -7.374685 -0.032894 4.200207
v -7.451907 -0.277340 4.793126
v 7.539782 0.148311 4.432539
v -7.451907 0.148313 -4.432541
v -7.374684 -0.032894 -4.301432
v -7.374684 -0.096234 -3.208769
v -7.374684 -0.039562 -4.186405
v -7.374684 -0.086780 -2.165843
v 7.453416 -0.032894 3.772686
v -7.374685 -0.032894 3.778702
v -8.492140 -0.279712 -1.335728
v -8.375877 0.030765 -1.317641
v -8.122322 0.102198 -1.317765
v -7.993370 -0.079218 -1.331436
v -7.374684 -0.079286 -1.339116
v 7.439399 -0.049615 -1.521690
v 7.996655 -0.032894 -1.560796
v 8.122322 0.148312 -1.552466
v 8.375877 0.076877 -1.526908
v 8.492140 -0.277340 -1.518222
vn -0.2604 0.8341 -0.4862
vn -0.4825 0.8636 -0.1460
vn -0.0000 1.0000 -0.0000
vn -0.0000 0.8783 -0.4781
vn -0.6447 0.4119 0.6440
vn -0.8100 0.5864 0.0005
vn -0.9993 0.0381 -0.0012
vn -0.8595 0.3751 0.3473
vn 0.5461 0.4659 0.6962
vn 0.0006 0.5883 0.8087
vn -0.0012 0.0331 0.9995
vn 0.3185 0.0340 0.9473
vn -0.5459 0.4661 -0.6962
vn 0.0006 0.5885 -0.8085
vn 0.0017 0.0474 -0.9989
vn -0.3296 0.0300 -0.9436
vn 0.6447 0.4119 -0.6440
vn 0.8104 0.5859 -0.0000
vn 0.9988 0.0499 0.0008
vn 0.8572 0.3766 -0.3513
vn -0.0001 0.5883 0.8086
vn -0.0000 0.9367 -0.3502
vn 0.1058 0.9737 -0.2019
vn -0.3265 0.6825 0.6539
vn -0.3381 0.9411 -0.0000
vn -0.1416 0.9847 -0.1016
vn 0.5614 0.6926 0.4529
vn -0.0460 0.5946 -0.8027
vn -0.0254 0.9452 0.3256
vn -0.1199 0.9775 0.1735
vn 0.3070 0.6790 -0.6668
vn -0.7903 0.6054 0.0944
vn 0.3342 0.9421 0.0265
vn 0.1083 0.9861 0.1259
vn -0.5840 0.6910 -0.4261
vn 0.2101 0.8501 -0.4830
vn -0.4637 0.8860 -0.0000
vn -0.0193 0.8925 0.4506
vn -0.2328 0.8522 0.4685
vn 0.4538 0.8908 0.0221
vn 0.4743 0.8642 0.1681
vn -0.3163 0.0195 0.9485
vn 0.3194 0.0395 -0.9468
vn 0.7643 0.2904 0.5758
vn -0.7558 0.2916 -0.5863
vn 0.1618 0.9818 -0.0997
vn -0.1090 0.9775 -0.1805
vn -0.1567 0.9824 0.1017
vn 0.1002 0.9813 0.1642
vn 0.4726 0.8738 -0.1145
vn -0.4905 0.8641 0.1132
vn 0.2559 0.8458 0.4681
vn -0.0227 0.9997 0.0019
vn -0.0225 0.9997 -0.0015
vn -0.4820 0.8762 -0.0007
vn -0.9964 0.0845 0.0062
vn 0.8106 0.5856 0.0021
vn 0.9988 0.0482 -0.0000
vn -0.7959 0.6052 -0.0133
vn 0.3326 0.9430 -0.0084
vn 0.4586 0.8886 -0.0080
vn -0.0189 0.9998 -0.0026
vn -0.4785 0.8781 -0.0005
vn -0.9963 0.0864 -0.0013
vn 0.9986 0.0523 0.0007
vn 0.3316 0.9434 -0.0039
vn 0.4585 0.8887 -0.0043
vn -0.0000 0.0192 0.9998
vn -0.0055 0.0458 -0.9989
vn 0.0007 0.9456 0.3254
vn 0.0008 0.8770 0.4805
vn -0.0004 0.9997 0.0238
vn 0.0028 0.9984 0.0572
vn -0.0012 1.0000 -0.0091
vn -0.0005 1.0000 -0.0008
vn -0.0004 1.0000 -0.0042
vn -0.9969 0.0787 -0.0011
vn -0.7977 0.6030 -0.0134
vn 0.3325 0.9431 -0.0084
vn 0.4585 0.8887 -0.0080
vn -0.0011 1.0000 -0.0090
vn -0.0161 0.9999 -0.0030
vn -0.4766 0.8791 -0.0008
vn 0.8108 0.5853 -0.0005
vn 0.9988 0.0486 -0.0002
vt 0.960400 0.594000
vt 0.962500 0.596200
vt 0.946500 0.595800
vt 0.946700 0.593100
vt 0.453600 0.580600
vt 0.449500 0.602600
vt 0.443500 0.601800
vt 0.449200 0.574500
vt 0.970900 0.578300
vt 0.949900 0.577800
vt 0.949900 0.572700
vt 0.974500 0.573000
vt 0.458200 0.869400
vt 0.482200 0.870300
vt 0.481800 0.875200
vt 0.454400 0.874400
vt 0.976700 0.867700
vt 0.980500 0.845600
vt 0.986600 0.846400
vt 0.982000 0.874200
vt 0.483200 0.577500
vt 0.483200 0.584600
vt 0.466100 0.585200
vt 0.459300 0.577500
vt 0.980500 0.603800
vt 0.972600 0.604700
vt 0.969800 0.590100
vt 0.976600 0.581500
vt 0.947900 0.870800
vt 0.948200 0.863500
vt 0.963800 0.863100
vt 0.970600 0.870800
vt 0.448700 0.825400
vt 0.456900 0.824700
vt 0.459800 0.858000
vt 0.452600 0.866200
vt 0.485900 0.593100
vt 0.469600 0.593400
vt 0.963300 0.608100
vt 0.945400 0.854800
vt 0.960200 0.854600
vt 0.466500 0.822700
vt 0.467100 0.851800
vt 0.455800 0.572100
vt 0.974100 0.876200
vt 0.981200 0.575500
vt 0.447600 0.872000
vt 0.460300 0.589300
vt 0.964100 0.585800
vt 0.969700 0.858900
vt 0.465400 0.862200
vt 0.467400 0.595500
vt 0.962400 0.852400
vt 0.469200 0.853900
vt 0.945400 0.852100
vt 0.945800 0.840000
vt 0.963300 0.840500
vt 0.442500 0.825900
vt 0.980900 0.796900
vt 0.987100 0.797300
vt 0.972600 0.844400
vt 0.448600 0.790500
vt 0.456700 0.790800
vt 0.466400 0.791000
vt 0.946000 0.795700
vt 0.963200 0.796200
vt 0.442400 0.790700
vt 0.972800 0.796400
vt 0.986500 0.603000
vt 0.457300 0.603800
vt 0.466500 0.607300
vt 0.485900 0.595800
vt 0.483300 0.571900
vt 0.947400 0.876400
vt 0.949700 0.584700
vt 0.482500 0.863500
vt 0.485500 0.854900
vt 0.485600 0.822600
vt 0.485600 0.852200
vt 0.485600 0.791000
vt 0.946400 0.608200
vt 0.485600 0.607900
vt 0.442500 0.764500
vt 0.448700 0.764100
vt 0.456900 0.764600
vt 0.466500 0.765500
vt 0.485600 0.766100
vt 0.946000 0.771900
vt 0.963200 0.773100
vt 0.972700 0.772700
vt 0.980800 0.771600
vt 0.987000 0.771200
s 1
f 1/1/1 2/2/2 3/3/3
f 3/3/3 4/4/4 1/1/1
f 5/5/5 6/6/6 7/7/7
f 7/7/7 8/8/8 5/5/5
f 9/9/9 10/10/10 11/11/11
f 11/11/11 12/12/12 9/9/9
f 13/13/13 14/14/14 15/15/15
f 15/15/15 16/16/16 13/13/13
f 17/17/17 18/18/18 19/19/19
f 19/19/19 20/20/20 17/17/17
f 23/21/21 24/22/22 25/23/23
f 25/23/23 26/24/24 23/21/21
f 27/25/18 28/26/25 29/27/26
f 29/27/26 30/28/27 27/25/18
f 31/29/28 32/30/29 33/31/30
f 33/31/30 34/32/31 31/29/28
f 35/33/32 36/34/33 37/35/34
f 37/35/34 38/36/35 35/33/32
f 25/23/23 24/22/22 39/37/4
f 39/37/4 40/38/36 25/23/23
f 28/26/25 41/39/37 2/2/2
f 2/2/2 29/27/26 28/26/25
f 33/31/30 32/30/29 42/40/38
f 42/40/38 43/41/39 33/31/30
f 36/34/33 44/42/40 45/43/41
f 45/43/41 37/35/34 36/34/33
f 26/24/24 5/5/5 8/8/8
f 8/8/8 46/44/42 26/24/24
f 34/32/31 17/17/17 20/20/20
f 20/20/20 47/45/43 34/32/31
f 12/12/12 48/46/44 30/28/27
f 30/28/27 9/9/9 12/12/12
f 16/16/16 22/47/45 38/36/35
f 38/36/35 13/13/13 16/16/16
f 5/5/5 26/24/24 25/23/23
f 25/23/23 49/48/46 5/5/5
f 9/9/9 30/28/27 29/27/26
f 29/27/26 50/49/47 9/9/9
f 17/17/17 34/32/31 33/31/30
f 33/31/30 51/50/48 17/17/17
f 13/13/13 38/36/35 37/35/34
f 37/35/34 52/51/49 13/13/13
f 49/48/46 25/23/23 40/38/36
f 40/38/36 53/52/50 49/48/46
f 50/49/47 29/27/26 2/2/2
f 2/2/2 1/1/1 50/49/47
f 51/50/48 33/31/30 43/41/39
f 43/41/39 54/53/51 51/50/48
f 52/51/49 37/35/34 45/43/41
f 45/43/41 55/54/52 52/51/49
f 54/53/51 56/55/53 57/56/54
f 57/56/54 58/57/55 54/53/51
f 38/36/35 22/47/45 21/58/56
f 21/58/56 35/33/32 38/36/35
f 59/59/57 60/60/58 19/19/19
f 19/19/19 18/18/18 59/59/57
f 18/18/18 17/17/17 51/50/48
f 51/50/48 61/61/25 18/18/18
f 62/62/59 63/63/60 36/34/33
f 36/34/33 35/33/32 62/62/59
f 51/50/48 54/53/51 58/57/55
f 58/57/55 61/61/25 51/50/48
f 36/34/33 63/63/60 64/64/61
f 64/64/61 44/42/40 36/34/33
f 58/57/55 57/56/54 65/65/62
f 65/65/62 66/66/63 58/57/55
f 35/33/32 21/58/56 67/67/64
f 67/67/64 62/62/59 35/33/32
f 18/18/18 61/61/25 68/68/25
f 68/68/25 59/59/57 18/18/18
f 68/68/25 61/61/25 58/57/55
f 58/57/55 66/66/63 68/68/25
f 30/28/27 48/46/44 69/69/65
f 69/69/65 27/25/18 30/28/27
f 6/6/6 5/5/5 49/48/46
f 49/48/46 70/70/66 6/6/6
f 49/48/46 53/52/50 71/71/67
f 71/71/67 70/70/66 49/48/46
f 40/38/36 39/37/4 73/72/3
f 73/72/3 53/52/50 40/38/36
f 26/24/24 46/44/42 74/73/68
f 74/73/68 23/21/21 26/24/24
f 31/29/28 72/74/69 15/15/15
f 15/15/15 14/14/14 31/29/28
f 10/10/10 75/75/22 24/22/22
f 24/22/22 23/21/21 10/10/10
f 14/14/14 13/13/13 52/51/49
f 52/51/49 76/76/70 14/14/14
f 75/75/22 4/4/4 39/37/4
f 39/37/4 24/22/22 75/75/22
f 52/51/49 55/54/52 77/77/71
f 77/77/71 76/76/70 52/51/49
f 44/42/40 78/78/72 79/79/73
f 79/79/73 45/43/41 44/42/40
f 44/42/40 64/64/61 80/80/74
f 80/80/74 78/78/72 44/42/40
f 39/37/4 4/4/4 3/3/3
f 3/3/3 73/72/3 39/37/4
f 23/21/21 74/73/68 11/11/11
f 11/11/11 10/10/10 23/21/21
f 14/14/14 76/76/70 32/30/29
f 32/30/29 31/29/28 14/14/14
f 76/76/70 77/77/71 42/40/38
f 42/40/38 32/30/29 76/76/70
f 78/78/72 57/56/54 56/55/53
f 56/55/53 79/79/73 78/78/72
f 78/78/72 80/80/74 65/65/62
f 65/65/62 57/56/54 78/78/72
f 34/32/31 47/45/43 72/74/69
f 72/74/69 31/29/28 34/32/31
f 10/10/10 9/9/9 50/49/47
f 50/49/47 75/75/22 10/10/10
f 50/49/47 1/1/1 4/4/4
f 4/4/4 75/75/22 50/49/47
f 41/39/37 81/81/75 3/3/3
f 3/3/3 2/2/2 41/39/37
f 81/81/75 82/82/76 73/72/3
f 73/72/3 3/3/3 81/81/75
f 82/82/76 71/71/67 53/52/50
f 53/52/50 73/72/3 82/82/76
f 43/41/39 42/40/38 56/55/53
f 56/55/53 54/53/51 43/41/39
f 42/40/38 77/77/71 79/79/73
f 79/79/73 56/55/53 42/40/38
f 79/79/73 77/77/71 55/54/52
f 55/54/52 45/43/41 79/79/73
f 83/83/77 84/84/78 62/62/59
f 62/62/59 67/67/64 83/83/77
f 6/6/6 70/70/66 85/85/79
f 85/85/79 84/84/78 6/6/6
f 85/85/79 70/70/66 71/71/67
f 71/71/67 86/86/80 85/85/79
f 71/71/67 82/82/76 87/87/81
f 87/87/81 86/86/80 71/71/67
f 82/82/76 81/81/75 88/88/82
f 88/88/82 87/87/81 82/82/76
f 81/81/75 41/39/37 89/89/83
f 89/89/83 88/88/82 81/81/75
f 41/39/37 28/26/25 90/90/25
f 90/90/25 89/89/83 41/39/37
f 28/26/25 27/25/18 91/91/84
f 91/91/84 90/90/25 28/26/25
f 27/25/18 69/69/65 92/92/85
f 92/92/85 91/91/84 27/25/18
f 60/60/58 59/59/57 91/91/84
f 91/91/84 92/92/85 60/60/58
f 59/59/57 68/68/25 90/90/25
f 90/90/25 91/91/84 59/59/57
f 68/68/25 66/66/63 89/89/83
f 89/89/83 90/90/25 68/68/25
f 66/66/63 65/65/62 88/88/82
f 88/88/82 89/89/83 66/66/63
f 65/65/62 80/80/74 87/87/81
f 87/87/81 88/88/82 65/65/62
f 80/80/74 64/64/61 86/86/80
f 86/86/80 87/87/81 80/80/74
f 86/86/80 64/64/61 63/63/60
f 63/63/60 85/85/79 86/86/80
f 63/63/60 62/62/59 84/84/78
f 84/84/78 85/85/79 63/63/60
f 7/7/7 6/6/6 84/84/78
f 84/84/78 83/83/77 7/7/7
