# Blender v3.2.0 OBJ File: ''
# www.blender.org
mtllib shutter_nowindows.mtl
o shutter_windows
v 0.320579 0.232066 0.105862
v 0.950944 0.232066 0.105862
v 0.950944 1.665441 0.105862
v 0.320579 1.665441 0.105862
v -0.998824 0.232066 0.105862
v -0.368458 0.232066 0.105862
v -0.368458 1.665441 0.105862
v -0.998824 1.665441 0.105862
vt 0.275878 0.805956
vt 0.070177 0.803175
vt 0.075890 0.380604
vt 0.281591 0.383386
vt 0.509374 0.805167
vt 0.303674 0.802385
vt 0.309388 0.379815
vt 0.515089 0.382596
vn 0.0000 -0.0000 1.0000
usemtl Default_OBJ
s 1
f 1/1/1 2/2/1 3/3/1
f 3/3/1 4/4/1 1/1/1
f 5/5/1 6/6/1 7/7/1
f 7/7/1 8/8/1 5/5/1
