# Blender 4.3.2
# www.blender.org
o slope_arch
v -3.231237 6.741285 1.406012
v -2.520874 7.580341 1.405166
v -1.013384 8.029936 1.404712
v 0.813672 8.029936 1.404712
v 2.324621 7.580401 1.405166
v 3.044534 6.741597 1.406011
v -6.717168 10.750978 1.395868
v -0.097914 10.985081 1.392688
v -3.217733 6.570049 -1.332159
v -2.504243 7.404199 -1.332159
v -1.006324 7.854434 -1.332159
v 0.806505 7.854434 -1.332159
v 2.306981 7.403288 -1.332159
v 3.029065 6.564586 -1.332159
v -6.717169 10.674482 -1.269197
v -0.097914 10.939362 -1.332159
v 6.706220 10.674164 -1.269197
v 6.742803 10.946077 -0.805066
v -6.756069 10.946041 -0.805066
v -0.097914 11.281893 -0.805067
v 3.119326 10.938833 -1.332159
v -6.546347 11.280489 -0.805066
v 6.539940 10.957029 1.395177
v 6.540411 11.281351 -0.805067
v -2.804063 6.983351 1.405186
v -1.771218 7.689682 1.404475
v -0.100040 7.959476 1.404204
v 1.571138 7.689682 1.404475
v 2.603984 6.983352 1.405186
v 2.889455 5.864426 1.406311
v -3.089536 5.721612 -1.089303
v -3.089534 5.864426 1.406311
v -2.804064 6.844389 -1.089303
v -1.771218 7.553151 -1.089303
v -0.100040 7.823874 -1.089303
v 1.571139 7.553151 -1.089303
v 2.603984 6.844389 -1.089303
v 2.889456 5.721611 -1.089303
v 6.615077 -0.000297 1.413113
v 2.889457 -0.000611 1.412370
v 2.889457 -0.003255 -1.089303
v 6.806087 -0.003254 -1.089303
v 6.806086 -0.000610 1.412370
v -6.805683 -0.000611 1.411390
v -6.806085 -0.003254 -1.089303
v -6.606021 -0.003253 -1.413112
v -3.089536 -0.003255 -1.089303
v -3.089534 -0.000611 1.412370
v 3.120149 11.278320 1.065316
v 3.120149 11.281681 -1.089302
v 6.799964 6.805090 -1.089303
v -6.805683 7.023353 1.404227
v 6.806083 7.023353 1.405207
v -6.806087 6.805090 -1.089303
v 6.612042 6.789495 -1.413110
v -6.546340 11.283150 1.070376
v -6.546324 11.280479 -1.089303
v -6.606020 7.046656 1.405941
v -6.606020 -0.000297 1.413113
v -6.606023 6.792409 -1.413110
v 6.615077 -0.003253 -1.413112
v 6.615076 7.046839 1.405941
v -2.974903 7.234710 1.405515
v -3.132217 10.983177 1.392948
v -1.843681 7.852908 1.404891
v -0.100040 8.088943 1.404652
v 1.645074 7.852914 1.404891
v 2.782768 7.234922 1.405515
v -6.544738 10.938419 -1.346732
v -2.958919 7.060247 -1.332159
v -1.830552 7.676772 -1.332159
v -0.100040 7.913655 -1.332159
v 1.631514 7.676772 -1.332159
v 2.764902 7.056605 -1.332159
v -3.018167 6.344675 -1.089302
v -2.403117 7.240599 -1.089303
v -0.979737 7.756194 -1.089303
v 0.779657 7.756194 -1.089303
v 2.203037 7.240599 -1.089303
v 2.818087 6.485352 1.405686
v 6.740594 10.942636 -1.089303
v -0.097914 11.281858 -1.089303
v -6.756069 10.981853 1.180158
v 3.134933 6.025545 1.406728
v 3.123259 5.855097 -1.332159
v -3.315344 6.025338 1.406728
v -3.303841 5.858739 -1.332158
v -3.018166 6.485352 1.405686
v -2.403117 7.378202 1.404789
v -0.979737 7.892028 1.404272
v 0.779657 7.892028 1.404272
v 2.203037 7.378202 1.404789
v 6.758330 10.981709 1.180283
v -0.097914 11.284590 1.060170
v -3.132244 11.282415 1.062871
v 2.818088 6.344675 -1.089303
v -6.756069 10.942617 -1.089303
v 3.153261 -0.000376 1.412927
v 3.142742 -0.003254 -1.332160
v 6.758334 -0.003253 -1.332160
v -3.308434 -0.000376 1.412927
v -6.756069 -0.000375 1.412927
v -6.756070 -0.003253 -1.332160
v -3.295187 -0.003255 -1.332160
v 6.806087 -0.003255 -0.805067
v -6.805683 -0.003255 -0.818599
v -6.806087 6.818779 -0.805067
v 3.120149 11.282166 -0.805067
v -3.132214 10.940285 -1.332159
v -3.132244 11.281174 -1.089303
v 6.753011 6.793393 -1.332159
v -6.756069 7.040960 1.405758
v -6.756071 6.794123 -1.332159
v 6.800695 6.818779 -0.805067
v -3.132244 11.281200 -0.805067
v -6.548859 10.985525 1.395099
v 3.119398 10.976408 1.393213
v 6.539732 10.909033 -1.346730
v 6.540524 11.282597 1.071241
v 6.540394 11.281214 -1.089302
vn 0.1057 0.0011 0.9944
vn 0.0071 0.0489 0.9988
vn -0.0024 0.4237 0.9058
vn 0.0289 0.0010 0.9996
vn 0.0177 0.0578 0.9982
vn -0.0099 0.2127 0.9771
vn 0.0357 -0.0018 0.9994
vn 0.0349 -0.0843 0.9958
vn 0.0495 -0.0201 0.9986
vn 0.0330 -0.0744 0.9967
vn -0.0012 0.3843 0.9232
vn 0.0632 -0.0078 0.9980
vn -0.0642 -0.0674 0.9957
vn 0.2878 0.3604 0.8873
vn 0.0034 -0.0004 -1.0000
vn -0.1766 0.0085 -0.9842
vn 0.0021 0.2683 -0.9633
vn 0.1544 -0.0662 -0.9858
vn 0.1253 -0.1656 -0.9782
vn 0.1916 -0.3874 -0.9018
vn 0.0432 -0.2004 -0.9788
vn 0.0001 0.3035 -0.9528
vn 0.0380 -0.4943 -0.8685
vn -0.0079 -0.1199 -0.9928
vn -0.0000 0.3216 -0.9469
vn -0.0982 -0.3826 -0.9187
vn -0.0539 -0.1329 -0.9897
vn -0.2624 -0.2655 -0.9277
vn 0.5324 -0.3673 0.7626
vn 0.1065 -0.0863 0.9906
vn 0.7105 -0.1650 0.6841
vn 0.3760 -0.5319 0.7588
vn 0.2298 -0.6232 0.7475
vn 0.1084 -0.6591 0.7442
vn -0.0000 -0.6705 0.7419
vn -0.1085 -0.6591 0.7442
vn -0.2298 -0.6231 0.7476
vn -0.3760 -0.5318 0.7589
vn -0.5323 -0.3673 0.7627
vn -0.2283 0.0131 0.9735
vn 0.5798 0.5716 0.5806
vn 0.7667 0.6176 0.1754
vn 0.9613 0.2752 -0.0127
vn 0.4893 0.8721 -0.0042
vn 0.0001 0.9332 0.3594
vn 0.0002 0.9338 0.3578
vn -0.0001 1.0000 -0.0008
vn -0.0003 1.0000 -0.0004
vn -0.4830 0.8756 -0.0028
vn -0.4033 0.8625 0.3059
vn 0.0517 0.5232 0.8507
vn -0.0010 0.0011 1.0000
vn 0.0019 0.0020 1.0000
vn -0.6922 -0.0403 0.7206
vn -0.7081 0.0007 0.7062
vn -0.0011 0.0010 1.0000
vn 0.9340 0.1086 -0.3402
vn 0.9725 0.2286 -0.0436
vn 0.9952 0.0078 -0.0971
vn 0.8127 0.0106 -0.5826
vn 1.0000 0.0072 -0.0029
vn -0.0006 0.0019 1.0000
vn 0.0012 0.0009 1.0000
vn -0.8662 0.0478 0.4974
vn -0.9891 0.1467 -0.0127
vn -0.7194 0.0060 0.6945
vn -0.0165 0.0020 0.9999
vn -0.9818 0.1901 -0.0037
vn -1.0000 0.0060 -0.0003
vn -0.7780 0.0731 -0.6240
vn -0.2322 0.0096 -0.9726
vn -0.8015 0.0085 -0.5979
vn 0.3975 -0.0265 -0.9172
vn 0.9308 -0.0472 -0.3625
vn 0.9373 -0.1978 -0.2869
vn 0.6923 -0.0403 0.7205
vn 0.9388 0.0006 -0.3446
vn 0.7083 0.0007 0.7060
vn 0.4320 0.0006 -0.9019
vn 0.0019 0.0010 1.0000
vn 0.7090 0.0012 0.7052
vn 0.7110 0.0070 0.7032
vn 0.9953 0.0008 -0.0969
vn 0.8109 0.0006 -0.5852
vn 1.0000 0.0008 -0.0000
vn -0.7190 0.0007 0.6950
vn -0.0161 0.0010 0.9999
vn -1.0000 -0.0000 0.0008
vn -0.2330 -0.0000 -0.9725
vn -0.8024 -0.0000 -0.5969
vn 0.0013 0.0010 1.0000
vn 0.7648 -0.5197 -0.3808
vn 0.5444 -0.7799 -0.3090
vn 0.3306 -0.9161 -0.2267
vn 0.1576 -0.9727 -0.1701
vn 0.0023 -0.9883 -0.1525
vn -0.1524 -0.9723 -0.1772
vn -0.3243 -0.9144 -0.2422
vn -0.5326 -0.7774 -0.3346
vn -0.7559 -0.5135 -0.4062
vn -0.6499 -0.2163 -0.7286
vn -0.9343 -0.2749 -0.2268
vn 0.4274 0.8113 -0.3989
vn 0.5887 0.3058 -0.7483
vn 0.0007 0.8891 -0.4577
vn -0.0000 0.8884 -0.4591
vn -0.4228 0.8207 -0.3843
vn -0.9223 -0.0474 -0.3836
vn -0.3796 -0.0253 -0.9248
vn -0.3838 -0.0001 -0.9234
vn -0.9197 -0.0000 -0.3925
vn -0.9476 0.1756 -0.2668
vn -0.9948 0.0060 -0.1016
vn -0.9949 -0.0000 -0.1007
vn 0.0004 1.0000 -0.0001
vn 0.0004 0.9313 0.3642
vn 0.2462 0.0106 -0.9692
vn 0.0004 0.8878 -0.4603
vn -0.0006 0.0010 1.0000
vn 0.2432 0.0002 -0.9700
vt 0.602949 0.539910
vt 0.619946 0.554224
vt 0.595109 0.690283
vt 0.645418 0.565632
vt 0.676674 0.573314
vt 0.710068 0.692238
vt 0.711090 0.576147
vt 0.745569 0.573972
vt 0.776994 0.566883
vt 0.802780 0.555896
vt 0.831954 0.692230
vt 0.820125 0.541803
vt 0.830131 0.521711
vt 0.961402 0.691257
vt 0.413353 0.232156
vt 0.286512 0.067330
vt 0.416025 0.066493
vt 0.422736 0.213314
vt 0.439700 0.200062
vt 0.465083 0.189775
vt 0.496113 0.183185
vt 0.531097 0.066777
vt 0.530233 0.181147
vt 0.564337 0.183792
vt 0.653002 0.068532
vt 0.595364 0.191009
vt 0.620767 0.201781
vt 0.637895 0.215404
vt 0.611586 0.531245
vt 0.593586 0.519783
vt 0.604268 0.511768
vt 0.626245 0.546190
vt 0.649561 0.557985
vt 0.678771 0.565511
vt 0.711167 0.568290
vt 0.743612 0.566132
vt 0.772998 0.559142
vt 0.796502 0.547759
vt 0.811471 0.532902
vt 0.819229 0.513462
vt 0.969532 0.695113
vt 0.961127 0.707102
vt 0.318624 0.986864
vt 0.290813 0.917098
vt 0.304633 0.911767
vt 0.330197 0.977965
vt 0.594987 0.706431
vt 0.709934 0.708690
vt 0.564267 0.887090
vt 0.538832 0.821286
vt 0.645871 0.779901
vt 0.671353 0.845796
vt 0.766305 0.733320
vt 0.791893 0.799477
vt 0.465840 0.705413
vt 0.465781 0.688160
vt 0.833715 0.492732
vt 0.965148 0.533470
vt 0.821856 0.488807
vt 0.823368 0.251701
vt 0.835706 0.249088
vt 0.789132 0.081136
vt 0.795916 0.071082
vt 0.796393 0.227301
vt 0.787604 0.227770
vt 0.806545 0.069990
vt 0.806980 0.226717
vt 0.465900 0.528960
vt 0.590972 0.490878
vt 0.459381 0.679247
vt 0.454183 0.690489
vt 0.452094 0.531486
vt 0.459734 0.529545
vt 0.584782 0.977213
vt 0.561866 0.912903
vt 0.694675 0.862862
vt 0.729281 0.974655
vt 0.279426 0.077672
vt 0.286265 0.224342
vt 0.280673 0.224292
vt 0.410952 0.259271
vt 0.423249 0.264571
vt 0.424570 0.241475
vt 0.259710 0.735390
vt 0.263430 0.881338
vt 0.239700 0.889749
vt 0.235991 0.735135
vt 0.019474 0.732765
vt 0.019423 0.894509
vt 0.423358 0.481044
vt 0.411587 0.481050
vt 0.966643 0.248928
vt 0.978656 0.252641
vt 0.974806 0.536241
vt 0.796479 0.484800
vt 0.787086 0.484790
vt 0.807118 0.484788
vt 0.457395 0.247847
vt 0.464905 0.245268
vt 0.914179 0.780153
vt 0.983242 0.945012
vt 0.286800 0.481330
vt 0.280767 0.481344
vt 0.115323 0.356328
vt 0.231813 0.345135
vt 0.236876 0.486972
vt 0.168697 0.490625
vt 0.602345 0.487192
vt 0.595685 0.247342
vt 0.606649 0.250170
vt 0.110639 0.105982
vt 0.223453 0.110714
vt 0.280272 0.735554
vt 0.283988 0.874553
vt 0.431446 0.223561
vt 0.445783 0.209925
vt 0.301935 0.735543
vt 0.304928 0.869049
vt 0.329190 0.735532
vt 0.330983 0.864714
vt 0.468837 0.199428
vt 0.497910 0.192914
vt 0.360568 0.735523
vt 0.361410 0.861893
vt 0.394162 0.735521
vt 0.394556 0.860954
vt 0.530153 0.190877
vt 0.562378 0.193498
vt 0.355369 0.700471
vt 0.356206 0.574101
vt 0.389357 0.575042
vt 0.388959 0.700474
vt 0.323987 0.700466
vt 0.325784 0.571284
vt 0.591379 0.200599
vt 0.614459 0.211569
vt 0.296734 0.700452
vt 0.299727 0.566946
vt 0.275082 0.700444
vt 0.278776 0.561445
vt 0.628848 0.225410
vt 0.647504 0.234492
vt 0.635957 0.243564
vt 0.254521 0.700613
vt 0.258216 0.554664
vt 0.792379 0.056917
vt 0.803388 0.054898
vt 0.782560 0.071813
vt 0.416166 0.050792
vt 0.416239 0.040099
vt 0.531250 0.040105
vt 0.531180 0.050875
vt 0.286916 0.050935
vt 0.287021 0.040106
vt 0.230803 0.700872
vt 0.234483 0.546258
vt 0.650298 0.261712
vt 0.637538 0.266777
vt 0.649073 0.483420
vt 0.635802 0.483267
vt 0.014287 0.703283
vt 0.009883 0.527391
vt 0.261938 0.066336
vt 0.272561 0.067589
vt 0.271930 0.223787
vt 0.261388 0.223175
vt 0.271772 0.481295
vt 0.261196 0.481262
vt 0.425303 0.865155
vt 0.450798 0.931144
vt 0.831911 0.708665
vt 0.782267 0.227803
vt 0.653096 0.052655
vt 0.653189 0.041908
vt 0.471008 0.244393
vt 0.780577 0.484658
vt 0.780224 0.727918
vt 0.806326 0.798334
vt 0.459432 0.703979
vt 0.276647 0.053425
vt 0.265615 0.051114
vt 0.961364 0.708583
vt 0.782530 0.054666
vt 0.782616 0.043914
s 1
f 63/1/1 2/2/2 64/3/3
f 65/4/4 3/5/5 8/6/6
f 8/6/6 64/3/3 65/4/4
f 66/7/7 4/8/8 8/6/6
f 67/9/9 5/10/10 117/11/11
f 68/12/12 6/13/13 23/14/14
f 23/14/14 117/11/11 68/12/12
f 9/15/15 69/16/16 109/17/17
f 109/17/17 70/18/18 9/15/15
f 10/19/19 109/17/17 71/20/20
f 11/21/21 16/22/22 72/23/23
f 12/24/24 16/22/22 21/25/25
f 21/25/25 73/26/26 12/24/24
f 13/27/27 21/25/25 74/28/28
f 25/29/29 63/1/1 1/30/30
f 1/30/30 88/31/31 25/29/29
f 63/1/1 25/29/29 89/32/32
f 89/32/32 2/2/2 63/1/1
f 26/33/33 65/4/4 2/2/2
f 2/2/2 89/32/32 26/33/33
f 65/4/4 26/33/33 90/34/34
f 90/34/34 3/5/5 65/4/4
f 27/35/35 66/7/7 3/5/5
f 3/5/5 90/34/34 27/35/35
f 66/7/7 27/35/35 91/36/36
f 91/36/36 4/8/8 66/7/7
f 28/37/37 67/9/9 4/8/8
f 4/8/8 91/36/36 28/37/37
f 67/9/9 28/37/37 92/38/38
f 92/38/38 5/10/10 67/9/9
f 29/39/39 68/12/12 5/10/10
f 5/10/10 92/38/38 29/39/39
f 68/12/12 29/39/39 80/40/40
f 80/40/40 6/13/13 68/12/12
f 93/41/41 119/42/42 23/14/14
f 93/43/41 18/44/43 24/45/44
f 24/45/44 119/46/42 93/43/41
f 95/47/45 64/3/3 8/6/6
f 8/6/6 94/48/46 95/47/45
f 94/49/46 20/50/47 115/51/48
f 115/51/48 95/52/45 94/49/46
f 95/52/45 115/51/48 22/53/49
f 22/53/49 56/54/50 95/52/45
f 64/3/3 95/47/45 56/55/50
f 56/55/50 116/56/51 64/3/3
f 23/14/14 6/13/13 84/57/52
f 84/57/52 62/58/53 23/14/14
f 30/59/54 84/57/52 6/13/13
f 6/13/13 80/40/40 30/59/54
f 40/60/55 98/61/56 84/57/52
f 84/57/52 30/59/54 40/60/55
f 17/62/57 81/63/58 51/64/59
f 51/64/59 111/65/60 17/62/57
f 81/63/58 18/66/43 114/67/61
f 114/67/61 51/64/59 81/63/58
f 1/30/30 116/56/51 58/68/62
f 58/68/62 86/69/63 1/30/30
f 7/70/64 83/71/65 52/72/66
f 52/72/66 112/73/67 7/70/64
f 83/74/65 19/75/68 107/76/69
f 107/76/69 52/77/66 83/74/65
f 15/78/70 69/16/16 60/79/71
f 60/79/71 113/80/72 15/78/70
f 69/16/16 9/15/15 87/81/73
f 87/81/73 60/79/71 69/16/16
f 31/82/74 87/81/73 9/15/15
f 9/15/15 75/83/75 31/82/74
f 75/84/75 88/85/31 32/86/76
f 32/86/76 31/87/74 75/84/75
f 47/88/77 31/87/74 32/86/76
f 32/86/76 48/89/78 47/88/77
f 47/90/77 104/91/79 87/81/73
f 87/81/73 31/82/74 47/90/77
f 62/58/53 39/92/80 43/93/81
f 43/93/81 53/94/82 62/58/53
f 62/58/53 84/57/52 98/61/56
f 98/61/56 39/92/80 62/58/53
f 111/65/60 51/64/59 42/95/83
f 42/95/83 100/96/84 111/65/60
f 51/64/59 114/67/61 105/97/85
f 105/97/85 42/95/83 51/64/59
f 112/73/67 52/72/66 44/98/86
f 44/98/86 102/99/87 112/73/67
f 52/77/66 107/76/69 106/100/88
f 106/100/88 44/101/86 52/77/66
f 113/80/72 60/79/71 46/102/89
f 46/102/89 103/103/90 113/80/72
f 60/79/71 87/81/73 104/91/79
f 104/91/79 46/102/89 60/79/71
f 53/104/82 114/105/61 18/106/43
f 18/106/43 93/107/41 53/104/82
f 86/69/63 32/108/76 88/31/31
f 88/31/31 1/30/30 86/69/63
f 101/109/91 48/110/78 32/108/76
f 32/108/76 86/69/63 101/109/91
f 43/111/81 105/112/85 114/105/61
f 114/105/61 53/104/82 43/111/81
f 33/113/92 25/114/29 88/85/31
f 88/85/31 75/84/75 33/113/92
f 70/18/18 33/115/92 75/83/75
f 75/83/75 9/15/15 70/18/18
f 33/115/92 70/18/18 10/19/19
f 10/19/19 76/116/93 33/115/92
f 76/117/93 89/118/32 25/114/29
f 25/114/29 33/113/92 76/117/93
f 34/119/94 26/120/33 89/118/32
f 89/118/32 76/117/93 34/119/94
f 71/20/20 34/121/94 76/116/93
f 76/116/93 10/19/19 71/20/20
f 34/121/94 71/20/20 11/21/21
f 11/21/21 77/122/95 34/121/94
f 77/123/95 90/124/34 26/120/33
f 26/120/33 34/119/94 77/123/95
f 35/125/96 27/126/35 90/124/34
f 90/124/34 77/123/95 35/125/96
f 72/23/23 35/127/96 77/122/95
f 77/122/95 11/21/21 72/23/23
f 35/127/96 72/23/23 12/24/24
f 12/24/24 78/128/97 35/127/96
f 78/129/97 91/130/36 27/131/35
f 27/131/35 35/132/96 78/129/97
f 36/133/98 28/134/37 91/130/36
f 91/130/36 78/129/97 36/133/98
f 73/26/26 36/135/98 78/128/97
f 78/128/97 12/24/24 73/26/26
f 36/135/98 73/26/26 13/27/27
f 13/27/27 79/136/99 36/135/98
f 79/137/99 92/138/38 28/134/37
f 28/134/37 36/133/98 79/137/99
f 37/139/100 29/140/39 92/138/38
f 92/138/38 79/137/99 37/139/100
f 74/28/28 37/141/100 79/136/99
f 79/136/99 13/27/27 74/28/28
f 37/141/100 74/28/28 14/142/101
f 14/142/101 96/143/102 37/141/100
f 96/144/102 80/145/40 29/140/39
f 29/140/39 37/139/100 96/144/102
f 120/146/103 24/147/44 18/66/43
f 18/66/43 81/63/58 120/146/103
f 118/148/104 120/146/103 81/63/58
f 81/63/58 17/62/57 118/148/104
f 110/149/105 115/150/48 20/151/47
f 20/151/47 82/152/106 110/149/105
f 109/17/17 110/149/105 82/152/106
f 82/152/106 16/22/22 109/17/17
f 110/149/105 109/17/17 69/16/16
f 69/16/16 57/153/107 110/149/105
f 115/150/48 110/149/105 57/153/107
f 57/153/107 22/154/49 115/150/48
f 38/155/108 30/156/54 80/145/40
f 80/145/40 96/144/102 38/155/108
f 85/157/109 38/158/108 96/143/102
f 96/143/102 14/142/101 85/157/109
f 99/159/110 41/160/111 38/158/108
f 38/158/108 85/157/109 99/159/110
f 41/161/111 40/162/55 30/156/54
f 30/156/54 38/155/108 41/161/111
f 19/163/68 97/164/112 54/165/113
f 54/165/113 107/166/69 19/163/68
f 97/164/112 15/78/70 113/80/72
f 113/80/72 54/165/113 97/164/112
f 107/166/69 54/165/113 45/167/114
f 45/167/114 106/168/88 107/166/69
f 54/165/113 113/80/72 103/103/90
f 103/103/90 45/167/114 54/165/113
f 108/169/115 20/50/47 94/49/46
f 94/49/46 49/170/116 108/169/115
f 49/171/116 94/48/46 8/6/6
f 8/6/6 117/11/11 49/171/116
f 118/148/104 55/172/117 85/157/109
f 85/157/109 14/142/101 118/148/104
f 82/152/106 50/173/118 21/25/25
f 21/25/25 16/22/22 82/152/106
f 50/173/118 82/152/106 20/151/47
f 20/151/47 108/174/115 50/173/118
f 58/68/62 59/175/119 101/109/91
f 101/109/91 86/69/63 58/68/62
f 1/30/30 63/1/1 64/3/3
f 64/3/3 116/56/51 1/30/30
f 64/3/3 2/2/2 65/4/4
f 8/6/6 3/5/5 66/7/7
f 4/8/8 67/9/9 117/11/11
f 117/11/11 8/6/6 4/8/8
f 5/10/10 68/12/12 117/11/11
f 109/17/17 10/19/19 70/18/18
f 11/21/21 71/20/20 109/17/17
f 109/17/17 16/22/22 11/21/21
f 16/22/22 12/24/24 72/23/23
f 21/25/25 13/27/27 73/26/26
f 14/142/101 74/28/28 21/25/25
f 21/25/25 118/148/104 14/142/101
f 111/65/60 100/96/84 61/176/120
f 61/176/120 55/172/117 111/65/60
f 85/157/109 55/172/117 61/176/120
f 61/176/120 99/159/110 85/157/109
f 22/53/49 19/177/68 83/178/65
f 83/178/65 56/54/50 22/53/49
f 56/179/50 83/71/65 7/70/64
f 7/70/64 116/56/51 56/179/50
f 97/164/112 57/180/107 69/16/16
f 69/16/16 15/78/70 97/164/112
f 57/180/107 97/164/112 19/163/68
f 19/163/68 22/181/49 57/180/107
f 59/175/119 58/68/62 112/73/67
f 112/73/67 102/99/87 59/175/119
f 116/56/51 7/70/64 112/73/67
f 112/73/67 58/68/62 116/56/51
f 24/45/44 108/169/115 49/170/116
f 49/170/116 119/46/42 24/45/44
f 119/182/42 49/171/116 117/11/11
f 117/11/11 23/14/14 119/182/42
f 50/173/118 120/183/103 118/148/104
f 118/148/104 21/25/25 50/173/118
f 120/183/103 50/173/118 108/174/115
f 108/174/115 24/184/44 120/183/103
f 118/148/104 17/62/57 111/65/60
f 111/65/60 55/172/117 118/148/104
f 23/14/14 62/58/53 53/94/82
f 53/94/82 93/41/41 23/14/14
