# Exported from Wings 3D 2.2.9
mtllib crate_open.mtl
o polySurface27487
#80 vertices, 80 faces
v -0.61047930 -0.66871013 0.61139452
v 0.61402270 -0.66871013 0.61139352
v -0.61047930 -0.66871013 -0.60862148
v 0.61402270 -0.66871013 -0.60862248
v -0.69022230 -0.76995913 0.69153852
v -0.69022230 -0.76995913 -0.68805948
v -0.77759330 -0.76995913 0.77864552
v -0.77759330 -0.76995913 -0.77516748
v -0.83203730 -0.69681013 0.83292152
v -0.83203730 -0.69681013 -0.82944348
v -0.77579330 -0.55156813 0.77684952
v -0.77579330 -0.55156813 -0.77337148
v -0.72846030 -0.55156813 0.72965752
v -0.72846030 -0.55156813 -0.72617848
v 0.69371970 -0.76995913 -0.68806148
v 0.69371970 -0.76995913 0.69153652
v 0.78110670 -0.76995913 -0.77516948
v 0.78110670 -0.76995913 0.77864352
v 0.83555070 -0.69681013 -0.82944348
v 0.83555070 -0.69681013 0.83292152
v 0.77930670 -0.55156813 -0.77336948
v 0.77930670 -0.55156813 0.77685052
v 0.73197370 -0.55156813 -0.72617448
v 0.73197370 -0.55156813 0.72966252
v -0.58615730 -0.55291313 0.73512152
v 0.58809870 -0.55324513 0.73516152
v -0.58615730 0.55591387 0.73512152
v 0.58809870 0.55584187 0.73516152
v 0.73525370 -0.55324613 0.58597452
v 0.76012570 -0.55212613 0.60757552
v 0.76012570 -0.55212613 0.75940252
v 0.60582870 -0.55212613 0.75940252
v 0.73525370 0.55584087 0.58597452
v 0.76012570 0.55576887 0.60757552
v 0.76012570 0.55576887 0.75940252
v 0.60582870 0.55576887 0.75940252
v -0.60869430 -0.55146213 0.75932652
v -0.76051930 -0.55146213 0.75932652
v -0.76051930 -0.55146213 0.60502952
v -0.73642530 -0.55291413 0.58708552
v -0.60869430 0.55591387 0.75932652
v -0.76051930 0.55591387 0.75932652
v -0.76051930 0.55591387 0.60502952
v -0.73642530 0.55591387 0.58708552
v -0.73642530 0.55591387 -0.58640648
v -0.76051930 0.55591387 -0.60796848
v -0.76051930 0.55591387 -0.75979448
v -0.60622230 0.55591387 -0.75979448
v -0.58829330 0.55591387 -0.73569748
v -0.73642530 -0.55484013 -0.58640548
v -0.76051930 -0.55531513 -0.60796648
v -0.76051930 -0.55531513 -0.75979448
v -0.60622230 -0.55531513 -0.75979448
v -0.58829330 -0.55484013 -0.73569748
v 0.58519970 0.55591387 -0.73569748
v 0.60677470 0.55591387 -0.75979848
v 0.75859970 0.55591387 -0.75979848
v 0.75859970 0.55591387 -0.60550148
v 0.73449170 0.55591387 -0.58755748
v 0.58519970 -0.55757513 -0.73569748
v 0.60677470 -0.56078513 -0.75979848
v 0.75859970 -0.56078513 -0.75979848
v 0.75859970 -0.56078513 -0.60550148
v 0.73449170 -0.55757513 -0.58755748
v -0.61611787 0.55590790 0.58699470
v -0.59122589 0.55590787 0.61087388
v 0.61494626 0.55584684 0.58606534
v 0.59055910 0.55584704 0.60999589
v -0.61619254 0.55591387 -0.58650056
v -0.59163723 0.55591387 -0.61042787
v 0.58951277 0.55591387 -0.61134742
v 0.61425894 0.55591387 -0.58746340
v -0.61621780 -0.58219236 -0.58653088
v -0.61614312 -0.58219833 0.58696438
v -0.59125115 -0.58219836 0.61084356
v 0.59053385 -0.58225920 0.60996558
v 0.61492100 -0.58225940 0.58603503
v 0.61423368 -0.58219236 -0.58749371
v 0.58948751 -0.58219236 -0.61137773
v -0.59166248 -0.58219236 -0.61045819
vt 0.0000000e+0 0.87573000
vt 0.0000000e+0 0.88746600
vt 0.0000000e+0 0.94058700
vt 0.0000000e+0 0.98502300
vt 0.0000000e+0 0.99699300
vt 1.0678158e-2 0.92812712
vt 1.0678216e-2 0.94891845
vt 4.1808821e-2 0.21970467
vt 4.1808825e-2 0.39065557
vt 5.0033175e-2 0.10669059
vt 5.0043393e-2 8.9294460e-2
vt 5.1739105e-2 0.17059794
vt 5.2000006e-2 0.14913758
vt 5.2009378e-2 0.11392402
vt 5.2048003e-2 8.7799820e-2
vt 5.2057375e-2 5.2586254e-2
vt 5.2629176e-2 2.5908472e-2
vt 5.6971000e-2 0.77769000
vt 5.6971000e-2 0.80843500
vt 5.6971000e-2 0.82615100
vt 6.5205000e-2 0.76494100
vt 7.3838000e-2 0.84355000
vt 8.9222000e-2 0.86864400
vt 0.12345146 0.88739386
vt 0.12345146 0.98003542
vt 0.13791775 0.99080919
vt 0.14934482 0.99542004
vt 0.14934489 0.97469001
vt 0.15367784 0.88285560
vt 0.15367853 0.90352121
vt 0.16406947 0.16855293
vt 0.16407261 2.6759601e-2
vt 0.17606300 0.87573000
vt 0.17606300 0.88746600
vt 0.17606300 0.94058700
vt 0.17606300 0.98502300
vt 0.17606300 0.99699300
vt 0.21015161 0.99086372
vt 0.21460880 0.88739386
vt 0.22509702 0.97652640
vt 0.22572754 0.21970059
vt 0.22572754 0.39065148
vt 0.22814025 0.90192680
vt 0.22944200 0.87573000
vt 0.22944200 0.88746600
vt 0.22944200 0.94058700
vt 0.22944200 0.98502300
vt 0.22944200 0.99699400
vt 0.28396667 0.94968659
vt 0.28396749 0.92909208
vt 0.29235229 0.97858757
vt 0.29494190 0.90392647
vt 0.30530615 0.99305806
vt 0.30979976 0.88958625
vt 0.31130464 0.16856051
vt 0.31130779 2.6767183e-2
vt 0.32314000 0.86864400
vt 0.33772300 0.84355000
vt 0.34427400 0.76494100
vt 0.35391800 0.77769000
vt 0.35391800 0.80843500
vt 0.35391800 0.82615100
vt 0.36258300 0.76494100
vt 0.37076400 0.84355000
vt 0.38198879 0.88964274
vt 0.38608700 0.86864400
vt 0.39646349 0.90041651
vt 0.39646349 0.99305806
vt 0.41293000 0.87573000
vt 0.41293000 0.88746600
vt 0.41293000 0.94058700
vt 0.41293000 0.98502300
vt 0.41293000 0.99699300
vt 0.42831374 0.21277099
vt 0.42832208 0.35884739
vt 0.43965776 0.16117331
vt 0.43966129 2.8453590e-2
vt 0.48319513 0.90060570
vt 0.48467224 0.97575648
vt 0.49384045 0.88605111
vt 0.49931452 0.99012466
vt 0.56998086 0.21276722
vt 0.56998920 0.35884362
vt 0.57154838 0.99017934
vt 0.57650435 0.16117401
vt 0.57650789 2.8454286e-2
vt 0.58648186 0.97720986
vt 0.58648201 0.88605132
vt 0.58813600 0.87573000
vt 0.58813600 0.88746600
vt 0.58813600 0.94058700
vt 0.58813600 0.98502300
vt 0.58813600 0.99699300
vt 0.62367500 0.86864400
vt 0.63880900 0.84355000
vt 0.64456500 0.87573000
vt 0.64456500 0.88746600
vt 0.64456500 0.94058700
vt 0.64456500 0.98502300
vt 0.64456500 0.99699300
vt 0.64645900 0.76494100
vt 0.65040651 0.17059794
vt 0.65067794 0.11396211
vt 0.65068731 0.14952632
vt 0.65072427 5.2586254e-2
vt 0.65073364 8.8150465e-2
vt 0.65168583 2.5888065e-2
vt 0.65260686 0.10715970
vt 0.65294103 8.9742373e-2
vt 0.65544300 0.77769000
vt 0.65544300 0.80843500
vt 0.65544300 0.82615100
vt 0.66160183 0.89715290
vt 0.66160183 0.98831085
vt 0.66443700 0.76494100
vt 0.67130400 0.84355000
vt 0.67606812 0.88420685
vt 0.68572000 0.86864400
vt 0.69667734 0.92814821
vt 0.69667740 0.94893955
vt 0.69742400 9.5380000e-3
vt 0.69742400 0.27234500
vt 0.69742400 0.29184500
vt 0.70135942 0.28418264
vt 0.70363310 2.0162012e-2
vt 0.70672179 0.28940787
vt 0.70906899 1.4947294e-2
vt 0.74825715 0.88426334
vt 0.75424339 0.98831085
vt 0.76300042 0.89862955
vt 0.76500815 0.97384275
vt 0.83534400 0.99539888
vt 0.83534407 0.97466885
vt 0.83967702 0.88283434
vt 0.83967772 0.90349996
vt 0.91346400 0.86864400
vt 0.92819300 0.84355000
vt 0.93600300 0.76494100
vt 0.94383800 0.80843500
vt 0.94436900 0.82615100
vt 0.94480400 0.77769000
vt 0.96996585 0.94970792
vt 0.96996667 0.92911341
vt 0.98593317 0.28853927
vt 0.98751845 1.4360921e-2
vt 0.99133722 0.28332350
vt 0.99284410 1.9586856e-2
vt 0.99580600 9.5380000e-3
vt 0.99580600 0.27234500
vt 0.99580600 0.29184500
vt 1.00000000 0.87573000
vt 1.00000000 0.88746600
vt 1.00000000 0.94058700
vt 1.00000000 0.98502300
vt 1.00000000 0.99699300
vn 0.0000000e+0 1.00000000 0.0000000e+0
vn 0.0000000e+0 1.00000000 0.0000000e+0
vn 0.78560081 -0.61873367 0.0000000e+0
vn 0.0000000e+0 -1.00000000 0.0000000e+0
vn -9.0179152e-7 -0.62064601 -0.78409089
vn -0.78577431 -0.61851332 0.0000000e+0
vn 0.0000000e+0 -1.00000000 0.0000000e+0
vn -9.0179152e-7 -0.62064601 -0.78409089
vn 0.78560081 -0.61873367 0.0000000e+0
vn 0.0000000e+0 -1.00000000 0.0000000e+0
vn 9.0484929e-7 -0.61727232 0.78674957
vn -0.78577431 -0.61851332 0.0000000e+0
vn 0.0000000e+0 -1.00000000 0.0000000e+0
vn 9.0484929e-7 -0.61727232 0.78674957
vn 0.78560081 -0.61873367 0.0000000e+0
vn 0.0000000e+0 -1.00000000 0.0000000e+0
vn -9.0179152e-7 -0.62064601 -0.78409089
vn -0.0000000e+0 -1.00000000 0.0000000e+0
vn 0.78560081 -0.61873367 0.0000000e+0
vn 0.0000000e+0 -1.00000000 0.0000000e+0
vn 9.0484929e-7 -0.61727232 0.78674957
vn -0.0000000e+0 -1.00000000 0.0000000e+0
vn 4.9782965e-7 -0.59588347 0.80307091
vn 0.0000000e+0 -1.00000000 0.0000000e+0
vn -0.80219364 -0.59706395 0.0000000e+0
vn -0.0000000e+0 -1.00000000 0.0000000e+0
vn 0.0000000e+0 -1.00000000 0.0000000e+0
vn -4.9783616e-7 -0.59586931 -0.80308142
vn -0.80219364 -0.59706395 0.0000000e+0
vn -0.0000000e+0 -1.00000000 0.0000000e+0
vn 4.9782965e-7 -0.59588347 0.80307091
vn -0.93252207 0.36111298 0.0000000e+0
vn -0.80219364 -0.59706395 0.0000000e+0
vn -2.8947719e-7 0.36014930 0.93289468
vn 5.7895238e-7 0.36015768 -0.93289144
vn -0.93252207 0.36111298 0.0000000e+0
vn -4.9783616e-7 -0.59586931 -0.80308142
vn -0.80219364 -0.59706395 0.0000000e+0
vn 0.0000000e+0 1.00000000 0.0000000e+0
vn -0.93252207 0.36111298 0.0000000e+0
vn -2.8947719e-7 0.36014930 0.93289468
vn 0.0000000e+0 1.00000000 0.0000000e+0
vn 0.0000000e+0 1.00000000 0.0000000e+0
vn 5.7895238e-7 0.36015768 -0.93289144
vn -0.93252207 0.36111298 0.0000000e+0
vn 0.0000000e+0 1.00000000 0.0000000e+0
vn 0.0000000e+0 1.00000000 0.0000000e+0
vn 0.0000000e+0 1.00000000 0.0000000e+0
vn 0.0000000e+0 1.00000000 0.0000000e+0
vn 0.0000000e+0 1.00000000 0.0000000e+0
vn -0.78577431 -0.61851332 0.0000000e+0
vn 9.0484929e-7 -0.61727232 0.78674957
vn -0.0000000e+0 -1.00000000 0.0000000e+0
vn -0.0000000e+0 -1.00000000 0.0000000e+0
vn -0.78577431 -0.61851332 0.0000000e+0
vn -9.0179152e-7 -0.62064601 -0.78409089
vn -0.0000000e+0 -1.00000000 0.0000000e+0
vn -0.0000000e+0 -1.00000000 0.0000000e+0
vn -4.9783616e-7 -0.59586931 -0.80308142
vn 0.80219364 -0.59706395 0.0000000e+0
vn -0.0000000e+0 -1.00000000 0.0000000e+0
vn -0.0000000e+0 -1.00000000 0.0000000e+0
vn 4.9782965e-7 -0.59588347 0.80307091
vn 0.80219364 -0.59706395 0.0000000e+0
vn -0.0000000e+0 -1.00000000 0.0000000e+0
vn -0.0000000e+0 -1.00000000 0.0000000e+0
vn 5.7895238e-7 0.36015768 -0.93289144
vn -4.9783616e-7 -0.59586931 -0.80308142
vn 0.93252207 0.36111298 0.0000000e+0
vn 0.80219364 -0.59706395 0.0000000e+0
vn 4.9782965e-7 -0.59588347 0.80307091
vn 0.93252207 0.36111298 0.0000000e+0
vn -2.8947719e-7 0.36014930 0.93289468
vn 0.80219364 -0.59706395 0.0000000e+0
vn 5.7895238e-7 0.36015768 -0.93289144
vn 0.93252207 0.36111298 0.0000000e+0
vn 0.0000000e+0 1.00000000 0.0000000e+0
vn 0.0000000e+0 1.00000000 0.0000000e+0
vn 0.93252207 0.36111298 0.0000000e+0
vn -2.8947719e-7 0.36014930 0.93289468
vn 0.0000000e+0 1.00000000 0.0000000e+0
vn 0.0000000e+0 1.00000000 0.0000000e+0
vn -3.4064122e-5 0.0000000e+0 1.00000000
vn 0.73187421 0.0000000e+0 0.68143975
vn -8.6320057e-3 -0.99991900 9.3526952e-3
vn -8.6320057e-3 -0.99991900 9.3526952e-3
vn -8.6320057e-3 -0.99991900 9.3526952e-3
vn -8.6320057e-3 -0.99991900 9.3526952e-3
vn -3.4064122e-5 0.0000000e+0 1.00000000
vn -0.80714642 0.0000000e+0 0.59035130
vn 3.1676702e-3 -0.99998982 3.2129078e-3
vn 3.1676702e-3 -0.99998982 3.2129078e-3
vn -3.4064122e-5 0.0000000e+0 1.00000000
vn 0.73187421 0.0000000e+0 0.68143975
vn 5.6377082e-5 1.00000000 -3.9173623e-6
vn 3.5680446e-5 1.00000000 -3.6218415e-5
vn -3.4064122e-5 0.0000000e+0 1.00000000
vn 5.6377082e-5 1.00000000 -3.9173623e-6
vn -0.80714642 0.0000000e+0 0.59035130
vn 4.1933973e-4 0.99999983 4.1582394e-4
vn 4.1933973e-4 0.99999983 4.1582394e-4
vn 0.99999979 0.0000000e+0 -6.4932174e-4
vn 0.65571489 0.0000000e+0 -0.75500860
vn -1.2998004e-3 -0.99999659 2.2672364e-3
vn -1.2998004e-3 -0.99999659 2.2672364e-3
vn -1.2998004e-3 -0.99999659 2.2672364e-3
vn 1.00000000 0.0000000e+0 0.0000000e+0
vn 0.65571489 0.0000000e+0 -0.75500860
vn 3.1676702e-3 -0.99998982 3.2129078e-3
vn 3.1676702e-3 -0.99998982 3.2129078e-3
vn 1.00000000 0.0000000e+0 0.0000000e+0
vn 0.0000000e+0 0.0000000e+0 1.00000000
vn 5.6897677e-3 -0.99996710 5.7823318e-3
vn 0.0000000e+0 0.0000000e+0 1.00000000
vn -0.80714642 0.0000000e+0 0.59035130
vn 5.6897677e-3 -0.99996710 5.7823318e-3
vn 0.99999979 0.0000000e+0 -6.4932174e-4
vn 0.65571489 0.0000000e+0 -0.75500860
vn 2.4864986e-5 1.00000000 5.9646502e-5
vn 2.5856987e-4 0.99999994 2.4832965e-4
vn 2.5856987e-4 0.99999994 2.4832965e-4
vn 1.00000000 0.0000000e+0 0.0000000e+0
vn 0.65571489 0.0000000e+0 -0.75500860
vn 4.1933973e-4 0.99999983 4.1582394e-4
vn 4.1933973e-4 0.99999983 4.1582394e-4
vn 1.00000000 0.0000000e+0 0.0000000e+0
vn 0.0000000e+0 0.0000000e+0 1.00000000
vn 3.7119451e-4 0.99999986 3.7723329e-4
vn 0.0000000e+0 0.0000000e+0 1.00000000
vn -0.80714642 0.0000000e+0 0.59035130
vn 3.7119451e-4 0.99999986 3.7723329e-4
vn 0.0000000e+0 0.0000000e+0 1.00000000
vn 0.73187421 0.0000000e+0 0.68143975
vn -1.6341685e-2 -0.99973310 1.6330365e-2
vn -1.6341685e-2 -0.99973310 1.6330365e-2
vn 0.0000000e+0 0.0000000e+0 1.00000000
vn -1.00000000 -0.0000000e+0 0.0000000e+0
vn 0.0000000e+0 -1.00000000 0.0000000e+0
vn -0.59730168 0.0000000e+0 -0.80201665
vn -1.00000000 -0.0000000e+0 0.0000000e+0
vn -1.6341685e-2 -0.99973310 1.6330365e-2
vn -1.6341685e-2 -0.99973310 1.6330365e-2
vn -1.00000000 0.0000000e+0 0.0000000e+0
vn -0.59730168 0.0000000e+0 -0.80201665
vn -1.7146566e-2 -0.99970588 1.7150766e-2
vn -1.7146566e-2 -0.99970588 1.7150766e-2
vn 0.0000000e+0 0.0000000e+0 1.00000000
vn 0.73187421 0.0000000e+0 0.68143975
vn 1.7840223e-5 1.00000000 -1.8109208e-5
vn 1.7840223e-5 1.00000000 -1.8109208e-5
vn 0.0000000e+0 0.0000000e+0 1.00000000
vn -1.00000000 -0.0000000e+0 0.0000000e+0
vn 0.0000000e+0 1.00000000 -0.0000000e+0
vn -0.59730168 0.0000000e+0 -0.80201665
vn -1.00000000 -0.0000000e+0 0.0000000e+0
vn 0.0000000e+0 1.00000000 -0.0000000e+0
vn -1.00000000 0.0000000e+0 0.0000000e+0
vn -0.59730168 0.0000000e+0 -0.80201665
vn 2.7521584e-5 1.00000000 -2.1026765e-5
vn 2.7521584e-5 1.00000000 -2.1026765e-5
vn 2.7521584e-5 1.00000000 -2.1026765e-5
vn 2.7521584e-5 1.00000000 -2.1026765e-5
vn -1.00000000 0.0000000e+0 0.0000000e+0
vn -0.66685860 1.0061071e-6 0.74518428
vn 0.0000000e+0 1.00000000 0.0000000e+0
vn 0.0000000e+0 1.00000000 0.0000000e+0
vn 2.4821092e-5 1.00000000 2.5428969e-6
vn -1.00000000 0.0000000e+0 0.0000000e+0
vn -0.66685860 1.0061071e-6 0.74518428
vn 0.0000000e+0 1.00000000 0.0000000e+0
vn 0.0000000e+0 1.00000000 0.0000000e+0
vn -1.00000000 0.0000000e+0 0.0000000e+0
vn 0.0000000e+0 0.0000000e+0 -1.00000000
vn -0.0000000e+0 1.00000000 0.0000000e+0
vn 0.80229144 0.0000000e+0 -0.59693253
vn 0.0000000e+0 0.0000000e+0 -1.00000000
vn 0.0000000e+0 1.00000000 0.0000000e+0
vn 0.0000000e+0 1.00000000 0.0000000e+0
vn 0.80229144 0.0000000e+0 -0.59693253
vn 0.0000000e+0 1.00000000 0.0000000e+0
vn -0.0000000e+0 0.0000000e+0 -1.00000000
vn 0.0000000e+0 1.00000000 0.0000000e+0
vn 0.0000000e+0 1.00000000 0.0000000e+0
vn -1.00000000 0.0000000e+0 0.0000000e+0
vn -0.66685860 1.0061071e-6 0.74518428
vn 1.4965195e-3 -0.99999388 3.1630232e-3
vn 1.4965195e-3 -0.99999388 3.1630232e-3
vn 1.4965195e-3 -0.99999388 3.1630232e-3
vn 1.4965195e-3 -0.99999388 3.1630232e-3
vn -1.00000000 0.0000000e+0 0.0000000e+0
vn -0.66685860 1.0061071e-6 0.74518428
vn 5.4046541e-3 -0.99997066 5.4281487e-3
vn 5.4046541e-3 -0.99997066 5.4281487e-3
vn -1.00000000 0.0000000e+0 0.0000000e+0
vn 0.0000000e+0 0.0000000e+0 -1.00000000
vn -0.0000000e+0 -1.00000000 0.0000000e+0
vn 0.80229144 0.0000000e+0 -0.59693253
vn 0.0000000e+0 0.0000000e+0 -1.00000000
vn 5.4046541e-3 -0.99997066 5.4281487e-3
vn 5.4046541e-3 -0.99997066 5.4281487e-3
vn 0.80229144 0.0000000e+0 -0.59693253
vn -0.0000000e+0 0.0000000e+0 -1.00000000
vn 4.2393608e-3 -0.99998189 4.2719107e-3
vn 4.2393608e-3 -0.99998189 4.2719107e-3
vn 0.0000000e+0 1.00000000 0.0000000e+0
vn -0.74507311 0.0000000e+0 -0.66698280
vn -0.0000000e+0 0.0000000e+0 -1.00000000
vn 0.0000000e+0 1.00000000 0.0000000e+0
vn 0.0000000e+0 1.00000000 0.0000000e+0
vn -0.74507311 0.0000000e+0 -0.66698280
vn 0.0000000e+0 0.0000000e+0 -1.00000000
vn 0.0000000e+0 1.00000000 0.0000000e+0
vn 0.0000000e+0 1.00000000 0.0000000e+0
vn 1.00000000 -0.0000000e+0 0.0000000e+0
vn 0.0000000e+0 0.0000000e+0 -1.00000000
vn -0.0000000e+0 1.00000000 0.0000000e+0
vn 1.00000000 -0.0000000e+0 0.0000000e+0
vn 0.59707850 0.0000000e+0 0.80218281
vn 0.0000000e+0 1.00000000 0.0000000e+0
vn 0.0000000e+0 1.00000000 0.0000000e+0
vn 0.99999979 0.0000000e+0 -6.4932174e-4
vn 0.59707850 0.0000000e+0 0.80218281
vn 2.4864986e-5 1.00000000 5.9646502e-5
vn 0.0000000e+0 1.00000000 0.0000000e+0
vn 0.0000000e+0 1.00000000 0.0000000e+0
vn -0.74507311 0.0000000e+0 -0.66698280
vn -0.0000000e+0 0.0000000e+0 -1.00000000
vn -1.9974040e-2 -0.99961735 1.9136192e-2
vn -1.9974040e-2 -0.99961735 1.9136192e-2
vn -1.9974040e-2 -0.99961735 1.9136192e-2
vn -1.9974040e-2 -0.99961735 1.9136192e-2
vn -0.74507311 0.0000000e+0 -0.66698280
vn 0.0000000e+0 0.0000000e+0 -1.00000000
vn -3.6520830e-2 -0.99867115 3.6361433e-2
vn -3.6520830e-2 -0.99867115 3.6361433e-2
vn 1.00000000 -0.0000000e+0 0.0000000e+0
vn 0.0000000e+0 0.0000000e+0 -1.00000000
vn -0.0000000e+0 -1.00000000 0.0000000e+0
vn 1.00000000 -0.0000000e+0 0.0000000e+0
vn 0.59707850 0.0000000e+0 0.80218281
vn -3.6520830e-2 -0.99867115 3.6361433e-2
vn -3.6520830e-2 -0.99867115 3.6361433e-2
vn 0.99999979 0.0000000e+0 -6.4932174e-4
vn 0.59707850 0.0000000e+0 0.80218281
vn -3.8349606e-2 -0.99853379 3.8204489e-2
vn -3.8349606e-2 -0.99853379 3.8204489e-2
vn 1.00000000 -2.2188676e-5 -6.3634797e-5
vn 0.69227356 3.8630925e-6 -0.72163517
vn 3.7202946e-5 1.00000000 -2.3944322e-5
vn 3.7202946e-5 1.00000000 -2.3944322e-5
vn -7.4292967e-4 2.6652832e-5 -0.99999972
vn 5.6377082e-5 1.00000000 -3.9173623e-6
vn 0.69227356 3.8630925e-6 -0.72163517
vn 4.2632623e-5 1.00000000 -4.3324978e-5
vn 4.2632623e-5 1.00000000 -4.3324978e-5
vn -0.99999983 2.2179163e-5 5.8568772e-4
vn 2.4864986e-5 1.00000000 5.9646502e-5
vn -0.70039331 3.4550738e-5 -0.71375711
vn 4.9654757e-5 1.00000000 4.2244683e-5
vn -7.4292967e-4 2.6652832e-5 -0.99999972
vn 5.6377082e-5 1.00000000 -3.9173623e-6
vn -0.70039331 3.4550738e-5 -0.71375711
vn 2.5856987e-4 0.99999994 2.4832965e-4
vn 2.5856987e-4 0.99999994 2.4832965e-4
vn 1.00000000 -2.2188676e-5 -6.3634797e-5
vn 0.69788894 -3.4566677e-5 0.71620599
vn 0.0000000e+0 1.00000000 0.0000000e+0
vn 2.4821092e-5 1.00000000 2.5428969e-6
vn 0.0000000e+0 1.00000000 0.0000000e+0
vn 0.69788894 -3.4566677e-5 0.71620599
vn 0.0000000e+0 1.00000000 0.0000000e+0
vn 7.7851647e-4 -2.6653621e-5 0.99999970
vn 0.0000000e+0 1.00000000 0.0000000e+0
vn -0.69446157 -3.7490779e-6 0.71952980
vn -0.0000000e+0 1.00000000 0.0000000e+0
vn 7.7851647e-4 -2.6653621e-5 0.99999970
vn -0.99999983 2.2179163e-5 5.8568772e-4
vn 2.4864986e-5 1.00000000 5.9646502e-5
vn -0.69446157 -3.7490779e-6 0.71952980
vn -0.0000000e+0 1.00000000 0.0000000e+0
vn 1.00000000 -2.2188676e-5 -6.3634797e-5
vn 0.69788894 -3.4566677e-5 0.71620599
vn 6.1157172e-7 1.00000000 4.9982118e-6
vn 1.00000000 -2.2188676e-5 -6.3634797e-5
vn 0.69227356 3.8630925e-6 -0.72163517
vn 6.1157172e-7 1.00000000 4.9982118e-6
vn -7.4292967e-4 2.6652832e-5 -0.99999972
vn 0.69227356 3.8630925e-6 -0.72163517
vn 1.3190942e-5 1.00000000 1.7401483e-5
vn 1.3190942e-5 1.00000000 1.7401483e-5
vn -7.4292967e-4 2.6652832e-5 -0.99999972
vn -0.70039331 3.4550738e-5 -0.71375711
vn 1.4946904e-5 1.00000000 4.2852273e-5
vn 1.4946904e-5 1.00000000 4.2852273e-5
vn -0.99999983 2.2179163e-5 5.8568772e-4
vn -0.70039331 3.4550738e-5 -0.71375711
vn 4.1234954e-6 1.00000000 5.5899793e-5
vn -0.99999983 2.2179163e-5 5.8568772e-4
vn -0.69446157 -3.7490779e-6 0.71952980
vn 4.1234954e-6 1.00000000 5.5899793e-5
vn -0.69446157 -3.7490779e-6 0.71952980
vn 1.4946904e-5 1.00000000 4.2852273e-5
vn 1.4946904e-5 1.00000000 4.2852273e-5
vn 7.7851647e-4 -2.6653621e-5 0.99999970
vn 0.69788894 -3.4566677e-5 0.71620599
vn 1.3190942e-5 1.00000000 1.7401483e-5
vn 1.3190942e-5 1.00000000 1.7401483e-5
vn 7.7851647e-4 -2.6653621e-5 0.99999970
g polySurface27487_default
usemtl default
s 1
f 1/66/3 5/64/15 6/95/19 3/94/9
f 4/66/12 15/64/51 16/95/55 2/94/6
f 7/140/23 18/112/63 20/111/71 9/139/31
f 12/18/44 21/60/75 19/61/67 10/19/35
f 28/107/98 68/109/261 66/11/252 27/17/95
f 29/155/103 33/93/118 34/92/123 30/154/108
f 31/153/112 35/91/127 36/90/129 32/152/114
f 37/92/132 41/36/147 42/35/151 38/91/136
f 39/90/139 43/34/154 44/33/158 40/89/144
f 47/3/172 52/71/194 51/72/190 46/4/168
f 49/1/179 54/69/201 53/70/197 48/2/175
f 56/47/210 61/99/232 60/100/226 55/48/206
f 58/45/217 63/97/239 62/98/236 57/46/214
f 59/13/223 72/15/278 67/106/257 33/104/119
f 65/76/247 74/77/284 73/86/281 69/85/265
f 67/50/258 77/143/296 76/142/292 68/49/262
f 70/8/272 80/41/308 79/42/304 71/9/276
s 2
f 2/118/8 16/116/56 5/137/17 1/136/5
f 3/23/11 6/22/21 15/58/52 4/57/14
f 5/64/16 7/62/24 8/112/27 6/95/20
f 9/61/32 11/60/40 12/110/45 10/111/36
f 10/19/37 19/61/68 17/62/59 8/20/28
f 19/61/69 21/60/76 22/110/79 20/111/72
f 27/37/94 41/36/148 37/92/133 25/93/84
f 28/78/101 36/80/131 35/88/128 34/87/125
f 29/121/102 64/148/243 59/149/221 33/122/117
f 34/87/124 33/84/120 68/79/263 28/78/100
f 38/91/137 42/35/152 43/34/155 39/90/140
f 46/4/169 51/72/191 50/73/185 45/5/164
f 48/2/176 53/70/198 52/71/195 47/3/173
f 49/149/181 55/122/207 60/121/227 54/148/202
f 57/46/215 62/98/237 61/99/233 56/47/211
f 67/81/259 68/79/264 33/84/121
f 68/31/260 76/32/291 75/56/287 66/55/251
f 69/29/266 73/134/282 80/135/305 70/30/270
f 72/83/277 78/75/298 77/74/295 67/82/256
s 3
f 1/121/4 3/123/10 4/150/13 2/148/7
f 5/137/18 16/116/57 18/112/65 7/140/26
f 7/62/25 9/61/33 10/111/38 8/112/29
f 8/20/30 17/62/61 15/58/53 6/22/22
f 9/139/34 20/111/73 22/110/80 11/141/41
f 15/64/54 17/62/62 18/112/66 16/95/58
f 26/148/89 28/149/97 27/122/93 25/121/83
f 30/154/107 34/92/122 35/91/126 31/153/111
f 44/149/157 45/122/163 50/121/184 40/148/143
f 45/117/165 49/131/182 48/129/177 46/113/170
f 45/117/166 69/128/267 70/130/271 49/131/183
f 46/113/171 48/129/178 47/114/174
f 55/51/208 59/65/224 58/67/219 56/53/212
f 55/51/209 71/52/275 72/54/280 59/65/225
f 56/53/213 58/67/220 57/68/216
f 74/125/286 75/127/289 80/126/306 73/124/283
f 76/145/293 79/144/302 80/126/307 75/127/290
f 77/147/297 78/146/300 79/144/303 76/145/294
s 4
f 11/60/39 13/63/47 14/101/49 12/110/43
f 11/141/42 22/110/81 24/115/2 13/138/48
f 14/21/50 23/59/1 21/60/77 12/18/46
f 17/62/60 19/61/70 20/111/74 18/112/64
f 21/60/78 23/63/1 24/101/2 22/110/82
f 25//85 29//104 30//109 26//91
f 25//88 50//187 60//229 29//106
f 30//110 31//113 32//116 26//92
f 37//134 39//141 40//145 25//86
f 38//138 39//142 37//135
f 40//146 50//186 25//87
f 49/12/180 70/10/269 71/108/273 55/102/205
f 51//192 53//199 54//203 50//188
f 52//196 53//200 51//193
f 54//204 60//230 50//189
f 60//228 64//245 29//105
f 61//234 63//241 64//246 60//231
f 62//238 63//242 61//235
f 66/6/253 75/119/288 74/120/285 65/7/248
f 71/28/274 79/133/301 78/132/299 72/27/279
s 5
f 26/151/90 32/152/115 36/90/130 28/89/99
f 27/43/96 66/40/254 44/26/159 41/39/149
f 41/39/150 44/26/160 43/25/156 42/24/153
f 44/105/161 65/103/249 69/14/268 45/16/167
f 44/26/162 66/40/255 65/38/250
f 59/44/222 64/96/244 63/97/240 58/45/218
