# Exported from Wings 3D 2.2.9
mtllib crate_lid.mtl
o polySurface27487_sep2
#28 vertices, 26 faces
v -0.61047930 1.66535787 0.61139452
v 0.61402270 1.66535787 0.61139352
v -0.61047930 1.66535787 -0.60862148
v 0.61402270 1.66535787 -0.60862248
v -0.69022230 1.76660687 0.69153852
v -0.69022230 1.76660687 -0.68805948
v -0.77759330 1.76660687 0.77864552
v -0.77759330 1.76660687 -0.77516748
v -0.83203730 1.69345787 0.83292152
v -0.83203730 1.69345787 -0.82944348
v -0.77579330 1.54821587 0.77684952
v -0.77579330 1.54821587 -0.77337148
v -0.72846030 1.54821587 0.72965752
v -0.72846030 1.54821587 -0.72617848
v 0.69371970 1.76660687 -0.68806148
v 0.69371970 1.76660687 0.69153652
v 0.78110670 1.76660687 -0.77516948
v 0.78110670 1.76660687 0.77864352
v 0.83555070 1.69345787 -0.82944348
v 0.83555070 1.69345787 0.83292152
v 0.77930670 1.54821587 -0.77336948
v 0.77930670 1.54821587 0.77685052
v 0.73197370 1.54821587 -0.72617448
v 0.73197370 1.54821587 0.72966252
v -0.61600688 1.60176676 0.61755849
v -0.61600688 1.60176676 -0.61407876
v 0.61952028 1.60176676 -0.61407538
v 0.61952028 1.60176676 0.61756272
vt 4.7377778e-2 0.70694376
vt 5.1566667e-2 0.55466667
vt 5.6971000e-2 0.77769000
vt 5.6971000e-2 0.80843500
vt 5.6971000e-2 0.82615100
vt 6.5205000e-2 0.76494100
vt 7.3838000e-2 0.84355000
vt 8.6240197e-2 0.78477071
vt 8.8493568e-2 0.79352467
vt 8.9222000e-2 0.86864400
vt 0.11315770 0.63427318
vt 0.11734659 0.62733761
vt 0.15181322 0.71191306
vt 0.15406623 0.86638232
vt 0.32314000 0.86864400
vt 0.33772300 0.84355000
vt 0.34427400 0.76494100
vt 0.35391800 0.77769000
vt 0.35391800 0.80843500
vt 0.35391800 0.82615100
vt 0.36258300 0.76494100
vt 0.37076400 0.84355000
vt 0.38608700 0.86864400
vt 0.62367500 0.86864400
vt 0.63880900 0.84355000
vt 0.64645900 0.76494100
vt 0.65544300 0.77769000
vt 0.65544300 0.80843500
vt 0.65544300 0.82615100
vt 0.66443700 0.76494100
vt 0.67130400 0.84355000
vt 0.68572000 0.86864400
vt 0.69742400 9.5380000e-3
vt 0.69742400 0.29184500
vt 0.69862820 0.29148853
vt 0.69862820 1.1814015e-2
vt 0.83588256 0.63427497
vt 0.84007144 0.62733985
vt 0.87226266 0.71191306
vt 0.87451617 0.86638232
vt 0.90166248 0.70694587
vt 0.90585137 0.55466931
vt 0.91346400 0.86864400
vt 0.92819300 0.84355000
vt 0.93600300 0.76494100
vt 0.93783528 0.78477071
vt 0.94008924 0.79352467
vt 0.94383800 0.80843500
vt 0.94436900 0.82615100
vt 0.94480400 0.77769000
vt 0.99564437 0.29148931
vt 0.99564437 1.1814987e-2
vt 0.99580600 9.5380000e-3
vt 0.99580600 0.29184500
vn 0.11157050 -0.98744115 -0.11185707
vn 0.11156982 -0.98744122 0.11185708
vn -0.11157042 -0.98744116 0.11185707
vn -0.11156974 -0.98744123 -0.11185708
vn 0.14978135 -0.97724905 -0.15016607
vn 0.14978045 -0.97724918 0.15016609
vn -0.14978125 -0.97724906 0.15016607
vn -0.14978035 -0.97724920 -0.15016609
vn 0.0000000e+0 1.00000000 -0.0000000e+0
vn 0.78560081 0.61873367 0.0000000e+0
vn -9.0179152e-7 0.62064601 -0.78409089
vn 0.0000000e+0 1.00000000 -0.0000000e+0
vn -9.0179152e-7 0.62064601 -0.78409089
vn -0.78577431 0.61851332 0.0000000e+0
vn 0.0000000e+0 1.00000000 -0.0000000e+0
vn 0.78560081 0.61873367 0.0000000e+0
vn 9.0484929e-7 0.61727232 0.78674957
vn 0.0000000e+0 1.00000000 -0.0000000e+0
vn 9.0484929e-7 0.61727232 0.78674957
vn -0.78577431 0.61851332 0.0000000e+0
vn 0.78560081 0.61873367 0.0000000e+0
vn -0.0000000e+0 1.00000000 0.0000000e+0
vn -9.0179152e-7 0.62064601 -0.78409089
vn 0.0000000e+0 1.00000000 0.0000000e+0
vn 0.78560081 0.61873367 0.0000000e+0
vn -0.0000000e+0 1.00000000 0.0000000e+0
vn 9.0484929e-7 0.61727232 0.78674957
vn 0.0000000e+0 1.00000000 0.0000000e+0
vn -0.0000000e+0 1.00000000 0.0000000e+0
vn -0.80219364 0.59706395 0.0000000e+0
vn 0.0000000e+0 1.00000000 0.0000000e+0
vn 4.9782965e-7 0.59588347 0.80307091
vn -0.0000000e+0 1.00000000 0.0000000e+0
vn -0.80219364 0.59706395 0.0000000e+0
vn 0.0000000e+0 1.00000000 0.0000000e+0
vn -4.9783616e-7 0.59586931 -0.80308142
vn -0.80219364 0.59706395 0.0000000e+0
vn -0.93252207 -0.36111298 0.0000000e+0
vn 4.9782965e-7 0.59588347 0.80307091
vn -2.8947719e-7 -0.36014930 0.93289468
vn -0.80219364 0.59706395 0.0000000e+0
vn -0.93252207 -0.36111298 0.0000000e+0
vn -4.9783616e-7 0.59586931 -0.80308142
vn 5.7895238e-7 -0.36015768 -0.93289144
vn -0.93252207 -0.36111298 0.0000000e+0
vn -0.0000000e+0 -1.00000000 0.0000000e+0
vn -2.8947719e-7 -0.36014930 0.93289468
vn -0.0000000e+0 -1.00000000 0.0000000e+0
vn -0.93252207 -0.36111298 0.0000000e+0
vn -0.0000000e+0 -1.00000000 0.0000000e+0
vn 5.7895238e-7 -0.36015768 -0.93289144
vn -0.0000000e+0 -1.00000000 0.0000000e+0
vn 9.0484929e-7 0.61727232 0.78674957
vn -0.78577431 0.61851332 0.0000000e+0
vn 0.0000000e+0 1.00000000 0.0000000e+0
vn 0.0000000e+0 1.00000000 0.0000000e+0
vn -9.0179152e-7 0.62064601 -0.78409089
vn -0.78577431 0.61851332 0.0000000e+0
vn 0.0000000e+0 1.00000000 0.0000000e+0
vn 0.0000000e+0 1.00000000 0.0000000e+0
vn 0.0000000e+0 1.00000000 0.0000000e+0
vn 0.0000000e+0 1.00000000 0.0000000e+0
vn -4.9783616e-7 0.59586931 -0.80308142
vn 0.80219364 0.59706395 0.0000000e+0
vn 0.0000000e+0 1.00000000 0.0000000e+0
vn 0.0000000e+0 1.00000000 0.0000000e+0
vn 4.9782965e-7 0.59588347 0.80307091
vn 0.80219364 0.59706395 0.0000000e+0
vn -4.9783616e-7 0.59586931 -0.80308142
vn 0.80219364 0.59706395 0.0000000e+0
vn 5.7895238e-7 -0.36015768 -0.93289144
vn 0.93252207 -0.36111298 0.0000000e+0
vn 4.9782965e-7 0.59588347 0.80307091
vn 0.80219364 0.59706395 0.0000000e+0
vn -2.8947719e-7 -0.36014930 0.93289468
vn 0.93252207 -0.36111298 0.0000000e+0
vn 5.7895238e-7 -0.36015768 -0.93289144
vn 0.93252207 -0.36111298 0.0000000e+0
vn 0.0000000e+0 -1.00000000 0.0000000e+0
vn 0.0000000e+0 -1.00000000 0.0000000e+0
vn -2.8947719e-7 -0.36014930 0.93289468
vn 0.93252207 -0.36111298 0.0000000e+0
vn 0.0000000e+0 -1.00000000 0.0000000e+0
vn 0.0000000e+0 -1.00000000 0.0000000e+0
g polySurface27487_sep2_default
usemtl default
s 1
f 2/24/14 16/25/58 15/22/54 4/23/20
f 3/24/16 6/25/25 5/22/21 1/23/10
f 9/48/39 20/28/73 18/29/67 7/49/32
f 10/4/44 19/19/71 21/18/77 12/3/51
s 2
f 2/53/12 4/54/18 3/34/15 1/33/9
f 6/25/26 8/29/33 7/20/29 5/22/22
f 8/5/36 17/20/63 19/19/69 10/4/43
f 10/28/42 12/27/49 11/18/45 9/19/38
f 20/28/76 22/27/82 21/18/78 19/19/72
s 3
f 1/43/11 5/44/23 16/31/57 2/32/13
f 4/15/19 15/16/53 6/7/27 3/10/17
f 8/29/34 10/28/41 9/19/37 7/20/30
f 11/50/47 22/27/81 20/28/75 9/48/40
f 18/29/68 20/28/74 19/19/70 17/20/64
s 4
f 6/7/28 15/16/55 17/20/61 8/5/35
f 7/49/31 18/29/65 16/31/59 5/44/24
f 12/27/50 14/26/2 13/21/1 11/18/46
f 12/3/52 21/18/79 23/17/3 14/6/2
f 13/45/1 24/30/4 22/27/83 11/50/48
f 13/42/1 25/38/5 28/12/8 24/2/4
f 14/8/2 26/13/6 25/39/5 13/46/1
f 16/25/60 18/29/66 17/20/62 15/22/56
f 22/27/84 24/26/4 23/21/3 21/18/80
f 23/1/3 27/11/7 26/37/6 14/41/2
f 24/47/4 28/40/8 27/14/7 23/9/3
f 26/51/6 27/35/7 28/36/8 25/52/5
