# Blender 5.0.0
# www.blender.org
g HangingLamp_1_Mesh
v -0.039436 0.125826 0.033097
v 0.014381 0.116969 0.035494
v -0.020027 1.871712 0.033795
v 0.018044 1.854998 0.034813
v -0.003075 1.867297 -0.024971
v 0.035957 1.850837 -0.028213
v -0.026543 0.123745 -0.025728
v 0.039070 0.112975 -0.036077
v 0.530144 -0.071084 -0.304665
v 0.001381 -0.071084 -0.611749
v -0.528954 -0.071084 -0.307376
v -0.530510 -0.071086 0.304081
v -0.001747 -0.071086 0.611167
v 0.528572 -0.071084 0.306789
v 0.588005 0.010510 -0.337885
v 0.001534 0.010516 -0.678479
v -0.000191 0.469265 -0.000292
v -0.586647 0.010516 -0.340887
v -0.588387 0.010512 0.337293
v -0.001915 0.010517 0.677891
v 0.586266 0.010512 0.340302
v -0.000191 -0.070817 -0.000293
v 0.530144 -0.895604 -0.304665
v 0.001381 -0.895604 -0.611749
v -0.528954 -0.895604 -0.307376
v -0.530510 -0.895602 0.304081
v -0.001747 -0.895601 0.611167
v 0.528572 -0.895604 0.306789
v 0.588005 -0.977198 -0.337885
v 0.001534 -0.977204 -0.678479
v -0.000191 -1.435951 -0.000292
v -0.586647 -0.977203 -0.340887
v -0.588387 -0.977200 0.337293
v -0.001915 -0.977203 0.677891
v 0.586266 -0.977200 0.340303
v -0.000191 -0.895871 -0.000293
v -0.000130 -0.918933 0.602902
v 0.117226 -0.918932 0.535544
v 0.000252 -0.918886 0.452761
v -0.115044 -0.918933 0.536164
v -0.115044 -0.064224 0.536164
v -0.000130 -0.064223 0.602901
v 0.000252 -0.064177 0.452761
v 0.117226 -0.064223 0.535544
v -0.522545 -0.918934 0.301355
v -0.405525 -0.918933 0.369313
v -0.392326 -0.918887 0.226618
v -0.522209 -0.918934 0.168470
v -0.522209 -0.064224 0.168470
v -0.522545 -0.064224 0.301355
v -0.392326 -0.064177 0.226618
v -0.405525 -0.064223 0.369313
v -0.522606 -0.918934 -0.301833
v -0.522957 -0.918933 -0.166518
v -0.392769 -0.918887 -0.226432
v -0.407356 -0.918934 -0.367979
v -0.407356 -0.064225 -0.367980
v -0.522606 -0.064224 -0.301833
v -0.392769 -0.064177 -0.226432
v -0.522957 -0.064224 -0.166518
v -0.000252 -0.918934 -0.603484
v -0.117622 -0.918933 -0.536124
v -0.000633 -0.918887 -0.453345
v 0.114662 -0.918934 -0.536750
v 0.114662 -0.064225 -0.536750
v -0.000252 -0.064224 -0.603484
v -0.000633 -0.064177 -0.453345
v -0.117622 -0.064224 -0.536124
v 0.522148 -0.918934 -0.301940
v 0.405144 -0.918933 -0.369902
v 0.391945 -0.918887 -0.227209
v 0.521812 -0.918934 -0.169051
v 0.521812 -0.064224 -0.169051
v 0.522148 -0.064224 -0.301940
v 0.391945 -0.064177 -0.227210
v 0.405144 -0.064224 -0.369902
v 0.522209 -0.918934 0.301255
v 0.522560 -0.918933 0.165933
v 0.392387 -0.918887 0.225854
v 0.406960 -0.918934 0.367410
v 0.406960 -0.064224 0.367410
v 0.522209 -0.064224 0.301255
v 0.392387 -0.064177 0.225854
v 0.522560 -0.064224 0.165933
vn -0.6852 0.0105 -0.7283
vn 0.7702 -0.0009 -0.6378
vn 0.7683 0.0045 -0.6401
vn 0.5862 -0.0011 0.8101
vn -0.7930 0.0107 0.6092
vn 0.5637 0.0003 0.8260
vn -0.6363 0.0099 -0.7714
vn -0.8091 0.0085 0.5876
vn 0.3091 0.7881 -0.5323
vn -0.3064 0.7881 -0.5339
vn -0.6156 0.7881 -0.0016
vn -0.3091 0.7881 0.5323
vn 0.3064 0.7881 0.5339
vn 0.6156 0.7881 0.0016
vn 0.4098 -0.5779 -0.7057
vn 0.4098 -0.5780 -0.7057
vn -0.4062 -0.5779 -0.7078
vn -0.4062 -0.5780 -0.7078
vn -0.4062 -0.5780 -0.7077
vn -0.8161 -0.5779 -0.0021
vn -0.8161 -0.5780 -0.0021
vn -0.4098 -0.5779 0.7057
vn -0.4099 -0.5779 0.7057
vn 0.4062 -0.5779 0.7078
vn 0.8161 -0.5779 0.0021
vn -0.0000 -1.0000 0.0004
vn -0.0004 -1.0000 0.0002
vn -0.0000 -1.0000 -0.0000
vn 0.0004 -1.0000 0.0002
vn 0.0004 -1.0000 -0.0002
vn -0.0000 -1.0000 -0.0004
vn -0.0004 -1.0000 -0.0002
vn 0.3091 -0.7881 -0.5323
vn -0.3064 -0.7881 -0.5339
vn -0.6156 -0.7881 -0.0016
vn -0.3091 -0.7881 0.5323
vn 0.3064 -0.7881 0.5339
vn 0.6156 -0.7881 0.0016
vn 0.4098 0.5779 -0.7057
vn -0.4062 0.5780 -0.7078
vn -0.4062 0.5779 -0.7078
vn -0.4062 0.5780 -0.7077
vn -0.8161 0.5779 -0.0021
vn -0.8161 0.5780 -0.0021
vn -0.4098 0.5779 0.7057
vn -0.4099 0.5779 0.7057
vn 0.4062 0.5779 0.7078
vn 0.8161 0.5779 0.0021
vn -0.0000 1.0000 0.0004
vn -0.0000 1.0000 -0.0000
vn -0.0004 1.0000 0.0002
vn 0.0004 1.0000 0.0002
vn 0.0004 1.0000 -0.0002
vn -0.0000 1.0000 -0.0004
vn -0.0004 1.0000 -0.0002
vn -0.5022 -0.0000 0.8647
vn -0.5861 -0.0000 -0.8102
vn 0.4978 -0.0000 0.8673
vn 0.5777 -0.0000 -0.8163
vn -1.0000 -0.0000 -0.0025
vn 0.4086 -0.0000 -0.9127
vn -0.5022 -0.0000 0.8648
vn 0.9957 -0.0000 0.0921
vn -0.4978 -0.0000 -0.8673
vn 0.9947 -0.0000 -0.1025
vn -1.0000 -0.0000 -0.0026
vn 0.4181 -0.0000 0.9084
vn 0.5022 -0.0000 -0.8648
vn 0.5861 -0.0000 0.8102
vn -0.5776 -0.0000 0.8163
vn 1.0000 -0.0000 0.0025
vn -0.4087 -0.0000 0.9127
vn 0.5023 -0.0000 -0.8647
vn -0.9957 -0.0000 -0.0921
vn -0.9947 -0.0000 0.1024
vn 1.0000 -0.0000 0.0026
vn -0.4181 -0.0000 -0.9084
vn -0.4063 -0.5779 -0.7078
vn -0.4063 0.5779 -0.7078
vt 0.981062 0.995073
vt 0.985640 0.316453
vt 0.986228 0.995060
vt 0.992668 0.316570
vt 0.995937 0.995073
vt 0.991589 0.995060
vt 0.981440 0.317318
vt 0.975197 0.995073
vt 0.975230 0.317458
vt 0.911155 0.080538
vt 0.870992 0.103864
vt 0.870874 0.057418
vt 0.830710 0.080744
vt 0.830591 0.034299
vt 0.870755 0.010973
vt 0.911194 0.034093
vt 0.951342 0.094331
vt 0.919422 0.075793
vt 0.983357 0.075956
vt 0.951318 0.103864
vt 0.991719 0.034299
vt 0.991600 0.080744
vt 0.983451 0.039044
vt 0.951555 0.010973
vt 0.951531 0.020505
vt 0.919516 0.038880
vt 0.951437 0.057418
vt 0.866963 0.118754
vt 0.851468 0.218558
vt 0.851464 0.118754
vt 0.834866 0.118754
vt 0.834871 0.218558
vt 0.882745 0.118754
vt 0.866967 0.218558
vt 0.899459 0.118754
vt 0.882750 0.218558
vt 0.934948 0.118754
vt 0.919438 0.218558
vt 0.919431 0.118754
vt 0.967483 0.118754
vt 0.984107 0.218558
vt 0.967490 0.218558
vt 0.950749 0.118754
vt 0.934955 0.218558
vt 0.950757 0.218558
vt 0.995970 0.317458
vt 0.899464 0.218558
vt 0.984100 0.118754
s 1
f 7/1/1 6/2/2 8/3/3
f 4/4/4 1/5/5 2/6/6
f 5/7/7 1/8/5 3/9/8
f 6/2/2 2/6/6 8/3/3
f 15/10/9 16/11/9 17/12/9
f 16/11/10 18/13/10 17/12/10
f 18/13/11 19/14/11 17/12/11
f 19/14/12 20/15/12 17/12/12
f 20/15/13 21/16/13 17/12/13
f 21/16/14 15/10/14 17/12/14
f 10/17/15 15/10/15 9/18/16
f 11/19/17 16/20/18 10/17/19
f 11/19/20 19/21/21 18/22/20
f 12/23/22 20/24/23 19/21/22
f 13/25/24 21/16/24 20/24/24
f 9/18/25 21/16/25 14/26/25
f 10/17/26 9/18/27 22/27/28
f 11/19/29 10/17/26 22/27/28
f 12/23/30 11/19/29 22/27/28
f 13/25/31 12/23/30 22/27/28
f 14/26/32 13/25/31 22/27/28
f 9/18/27 14/26/32 22/27/28
f 29/10/33 31/12/33 30/11/33
f 30/11/34 31/12/34 32/13/34
f 32/13/35 31/12/35 33/14/35
f 33/14/36 31/12/36 34/15/36
f 34/15/37 31/12/37 35/16/37
f 35/16/38 31/12/38 29/10/38
f 29/10/39 24/17/39 23/18/39
f 30/20/40 25/19/41 24/17/42
f 25/19/43 33/21/44 26/23/44
f 26/23/45 34/24/46 27/25/46
f 27/25/47 35/16/47 28/26/47
f 35/16/48 23/18/48 28/26/48
f 24/17/49 36/27/50 23/18/51
f 25/19/52 36/27/50 24/17/49
f 26/23/53 36/27/50 25/19/52
f 27/25/54 36/27/50 26/23/53
f 28/26/55 36/27/50 27/25/54
f 23/18/51 36/27/50 28/26/55
f 37/28/56 41/29/56 40/30/56
f 39/31/57 41/29/57 43/32/57
f 38/33/58 42/34/58 37/28/58
f 39/35/59 44/36/59 38/33/59
f 45/37/60 49/38/60 48/39/60
f 47/40/61 49/41/61 51/42/61
f 46/43/62 50/44/62 45/37/62
f 47/40/63 52/45/63 46/43/63
f 53/28/64 57/29/64 56/30/64
f 55/31/65 57/29/65 59/32/65
f 54/33/66 58/34/66 53/28/66
f 55/35/67 60/36/67 54/33/67
f 61/37/68 65/38/68 64/39/68
f 63/40/69 65/41/69 67/42/69
f 62/43/64 66/44/64 61/37/64
f 63/40/70 68/45/70 62/43/70
f 69/28/71 73/29/71 72/30/71
f 71/31/72 73/29/72 75/32/72
f 70/33/73 74/34/73 69/28/73
f 71/35/74 76/36/74 70/33/74
f 77/37/58 81/38/58 80/39/58
f 79/40/75 81/41/75 83/42/75
f 78/43/76 82/44/76 77/37/76
f 79/40/77 84/45/77 78/43/77
f 7/1/1 5/7/7 6/2/2
f 4/4/4 3/46/8 1/5/5
f 5/7/7 7/1/1 1/8/5
f 6/2/2 4/4/4 2/6/6
f 10/17/15 16/20/15 15/10/15
f 11/19/17 18/22/78 16/20/18
f 11/19/20 12/23/21 19/21/21
f 12/23/22 13/25/23 20/24/23
f 13/25/24 14/26/24 21/16/24
f 9/18/25 15/10/25 21/16/25
f 29/10/39 30/20/39 24/17/39
f 30/20/40 32/22/79 25/19/41
f 25/19/43 32/22/43 33/21/44
f 26/23/45 33/21/45 34/24/46
f 27/25/47 34/24/47 35/16/47
f 35/16/48 29/10/48 23/18/48
f 37/28/56 42/34/56 41/29/56
f 39/31/57 40/30/57 41/29/57
f 38/33/58 44/36/58 42/34/58
f 39/35/59 43/47/59 44/36/59
f 45/37/60 50/44/60 49/38/60
f 47/40/61 48/48/61 49/41/61
f 46/43/62 52/45/62 50/44/62
f 47/40/63 51/42/63 52/45/63
f 53/28/64 58/34/64 57/29/64
f 55/31/65 56/30/65 57/29/65
f 54/33/66 60/36/66 58/34/66
f 55/35/67 59/47/67 60/36/67
f 61/37/68 66/44/68 65/38/68
f 63/40/69 64/48/69 65/41/69
f 62/43/64 68/45/64 66/44/64
f 63/40/70 67/42/70 68/45/70
f 69/28/71 74/34/71 73/29/71
f 71/31/72 72/30/72 73/29/72
f 70/33/73 76/36/73 74/34/73
f 71/35/74 75/47/74 76/36/74
f 77/37/58 82/44/58 81/38/58
f 79/40/75 80/48/75 81/41/75
f 78/43/76 84/45/76 82/44/76
f 79/40/77 83/42/77 84/45/77
