# Blender 4.2.0
# www.blender.org
o practice_broadsword
v 0.024535 -0.191279 0.000500
v 0.015297 -0.191279 -0.018682
v -0.005460 -0.191279 -0.023420
v -0.022105 -0.191279 -0.010146
v -0.022105 -0.191279 0.011145
v -0.005460 -0.191279 0.024420
v 0.015297 -0.191279 0.019682
v 0.018093 -0.167600 0.000500
v 0.011281 -0.167600 -0.013646
v -0.004026 -0.167600 -0.017140
v -0.016301 -0.167600 -0.007350
v -0.016301 -0.167600 0.008350
v -0.004026 -0.167600 0.018139
v 0.011281 -0.167600 0.014645
v 0.018093 0.113626 0.000500
v 0.011281 0.113626 -0.013646
v -0.004026 0.113626 -0.017140
v -0.016301 0.113626 -0.007350
v -0.016301 0.113626 0.008350
v -0.004026 0.113626 0.018139
v 0.011281 0.113626 0.014645
v 0.027140 0.134600 0.000500
v 0.016922 0.134600 -0.020719
v -0.006039 0.134600 -0.025960
v -0.024451 0.134600 -0.011275
v -0.024451 0.134600 0.012275
v -0.006039 0.134600 0.026959
v 0.016922 0.134600 0.021718
v 0.027140 0.846441 0.000501
v 0.016922 0.846441 -0.020718
v -0.006039 0.846441 -0.025959
v -0.024451 0.846441 -0.011274
v -0.024451 0.846441 0.012276
v -0.006039 0.846441 0.026959
v 0.016922 0.846441 0.021720
v 0.027140 0.867415 0.000501
v 0.016922 0.867415 -0.020718
v -0.006039 0.867415 -0.025959
v -0.024451 0.867415 -0.011274
v -0.024451 0.867415 0.012276
v -0.006039 0.867415 0.026959
v 0.016922 0.867415 0.021720
v 0.042341 0.114967 0.000500
v 0.026398 0.114967 -0.032603
v -0.009421 0.114967 -0.040778
v -0.038148 0.114967 -0.017870
v -0.038148 0.114967 0.018871
v -0.009421 0.114967 0.041779
v 0.026398 0.114967 0.033604
v 0.026398 0.133258 -0.032603
v 0.042341 0.133258 0.000500
v 0.026398 0.133258 0.033604
v -0.009421 0.133258 0.041779
v -0.038148 0.133258 0.018871
v -0.038148 0.133258 -0.017870
v -0.009421 0.133258 -0.040778
v 0.031510 0.850600 0.000501
v 0.019646 0.850600 -0.024135
v -0.007011 0.850600 -0.030220
v -0.028390 0.850600 -0.013171
v -0.028390 0.850600 0.014172
v -0.007011 0.850600 0.031221
v 0.019646 0.850600 0.025136
v 0.019646 0.863255 -0.024135
v 0.031510 0.863255 0.000501
v 0.019646 0.863255 0.025136
v -0.007011 0.863255 0.031221
v -0.028390 0.863255 0.014172
v -0.028390 0.863255 -0.013171
v -0.007011 0.863255 -0.030220
v 0.016406 -0.170161 -0.020073
v 0.026314 -0.170161 0.000500
v 0.016406 -0.170161 0.021073
v -0.005855 -0.170161 0.026154
v -0.023708 -0.170161 0.011917
v -0.023708 -0.170161 -0.010917
v -0.005855 -0.170161 -0.025154
v -0.005460 -0.191279 -0.023420
v -0.022105 -0.191279 -0.010146
v -0.022105 -0.191279 0.011145
v -0.005460 -0.191279 0.024420
v -0.004026 -0.167600 -0.017140
v -0.016301 -0.167600 -0.007350
v -0.016301 -0.167600 0.008350
v -0.004026 -0.167600 0.018139
v -0.004026 0.088831 -0.017140
v -0.016301 0.088831 -0.007350
v -0.016301 0.088831 0.008350
v -0.004026 0.088831 0.018139
v -0.005855 -0.170161 0.026154
v -0.023708 -0.170161 0.011917
v -0.023708 -0.170161 -0.010917
v -0.005855 -0.170161 -0.025154
v 0.027140 0.867455 0.000500
v 0.016921 0.867455 0.021719
v -0.006040 0.867455 0.026960
v -0.024452 0.867455 0.012276
v -0.024452 0.867455 -0.011275
v -0.006040 0.867455 -0.025959
v 0.016921 0.867455 -0.020718
vn 0.9997 -0.0234 -0.0000
vn 0.6233 -0.0234 -0.7816
vn 0.6233 -0.0236 -0.7816
vn 0.9997 -0.0236 -0.0000
vn -0.2224 -0.0234 -0.9747
vn -0.2225 -0.0236 -0.9747
vn -0.9007 -0.0234 -0.4337
vn -0.9007 -0.0236 -0.4337
vn -0.9007 -0.0234 0.4338
vn -0.9007 -0.0236 0.4337
vn -0.2224 -0.0234 0.9747
vn -0.2225 -0.0236 0.9747
vn 0.6233 -0.0234 0.7816
vn 0.6233 -0.0236 0.7816
vn 1.0000 -0.0000 -0.0000
vn 0.6235 -0.0000 -0.7818
vn -0.2225 -0.0000 -0.9749
vn -0.9010 -0.0000 -0.4339
vn -0.9010 -0.0000 0.4339
vn -0.2225 -0.0000 0.9749
vn 0.6235 -0.0000 0.7818
vn 0.9421 -0.2490 0.2246
vn 0.5778 -0.2424 -0.7794
vn 0.7100 -0.2382 -0.6627
vn 0.6716 -0.2393 -0.7012
vn 0.9700 -0.2421 0.0222
vn 0.9694 -0.2425 0.0370
vn 0.7630 -0.2490 -0.5966
vn -0.2489 -0.2424 -0.9377
vn -0.0752 -0.2382 -0.9683
vn -0.1295 -0.2393 -0.9623
vn 0.6222 -0.2421 -0.7445
vn 0.6333 -0.2425 -0.7349
vn 0.0093 -0.2490 -0.9685
vn -0.8884 -0.2424 -0.3899
vn -0.8040 -0.2382 -0.5448
vn -0.8331 -0.2393 -0.4987
vn -0.1942 -0.2421 -0.9506
vn -0.1797 -0.2425 -0.9534
vn -0.7515 -0.2490 -0.6110
vn -0.8588 -0.2424 0.4514
vn -0.9273 -0.2382 0.2888
vn -0.9093 -0.2393 0.3403
vn -0.8643 -0.2421 -0.4409
vn -0.8575 -0.2425 -0.4538
vn -0.9462 -0.2490 0.2064
vn -0.1825 -0.2424 0.9528
vn -0.3522 -0.2382 0.9051
vn -0.3009 -0.2393 0.9232
vn -0.8837 -0.2420 0.4007
vn -0.8895 -0.2425 0.3873
vn -0.4284 -0.2490 0.8686
vn 0.6312 -0.2424 0.7368
vn 0.4880 -0.2382 0.8397
vn 0.5342 -0.2393 0.8108
vn -0.2375 -0.2421 0.9407
vn -0.2517 -0.2425 0.9369
vn 0.4118 -0.2490 0.8766
vn 0.9696 -0.2424 -0.0340
vn 0.9608 -0.2382 0.1420
vn 0.9670 -0.2393 0.0879
vn 0.5874 -0.2421 0.7723
vn 0.5756 -0.2425 0.7809
vn 0.5779 0.2115 -0.7882
vn 0.9770 0.2110 0.0294
vn 0.9778 0.2096 -0.0033
vn 0.9778 0.2096 -0.0031
vn 0.5951 0.2105 -0.7756
vn 0.5858 0.2111 -0.7825
vn 0.9766 0.2115 -0.0396
vn 0.5861 0.2110 0.7823
vn 0.6122 0.2096 0.7624
vn 0.6120 0.2096 0.7625
vn 0.9774 0.2105 -0.0182
vn 0.9770 0.2111 -0.0299
vn 0.6397 0.2115 0.7389
vn -0.2461 0.2110 0.9460
vn -0.2143 0.2096 0.9540
vn -0.2146 0.2095 0.9540
vn 0.6236 0.2105 0.7528
vn 0.6325 0.2111 0.7453
vn -0.1787 0.2115 0.9609
vn -0.8931 0.2110 0.3973
vn -0.8795 0.2095 0.4273
vn -0.8796 0.2096 0.4270
vn -0.1997 0.2105 0.9570
vn -0.1884 0.2111 0.9592
vn -0.8628 0.2115 0.4593
vn -0.8675 0.2110 -0.4504
vn -0.8825 0.2095 -0.4211
vn -0.8823 0.2096 -0.4214
vn -0.8727 0.2105 0.4405
vn -0.8674 0.2111 0.4507
vn -0.8971 0.2115 -0.3880
vn -0.1886 0.2110 -0.9591
vn -0.2208 0.2096 -0.9525
vn -0.2206 0.2096 -0.9526
vn -0.8886 0.2105 -0.4075
vn -0.8932 0.2111 -0.3970
vn -0.2559 0.2115 -0.9433
vn 0.6321 0.2110 -0.7456
vn 0.6069 0.2096 -0.7666
vn 0.6072 0.2096 -0.7664
vn -0.2353 0.2105 -0.9489
vn -0.2464 0.2110 -0.9459
vn 0.8914 0.4488 -0.0629
vn 0.5976 0.4458 -0.6664
vn 0.5026 0.4010 -0.7659
vn 0.4949 0.3968 -0.7731
vn 0.9034 0.4287 0.0057
vn 0.8934 0.4461 -0.0533
vn 0.5066 0.4488 -0.7362
vn -0.1482 0.4458 -0.8827
vn -0.2853 0.4010 -0.8705
vn -0.2958 0.3969 -0.8689
vn 0.5677 0.4287 -0.7028
vn 0.5153 0.4462 -0.7317
vn -0.2597 0.4487 -0.8551
vn -0.7828 0.4457 -0.4344
vn -0.8586 0.4008 -0.3196
vn -0.8638 0.3969 -0.3105
vn -0.1955 0.4288 -0.8820
vn -0.2507 0.4462 -0.8591
vn -0.8305 0.4487 -0.3300
vn -0.8277 0.4457 0.3410
vn -0.7853 0.4009 0.4718
vn -0.7814 0.3967 0.4818
vn -0.8115 0.4286 -0.3971
vn -0.8281 0.4461 -0.3395
vn -0.7759 0.4487 0.4435
vn -0.2494 0.4457 0.8598
vn -0.1205 0.4009 0.9082
vn -0.1105 0.3967 0.9113
vn -0.8165 0.4286 0.3867
vn -0.7818 0.4461 0.4356
vn -0.1369 0.4488 0.8831
vn 0.5166 0.4458 0.7310
vn 0.6348 0.4010 0.6605
vn 0.6435 0.3967 0.6546
vn -0.2065 0.4286 0.8796
vn -0.1468 0.4461 0.8829
vn 0.6050 0.4487 0.6577
vn 0.8937 0.4457 0.0519
vn 0.9122 0.4009 -0.0846
vn 0.9130 0.3968 -0.0950
vn 0.5588 0.4288 0.7099
vn 0.5986 0.4462 0.6653
vn 0.6050 -0.4487 -0.6577
vn 0.8937 -0.4457 -0.0519
vn 0.9122 -0.4009 0.0846
vn 0.9129 -0.3969 0.0950
vn 0.5588 -0.4288 -0.7099
vn 0.5986 -0.4462 -0.6652
vn 0.8914 -0.4488 0.0629
vn 0.5976 -0.4458 0.6664
vn 0.5026 -0.4010 0.7659
vn 0.4949 -0.3968 0.7731
vn 0.9034 -0.4287 -0.0057
vn 0.8934 -0.4461 0.0533
vn 0.5066 -0.4487 0.7362
vn -0.1482 -0.4457 0.8828
vn -0.2853 -0.4009 0.8706
vn -0.2958 -0.3969 0.8689
vn 0.5677 -0.4288 0.7028
vn 0.5153 -0.4462 0.7317
vn -0.2597 -0.4487 0.8551
vn -0.7827 -0.4457 0.4344
vn -0.8586 -0.4009 0.3196
vn -0.8638 -0.3968 0.3105
vn -0.1955 -0.4287 0.8821
vn -0.2508 -0.4461 0.8591
vn -0.8305 -0.4487 0.3300
vn -0.8277 -0.4457 -0.3410
vn -0.7853 -0.4009 -0.4718
vn -0.7813 -0.3968 -0.4818
vn -0.8115 -0.4286 0.3971
vn -0.8281 -0.4461 0.3395
vn -0.7759 -0.4488 -0.4434
vn -0.2493 -0.4458 -0.8597
vn -0.1206 -0.4010 -0.9081
vn -0.1105 -0.3968 -0.9112
vn -0.8165 -0.4286 -0.3868
vn -0.7818 -0.4461 -0.4357
vn -0.1370 -0.4488 -0.8831
vn 0.5166 -0.4458 -0.7310
vn 0.6347 -0.4010 -0.6605
vn 0.6435 -0.3969 -0.6545
vn -0.2066 -0.4288 -0.8795
vn -0.1467 -0.4463 -0.8828
vn 0.6235 0.0001 -0.7819
vn 1.0000 0.0002 -0.0001
vn 0.9997 -0.0235 -0.0001
vn 0.6235 0.0002 -0.7818
vn 1.0000 0.0002 -0.0000
vn 0.6235 0.0002 0.7818
vn 0.9997 -0.0234 0.0001
vn 0.6234 0.0002 0.7819
vn -0.2224 0.0002 0.9750
vn -0.2225 -0.0234 0.9747
vn 0.6233 -0.0234 0.7817
vn -0.2225 0.0002 0.9749
vn -0.9010 0.0002 0.4339
vn -0.2226 0.0002 0.9749
vn -0.9010 0.0002 0.4338
vn -0.9010 0.0002 -0.4338
vn -0.9008 -0.0235 -0.4337
vn -0.9007 -0.0234 -0.4338
vn -0.9007 -0.0234 0.4337
vn -0.9010 0.0001 -0.4338
vn -0.2225 0.0002 -0.9749
vn -0.2225 -0.0234 -0.9746
vn -0.9010 0.0002 -0.4339
vn 0.6234 0.0001 -0.7819
vn 0.6233 -0.0234 -0.7817
vn -0.2224 0.0001 -0.9750
vn 0.6236 -0.0000 -0.7818
vn -0.9009 -0.0000 -0.4339
vn -0.2226 -0.0000 0.9749
vn -0.9284 -0.0656 -0.3658
vn -0.9843 -0.0920 0.1503
vn -0.5940 -0.0404 -0.8034
vn -0.4749 -0.0917 0.8753
vn -0.5517 0.4206 0.7203
vn -0.5940 -0.0405 0.8034
vn -0.6235 -0.0000 -0.7818
vn -0.6235 -0.0000 0.7818
vn -0.0000 1.0000 -0.0000
vn 0.6234 -0.0000 0.7819
vn 1.0000 -0.0000 0.0001
vn -0.9010 -0.0000 0.4338
vt 0.396714 0.314127
vt 0.367725 0.317347
vt 0.361385 0.275978
vt 0.390111 0.271571
vt 0.337965 0.319948
vt 0.333894 0.278125
vt 0.307957 0.321182
vt 0.306589 0.279193
vt 0.277895 0.321180
vt 0.279273 0.279191
vt 0.247880 0.319936
vt 0.251970 0.278114
vt 0.218118 0.317322
vt 0.224483 0.275955
vt 0.189130 0.314090
vt 0.195759 0.271536
vt 0.306429 0.969142
vt 0.290765 0.969142
vt 0.290766 0.369616
vt 0.306429 0.369616
vt 0.275103 0.969142
vt 0.275103 0.369616
vt 0.259443 0.969142
vt 0.259443 0.369616
vt 0.243784 0.969142
vt 0.243784 0.369616
vt 0.228123 0.969142
vt 0.228123 0.369616
vt 0.212461 0.969142
vt 0.212461 0.369616
vt 0.196797 0.969142
vt 0.196797 0.369616
vt 0.381867 0.230589
vt 0.354312 0.229398
vt 0.354312 0.200508
vt 0.381867 0.199318
vt 0.328132 0.229644
vt 0.328133 0.200262
vt 0.302264 0.229718
vt 0.302265 0.200188
vt 0.276424 0.229718
vt 0.276424 0.200188
vt 0.250556 0.229644
vt 0.250556 0.200262
vt 0.224376 0.229398
vt 0.224376 0.200508
vt 0.196821 0.230589
vt 0.196821 0.199318
vt 0.148763 0.973541
vt 0.133100 0.973541
vt 0.133099 0.019749
vt 0.148763 0.019749
vt 0.117437 0.973541
vt 0.117437 0.019749
vt 0.101777 0.973541
vt 0.101776 0.019749
vt 0.086117 0.973541
vt 0.086117 0.019749
vt 0.070457 0.973541
vt 0.070457 0.019749
vt 0.054795 0.973541
vt 0.054795 0.019749
vt 0.039131 0.973541
vt 0.039131 0.019749
vt 0.381859 0.159741
vt 0.354304 0.158549
vt 0.354304 0.129660
vt 0.381859 0.128469
vt 0.328124 0.158797
vt 0.328124 0.129415
vt 0.302256 0.158872
vt 0.302256 0.129342
vt 0.276416 0.158872
vt 0.276416 0.129342
vt 0.250548 0.158796
vt 0.250548 0.129414
vt 0.224368 0.158549
vt 0.224368 0.129660
vt 0.196813 0.159740
vt 0.196813 0.128468
vt 0.445233 0.204017
vt 0.462532 0.221110
vt 0.459953 0.245290
vt 0.439440 0.258351
vt 0.416439 0.250457
vt 0.408270 0.227552
vt 0.421085 0.206885
vt 0.375387 0.239690
vt 0.353298 0.237989
vt 0.328102 0.238292
vt 0.302282 0.238432
vt 0.276407 0.238432
vt 0.250586 0.238292
vt 0.225390 0.237988
vt 0.203302 0.239690
vt 0.353299 0.191918
vt 0.375387 0.190217
vt 0.203302 0.190216
vt 0.225390 0.191918
vt 0.250586 0.191614
vt 0.276407 0.191474
vt 0.302282 0.191474
vt 0.328103 0.191614
vt 0.375379 0.168842
vt 0.353291 0.167140
vt 0.328095 0.167445
vt 0.302274 0.167585
vt 0.276398 0.167585
vt 0.250577 0.167444
vt 0.225381 0.167139
vt 0.203293 0.168841
vt 0.353289 0.121070
vt 0.375378 0.119367
vt 0.203294 0.119367
vt 0.225383 0.121070
vt 0.250579 0.120767
vt 0.276399 0.120628
vt 0.302274 0.120628
vt 0.328093 0.120767
vt 0.359043 0.266916
vt 0.381840 0.262711
vt 0.204036 0.262679
vt 0.226830 0.266894
vt 0.252929 0.268779
vt 0.279577 0.269775
vt 0.306290 0.269778
vt 0.332941 0.268791
vt 0.441541 0.965760
vt 0.410215 0.965760
vt 0.378893 0.965760
vt 0.363231 0.965760
vt 0.457205 0.965760
vt 0.425877 0.965760
vt 0.394554 0.965760
s 1
f 1/1/1 2/2/2 71/3/3
f 71/3/3 72/4/4 1/1/1
f 2/2/2 3/5/5 77/6/6
f 77/6/6 71/3/3 2/2/2
f 3/5/5 4/7/7 76/8/8
f 76/8/8 77/6/6 3/5/5
f 4/7/7 5/9/9 75/10/10
f 75/10/10 76/8/8 4/7/7
f 5/9/9 6/11/11 74/12/12
f 74/12/12 75/10/10 5/9/9
f 6/11/11 7/13/13 73/14/14
f 73/14/14 74/12/12 6/11/11
f 7/13/13 1/15/1 72/16/4
f 72/16/4 73/14/14 7/13/13
f 8/17/15 9/18/16 16/19/16
f 16/19/16 15/20/15 8/17/15
f 9/18/16 10/21/17 17/22/17
f 17/22/17 16/19/16 9/18/16
f 10/21/17 11/23/18 18/24/18
f 18/24/18 17/22/17 10/21/17
f 11/23/18 12/25/19 19/26/19
f 19/26/19 18/24/18 11/23/18
f 12/25/19 13/27/20 20/28/20
f 20/28/20 19/26/19 12/25/19
f 13/27/20 14/29/21 21/30/21
f 21/30/21 20/28/20 13/27/20
f 14/29/21 8/31/15 15/32/15
f 15/32/15 21/30/21 14/29/21
f 43/33/15 44/34/16 50/35/16
f 50/35/16 51/36/15 43/33/15
f 44/34/16 45/37/17 56/38/17
f 56/38/17 50/35/16 44/34/16
f 45/37/17 46/39/18 55/40/18
f 55/40/18 56/38/17 45/37/17
f 46/39/18 47/41/19 54/42/19
f 54/42/19 55/40/18 46/39/18
f 47/41/19 48/43/20 53/44/20
f 53/44/20 54/42/19 47/41/19
f 48/43/20 49/45/21 52/46/21
f 52/46/21 53/44/20 48/43/20
f 49/45/21 43/47/15 51/48/15
f 51/48/15 52/46/21 49/45/21
f 22/49/15 23/50/16 30/51/16
f 30/51/16 29/52/15 22/49/15
f 23/50/16 24/53/17 31/54/17
f 31/54/17 30/51/16 23/50/16
f 24/53/17 25/55/18 32/56/18
f 32/56/18 31/54/17 24/53/17
f 25/55/18 26/57/19 33/58/19
f 33/58/19 32/56/18 25/55/18
f 26/57/19 27/59/20 34/60/20
f 34/60/20 33/58/19 26/57/19
f 27/59/20 28/61/21 35/62/21
f 35/62/21 34/60/20 27/59/20
f 28/61/21 22/63/15 29/64/15
f 29/64/15 35/62/21 28/61/21
f 57/65/15 58/66/16 64/67/16
f 64/67/16 65/68/15 57/65/15
f 58/66/16 59/69/17 70/70/17
f 70/70/17 64/67/16 58/66/16
f 59/69/17 60/71/18 69/72/18
f 69/72/18 70/70/17 59/69/17
f 60/71/18 61/73/19 68/74/19
f 68/74/19 69/72/18 60/71/18
f 61/73/19 62/75/20 67/76/20
f 67/76/20 68/74/19 61/73/19
f 62/75/20 63/77/21 66/78/21
f 66/78/21 67/76/20 62/75/20
f 63/77/21 57/79/15 65/80/15
f 65/80/15 66/78/21 63/77/21
f 6/81/11 5/82/9 4/83/7
f 4/83/7 3/84/5 2/85/2
f 4/83/7 2/85/2 1/86/1
f 6/81/11 4/83/7 1/86/1
f 7/87/13 6/81/11 1/86/1
s 0
f 15/88/22 16/89/23 44/34/24
f 44/34/25 43/33/26 15/88/27
f 16/89/28 17/90/29 45/37/30
f 45/37/31 44/34/32 16/89/33
f 17/90/34 18/91/35 46/39/36
f 46/39/37 45/37/38 17/90/39
f 18/91/40 19/92/41 47/41/42
f 47/41/43 46/39/44 18/91/45
f 19/92/46 20/93/47 48/43/48
f 48/43/49 47/41/50 19/92/51
f 20/93/52 21/94/53 49/45/54
f 49/45/55 48/43/56 20/93/57
f 21/94/58 15/95/59 43/47/60
f 43/47/61 49/45/62 21/94/63
f 23/96/64 22/97/65 51/36/66
f 51/36/67 50/35/68 23/96/69
f 22/98/70 28/99/71 52/46/72
f 52/46/73 51/48/74 22/98/75
f 28/99/76 27/100/77 53/44/78
f 53/44/79 52/46/80 28/99/81
f 27/100/82 26/101/83 54/42/84
f 54/42/85 53/44/86 27/100/87
f 26/101/88 25/102/89 55/40/90
f 55/40/91 54/42/92 26/101/93
f 25/102/94 24/103/95 56/38/96
f 56/38/97 55/40/98 25/102/99
f 24/103/100 23/96/101 50/35/102
f 50/35/103 56/38/104 24/103/105
f 29/104/106 30/105/107 58/66/108
f 58/66/109 57/65/110 29/104/111
f 30/105/112 31/106/113 59/69/114
f 59/69/115 58/66/116 30/105/117
f 31/106/118 32/107/119 60/71/120
f 60/71/121 59/69/122 31/106/123
f 32/107/124 33/108/125 61/73/126
f 61/73/127 60/71/128 32/107/129
f 33/108/130 34/109/131 62/75/132
f 62/75/133 61/73/134 33/108/135
f 34/109/136 35/110/137 63/77/138
f 63/77/139 62/75/140 34/109/141
f 35/110/142 29/111/143 57/79/144
f 57/79/145 63/77/146 35/110/147
f 37/112/148 36/113/149 65/68/150
f 65/68/151 64/67/152 37/112/153
f 36/114/154 42/115/155 66/78/156
f 66/78/157 65/80/158 36/114/159
f 42/115/160 41/116/161 67/76/162
f 67/76/163 66/78/164 42/115/165
f 41/116/166 40/117/167 68/74/168
f 68/74/169 67/76/170 41/116/171
f 40/117/172 39/118/173 69/72/174
f 69/72/175 68/74/176 40/117/177
f 39/118/178 38/119/179 70/70/180
f 70/70/181 69/72/182 39/118/183
f 38/119/184 37/112/185 64/67/186
f 64/67/187 70/70/188 38/119/189
f 9/120/190 8/121/191 72/4/192
f 72/4/1 71/3/2 9/120/193
f 8/122/194 14/123/195 73/14/13
f 73/14/13 72/16/196 8/122/194
f 14/123/197 13/124/198 74/12/11
f 74/12/199 73/14/200 14/123/197
f 13/124/201 12/125/202 75/10/9
f 75/10/9 74/12/199 13/124/203
f 12/125/204 11/126/205 76/8/206
f 76/8/207 75/10/208 12/125/204
f 11/126/209 10/127/210 77/6/211
f 77/6/5 76/8/207 11/126/212
f 10/127/210 9/120/213 71/3/214
f 71/3/2 77/6/5 10/127/215
s 1
f 37/128/216 39/129/217 41/130/218
f 78/5/219 79/7/220 92/8/8
f 92/8/8 93/6/221 78/5/219
f 79/7/220 80/9/222 91/10/10
f 91/10/10 92/8/8 79/7/220
f 80/9/222 81/11/223 90/12/224
f 90/12/224 91/10/10 80/9/222
f 82/21/225 83/23/18 87/24/18
f 87/24/18 86/22/225 82/21/225
f 83/23/18 84/25/19 88/26/19
f 88/26/19 87/24/18 83/23/18
f 84/25/19 85/27/226 89/28/226
f 89/28/226 88/26/19 84/25/19
s 0
f 85/124/201 84/125/202 91/10/9
f 91/10/9 90/12/199 85/124/203
f 84/125/204 83/126/205 92/8/206
f 92/8/207 91/10/208 84/125/204
f 83/126/209 82/127/210 93/6/211
f 93/6/5 92/8/207 83/126/212
s 1
f 99/81/227 98/82/227 97/83/227
f 97/83/227 96/84/227 95/85/227
f 97/83/227 95/85/227 94/86/227
f 99/81/227 97/83/227 94/86/227
f 100/87/227 99/81/227 94/86/227
f 42/131/228 36/132/229 37/128/216
f 37/128/216 38/133/17 39/129/217
f 39/129/217 40/134/230 41/130/218
f 41/130/218 42/131/228 37/128/216
