# Blender 4.2.0
# www.blender.org
o practice_broadsword_hull
v 0.024535 -0.189606 -0.000334
v 0.015297 -0.189606 -0.019516
v -0.005460 -0.189606 -0.024254
v -0.022105 -0.189606 -0.010980
v -0.022105 -0.189606 0.010311
v -0.005460 -0.189606 0.023586
v 0.015297 -0.189606 0.018848
v 0.027140 0.869088 -0.000333
v 0.016922 0.869088 -0.021552
v -0.006039 0.869088 -0.026793
v -0.024451 0.869088 -0.012108
v -0.024451 0.869088 0.011442
v -0.006039 0.869088 0.026125
v 0.016922 0.869088 0.020886
v 0.042341 0.116640 -0.000333
v 0.026398 0.116640 -0.033437
v -0.009421 0.116640 -0.041612
v -0.038148 0.116640 -0.018704
v -0.038148 0.116640 0.018037
v -0.009421 0.116640 0.040945
v 0.026398 0.116640 0.032770
v 0.026398 0.134931 -0.033437
v 0.042341 0.134931 -0.000333
v 0.026398 0.134931 0.032770
v -0.009421 0.134931 0.040945
v -0.038148 0.134931 0.018037
v -0.038148 0.134931 -0.018704
v -0.009421 0.134931 -0.041612
v 0.019646 0.864928 -0.024969
v 0.031510 0.864928 -0.000333
v 0.019646 0.864928 0.024302
v -0.007011 0.864928 0.030387
v -0.028390 0.864928 0.013338
v -0.028390 0.864928 -0.014005
v -0.007011 0.864928 -0.031053
v 0.016406 -0.168488 -0.020907
v 0.026314 -0.168488 -0.000334
v 0.016406 -0.168488 0.020239
v -0.023708 -0.168488 0.011083
v -0.005855 -0.168488 -0.025988
v -0.005855 -0.168488 0.025320
v -0.023708 -0.168488 -0.011751
vn -0.1773 -0.6505 -0.7385
vn 0.1767 -0.3005 -0.9373
vn 0.1866 -0.0405 -0.9816
vn 0.7281 -0.0404 -0.6843
vn 0.7611 -0.6485 -0.0168
vn 0.4666 -0.6505 0.5992
vn 0.9923 -0.0328 -0.1198
vn 0.6233 -0.0237 0.7816
vn -0.2225 -0.0000 -0.9749
vn -0.9010 -0.0000 -0.4339
vn -0.0656 0.0049 -0.9978
vn -0.9010 -0.0000 0.4339
vn -0.2225 -0.0000 0.9749
vn -0.0656 0.0049 0.9978
vn 0.3912 -0.8096 0.4376
vn 0.8914 -0.4488 0.0629
vn 0.5976 -0.4458 0.6664
vn 0.5026 -0.4010 0.7659
vn 0.4949 -0.3968 0.7731
vn 0.9034 -0.4287 -0.0057
vn 0.8934 -0.4461 0.0533
vn -0.2597 -0.4487 0.8551
vn -0.7827 -0.4457 0.4344
vn -0.8586 -0.4009 0.3196
vn -0.8638 -0.3968 0.3105
vn -0.1955 -0.4287 0.8821
vn -0.2508 -0.4461 0.8591
vn -0.1370 -0.4488 -0.8831
vn 0.5166 -0.4458 -0.7310
vn 0.6347 -0.4010 -0.6606
vn 0.6435 -0.3969 -0.6545
vn -0.2066 -0.4288 -0.8795
vn -0.1467 -0.4463 -0.8828
vn 0.6236 -0.0000 -0.7818
vn -0.9318 -0.2015 0.3018
vn -0.2226 -0.0000 0.9749
vn 0.7382 -0.0183 -0.6743
vn 0.6235 0.0074 0.7818
vn 0.6235 -0.0000 0.7818
vn 0.2222 -0.0506 0.9737
vn 0.6234 0.0148 0.7818
vn 0.2225 0.0134 0.9748
vn 1.0000 0.0074 -0.0000
vn 0.9875 -0.0183 -0.1567
vn -0.6234 0.0134 -0.7818
vn -0.9987 -0.0506 -0.0000
vn -0.6227 -0.0506 0.7808
vn 0.9999 0.0148 -0.0000
vn -0.6839 -0.6538 -0.3236
vn -0.0152 -0.3539 -0.9352
vn -0.4528 0.6875 -0.5677
vn 0.6235 0.0074 -0.7818
vn 0.2225 0.0134 -0.9748
vn 0.6234 0.0148 -0.7817
vn -0.6234 0.0134 0.7818
vn 0.9124 -0.0867 0.4001
vn 0.8998 -0.0506 0.4333
vn 0.8816 -0.0867 0.4639
vn -0.5817 0.4119 -0.7014
vn -0.5940 -0.0404 -0.8034
vn -0.9284 -0.0656 -0.3657
vn -0.9084 -0.0631 0.4133
vn -0.2217 -0.0839 0.9715
vn 0.9151 -0.3538 0.1933
vn -0.2115 0.1902 -0.9587
vn 0.8937 -0.4457 -0.0519
vn -0.9999 0.0134 -0.0000
vn -0.6227 -0.0506 -0.7808
vn -0.5930 -0.0867 -0.8005
vn -0.8277 -0.4457 -0.3409
vn -0.4211 -0.0164 0.9068
vn -0.1841 0.2339 -0.9547
vn -0.0819 -0.9027 -0.4223
vn -0.9971 -0.0757 -0.0000
vn 0.1870 -0.0868 -0.9785
vn 0.2222 -0.0506 -0.9737
vn 0.2561 -0.0867 -0.9628
vn -0.3919 -0.3539 0.8492
vn 0.9817 0.1903 0.0072
vn -0.1482 -0.4457 0.8828
vn 0.6234 -0.0000 0.7819
vn 1.0000 -0.0000 0.0001
vn 0.2485 -0.2880 -0.9248
vn -0.9010 -0.0000 0.4338
vn -0.6217 -0.0757 -0.7796
vn 0.9151 -0.3539 0.1933
vn 0.5588 -0.4288 -0.7099
vn -0.2115 0.1903 -0.9587
vn -0.8277 -0.4457 -0.3411
vn -0.7407 -0.3539 -0.5711
vn -0.4212 -0.0164 0.9068
vn -0.3919 -0.3540 0.8492
vn 0.9778 -0.0164 0.2089
vn 0.9817 0.1902 0.0072
vt 0.367725 0.317347
vt 0.337965 0.319948
vt 0.333894 0.278125
vt 0.361385 0.275978
vt 0.218118 0.317322
vt 0.189130 0.314090
vt 0.195759 0.271536
vt 0.224483 0.275955
vt 0.328132 0.229644
vt 0.302264 0.229718
vt 0.302265 0.200188
vt 0.328133 0.200262
vt 0.276424 0.229718
vt 0.276424 0.200188
vt 0.250556 0.229644
vt 0.250556 0.200262
vt 0.421085 0.206885
vt 0.445233 0.204017
vt 0.408270 0.227552
vt 0.203294 0.119367
vt 0.225383 0.121070
vt 0.224368 0.129660
vt 0.196813 0.128468
vt 0.250579 0.120767
vt 0.276399 0.120628
vt 0.276416 0.129342
vt 0.250548 0.129414
vt 0.328093 0.120767
vt 0.353289 0.121070
vt 0.354304 0.129660
vt 0.328124 0.129415
vt 0.441541 0.965760
vt 0.410215 0.965760
vt 0.378893 0.965760
vt 0.354312 0.229398
vt 0.224376 0.200508
vt 0.224376 0.229398
vt 0.000000 0.000000
vt 0.381867 0.199318
vt 0.196821 0.230589
vt 0.302256 0.129342
vt 0.277895 0.321180
vt 0.302274 0.120628
vt 0.354312 0.200508
vt 0.307957 0.321182
vt 0.247880 0.319936
vt 0.390111 0.271571
vt 0.381867 0.230589
vt 0.381859 0.128469
vt 0.375378 0.119367
vt 0.459953 0.245290
vt 0.279273 0.279191
vt 0.396714 0.314127
vt 0.363231 0.965760
vt 0.457205 0.965760
vt 0.425877 0.965760
vt 0.394554 0.965760
s 1
f 2/1/1 3/2/2 40/3/3
f 40/3/3 36/4/4 2/1/1
f 7/5/5 1/6/6 37/7/7
f 37/7/7 38/8/8 7/5/5
f 17/9/9 18/10/10 27/11/10
f 27/11/10 28/12/11 17/9/9
f 18/10/10 19/13/12 26/14/12
f 26/14/12 27/11/10 18/10/10
f 19/13/12 20/15/13 25/16/14
f 25/16/14 26/14/12 19/13/12
f 7/17/5 6/18/15 1/19/6
s 0
f 8/20/16 14/21/17 31/22/18
f 31/22/19 30/23/20 8/20/21
f 13/24/22 12/25/23 33/26/24
f 33/26/25 32/27/26 13/24/27
f 10/28/28 9/29/29 29/30/30
f 29/30/31 35/31/32 10/28/33
s 1
f 9/32/34 11/33/35 13/34/36
f 28/12/11 16/35/37 17/9/9
f 24/36/38 20/15/13 21/37/39
s 0
f 41/38/40 21/37/40 20/15/40
s 1
f 25/16/14 31/22/41 32/38/42
f 23/39/43 21/37/39 15/40/44
s 0
f 35/38/45 27/11/45 34/41/45
f 18/10/46 39/38/46 19/38/46
f 20/15/47 39/38/47 41/38/47
s 1
f 24/36/38 30/23/48 31/22/41
f 5/42/49 1/19/6 6/18/15
f 11/43/35 35/31/50 34/41/51
f 22/44/52 35/31/53 29/30/54
s 0
f 33/26/55 25/16/55 32/27/55
f 37/7/56 21/37/57 38/8/58
f 4/45/59 40/3/60 3/2/61
s 1
f 39/38/62 6/46/15 41/38/63
f 37/47/7 16/35/37 15/48/44
f 23/39/43 29/30/54 30/49/48
s 0
f 30/49/64 9/29/65 8/50/66
f 27/11/67 33/26/67 34/41/67
s 1
f 22/44/52 15/48/44 16/35/37
s 0
f 42/38/68 17/9/68 40/3/69
f 11/43/70 33/26/71 12/25/72
s 1
f 2/1/1 4/51/73 3/2/2
f 41/38/63 7/5/5 38/8/8
f 42/38/74 5/42/49 39/52/62
s 0
f 40/3/75 16/35/76 36/4/77
s 1
f 2/1/1 37/47/7 1/53/6
s 0
f 32/27/78 14/21/79 13/24/80
s 1
f 14/54/81 8/55/82 9/32/34
f 9/32/34 10/56/83 11/33/35
f 11/33/35 12/57/84 13/34/36
f 13/34/36 14/54/81 9/32/34
f 28/12/11 22/44/52 16/35/37
f 24/36/38 25/16/14 20/15/13
s 0
f 41/38/40 38/38/40 21/37/40
s 1
f 25/16/14 24/36/38 31/22/41
f 23/39/43 24/36/38 21/37/39
s 0
f 35/38/45 28/12/45 27/11/45
f 18/10/46 42/38/46 39/38/46
f 20/15/47 19/38/47 39/38/47
s 1
f 24/36/38 23/39/43 30/23/48
f 5/42/49 4/45/73 1/19/6
f 11/43/35 10/28/83 35/31/50
f 22/44/52 28/12/11 35/31/53
s 0
f 33/26/55 26/14/55 25/16/55
f 37/7/56 15/40/57 21/37/57
f 4/45/59 42/38/85 40/3/60
s 1
f 39/38/62 5/42/49 6/46/15
f 37/47/7 36/38/4 16/35/37
f 23/39/43 22/44/52 29/30/54
s 0
f 30/49/86 29/30/87 9/29/88
f 27/11/67 26/38/67 33/26/67
s 1
f 22/44/52 23/39/43 15/48/44
s 0
f 42/38/68 18/10/68 17/9/68
f 11/43/89 34/41/90 33/26/91
s 1
f 2/1/1 1/19/6 4/51/73
f 41/38/63 6/46/15 7/5/5
f 42/38/74 4/45/73 5/42/49
s 0
f 40/3/75 17/9/76 16/35/76
s 1
f 2/1/1 36/4/4 37/47/7
s 0
f 32/27/92 31/22/93 14/21/94
