# Blender 4.2.0
# www.blender.org
o practice_sword_hull
v 0.024535 -0.091986 0.007092
v 0.015297 -0.091986 -0.012090
v -0.005460 -0.091986 -0.016828
v -0.022105 -0.091986 -0.003554
v -0.022105 -0.091986 0.017737
v -0.005460 -0.091986 0.031012
v 0.015297 -0.091986 0.026274
v 0.018093 0.728928 0.007092
v 0.011281 0.728928 -0.007054
v -0.004026 0.728928 -0.010548
v -0.016301 0.728928 -0.000758
v -0.016301 0.728928 0.014942
v -0.004026 0.728928 0.024731
v 0.011281 0.728928 0.021238
v 0.042341 0.107450 0.007092
v 0.026398 0.107450 -0.026011
v -0.009421 0.107450 -0.034187
v -0.038148 0.107450 -0.011279
v -0.038148 0.107450 0.025463
v -0.009421 0.107450 0.048371
v 0.026398 0.107450 0.040195
v 0.026398 0.125741 -0.026011
v 0.042341 0.125741 0.007092
v 0.026398 0.125741 0.040195
v -0.009421 0.125741 0.048371
v -0.038148 0.125741 0.025463
v -0.038148 0.125741 -0.011279
v -0.009421 0.125741 -0.034187
v 0.016406 0.726367 -0.013481
v 0.026314 0.726367 0.007092
v 0.016406 0.726367 0.027665
v -0.005855 0.726367 0.032746
v -0.023708 0.726367 0.018509
v -0.023708 0.726367 -0.004325
v -0.005855 0.726367 -0.018562
vn -0.2223 -0.0440 -0.9740
vn -0.8221 -0.0288 -0.5686
vn -0.9010 -0.0000 -0.4339
vn -0.0660 0.0087 -0.9978
vn -0.9010 -0.0000 0.4339
vn -0.0681 -0.0288 0.9973
vn -0.2225 -0.0000 0.9749
vn 0.0541 -0.6887 0.7230
vn -0.3829 -0.9055 0.1828
vn 0.2518 -0.8985 -0.3596
vn 1.0000 0.0002 -0.0000
vn 0.6234 0.0002 0.7819
vn 0.6235 0.0002 0.7818
vn 1.0000 0.0002 0.0001
vn -0.2224 0.0002 0.9750
vn -0.2225 0.0002 0.9749
vn 0.6235 0.0002 0.7819
vn -0.9010 0.0001 -0.4338
vn -0.2225 0.0002 -0.9749
vn -0.9010 0.0002 -0.4338
vn -0.9010 0.0002 -0.4339
vn 0.6236 -0.0000 -0.7818
vn -0.9009 -0.0000 -0.4339
vn -0.2226 -0.0000 0.9749
vn 0.7390 0.0087 0.6737
vn 0.6229 -0.0440 0.7811
vn 0.6234 0.0133 -0.7818
vn 0.9990 -0.0440 -0.0000
vn 0.6229 -0.0440 -0.7811
vn -0.9968 -0.0802 -0.0000
vn -0.9044 0.4263 0.0192
vn 0.2225 0.0240 0.9746
vn -0.6233 0.0240 0.7816
vn -0.5520 0.4165 0.7224
vn -0.6215 -0.0802 0.7793
vn -0.1498 -0.0695 0.9863
vn 0.9996 0.0267 -0.0000
vn 0.9007 0.0240 0.4338
vn -0.7942 0.0371 -0.6065
vn -0.0563 0.2922 -0.9547
vn -0.0000 -0.8673 -0.4978
vn 0.2225 0.0240 -0.9746
vn 0.6233 0.0267 -0.7816
vn 0.9999 0.0133 -0.0000
vn 0.6908 -0.6891 -0.2188
vn -0.6178 -0.3267 -0.7153
vn 0.4676 -0.6554 -0.5931
vn -0.6233 0.0240 -0.7816
vn -0.9694 0.0371 0.2426
vn 0.7194 0.2970 0.6279
vn -0.9010 0.0001 0.4338
vn -0.9997 0.0240 -0.0000
vn 0.9611 0.2646 0.0797
vn -0.9206 0.2971 -0.2536
vn -0.9176 0.2911 -0.2706
vn 0.9787 0.0371 0.2021
vn -0.3757 0.2970 -0.8779
vn 1.0000 0.0002 -0.0001
vn 0.6234 -0.0000 0.7819
vn 1.0000 -0.0000 0.0001
vn -0.2225 -0.0000 -0.9749
vn -0.9010 -0.0000 0.4338
vn -0.8745 -0.0703 0.4800
vn -0.7941 0.0372 -0.6066
vn -0.3291 0.1979 0.9233
vn 0.5168 0.1980 0.8329
vn 0.7194 0.2970 0.6278
vn 0.9610 0.2647 0.0798
vn -0.8269 0.1979 -0.5263
vn 0.9787 0.0371 0.2020
vn 0.6235 0.0002 -0.7818
vn -0.3758 0.2970 -0.8778
vt 0.328132 0.229644
vt 0.302264 0.229718
vt 0.302265 0.200188
vt 0.328133 0.200262
vt 0.276424 0.229718
vt 0.276424 0.200188
vt 0.250556 0.229644
vt 0.250556 0.200262
vt 0.421085 0.206885
vt 0.445233 0.204017
vt 0.408270 0.227552
vt 0.203294 0.119367
vt 0.225383 0.121070
vt 0.224368 0.129660
vt 0.196813 0.128468
vt 0.250579 0.120767
vt 0.250548 0.129414
vt 0.302274 0.120628
vt 0.328093 0.120767
vt 0.328124 0.129415
vt 0.302256 0.129342
vt 0.441541 0.965760
vt 0.410215 0.965760
vt 0.378893 0.965760
vt 0.224376 0.200508
vt 0.224376 0.229398
vt 0.354312 0.200508
vt 0.381867 0.230589
vt 0.354312 0.229398
vt 0.277895 0.321180
vt 0.000000 0.000000
vt 0.196821 0.230589
vt 0.276416 0.129342
vt 0.247880 0.319936
vt 0.276399 0.120628
vt 0.354304 0.129660
vt 0.381867 0.199318
vt 0.381859 0.128469
vt 0.189130 0.314090
vt 0.218118 0.317322
vt 0.367725 0.317347
vt 0.459953 0.245290
vt 0.337965 0.319948
vt 0.307957 0.321182
vt 0.353289 0.121070
vt 0.375378 0.119367
vt 0.396714 0.314127
vt 0.363231 0.965760
vt 0.457205 0.965760
vt 0.425877 0.965760
vt 0.394554 0.965760
s 1
f 17/1/1 18/2/2 27/3/3
f 27/3/3 28/4/4 17/1/1
f 18/2/2 19/5/5 26/6/5
f 26/6/5 27/3/3 18/2/2
f 19/5/5 20/7/6 25/8/7
f 25/8/7 26/6/5 19/5/5
f 7/9/8 6/10/9 1/11/10
s 0
f 8/12/11 14/13/12 31/14/13
f 31/14/13 30/15/14 8/12/11
f 14/13/13 13/16/15 32/17/15
f 32/17/16 31/14/12 14/13/17
f 11/18/18 10/19/19 35/20/19
f 35/20/19 34/21/20 11/18/21
s 1
f 9/22/22 11/23/23 13/24/24
f 24/25/25 20/7/6 21/26/26
f 22/27/27 15/28/28 16/29/29
s 0
f 18/2/30 5/30/31 19/31/30
f 32/31/32 24/25/32 31/14/32
s 1
f 15/32/28 24/25/25 21/26/26
s 0
f 33/33/33 25/8/33 32/17/33
s 1
f 20/7/6 7/31/8 21/26/26
s 0
f 6/34/34 19/31/35 5/30/36
s 1
f 24/25/25 30/15/37 31/14/38
s 0
f 34/21/39 12/35/40 11/18/20
s 1
f 5/30/41 1/11/10 6/10/9
f 22/27/27 35/20/42 29/36/43
f 23/37/44 29/36/43 30/38/37
f 1/39/10 21/26/26 7/40/8
f 2/41/45 4/42/46 3/43/47
f 2/41/45 17/1/1 16/29/29
s 0
f 35/31/48 27/3/48 34/21/48
f 33/33/49 13/16/50 12/35/51
f 27/3/52 33/33/52 34/21/52
s 1
f 28/4/4 16/29/29 17/1/1
f 4/44/46 17/1/1 3/43/47
s 0
f 29/36/53 10/19/54 9/45/55
f 30/38/56 9/45/57 8/46/58
s 1
f 1/47/10 16/29/29 15/28/28
f 14/48/59 8/49/60 9/22/22
f 9/22/22 10/50/61 11/23/23
f 11/23/23 12/51/62 13/24/24
f 13/24/24 14/48/59 9/22/22
f 24/25/25 25/8/7 20/7/6
f 22/27/27 23/37/44 15/28/28
s 0
f 18/2/30 4/44/63 5/30/31
f 32/31/32 25/8/32 24/25/32
s 1
f 15/32/28 23/37/44 24/25/25
s 0
f 33/33/33 26/6/33 25/8/33
s 1
f 20/7/6 6/34/9 7/31/8
s 0
f 6/34/34 20/7/35 19/31/35
s 1
f 24/25/25 23/37/44 30/15/37
s 0
f 34/21/64 33/33/65 12/35/40
s 1
f 5/30/41 4/44/46 1/11/10
f 22/27/27 28/4/4 35/20/42
f 23/37/44 22/27/27 29/36/43
f 1/39/10 15/32/28 21/26/26
f 2/41/45 1/11/10 4/42/46
f 2/41/45 3/43/47 17/1/1
s 0
f 35/31/48 28/4/48 27/3/48
f 33/33/49 32/17/66 13/16/67
f 27/3/52 26/31/52 33/33/52
s 1
f 28/4/4 22/27/27 16/29/29
f 4/44/46 18/2/2 17/1/1
s 0
f 29/36/68 35/20/69 10/19/54
f 30/38/70 29/36/71 9/45/72
s 1
f 1/47/10 2/31/45 16/29/29
