# Blender 3.4.1
# www.blender.org
mtllib Bandage_Strip_1_HULL.mtl
o Bandage_Strip_1
v 0.027998 0.136911 -0.005348
v 0.034540 -0.110136 -0.004688
v -0.031683 -0.104918 -0.009251
v -0.049745 -0.209631 -0.006206
v -0.037725 -0.267219 -0.008612
v -0.038772 -0.273097 0.002531
v 0.038263 -0.265481 0.008272
v 0.002793 -0.289046 -0.000019
v 0.038193 -0.266879 -0.001939
v 0.049678 -0.167204 0.004380
v 0.046552 -0.098965 0.009493
v 0.037367 -0.015987 0.009799
v -0.050582 0.019968 0.000932
v -0.038208 -0.085631 0.004571
v -0.051272 0.153868 -0.000855
v -0.047948 -0.005233 -0.008271
v -0.048474 0.133663 -0.008590
v 0.033227 0.131896 0.009617
v -0.032668 0.130450 0.005219
v 0.048503 0.162350 0.006337
v 0.037129 0.236341 0.008240
v -0.040886 0.238338 0.002121
v -0.023291 0.251493 0.001837
v 0.019368 0.255078 0.001796
v -0.038495 0.239717 -0.008198
v 0.034694 0.239401 -0.003954
v 0.047429 0.190698 -0.000708
vn 0.1315 0.0044 -0.9913
vn 0.2840 -0.0070 -0.9588
vn -0.0225 -0.0050 -0.9997
vn -0.5901 0.0081 -0.8073
vn -0.9547 -0.0339 -0.2958
vn -0.5272 -0.3671 -0.7663
vn 0.0784 -0.9967 -0.0204
vn -0.6571 -0.6149 0.4360
vn -0.8633 -0.0025 0.5046
vn -0.2083 -0.0084 0.9780
vn 0.5201 0.0006 0.8541
vn 0.6244 -0.3968 0.6728
vn 0.6861 -0.4576 -0.5656
vn 0.0320 0.0034 0.9995
vn -0.1806 0.0092 0.9835
vn 0.9984 -0.0366 -0.0438
vn -0.9355 0.0630 0.3477
vn -0.5604 0.0055 -0.8282
vn 0.0632 0.0072 0.9980
vn 0.8310 0.0061 0.5563
vn 0.6546 0.3748 0.6566
vn -0.7451 0.3853 0.5444
vn -0.2327 0.9239 0.3036
vn -0.5552 0.4503 -0.6993
vn 0.1994 0.9785 0.0531
vn 0.6189 0.4265 -0.6596
vn 0.8873 0.0990 -0.4505
vt 0.893726 0.873018
vt 0.883757 0.592731
vt 0.958687 0.600771
vt 0.980446 0.506984
vt 0.837867 0.916070
vt 0.836581 0.967669
vt 0.969734 0.419957
vt 0.823726 0.967770
vt 0.763473 0.973617
vt 0.940572 0.397736
vt 0.794398 0.984116
vt 0.759437 0.979204
vt 0.887636 0.417166
vt 0.730292 0.875400
vt 0.866368 0.560968
vt 0.730124 0.798889
vt 0.747063 0.703553
vt 0.840483 0.663701
vt 0.818648 0.786446
vt 0.981377 0.900438
vt 0.847768 0.509853
vt 0.969176 0.714198
vt 0.849546 0.740871
vt 0.968360 0.868846
vt 0.751444 0.532477
vt 0.825040 0.539055
vt 0.735582 0.498713
vt 0.891074 0.980803
vt 0.746422 0.416312
vt 0.965715 0.975160
vt 0.837655 0.413992
vt 0.947707 0.988215
vt 0.815859 0.395241
vt 0.912455 0.988486
vt 0.766277 0.395450
vt 0.958256 0.971071
vt 0.898630 0.976679
vt 0.731437 0.466940
vt 0.878239 0.932660
s 1
usemtl Bandage.002
f 1/1/1 2/2/2 3/3/3
f 16/22/4 3/3/3 4/4/5
f 3/3/3 5/7/6 4/4/5
f 8/11/7 6/8/8 5/6/6
f 4/5/5 5/6/6 6/8/8
f 13/18/9 6/8/8 14/19/10
f 4/5/5 6/8/8 13/18/9
f 11/16/11 6/8/8 7/9/12
f 8/11/7 9/12/13 7/9/12
f 5/7/6 9/13/13 8/10/7
f 2/2/2 9/13/13 5/7/6
f 2/2/2 5/7/6 3/3/3
f 12/17/14 19/26/15 14/19/10
f 19/26/15 13/18/9 14/19/10
f 11/16/11 14/19/10 6/8/8
f 11/16/11 7/9/12 10/14/16
f 9/12/13 10/14/16 7/9/12
f 12/17/14 14/19/10 11/16/11
f 13/18/9 15/21/17 16/23/4
f 13/18/9 19/26/15 15/21/17
f 17/24/18 16/22/4 15/20/17
f 16/22/4 1/1/1 3/3/3
f 12/17/14 18/25/19 19/26/15
f 18/25/19 20/27/20 21/29/21
f 19/26/15 18/25/19 21/29/21
f 19/26/15 21/29/21 22/31/22
f 21/29/21 23/33/23 22/31/22
f 22/30/22 23/32/23 25/36/24
f 23/32/23 24/34/25 25/36/24
f 24/34/25 26/37/26 25/36/24
f 26/37/26 21/28/21 27/39/27
f 21/28/21 26/37/26 24/34/25
f 27/38/27 21/29/21 20/27/20
f 23/33/23 21/29/21 24/35/25
f 27/39/27 1/1/1 26/37/26
f 26/37/26 1/1/1 17/24/18
f 25/36/24 26/37/26 17/24/18
f 17/24/18 1/1/1 16/22/4
f 22/30/22 25/36/24 15/20/17
f 25/36/24 17/24/18 15/20/17
f 2/2/2 1/1/1 27/39/27
f 27/38/27 20/27/20 11/16/11
f 12/17/14 11/16/11 20/27/20
f 20/27/20 18/25/19 12/17/14
f 22/31/22 15/21/17 19/26/15
f 13/18/9 16/23/4 4/5/5
f 11/16/11 10/14/16 27/38/27
f 27/39/27 10/15/16 2/2/2
f 10/15/16 9/13/13 2/2/2
f 6/8/8 8/11/7 7/9/12
