# Blender 3.4.1
# www.blender.org
mtllib Bandage_Stump_HULL.mtl
o Bandage_Stump
v 0.023564 -0.065200 0.029353
v 0.035743 -0.071821 0.005628
v 0.055713 -0.013853 0.051984
v -0.001895 -0.031910 0.054121
v -0.000936 -0.062309 -0.012860
v -0.037595 -0.044200 -0.020654
v -0.020204 -0.049816 0.023883
v -0.040735 -0.016723 0.056030
v -0.018778 0.003073 0.068430
v -0.031209 0.036375 0.069051
v 0.043512 0.034645 0.039900
v 0.005758 0.087991 0.010386
v 0.029925 0.068525 -0.011747
v 0.072906 0.029443 -0.020046
v 0.071625 0.020377 0.024943
v 0.069357 -0.026852 0.034163
v 0.055560 -0.068858 0.003585
v -0.032607 -0.032745 -0.057988
v -0.059584 -0.020913 -0.038298
v -0.063956 -0.024902 -0.002944
v -0.009813 0.007111 -0.005288
v -0.070995 -0.008817 0.032920
v -0.051950 -0.033252 0.023608
v -0.059602 0.032029 0.067225
v -0.029442 0.076910 0.050668
v -0.021576 0.100763 0.008942
v -0.019530 0.100206 -0.044472
v 0.001237 0.085950 -0.042559
v 0.049501 0.007723 -0.059180
v -0.034343 0.052481 -0.085810
v -0.054798 0.015288 -0.079421
v -0.050675 -0.006947 -0.085086
v 0.024864 -0.025720 -0.062304
v 0.075441 -0.029310 -0.040844
v 0.084525 -0.006098 -0.021041
v 0.076109 -0.043241 -0.016200
v 0.035901 -0.065949 -0.032775
vn -0.0587 -0.5578 0.8279
vn -0.3899 -0.8555 0.3407
vn 0.0463 -0.8449 0.5330
vn -0.3312 -0.9362 -0.1177
vn -0.5052 -0.8497 -0.1510
vn -0.5715 -0.7699 0.2839
vn -0.3820 -0.5238 0.7614
vn -0.0051 -0.1248 0.9922
vn 0.5096 0.5213 0.6845
vn 0.0816 0.1759 0.9810
vn -0.1939 0.7322 0.6529
vn 0.5369 0.7991 0.2705
vn 0.6961 0.7123 -0.0903
vn 0.7871 0.5537 -0.2717
vn 0.8136 0.4033 0.4188
vn 0.4918 -0.1073 0.8640
vn 0.7785 -0.3288 0.5347
vn 0.0674 -0.9774 0.2005
vn 0.4890 -0.8402 0.2346
vn 0.1522 -0.8470 -0.5093
vn -0.3062 -0.7956 -0.5227
vn -0.4700 -0.3644 -0.8039
vn -0.9830 -0.1319 -0.1279
vn -0.8518 -0.5196 -0.0670
vn -0.9941 0.0220 0.1066
vn -0.8032 0.1930 0.5635
vn -0.8814 0.4641 -0.0880
vn -0.4560 0.8864 0.0804
vn -0.3470 0.8849 -0.3106
vn 0.5876 0.6728 -0.4496
vn 0.5346 0.1911 -0.8232
vn -0.2834 0.4465 -0.8487
vn -0.9251 0.2328 -0.2998
vn 0.2105 -0.3784 -0.9014
vn 0.7310 -0.2916 -0.6169
vn 0.9764 0.0916 -0.1956
vn 0.8385 -0.5328 -0.1140
vt 0.237934 0.128712
vt 0.253450 0.149652
vt 0.188407 0.140597
vt 0.209660 0.096352
vt 0.282972 0.112353
vt 0.296761 0.067340
vt 0.247479 0.086613
vt 0.204213 0.050950
vt 0.179707 0.071323
vt 0.346409 0.174258
vt 0.140587 0.056192
vt 0.142968 0.134120
vt 0.074986 0.136142
vt 0.099785 0.173768
vt 0.144841 0.194493
vt 0.161883 0.163254
vt 0.198050 0.159160
vt 0.237008 0.228930
vt 0.244833 0.166780
vt 0.335277 0.064483
vt 0.145519 0.353661
vt 0.324364 0.034212
vt 0.272634 0.285650
vt 0.270697 0.243456
vt 0.279745 0.028361
vt 0.320562 0.262742
vt 0.231830 0.022561
vt 0.289477 0.209345
vt 0.245113 0.045433
vt 0.335740 0.187158
vt 0.175444 0.021773
vt 0.108299 0.069837
vt 0.380242 0.202037
vt 0.051340 0.118225
vt 0.404556 0.265715
vt 0.026273 0.189573
vt 0.397716 0.320135
vt 0.051012 0.193953
vt 0.141843 0.236813
vt 0.032259 0.276448
vt 0.336567 0.352518
vt 0.293249 0.330943
vt 0.358357 0.038591
vt 0.083997 0.350508
vt 0.269907 0.332078
vt 0.154237 0.275242
vt 0.183162 0.229261
vt 0.175320 0.202133
vt 0.212649 0.213915
vt 0.213743 0.195750
vt 0.282929 0.157845
vt 0.217608 0.274634
s 1
usemtl Bandage.005
f 4/4/1 7/7/2 1/1/3
f 1/1/3 7/7/2 5/5/4
f 5/5/4 7/7/2 6/6/5
f 6/6/5 7/7/2 23/29/6
f 7/7/2 8/8/7 23/29/6
f 8/8/7 4/4/1 9/9/8
f 9/9/8 11/12/9 10/11/10
f 11/12/9 25/32/11 10/11/10
f 11/12/9 12/13/12 25/32/11
f 13/14/13 12/13/12 11/12/9
f 14/15/14 13/14/13 15/16/15
f 15/16/15 13/14/13 11/12/9
f 11/12/9 3/3/16 15/16/15
f 11/12/9 9/9/8 3/3/16
f 9/9/8 4/4/1 3/3/16
f 4/4/1 1/1/3 3/3/16
f 15/16/15 3/3/16 16/17/17
f 3/3/16 1/1/3 16/17/17
f 2/2/18 17/19/19 16/17/17
f 2/2/18 1/1/3 5/5/4
f 2/2/18 37/51/20 17/19/19
f 2/2/18 5/5/4 37/51/20
f 37/51/20 5/5/4 18/20/21
f 5/5/4 6/6/5 18/20/21
f 32/43/22 18/20/21 6/6/5
f 19/22/23 32/43/22 6/6/5
f 20/25/24 19/22/23 6/6/5
f 19/23/23 20/24/24 22/28/25
f 20/25/24 23/29/6 22/27/25
f 23/29/6 8/8/7 22/27/25
f 22/27/25 8/8/7 24/31/26
f 21/26/27 22/28/25 24/30/26
f 26/35/28 24/30/26 25/33/11
f 26/34/28 25/32/11 12/13/12
f 27/36/29 12/13/12 28/38/30
f 26/34/28 12/13/12 27/36/29
f 12/13/12 13/14/13 28/38/30
f 29/39/31 30/40/32 28/38/30
f 29/39/31 28/38/30 13/14/13
f 30/40/32 27/36/29 28/38/30
f 24/30/26 26/35/28 21/26/27
f 21/26/27 27/37/29 31/42/33
f 32/45/22 19/23/23 31/42/33
f 33/46/34 18/21/21 32/44/22
f 29/39/31 33/46/34 30/40/32
f 14/15/14 34/47/35 29/39/31
f 35/48/36 34/47/35 14/15/14
f 15/16/15 35/48/36 14/15/14
f 16/17/17 35/48/36 15/16/15
f 36/50/37 35/48/36 16/17/17
f 36/49/37 34/47/35 35/48/36
f 17/18/19 34/47/35 36/49/37
f 29/39/31 34/47/35 33/46/34
f 33/46/34 34/47/35 37/52/20
f 37/52/20 34/47/35 17/18/19
f 17/19/19 36/50/37 16/17/17
f 14/15/14 29/39/31 13/14/13
f 37/52/20 18/21/21 33/46/34
f 30/40/32 33/46/34 32/44/22
f 31/42/33 27/37/29 30/41/32
f 31/42/33 30/41/32 32/45/22
f 21/26/27 31/42/33 19/23/23
f 19/23/23 22/28/25 21/26/27
f 21/26/27 26/35/28 27/37/29
f 25/33/11 24/30/26 10/10/10
f 10/11/10 24/31/26 8/8/7
f 10/11/10 8/8/7 9/9/8
f 23/29/6 20/25/24 6/6/5
f 16/17/17 1/1/3 2/2/18
f 4/4/1 8/8/7 7/7/2
