# Blender 3.4.1
# www.blender.org
mtllib Bandage_Strip_2_HULL.mtl
o Bandage_Strip_2
v 0.042829 -0.034428 0.071441
v -0.033014 -0.021724 0.063491
v 0.040054 -0.022072 0.082537
v 0.041173 0.064011 0.066136
v 0.043478 0.073263 0.070661
v 0.034812 -0.209899 0.071150
v -0.049034 -0.215926 0.072249
v -0.057432 -0.023360 0.071195
v -0.053319 0.076895 0.060094
v 0.053192 0.063777 -0.180747
v 0.054692 0.074922 -0.155979
v -0.026937 0.073857 -0.182634
v -0.035701 0.063697 -0.173869
v -0.050654 0.063067 0.056770
v 0.030318 -0.218442 0.081556
vn -0.0633 -0.0509 -0.9967
vn 0.6853 0.5797 0.4408
vn 0.7883 0.2354 -0.5684
vn 0.6199 0.5409 0.5685
vn 0.8086 -0.4300 -0.4015
vn 0.7412 -0.3762 -0.5560
vn -0.7740 -0.6326 -0.0282
vn -0.9909 -0.0333 0.1306
vn -0.6639 0.5866 0.4639
vn 0.6102 -0.2084 -0.7643
vn 0.7639 0.6360 -0.1091
vn -0.3750 0.4267 -0.8230
vn -0.7959 -0.4433 -0.4123
vn -0.7127 -0.3838 -0.5872
vn 0.4141 -0.7949 0.4433
vt 0.686887 0.803684
vt 0.604162 0.792230
vt 0.694352 0.791613
vt 0.451627 0.772621
vt 0.694507 0.685064
vt 0.702047 0.691348
vt 0.443473 0.665701
vt 0.665356 0.967491
vt 0.564126 0.961595
vt 0.614825 0.984737
vt 0.549789 0.758511
vt 0.581196 0.779790
vt 0.553930 0.685749
vt 0.530965 0.661588
vt 0.505402 0.399691
vt 0.645919 0.442842
vt 0.658437 0.449544
vt 0.474180 0.423731
vt 0.547954 0.432528
vt 0.584867 0.448234
vt 0.552209 0.436052
vt 0.566946 0.687516
vt 0.497299 0.983247
vt 0.669569 0.974934
s 1
usemtl Bandage.003
f 2/2/1 3/3/2 1/1/3
f 5/6/4 3/3/2 4/5/5
f 2/2/1 4/5/5 3/3/2
f 1/1/3 3/3/2 6/8/6
f 2/2/1 6/8/6 7/10/7
f 8/12/8 2/2/1 7/10/7
f 3/4/2 8/11/8 7/9/7
f 9/14/9 8/11/8 3/4/2
f 5/7/4 9/14/9 3/4/2
f 5/6/4 10/16/10 11/17/11
f 9/14/9 11/18/11 12/19/12
f 12/19/12 11/18/11 10/15/10
f 13/21/13 12/19/12 10/15/10
f 13/20/13 10/16/10 4/5/5
f 13/20/13 14/22/14 9/13/9
f 9/13/9 14/22/14 8/12/8
f 14/22/14 2/2/1 8/12/8
f 4/5/5 2/2/1 14/22/14
f 4/5/5 10/16/10 5/6/4
f 13/20/13 4/5/5 14/22/14
f 13/21/13 9/14/9 12/19/12
f 11/18/11 9/14/9 5/7/4
f 2/2/1 1/1/3 6/8/6
f 6/8/6 3/3/2 15/24/15
f 7/9/7 15/23/15 3/4/2
f 6/8/6 15/24/15 7/10/7
