# Blender 3.4.1
# www.blender.org
mtllib Bandage_Roll_Unwrapped_HULL.mtl
o Bandage_Roll_Unwrapped
v 0.000798 -0.016850 -0.063887
v 0.024049 -0.044440 -0.030570
v -0.010310 -0.046479 -0.064581
v -0.014096 -0.050536 -0.048018
v -0.032203 -0.036125 -0.069910
v -0.068834 -0.049907 -0.048710
v -0.063555 -0.048824 -0.022909
v -0.045036 -0.050640 -0.027531
v -0.020385 -0.052803 -0.023626
v -0.041984 -0.048248 0.002307
v -0.020490 0.042936 -0.067245
v 0.011240 0.051941 -0.047886
v 0.001016 0.052117 -0.038681
v -0.059018 0.051068 -0.055035
v -0.040896 0.053198 -0.041369
v -0.017062 0.051575 -0.031802
v -0.042035 0.052232 -0.015081
v 0.024597 0.005656 -0.033896
v 0.104008 -0.019319 0.036668
v 0.107630 -0.007791 0.042899
v 0.012020 -0.051171 0.000807
v 0.087171 -0.042633 0.032012
v 0.072104 -0.007058 0.033192
v 0.080746 -0.014942 0.038272
v -0.016313 -0.049090 0.008263
v 0.026898 0.018918 -0.004047
v 0.015881 -0.039030 0.016021
v 0.022653 -0.039823 0.029745
v 0.021818 0.049739 -0.016243
v 0.103266 0.021175 0.038616
v 0.100959 0.012193 0.043327
v 0.092396 0.041897 0.036329
v 0.084985 0.037604 0.041746
v -0.012229 0.051151 0.006656
v 0.013065 0.044754 0.019626
v -0.079784 -0.042411 -0.018180
v -0.053708 -0.050038 0.027286
v -0.072404 -0.010285 0.009634
v -0.074160 0.048440 0.000931
v -0.077214 0.041162 -0.025696
v -0.044496 0.051319 0.015294
v -0.063501 0.046307 0.021383
v -0.030198 -0.052045 0.018188
v 0.010085 -0.049041 0.024580
v -0.032803 -0.018744 0.034078
v -0.022687 -0.048451 0.028026
v -0.049796 0.016249 0.029083
v 0.014037 0.045400 0.026795
v -0.013216 0.045219 0.032999
vn 0.5316 -0.0489 -0.8456
vn 0.7926 -0.5614 -0.2379
vn 0.2744 -0.6515 -0.7073
vn -0.1614 -0.2722 -0.9486
vn 0.0284 -0.9814 -0.1898
vn 0.6357 -0.7609 -0.1304
vn -0.0170 -0.9998 -0.0038
vn 0.4014 -0.8450 -0.3533
vn -0.1161 -0.9900 -0.0802
vn 0.5497 0.6890 -0.4723
vn 0.0867 0.4552 -0.8862
vn -0.4832 0.6456 -0.5914
vn 0.0336 0.9989 0.0328
vn -0.0279 0.9988 -0.0397
vn 0.0132 0.9982 0.0588
vn -0.0350 0.9990 0.0264
vn 0.8251 -0.1871 0.5331
vn 0.6738 -0.7209 -0.1621
vn 0.8948 0.4040 -0.1901
vn 0.9789 0.0639 0.1940
vn 0.9300 0.0308 -0.3663
vn 0.6660 -0.7450 -0.0378
vn 0.1982 0.0546 -0.9786
vn -0.0636 -0.1817 0.9813
vn -0.0347 -0.2465 0.9685
vn 0.6244 -0.6548 -0.4258
vn 0.4345 -0.8734 0.2200
vn 0.0295 -0.9995 0.0127
vn 0.7149 0.6992 0.0042
vn 0.0238 0.3995 0.9164
vn 0.2688 0.1159 0.9562
vn 0.6301 0.7545 -0.1837
vn 0.4071 0.9060 -0.1159
vn -0.0106 0.7861 0.6180
vn 0.0721 0.9850 0.1566
vn -0.3815 -0.6784 0.6279
vn -0.8831 -0.4667 0.0477
vn -0.5682 -0.6701 -0.4776
vn -0.8562 -0.0378 0.5153
vn -0.3427 0.0300 0.9390
vn -0.9138 0.3537 -0.1998
vn -0.7345 0.6453 0.2101
vn -0.0619 0.9706 0.2325
vn -0.5252 0.5352 0.6616
vn -0.1100 -0.9686 -0.2228
vn -0.4370 -0.8162 0.3780
vn 0.0691 -0.7432 0.6655
vn -0.0866 -0.0294 0.9958
vn 0.1381 0.4758 0.8686
vt 0.740661 0.124795
vt 0.774603 0.086677
vt 0.118066 0.517070
vt 0.775033 0.142366
vt 0.086560 0.483028
vt 0.083489 0.501412
vt 0.756976 0.165833
vt 0.033699 0.507066
vt 0.767966 0.207610
vt 0.036647 0.527879
vt 0.053844 0.525109
vt 0.076745 0.528015
vt 0.060947 0.552637
vt 0.089328 0.719291
vt 0.681983 0.149514
vt 0.672392 0.100905
vt 0.106498 0.707305
vt 0.091124 0.687288
vt 0.674257 0.194936
vt 0.044144 0.704634
vt 0.052244 0.688153
vt 0.079906 0.681943
vt 0.057451 0.661375
vt 0.722527 0.087529
vt 0.440543 0.184045
vt 0.556024 0.295283
vt 0.618875 0.277805
vt 0.621704 0.296798
vt 0.437531 0.196045
vt 0.555428 0.311108
vt 0.795066 0.053084
vt 0.109632 0.550146
vt 0.541145 0.277657
vt 0.458613 0.163813
vt 0.478383 0.197546
vt 0.584764 0.291788
vt 0.529920 0.305048
vt 0.083475 0.552566
vt 0.715618 0.054419
vt 0.778197 0.033982
vt 0.108453 0.574394
vt 0.539562 0.162508
vt 0.470324 0.283258
vt 0.786972 0.356138
vt 0.117696 0.674871
vt 0.676700 0.054933
vt 0.443073 0.230324
vt 0.554162 0.349149
vt 0.438565 0.218068
vt 0.531025 0.345862
vt 0.543086 0.364051
vt 0.457803 0.244708
vt 0.535534 0.361060
vt 0.084722 0.647608
vt 0.667903 0.368212
vt 0.689943 0.018491
vt 0.546981 0.243297
vt 0.116034 0.627659
vt 0.760877 0.241491
vt 0.775108 0.282100
vt 0.037950 0.568267
vt 0.737051 0.266252
vt 0.676052 0.254307
vt 0.022229 0.649554
vt 0.684290 0.230979
vt 0.672311 0.286749
vt 0.055635 0.629795
vt 0.683960 0.283509
vt 0.071237 0.567991
vt 0.536574 0.141329
vt 0.466963 0.266724
vt 0.101893 0.581135
vt 0.800767 0.351045
vt 0.753822 0.313139
vt 0.789438 0.315995
vt 0.073790 0.583621
vt 0.718129 0.305156
vt 0.463141 0.366225
vt 0.542085 0.254488
vt 0.684350 0.369085
vt 0.080906 0.613715
vt 0.684507 0.337322
s 1
usemtl Bandage.001
f 1/1/1 2/2/2 3/4/3
f 1/1/1 3/4/3 5/7/4
f 4/6/5 7/10/6 3/5/3
f 9/12/7 10/13/8 8/11/9
f 12/17/10 11/14/11 14/20/12
f 13/18/13 12/17/10 15/21/14
f 13/18/13 15/21/14 16/22/15
f 17/23/16 16/22/15 15/21/14
f 4/6/5 3/5/3 2/3/2
f 20/29/17 19/25/18 30/47/19
f 26/39/20 2/2/2 18/24/21
f 22/34/22 23/35/23 19/25/18
f 24/37/24 28/43/25 22/33/22
f 30/47/19 19/25/18 23/35/23
f 19/26/18 24/37/24 22/33/22
f 20/28/17 24/36/24 19/27/18
f 27/40/26 2/2/2 26/39/20
f 27/40/26 21/31/27 2/2/2
f 22/34/22 44/70/28 27/42/26
f 18/24/21 1/1/1 12/16/10
f 12/16/10 29/46/29 18/24/21
f 26/39/20 18/24/21 29/46/29
f 30/48/19 33/53/30 31/50/31
f 32/52/32 23/35/23 35/57/33
f 31/50/31 48/78/34 28/43/25
f 33/53/30 48/78/34 31/50/31
f 24/37/24 31/50/31 28/43/25
f 29/45/29 13/18/13 34/54/35
f 35/58/33 29/45/29 34/54/35
f 37/60/36 36/59/37 6/9/38
f 7/10/6 37/61/36 6/8/38
f 36/59/37 37/60/36 38/62/39
f 37/60/36 47/77/40 38/62/39
f 40/65/41 36/59/37 39/63/42
f 41/66/43 39/63/42 42/68/44
f 10/13/8 9/12/7 25/38/45
f 43/69/46 25/38/45 21/32/27
f 10/13/8 25/38/45 43/69/46
f 46/76/47 43/69/46 27/41/26
f 28/44/25 45/74/48 46/75/47
f 46/76/47 7/10/6 43/69/46
f 48/80/34 47/77/40 45/74/48
f 45/74/48 47/77/40 37/60/36
f 46/75/47 45/74/48 37/60/36
f 49/82/49 48/80/34 35/55/33
f 34/54/35 17/23/16 41/67/43
f 35/58/33 41/67/43 49/81/49
f 49/82/49 41/66/43 42/68/44
f 49/82/49 42/68/44 47/77/40
f 5/7/4 3/4/3 6/9/38
f 14/19/12 5/7/4 6/9/38
f 4/6/5 8/11/9 7/10/6
f 9/12/7 8/11/9 4/6/5
f 7/10/6 6/8/38 3/5/3
f 11/15/11 1/1/1 5/7/4
f 11/15/11 5/7/4 14/19/12
f 15/21/14 12/17/10 14/20/12
f 18/24/21 2/2/2 1/1/1
f 21/32/27 4/6/5 2/3/2
f 21/32/27 9/12/7 4/6/5
f 22/33/22 28/43/25 44/71/28
f 9/12/7 21/32/27 25/38/45
f 12/16/10 1/1/1 11/15/11
f 13/18/13 29/45/29 12/17/10
f 20/29/17 30/47/19 31/49/31
f 23/35/23 32/52/32 30/47/19
f 32/51/32 33/53/30 30/48/19
f 13/18/13 16/22/15 34/54/35
f 24/37/24 20/30/17 31/50/31
f 26/39/20 29/46/29 35/56/33
f 35/56/33 27/40/26 26/39/20
f 23/35/23 27/42/26 35/57/33
f 33/53/30 32/51/32 48/78/34
f 32/52/32 35/57/33 48/79/34
f 36/59/37 40/65/41 6/9/38
f 10/13/8 7/10/6 8/11/9
f 10/13/8 43/69/46 7/10/6
f 17/23/16 15/21/14 39/64/42
f 14/19/12 6/9/38 40/65/41
f 39/63/42 14/19/12 40/65/41
f 41/67/43 17/23/16 39/64/42
f 38/62/39 39/63/42 36/59/37
f 38/62/39 42/68/44 39/63/42
f 21/32/27 27/41/26 43/69/46
f 44/72/28 46/76/47 27/41/26
f 28/44/25 46/75/47 44/73/28
f 28/44/25 48/80/34 45/74/48
f 46/76/47 37/61/36 7/10/6
f 34/54/35 16/22/15 17/23/16
f 35/58/33 34/54/35 41/67/43
f 48/80/34 49/82/49 47/77/40
f 47/77/40 42/68/44 38/62/39
f 23/35/23 22/34/22 27/42/26
f 39/64/42 15/21/14 14/20/12
