# Blender 3.4.1
# www.blender.org
mtllib Bandage_Roll_Full_HULL.mtl
o Bandage_Roll_Full
v 0.049192 0.050822 -0.019468
v 0.044879 0.048412 0.029385
v 0.039512 0.054281 0.005806
v -0.000185 0.050043 0.048242
v 0.015364 0.014695 0.050608
v 0.007560 -0.014778 0.051825
v -0.014444 0.016094 0.049900
v -0.046129 0.046426 0.024972
v -0.037544 0.052918 -0.001650
v -0.046827 -0.047011 0.018173
v 0.003110 -0.046847 0.042655
v -0.027170 -0.037925 0.042579
v 0.028491 -0.040190 0.041581
v 0.052397 -0.042904 -0.013799
v 0.034437 -0.041506 -0.042823
v 0.001101 -0.046795 -0.054416
v -0.001484 -0.048436 -0.022313
v 0.020490 -0.047101 0.026257
v -0.020048 -0.045101 0.004472
v -0.026297 -0.045817 -0.047891
v -0.051746 -0.035753 -0.021243
v -0.049279 0.050277 -0.025411
v -0.017844 0.046575 -0.052112
v 0.000662 0.055194 -0.034801
v 0.017322 0.049386 -0.054128
v -0.016564 0.050691 0.024954
v 0.050487 -0.023887 0.018877
vn 0.6861 0.5397 0.4879
vn 0.7616 0.5889 -0.2705
vn 0.2499 0.9657 0.0709
vn -0.0406 0.6760 0.7357
vn 0.3728 0.0006 0.9279
vn 0.1371 -0.0904 0.9864
vn -0.3285 0.0657 0.9422
vn -0.7144 0.5424 0.4422
vn -0.1935 0.9782 0.0746
vn -0.7419 0.5866 -0.3247
vn -0.8834 -0.3685 -0.2894
vn -0.4444 -0.4062 0.7984
vn -0.6764 -0.6822 0.2776
vn 0.0120 -0.7910 0.6117
vn 0.4942 -0.5293 0.6896
vn 0.1773 -0.9761 0.1255
vn 0.9171 -0.1700 0.3606
vn 0.7852 -0.6036 -0.1381
vn 0.0526 -0.6594 -0.7499
vn 0.5575 -0.5304 -0.6387
vn -0.0133 -0.9999 -0.0026
vn -0.0062 -1.0000 0.0004
vn -0.4248 -0.6398 -0.6404
vn -0.3190 0.5074 -0.8005
vn -0.0253 0.9867 -0.1608
vn 0.2918 0.5584 -0.7765
vn -0.0840 0.9909 0.1055
vt 0.033606 0.936822
vt 0.860661 0.135617
vt 0.041940 0.967801
vt 0.850490 0.087519
vt 0.837346 0.082236
vt 0.056072 0.952420
vt 0.104693 0.968203
vt 0.837086 0.341510
vt 0.835393 0.033403
vt 0.878128 0.037675
vt 0.923564 0.382409
vt 0.920388 0.031159
vt 0.884726 0.016380
vt 0.874419 0.355272
vt 0.864971 0.019047
vt 0.861236 0.305269
vt 0.107291 0.899568
vt 0.851431 0.281590
vt 0.952029 0.317024
vt 0.094779 0.757052
vt 0.955285 0.374854
vt 0.959951 0.027345
vt 0.045682 0.774365
vt 0.939523 0.347526
vt 0.943798 0.057457
vt 0.035292 0.829731
vt 0.946606 0.115366
vt 0.063618 0.848537
vt 0.952068 0.160851
vt 0.951818 0.197915
vt 0.087557 0.841247
vt 0.084892 0.809299
vt 0.960803 0.057399
vt 0.038142 0.797013
vt 0.081150 0.776934
vt 0.954003 0.233119
vt 0.116678 0.785932
vt 0.942807 0.266166
vt 0.867465 0.262254
vt 0.865548 0.224377
vt 0.057310 0.896832
vt 0.849753 0.213011
vt 0.863500 0.188786
vt 0.110172 0.936841
vt 0.840087 0.329288
vt 0.926775 0.086739
s 1
usemtl Bandage
f 2/3/1 1/1/2 3/6/3
f 2/4/1 3/5/3 4/9/4
f 2/4/1 4/9/4 5/10/5
f 5/10/5 6/12/6 2/4/1
f 5/10/5 7/13/7 6/12/6
f 8/16/8 7/14/7 4/8/4
f 9/18/9 22/39/10 8/16/8
f 8/16/8 22/39/10 21/38/11
f 12/24/12 8/16/8 10/19/13
f 7/14/7 12/24/12 6/11/6
f 6/11/6 12/24/12 11/21/14
f 7/14/7 8/16/8 12/24/12
f 11/21/14 12/24/12 10/19/13
f 2/4/1 6/12/6 13/25/15
f 13/25/15 6/12/6 11/22/14
f 13/25/15 11/22/14 18/33/16
f 2/4/1 13/25/15 27/46/17
f 14/27/18 27/46/17 13/25/15
f 13/25/15 18/33/16 14/27/18
f 14/26/18 16/31/19 15/28/20
f 17/32/21 16/31/19 14/26/18
f 19/35/22 17/32/21 18/34/16
f 20/37/23 17/32/21 19/35/22
f 19/35/22 10/20/13 20/37/23
f 22/39/10 20/36/23 21/38/11
f 22/39/10 23/40/24 20/36/23
f 24/42/25 25/43/26 23/40/24
f 24/42/25 23/40/24 22/39/10
f 9/18/9 24/42/25 22/39/10
f 26/44/27 3/6/3 24/41/25
f 9/17/9 26/44/27 24/41/25
f 1/1/2 24/41/25 3/6/3
f 24/42/25 1/2/2 25/43/26
f 23/40/24 25/43/26 16/30/19
f 25/43/26 15/29/20 16/30/19
f 23/40/24 16/30/19 20/36/23
f 25/43/26 1/2/2 15/29/20
f 14/27/18 15/29/20 1/2/2
f 4/7/4 3/6/3 26/44/27
f 8/16/8 26/45/27 9/18/9
f 4/8/4 26/45/27 8/16/8
f 8/16/8 21/38/11 10/19/13
f 10/19/13 21/38/11 20/36/23
f 11/23/14 10/20/13 19/35/22
f 11/23/14 19/35/22 18/34/16
f 17/32/21 14/26/18 18/34/16
f 17/32/21 20/37/23 16/31/19
f 2/4/1 14/27/18 1/2/2
f 2/4/1 27/46/17 14/27/18
f 4/9/4 7/15/7 5/10/5
