# Max2Obj Version 4.0 Mar 10th, 2001
#
# object Box12 to come ...
#
v  -0.101541 0.000732 0.114002
v  0.090650 0.000732 0.114002
v  -0.101541 0.000732 -0.083757
v  0.090650 0.000732 -0.083757
v  -0.060533 0.642403 -0.041561
v  0.049641 0.642403 -0.041561
v  -0.101541 0.454657 0.114002
v  0.090650 0.454657 0.114002
v  -0.101541 0.454657 -0.083757
v  0.090650 0.454657 -0.083757
v  -0.050683 0.510976 0.058098
v  0.039791 0.510976 0.058098
v  0.039791 0.510976 -0.027854
v  -0.050683 0.510976 -0.027854
v  -0.059668 0.677613 0.070603
v  0.048777 0.677613 0.070603
v  0.048777 0.677613 -0.040359
v  -0.059668 0.677613 -0.040359
v  -0.051914 0.673212 0.059812
v  -0.051914 0.673212 -0.029567
v  0.041022 0.673212 -0.029567
v  0.041022 0.673212 0.059812
v  -0.063100 0.646804 0.075385
v  0.052208 0.646804 0.075385
v  0.052208 0.646804 -0.045141
v  -0.063100 0.646804 -0.045141
v  -0.063100 0.673212 0.075385
v  -0.063100 0.673212 -0.045141
v  0.052208 0.673212 -0.045141
v  0.052208 0.673212 0.075385
v  -0.005446 0.000732 0.015122
v  -0.005446 0.510976 0.015122
v  -0.005446 0.000732 0.114002
v  -0.005446 0.642403 0.091139
v  -0.005446 0.642403 -0.060894
v  0.090650 0.000732 0.015122
v  0.068431 0.642403 0.015122
v  -0.079322 0.642403 0.015122
v  -0.005446 0.533970 0.114002
v  -0.005446 0.533970 -0.083757
v  0.090650 0.533970 0.015122
v  -0.101541 0.533970 0.015122
v  -0.005446 0.510976 0.072975
v  0.053625 0.510976 0.015122
v  -0.005446 0.510976 -0.042730
v  -0.064517 0.510976 0.015122
v  -0.005446 0.677613 0.089560
v  0.067134 0.677613 0.015122
v  -0.005446 0.677613 -0.059316
v  -0.078026 0.677613 0.015122
v  -0.066367 0.673212 0.015122
v  -0.005446 0.673212 -0.045001
v  0.055476 0.673212 0.015122
v  -0.005446 0.673212 0.075245
v  -0.005446 0.646804 0.095982
v  0.072309 0.646804 0.015122
v  -0.005446 0.646804 -0.065738
v  -0.083201 0.646804 0.015122
v  -0.083201 0.673212 0.015122
v  -0.005446 0.673212 -0.065738
v  0.072309 0.673212 0.015122
v  -0.005446 0.673212 0.095982
v  -0.047777 0.514408 0.114002
v  0.036885 0.514408 0.114002
v  -0.005446 0.000732 -0.083757
v  -0.056147 0.507500 -0.083757
v  0.045256 0.507500 -0.083757
v  0.090650 0.512556 0.060988
v  0.090650 0.509206 -0.034921
v  -0.060533 0.642403 0.071805
v  -0.101541 0.512556 0.060988
v  -0.101541 0.000732 0.015122
v  -0.101541 0.509206 -0.034921
v  0.049641 0.642403 0.071805
# 74 vertices

vt  0.578900 0.013401 -0.492838
vt  0.801715 0.021450 -0.500000
vt  0.390562 0.025716 -0.484366
vt  0.171287 0.058963 -0.491528
vt  0.461785 0.786696 -0.498025
vt  0.829078 0.829714 -0.499352
vt  0.175431 0.547826 0.000000
vt  0.175431 0.372190 0.000000
vt  0.028124 0.547826 0.000000
vt  0.028124 0.372190 0.000000
vt  0.462359 0.758234 0.455547
vt  0.327276 0.783777 0.451441
vt  0.581277 0.814548 0.499365
vt  0.586027 0.529707 0.174427
vt  0.707757 0.827724 0.498058
vt  0.775041 0.536893 0.167265
vt  0.435526 0.540060 0.182899
vt  0.234015 0.576718 0.175737
vt  0.021634 0.736088 0.257715
vt  0.020687 0.844529 0.254343
vt  0.019921 0.932361 0.258025
vt  0.022400 0.648257 0.261397
vt  0.206963 0.737660 0.496171
vt  0.207728 0.649920 0.500000
vt  0.205250 0.933932 0.496537
vt  0.206016 0.846193 0.492708
vt  0.090505 0.286519 0.257870
vt  0.690624 0.015267 -0.496419
vt  0.808125 0.871500 0.498693
vt  0.472471 0.829380 0.500000
vt  0.581059 0.828177 0.374578
vt  0.475846 0.842047 0.375089
vt  0.795087 0.879824 0.373969
vt  0.704686 0.840958 0.373458
vt  0.581502 0.776968 -0.373908
vt  0.716829 0.791720 -0.375297
vt  0.828775 0.836875 -0.374608
vt  0.463150 0.792808 -0.373219
vt  0.581605 0.806912 0.374623
vt  0.470138 0.822266 0.375312
vt  0.815800 0.865415 0.373923
vt  0.709649 0.820561 0.373235
vt  0.650250 0.774298 -0.499448
vt  0.395566 0.804072 -0.498578
vt  0.776030 0.804722 -0.499903
vt  0.521022 0.775177 -0.498123
vt  0.644810 0.818902 0.498605
vt  0.759846 0.844580 0.498156
vt  0.410643 0.844704 0.499455
vt  0.526482 0.819214 0.499905
vt  0.528265 0.832886 0.375009
vt  0.416409 0.857763 0.374618
vt  0.753541 0.856788 0.373540
vt  0.643222 0.832959 0.373930
vt  0.649458 0.780752 -0.374721
vt  0.774171 0.810693 -0.375195
vt  0.101778 0.460008 0.000000
vt  0.669089 0.751811 0.447809
vt  0.391388 0.768748 0.454322
vt  0.397359 0.810231 -0.373796
vt  0.521766 0.781468 -0.373322
vt  0.101778 0.547826 0.000000
vt  0.101778 0.372190 0.000000
vt  0.525553 0.811397 0.375211
vt  0.406987 0.838090 0.374737
vt  0.894314 0.032575 -0.495764
vt  0.804276 0.760969 0.448313
vt  0.528673 0.752796 0.453819
vt  0.675810 0.625681 0.287435
vt  0.357079 0.647375 0.295907
vt  0.840606 0.639519 0.288090
vt  0.517450 0.626492 0.295252
vt  0.021159 0.790309 0.255392
vt  0.763487 0.838317 0.373338
vt  0.645931 0.810820 0.373812
vt  0.581415 0.770801 -0.498673
vt  0.718366 0.785823 -0.500001
vt  0.334014 0.829977 -0.499352
vt  0.352582 0.872009 0.498693
vt  0.364469 0.881377 0.373969
vt  0.334192 0.837008 -0.374608
vt  0.345817 0.865736 0.373923
vt  0.175431 0.460008 0.000000
vt  0.028124 0.460008 0.000000
vt  0.020276 0.888445 0.255669
vt  0.019449 0.986305 0.260348
vt  0.021989 0.692172 0.260071
vt  0.207318 0.693789 0.498624
vt  0.204774 0.988475 0.498930
vt  0.205605 0.890062 0.494084
vt  0.206489 0.791926 0.493778
vt  0.635118 0.601456 0.260256
vt  0.718827 0.604198 0.257101
vt  0.280325 0.042253 -0.487947
vt  0.403408 0.608503 0.258885
vt  0.295951 0.626841 0.255106
vt  0.806977 0.609813 0.254647
vt  0.889741 0.618278 0.253830
vt  0.594104 0.749769 0.450690
vt  0.550996 0.599233 0.261808
vt  0.484501 0.017002 -0.488602
vt  0.476502 0.600096 0.260992
vt  0.742967 0.754045 0.446584
vt  0.986165 0.043809 -0.491528
vt  0.859305 0.775360 0.451441
vt  0.945336 0.564574 0.175737
vt  0.142158 0.326564 0.257715
vt  0.038808 0.326506 0.254343
vt  0.038852 0.246475 0.258025
vt  0.142203 0.246533 0.261397
vt  0.090475 0.340386 0.255392
vt  0.023027 0.286482 0.255669
vt  0.090535 0.232653 0.260348
vt  0.157983 0.286557 0.260071
vt  0.022869 0.594312 0.260348
vt  0.208204 0.595377 0.498930
# 116 texture vertices

vn  0.000000 -0.000000 0.008200
vn  0.000000 -0.000000 0.008200
vn  0.000000 0.000000 -0.008200
vn  0.000000 0.000000 -0.008200
vn  -0.005878 0.001525 -0.003641
vn  0.002327 0.001423 -0.007779
vn  0.000000 -0.000000 0.012575
vn  0.000000 -0.000000 0.012575
vn  0.000000 0.000000 -0.012695
vn  0.000000 0.000000 -0.012695
vn  0.000000 0.009399 0.000000
vn  0.000000 0.009399 0.000000
vn  0.000000 0.009399 0.000000
vn  0.000000 0.009399 0.000000
vn  -0.000869 0.004053 0.001177
vn  0.000872 0.004054 0.001170
vn  0.000869 0.004053 -0.001177
vn  -0.000872 0.004054 -0.001170
vn  0.002113 0.002832 -0.002909
vn  0.002124 0.002833 0.002896
vn  -0.002113 0.002832 0.002909
vn  -0.002124 0.002833 -0.002896
vn  -0.002691 -0.001384 0.003670
vn  0.002688 -0.001385 0.003673
vn  0.002691 -0.001384 -0.003670
vn  -0.002688 -0.001385 -0.003673
vn  -0.002627 0.001625 0.003590
vn  -0.002630 0.001624 -0.003587
vn  0.002627 0.001625 -0.003590
vn  0.002630 0.001624 0.003587
vn  0.000000 -0.004255 -0.000000
vn  0.000000 0.004255 0.000000
vn  0.000000 -0.000000 0.015542
vn  -0.001595 0.001479 0.008016
vn  0.001868 0.001122 -0.008009
vn  0.000000 -0.013368 -0.000000
vn  0.006376 0.001307 0.003181
vn  -0.012752 0.002613 0.000000
vn  -0.000663 0.001435 0.010243
vn  0.001390 0.001949 -0.010271
vn  0.008340 0.002378 0.002235
vn  -0.016775 0.004761 -0.000090
vn  0.000000 0.011139 0.000000
vn  0.000000 0.010167 0.000000
vn  0.000000 0.011139 0.000000
vn  0.000000 0.010167 0.000000
vn  -0.000002 0.004118 0.001315
vn  0.001214 0.004078 0.000002
vn  0.000002 0.004118 -0.001315
vn  -0.001214 0.004078 -0.000002
vn  0.003252 0.002744 0.000006
vn  -0.000008 0.002644 0.004090
vn  -0.003252 0.002744 -0.000006
vn  0.000008 0.002644 -0.004090
vn  0.000003 -0.001435 0.004914
vn  0.004020 -0.001395 -0.000002
vn  -0.000003 -0.001435 -0.004914
vn  -0.004020 -0.001395 0.000002
vn  -0.003927 0.001638 -0.000002
vn  0.000003 0.001682 -0.004795
vn  0.003927 0.001638 0.000002
vn  -0.000003 0.001682 0.004795
vn  0.000000 -0.000000 0.004254
vn  0.000000 -0.000000 0.004254
vn  0.000000 0.000000 -0.015359
vn  0.000000 0.000000 -0.004226
vn  0.000000 0.000000 -0.004226
vn  0.003038 0.000000 -0.000000
vn  0.003023 0.000000 -0.000000
vn  -0.007089 0.002598 0.009251
vn  -0.004581 0.001393 0.000979
vn  0.000000 -0.013368 -0.000000
vn  -0.004376 0.001315 -0.000979
vn  0.004545 0.001169 0.003658
# 74 vertex normals

g Box12
s 2
f 33/28/33 63/92/63 7/14/7
f 7/14/7 1/1/1 33/28/33
f 33/28/33 2/2/2 8/16/8
f 8/16/8 64/93/64 33/28/33
s 4
f 9/17/9 66/95/66 65/94/65
f 65/94/65 3/3/3 9/17/9
f 4/4/4 65/94/65 67/96/67
f 67/96/67 10/18/10 4/4/4
s 8
f 1/7/1 72/62/72 31/57/31
f 31/57/31 33/83/33 1/7/1
f 2/8/2 33/83/33 31/57/31
f 31/57/31 36/63/36 2/8/2
f 72/62/72 3/9/3 65/84/65
f 65/84/65 31/57/31 72/62/72
f 36/63/36 31/57/31 65/84/65
f 65/84/65 4/10/4 36/63/36
s 16
f 36/66/36 68/97/68 8/16/8
f 8/16/8 2/2/2 36/66/36
f 36/66/36 4/104/4 10/106/10
f 10/106/10 69/98/69 36/66/36
s 32
f 12/108/12 44/112/44 32/27/32
f 32/27/32 43/111/43 12/108/12
f 11/107/11 43/111/43 32/27/32
f 32/27/32 46/114/46 11/107/11
f 44/112/44 13/109/13 45/113/45
f 45/113/45 32/27/32 44/112/44
f 46/114/46 32/27/32 45/113/45
f 45/113/45 14/110/14 46/114/46
s 536870912
f 42/72/42 71/100/71 70/99/70
f 70/99/70 38/68/38 42/72/42
f 5/11/5 73/102/73 42/72/42
f 42/72/42 38/68/38 5/11/5
f 34/58/34 70/99/70 63/92/63
f 63/92/63 39/69/39 34/58/34
f 8/16/8 74/103/74 64/93/64
f 9/17/9 5/11/5 66/95/66
f 6/12/6 67/96/67 40/70/40
f 40/70/40 35/59/35 6/12/6
f 41/71/41 37/67/37 74/103/74
f 74/103/74 68/97/68 41/71/41
f 10/106/10 6/105/6 69/98/69
s 64
f 42/72/42 72/101/72 71/100/71
f 9/17/9 3/3/3 72/101/72
f 72/101/72 73/102/73 9/17/9
s 1
f 15/13/15 47/47/47 54/54/54
f 54/54/54 19/31/19 15/13/15
f 47/47/47 16/15/16 22/34/22
f 22/34/22 54/54/54 47/47/47
f 16/15/16 48/48/48 53/53/53
f 53/53/53 22/34/22 16/15/16
f 48/48/48 17/29/17 21/33/21
f 21/33/21 53/53/53 48/48/48
f 17/79/17 49/49/49 52/52/52
f 52/52/52 21/80/21 17/79/17
f 49/49/49 18/30/18 20/32/20
f 20/32/20 52/52/52 49/49/49
f 18/30/18 50/50/50 51/51/51
f 51/51/51 20/32/20 18/30/18
f 50/50/50 15/13/15 19/31/19
f 19/31/19 51/51/51 50/50/50
f 19/23/19 54/91/54 43/73/43
f 43/73/43 11/19/11 19/23/19
f 54/91/54 22/26/22 12/20/12
f 12/20/12 43/73/43 54/91/54
f 22/26/22 53/90/53 44/85/44
f 44/85/44 12/20/12 22/26/22
f 53/90/53 21/25/21 13/21/13
f 13/21/13 44/85/44 53/90/53
f 21/25/21 52/89/52 45/86/45
f 45/86/45 13/21/13 21/25/21
f 52/116/52 20/24/20 14/22/14
f 14/22/14 45/115/45 52/116/52
f 20/24/20 51/88/51 46/87/46
f 46/87/46 14/22/14 20/24/20
f 51/88/51 19/23/19 11/19/11
f 11/19/11 46/87/46 51/88/51
f 23/35/23 55/55/55 62/75/62
f 62/75/62 27/39/27 23/35/23
f 55/55/55 24/36/24 30/42/30
f 30/42/30 62/75/62 55/55/55
f 24/36/24 56/56/56 61/74/61
f 61/74/61 30/42/30 24/36/24
f 56/56/56 25/37/25 29/41/29
f 29/41/29 61/74/61 56/56/56
f 25/81/25 57/60/57 60/65/60
f 60/65/60 29/82/29 25/81/25
f 57/60/57 26/38/26 28/40/28
f 28/40/28 60/65/60 57/60/57
f 26/38/26 58/61/58 59/64/59
f 59/64/59 28/40/28 26/38/26
f 58/61/58 23/35/23 27/39/27
f 27/39/27 59/64/59 58/61/58
f 70/76/70 34/43/34 55/55/55
f 55/55/55 23/35/23 70/76/70
f 34/43/34 74/77/74 24/36/24
f 24/36/24 55/55/55 34/43/34
f 74/77/74 37/45/37 56/56/56
f 56/56/56 24/36/24 74/77/74
f 37/45/37 6/6/6 25/37/25
f 25/37/25 56/56/56 37/45/37
f 6/78/6 35/44/35 57/60/57
f 57/60/57 25/81/25 6/78/6
f 35/44/35 5/5/5 26/38/26
f 26/38/26 57/60/57 35/44/35
f 5/5/5 38/46/38 58/61/58
f 58/61/58 26/38/26 5/5/5
f 38/46/38 70/76/70 23/35/23
f 23/35/23 58/61/58 38/46/38
f 27/39/27 62/75/62 47/47/47
f 47/47/47 15/13/15 27/39/27
f 15/13/15 50/50/50 59/64/59
f 59/64/59 27/39/27 15/13/15
f 50/50/50 18/30/18 28/40/28
f 28/40/28 59/64/59 50/50/50
f 18/30/18 49/49/49 60/65/60
f 60/65/60 28/40/28 18/30/18
f 49/49/49 17/79/17 29/82/29
f 29/82/29 60/65/60 49/49/49
f 17/29/17 48/48/48 61/74/61
f 61/74/61 29/41/29 17/29/17
f 48/48/48 16/15/16 30/42/30
f 30/42/30 61/74/61 48/48/48
f 16/15/16 47/47/47 62/75/62
f 62/75/62 30/42/30 16/15/16
s 2
f 33/28/33 39/69/39 63/92/63
f 64/93/64 39/69/39 33/28/33
s 4
f 66/95/66 40/70/40 65/94/65
f 65/94/65 40/70/40 67/96/67
s 16
f 36/66/36 41/71/41 68/97/68
f 69/98/69 41/71/41 36/66/36
s 536870912
f 71/100/71 7/14/7 70/99/70
f 5/11/5 9/17/9 73/102/73
f 70/99/70 7/14/7 63/92/63
f 74/103/74 34/58/34 39/69/39
f 39/69/39 64/93/64 74/103/74
f 5/11/5 35/59/35 40/70/40
f 40/70/40 66/95/66 5/11/5
f 6/12/6 10/18/10 67/96/67
f 74/103/74 8/16/8 68/97/68
f 6/105/6 37/67/37 41/71/41
f 41/71/41 69/98/69 6/105/6
s 64
f 72/101/72 1/1/1 7/14/7
f 7/14/7 71/100/71 72/101/72
f 72/101/72 42/72/42 73/102/73
# 144 faces

g
