# Blender 4.5.0
# www.blender.org
g medium_wall.xml.089_Mesh
v 283.756104 -37.911964 54.669785
v 284.164185 -30.188776 54.649002
v 284.069641 -30.188774 54.203545
v 283.880066 -37.911964 54.124626
v 288.278259 -30.188774 54.253891
v 288.368896 -30.188774 54.641502
v 288.467834 -37.911964 54.534943
v 288.467834 -37.911964 54.124626
v 284.880798 -37.911961 63.471687
v 285.143494 -30.188774 63.399284
v 284.221619 -30.188776 63.382004
v 284.031982 -37.911961 63.437119
v 284.840820 -22.554790 62.959991
v 284.981018 -22.554790 63.001709
v 284.981018 -22.554790 62.713844
v 284.840820 -22.554790 62.714493
v 284.549500 -22.186852 54.254425
v 285.406128 -22.186852 54.254425
v 285.406128 -22.465580 54.192307
v 284.411255 -22.465580 54.192307
v 284.397278 -22.186850 63.115440
v 284.397278 -22.186850 62.759010
v 284.259277 -22.465580 62.759644
v 284.259277 -22.465580 63.176277
v 287.950623 -22.186852 54.343292
v 287.950623 -22.186852 54.748070
v 288.088623 -22.465580 54.748070
v 288.088623 -22.465580 54.282463
v 287.798340 -22.186850 63.204315
v 286.941406 -22.186850 63.204315
v 286.941406 -22.465580 63.266434
v 287.936584 -22.465580 63.266434
v 287.988647 -30.188774 54.106964
v 287.204041 -30.188774 54.106964
v 286.208313 -22.574659 54.192307
v 287.936584 -22.465580 54.192307
v 284.397278 -22.186852 54.748070
v 284.698242 -22.063829 54.748070
v 284.698242 -22.063829 54.466980
v 284.397278 -22.186852 54.343292
v 285.406128 -22.186848 63.204315
v 285.406128 -22.063829 63.068848
v 284.850403 -22.063829 63.068848
v 284.549500 -22.186850 63.204315
v 287.950623 -22.227844 62.738136
v 287.649658 -22.104822 62.739525
v 287.649658 -22.063829 62.991760
v 287.950623 -22.186850 63.115440
v 286.208313 -22.295929 54.254425
v 286.208313 -22.172909 54.389885
v 287.497498 -22.063829 54.389885
v 287.798340 -22.186852 54.254425
v 284.840820 -22.554790 54.789322
v 284.840820 -22.554790 54.500504
v 285.494141 -22.554790 63.001709
v 287.490051 -22.595783 62.697792
v 287.490051 -22.554790 62.959991
v 286.159973 -22.663870 54.458786
v 287.349854 -22.554790 54.458786
v 284.069641 -30.188776 63.285423
v 283.880066 -37.911961 63.334114
v 284.259277 -22.465580 54.282463
v 288.015442 -37.911961 53.983925
v 288.088623 -22.465580 63.176277
v 284.411255 -22.465580 63.266434
v 284.221619 -30.188776 54.106964
v 288.126282 -30.188772 63.382004
v 288.278259 -30.188772 63.285423
v 284.850403 -22.063829 54.389885
v 284.698242 -22.063829 62.991760
v 287.497498 -22.063829 63.068848
v 287.649658 -22.063829 54.466980
v 284.981018 -22.554790 54.458786
v 287.349854 -22.554790 63.001709
v 287.490051 -22.554790 54.500504
v 288.315918 -37.911961 63.437119
v 287.204041 -30.188774 63.382004
v 287.466736 -37.911961 63.437119
v 287.350525 -22.595783 62.698441
v 286.836426 -22.595783 62.700813
v 286.836426 -22.554790 63.001709
v 285.406128 -22.465580 63.266434
v 284.880798 -37.911964 53.990311
v 285.143494 -30.188776 54.106964
v 287.466736 -37.911961 54.021622
v 286.941406 -22.063829 63.068848
v 285.406128 -22.063829 54.389885
v 285.494141 -22.554790 54.458786
v 285.494141 -22.554790 62.711472
v 284.031982 -37.911964 54.021622
v 283.880066 -37.911961 62.979568
v 284.069641 -30.188776 62.869606
v 288.088623 -22.506573 62.737495
v 288.232849 -30.188772 62.576431
v 284.981018 -22.554790 54.789322
v 284.259277 -22.465580 54.748070
v 284.698242 -22.063829 62.757614
v 287.649658 -22.063829 54.748070
v 287.490051 -22.554790 54.789322
v 286.159973 -22.663870 54.789322
v 287.350037 -22.566273 54.789322
v 285.494141 -22.554790 54.789322
v 288.467834 -37.911961 63.272583
v 288.377014 -37.911961 62.415367
v 288.474854 -37.911762 47.636230
v 288.066772 -30.188576 47.657005
v 288.161316 -30.188574 48.102470
v 288.350891 -37.911762 48.181381
v 283.952698 -30.188574 48.052116
v 283.862061 -30.188574 47.664505
v 283.763123 -37.911762 47.771072
v 283.763123 -37.911762 48.181381
v 287.350159 -37.911762 38.834328
v 287.087463 -30.188574 38.906723
v 288.009338 -30.188576 38.924004
v 288.198975 -37.911762 38.868889
v 287.390137 -22.554590 39.346016
v 287.249939 -22.554590 39.304298
v 287.249939 -22.554590 39.592163
v 287.390137 -22.554590 39.591515
v 287.681458 -22.186649 48.051590
v 286.824829 -22.186649 48.051590
v 286.824829 -22.465380 48.113701
v 287.819702 -22.465380 48.113701
v 287.833679 -22.186651 39.190567
v 287.833679 -22.186651 39.546997
v 287.971680 -22.465382 39.546364
v 287.971680 -22.465382 39.129730
v 284.280334 -22.186649 47.962715
v 284.280334 -22.186649 47.557945
v 284.142334 -22.465380 47.557945
v 284.142334 -22.465380 48.023552
v 284.432617 -22.186651 39.101692
v 285.289551 -22.186651 39.101692
v 285.289551 -22.465382 39.039581
v 284.294373 -22.465382 39.039581
v 284.242310 -30.188574 48.199051
v 285.026917 -30.188574 48.199051
v 286.022583 -22.574459 48.113701
v 284.294373 -22.465380 48.113701
v 287.833679 -22.186649 47.557945
v 287.532715 -22.063629 47.557945
v 287.532715 -22.063629 47.839035
v 287.833679 -22.186649 47.962715
v 286.824829 -22.186649 39.101692
v 286.824829 -22.063629 39.237160
v 287.380554 -22.063629 39.237160
v 287.681458 -22.186651 39.101692
v 284.280334 -22.227644 39.567879
v 284.581299 -22.104622 39.566490
v 284.581299 -22.063629 39.314247
v 284.280334 -22.186651 39.190567
v 286.022583 -22.295729 48.051590
v 286.022583 -22.172707 47.916122
v 284.733459 -22.063629 47.916122
v 284.432617 -22.186649 48.051590
v 287.390137 -22.554588 47.516685
v 287.390137 -22.554588 47.805511
v 286.736816 -22.554590 39.304298
v 284.740906 -22.595583 39.608215
v 284.740906 -22.554590 39.346016
v 286.070984 -22.663670 47.847229
v 284.881104 -22.554588 47.847229
v 288.161316 -30.188576 39.020584
v 288.350891 -37.911762 38.971901
v 287.971680 -22.465380 48.023552
v 284.215515 -37.911758 48.322090
v 284.142334 -22.465382 39.129730
v 287.819702 -22.465382 39.039581
v 288.009338 -30.188576 48.199051
v 284.104675 -30.188572 38.924004
v 283.952698 -30.188572 39.020584
v 287.380554 -22.063629 47.916122
v 287.532715 -22.063629 39.314247
v 284.733459 -22.063629 39.237160
v 284.581299 -22.063629 47.839035
v 287.249939 -22.554588 47.847229
v 284.881104 -22.554590 39.304298
v 284.740906 -22.554588 47.805511
v 283.915039 -37.911762 38.868889
v 285.026917 -30.188574 38.924004
v 284.764221 -37.911762 38.868889
v 284.880432 -22.595583 39.607567
v 285.394531 -22.595583 39.605194
v 285.394531 -22.554590 39.304298
v 286.824829 -22.465382 39.039581
v 287.350159 -37.911762 48.315697
v 287.087463 -30.188576 48.199051
v 284.764221 -37.911758 48.284393
v 285.289551 -22.063629 39.237160
v 286.824829 -22.063629 47.916122
v 286.736816 -22.554588 47.847229
v 286.736816 -22.554590 39.594536
v 288.198975 -37.911762 48.284393
v 288.350891 -37.911762 39.326447
v 288.161316 -30.188576 39.436401
v 284.142334 -22.506374 39.568512
v 283.998108 -30.188572 39.729576
v 287.249939 -22.554588 47.516685
v 287.971680 -22.465380 47.557945
v 287.532715 -22.063629 39.548393
v 284.581299 -22.063629 47.557945
v 284.740906 -22.554588 47.516685
v 286.070984 -22.663670 47.516685
v 284.880920 -22.566071 47.516685
v 286.736816 -22.554588 47.516685
v 283.763123 -37.911762 39.033424
v 283.853943 -37.911762 39.890640
v 284.342102 -37.911964 24.401083
v 284.750183 -30.188778 24.380308
v 284.655640 -30.188776 23.934843
v 284.466064 -37.911964 23.855928
v 288.864258 -30.188776 23.985189
v 288.954895 -30.188776 24.372805
v 289.053833 -37.911964 24.266241
v 289.053833 -37.911964 23.855928
v 285.466797 -37.911964 33.202988
v 285.729492 -30.188776 33.130585
v 284.807617 -30.188778 33.113304
v 284.617981 -37.911964 33.168419
v 285.426819 -22.554790 32.691292
v 285.567017 -22.554790 32.733009
v 285.567017 -22.554790 32.445145
v 285.426819 -22.554790 32.445793
v 285.135498 -22.186853 23.985723
v 285.992126 -22.186853 23.985723
v 285.992126 -22.465584 23.923609
v 284.997253 -22.465584 23.923609
v 284.983276 -22.186852 32.846741
v 284.983276 -22.186852 32.490311
v 284.845276 -22.465582 32.490944
v 284.845276 -22.465582 32.907578
v 288.536621 -22.186853 24.074598
v 288.536621 -22.186853 24.479368
v 288.674622 -22.465584 24.479368
v 288.674622 -22.465584 24.013762
v 288.384338 -22.186852 32.935616
v 287.527405 -22.186852 32.935616
v 287.527405 -22.465582 32.997734
v 288.522583 -22.465582 32.997734
v 288.574646 -30.188776 23.838263
v 287.790039 -30.188776 23.838263
v 286.794312 -22.574661 23.923609
v 288.522583 -22.465584 23.923609
v 284.983276 -22.186853 24.479368
v 285.284241 -22.063831 24.479368
v 285.284241 -22.063831 24.198278
v 284.983276 -22.186853 24.074594
v 285.992126 -22.186850 32.935616
v 285.992126 -22.063831 32.800148
v 285.436401 -22.063831 32.800148
v 285.135498 -22.186852 32.935616
v 288.536621 -22.227844 32.469437
v 288.235657 -22.104824 32.470825
v 288.235657 -22.063831 32.723061
v 288.536621 -22.186852 32.846741
v 286.794312 -22.295933 23.985723
v 286.794312 -22.172911 24.121191
v 288.083496 -22.063831 24.121191
v 288.384338 -22.186853 23.985723
v 285.426819 -22.554792 24.520628
v 285.426819 -22.554792 24.231802
v 286.080139 -22.554790 32.733009
v 288.076050 -22.595785 32.429092
v 288.076050 -22.554790 32.691292
v 286.745972 -22.663872 24.190084
v 287.935852 -22.554792 24.190084
v 284.655640 -30.188778 33.016724
v 284.466064 -37.911964 33.065414
v 284.845276 -22.465584 24.013762
v 288.601440 -37.911964 23.715223
v 288.674622 -22.465582 32.907578
v 284.997253 -22.465582 32.997734
v 284.807617 -30.188778 23.838263
v 288.712280 -30.188774 33.113304
v 288.864258 -30.188774 33.016724
v 285.436401 -22.063831 24.121191
v 285.284241 -22.063831 32.723061
v 288.083496 -22.063831 32.800148
v 288.235657 -22.063831 24.198278
v 285.567017 -22.554792 24.190084
v 287.935852 -22.554790 32.733009
v 288.076050 -22.554792 24.231802
v 288.901917 -37.911964 33.168419
v 287.790039 -30.188776 33.113304
v 288.052734 -37.911964 33.168419
v 287.936523 -22.595785 32.429741
v 287.422424 -22.595785 32.432114
v 287.422424 -22.554790 32.733009
v 285.992126 -22.465582 32.997734
v 285.466797 -37.911964 23.721617
v 285.729492 -30.188778 23.838263
v 288.052734 -37.911964 23.752920
v 287.527405 -22.063831 32.800148
v 285.992126 -22.063831 24.121191
v 286.080139 -22.554792 24.190084
v 286.080139 -22.554790 32.442772
v 284.617981 -37.911964 23.752920
v 284.466064 -37.911964 32.710869
v 284.655640 -30.188778 32.600906
v 288.674622 -22.506575 32.468796
v 288.818848 -30.188774 32.307732
v 285.567017 -22.554792 24.520628
v 284.845276 -22.465584 24.479368
v 285.284241 -22.063831 32.488914
v 288.235657 -22.063831 24.479368
v 288.076050 -22.554792 24.520628
v 286.745972 -22.663872 24.520628
v 287.936035 -22.566275 24.520628
v 286.080139 -22.554792 24.520628
v 289.053833 -37.911964 33.003883
v 288.963013 -37.911964 32.146667
v 306.044128 -37.911964 9.240683
v 306.452148 -30.188778 9.219908
v 306.357666 -30.188776 8.774443
v 306.168030 -37.911964 8.695528
v 310.566223 -30.188776 8.824789
v 310.656860 -30.188776 9.212404
v 310.755859 -37.911964 9.105841
v 310.755859 -37.911964 8.695528
v 307.168823 -37.911964 18.042585
v 307.431458 -30.188776 17.970190
v 306.509644 -30.188778 17.952906
v 306.320007 -37.911964 18.008020
v 307.128845 -22.554790 17.530890
v 307.269043 -22.554790 17.572611
v 307.269043 -22.554790 17.284746
v 307.128845 -22.554790 17.285395
v 306.837524 -22.186853 8.825323
v 307.694153 -22.186853 8.825323
v 307.694153 -22.465584 8.763208
v 306.699280 -22.465584 8.763208
v 306.685242 -22.186852 17.686342
v 306.685242 -22.186852 17.329908
v 306.547241 -22.465582 17.330545
v 306.547241 -22.465582 17.747179
v 310.238647 -22.186853 8.914198
v 310.238647 -22.186853 9.318968
v 310.376648 -22.465584 9.318968
v 310.376648 -22.465584 8.853361
v 310.086365 -22.186852 17.775217
v 309.229370 -22.186852 17.775217
v 309.229370 -22.465582 17.837332
v 310.224609 -22.465582 17.837332
v 310.276672 -30.188776 8.677862
v 309.492065 -30.188776 8.677862
v 308.496338 -22.574661 8.763208
v 310.224609 -22.465584 8.763208
v 306.685242 -22.186853 9.318968
v 306.986206 -22.063831 9.318968
v 306.986206 -22.063831 9.037878
v 306.685242 -22.186853 8.914194
v 307.694153 -22.186850 17.775217
v 307.694153 -22.063831 17.639750
v 307.138367 -22.063831 17.639750
v 306.837524 -22.186852 17.775217
v 310.238647 -22.227844 17.309034
v 309.937683 -22.104824 17.310423
v 309.937683 -22.063831 17.562658
v 310.238647 -22.186852 17.686342
v 308.496338 -22.295933 8.825323
v 308.496338 -22.172911 8.960791
v 309.785522 -22.063831 8.960791
v 310.086365 -22.186853 8.825323
v 307.128845 -22.554792 9.360228
v 307.128845 -22.554792 9.071402
v 307.782166 -22.554790 17.572611
v 309.778076 -22.595785 17.268694
v 309.778076 -22.554790 17.530890
v 308.447937 -22.663872 9.029684
v 309.637878 -22.554792 9.029684
v 306.357666 -30.188778 17.856325
v 306.168030 -37.911964 17.905012
v 306.547241 -22.465584 8.853361
v 310.303406 -37.911964 8.554823
v 310.376648 -22.465582 17.747179
v 306.699280 -22.465582 17.837332
v 306.509644 -30.188778 8.677862
v 310.414246 -30.188774 17.952906
v 310.566223 -30.188774 17.856325
v 307.138367 -22.063831 8.960791
v 306.986206 -22.063831 17.562658
v 309.785522 -22.063831 17.639750
v 309.937683 -22.063831 9.037878
v 307.269043 -22.554792 9.029684
v 309.637878 -22.554790 17.572611
v 309.778076 -22.554792 9.071402
v 310.603882 -37.911964 18.008020
v 309.492065 -30.188776 17.952906
v 309.754700 -37.911964 18.008020
v 309.638550 -22.595785 17.269339
v 309.124451 -22.595785 17.271715
v 309.124451 -22.554790 17.572611
v 307.694153 -22.465582 17.837332
v 307.168823 -37.911964 8.561216
v 307.431458 -30.188778 8.677862
v 309.754700 -37.911964 8.592520
v 309.229370 -22.063831 17.639750
v 307.694153 -22.063831 8.960791
v 307.782166 -22.554792 9.029684
v 307.782166 -22.554790 17.282377
v 306.320007 -37.911964 8.592520
v 306.168030 -37.911964 17.550467
v 306.357666 -30.188778 17.440508
v 310.376648 -22.506575 17.308393
v 310.520813 -30.188774 17.147329
v 307.269043 -22.554792 9.360228
v 306.547241 -22.465584 9.318968
v 306.986206 -22.063831 17.328520
v 309.937683 -22.063831 9.318968
v 309.778076 -22.554792 9.360228
v 308.447937 -22.663872 9.360228
v 309.638062 -22.566275 9.360228
v 307.782166 -22.554792 9.360228
v 310.755859 -37.911964 17.843485
v 310.665039 -37.911964 16.986269
v 306.044128 -37.911964 54.669785
v 306.452148 -30.188776 54.649002
v 306.357666 -30.188774 54.203545
v 306.168030 -37.911964 54.124626
v 310.566223 -30.188774 54.253891
v 310.656860 -30.188774 54.641502
v 310.755859 -37.911964 54.534943
v 310.755859 -37.911964 54.124626
v 307.168823 -37.911961 63.471687
v 307.431458 -30.188774 63.399284
v 306.509644 -30.188776 63.382004
v 306.320007 -37.911961 63.437119
v 307.128845 -22.554790 62.959991
v 307.269043 -22.554790 63.001709
v 307.269043 -22.554790 62.713844
v 307.128845 -22.554790 62.714493
v 306.837524 -22.186852 54.254425
v 307.694153 -22.186852 54.254425
v 307.694153 -22.465580 54.192307
v 306.699280 -22.465580 54.192307
v 306.685242 -22.186850 63.115440
v 306.685242 -22.186850 62.759010
v 306.547241 -22.465580 62.759644
v 306.547241 -22.465580 63.176277
v 310.238647 -22.186852 54.343292
v 310.238647 -22.186852 54.748070
v 310.376648 -22.465580 54.748070
v 310.376648 -22.465580 54.282463
v 310.086365 -22.186850 63.204315
v 309.229370 -22.186850 63.204315
v 309.229370 -22.465580 63.266434
v 310.224609 -22.465580 63.266434
v 310.276672 -30.188774 54.106964
v 309.492065 -30.188774 54.106964
v 308.496338 -22.574659 54.192307
v 310.224609 -22.465580 54.192307
v 306.685242 -22.186852 54.748070
v 306.986206 -22.063829 54.748070
v 306.986206 -22.063829 54.466980
v 306.685242 -22.186852 54.343292
v 307.694153 -22.186848 63.204315
v 307.694153 -22.063829 63.068848
v 307.138367 -22.063829 63.068848
v 306.837524 -22.186850 63.204315
v 310.238647 -22.227844 62.738136
v 309.937683 -22.104822 62.739525
v 309.937683 -22.063829 62.991760
v 310.238647 -22.186850 63.115440
v 308.496338 -22.295929 54.254425
v 308.496338 -22.172909 54.389885
v 309.785522 -22.063829 54.389885
v 310.086365 -22.186852 54.254425
v 307.128845 -22.554790 54.789322
v 307.128845 -22.554790 54.500504
v 307.782166 -22.554790 63.001709
v 309.778076 -22.595783 62.697792
v 309.778076 -22.554790 62.959991
v 308.447937 -22.663870 54.458786
v 309.637878 -22.554790 54.458786
v 306.357666 -30.188776 63.285423
v 306.168030 -37.911961 63.334114
v 306.547241 -22.465580 54.282463
v 310.303406 -37.911961 53.983925
v 310.376648 -22.465580 63.176277
v 306.699280 -22.465580 63.266434
v 306.509644 -30.188776 54.106964
v 310.414246 -30.188772 63.382004
v 310.566223 -30.188772 63.285423
v 307.138367 -22.063829 54.389885
v 306.986206 -22.063829 62.991760
v 309.785522 -22.063829 63.068848
v 309.937683 -22.063829 54.466980
v 307.269043 -22.554790 54.458786
v 309.637878 -22.554790 63.001709
v 309.778076 -22.554790 54.500504
v 310.603882 -37.911961 63.437119
v 309.492065 -30.188774 63.382004
v 309.754700 -37.911961 63.437119
v 309.638550 -22.595783 62.698441
v 309.124451 -22.595783 62.700813
v 309.124451 -22.554790 63.001709
v 307.694153 -22.465580 63.266434
v 307.168823 -37.911964 53.990311
v 307.431458 -30.188776 54.106964
v 309.754700 -37.911961 54.021622
v 309.229370 -22.063829 63.068848
v 307.694153 -22.063829 54.389885
v 307.782166 -22.554790 54.458786
v 307.782166 -22.554790 62.711472
v 306.320007 -37.911964 54.021622
v 306.168030 -37.911961 62.979568
v 306.357666 -30.188776 62.869606
v 310.376648 -22.506573 62.737495
v 310.520813 -30.188772 62.576431
v 307.269043 -22.554790 54.789322
v 306.547241 -22.465580 54.748070
v 306.986206 -22.063829 62.757614
v 309.937683 -22.063829 54.748070
v 309.778076 -22.554790 54.789322
v 308.447937 -22.663870 54.789322
v 309.638062 -22.566273 54.789322
v 307.782166 -22.554790 54.789322
v 310.755859 -37.911961 63.272583
v 310.665039 -37.911961 62.415367
v 306.044128 -37.912064 39.520187
v 306.452148 -30.188877 39.499405
v 306.357666 -30.188875 39.053947
v 306.168030 -37.912064 38.975029
v 310.566223 -30.188875 39.104294
v 310.656860 -30.188875 39.491905
v 310.755859 -37.912064 39.385345
v 310.755859 -37.912064 38.975029
v 307.168823 -37.912064 48.322090
v 307.431458 -30.188875 48.249687
v 306.509644 -30.188877 48.232407
v 306.320007 -37.912064 48.287521
v 307.128845 -22.554890 47.810394
v 307.269043 -22.554890 47.852112
v 307.269043 -22.554890 47.564247
v 307.128845 -22.554890 47.564896
v 306.837524 -22.186953 39.104828
v 307.694153 -22.186953 39.104828
v 307.694153 -22.465683 39.042709
v 306.699280 -22.465683 39.042709
v 306.685242 -22.186951 47.965843
v 306.685242 -22.186951 47.609413
v 306.547241 -22.465681 47.610046
v 306.547241 -22.465681 48.026680
v 310.238647 -22.186953 39.193695
v 310.238647 -22.186953 39.598473
v 310.376648 -22.465683 39.598473
v 310.376648 -22.465683 39.132866
v 310.086365 -22.186951 48.054718
v 309.229370 -22.186951 48.054718
v 309.229370 -22.465681 48.116837
v 310.224609 -22.465681 48.116837
v 310.276672 -30.188875 38.957367
v 309.492065 -30.188875 38.957367
v 308.496338 -22.574760 39.042709
v 310.224609 -22.465683 39.042709
v 306.685242 -22.186953 39.598473
v 306.986206 -22.063931 39.598473
v 306.986206 -22.063931 39.317383
v 306.685242 -22.186953 39.193695
v 307.694153 -22.186949 48.054718
v 307.694153 -22.063931 47.919250
v 307.138367 -22.063931 47.919250
v 306.837524 -22.186951 48.054718
v 310.238647 -22.227943 47.588539
v 309.937683 -22.104923 47.589928
v 309.937683 -22.063931 47.842163
v 310.238647 -22.186951 47.965843
v 308.496338 -22.296032 39.104828
v 308.496338 -22.173010 39.240288
v 309.785522 -22.063931 39.240288
v 310.086365 -22.186953 39.104828
v 307.128845 -22.554892 39.639725
v 307.128845 -22.554892 39.350906
v 307.782166 -22.554890 47.852112
v 309.778076 -22.595884 47.548195
v 309.778076 -22.554890 47.810394
v 308.447937 -22.663971 39.309189
v 309.637878 -22.554892 39.309189
v 306.357666 -30.188877 48.135826
v 306.168030 -37.912064 48.184517
v 306.547241 -22.465683 39.132866
v 310.303406 -37.912064 38.834328
v 310.376648 -22.465681 48.026680
v 306.699280 -22.465681 48.116837
v 306.509644 -30.188877 38.957367
v 310.414246 -30.188873 48.232407
v 310.566223 -30.188873 48.135826
v 307.138367 -22.063931 39.240288
v 306.986206 -22.063931 47.842163
v 309.785522 -22.063931 47.919250
v 309.937683 -22.063931 39.317383
v 307.269043 -22.554892 39.309189
v 309.637878 -22.554890 47.852112
v 309.778076 -22.554892 39.350906
v 310.603882 -37.912064 48.287521
v 309.492065 -30.188875 48.232407
v 309.754700 -37.912064 48.287521
v 309.638550 -22.595884 47.548843
v 309.124451 -22.595884 47.551216
v 309.124451 -22.554890 47.852112
v 307.694153 -22.465681 48.116837
v 307.168823 -37.912064 38.840714
v 307.431458 -30.188877 38.957367
v 309.754700 -37.912064 38.872025
v 309.229370 -22.063931 47.919250
v 307.694153 -22.063931 39.240288
v 307.782166 -22.554892 39.309189
v 307.782166 -22.554890 47.561874
v 306.320007 -37.912064 38.872025
v 306.168030 -37.912064 47.829971
v 306.357666 -30.188877 47.720009
v 310.376648 -22.506674 47.587898
v 310.520813 -30.188873 47.426834
v 307.269043 -22.554892 39.639725
v 306.547241 -22.465683 39.598473
v 306.986206 -22.063931 47.608017
v 309.937683 -22.063931 39.598473
v 309.778076 -22.554892 39.639725
v 308.447937 -22.663971 39.639725
v 309.638062 -22.566374 39.639725
v 307.782166 -22.554892 39.639725
v 310.755859 -37.912064 48.122986
v 310.665039 -37.912064 47.265770
v 306.044128 -37.911964 24.401083
v 306.452148 -30.188778 24.380308
v 306.357666 -30.188776 23.934843
v 306.168030 -37.911964 23.855928
v 310.566223 -30.188776 23.985189
v 310.656860 -30.188776 24.372805
v 310.755859 -37.911964 24.266241
v 310.755859 -37.911964 23.855928
v 307.168823 -37.911964 33.202988
v 307.431458 -30.188776 33.130585
v 306.509644 -30.188778 33.113304
v 306.320007 -37.911964 33.168419
v 307.128845 -22.554790 32.691292
v 307.269043 -22.554790 32.733009
v 307.269043 -22.554790 32.445145
v 307.128845 -22.554790 32.445793
v 306.837524 -22.186853 23.985723
v 307.694153 -22.186853 23.985723
v 307.694153 -22.465584 23.923609
v 306.699280 -22.465584 23.923609
v 306.685242 -22.186852 32.846741
v 306.685242 -22.186852 32.490311
v 306.547241 -22.465582 32.490944
v 306.547241 -22.465582 32.907578
v 310.238647 -22.186853 24.074598
v 310.238647 -22.186853 24.479368
v 310.376648 -22.465584 24.479368
v 310.376648 -22.465584 24.013762
v 310.086365 -22.186852 32.935616
v 309.229370 -22.186852 32.935616
v 309.229370 -22.465582 32.997734
v 310.224609 -22.465582 32.997734
v 310.276672 -30.188776 23.838263
v 309.492065 -30.188776 23.838263
v 308.496338 -22.574661 23.923609
v 310.224609 -22.465584 23.923609
v 306.685242 -22.186853 24.479368
v 306.986206 -22.063831 24.479368
v 306.986206 -22.063831 24.198278
v 306.685242 -22.186853 24.074594
v 307.694153 -22.186850 32.935616
v 307.694153 -22.063831 32.800148
v 307.138367 -22.063831 32.800148
v 306.837524 -22.186852 32.935616
v 310.238647 -22.227844 32.469437
v 309.937683 -22.104824 32.470825
v 309.937683 -22.063831 32.723061
v 310.238647 -22.186852 32.846741
v 308.496338 -22.295933 23.985723
v 308.496338 -22.172911 24.121191
v 309.785522 -22.063831 24.121191
v 310.086365 -22.186853 23.985723
v 307.128845 -22.554792 24.520628
v 307.128845 -22.554792 24.231802
v 307.782166 -22.554790 32.733009
v 309.778076 -22.595785 32.429092
v 309.778076 -22.554790 32.691292
v 308.447937 -22.663872 24.190084
v 309.637878 -22.554792 24.190084
v 306.357666 -30.188778 33.016724
v 306.168030 -37.911964 33.065414
v 306.547241 -22.465584 24.013762
v 310.303406 -37.911964 23.715223
v 310.376648 -22.465582 32.907578
v 306.699280 -22.465582 32.997734
v 306.509644 -30.188778 23.838263
v 310.414246 -30.188774 33.113304
v 310.566223 -30.188774 33.016724
v 307.138367 -22.063831 24.121191
v 306.986206 -22.063831 32.723061
v 309.785522 -22.063831 32.800148
v 309.937683 -22.063831 24.198278
v 307.269043 -22.554792 24.190084
v 309.637878 -22.554790 32.733009
v 309.778076 -22.554792 24.231802
v 310.603882 -37.911964 33.168419
v 309.492065 -30.188776 33.113304
v 309.754700 -37.911964 33.168419
v 309.638550 -22.595785 32.429741
v 309.124451 -22.595785 32.432114
v 309.124451 -22.554790 32.733009
v 307.694153 -22.465582 32.997734
v 307.168823 -37.911964 23.721617
v 307.431458 -30.188778 23.838263
v 309.754700 -37.911964 23.752920
v 309.229370 -22.063831 32.800148
v 307.694153 -22.063831 24.121191
v 307.782166 -22.554792 24.190084
v 307.782166 -22.554790 32.442772
v 306.320007 -37.911964 23.752920
v 306.168030 -37.911964 32.710869
v 306.357666 -30.188778 32.600906
v 310.376648 -22.506575 32.468796
v 310.520813 -30.188774 32.307732
v 307.269043 -22.554792 24.520628
v 306.547241 -22.465584 24.479368
v 306.986206 -22.063831 32.488914
v 309.937683 -22.063831 24.479368
v 309.778076 -22.554792 24.520628
v 308.447937 -22.663872 24.520628
v 309.638062 -22.566275 24.520628
v 307.782166 -22.554792 24.520628
v 310.755859 -37.911964 33.003883
v 310.665039 -37.911964 32.146667
v 290.401062 -37.911961 69.031647
v 290.363342 -30.188774 68.623604
v 289.554443 -30.188772 68.718117
v 289.411133 -37.911961 68.907722
v 289.645874 -30.188772 64.509544
v 290.349731 -30.188772 64.418907
v 290.156250 -37.911961 64.319946
v 289.411133 -37.911961 64.319946
v 306.384277 -37.911961 67.906967
v 306.252808 -30.188772 67.644295
v 306.221436 -30.188774 68.566139
v 306.321533 -37.911961 68.755783
v 305.455139 -22.554789 67.946945
v 305.530884 -22.554789 67.806740
v 305.008118 -22.554789 67.806740
v 305.009338 -22.554789 67.946945
v 289.646851 -22.186848 68.238251
v 289.646851 -22.186848 67.381622
v 289.534058 -22.465578 67.381622
v 289.534058 -22.465578 68.376495
v 305.737427 -22.186848 68.390511
v 305.090149 -22.186848 68.390511
v 305.091309 -22.465578 68.528511
v 305.847900 -22.465578 68.528511
v 289.808228 -22.186848 64.837151
v 290.543274 -22.186848 64.837151
v 290.543274 -22.465578 64.699150
v 289.697754 -22.465578 64.699150
v 305.898804 -22.186848 64.989410
v 305.898804 -22.186848 65.846397
v 306.011597 -22.465578 65.846397
v 306.011597 -22.465578 64.851166
v 289.379089 -30.188772 64.799126
v 289.379089 -30.188772 65.583725
v 289.534058 -22.574657 66.579437
v 289.534058 -22.465578 64.851166
v 290.543274 -22.186848 68.390511
v 290.543274 -22.063828 68.089561
v 290.032837 -22.063828 68.089561
v 289.808228 -22.186848 68.390511
v 305.898804 -22.186848 67.381622
v 305.652771 -22.063828 67.381622
v 305.652771 -22.063828 67.937378
v 305.898804 -22.186848 68.238251
v 305.052246 -22.227842 64.837151
v 305.054749 -22.104820 65.138100
v 305.512817 -22.063828 65.138100
v 305.737427 -22.186848 64.837151
v 289.646851 -22.295927 66.579437
v 289.892822 -22.172907 66.579437
v 289.892822 -22.063828 65.290283
v 289.646851 -22.186848 64.989410
v 290.618164 -22.554789 67.946945
v 290.093689 -22.554789 67.946945
v 305.530884 -22.554789 67.293633
v 304.979004 -22.595781 65.297707
v 305.455139 -22.554789 65.297707
v 290.017944 -22.663868 66.627823
v 290.017944 -22.554789 65.437912
v 306.046082 -30.188774 68.718117
v 306.134460 -37.911961 68.907722
v 289.697754 -22.465578 68.528511
v 289.155640 -37.911961 64.772346
v 305.847900 -22.465578 64.699150
v 306.011597 -22.465578 68.376495
v 289.379089 -30.188774 68.566139
v 306.221436 -30.188770 64.661522
v 306.046082 -30.188770 64.509552
v 289.892822 -22.063828 67.937378
v 305.512817 -22.063828 68.089561
v 305.652771 -22.063828 65.290283
v 290.032837 -22.063828 65.138100
v 290.017944 -22.554789 67.806740
v 305.530884 -22.554789 65.437912
v 290.093689 -22.554789 65.297707
v 306.321533 -37.911961 64.471878
v 306.221436 -30.188772 65.583725
v 306.321533 -37.911961 65.321053
v 304.980164 -22.595781 65.437248
v 304.984497 -22.595781 65.951347
v 305.530884 -22.554789 65.951347
v 306.011597 -22.465578 67.381622
v 289.167236 -37.911961 67.906967
v 289.379089 -30.188774 67.644295
v 289.224121 -37.911961 65.321053
v 305.652771 -22.063828 65.846397
v 289.892822 -22.063828 67.381622
v 290.017944 -22.554789 67.293633
v 305.003845 -22.554789 67.293633
v 289.224121 -37.911961 68.755783
v 305.490662 -37.911961 68.907722
v 305.291016 -30.188774 68.718117
v 305.051086 -22.506573 64.699150
v 304.758606 -30.188770 64.554947
v 290.618164 -22.554789 67.806740
v 290.543274 -22.465578 68.528511
v 305.087646 -22.063828 68.089561
v 290.543274 -22.063828 65.138100
v 290.618164 -22.554789 65.297707
v 290.618164 -22.663868 66.627823
v 290.618164 -22.566269 65.437729
v 290.618164 -22.554789 67.293633
v 306.022766 -37.911961 64.319946
v 304.466125 -37.911961 64.410736
vn -0.9946 0.0403 -0.0957
vn -0.9943 0.0329 0.1019
vn -0.9194 0.0359 -0.3917
vn -0.8262 0.0260 -0.5628
vn 0.7876 0.0193 -0.6158
vn 0.9943 0.0232 -0.1045
vn 0.9998 0.0185 0.0020
vn 0.8052 0.0297 -0.5923
vn -0.0134 0.0086 0.9999
vn -0.0052 0.0128 0.9999
vn -0.2872 0.0085 0.9578
vn 0.0885 0.0012 0.9961
vn 0.5572 0.6895 -0.4626
vn 0.0951 0.7297 -0.6771
vn -0.0000 1.0000 -0.0000
vn 0.6004 0.7997 -0.0000
vn -0.2489 0.4101 -0.8774
vn 0.0383 0.4678 -0.8830
vn 0.0084 0.1194 -0.9928
vn -0.1070 0.4686 -0.8769
vn -0.6871 0.6144 0.3878
vn -0.6831 0.7303 -0.0000
vn -0.9712 0.2383 -0.0015
vn -0.8455 0.2423 0.4759
vn 0.6871 0.6144 -0.3878
vn 0.8476 0.5306 0.0020
vn 0.9699 0.2437 0.0028
vn 0.8435 0.2429 -0.4790
vn 0.2489 0.4101 0.8774
vn -0.0000 0.2813 0.9596
vn 0.0004 0.1173 0.9931
vn 0.1069 0.4660 0.8783
vn 0.2374 0.0122 -0.9713
vn -0.0001 0.0131 -0.9999
vn 0.0035 0.1083 -0.9941
vn 0.1901 0.2380 -0.9525
vn -0.6813 0.7320 -0.0000
vn 0.4350 0.9004 -0.0000
vn 0.1896 0.9792 0.0726
vn -0.4981 0.7546 -0.4273
vn -0.0000 0.5180 0.8554
vn -0.0000 0.9398 -0.3418
vn 0.1644 0.9655 -0.2019
vn -0.2752 0.7100 0.6482
vn 0.6912 0.7210 -0.0490
vn -0.4353 0.8973 -0.0734
vn -0.1531 0.9792 -0.1332
vn 0.5168 0.7661 0.3822
vn -0.0475 0.4863 -0.8725
vn 0.0233 0.9320 0.3616
vn -0.2150 0.9644 0.1538
vn 0.2507 0.7038 -0.6646
vn 0.5583 0.7020 0.4422
vn -0.0000 0.7535 -0.6575
vn -0.5734 0.8171 -0.0605
vn -0.5558 0.6675 -0.4954
vn 0.0299 0.7745 0.6319
vn -0.1276 0.7101 0.6924
vn -0.8756 0.0268 0.4822
vn -0.8840 0.0246 0.4667
vn -0.8475 0.2376 -0.4747
vn 0.1325 0.0161 -0.9911
vn 0.8490 0.2483 0.4664
vn -0.2171 0.5119 0.8312
vn -0.2726 0.0175 -0.9620
vn 0.2721 0.0146 0.9621
vn 0.8903 0.0260 0.4546
vn 0.1589 0.9634 0.2161
vn 0.1792 0.9815 -0.0667
vn -0.1616 0.9637 -0.2127
vn -0.1708 0.9835 0.0599
vn 0.0827 0.7363 0.6716
vn -0.0872 0.6929 -0.7158
vn -0.5529 0.6894 0.4681
vn 0.3977 0.0129 0.9174
vn 0.0042 0.0112 0.9999
vn 0.0061 0.0079 1.0000
vn -0.0053 0.9974 -0.0717
vn 0.0162 0.9974 -0.0700
vn 0.0080 0.7104 -0.7037
vn -0.0004 0.1175 0.9931
vn -0.0139 0.0143 -0.9998
vn -0.0006 0.0122 -0.9999
vn -0.0291 0.0101 -0.9995
vn 0.0618 0.9424 0.3286
vn 0.0614 0.7378 0.6722
vn 0.0086 1.0000 -0.0048
vn -0.3061 0.0198 -0.9518
vn -0.9995 0.0312 0.0006
vn -0.9997 0.0245 -0.0057
vn 0.9729 0.2311 -0.0118
vn 0.9994 0.0225 -0.0263
vn -0.9723 0.2338 -0.0000
vn -0.4202 0.9074 0.0023
vn -0.6207 0.7840 0.0021
vn 0.0444 0.9990 -0.0052
vn -0.0784 0.9969 0.0119
vn 0.0776 0.9970 -0.0050
vn 0.9494 0.0208 0.3134
vn 0.9988 0.0181 -0.0448
vn 0.9946 0.0403 0.0957
vn 0.9943 0.0329 -0.1019
vn 0.9194 0.0359 0.3917
vn 0.8262 0.0260 0.5628
vn -0.7876 0.0193 0.6158
vn -0.9943 0.0232 0.1045
vn -0.9998 0.0185 -0.0020
vn -0.8052 0.0297 0.5923
vn 0.0134 0.0086 -0.9999
vn 0.0052 0.0128 -0.9999
vn 0.2872 0.0085 -0.9578
vn -0.0885 0.0012 -0.9961
vn -0.5572 0.6895 0.4626
vn -0.0951 0.7297 0.6771
vn -0.6004 0.7997 -0.0000
vn -0.0383 0.4678 0.8830
vn -0.0084 0.1194 0.9928
vn 0.1070 0.4686 0.8769
vn 0.6831 0.7303 -0.0000
vn 0.9712 0.2383 0.0015
vn 0.8455 0.2423 -0.4759
vn -0.8476 0.5306 -0.0020
vn -0.9699 0.2437 -0.0028
vn -0.8435 0.2429 0.4790
vn -0.0000 0.2813 -0.9596
vn -0.0004 0.1173 -0.9931
vn -0.1069 0.4660 -0.8783
vn -0.2374 0.0122 0.9713
vn 0.0001 0.0131 0.9999
vn -0.0035 0.1083 0.9941
vn -0.1901 0.2380 0.9525
vn 0.6813 0.7320 -0.0000
vn -0.4350 0.9004 -0.0000
vn -0.1896 0.9792 -0.0726
vn 0.4981 0.7546 0.4273
vn -0.0000 0.5180 -0.8554
vn -0.0000 0.9398 0.3418
vn -0.1644 0.9655 0.2018
vn 0.2752 0.7100 -0.6482
vn -0.6912 0.7210 0.0490
vn 0.4353 0.8973 0.0734
vn 0.1531 0.9792 0.1332
vn -0.5168 0.7661 -0.3822
vn 0.0475 0.4863 0.8725
vn -0.0233 0.9320 -0.3616
vn 0.2150 0.9644 -0.1538
vn -0.2507 0.7038 0.6646
vn -0.5583 0.7020 -0.4422
vn -0.0000 0.7535 0.6575
vn 0.5734 0.8171 0.0605
vn 0.5558 0.6675 0.4954
vn -0.0299 0.7745 -0.6319
vn 0.1276 0.7101 -0.6924
vn 0.8756 0.0268 -0.4822
vn 0.8840 0.0246 -0.4667
vn 0.8475 0.2376 0.4747
vn -0.1325 0.0161 0.9911
vn -0.8490 0.2483 -0.4664
vn 0.2171 0.5119 -0.8312
vn 0.2726 0.0175 0.9620
vn -0.2721 0.0146 -0.9621
vn -0.8903 0.0260 -0.4546
vn -0.1589 0.9634 -0.2161
vn -0.1792 0.9815 0.0667
vn 0.1616 0.9637 0.2127
vn 0.1708 0.9835 -0.0599
vn -0.0827 0.7363 -0.6716
vn 0.0872 0.6929 0.7158
vn 0.5529 0.6894 -0.4680
vn -0.3977 0.0129 -0.9174
vn -0.0042 0.0112 -0.9999
vn -0.0061 0.0079 -1.0000
vn 0.0053 0.9974 0.0717
vn -0.0162 0.9974 0.0700
vn -0.0080 0.7104 0.7037
vn 0.0004 0.1175 -0.9931
vn 0.0139 0.0143 0.9998
vn 0.0006 0.0122 0.9999
vn 0.0291 0.0101 0.9995
vn -0.0618 0.9424 -0.3286
vn -0.0614 0.7378 -0.6722
vn -0.0086 1.0000 0.0048
vn 0.3061 0.0198 0.9518
vn 0.9995 0.0312 -0.0006
vn 0.9997 0.0245 0.0057
vn -0.9729 0.2311 0.0118
vn -0.9994 0.0225 0.0263
vn 0.9723 0.2338 -0.0000
vn 0.4202 0.9074 -0.0023
vn 0.6207 0.7840 -0.0021
vn -0.0444 0.9990 0.0052
vn 0.0784 0.9969 -0.0119
vn -0.0776 0.9970 0.0050
vn -0.9494 0.0208 -0.3134
vn -0.9988 0.0181 0.0448
vn 0.5573 0.6895 -0.4626
vn -0.8840 0.0246 0.4668
vn 0.1644 0.9655 -0.2018
vn -0.5529 0.6894 0.4680
vn -0.0498 0.0408 0.9979
vn 0.0570 0.0338 0.9978
vn -0.2989 0.0373 0.9535
vn -0.3935 0.0299 0.9188
vn -0.4572 0.0227 -0.8891
vn -0.0576 0.0231 -0.9981
vn -0.0006 0.0184 -0.9998
vn -0.5075 0.0366 -0.8609
vn 0.9996 0.0156 0.0243
vn 0.9997 0.0232 0.0094
vn 0.9030 0.0202 0.4292
vn 0.9982 0.0104 0.0585
vn -0.3669 0.7179 -0.5916
vn -0.6414 0.7501 -0.1611
vn -0.0000 0.7997 -0.6004
vn -0.7917 0.5315 0.3012
vn -0.7605 0.6473 -0.0501
vn -0.9779 0.2085 -0.0146
vn -0.7877 0.5701 0.2337
vn 0.2581 0.6632 0.7025
vn -0.0000 0.7303 0.6831
vn -0.0011 0.2388 0.9711
vn 0.3626 0.2721 0.8913
vn -0.2581 0.6632 -0.7025
vn 0.0011 0.5323 -0.8466
vn 0.0020 0.2443 -0.9697
vn -0.3666 0.2716 -0.8898
vn 0.7917 0.5314 -0.3012
vn 0.8776 0.4793 -0.0000
vn 0.9787 0.2053 -0.0006
vn 0.7889 0.5685 -0.2335
vn -0.9292 0.0225 -0.3688
vn -0.9997 0.0237 0.0002
vn -0.9818 0.1898 -0.0062
vn -0.8972 0.3204 -0.3039
vn -0.0000 0.7320 0.6813
vn -0.0000 0.9004 -0.4350
vn 0.1363 0.9601 -0.2444
vn -0.2981 0.7987 0.5227
vn 0.7219 0.6920 -0.0000
vn -0.4186 0.9082 -0.0000
vn -0.2176 0.9636 -0.1555
vn 0.5094 0.7951 0.3292
vn -0.0314 0.7255 -0.6875
vn -0.0408 0.9028 0.4282
vn -0.1688 0.9622 0.2137
vn 0.2715 0.7984 -0.5375
vn -0.7461 0.6645 0.0424
vn 0.4378 0.8988 -0.0217
vn 0.1740 0.9649 0.1970
vn -0.5309 0.7926 -0.3000
vn 0.3361 0.7337 -0.5906
vn -0.6160 0.7877 -0.0000
vn -0.0331 0.8143 0.5795
vn -0.3691 0.7180 0.5902
vn 0.5913 0.8059 -0.0302
vn 0.6470 0.7377 0.1929
vn 0.3507 0.0300 0.9360
vn 0.3349 0.0270 0.9419
vn -0.3614 0.2671 0.8933
vn -0.9767 0.0285 -0.2127
vn 0.3574 0.2738 -0.8929
vn 0.7216 0.5991 0.3468
vn -0.9123 0.0284 0.4086
vn 0.9128 0.0253 -0.4077
vn 0.3348 0.0291 -0.9418
vn 0.2348 0.9600 -0.1528
vn -0.1364 0.9639 -0.2287
vn -0.2307 0.9606 0.1552
vn 0.1300 0.9672 0.2183
vn 0.6337 0.7609 -0.1396
vn -0.6584 0.7392 0.1416
vn 0.3688 0.7220 0.5853
vn 0.8546 0.0194 -0.5189
vn 0.9998 0.0203 -0.0076
vn 0.9998 0.0143 -0.0111
vn -0.0401 0.9992 0.0032
vn -0.0386 0.9991 -0.0156
vn -0.6417 0.7669 -0.0069
vn 0.9787 0.2055 0.0006
vn -0.9993 0.0259 0.0252
vn -0.9998 0.0221 0.0012
vn -0.9984 0.0182 0.0527
vn -0.4185 0.9082 -0.0000
vn 0.4033 0.9131 -0.0602
vn 0.6273 0.7760 -0.0654
vn -0.0046 0.9999 -0.0094
vn -0.8907 0.0325 0.4534
vn -0.0009 0.0287 0.9996
vn -0.0032 0.0245 0.9997
vn -0.0072 0.2342 -0.9722
vn -0.0153 0.0217 -0.9996
vn -0.0000 0.2338 0.9723
vn 0.0013 0.9073 0.4204
vn 0.0011 0.7842 0.6205
vn -0.0027 0.9991 -0.0425
vn 0.0054 0.9968 0.0803
vn -0.0029 0.9969 -0.0792
vn 0.2045 0.0216 -0.9786
vn -0.0241 0.0187 -0.9995
vt 0.922990 0.978771
vt 0.925016 0.775168
vt 0.962695 0.774739
vt 0.969609 0.978244
vt 0.959825 0.221249
vt 0.926680 0.220438
vt 0.935912 0.017318
vt 0.970670 0.017655
vt 0.050561 0.024580
vt 0.071140 0.227750
vt 0.036656 0.229667
vt 0.018773 0.026360
vt 0.221362 0.541109
vt 0.218513 0.538073
vt 0.241571 0.538797
vt 0.241220 0.542453
vt 0.960680 0.559617
vt 0.963012 0.527347
vt 0.970447 0.527713
vt 0.968383 0.567285
vt 0.205371 0.563336
vt 0.236420 0.564226
vt 0.236286 0.571658
vt 0.199744 0.570578
vt 0.952959 0.431305
vt 0.917802 0.430453
vt 0.917857 0.423044
vt 0.958507 0.424139
vt 0.197564 0.435336
vt 0.195350 0.467641
vt 0.187665 0.467212
vt 0.189850 0.427443
vt 0.022073 0.692652
vt 0.051239 0.692685
vt 0.087299 0.893195
vt 0.020325 0.897148
vt 0.917341 0.565255
vt 0.917241 0.555337
vt 0.942146 0.553955
vt 0.952466 0.564544
vt 0.195100 0.525927
vt 0.205548 0.525368
vt 0.207837 0.546558
vt 0.197187 0.558264
vt 0.238623 0.429188
vt 0.238627 0.439307
vt 0.216072 0.440750
vt 0.205772 0.430336
vt 0.964395 0.496221
vt 0.953217 0.496689
vt 0.950717 0.447912
vt 0.961168 0.436415
vt 0.913209 0.543291
vt 0.936763 0.542090
vt 0.218217 0.521196
vt 0.243038 0.451607
vt 0.221730 0.452715
vt 0.940069 0.498752
vt 0.940158 0.456709
vt 0.176815 0.976571
vt 0.181691 0.772720
vt 0.191678 0.773480
vt 0.187240 0.977029
vt 0.958008 0.571831
vt 0.991311 0.018897
vt 0.976097 0.222261
vt 0.200260 0.423191
vt 0.189346 0.565924
vt 0.972694 0.773997
vt 0.968790 0.428872
vt 0.182776 0.221427
vt 0.192699 0.220395
vt 0.950212 0.547809
vt 0.215818 0.552850
vt 0.208142 0.447019
vt 0.942619 0.441697
vt 0.939728 0.539091
vt 0.218767 0.455879
vt 0.937214 0.453721
vt 0.178717 0.017504
vt 0.148220 0.223651
vt 0.147052 0.019486
vt 0.243158 0.455276
vt 0.242902 0.472906
vt 0.218387 0.472879
vt 0.972744 0.495846
vt 0.187408 0.526348
vt 0.138172 0.489161
vt 0.128220 0.692757
vt 0.041814 0.489176
vt 0.205790 0.468159
vt 0.952829 0.526795
vt 0.940358 0.522020
vt 0.241856 0.521207
vt 0.169902 0.489293
vt 0.162621 0.692747
vt 0.217442 0.977424
vt 0.227094 0.774189
vt 0.238681 0.421489
vt 0.252985 0.219954
vt 0.913078 0.539646
vt 0.917350 0.572720
vt 0.236760 0.554380
vt 0.917669 0.440301
vt 0.913586 0.452515
vt 0.913194 0.498880
vt 0.913355 0.456087
vt 0.913176 0.522137
vt 0.090973 0.430533
vt 0.051478 0.434800
vt 0.021133 0.489031
vt 0.980031 0.977810
vt 0.193794 0.016883
vt 0.150173 0.427312
vt 0.119165 0.895492
vt 0.158738 0.897556
vt 0.266783 0.016711
s 1
f 1/1/1 2/2/2 3/3/3
f 3/3/3 4/4/4 1/1/1
f 5/5/5 6/6/6 7/7/7
f 7/7/7 8/8/8 5/5/5
f 9/9/9 10/10/10 11/11/11
f 11/11/11 12/12/12 9/9/9
f 13/13/13 14/14/14 15/15/15
f 15/15/15 16/16/16 13/13/13
f 17/17/17 18/18/18 19/19/19
f 19/19/19 20/20/20 17/17/17
f 21/21/21 22/22/22 23/23/23
f 23/23/23 24/24/24 21/21/21
f 25/25/25 26/26/26 27/27/27
f 27/27/27 28/28/28 25/25/25
f 29/29/29 30/30/30 31/31/31
f 31/31/31 32/32/32 29/29/29
f 33/33/33 34/34/34 35/35/35
f 35/35/35 36/36/36 33/33/33
f 37/37/37 38/38/38 39/39/39
f 39/39/39 40/40/40 37/37/37
f 41/41/41 42/42/42 43/43/43
f 43/43/43 44/44/44 41/41/41
f 45/45/45 46/46/46 47/47/47
f 47/47/47 48/48/48 45/45/45
f 49/49/49 50/50/50 51/51/51
f 51/51/51 52/52/52 49/49/49
f 39/39/39 38/38/38 53/53/16
f 53/53/16 54/54/53 39/39/39
f 42/42/42 55/55/54 14/14/14
f 14/14/14 43/43/43 42/42/42
f 47/47/47 46/46/46 56/56/55
f 56/56/55 57/57/56 47/47/47
f 50/50/50 58/58/57 59/59/58
f 59/59/58 51/51/51 50/50/50
f 12/60/12 11/61/11 60/62/59
f 60/62/59 61/63/60 12/60/12
f 40/40/40 17/17/17 20/20/20
f 20/20/20 62/64/61 40/40/40
f 63/65/62 33/66/33 5/5/5
f 5/5/5 8/8/8 63/65/62
f 48/48/48 29/29/29 32/32/32
f 32/32/32 64/67/63 48/48/48
f 24/24/24 65/68/64 44/44/44
f 44/44/44 21/21/21 24/24/24
f 20/20/20 66/69/65 3/3/3
f 3/3/3 62/64/61 20/20/20
f 28/28/28 36/70/36 52/52/52
f 52/52/52 25/25/25 28/28/28
f 32/32/32 67/71/66 68/72/67
f 68/72/67 64/67/63 32/32/32
f 17/17/17 40/40/40 39/39/39
f 39/39/39 69/73/68 17/17/17
f 21/21/21 44/44/44 43/43/43
f 43/43/43 70/74/69 21/21/21
f 29/29/29 48/48/48 47/47/47
f 47/47/47 71/75/70 29/29/29
f 25/25/25 52/52/52 51/51/51
f 51/51/51 72/76/71 25/25/25
f 69/73/68 39/39/39 54/54/53
f 54/54/53 73/77/72 69/73/68
f 70/74/69 43/43/43 14/14/14
f 14/14/14 13/13/13 70/74/69
f 71/75/70 47/47/47 57/57/56
f 57/57/56 74/78/73 71/75/70
f 72/76/71 51/51/51 59/59/58
f 59/59/58 75/79/74 72/76/71
f 76/80/75 67/71/66 77/81/76
f 77/81/76 78/82/77 76/80/75
f 74/78/73 79/83/78 80/84/79
f 80/84/79 81/85/80 74/78/73
f 52/52/52 36/70/36 35/86/35
f 35/86/35 49/49/49 52/52/52
f 41/41/41 82/87/81 31/31/31
f 31/31/31 30/30/30 41/41/41
f 83/88/82 84/89/83 34/34/34
f 34/34/34 85/90/84 83/88/82
f 30/30/30 29/29/29 71/75/70
f 71/75/70 86/91/42 30/30/30
f 18/18/18 87/92/85 50/50/50
f 50/50/50 49/49/49 18/18/18
f 71/75/70 74/78/73 81/85/80
f 81/85/80 86/91/42 71/75/70
f 87/92/85 88/93/86 58/58/57
f 58/58/57 50/50/50 87/92/85
f 78/82/77 77/81/76 10/10/10
f 10/10/10 9/9/9 78/82/77
f 81/85/80 80/84/79 89/94/87
f 89/94/87 55/55/54 81/85/80
f 49/49/49 35/86/35 19/19/19
f 19/19/19 18/18/18 49/49/49
f 30/30/30 86/91/42 42/42/42
f 42/42/42 41/41/41 30/30/30
f 86/91/42 81/85/80 55/55/54
f 55/55/54 42/42/42 86/91/42
f 44/44/44 65/68/64 82/87/81
f 82/87/81 41/41/41 44/44/44
f 90/95/88 66/96/65 84/89/83
f 84/89/83 83/88/82 90/95/88
f 18/18/18 17/17/17 69/73/68
f 69/73/68 87/92/85 18/18/18
f 69/73/68 73/77/72 88/93/86
f 88/93/86 87/92/85 69/73/68
f 91/97/89 92/98/90 2/2/2
f 2/2/2 1/1/1 91/97/89
f 27/27/27 93/99/91 94/100/92
f 94/100/92 6/6/6 27/27/27
f 54/54/53 53/53/16 95/101/15
f 95/101/15 73/77/72 54/54/53
f 40/40/40 62/64/61 96/102/93
f 96/102/93 37/37/37 40/40/40
f 45/45/45 93/99/91 27/27/27
f 27/27/27 26/26/26 45/45/45
f 22/22/22 97/103/38 38/38/38
f 38/38/38 37/37/37 22/22/22
f 26/26/26 25/25/25 72/76/71
f 72/76/71 98/104/94 26/26/26
f 97/103/38 16/16/16 53/53/16
f 53/53/16 38/38/38 97/103/38
f 72/76/71 75/79/74 99/105/95
f 99/105/95 98/104/94 72/76/71
f 58/58/57 100/106/96 101/107/97
f 101/107/97 59/59/58 58/58/57
f 58/58/57 88/93/86 102/108/98
f 102/108/98 100/106/96 58/58/57
f 53/53/16 16/16/16 15/15/15
f 15/15/15 95/101/15 53/53/16
f 37/37/37 96/102/93 23/23/23
f 23/23/23 22/22/22 37/37/37
f 26/26/26 98/104/94 46/46/46
f 46/46/46 45/45/45 26/26/26
f 98/104/94 99/105/95 56/56/55
f 56/56/55 46/46/46 98/104/94
f 100/106/96 80/84/79 79/83/78
f 79/83/78 101/107/97 100/106/96
f 80/84/79 100/106/96 102/108/98
f 102/108/98 89/94/87 80/84/79
f 91/97/89 61/63/60 60/62/59
f 60/62/59 92/98/90 91/97/89
f 93/99/91 64/67/63 68/72/67
f 68/72/67 94/100/92 93/99/91
f 48/48/48 64/67/63 93/99/91
f 93/99/91 45/45/45 48/48/48
f 22/22/22 21/21/21 70/74/69
f 70/74/69 97/103/38 22/22/22
f 70/74/69 13/13/13 16/16/16
f 16/16/16 97/103/38 70/74/69
f 2/2/2 96/102/93 62/64/61
f 62/64/61 3/3/3 2/2/2
f 28/28/28 27/27/27 6/6/6
f 6/6/6 5/5/5 28/28/28
f 82/109/81 65/110/64 11/11/11
f 11/11/11 10/10/10 82/109/81
f 63/111/62 85/90/84 34/34/34
f 34/34/34 33/33/33 63/111/62
f 65/68/64 24/24/24 60/62/59
f 60/62/59 11/61/11 65/68/64
f 36/70/36 28/28/28 5/5/5
f 5/5/5 33/66/33 36/70/36
f 90/112/88 4/4/4 3/3/3
f 3/3/3 66/69/65 90/112/88
f 76/80/75 103/113/99 68/72/67
f 68/72/67 67/71/66 76/80/75
f 32/32/32 31/114/31 77/81/76
f 77/81/76 67/71/66 32/32/32
f 19/115/19 35/35/35 34/34/34
f 34/34/34 84/89/83 19/115/19
f 31/114/31 82/109/81 10/10/10
f 10/10/10 77/81/76 31/114/31
f 20/116/20 19/115/19 84/89/83
f 84/89/83 66/96/65 20/116/20
f 23/23/23 96/102/93 2/2/2
f 2/2/2 92/98/90 23/23/23
f 104/117/100 7/7/7 6/6/6
f 6/6/6 94/100/92 104/117/100
f 24/24/24 23/23/23 92/98/90
f 92/98/90 60/62/59 24/24/24
f 103/113/99 104/117/100 94/100/92
f 94/100/92 68/72/67 103/113/99
f 55/55/54 89/94/87 15/15/15
f 15/15/15 14/14/14 55/55/54
f 89/94/87 102/108/98 95/101/15
f 95/101/15 15/15/15 89/94/87
f 102/108/98 88/93/86 73/77/72
f 73/77/72 95/101/15 102/108/98
f 57/57/56 56/56/55 79/83/78
f 79/83/78 74/78/73 57/57/56
f 56/56/55 99/105/95 101/107/97
f 101/107/97 79/83/78 56/56/55
f 101/107/97 99/105/95 75/79/74
f 75/79/74 59/59/58 101/107/97
f 105/1/101 106/2/102 107/3/103
f 107/3/103 108/4/104 105/1/101
f 109/5/105 110/6/106 111/7/107
f 111/7/107 112/8/108 109/5/105
f 113/9/109 114/10/110 115/11/111
f 115/11/111 116/12/112 113/9/109
f 117/13/113 118/14/114 119/15/15
f 119/15/15 120/16/115 117/13/113
f 121/17/29 122/18/116 123/19/117
f 123/19/117 124/20/118 121/17/29
f 125/21/25 126/22/119 127/23/120
f 127/23/120 128/24/121 125/21/25
f 129/25/21 130/26/122 131/27/123
f 131/27/123 132/28/124 129/25/21
f 133/29/17 134/30/125 135/31/126
f 135/31/126 136/32/127 133/29/17
f 137/33/128 138/34/129 139/35/130
f 139/35/130 140/36/131 137/33/128
f 141/37/132 142/38/133 143/39/134
f 143/39/134 144/40/135 141/37/132
f 145/41/136 146/42/137 147/43/138
f 147/43/138 148/44/139 145/41/136
f 149/45/140 150/46/141 151/47/142
f 151/47/142 152/48/143 149/45/140
f 153/49/144 154/50/145 155/51/146
f 155/51/146 156/52/147 153/49/144
f 143/39/134 142/38/133 157/53/115
f 157/53/115 158/54/148 143/39/134
f 146/42/137 159/55/149 118/14/114
f 118/14/114 147/43/138 146/42/137
f 151/47/142 150/46/141 160/56/150
f 160/56/150 161/57/151 151/47/142
f 154/50/145 162/58/152 163/59/153
f 163/59/153 155/51/146 154/50/145
f 116/60/112 115/61/111 164/62/154
f 164/62/154 165/63/155 116/60/112
f 144/40/135 121/17/29 124/20/118
f 124/20/118 166/64/156 144/40/135
f 167/65/157 137/66/128 109/5/105
f 109/5/105 112/8/108 167/65/157
f 152/48/143 133/29/17 136/32/127
f 136/32/127 168/67/158 152/48/143
f 128/24/121 169/68/159 148/44/139
f 148/44/139 125/21/25 128/24/121
f 124/20/118 170/69/160 107/3/103
f 107/3/103 166/64/156 124/20/118
f 132/28/124 140/70/131 156/52/147
f 156/52/147 129/25/21 132/28/124
f 136/32/127 171/71/161 172/72/162
f 172/72/162 168/67/158 136/32/127
f 121/17/29 144/40/135 143/39/134
f 143/39/134 173/73/163 121/17/29
f 125/21/25 148/44/139 147/43/138
f 147/43/138 174/74/164 125/21/25
f 133/29/17 152/48/143 151/47/142
f 151/47/142 175/75/165 133/29/17
f 129/25/21 156/52/147 155/51/146
f 155/51/146 176/76/166 129/25/21
f 173/73/163 143/39/134 158/54/148
f 158/54/148 177/77/167 173/73/163
f 174/74/164 147/43/138 118/14/114
f 118/14/114 117/13/113 174/74/164
f 175/75/165 151/47/142 161/57/151
f 161/57/151 178/78/168 175/75/165
f 176/76/166 155/51/146 163/59/153
f 163/59/153 179/79/169 176/76/166
f 180/80/170 171/71/161 181/81/171
f 181/81/171 182/82/172 180/80/170
f 178/78/168 183/83/173 184/84/174
f 184/84/174 185/85/175 178/78/168
f 156/52/147 140/70/131 139/86/130
f 139/86/130 153/49/144 156/52/147
f 145/41/136 186/87/176 135/31/126
f 135/31/126 134/30/125 145/41/136
f 187/88/177 188/89/178 138/34/129
f 138/34/129 189/90/179 187/88/177
f 134/30/125 133/29/17 175/75/165
f 175/75/165 190/91/137 134/30/125
f 122/18/116 191/92/180 154/50/145
f 154/50/145 153/49/144 122/18/116
f 175/75/165 178/78/168 185/85/175
f 185/85/175 190/91/137 175/75/165
f 191/92/180 192/93/181 162/58/152
f 162/58/152 154/50/145 191/92/180
f 182/82/172 181/81/171 114/10/110
f 114/10/110 113/9/109 182/82/172
f 185/85/175 184/84/174 193/94/182
f 193/94/182 159/55/149 185/85/175
f 153/49/144 139/86/130 123/19/117
f 123/19/117 122/18/116 153/49/144
f 134/30/125 190/91/137 146/42/137
f 146/42/137 145/41/136 134/30/125
f 190/91/137 185/85/175 159/55/149
f 159/55/149 146/42/137 190/91/137
f 148/44/139 169/68/159 186/87/176
f 186/87/176 145/41/136 148/44/139
f 194/95/183 170/96/160 188/89/178
f 188/89/178 187/88/177 194/95/183
f 122/18/116 121/17/29 173/73/163
f 173/73/163 191/92/180 122/18/116
f 173/73/163 177/77/167 192/93/181
f 192/93/181 191/92/180 173/73/163
f 195/97/184 196/98/185 106/2/102
f 106/2/102 105/1/101 195/97/184
f 131/27/123 197/99/186 198/100/187
f 198/100/187 110/6/106 131/27/123
f 158/54/148 157/53/115 199/101/15
f 199/101/15 177/77/167 158/54/148
f 144/40/135 166/64/156 200/102/188
f 200/102/188 141/37/132 144/40/135
f 149/45/140 197/99/186 131/27/123
f 131/27/123 130/26/122 149/45/140
f 126/22/119 201/103/133 142/38/133
f 142/38/133 141/37/132 126/22/119
f 130/26/122 129/25/21 176/76/166
f 176/76/166 202/104/189 130/26/122
f 201/103/133 120/16/115 157/53/115
f 157/53/115 142/38/133 201/103/133
f 176/76/166 179/79/169 203/105/190
f 203/105/190 202/104/189 176/76/166
f 162/58/152 204/106/191 205/107/192
f 205/107/192 163/59/153 162/58/152
f 162/58/152 192/93/181 206/108/193
f 206/108/193 204/106/191 162/58/152
f 157/53/115 120/16/115 119/15/15
f 119/15/15 199/101/15 157/53/115
f 141/37/132 200/102/188 127/23/120
f 127/23/120 126/22/119 141/37/132
f 130/26/122 202/104/189 150/46/141
f 150/46/141 149/45/140 130/26/122
f 202/104/189 203/105/190 160/56/150
f 160/56/150 150/46/141 202/104/189
f 204/106/191 184/84/174 183/83/173
f 183/83/173 205/107/192 204/106/191
f 184/84/174 204/106/191 206/108/193
f 206/108/193 193/94/182 184/84/174
f 195/97/184 165/63/155 164/62/154
f 164/62/154 196/98/185 195/97/184
f 197/99/186 168/67/158 172/72/162
f 172/72/162 198/100/187 197/99/186
f 152/48/143 168/67/158 197/99/186
f 197/99/186 149/45/140 152/48/143
f 126/22/119 125/21/25 174/74/164
f 174/74/164 201/103/133 126/22/119
f 174/74/164 117/13/113 120/16/115
f 120/16/115 201/103/133 174/74/164
f 106/2/102 200/102/188 166/64/156
f 166/64/156 107/3/103 106/2/102
f 132/28/124 131/27/123 110/6/106
f 110/6/106 109/5/105 132/28/124
f 186/109/176 169/110/159 115/11/111
f 115/11/111 114/10/110 186/109/176
f 167/111/157 189/90/179 138/34/129
f 138/34/129 137/33/128 167/111/157
f 169/68/159 128/24/121 164/62/154
f 164/62/154 115/61/111 169/68/159
f 140/70/131 132/28/124 109/5/105
f 109/5/105 137/66/128 140/70/131
f 194/112/183 108/4/104 107/3/103
f 107/3/103 170/69/160 194/112/183
f 180/80/170 207/113/194 172/72/162
f 172/72/162 171/71/161 180/80/170
f 136/32/127 135/114/126 181/81/171
f 181/81/171 171/71/161 136/32/127
f 123/115/117 139/35/130 138/34/129
f 138/34/129 188/89/178 123/115/117
f 135/114/126 186/109/176 114/10/110
f 114/10/110 181/81/171 135/114/126
f 124/116/118 123/115/117 188/89/178
f 188/89/178 170/96/160 124/116/118
f 127/23/120 200/102/188 106/2/102
f 106/2/102 196/98/185 127/23/120
f 208/117/195 111/7/107 110/6/106
f 110/6/106 198/100/187 208/117/195
f 128/24/121 127/23/120 196/98/185
f 196/98/185 164/62/154 128/24/121
f 207/113/194 208/117/195 198/100/187
f 198/100/187 172/72/162 207/113/194
f 159/55/149 193/94/182 119/15/15
f 119/15/15 118/14/114 159/55/149
f 193/94/182 206/108/193 199/101/15
f 199/101/15 119/15/15 193/94/182
f 206/108/193 192/93/181 177/77/167
f 177/77/167 199/101/15 206/108/193
f 161/57/151 160/56/150 183/83/173
f 183/83/173 178/78/168 161/57/151
f 160/56/150 203/105/190 205/107/192
f 205/107/192 183/83/173 160/56/150
f 205/107/192 203/105/190 179/79/169
f 179/79/169 163/59/153 205/107/192
f 209/1/1 210/2/2 211/3/3
f 211/3/3 212/4/4 209/1/1
f 213/5/5 214/6/6 215/7/7
f 215/7/7 216/8/8 213/5/5
f 217/9/9 218/10/10 219/11/11
f 219/11/11 220/12/12 217/9/9
f 221/13/196 222/14/14 223/15/15
f 223/15/15 224/16/16 221/13/196
f 225/17/17 226/18/18 227/19/19
f 227/19/19 228/20/20 225/17/17
f 229/21/21 230/22/22 231/23/23
f 231/23/23 232/24/24 229/21/21
f 233/25/25 234/26/26 235/27/27
f 235/27/27 236/28/28 233/25/25
f 237/29/29 238/30/30 239/31/31
f 239/31/31 240/32/32 237/29/29
f 241/33/33 242/34/34 243/35/35
f 243/35/35 244/36/36 241/33/33
f 245/37/37 246/38/38 247/39/39
f 247/39/39 248/40/40 245/37/37
f 249/41/41 250/42/42 251/43/43
f 251/43/43 252/44/44 249/41/41
f 253/45/45 254/46/46 255/47/47
f 255/47/47 256/48/48 253/45/45
f 257/49/49 258/50/50 259/51/51
f 259/51/51 260/52/52 257/49/49
f 247/39/39 246/38/38 261/53/16
f 261/53/16 262/54/53 247/39/39
f 250/42/42 263/55/54 222/14/14
f 222/14/14 251/43/43 250/42/42
f 255/47/47 254/46/46 264/56/55
f 264/56/55 265/57/56 255/47/47
f 258/50/50 266/58/57 267/59/58
f 267/59/58 259/51/51 258/50/50
f 220/60/12 219/61/11 268/62/59
f 268/62/59 269/63/197 220/60/12
f 248/40/40 225/17/17 228/20/20
f 228/20/20 270/64/61 248/40/40
f 271/65/62 241/66/33 213/5/5
f 213/5/5 216/8/8 271/65/62
f 256/48/48 237/29/29 240/32/32
f 240/32/32 272/67/63 256/48/48
f 232/24/24 273/68/64 252/44/44
f 252/44/44 229/21/21 232/24/24
f 228/20/20 274/69/65 211/3/3
f 211/3/3 270/64/61 228/20/20
f 236/28/28 244/70/36 260/52/52
f 260/52/52 233/25/25 236/28/28
f 240/32/32 275/71/66 276/72/67
f 276/72/67 272/67/63 240/32/32
f 225/17/17 248/40/40 247/39/39
f 247/39/39 277/73/68 225/17/17
f 229/21/21 252/44/44 251/43/43
f 251/43/43 278/74/69 229/21/21
f 237/29/29 256/48/48 255/47/47
f 255/47/47 279/75/70 237/29/29
f 233/25/25 260/52/52 259/51/51
f 259/51/51 280/76/71 233/25/25
f 277/73/68 247/39/39 262/54/53
f 262/54/53 281/77/72 277/73/68
f 278/74/69 251/43/43 222/14/14
f 222/14/14 221/13/196 278/74/69
f 279/75/70 255/47/47 265/57/56
f 265/57/56 282/78/73 279/75/70
f 280/76/71 259/51/51 267/59/58
f 267/59/58 283/79/74 280/76/71
f 284/80/75 275/71/66 285/81/76
f 285/81/76 286/82/77 284/80/75
f 282/78/73 287/83/78 288/84/79
f 288/84/79 289/85/80 282/78/73
f 260/52/52 244/70/36 243/86/35
f 243/86/35 257/49/49 260/52/52
f 249/41/41 290/87/81 239/31/31
f 239/31/31 238/30/30 249/41/41
f 291/88/82 292/89/83 242/34/34
f 242/34/34 293/90/84 291/88/82
f 238/30/30 237/29/29 279/75/70
f 279/75/70 294/91/42 238/30/30
f 226/18/18 295/92/85 258/50/50
f 258/50/50 257/49/49 226/18/18
f 279/75/70 282/78/73 289/85/80
f 289/85/80 294/91/42 279/75/70
f 295/92/85 296/93/86 266/58/57
f 266/58/57 258/50/50 295/92/85
f 286/82/77 285/81/76 218/10/10
f 218/10/10 217/9/9 286/82/77
f 289/85/80 288/84/79 297/94/87
f 297/94/87 263/55/54 289/85/80
f 257/49/49 243/86/35 227/19/19
f 227/19/19 226/18/18 257/49/49
f 238/30/30 294/91/42 250/42/42
f 250/42/42 249/41/41 238/30/30
f 294/91/42 289/85/80 263/55/54
f 263/55/54 250/42/42 294/91/42
f 252/44/44 273/68/64 290/87/81
f 290/87/81 249/41/41 252/44/44
f 298/95/88 274/96/65 292/89/83
f 292/89/83 291/88/82 298/95/88
f 226/18/18 225/17/17 277/73/68
f 277/73/68 295/92/85 226/18/18
f 277/73/68 281/77/72 296/93/86
f 296/93/86 295/92/85 277/73/68
f 299/97/89 300/98/90 210/2/2
f 210/2/2 209/1/1 299/97/89
f 235/27/27 301/99/91 302/100/92
f 302/100/92 214/6/6 235/27/27
f 262/54/53 261/53/16 303/101/15
f 303/101/15 281/77/72 262/54/53
f 248/40/40 270/64/61 304/102/93
f 304/102/93 245/37/37 248/40/40
f 253/45/45 301/99/91 235/27/27
f 235/27/27 234/26/26 253/45/45
f 230/22/22 305/103/38 246/38/38
f 246/38/38 245/37/37 230/22/22
f 234/26/26 233/25/25 280/76/71
f 280/76/71 306/104/94 234/26/26
f 305/103/38 224/16/16 261/53/16
f 261/53/16 246/38/38 305/103/38
f 280/76/71 283/79/74 307/105/95
f 307/105/95 306/104/94 280/76/71
f 266/58/57 308/106/96 309/107/97
f 309/107/97 267/59/58 266/58/57
f 266/58/57 296/93/86 310/108/98
f 310/108/98 308/106/96 266/58/57
f 261/53/16 224/16/16 223/15/15
f 223/15/15 303/101/15 261/53/16
f 245/37/37 304/102/93 231/23/23
f 231/23/23 230/22/22 245/37/37
f 234/26/26 306/104/94 254/46/46
f 254/46/46 253/45/45 234/26/26
f 306/104/94 307/105/95 264/56/55
f 264/56/55 254/46/46 306/104/94
f 308/106/96 288/84/79 287/83/78
f 287/83/78 309/107/97 308/106/96
f 288/84/79 308/106/96 310/108/98
f 310/108/98 297/94/87 288/84/79
f 299/97/89 269/63/197 268/62/59
f 268/62/59 300/98/90 299/97/89
f 301/99/91 272/67/63 276/72/67
f 276/72/67 302/100/92 301/99/91
f 256/48/48 272/67/63 301/99/91
f 301/99/91 253/45/45 256/48/48
f 230/22/22 229/21/21 278/74/69
f 278/74/69 305/103/38 230/22/22
f 278/74/69 221/13/196 224/16/16
f 224/16/16 305/103/38 278/74/69
f 210/2/2 304/102/93 270/64/61
f 270/64/61 211/3/3 210/2/2
f 236/28/28 235/27/27 214/6/6
f 214/6/6 213/5/5 236/28/28
f 290/109/81 273/110/64 219/11/11
f 219/11/11 218/10/10 290/109/81
f 271/111/62 293/90/84 242/34/34
f 242/34/34 241/33/33 271/111/62
f 273/68/64 232/24/24 268/62/59
f 268/62/59 219/61/11 273/68/64
f 244/70/36 236/28/28 213/5/5
f 213/5/5 241/66/33 244/70/36
f 298/112/88 212/4/4 211/3/3
f 211/3/3 274/69/65 298/112/88
f 284/80/75 311/113/99 276/72/67
f 276/72/67 275/71/66 284/80/75
f 240/32/32 239/114/31 285/81/76
f 285/81/76 275/71/66 240/32/32
f 227/115/19 243/35/35 242/34/34
f 242/34/34 292/89/83 227/115/19
f 239/114/31 290/109/81 218/10/10
f 218/10/10 285/81/76 239/114/31
f 228/116/20 227/115/19 292/89/83
f 292/89/83 274/96/65 228/116/20
f 231/23/23 304/102/93 210/2/2
f 210/2/2 300/98/90 231/23/23
f 312/117/100 215/7/7 214/6/6
f 214/6/6 302/100/92 312/117/100
f 232/24/24 231/23/23 300/98/90
f 300/98/90 268/62/59 232/24/24
f 311/113/99 312/117/100 302/100/92
f 302/100/92 276/72/67 311/113/99
f 263/55/54 297/94/87 223/15/15
f 223/15/15 222/14/14 263/55/54
f 297/94/87 310/108/98 303/101/15
f 303/101/15 223/15/15 297/94/87
f 310/108/98 296/93/86 281/77/72
f 281/77/72 303/101/15 310/108/98
f 265/57/56 264/56/55 287/83/78
f 287/83/78 282/78/73 265/57/56
f 264/56/55 307/105/95 309/107/97
f 309/107/97 287/83/78 264/56/55
f 309/107/97 307/105/95 283/79/74
f 283/79/74 267/59/58 309/107/97
f 313/1/1 314/2/2 315/3/3
f 315/3/3 316/4/4 313/1/1
f 317/5/5 318/6/6 319/7/7
f 319/7/7 320/8/8 317/5/5
f 321/9/9 322/10/10 323/11/11
f 323/11/11 324/12/12 321/9/9
f 325/13/196 326/14/14 327/15/15
f 327/15/15 328/16/16 325/13/196
f 329/17/17 330/18/18 331/19/19
f 331/19/19 332/20/20 329/17/17
f 333/21/21 334/22/22 335/23/23
f 335/23/23 336/24/24 333/21/21
f 337/25/25 338/26/26 339/27/27
f 339/27/27 340/28/28 337/25/25
f 341/29/29 342/30/30 343/31/31
f 343/31/31 344/32/32 341/29/29
f 345/33/33 346/34/34 347/35/35
f 347/35/35 348/36/36 345/33/33
f 349/37/37 350/38/38 351/39/39
f 351/39/39 352/40/40 349/37/37
f 353/41/41 354/42/42 355/43/198
f 355/43/198 356/44/44 353/41/41
f 357/45/45 358/46/46 359/47/47
f 359/47/47 360/48/48 357/45/45
f 361/49/49 362/50/50 363/51/51
f 363/51/51 364/52/52 361/49/49
f 351/39/39 350/38/38 365/53/16
f 365/53/16 366/54/53 351/39/39
f 354/42/42 367/55/54 326/14/14
f 326/14/14 355/43/198 354/42/42
f 359/47/47 358/46/46 368/56/55
f 368/56/55 369/57/56 359/47/47
f 362/50/50 370/58/57 371/59/58
f 371/59/58 363/51/51 362/50/50
f 324/60/12 323/61/11 372/62/59
f 372/62/59 373/63/197 324/60/12
f 352/40/40 329/17/17 332/20/20
f 332/20/20 374/64/61 352/40/40
f 375/65/62 345/66/33 317/5/5
f 317/5/5 320/8/8 375/65/62
f 360/48/48 341/29/29 344/32/32
f 344/32/32 376/67/63 360/48/48
f 336/24/24 377/68/64 356/44/44
f 356/44/44 333/21/21 336/24/24
f 332/20/20 378/69/65 315/3/3
f 315/3/3 374/64/61 332/20/20
f 340/28/28 348/70/36 364/52/52
f 364/52/52 337/25/25 340/28/28
f 344/32/32 379/71/66 380/72/67
f 380/72/67 376/67/63 344/32/32
f 329/17/17 352/40/40 351/39/39
f 351/39/39 381/73/68 329/17/17
f 333/21/21 356/44/44 355/43/198
f 355/43/198 382/74/69 333/21/21
f 341/29/29 360/48/48 359/47/47
f 359/47/47 383/75/70 341/29/29
f 337/25/25 364/52/52 363/51/51
f 363/51/51 384/76/71 337/25/25
f 381/73/68 351/39/39 366/54/53
f 366/54/53 385/77/72 381/73/68
f 382/74/69 355/43/198 326/14/14
f 326/14/14 325/13/196 382/74/69
f 383/75/70 359/47/47 369/57/56
f 369/57/56 386/78/73 383/75/70
f 384/76/71 363/51/51 371/59/58
f 371/59/58 387/79/74 384/76/71
f 388/80/75 379/71/66 389/81/76
f 389/81/76 390/82/77 388/80/75
f 386/78/73 391/83/78 392/84/79
f 392/84/79 393/85/80 386/78/73
f 364/52/52 348/70/36 347/86/35
f 347/86/35 361/49/49 364/52/52
f 353/41/41 394/87/81 343/31/31
f 343/31/31 342/30/30 353/41/41
f 395/88/82 396/89/83 346/34/34
f 346/34/34 397/90/84 395/88/82
f 342/30/30 341/29/29 383/75/70
f 383/75/70 398/91/42 342/30/30
f 330/18/18 399/92/85 362/50/50
f 362/50/50 361/49/49 330/18/18
f 383/75/70 386/78/73 393/85/80
f 393/85/80 398/91/42 383/75/70
f 399/92/85 400/93/86 370/58/57
f 370/58/57 362/50/50 399/92/85
f 390/82/77 389/81/76 322/10/10
f 322/10/10 321/9/9 390/82/77
f 393/85/80 392/84/79 401/94/87
f 401/94/87 367/55/54 393/85/80
f 361/49/49 347/86/35 331/19/19
f 331/19/19 330/18/18 361/49/49
f 342/30/30 398/91/42 354/42/42
f 354/42/42 353/41/41 342/30/30
f 398/91/42 393/85/80 367/55/54
f 367/55/54 354/42/42 398/91/42
f 356/44/44 377/68/64 394/87/81
f 394/87/81 353/41/41 356/44/44
f 402/95/88 378/96/65 396/89/83
f 396/89/83 395/88/82 402/95/88
f 330/18/18 329/17/17 381/73/68
f 381/73/68 399/92/85 330/18/18
f 381/73/68 385/77/72 400/93/86
f 400/93/86 399/92/85 381/73/68
f 403/97/89 404/98/90 314/2/2
f 314/2/2 313/1/1 403/97/89
f 339/27/27 405/99/91 406/100/92
f 406/100/92 318/6/6 339/27/27
f 366/54/53 365/53/16 407/101/15
f 407/101/15 385/77/72 366/54/53
f 352/40/40 374/64/61 408/102/93
f 408/102/93 349/37/37 352/40/40
f 357/45/45 405/99/91 339/27/27
f 339/27/27 338/26/26 357/45/45
f 334/22/22 409/103/38 350/38/38
f 350/38/38 349/37/37 334/22/22
f 338/26/26 337/25/25 384/76/71
f 384/76/71 410/104/94 338/26/26
f 409/103/38 328/16/16 365/53/16
f 365/53/16 350/38/38 409/103/38
f 384/76/71 387/79/74 411/105/95
f 411/105/95 410/104/94 384/76/71
f 370/58/57 412/106/96 413/107/97
f 413/107/97 371/59/58 370/58/57
f 370/58/57 400/93/86 414/108/98
f 414/108/98 412/106/96 370/58/57
f 365/53/16 328/16/16 327/15/15
f 327/15/15 407/101/15 365/53/16
f 349/37/37 408/102/93 335/23/23
f 335/23/23 334/22/22 349/37/37
f 338/26/26 410/104/94 358/46/46
f 358/46/46 357/45/45 338/26/26
f 410/104/94 411/105/95 368/56/55
f 368/56/55 358/46/46 410/104/94
f 412/106/96 392/84/79 391/83/78
f 391/83/78 413/107/97 412/106/96
f 392/84/79 412/106/96 414/108/98
f 414/108/98 401/94/87 392/84/79
f 403/97/89 373/63/197 372/62/59
f 372/62/59 404/98/90 403/97/89
f 405/99/91 376/67/63 380/72/67
f 380/72/67 406/100/92 405/99/91
f 360/48/48 376/67/63 405/99/91
f 405/99/91 357/45/45 360/48/48
f 334/22/22 333/21/21 382/74/69
f 382/74/69 409/103/38 334/22/22
f 382/74/69 325/13/196 328/16/16
f 328/16/16 409/103/38 382/74/69
f 314/2/2 408/102/93 374/64/61
f 374/64/61 315/3/3 314/2/2
f 340/28/28 339/27/27 318/6/6
f 318/6/6 317/5/5 340/28/28
f 394/109/81 377/110/64 323/11/11
f 323/11/11 322/10/10 394/109/81
f 375/111/62 397/90/84 346/34/34
f 346/34/34 345/33/33 375/111/62
f 377/68/64 336/24/24 372/62/59
f 372/62/59 323/61/11 377/68/64
f 348/70/36 340/28/28 317/5/5
f 317/5/5 345/66/33 348/70/36
f 402/112/88 316/4/4 315/3/3
f 315/3/3 378/69/65 402/112/88
f 388/80/75 415/113/99 380/72/67
f 380/72/67 379/71/66 388/80/75
f 344/32/32 343/114/31 389/81/76
f 389/81/76 379/71/66 344/32/32
f 331/115/19 347/35/35 346/34/34
f 346/34/34 396/89/83 331/115/19
f 343/114/31 394/109/81 322/10/10
f 322/10/10 389/81/76 343/114/31
f 332/116/20 331/115/19 396/89/83
f 396/89/83 378/96/65 332/116/20
f 335/23/23 408/102/93 314/2/2
f 314/2/2 404/98/90 335/23/23
f 416/117/100 319/7/7 318/6/6
f 318/6/6 406/100/92 416/117/100
f 336/24/24 335/23/23 404/98/90
f 404/98/90 372/62/59 336/24/24
f 415/113/99 416/117/100 406/100/92
f 406/100/92 380/72/67 415/113/99
f 367/55/54 401/94/87 327/15/15
f 327/15/15 326/14/14 367/55/54
f 401/94/87 414/108/98 407/101/15
f 407/101/15 327/15/15 401/94/87
f 414/108/98 400/93/86 385/77/72
f 385/77/72 407/101/15 414/108/98
f 369/57/56 368/56/55 391/83/78
f 391/83/78 386/78/73 369/57/56
f 368/56/55 411/105/95 413/107/97
f 413/107/97 391/83/78 368/56/55
f 413/107/97 411/105/95 387/79/74
f 387/79/74 371/59/58 413/107/97
f 417/1/1 418/2/2 419/3/3
f 419/3/3 420/4/4 417/1/1
f 421/5/5 422/6/6 423/7/7
f 423/7/7 424/8/8 421/5/5
f 425/9/9 426/10/10 427/11/11
f 427/11/11 428/12/12 425/9/9
f 429/13/13 430/14/14 431/15/15
f 431/15/15 432/16/16 429/13/13
f 433/17/17 434/18/18 435/19/19
f 435/19/19 436/20/20 433/17/17
f 437/21/21 438/22/22 439/23/23
f 439/23/23 440/24/24 437/21/21
f 441/25/25 442/26/26 443/27/27
f 443/27/27 444/28/28 441/25/25
f 445/29/29 446/30/30 447/31/31
f 447/31/31 448/32/32 445/29/29
f 449/33/33 450/34/34 451/35/35
f 451/35/35 452/36/36 449/33/33
f 453/37/37 454/38/38 455/39/39
f 455/39/39 456/40/40 453/37/37
f 457/41/41 458/42/42 459/43/43
f 459/43/43 460/44/44 457/41/41
f 461/45/45 462/46/46 463/47/47
f 463/47/47 464/48/48 461/45/45
f 465/49/49 466/50/50 467/51/51
f 467/51/51 468/52/52 465/49/49
f 455/39/39 454/38/38 469/53/16
f 469/53/16 470/54/53 455/39/39
f 458/42/42 471/55/54 430/14/14
f 430/14/14 459/43/43 458/42/42
f 463/47/47 462/46/46 472/56/55
f 472/56/55 473/57/56 463/47/47
f 466/50/50 474/58/57 475/59/58
f 475/59/58 467/51/51 466/50/50
f 428/60/12 427/61/11 476/62/59
f 476/62/59 477/63/197 428/60/12
f 456/40/40 433/17/17 436/20/20
f 436/20/20 478/64/61 456/40/40
f 479/65/62 449/66/33 421/5/5
f 421/5/5 424/8/8 479/65/62
f 464/48/48 445/29/29 448/32/32
f 448/32/32 480/67/63 464/48/48
f 440/24/24 481/68/64 460/44/44
f 460/44/44 437/21/21 440/24/24
f 436/20/20 482/69/65 419/3/3
f 419/3/3 478/64/61 436/20/20
f 444/28/28 452/70/36 468/52/52
f 468/52/52 441/25/25 444/28/28
f 448/32/32 483/71/66 484/72/67
f 484/72/67 480/67/63 448/32/32
f 433/17/17 456/40/40 455/39/39
f 455/39/39 485/73/68 433/17/17
f 437/21/21 460/44/44 459/43/43
f 459/43/43 486/74/69 437/21/21
f 445/29/29 464/48/48 463/47/47
f 463/47/47 487/75/70 445/29/29
f 441/25/25 468/52/52 467/51/51
f 467/51/51 488/76/71 441/25/25
f 485/73/68 455/39/39 470/54/53
f 470/54/53 489/77/72 485/73/68
f 486/74/69 459/43/43 430/14/14
f 430/14/14 429/13/13 486/74/69
f 487/75/70 463/47/47 473/57/56
f 473/57/56 490/78/73 487/75/70
f 488/76/71 467/51/51 475/59/58
f 475/59/58 491/79/74 488/76/71
f 492/80/75 483/71/66 493/81/76
f 493/81/76 494/82/77 492/80/75
f 490/78/73 495/83/78 496/84/79
f 496/84/79 497/85/80 490/78/73
f 468/52/52 452/70/36 451/86/35
f 451/86/35 465/49/49 468/52/52
f 457/41/41 498/87/81 447/31/31
f 447/31/31 446/30/30 457/41/41
f 499/88/82 500/89/83 450/34/34
f 450/34/34 501/90/84 499/88/82
f 446/30/30 445/29/29 487/75/70
f 487/75/70 502/91/42 446/30/30
f 434/18/18 503/92/85 466/50/50
f 466/50/50 465/49/49 434/18/18
f 487/75/70 490/78/73 497/85/80
f 497/85/80 502/91/42 487/75/70
f 503/92/85 504/93/86 474/58/57
f 474/58/57 466/50/50 503/92/85
f 494/82/77 493/81/76 426/10/10
f 426/10/10 425/9/9 494/82/77
f 497/85/80 496/84/79 505/94/87
f 505/94/87 471/55/54 497/85/80
f 465/49/49 451/86/35 435/19/19
f 435/19/19 434/18/18 465/49/49
f 446/30/30 502/91/42 458/42/42
f 458/42/42 457/41/41 446/30/30
f 502/91/42 497/85/80 471/55/54
f 471/55/54 458/42/42 502/91/42
f 460/44/44 481/68/64 498/87/81
f 498/87/81 457/41/41 460/44/44
f 506/95/88 482/96/65 500/89/83
f 500/89/83 499/88/82 506/95/88
f 434/18/18 433/17/17 485/73/68
f 485/73/68 503/92/85 434/18/18
f 485/73/68 489/77/72 504/93/86
f 504/93/86 503/92/85 485/73/68
f 507/97/89 508/98/90 418/2/2
f 418/2/2 417/1/1 507/97/89
f 443/27/27 509/99/91 510/100/92
f 510/100/92 422/6/6 443/27/27
f 470/54/53 469/53/16 511/101/15
f 511/101/15 489/77/72 470/54/53
f 456/40/40 478/64/61 512/102/93
f 512/102/93 453/37/37 456/40/40
f 461/45/45 509/99/91 443/27/27
f 443/27/27 442/26/26 461/45/45
f 438/22/22 513/103/38 454/38/38
f 454/38/38 453/37/37 438/22/22
f 442/26/26 441/25/25 488/76/71
f 488/76/71 514/104/94 442/26/26
f 513/103/38 432/16/16 469/53/16
f 469/53/16 454/38/38 513/103/38
f 488/76/71 491/79/74 515/105/95
f 515/105/95 514/104/94 488/76/71
f 474/58/57 516/106/96 517/107/97
f 517/107/97 475/59/58 474/58/57
f 474/58/57 504/93/86 518/108/98
f 518/108/98 516/106/96 474/58/57
f 469/53/16 432/16/16 431/15/15
f 431/15/15 511/101/15 469/53/16
f 453/37/37 512/102/93 439/23/23
f 439/23/23 438/22/22 453/37/37
f 442/26/26 514/104/94 462/46/46
f 462/46/46 461/45/45 442/26/26
f 514/104/94 515/105/95 472/56/55
f 472/56/55 462/46/46 514/104/94
f 516/106/96 496/84/79 495/83/78
f 495/83/78 517/107/97 516/106/96
f 496/84/79 516/106/96 518/108/98
f 518/108/98 505/94/87 496/84/79
f 507/97/89 477/63/197 476/62/59
f 476/62/59 508/98/90 507/97/89
f 509/99/91 480/67/63 484/72/67
f 484/72/67 510/100/92 509/99/91
f 464/48/48 480/67/63 509/99/91
f 509/99/91 461/45/45 464/48/48
f 438/22/22 437/21/21 486/74/69
f 486/74/69 513/103/38 438/22/22
f 486/74/69 429/13/13 432/16/16
f 432/16/16 513/103/38 486/74/69
f 418/2/2 512/102/93 478/64/61
f 478/64/61 419/3/3 418/2/2
f 444/28/28 443/27/27 422/6/6
f 422/6/6 421/5/5 444/28/28
f 498/109/81 481/110/64 427/11/11
f 427/11/11 426/10/10 498/109/81
f 479/111/62 501/90/84 450/34/34
f 450/34/34 449/33/33 479/111/62
f 481/68/64 440/24/24 476/62/59
f 476/62/59 427/61/11 481/68/64
f 452/70/36 444/28/28 421/5/5
f 421/5/5 449/66/33 452/70/36
f 506/112/88 420/4/4 419/3/3
f 419/3/3 482/69/65 506/112/88
f 492/80/75 519/113/99 484/72/67
f 484/72/67 483/71/66 492/80/75
f 448/32/32 447/114/31 493/81/76
f 493/81/76 483/71/66 448/32/32
f 435/115/19 451/35/35 450/34/34
f 450/34/34 500/89/83 435/115/19
f 447/114/31 498/109/81 426/10/10
f 426/10/10 493/81/76 447/114/31
f 436/116/20 435/115/19 500/89/83
f 500/89/83 482/96/65 436/116/20
f 439/23/23 512/102/93 418/2/2
f 418/2/2 508/98/90 439/23/23
f 520/117/100 423/7/7 422/6/6
f 422/6/6 510/100/92 520/117/100
f 440/24/24 439/23/23 508/98/90
f 508/98/90 476/62/59 440/24/24
f 519/113/99 520/117/100 510/100/92
f 510/100/92 484/72/67 519/113/99
f 471/55/54 505/94/87 431/15/15
f 431/15/15 430/14/14 471/55/54
f 505/94/87 518/108/98 511/101/15
f 511/101/15 431/15/15 505/94/87
f 518/108/98 504/93/86 489/77/72
f 489/77/72 511/101/15 518/108/98
f 473/57/56 472/56/55 495/83/78
f 495/83/78 490/78/73 473/57/56
f 472/56/55 515/105/95 517/107/97
f 517/107/97 495/83/78 472/56/55
f 517/107/97 515/105/95 491/79/74
f 491/79/74 475/59/58 517/107/97
f 521/1/1 522/2/2 523/3/3
f 523/3/3 524/4/4 521/1/1
f 525/5/5 526/6/6 527/7/7
f 527/7/7 528/8/8 525/5/5
f 529/9/9 530/10/10 531/11/11
f 531/11/11 532/12/12 529/9/9
f 533/13/13 534/14/14 535/15/15
f 535/15/15 536/16/16 533/13/13
f 537/17/17 538/18/18 539/19/19
f 539/19/19 540/20/20 537/17/17
f 541/21/21 542/22/22 543/23/23
f 543/23/23 544/24/24 541/21/21
f 545/25/25 546/26/26 547/27/27
f 547/27/27 548/28/28 545/25/25
f 549/29/29 550/30/30 551/31/31
f 551/31/31 552/32/32 549/29/29
f 553/33/33 554/34/34 555/35/35
f 555/35/35 556/36/36 553/33/33
f 557/37/37 558/38/38 559/39/39
f 559/39/39 560/40/40 557/37/37
f 561/41/41 562/42/42 563/43/43
f 563/43/43 564/44/44 561/41/41
f 565/45/45 566/46/46 567/47/47
f 567/47/47 568/48/48 565/45/45
f 569/49/49 570/50/50 571/51/51
f 571/51/51 572/52/52 569/49/49
f 559/39/39 558/38/38 573/53/16
f 573/53/16 574/54/53 559/39/39
f 562/42/42 575/55/54 534/14/14
f 534/14/14 563/43/43 562/42/42
f 567/47/47 566/46/46 576/56/55
f 576/56/55 577/57/56 567/47/47
f 570/50/50 578/58/57 579/59/58
f 579/59/58 571/51/51 570/50/50
f 532/60/12 531/61/11 580/62/59
f 580/62/59 581/63/197 532/60/12
f 560/40/40 537/17/17 540/20/20
f 540/20/20 582/64/61 560/40/40
f 583/65/62 553/66/33 525/5/5
f 525/5/5 528/8/8 583/65/62
f 568/48/48 549/29/29 552/32/32
f 552/32/32 584/67/63 568/48/48
f 544/24/24 585/68/64 564/44/44
f 564/44/44 541/21/21 544/24/24
f 540/20/20 586/69/65 523/3/3
f 523/3/3 582/64/61 540/20/20
f 548/28/28 556/70/36 572/52/52
f 572/52/52 545/25/25 548/28/28
f 552/32/32 587/71/66 588/72/67
f 588/72/67 584/67/63 552/32/32
f 537/17/17 560/40/40 559/39/39
f 559/39/39 589/73/68 537/17/17
f 541/21/21 564/44/44 563/43/43
f 563/43/43 590/74/69 541/21/21
f 549/29/29 568/48/48 567/47/47
f 567/47/47 591/75/70 549/29/29
f 545/25/25 572/52/52 571/51/51
f 571/51/51 592/76/71 545/25/25
f 589/73/68 559/39/39 574/54/53
f 574/54/53 593/77/72 589/73/68
f 590/74/69 563/43/43 534/14/14
f 534/14/14 533/13/13 590/74/69
f 591/75/70 567/47/47 577/57/56
f 577/57/56 594/78/73 591/75/70
f 592/76/71 571/51/51 579/59/58
f 579/59/58 595/79/199 592/76/71
f 596/80/75 587/71/66 597/81/76
f 597/81/76 598/82/77 596/80/75
f 594/78/73 599/83/78 600/84/79
f 600/84/79 601/85/80 594/78/73
f 572/52/52 556/70/36 555/86/35
f 555/86/35 569/49/49 572/52/52
f 561/41/41 602/87/81 551/31/31
f 551/31/31 550/30/30 561/41/41
f 603/88/82 604/89/83 554/34/34
f 554/34/34 605/90/84 603/88/82
f 550/30/30 549/29/29 591/75/70
f 591/75/70 606/91/42 550/30/30
f 538/18/18 607/92/85 570/50/50
f 570/50/50 569/49/49 538/18/18
f 591/75/70 594/78/73 601/85/80
f 601/85/80 606/91/42 591/75/70
f 607/92/85 608/93/86 578/58/57
f 578/58/57 570/50/50 607/92/85
f 598/82/77 597/81/76 530/10/10
f 530/10/10 529/9/9 598/82/77
f 601/85/80 600/84/79 609/94/87
f 609/94/87 575/55/54 601/85/80
f 569/49/49 555/86/35 539/19/19
f 539/19/19 538/18/18 569/49/49
f 550/30/30 606/91/42 562/42/42
f 562/42/42 561/41/41 550/30/30
f 606/91/42 601/85/80 575/55/54
f 575/55/54 562/42/42 606/91/42
f 564/44/44 585/68/64 602/87/81
f 602/87/81 561/41/41 564/44/44
f 610/95/88 586/96/65 604/89/83
f 604/89/83 603/88/82 610/95/88
f 538/18/18 537/17/17 589/73/68
f 589/73/68 607/92/85 538/18/18
f 589/73/68 593/77/72 608/93/86
f 608/93/86 607/92/85 589/73/68
f 611/97/89 612/98/90 522/2/2
f 522/2/2 521/1/1 611/97/89
f 547/27/27 613/99/91 614/100/92
f 614/100/92 526/6/6 547/27/27
f 574/54/53 573/53/16 615/101/15
f 615/101/15 593/77/72 574/54/53
f 560/40/40 582/64/61 616/102/93
f 616/102/93 557/37/37 560/40/40
f 565/45/45 613/99/91 547/27/27
f 547/27/27 546/26/26 565/45/45
f 542/22/22 617/103/38 558/38/38
f 558/38/38 557/37/37 542/22/22
f 546/26/26 545/25/25 592/76/71
f 592/76/71 618/104/94 546/26/26
f 617/103/38 536/16/16 573/53/16
f 573/53/16 558/38/38 617/103/38
f 592/76/71 595/79/199 619/105/95
f 619/105/95 618/104/94 592/76/71
f 578/58/57 620/106/96 621/107/97
f 621/107/97 579/59/58 578/58/57
f 578/58/57 608/93/86 622/108/98
f 622/108/98 620/106/96 578/58/57
f 573/53/16 536/16/16 535/15/15
f 535/15/15 615/101/15 573/53/16
f 557/37/37 616/102/93 543/23/23
f 543/23/23 542/22/22 557/37/37
f 546/26/26 618/104/94 566/46/46
f 566/46/46 565/45/45 546/26/26
f 618/104/94 619/105/95 576/56/55
f 576/56/55 566/46/46 618/104/94
f 620/106/96 600/84/79 599/83/78
f 599/83/78 621/107/97 620/106/96
f 600/84/79 620/106/96 622/108/98
f 622/108/98 609/94/87 600/84/79
f 611/97/89 581/63/197 580/62/59
f 580/62/59 612/98/90 611/97/89
f 613/99/91 584/67/63 588/72/67
f 588/72/67 614/100/92 613/99/91
f 568/48/48 584/67/63 613/99/91
f 613/99/91 565/45/45 568/48/48
f 542/22/22 541/21/21 590/74/69
f 590/74/69 617/103/38 542/22/22
f 590/74/69 533/13/13 536/16/16
f 536/16/16 617/103/38 590/74/69
f 522/2/2 616/102/93 582/64/61
f 582/64/61 523/3/3 522/2/2
f 548/28/28 547/27/27 526/6/6
f 526/6/6 525/5/5 548/28/28
f 602/109/81 585/110/64 531/11/11
f 531/11/11 530/10/10 602/109/81
f 583/111/62 605/90/84 554/34/34
f 554/34/34 553/33/33 583/111/62
f 585/68/64 544/24/24 580/62/59
f 580/62/59 531/61/11 585/68/64
f 556/70/36 548/28/28 525/5/5
f 525/5/5 553/66/33 556/70/36
f 610/112/88 524/4/4 523/3/3
f 523/3/3 586/69/65 610/112/88
f 596/80/75 623/113/99 588/72/67
f 588/72/67 587/71/66 596/80/75
f 552/32/32 551/114/31 597/81/76
f 597/81/76 587/71/66 552/32/32
f 539/115/19 555/35/35 554/34/34
f 554/34/34 604/89/83 539/115/19
f 551/114/31 602/109/81 530/10/10
f 530/10/10 597/81/76 551/114/31
f 540/116/20 539/115/19 604/89/83
f 604/89/83 586/96/65 540/116/20
f 543/23/23 616/102/93 522/2/2
f 522/2/2 612/98/90 543/23/23
f 624/117/100 527/7/7 526/6/6
f 526/6/6 614/100/92 624/117/100
f 544/24/24 543/23/23 612/98/90
f 612/98/90 580/62/59 544/24/24
f 623/113/99 624/117/100 614/100/92
f 614/100/92 588/72/67 623/113/99
f 575/55/54 609/94/87 535/15/15
f 535/15/15 534/14/14 575/55/54
f 609/94/87 622/108/98 615/101/15
f 615/101/15 535/15/15 609/94/87
f 622/108/98 608/93/86 593/77/72
f 593/77/72 615/101/15 622/108/98
f 577/57/56 576/56/55 599/83/78
f 599/83/78 594/78/73 577/57/56
f 576/56/55 619/105/95 621/107/97
f 621/107/97 599/83/78 576/56/55
f 621/107/97 619/105/95 595/79/199
f 595/79/199 579/59/58 621/107/97
f 625/1/1 626/2/2 627/3/3
f 627/3/3 628/4/4 625/1/1
f 629/5/5 630/6/6 631/7/7
f 631/7/7 632/8/8 629/5/5
f 633/9/9 634/10/10 635/11/11
f 635/11/11 636/12/12 633/9/9
f 637/13/13 638/14/14 639/15/15
f 639/15/15 640/16/16 637/13/13
f 641/17/17 642/18/18 643/19/19
f 643/19/19 644/20/20 641/17/17
f 645/21/21 646/22/22 647/23/23
f 647/23/23 648/24/24 645/21/21
f 649/25/25 650/26/26 651/27/27
f 651/27/27 652/28/28 649/25/25
f 653/29/29 654/30/30 655/31/31
f 655/31/31 656/32/32 653/29/29
f 657/33/33 658/34/34 659/35/35
f 659/35/35 660/36/36 657/33/33
f 661/37/37 662/38/38 663/39/39
f 663/39/39 664/40/40 661/37/37
f 665/41/41 666/42/42 667/43/43
f 667/43/43 668/44/44 665/41/41
f 669/45/45 670/46/46 671/47/47
f 671/47/47 672/48/48 669/45/45
f 673/49/49 674/50/50 675/51/51
f 675/51/51 676/52/52 673/49/49
f 663/39/39 662/38/38 677/53/16
f 677/53/16 678/54/53 663/39/39
f 666/42/42 679/55/54 638/14/14
f 638/14/14 667/43/43 666/42/42
f 671/47/47 670/46/46 680/56/55
f 680/56/55 681/57/56 671/47/47
f 674/50/50 682/58/57 683/59/58
f 683/59/58 675/51/51 674/50/50
f 636/60/12 635/61/11 684/62/59
f 684/62/59 685/63/197 636/60/12
f 664/40/40 641/17/17 644/20/20
f 644/20/20 686/64/61 664/40/40
f 687/65/62 657/66/33 629/5/5
f 629/5/5 632/8/8 687/65/62
f 672/48/48 653/29/29 656/32/32
f 656/32/32 688/67/63 672/48/48
f 648/24/24 689/68/64 668/44/44
f 668/44/44 645/21/21 648/24/24
f 644/20/20 690/69/65 627/3/3
f 627/3/3 686/64/61 644/20/20
f 652/28/28 660/70/36 676/52/52
f 676/52/52 649/25/25 652/28/28
f 656/32/32 691/71/66 692/72/67
f 692/72/67 688/67/63 656/32/32
f 641/17/17 664/40/40 663/39/39
f 663/39/39 693/73/68 641/17/17
f 645/21/21 668/44/44 667/43/43
f 667/43/43 694/74/69 645/21/21
f 653/29/29 672/48/48 671/47/47
f 671/47/47 695/75/70 653/29/29
f 649/25/25 676/52/52 675/51/51
f 675/51/51 696/76/71 649/25/25
f 693/73/68 663/39/39 678/54/53
f 678/54/53 697/77/72 693/73/68
f 694/74/69 667/43/43 638/14/14
f 638/14/14 637/13/13 694/74/69
f 695/75/70 671/47/47 681/57/56
f 681/57/56 698/78/73 695/75/70
f 696/76/71 675/51/51 683/59/58
f 683/59/58 699/79/74 696/76/71
f 700/80/75 691/71/66 701/81/76
f 701/81/76 702/82/77 700/80/75
f 698/78/73 703/83/78 704/84/79
f 704/84/79 705/85/80 698/78/73
f 676/52/52 660/70/36 659/86/35
f 659/86/35 673/49/49 676/52/52
f 665/41/41 706/87/81 655/31/31
f 655/31/31 654/30/30 665/41/41
f 707/88/82 708/89/83 658/34/34
f 658/34/34 709/90/84 707/88/82
f 654/30/30 653/29/29 695/75/70
f 695/75/70 710/91/42 654/30/30
f 642/18/18 711/92/85 674/50/50
f 674/50/50 673/49/49 642/18/18
f 695/75/70 698/78/73 705/85/80
f 705/85/80 710/91/42 695/75/70
f 711/92/85 712/93/86 682/58/57
f 682/58/57 674/50/50 711/92/85
f 702/82/77 701/81/76 634/10/10
f 634/10/10 633/9/9 702/82/77
f 705/85/80 704/84/79 713/94/87
f 713/94/87 679/55/54 705/85/80
f 673/49/49 659/86/35 643/19/19
f 643/19/19 642/18/18 673/49/49
f 654/30/30 710/91/42 666/42/42
f 666/42/42 665/41/41 654/30/30
f 710/91/42 705/85/80 679/55/54
f 679/55/54 666/42/42 710/91/42
f 668/44/44 689/68/64 706/87/81
f 706/87/81 665/41/41 668/44/44
f 714/95/88 690/96/65 708/89/83
f 708/89/83 707/88/82 714/95/88
f 642/18/18 641/17/17 693/73/68
f 693/73/68 711/92/85 642/18/18
f 693/73/68 697/77/72 712/93/86
f 712/93/86 711/92/85 693/73/68
f 715/97/89 716/98/90 626/2/2
f 626/2/2 625/1/1 715/97/89
f 651/27/27 717/99/91 718/100/92
f 718/100/92 630/6/6 651/27/27
f 678/54/53 677/53/16 719/101/15
f 719/101/15 697/77/72 678/54/53
f 664/40/40 686/64/61 720/102/93
f 720/102/93 661/37/37 664/40/40
f 669/45/45 717/99/91 651/27/27
f 651/27/27 650/26/26 669/45/45
f 646/22/22 721/103/38 662/38/38
f 662/38/38 661/37/37 646/22/22
f 650/26/26 649/25/25 696/76/71
f 696/76/71 722/104/94 650/26/26
f 721/103/38 640/16/16 677/53/16
f 677/53/16 662/38/38 721/103/38
f 696/76/71 699/79/74 723/105/95
f 723/105/95 722/104/94 696/76/71
f 682/58/57 724/106/96 725/107/97
f 725/107/97 683/59/58 682/58/57
f 682/58/57 712/93/86 726/108/98
f 726/108/98 724/106/96 682/58/57
f 677/53/16 640/16/16 639/15/15
f 639/15/15 719/101/15 677/53/16
f 661/37/37 720/102/93 647/23/23
f 647/23/23 646/22/22 661/37/37
f 650/26/26 722/104/94 670/46/46
f 670/46/46 669/45/45 650/26/26
f 722/104/94 723/105/95 680/56/55
f 680/56/55 670/46/46 722/104/94
f 724/106/96 704/84/79 703/83/78
f 703/83/78 725/107/97 724/106/96
f 704/84/79 724/106/96 726/108/98
f 726/108/98 713/94/87 704/84/79
f 715/97/89 685/63/197 684/62/59
f 684/62/59 716/98/90 715/97/89
f 717/99/91 688/67/63 692/72/67
f 692/72/67 718/100/92 717/99/91
f 672/48/48 688/67/63 717/99/91
f 717/99/91 669/45/45 672/48/48
f 646/22/22 645/21/21 694/74/69
f 694/74/69 721/103/38 646/22/22
f 694/74/69 637/13/13 640/16/16
f 640/16/16 721/103/38 694/74/69
f 626/2/2 720/102/93 686/64/61
f 686/64/61 627/3/3 626/2/2
f 652/28/28 651/27/27 630/6/6
f 630/6/6 629/5/5 652/28/28
f 706/109/81 689/110/64 635/11/11
f 635/11/11 634/10/10 706/109/81
f 687/111/62 709/90/84 658/34/34
f 658/34/34 657/33/33 687/111/62
f 689/68/64 648/24/24 684/62/59
f 684/62/59 635/61/11 689/68/64
f 660/70/36 652/28/28 629/5/5
f 629/5/5 657/66/33 660/70/36
f 714/112/88 628/4/4 627/3/3
f 627/3/3 690/69/65 714/112/88
f 700/80/75 727/113/99 692/72/67
f 692/72/67 691/71/66 700/80/75
f 656/32/32 655/114/31 701/81/76
f 701/81/76 691/71/66 656/32/32
f 643/115/19 659/35/35 658/34/34
f 658/34/34 708/89/83 643/115/19
f 655/114/31 706/109/81 634/10/10
f 634/10/10 701/81/76 655/114/31
f 644/116/20 643/115/19 708/89/83
f 708/89/83 690/96/65 644/116/20
f 647/23/23 720/102/93 626/2/2
f 626/2/2 716/98/90 647/23/23
f 728/117/100 631/7/7 630/6/6
f 630/6/6 718/100/92 728/117/100
f 648/24/24 647/23/23 716/98/90
f 716/98/90 684/62/59 648/24/24
f 727/113/99 728/117/100 718/100/92
f 718/100/92 692/72/67 727/113/99
f 679/55/54 713/94/87 639/15/15
f 639/15/15 638/14/14 679/55/54
f 713/94/87 726/108/98 719/101/15
f 719/101/15 639/15/15 713/94/87
f 726/108/98 712/93/86 697/77/72
f 697/77/72 719/101/15 726/108/98
f 681/57/56 680/56/55 703/83/78
f 703/83/78 698/78/73 681/57/56
f 680/56/55 723/105/95 725/107/97
f 725/107/97 703/83/78 680/56/55
f 725/107/97 723/105/95 699/79/74
f 699/79/74 683/59/58 725/107/97
f 729/1/200 730/2/201 731/3/202
f 731/3/202 732/4/203 729/1/200
f 733/5/204 734/6/205 735/7/206
f 735/7/206 736/8/207 733/5/204
f 737/9/208 738/10/209 739/11/210
f 739/11/210 740/12/211 737/9/208
f 741/13/212 742/14/213 743/15/15
f 743/15/15 744/16/214 741/13/212
f 745/17/215 746/18/216 747/19/217
f 747/19/217 748/20/218 745/17/215
f 749/21/219 750/22/220 751/23/221
f 751/23/221 752/24/222 749/21/219
f 753/25/223 754/26/224 755/27/225
f 755/27/225 756/28/226 753/25/223
f 757/29/227 758/30/228 759/31/229
f 759/31/229 760/32/230 757/29/227
f 761/33/231 762/34/232 763/35/233
f 763/35/233 764/36/234 761/33/231
f 765/37/235 766/38/236 767/39/237
f 767/39/237 768/40/238 765/37/235
f 769/41/239 770/42/240 771/43/241
f 771/43/241 772/44/242 769/41/239
f 773/45/243 774/46/244 775/47/245
f 775/47/245 776/48/246 773/45/243
f 777/49/247 778/50/248 779/51/249
f 779/51/249 780/52/250 777/49/247
f 767/39/237 766/38/236 781/53/214
f 781/53/214 782/54/251 767/39/237
f 770/42/240 783/55/252 742/14/213
f 742/14/213 771/43/241 770/42/240
f 775/47/245 774/46/244 784/56/253
f 784/56/253 785/57/254 775/47/245
f 778/50/248 786/58/255 787/59/256
f 787/59/256 779/51/249 778/50/248
f 740/60/211 739/61/210 788/62/257
f 788/62/257 789/63/258 740/60/211
f 768/40/238 745/17/215 748/20/218
f 748/20/218 790/64/259 768/40/238
f 791/65/260 761/66/231 733/5/204
f 733/5/204 736/8/207 791/65/260
f 776/48/246 757/29/227 760/32/230
f 760/32/230 792/67/261 776/48/246
f 752/24/222 793/68/262 772/44/242
f 772/44/242 749/21/219 752/24/222
f 748/20/218 794/69/263 731/3/202
f 731/3/202 790/64/259 748/20/218
f 756/28/226 764/70/234 780/52/250
f 780/52/250 753/25/223 756/28/226
f 760/32/230 795/71/264 796/72/265
f 796/72/265 792/67/261 760/32/230
f 745/17/215 768/40/238 767/39/237
f 767/39/237 797/73/266 745/17/215
f 749/21/219 772/44/242 771/43/241
f 771/43/241 798/74/267 749/21/219
f 757/29/227 776/48/246 775/47/245
f 775/47/245 799/75/268 757/29/227
f 753/25/223 780/52/250 779/51/249
f 779/51/249 800/76/269 753/25/223
f 797/73/266 767/39/237 782/54/251
f 782/54/251 801/77/270 797/73/266
f 798/74/267 771/43/241 742/14/213
f 742/14/213 741/13/212 798/74/267
f 799/75/268 775/47/245 785/57/254
f 785/57/254 802/78/271 799/75/268
f 800/76/269 779/51/249 787/59/256
f 787/59/256 803/79/272 800/76/269
f 804/80/273 795/71/264 805/81/274
f 805/81/274 806/82/275 804/80/273
f 802/78/271 807/83/276 808/84/277
f 808/84/277 809/85/278 802/78/271
f 780/52/250 764/70/234 763/86/233
f 763/86/233 777/49/247 780/52/250
f 769/41/239 810/87/279 759/31/229
f 759/31/229 758/30/228 769/41/239
f 811/88/280 812/89/281 762/34/232
f 762/34/232 813/90/282 811/88/280
f 758/30/228 757/29/227 799/75/268
f 799/75/268 814/91/283 758/30/228
f 746/18/216 815/92/284 778/50/248
f 778/50/248 777/49/247 746/18/216
f 799/75/268 802/78/271 809/85/278
f 809/85/278 814/91/283 799/75/268
f 815/92/284 816/93/285 786/58/255
f 786/58/255 778/50/248 815/92/284
f 806/82/275 805/81/274 738/10/209
f 738/10/209 737/9/208 806/82/275
f 809/85/278 808/84/277 817/94/286
f 817/94/286 783/55/252 809/85/278
f 777/49/247 763/86/233 747/19/217
f 747/19/217 746/18/216 777/49/247
f 758/30/228 814/91/283 770/42/240
f 770/42/240 769/41/239 758/30/228
f 814/91/283 809/85/278 783/55/252
f 783/55/252 770/42/240 814/91/283
f 772/44/242 793/68/262 810/87/279
f 810/87/279 769/41/239 772/44/242
f 818/95/287 794/96/263 812/89/281
f 812/89/281 811/88/280 818/95/287
f 746/18/216 745/17/215 797/73/266
f 797/73/266 815/92/284 746/18/216
f 797/73/266 801/77/270 816/93/285
f 816/93/285 815/92/284 797/73/266
f 819/97/288 820/98/289 730/2/201
f 730/2/201 729/1/200 819/97/288
f 755/27/225 821/99/290 822/100/291
f 822/100/291 734/6/205 755/27/225
f 782/54/251 781/53/214 823/101/15
f 823/101/15 801/77/270 782/54/251
f 768/40/238 790/64/259 824/102/292
f 824/102/292 765/37/235 768/40/238
f 773/45/243 821/99/290 755/27/225
f 755/27/225 754/26/224 773/45/243
f 750/22/220 825/103/236 766/38/236
f 766/38/236 765/37/235 750/22/220
f 754/26/224 753/25/223 800/76/269
f 800/76/269 826/104/293 754/26/224
f 825/103/236 744/16/214 781/53/214
f 781/53/214 766/38/236 825/103/236
f 800/76/269 803/79/272 827/105/294
f 827/105/294 826/104/293 800/76/269
f 786/58/255 828/106/295 829/107/296
f 829/107/296 787/59/256 786/58/255
f 786/58/255 816/93/285 830/108/297
f 830/108/297 828/106/295 786/58/255
f 781/53/214 744/16/214 743/15/15
f 743/15/15 823/101/15 781/53/214
f 765/37/235 824/102/292 751/23/221
f 751/23/221 750/22/220 765/37/235
f 754/26/224 826/104/293 774/46/244
f 774/46/244 773/45/243 754/26/224
f 826/104/293 827/105/294 784/56/253
f 784/56/253 774/46/244 826/104/293
f 828/106/295 808/84/277 807/83/276
f 807/83/276 829/107/296 828/106/295
f 808/84/277 828/106/295 830/108/297
f 830/108/297 817/94/286 808/84/277
f 819/97/288 789/63/258 788/62/257
f 788/62/257 820/98/289 819/97/288
f 821/99/290 792/67/261 796/72/265
f 796/72/265 822/100/291 821/99/290
f 776/48/246 792/67/261 821/99/290
f 821/99/290 773/45/243 776/48/246
f 750/22/220 749/21/219 798/74/267
f 798/74/267 825/103/236 750/22/220
f 798/74/267 741/13/212 744/16/214
f 744/16/214 825/103/236 798/74/267
f 730/2/201 824/102/292 790/64/259
f 790/64/259 731/3/202 730/2/201
f 756/28/226 755/27/225 734/6/205
f 734/6/205 733/5/204 756/28/226
f 810/109/279 793/110/262 739/11/210
f 739/11/210 738/10/209 810/109/279
f 791/111/260 813/90/282 762/34/232
f 762/34/232 761/33/231 791/111/260
f 793/68/262 752/24/222 788/62/257
f 788/62/257 739/61/210 793/68/262
f 764/70/234 756/28/226 733/5/204
f 733/5/204 761/66/231 764/70/234
f 818/112/287 732/4/203 731/3/202
f 731/3/202 794/69/263 818/112/287
f 804/80/273 831/113/298 796/72/265
f 796/72/265 795/71/264 804/80/273
f 760/32/230 759/114/229 805/81/274
f 805/81/274 795/71/264 760/32/230
f 747/115/217 763/35/233 762/34/232
f 762/34/232 812/89/281 747/115/217
f 759/114/229 810/109/279 738/10/209
f 738/10/209 805/81/274 759/114/229
f 748/116/218 747/115/217 812/89/281
f 812/89/281 794/96/263 748/116/218
f 751/23/221 824/102/292 730/2/201
f 730/2/201 820/98/289 751/23/221
f 832/117/299 735/7/206 734/6/205
f 734/6/205 822/100/291 832/117/299
f 752/24/222 751/23/221 820/98/289
f 820/98/289 788/62/257 752/24/222
f 831/113/298 832/117/299 822/100/291
f 822/100/291 796/72/265 831/113/298
f 783/55/252 817/94/286 743/15/15
f 743/15/15 742/14/213 783/55/252
f 817/94/286 830/108/297 823/101/15
f 823/101/15 743/15/15 817/94/286
f 830/108/297 816/93/285 801/77/270
f 801/77/270 823/101/15 830/108/297
f 785/57/254 784/56/253 807/83/276
f 807/83/276 802/78/271 785/57/254
f 784/56/253 827/105/294 829/107/296
f 829/107/296 807/83/276 784/56/253
f 829/107/296 827/105/294 803/79/272
f 803/79/272 787/59/256 829/107/296
