# Blender 4.5.0
# www.blender.org
g medium_wall.xml.049_Mesh
v 125.996025 -43.133366 4.384140
v 126.016800 -35.410179 4.792183
v 126.462265 -35.410179 4.697674
v 126.541183 -43.133366 4.508072
v 126.411919 -35.410179 8.906242
v 126.024300 -35.410179 8.996887
v 126.130867 -43.133366 9.095844
v 126.541183 -43.133366 9.095844
v 117.194122 -43.133369 5.508823
v 117.266518 -35.410179 5.771496
v 117.283806 -35.410183 4.849648
v 117.228683 -43.133369 4.660004
v 117.705818 -27.776196 5.468845
v 117.664093 -27.776196 5.609051
v 117.951958 -27.776196 5.609051
v 117.951309 -27.776196 5.468845
v 126.411385 -27.408257 5.177540
v 126.411385 -27.408257 6.034168
v 126.473495 -27.686985 6.034168
v 126.473495 -27.686985 5.039295
v 117.550362 -27.408257 5.025272
v 117.906799 -27.408257 5.025272
v 117.906158 -27.686985 4.887280
v 117.489525 -27.686985 4.887280
v 126.322510 -27.408257 8.578640
v 125.917740 -27.408257 8.578640
v 125.917740 -27.686985 8.716637
v 126.383347 -27.686985 8.716637
v 117.461487 -27.408257 8.426376
v 117.461487 -27.408257 7.569386
v 117.399376 -27.686985 7.569386
v 117.399376 -27.686985 8.564621
v 126.558846 -35.410179 8.616665
v 126.558846 -35.410179 7.832066
v 126.473495 -27.796066 6.836353
v 126.473495 -27.686985 8.564625
v 125.917740 -27.408257 5.025276
v 125.917740 -27.285236 5.326229
v 126.198830 -27.285236 5.326229
v 126.322510 -27.408257 5.025276
v 117.461487 -27.408257 6.034164
v 117.596954 -27.285236 6.034164
v 117.596954 -27.285236 5.478405
v 117.461487 -27.408257 5.177536
v 117.927673 -27.449249 8.578640
v 117.926285 -27.326229 8.277687
v 117.674049 -27.285236 8.277687
v 117.550362 -27.408257 8.578640
v 126.411385 -27.517334 6.836353
v 126.275917 -27.394314 6.836353
v 126.275917 -27.285236 8.125507
v 126.411385 -27.408257 8.426376
v 125.876480 -27.776196 5.468845
v 126.165306 -27.776196 5.468845
v 117.664093 -27.776196 6.122158
v 117.968010 -27.817188 8.118084
v 117.705818 -27.776196 8.118084
v 126.207024 -27.885273 6.787968
v 126.207024 -27.776196 7.977879
v 117.380386 -35.410183 4.697674
v 117.331696 -43.133369 4.508072
v 126.383347 -27.686985 4.887280
v 126.681885 -43.133366 8.643448
v 117.489525 -27.686985 8.716633
v 117.399376 -27.686985 5.039291
v 126.558846 -35.410179 4.849648
v 117.283806 -35.410179 8.754269
v 117.380386 -35.410179 8.906239
v 126.275917 -27.285236 5.478409
v 117.674049 -27.285236 5.326229
v 117.596954 -27.285236 8.125507
v 126.198830 -27.285236 8.277687
v 126.207024 -27.776196 5.609051
v 117.664093 -27.776196 7.977879
v 126.165306 -27.776196 8.118084
v 117.228683 -43.133366 8.943913
v 117.283806 -35.410179 7.832062
v 117.228683 -43.133366 8.094738
v 117.967369 -27.817188 7.978539
v 117.964989 -27.817188 7.464439
v 117.664093 -27.776196 7.464439
v 117.399376 -27.686985 6.034164
v 126.675491 -43.133366 5.508823
v 126.558846 -35.410179 5.771496
v 126.644188 -43.133366 8.094738
v 117.596954 -27.285236 7.569386
v 126.275917 -27.285236 6.034168
v 126.207024 -27.776196 6.122158
v 117.954330 -27.776196 6.122158
v 126.644188 -43.133366 4.660004
v 117.686241 -43.133369 4.508072
v 117.796204 -35.410183 4.697674
v 117.928314 -27.727982 8.716633
v 118.089378 -35.410179 8.860844
v 125.876480 -27.776196 5.609051
v 125.917740 -27.686985 4.887280
v 117.908188 -27.285236 5.326229
v 125.917740 -27.285236 8.277687
v 125.876480 -27.776196 8.118084
v 125.876480 -27.885273 6.787968
v 125.876480 -27.787678 7.978062
v 125.876480 -27.776196 6.122158
v 117.393219 -43.133369 9.095844
v 118.250443 -43.133369 9.005051
v 129.734848 -43.008373 11.712330
v 129.326813 -34.978752 11.729008
v 129.421310 -34.978748 12.086590
v 129.610916 -43.008373 12.149937
v 125.212746 -34.978748 12.046173
v 125.122101 -34.978748 11.735027
v 125.023148 -43.008373 11.820568
v 125.023148 -43.008373 12.149937
v 128.610168 -43.008373 4.646866
v 128.347504 -34.978752 4.704979
v 129.269348 -34.978752 4.718853
v 129.458984 -43.008373 4.674610
v 128.650146 -27.041870 5.057610
v 128.509933 -27.041870 5.024124
v 128.509933 -27.041870 5.255196
v 128.650146 -27.041870 5.254677
v 128.941452 -26.659332 12.045742
v 128.084824 -26.659332 12.045742
v 128.084824 -26.949120 12.095608
v 129.079697 -26.949120 12.095608
v 129.093719 -26.659332 4.932827
v 129.093719 -26.659332 5.218945
v 129.231720 -26.949120 5.218433
v 129.231720 -26.949120 4.883991
v 125.540352 -26.659332 11.974403
v 125.540352 -26.659332 11.649487
v 125.402359 -26.949120 11.649487
v 125.402359 -26.949120 12.023239
v 125.692612 -26.659332 4.861485
v 126.549606 -26.659332 4.861485
v 126.549606 -26.949120 4.811626
v 125.554367 -26.949120 4.811626
v 125.502327 -34.978748 12.164112
v 126.286926 -34.978748 12.164112
v 127.282639 -27.062527 12.095608
v 125.554367 -26.949120 12.095608
v 129.093719 -26.659332 11.649487
v 128.792770 -26.531429 11.649487
v 128.792770 -26.531429 11.875122
v 129.093719 -26.659332 11.974407
v 128.084824 -26.659328 4.861485
v 128.084824 -26.531429 4.970226
v 128.640579 -26.531429 4.970226
v 128.941452 -26.659332 4.861485
v 125.540352 -26.701950 5.235699
v 125.841301 -26.574047 5.234585
v 125.841301 -26.531429 5.032108
v 125.540352 -26.659332 4.932827
v 127.282639 -26.772739 12.045742
v 127.282639 -26.644836 11.937004
v 125.993484 -26.531429 11.937004
v 125.692612 -26.659332 12.045742
v 128.650146 -27.041870 11.616367
v 128.650146 -27.041870 11.848213
v 127.996834 -27.041870 5.024124
v 126.000908 -27.084492 5.268082
v 126.000908 -27.041870 5.057610
v 127.331024 -27.155277 11.881702
v 126.141113 -27.041870 11.881702
v 129.421310 -34.978752 4.796379
v 129.610916 -43.008373 4.757298
v 129.231720 -26.949120 12.023239
v 125.475540 -43.008373 12.262882
v 125.402359 -26.949120 4.883991
v 129.079697 -26.949120 4.811626
v 129.269348 -34.978752 12.164112
v 125.364723 -34.978748 4.718853
v 125.212753 -34.978748 4.796379
v 128.640579 -26.531429 11.937004
v 128.792770 -26.531429 5.032108
v 125.993484 -26.531429 4.970226
v 125.841301 -26.531429 11.875122
v 128.509933 -27.041870 11.881702
v 126.141113 -27.041870 5.024124
v 126.000908 -27.041870 11.848213
v 125.175079 -43.008373 4.674610
v 126.286926 -34.978748 4.718853
v 126.024254 -43.008373 4.674610
v 126.140450 -27.084492 5.267563
v 126.654549 -27.084492 5.265659
v 126.654549 -27.041870 5.024124
v 128.084824 -26.949120 4.811626
v 128.610168 -43.008373 12.257751
v 128.347504 -34.978752 12.164112
v 126.024254 -43.008373 12.232624
v 126.549606 -26.531429 4.970226
v 128.084824 -26.531429 11.937004
v 127.996834 -27.041870 11.881702
v 127.996834 -27.041870 5.257099
v 129.458984 -43.008373 12.232624
v 129.610916 -43.008373 5.041901
v 129.421310 -34.978752 5.130165
v 125.402359 -26.991741 5.236214
v 125.258148 -34.978748 5.365501
v 128.509933 -27.041870 11.616367
v 129.231720 -26.949120 11.649487
v 128.792770 -26.531429 5.220058
v 125.841301 -26.531429 11.649487
v 126.000908 -27.041870 11.616367
v 127.331024 -27.155277 11.616367
v 126.140930 -27.053806 11.616367
v 127.996834 -27.041870 11.616367
v 125.023148 -43.008373 4.806686
v 125.113937 -43.008373 5.494793
v 130.010849 -42.376564 26.887424
v 129.602814 -34.653378 26.908199
v 129.697311 -34.653378 27.353661
v 129.886917 -42.376564 27.432579
v 125.488747 -34.653378 27.303314
v 125.398102 -34.653378 26.915699
v 125.299149 -42.376564 27.022263
v 125.299149 -42.376564 27.432579
v 128.886169 -42.376568 18.085520
v 128.623505 -34.653378 18.157917
v 129.545349 -34.653381 18.175201
v 129.734985 -42.376568 18.120085
v 128.926147 -27.019394 18.597214
v 128.785934 -27.019394 18.555494
v 128.785934 -27.019394 18.843359
v 128.926147 -27.019394 18.842710
v 129.217453 -26.651455 27.302780
v 128.360825 -26.651455 27.302780
v 128.360825 -26.930183 27.364897
v 129.355698 -26.930183 27.364897
v 129.369720 -26.651455 18.441761
v 129.369720 -26.651455 18.798195
v 129.507721 -26.930183 18.797558
v 129.507721 -26.930183 18.380924
v 125.816353 -26.651455 27.213909
v 125.816353 -26.651455 26.809135
v 125.678352 -26.930183 26.809135
v 125.678352 -26.930183 27.274744
v 125.968613 -26.651455 18.352888
v 126.825607 -26.651455 18.352888
v 126.825607 -26.930183 18.290773
v 125.830368 -26.930183 18.290773
v 125.778328 -34.653378 27.450241
v 126.562927 -34.653378 27.450241
v 127.558640 -27.039265 27.364897
v 125.830368 -26.930183 27.364897
v 129.369720 -26.651455 26.809135
v 129.068771 -26.528435 26.809135
v 129.068771 -26.528435 27.090227
v 129.369720 -26.651455 27.213909
v 128.360825 -26.651455 18.352888
v 128.360825 -26.528435 18.488354
v 128.916580 -26.528435 18.488354
v 129.217453 -26.651455 18.352888
v 125.816353 -26.692448 18.819071
v 126.117302 -26.569427 18.817680
v 126.117302 -26.528435 18.565445
v 125.816353 -26.651455 18.441761
v 127.558640 -26.760532 27.302780
v 127.558640 -26.637512 27.167316
v 126.269485 -26.528435 27.167316
v 125.968613 -26.651455 27.302780
v 128.926147 -27.019394 26.767879
v 128.926147 -27.019394 27.056704
v 128.272827 -27.019394 18.555494
v 126.276909 -27.060387 18.859409
v 126.276909 -27.019394 18.597214
v 127.607025 -27.128471 27.098421
v 126.417114 -27.019394 27.098421
v 129.697311 -34.653381 18.271780
v 129.886917 -42.376568 18.223093
v 129.507721 -26.930183 27.274744
v 125.751541 -42.376564 27.573284
v 125.678360 -26.930183 18.380924
v 129.355698 -26.930183 18.290773
v 129.545349 -34.653378 27.450241
v 125.640724 -34.653378 18.175201
v 125.488754 -34.653378 18.271780
v 128.916580 -26.528435 27.167316
v 129.068771 -26.528435 18.565445
v 126.269485 -26.528435 18.488354
v 126.117302 -26.528435 27.090227
v 128.785934 -27.019394 27.098421
v 126.417114 -27.019394 18.555494
v 126.276909 -27.019394 27.056704
v 125.451080 -42.376564 18.120085
v 126.562927 -34.653378 18.175201
v 126.300255 -42.376564 18.120085
v 126.416451 -27.060387 18.858765
v 126.930550 -27.060387 18.856390
v 126.930550 -27.019394 18.555494
v 128.360825 -26.930183 18.290773
v 128.886169 -42.376564 27.566891
v 128.623505 -34.653378 27.450241
v 126.300255 -42.376564 27.535587
v 126.825607 -26.528435 18.488354
v 128.360825 -26.528435 27.167316
v 128.272827 -27.019394 27.098421
v 128.272827 -27.019394 18.845730
v 129.734985 -42.376564 27.535587
v 129.886917 -42.376568 18.577639
v 129.697311 -34.653381 18.687599
v 125.678360 -26.971180 18.819710
v 125.534149 -34.653378 18.980774
v 128.785934 -27.019394 26.767879
v 129.507721 -26.930183 26.809135
v 129.068771 -26.528435 18.799587
v 126.117302 -26.528435 26.809135
v 126.276909 -27.019394 26.767879
v 127.607025 -27.128471 26.767879
v 126.416931 -27.030876 26.767879
v 128.272827 -27.019394 26.767879
v 125.299149 -42.376568 18.284620
v 125.389938 -42.376568 19.141838
v 130.010849 -42.376560 42.154999
v 129.602814 -34.653374 42.176319
v 129.697311 -34.653374 42.633522
v 129.886917 -42.376560 42.714520
v 125.488747 -34.653374 42.581848
v 125.398102 -34.653374 42.184017
v 125.299149 -42.376560 42.293388
v 125.299149 -42.376560 42.714520
v 128.886169 -42.376564 33.121078
v 128.623505 -34.653374 33.195385
v 129.545349 -34.653378 33.213123
v 129.734985 -42.376564 33.156555
v 128.926147 -27.019390 33.646259
v 128.785934 -27.019390 33.603439
v 128.785934 -27.019390 33.898891
v 128.926147 -27.019390 33.898228
v 129.217453 -26.651451 42.581303
v 128.360825 -26.651451 42.581303
v 128.360825 -26.930180 42.645054
v 129.355698 -26.930180 42.645054
v 129.369720 -26.651451 33.486710
v 129.369720 -26.651451 33.852539
v 129.507721 -26.930180 33.851883
v 129.507721 -26.930180 33.424271
v 125.816353 -26.651451 42.490086
v 125.816353 -26.651451 42.074646
v 125.678352 -26.930180 42.074646
v 125.678352 -26.930180 42.552528
v 125.968613 -26.651451 33.395493
v 126.825607 -26.651451 33.395493
v 126.825607 -26.930180 33.331741
v 125.830368 -26.930180 33.331741
v 125.778328 -34.653374 42.732651
v 126.562927 -34.653374 42.732651
v 127.558640 -27.039261 42.645054
v 125.830368 -26.930180 42.645054
v 129.369720 -26.651451 42.074646
v 129.068771 -26.528431 42.074646
v 129.068771 -26.528431 42.363144
v 129.369720 -26.651451 42.490086
v 128.360825 -26.651451 33.395493
v 128.360825 -26.528431 33.534531
v 128.916580 -26.528431 33.534531
v 129.217453 -26.651451 33.395493
v 125.816353 -26.692444 33.873966
v 126.117302 -26.569424 33.872540
v 126.117302 -26.528431 33.613651
v 125.816353 -26.651451 33.486710
v 127.558640 -26.760529 42.581303
v 127.558640 -26.637508 42.442265
v 126.269485 -26.528431 42.442265
v 125.968613 -26.651451 42.581303
v 128.926147 -27.019390 42.032299
v 128.926147 -27.019390 42.328735
v 128.272827 -27.019390 33.603439
v 126.276909 -27.060383 33.915367
v 126.276909 -27.019390 33.646259
v 127.607025 -27.128468 42.371555
v 126.417114 -27.019390 42.371555
v 129.697311 -34.653378 33.312248
v 129.886917 -42.376564 33.262276
v 129.507721 -26.930180 42.552528
v 125.751541 -42.376560 42.858932
v 125.678360 -26.930180 33.424271
v 129.355698 -26.930180 33.331741
v 129.545349 -34.653374 42.732651
v 125.640724 -34.653374 33.213123
v 125.488754 -34.653374 33.312248
v 128.916580 -26.528431 42.442265
v 129.068771 -26.528431 33.613651
v 126.269485 -26.528431 33.534531
v 126.117302 -26.528431 42.363144
v 128.785934 -27.019390 42.371555
v 126.417114 -27.019390 33.603439
v 126.276909 -27.019390 42.328735
v 125.451080 -42.376560 33.156555
v 126.562927 -34.653374 33.213123
v 126.300255 -42.376560 33.156555
v 126.416451 -27.060383 33.914703
v 126.930550 -27.060383 33.912266
v 126.930550 -27.019390 33.603439
v 128.360825 -26.930180 33.331741
v 128.886169 -42.376560 42.852375
v 128.623505 -34.653374 42.732651
v 126.300255 -42.376560 42.820244
v 126.825607 -26.528431 33.534531
v 128.360825 -26.528431 42.442265
v 128.272827 -27.019390 42.371555
v 128.272827 -27.019390 33.901325
v 129.734985 -42.376560 42.820244
v 129.886917 -42.376564 33.626167
v 129.697311 -34.653378 33.739025
v 125.678360 -26.971176 33.874619
v 125.534149 -34.653374 34.039928
v 128.785934 -27.019390 42.032299
v 129.507721 -26.930180 42.074646
v 129.068771 -26.528431 33.853966
v 126.117302 -26.528431 42.074646
v 126.276909 -27.019390 42.032299
v 127.607025 -27.128468 42.032299
v 126.416931 -27.030872 42.032299
v 128.272827 -27.019390 42.032299
v 125.299149 -42.376564 33.325424
v 125.389938 -42.376564 34.205238
v 125.235153 -42.376663 49.058701
v 125.643196 -34.653477 49.037502
v 125.548683 -34.653473 48.582977
v 125.359085 -42.376663 48.502453
v 129.757248 -34.653473 48.634350
v 129.847900 -34.653473 49.029850
v 129.946854 -42.376663 48.921120
v 129.946854 -42.376663 48.502453
v 126.359833 -42.376659 58.039719
v 126.622505 -34.653473 57.965847
v 125.700661 -34.653473 57.948212
v 125.511017 -42.376659 58.004452
v 126.319855 -27.019489 57.517612
v 126.460060 -27.019489 57.560181
v 126.460060 -27.019489 57.266457
v 126.319855 -27.019489 57.267120
v 126.028549 -26.651550 48.634892
v 126.885178 -26.651550 48.634892
v 126.885178 -26.930279 48.571510
v 125.890305 -26.930279 48.571510
v 125.876282 -26.651550 57.676228
v 125.876282 -26.651550 57.312542
v 125.738289 -26.930279 57.313190
v 125.738289 -26.930279 57.738300
v 129.429657 -26.651550 48.725571
v 129.429657 -26.651550 49.138580
v 129.567642 -26.930279 49.138580
v 129.567642 -26.930279 48.663498
v 129.277390 -26.651550 57.766907
v 128.420395 -26.651550 57.766907
v 128.420395 -26.930279 57.830288
v 129.415634 -26.930279 57.830288
v 129.467682 -34.653473 48.484428
v 128.683075 -34.653473 48.484428
v 127.687363 -27.039360 48.571510
v 129.415634 -26.930279 48.571510
v 125.876282 -26.651550 49.138580
v 126.177238 -26.528530 49.138580
v 126.177238 -26.528530 48.851772
v 125.876282 -26.651550 48.725571
v 126.885178 -26.651546 57.766907
v 126.885178 -26.528530 57.628685
v 126.329414 -26.528530 57.628685
v 126.028549 -26.651550 57.766907
v 129.429657 -26.692543 57.291241
v 129.128693 -26.569523 57.292656
v 129.128693 -26.528530 57.550026
v 129.429657 -26.651550 57.676228
v 127.687363 -26.760628 48.634892
v 127.687363 -26.637608 48.773113
v 128.976517 -26.528530 48.773113
v 129.277390 -26.651550 48.634892
v 126.319855 -27.019489 49.180679
v 126.319855 -27.019489 48.885979
v 126.973167 -27.019489 57.560181
v 128.969101 -27.060482 57.250080
v 128.969101 -27.019489 57.517612
v 127.638977 -27.128571 48.843410
v 128.828888 -27.019489 48.843410
v 125.548683 -34.653473 57.849670
v 125.359085 -42.376659 57.899345
v 125.738289 -26.930279 48.663498
v 129.494461 -42.376659 48.358887
v 129.567642 -26.930279 57.738300
v 125.890305 -26.930279 57.830288
v 125.700661 -34.653477 48.484428
v 129.605286 -34.653473 57.948212
v 129.757248 -34.653473 57.849670
v 126.329414 -26.528530 48.773113
v 126.177238 -26.528530 57.550026
v 128.976517 -26.528530 57.628685
v 129.128693 -26.528530 48.851772
v 126.460060 -27.019489 48.843410
v 128.828888 -27.019489 57.560181
v 128.969101 -27.019489 48.885979
v 129.794922 -42.376659 58.004452
v 128.683075 -34.653473 57.948212
v 128.945740 -42.376659 58.004452
v 128.829544 -27.060482 57.250740
v 128.315445 -27.060482 57.253162
v 128.315445 -27.019489 57.560181
v 126.885178 -26.930279 57.830288
v 126.359833 -42.376663 48.365406
v 126.622505 -34.653477 48.484428
v 128.945740 -42.376659 48.397350
v 128.420395 -26.528530 57.628685
v 126.885178 -26.528530 48.773113
v 126.973167 -27.019489 48.843410
v 126.973167 -27.019489 57.264038
v 125.511017 -42.376663 48.397350
v 125.359085 -42.376659 57.537586
v 125.548683 -34.653473 57.425388
v 129.567642 -26.971272 57.290588
v 129.711853 -34.653473 57.126247
v 126.460060 -27.019489 49.180679
v 125.738289 -26.930279 49.138580
v 126.177238 -26.528530 57.311119
v 129.128693 -26.528530 49.138580
v 128.969101 -27.019489 49.180679
v 127.638977 -27.128571 49.180679
v 128.829071 -27.030972 49.180679
v 126.973167 -27.019489 49.180679
v 129.946854 -42.376659 57.836567
v 129.856064 -42.376659 56.961906
v 130.010849 -42.376560 72.502960
v 129.602814 -34.653374 72.524323
v 129.697311 -34.653374 72.982620
v 129.886917 -42.376560 73.063812
v 125.488747 -34.653374 72.930817
v 125.398102 -34.653374 72.532043
v 125.299149 -42.376560 72.641678
v 125.299149 -42.376560 73.063812
v 128.886169 -42.376564 63.447639
v 128.623505 -34.653374 63.522121
v 129.545349 -34.653378 63.539902
v 129.734985 -42.376564 63.483200
v 128.926147 -27.019390 63.974064
v 128.785934 -27.019390 63.931145
v 128.785934 -27.019390 64.227295
v 128.926147 -27.019390 64.226631
v 129.217453 -26.651451 72.930267
v 128.360825 -26.651451 72.930267
v 128.360825 -26.930180 72.994171
v 129.355698 -26.930180 72.994171
v 129.369720 -26.651451 63.814140
v 129.369720 -26.651451 64.180832
v 129.507721 -26.930180 64.180176
v 129.507721 -26.930180 63.751549
v 125.816353 -26.651451 72.838837
v 125.816353 -26.651451 72.422409
v 125.678352 -26.930180 72.422409
v 125.678352 -26.930180 72.901428
v 125.968613 -26.651451 63.722706
v 126.825607 -26.651451 63.722706
v 126.825607 -26.930180 63.658802
v 125.830368 -26.930180 63.658802
v 125.778328 -34.653374 73.081970
v 126.562927 -34.653374 73.081970
v 127.558640 -27.039261 72.994171
v 125.830368 -26.930180 72.994171
v 129.369720 -26.651451 72.422409
v 129.068771 -26.528431 72.422409
v 129.068771 -26.528431 72.711594
v 129.369720 -26.651451 72.838837
v 128.360825 -26.651451 63.722706
v 128.360825 -26.528431 63.862072
v 128.916580 -26.528431 63.862072
v 129.217453 -26.651451 63.722706
v 125.816353 -26.692444 64.202309
v 126.117302 -26.569424 64.200882
v 126.117302 -26.528431 63.941383
v 125.816353 -26.651451 63.814140
v 127.558640 -26.760529 72.930267
v 127.558640 -26.637508 72.790909
v 126.269485 -26.528431 72.790909
v 125.968613 -26.651451 72.930267
v 128.926147 -27.019390 72.379974
v 128.926147 -27.019390 72.677109
v 128.272827 -27.019390 63.931145
v 126.276909 -27.060383 64.243813
v 126.276909 -27.019390 63.974064
v 127.607025 -27.128468 72.720032
v 126.417114 -27.019390 72.720032
v 129.697311 -34.653378 63.639263
v 129.886917 -42.376564 63.589176
v 129.507721 -26.930180 72.901428
v 125.751541 -42.376560 73.208557
v 125.678360 -26.930180 63.751549
v 129.355698 -26.930180 63.658802
v 129.545349 -34.653374 73.081970
v 125.640724 -34.653374 63.539902
v 125.488754 -34.653374 63.639263
v 128.916580 -26.528431 72.790909
v 129.068771 -26.528431 63.941383
v 126.269485 -26.528431 63.862072
v 126.117302 -26.528431 72.711594
v 128.785934 -27.019390 72.720032
v 126.417114 -27.019390 63.931145
v 126.276909 -27.019390 72.677109
v 125.451080 -42.376560 63.483200
v 126.562927 -34.653374 63.539902
v 126.300255 -42.376560 63.483200
v 126.416451 -27.060383 64.243149
v 126.930550 -27.060383 64.240707
v 126.930550 -27.019390 63.931145
v 128.360825 -26.930180 63.658802
v 128.886169 -42.376560 73.201981
v 128.623505 -34.653374 73.081970
v 126.300255 -42.376560 73.169785
v 126.825607 -26.528431 63.862072
v 128.360825 -26.528431 72.790909
v 128.272827 -27.019390 72.720032
v 128.272827 -27.019390 64.229736
v 129.734985 -42.376560 73.169785
v 129.886917 -42.376564 63.953926
v 129.697311 -34.653378 64.067055
v 125.678360 -26.971176 64.202965
v 125.534149 -34.653374 64.368668
v 128.785934 -27.019390 72.379974
v 129.507721 -26.930180 72.422409
v 129.068771 -26.528431 64.182266
v 126.117302 -26.528431 72.422409
v 126.276909 -27.019390 72.379974
v 127.607025 -27.128468 72.379974
v 126.416931 -27.030872 72.379974
v 128.272827 -27.019390 72.379974
v 125.299149 -42.376564 63.652473
v 125.389938 -42.376564 64.534370
v 125.235153 -42.376560 79.292801
v 125.643196 -34.653374 79.273056
v 125.548683 -34.653370 78.849655
v 125.359085 -42.376560 78.774643
v 129.757248 -34.653370 78.897507
v 129.847900 -34.653370 79.265930
v 129.946854 -42.376560 79.164642
v 129.946854 -42.376560 78.774643
v 126.359833 -42.376556 87.658905
v 126.622505 -34.653370 87.590088
v 125.700661 -34.653370 87.573669
v 125.511017 -42.376556 87.626053
v 126.319855 -27.019386 87.172546
v 126.460060 -27.019386 87.212204
v 126.460060 -27.019386 86.938583
v 126.319855 -27.019386 86.939209
v 126.028549 -26.651447 78.898010
v 126.885178 -26.651447 78.898010
v 126.885178 -26.930176 78.838974
v 125.890305 -26.930176 78.838974
v 125.876282 -26.651447 87.320297
v 125.876282 -26.651447 86.981522
v 125.738289 -26.930176 86.982117
v 125.738289 -26.930176 87.378128
v 129.429657 -26.651447 78.982483
v 129.429657 -26.651447 79.367218
v 129.567642 -26.930176 79.367218
v 129.567642 -26.930176 78.924667
v 129.277390 -26.651447 87.404770
v 128.420395 -26.651447 87.404770
v 128.420395 -26.930176 87.463806
v 129.415634 -26.930176 87.463806
v 129.467682 -34.653370 78.757858
v 128.683075 -34.653370 78.757858
v 127.687363 -27.039257 78.838974
v 129.415634 -26.930176 78.838974
v 125.876282 -26.651447 79.367218
v 126.177238 -26.528427 79.367218
v 126.177238 -26.528427 79.100052
v 125.876282 -26.651447 78.982483
v 126.885178 -26.651443 87.404770
v 126.885178 -26.528427 87.276016
v 126.329414 -26.528427 87.276016
v 126.028549 -26.651447 87.404770
v 129.429657 -26.692440 86.961670
v 129.128693 -26.569420 86.962997
v 129.128693 -26.528427 87.202744
v 129.429657 -26.651447 87.320297
v 127.687363 -26.760525 78.898010
v 127.687363 -26.637505 79.026779
v 128.976517 -26.528427 79.026779
v 129.277390 -26.651447 78.898010
v 126.319855 -27.019386 79.406433
v 126.319855 -27.019386 79.131912
v 126.973167 -27.019386 87.212204
v 128.969101 -27.060379 86.923325
v 128.969101 -27.019386 87.172546
v 127.638977 -27.128468 79.092255
v 128.828888 -27.019386 79.092255
v 125.548683 -34.653370 87.481873
v 125.359085 -42.376556 87.528137
v 125.738289 -26.930176 78.924667
v 129.494461 -42.376556 78.640915
v 129.567642 -26.930176 87.378128
v 125.890305 -26.930176 87.463806
v 125.700661 -34.653374 78.757858
v 129.605286 -34.653370 87.573669
v 129.757248 -34.653370 87.481873
v 126.329414 -26.528427 79.026779
v 126.177238 -26.528427 87.202744
v 128.976517 -26.528427 87.276016
v 129.128693 -26.528427 79.100052
v 126.460060 -27.019386 79.092255
v 128.828888 -27.019386 87.212204
v 128.969101 -27.019386 79.131912
v 129.794922 -42.376556 87.626053
v 128.683075 -34.653370 87.573669
v 128.945740 -42.376556 87.626053
v 128.829544 -27.060379 86.923950
v 128.315445 -27.060379 86.926208
v 128.315445 -27.019386 87.212204
v 126.885178 -26.930176 87.463806
v 126.359833 -42.376560 78.646988
v 126.622505 -34.653374 78.757858
v 128.945740 -42.376556 78.676743
v 128.420395 -26.528427 87.276016
v 126.885178 -26.528427 79.026779
v 126.973167 -27.019386 79.092255
v 126.973167 -27.019386 86.936340
v 125.511017 -42.376560 78.676743
v 125.359085 -42.376556 87.191147
v 125.548683 -34.653370 87.086639
v 129.567642 -26.971169 86.961060
v 129.711853 -34.653370 86.807983
v 126.460060 -27.019386 79.406433
v 125.738289 -26.930176 79.367218
v 126.177238 -26.528427 86.980194
v 129.128693 -26.528427 79.367218
v 128.969101 -27.019386 79.406433
v 127.638977 -27.128468 79.406433
v 128.829071 -27.030869 79.406433
v 126.973167 -27.019386 79.406433
v 129.946854 -42.376556 87.469666
v 129.856064 -42.376556 86.654892
vn 0.0957 0.0403 -0.9946
vn -0.1018 0.0329 -0.9943
vn 0.3917 0.0359 -0.9194
vn 0.5628 0.0260 -0.8262
vn 0.6158 0.0193 0.7876
vn 0.1045 0.0232 0.9943
vn -0.0020 0.0185 0.9998
vn 0.5923 0.0297 0.8052
vn -0.9999 0.0086 -0.0134
vn -0.9999 0.0128 -0.0052
vn -0.9578 0.0085 -0.2872
vn -0.9961 0.0012 0.0885
vn 0.4626 0.6895 0.5573
vn 0.6771 0.7297 0.0951
vn -0.0000 1.0000 -0.0000
vn -0.0000 0.7997 0.6004
vn 0.8774 0.4101 -0.2489
vn 0.8830 0.4678 0.0383
vn 0.9928 0.1194 0.0084
vn 0.8769 0.4686 -0.1069
vn -0.3878 0.6144 -0.6871
vn -0.0000 0.7303 -0.6831
vn 0.0015 0.2383 -0.9712
vn -0.4759 0.2423 -0.8455
vn 0.3878 0.6144 0.6871
vn -0.0020 0.5306 0.8476
vn -0.0028 0.2437 0.9699
vn 0.4790 0.2429 0.8435
vn -0.8774 0.4101 0.2489
vn -0.9596 0.2813 -0.0000
vn -0.9931 0.1173 0.0004
vn -0.8783 0.4660 0.1069
vn 0.9713 0.0122 0.2374
vn 0.9999 0.0131 -0.0001
vn 0.9941 0.1083 0.0035
vn 0.9525 0.2380 0.1901
vn -0.0000 0.7320 -0.6813
vn -0.0000 0.9004 0.4350
vn -0.0726 0.9792 0.1896
vn 0.4273 0.7546 -0.4981
vn -0.8554 0.5180 -0.0000
vn 0.3418 0.9398 -0.0000
vn 0.2018 0.9655 0.1644
vn -0.6482 0.7100 -0.2752
vn 0.0490 0.7209 0.6913
vn 0.0734 0.8973 -0.4353
vn 0.1332 0.9792 -0.1531
vn -0.3822 0.7661 0.5168
vn 0.8725 0.4863 -0.0475
vn -0.3616 0.9320 0.0233
vn -0.1538 0.9644 -0.2150
vn 0.6646 0.7039 0.2507
vn -0.4422 0.7020 0.5582
vn 0.6575 0.7535 -0.0000
vn 0.0605 0.8171 -0.5734
vn 0.4954 0.6675 -0.5558
vn -0.6319 0.7745 0.0299
vn -0.6924 0.7101 -0.1276
vn -0.4822 0.0268 -0.8756
vn -0.4667 0.0246 -0.8841
vn 0.4748 0.2376 -0.8474
vn 0.9911 0.0161 0.1325
vn -0.4664 0.2483 0.8490
vn -0.8312 0.5119 -0.2171
vn 0.9620 0.0175 -0.2726
vn -0.9621 0.0146 0.2721
vn -0.4546 0.0260 0.8903
vn -0.2161 0.9634 0.1589
vn 0.0667 0.9815 0.1792
vn 0.2127 0.9637 -0.1616
vn -0.0599 0.9835 -0.1708
vn -0.6716 0.7363 0.0827
vn 0.7158 0.6929 -0.0872
vn -0.4681 0.6894 -0.5529
vn -0.9174 0.0129 0.3977
vn -0.9999 0.0112 0.0042
vn -1.0000 0.0079 0.0061
vn 0.0717 0.9974 -0.0053
vn 0.0700 0.9974 0.0162
vn 0.7037 0.7104 0.0080
vn -0.9931 0.1175 -0.0004
vn 0.9998 0.0143 -0.0139
vn 0.9999 0.0122 -0.0006
vn 0.9995 0.0101 -0.0291
vn -0.3286 0.9424 0.0618
vn -0.6722 0.7378 0.0614
vn 0.0048 1.0000 0.0086
vn 0.9518 0.0198 -0.3061
vn -0.0006 0.0312 -0.9995
vn 0.0057 0.0245 -0.9997
vn 0.0118 0.2311 0.9729
vn 0.0263 0.0225 0.9994
vn -0.0000 0.2338 -0.9723
vn -0.0023 0.9074 -0.4202
vn -0.0021 0.7840 -0.6207
vn 0.0052 0.9990 0.0444
vn -0.0119 0.9969 -0.0784
vn 0.0050 0.9970 0.0776
vn -0.3134 0.0208 0.9494
vn 0.0448 0.0181 0.9988
vn 0.9920 0.0387 0.1201
vn 0.9916 0.0313 -0.1252
vn 0.9105 0.0341 0.4122
vn 0.7823 0.0234 0.6224
vn -0.7437 0.0172 0.6683
vn -0.9914 0.0224 0.1292
vn -0.9998 0.0178 -0.0035
vn -0.7889 0.0266 0.6140
vn 0.0108 0.0066 -0.9999
vn 0.0042 0.0099 -0.9999
vn 0.2401 0.0046 -0.9707
vn -0.1360 -0.0018 -0.9907
vn -0.5489 0.6782 0.4886
vn -0.0778 0.7233 0.6861
vn -0.6045 0.7966 -0.0000
vn 0.2325 0.3513 0.9069
vn -0.0340 0.3878 0.9211
vn -0.0068 0.0930 0.9956
vn 0.0684 0.4312 0.8997
vn 0.6844 0.5843 -0.4361
vn 0.6937 0.7203 -0.0000
vn 0.9731 0.2303 0.0016
vn 0.8295 0.2255 -0.5110
vn -0.6844 0.5842 0.4362
vn -0.8556 0.5176 -0.0026
vn -0.9719 0.2354 -0.0031
vn -0.8276 0.2265 0.5136
vn -0.2325 0.3513 -0.9069
vn -0.0000 0.1975 -0.9803
vn -0.0003 0.0912 -0.9958
vn -0.0683 0.4283 -0.9010
vn -0.1969 0.0091 0.9804
vn 0.0001 0.0101 0.9999
vn -0.0028 0.0840 0.9965
vn -0.1484 0.2042 0.9676
vn 0.6919 0.7220 -0.0000
vn -0.4334 0.9012 -0.0000
vn -0.1734 0.9845 -0.0259
vn 0.4943 0.7279 0.4752
vn -0.0000 0.4399 -0.8981
vn -0.0000 0.9554 0.2953
vn -0.1647 0.9702 0.1778
vn 0.2583 0.6635 -0.7022
vn -0.7039 0.7078 0.0594
vn 0.4392 0.8934 0.0948
vn 0.1316 0.9857 0.1058
vn -0.5156 0.7477 -0.4185
vn 0.0489 0.4078 0.9118
vn -0.0251 0.9489 -0.3146
vn 0.2203 0.9665 -0.1319
vn -0.2349 0.6566 0.7167
vn -0.5501 0.6887 -0.4724
vn -0.0000 0.7433 0.6690
vn 0.5738 0.8153 0.0779
vn 0.5477 0.6408 0.5380
vn -0.0309 0.7659 -0.6422
vn 0.1116 0.6989 -0.7065
vn 0.8521 0.0246 -0.5229
vn 0.8607 0.0228 -0.5086
vn 0.8314 0.2210 0.5098
vn -0.1099 0.0124 0.9939
vn -0.8344 0.2340 -0.4989
vn 0.1778 0.4757 -0.8614
vn 0.2270 0.0139 0.9738
vn -0.2266 0.0110 -0.9739
vn -0.8719 0.0239 -0.4892
vn -0.1588 0.9689 -0.1898
vn -0.1650 0.9861 0.0180
vn 0.1616 0.9690 0.1869
vn 0.1573 0.9875 -0.0115
vn -0.0680 0.7286 -0.6815
vn 0.0733 0.6707 0.7381
vn 0.5462 0.6754 -0.4954
vn -0.3467 0.0104 -0.9379
vn -0.0034 0.0086 -1.0000
vn -0.0049 0.0061 -1.0000
vn 0.0066 0.9958 0.0919
vn -0.0172 0.9958 0.0904
vn -0.0084 0.6855 0.7280
vn 0.0003 0.0913 -0.9958
vn 0.0111 0.0110 0.9999
vn 0.0005 0.0094 1.0000
vn 0.0234 0.0078 0.9997
vn -0.0000 0.9554 0.2952
vn -0.0649 0.9569 -0.2832
vn -0.0625 0.7255 -0.6854
vn -0.0088 0.9999 0.0050
vn 0.2559 0.0156 0.9666
vn 0.9995 0.0312 -0.0021
vn 0.9997 0.0235 0.0072
vn -0.9751 0.2215 0.0141
vn -0.9992 0.0220 0.0321
vn 0.9741 0.2262 -0.0000
vn 0.4189 0.9080 -0.0030
vn 0.6265 0.7794 -0.0026
vn -0.0471 0.9989 0.0068
vn 0.0804 0.9966 -0.0164
vn -0.0797 0.9968 0.0063
vn -0.9356 0.0196 -0.3525
vn -0.9983 0.0172 0.0562
vn 0.9946 0.0403 0.0957
vn 0.9943 0.0329 -0.1018
vn 0.9194 0.0359 0.3917
vn 0.8262 0.0260 0.5628
vn -0.7876 0.0193 0.6159
vn -0.9943 0.0232 0.1045
vn -0.9998 0.0185 -0.0020
vn -0.8052 0.0297 0.5923
vn 0.0134 0.0086 -0.9999
vn 0.0052 0.0128 -0.9999
vn 0.2872 0.0085 -0.9578
vn -0.0885 0.0012 -0.9961
vn -0.5572 0.6895 0.4626
vn -0.0951 0.7297 0.6771
vn -0.6004 0.7997 -0.0000
vn 0.2489 0.4101 0.8774
vn -0.0383 0.4678 0.8830
vn -0.0084 0.1194 0.9928
vn 0.1069 0.4686 0.8769
vn 0.6871 0.6144 -0.3878
vn 0.6831 0.7303 -0.0000
vn 0.9712 0.2383 0.0015
vn 0.8455 0.2423 -0.4759
vn -0.6871 0.6144 0.3878
vn -0.8476 0.5306 -0.0020
vn -0.9699 0.2437 -0.0028
vn -0.8435 0.2429 0.4790
vn -0.2489 0.4101 -0.8774
vn -0.0000 0.2813 -0.9596
vn -0.0004 0.1173 -0.9931
vn -0.1069 0.4660 -0.8783
vn -0.2374 0.0122 0.9713
vn 0.0001 0.0131 0.9999
vn -0.0035 0.1083 0.9941
vn -0.1901 0.2380 0.9525
vn 0.6813 0.7320 -0.0000
vn -0.4350 0.9004 -0.0000
vn -0.1896 0.9792 -0.0725
vn 0.4980 0.7546 0.4273
vn -0.0000 0.5180 -0.8554
vn -0.0000 0.9398 0.3418
vn -0.1644 0.9655 0.2019
vn 0.2752 0.7100 -0.6482
vn -0.6913 0.7209 0.0490
vn 0.4353 0.8973 0.0734
vn 0.1531 0.9792 0.1332
vn -0.5168 0.7661 -0.3822
vn 0.0475 0.4863 0.8725
vn -0.0233 0.9320 -0.3616
vn 0.2150 0.9644 -0.1538
vn -0.2507 0.7039 0.6646
vn -0.5582 0.7020 -0.4422
vn -0.0000 0.7535 0.6575
vn 0.5734 0.8171 0.0605
vn 0.5558 0.6675 0.4954
vn -0.0299 0.7745 -0.6319
vn 0.1276 0.7101 -0.6924
vn 0.8756 0.0268 -0.4822
vn 0.8841 0.0246 -0.4667
vn 0.8474 0.2376 0.4748
vn -0.1325 0.0161 0.9911
vn -0.8490 0.2483 -0.4663
vn 0.2171 0.5119 -0.8312
vn 0.2726 0.0175 0.9620
vn -0.2721 0.0146 -0.9621
vn -0.8903 0.0260 -0.4546
vn -0.1588 0.9634 -0.2161
vn -0.1792 0.9816 0.0666
vn 0.1616 0.9637 0.2127
vn 0.1708 0.9835 -0.0599
vn -0.0827 0.7363 -0.6716
vn 0.0872 0.6929 0.7158
vn 0.5529 0.6894 -0.4681
vn -0.3977 0.0129 -0.9174
vn -0.0042 0.0112 -0.9999
vn -0.0061 0.0079 -1.0000
vn 0.0053 0.9974 0.0717
vn -0.0162 0.9974 0.0700
vn -0.0080 0.7104 0.7037
vn 0.0004 0.1175 -0.9931
vn 0.0139 0.0143 0.9998
vn 0.0006 0.0122 0.9999
vn 0.0291 0.0101 0.9995
vn -0.0618 0.9424 -0.3286
vn -0.0614 0.7378 -0.6722
vn -0.0086 1.0000 0.0048
vn 0.3061 0.0198 0.9518
vn 0.9995 0.0312 -0.0006
vn 0.9997 0.0245 0.0057
vn -0.9729 0.2311 0.0118
vn -0.9994 0.0225 0.0263
vn 0.9723 0.2338 -0.0000
vn 0.4202 0.9074 -0.0023
vn 0.6207 0.7840 -0.0021
vn -0.0444 0.9990 0.0052
vn 0.0784 0.9969 -0.0119
vn -0.0776 0.9970 0.0050
vn -0.9494 0.0208 -0.3134
vn -0.9988 0.0181 0.0448
vn 0.9948 0.0404 0.0931
vn 0.9945 0.0330 -0.0993
vn 0.9207 0.0359 0.3887
vn 0.8311 0.0262 0.5556
vn -0.7926 0.0194 0.6094
vn -0.9945 0.0232 0.1019
vn -0.9998 0.0185 -0.0018
vn -0.8073 0.0299 0.5894
vn 0.0138 0.0088 -0.9999
vn 0.0053 0.0131 -0.9999
vn 0.2931 0.0089 -0.9560
vn -0.0826 0.0015 -0.9966
vn -0.5587 0.6906 0.4593
vn -0.0974 0.7303 0.6761
vn 0.2512 0.4155 0.8742
vn -0.0388 0.4760 0.8786
vn -0.0086 0.1224 0.9924
vn 0.1122 0.4728 0.8740
vn 0.6882 0.6167 -0.3823
vn 0.8476 0.2435 -0.4715
vn -0.6882 0.6166 0.3823
vn -0.8476 0.5306 -0.0019
vn -0.9698 0.2437 -0.0028
vn -0.8456 0.2441 0.4747
vn -0.2513 0.4155 -0.8742
vn -0.0000 0.2900 -0.9570
vn -0.0004 0.1203 -0.9927
vn -0.1122 0.4703 -0.8754
vn -0.2426 0.0125 0.9700
vn 0.0001 0.0134 0.9999
vn -0.0036 0.1111 0.9938
vn -0.1952 0.2414 0.9506
vn -0.1914 0.9785 -0.0769
vn 0.4995 0.7567 0.4218
vn -0.0000 0.5259 -0.8505
vn -0.0000 0.9382 0.3462
vn -0.1644 0.9652 0.2036
vn 0.2776 0.7142 -0.6426
vn -0.6911 0.7212 0.0480
vn 0.4349 0.8976 0.0716
vn 0.1554 0.9785 0.1359
vn -0.5180 0.7675 -0.3777
vn 0.0473 0.4942 0.8680
vn -0.0233 0.9303 -0.3661
vn 0.2146 0.9642 -0.1554
vn -0.2529 0.7082 0.6592
vn -0.5597 0.7032 -0.4385
vn -0.0000 0.7546 0.6561
vn 0.5737 0.8169 0.0589
vn 0.5574 0.6699 0.4905
vn -0.0299 0.7756 -0.6306
vn 0.1299 0.7112 -0.6909
vn 0.8785 0.0270 -0.4770
vn 0.8868 0.0248 -0.4615
vn 0.8495 0.2388 0.4704
vn -0.1354 0.0165 0.9907
vn -0.8510 0.2493 -0.4622
vn 0.2225 0.5157 -0.8274
vn 0.2783 0.0179 0.9603
vn -0.2778 0.0150 -0.9605
vn -0.8926 0.0262 -0.4501
vn -0.1590 0.9629 -0.2180
vn -0.1808 0.9809 0.0712
vn 0.1617 0.9632 0.2145
vn 0.1724 0.9829 -0.0645
vn -0.0847 0.7371 -0.6705
vn 0.0891 0.6949 0.7136
vn 0.5543 0.6906 -0.4646
vn -0.4036 0.0131 -0.9148
vn -0.0043 0.0115 -0.9999
vn -0.0063 0.0081 -0.9999
vn 0.0052 0.9975 0.0699
vn -0.0162 0.9975 0.0682
vn -0.0079 0.7129 0.7012
vn 0.0004 0.1205 -0.9927
vn 0.0143 0.0146 0.9998
vn 0.0007 0.0125 0.9999
vn 0.0299 0.0103 0.9995
vn -0.0617 0.9409 -0.3329
vn -0.0616 0.7391 -0.6708
vn -0.0087 1.0000 0.0048
vn 0.3123 0.0202 0.9498
vn 0.9995 0.0311 -0.0005
vn 0.9997 0.0245 0.0056
vn -0.9728 0.2313 0.0115
vn -0.9994 0.0225 0.0257
vn 0.4202 0.9074 -0.0022
vn 0.6207 0.7840 -0.0020
vn -0.0443 0.9990 0.0050
vn 0.0785 0.9969 -0.0115
vn -0.0777 0.9970 0.0049
vn -0.9510 0.0208 -0.3086
vn -0.9989 0.0182 0.0436
vn -0.9948 0.0404 -0.0937
vn -0.9944 0.0330 0.0999
vn -0.9204 0.0359 -0.3894
vn -0.8300 0.0262 -0.5572
vn 0.7915 0.0194 -0.6109
vn 0.9945 0.0232 -0.1025
vn 0.9998 0.0185 0.0019
vn 0.8068 0.0299 -0.5901
vn -0.0137 0.0088 0.9999
vn -0.0053 0.0130 0.9999
vn -0.2918 0.0088 0.9565
vn 0.0839 0.0014 0.9965
vn 0.5584 0.6903 -0.4601
vn 0.0969 0.7302 -0.6763
vn 0.6004 0.7997 -0.0000
vn -0.2507 0.4143 -0.8749
vn 0.0387 0.4741 -0.8796
vn 0.0085 0.1217 -0.9925
vn -0.1110 0.4718 -0.8747
vn -0.6880 0.6161 0.3835
vn -0.6831 0.7303 -0.0000
vn -0.9712 0.2383 -0.0015
vn -0.8471 0.2432 0.4725
vn 0.6880 0.6161 -0.3835
vn 0.8476 0.5306 0.0020
vn 0.9699 0.2437 0.0028
vn 0.8452 0.2438 -0.4757
vn 0.2507 0.4143 0.8749
vn -0.0000 0.2880 0.9576
vn 0.0004 0.1196 0.9928
vn 0.1110 0.4693 0.8760
vn 0.2414 0.0125 -0.9703
vn -0.0001 0.0133 -0.9999
vn 0.0036 0.1105 -0.9939
vn 0.1941 0.2406 -0.9510
vn -0.6813 0.7320 -0.0000
vn 0.4350 0.9004 -0.0000
vn 0.1910 0.9786 0.0759
vn -0.4991 0.7562 -0.4231
vn -0.0000 0.5241 0.8516
vn -0.0000 0.9385 -0.3452
vn 0.1644 0.9652 -0.2032
vn -0.2770 0.7132 0.6439
vn 0.6911 0.7211 -0.0482
vn -0.4350 0.8975 -0.0720
vn -0.1549 0.9786 -0.1353
vn 0.5177 0.7671 0.3787
vn -0.0473 0.4924 -0.8691
vn 0.0233 0.9307 0.3651
vn -0.2147 0.9643 0.1551
vn 0.2524 0.7072 -0.6604
vn 0.5593 0.7030 0.4393
vn -0.0000 0.7544 -0.6564
vn -0.5737 0.8170 -0.0592
vn -0.5570 0.6694 -0.4916
vn 0.0299 0.7753 0.6309
vn -0.1294 0.7109 0.6913
vn -0.8778 0.0269 0.4782
vn -0.8862 0.0247 0.4626
vn -0.8491 0.2385 -0.4714
vn 0.1347 0.0164 -0.9907
vn 0.8506 0.2491 0.4632
vn -0.2213 0.5148 0.8283
vn -0.2770 0.0178 -0.9607
vn 0.2765 0.0149 0.9609
vn 0.8921 0.0261 0.4511
vn 0.1590 0.9630 0.2176
vn 0.1805 0.9811 -0.0702
vn -0.1617 0.9633 -0.2141
vn -0.1720 0.9830 0.0635
vn 0.0843 0.7369 0.6707
vn -0.0886 0.6945 -0.7141
vn -0.5540 0.6903 0.4654
vn 0.4023 0.0131 0.9154
vn 0.0043 0.0114 0.9999
vn 0.0063 0.0080 0.9999
vn -0.0052 0.9975 -0.0703
vn 0.0162 0.9975 -0.0686
vn 0.0079 0.7123 -0.7018
vn -0.0004 0.1198 0.9928
vn -0.0142 0.0145 -0.9998
vn -0.0007 0.0124 -0.9999
vn -0.0297 0.0103 -0.9995
vn 0.0617 0.9413 0.3319
vn 0.0615 0.7388 0.6711
vn 0.0086 1.0000 -0.0048
vn -0.3109 0.0201 -0.9502
vn -0.9995 0.0311 0.0005
vn -0.9997 0.0245 -0.0056
vn 0.9728 0.2312 -0.0116
vn 0.9994 0.0225 -0.0258
vn -0.9723 0.2338 -0.0000
vn -0.4202 0.9074 0.0023
vn -0.6207 0.7840 0.0020
vn 0.0443 0.9990 -0.0050
vn -0.0784 0.9969 0.0116
vn 0.0777 0.9970 -0.0049
vn 0.9506 0.0208 0.3096
vn 0.9989 0.0182 -0.0439
vn 0.9949 0.0404 0.0929
vn 0.9945 0.0330 -0.0991
vn 0.9208 0.0360 0.3884
vn 0.8315 0.0262 0.5549
vn -0.7931 0.0194 0.6088
vn -0.9945 0.0232 0.1017
vn -0.8075 0.0300 0.5892
vn 0.2937 0.0089 -0.9559
vn -0.0820 0.0015 -0.9966
vn -0.5588 0.6907 0.4590
vn -0.0976 0.7304 0.6760
vn 0.2515 0.4160 0.8739
vn -0.0389 0.4767 0.8782
vn -0.0086 0.1227 0.9924
vn 0.1127 0.4732 0.8737
vn 0.6883 0.6169 -0.3818
vn 0.8477 0.2436 -0.4711
vn -0.6883 0.6169 0.3818
vn -0.8458 0.2442 0.4743
vn -0.2515 0.4160 -0.8739
vn -0.0000 0.2908 -0.9568
vn -0.0004 0.1206 -0.9927
vn -0.1127 0.4706 -0.8751
vn -0.2431 0.0126 0.9699
vn -0.0036 0.1114 0.9938
vn -0.1957 0.2417 0.9504
vn -0.1916 0.9784 -0.0773
vn 0.4996 0.7569 0.4213
vn -0.0000 0.5266 -0.8501
vn -0.0000 0.9380 0.3466
vn -0.1644 0.9651 0.2037
vn 0.2778 0.7145 -0.6421
vn -0.6911 0.7212 0.0479
vn 0.4349 0.8977 0.0714
vn 0.1556 0.9784 0.1361
vn -0.5181 0.7676 -0.3773
vn 0.0473 0.4949 0.8676
vn -0.0233 0.9301 -0.3665
vn 0.2146 0.9642 -0.1555
vn -0.2531 0.7085 0.6587
vn -0.5598 0.7033 -0.4381
vn -0.0000 0.7548 0.6560
vn 0.5737 0.8169 0.0588
vn 0.5575 0.6701 0.4901
vn -0.0299 0.7757 -0.6304
vn 0.1301 0.7113 -0.6908
vn 0.8787 0.0270 -0.4766
vn 0.8871 0.0248 -0.4610
vn 0.8497 0.2389 0.4700
vn -0.1356 0.0165 0.9906
vn -0.8512 0.2494 -0.4619
vn 0.2230 0.5160 -0.8270
vn 0.2788 0.0179 0.9602
vn -0.2783 0.0150 -0.9604
vn -0.8928 0.0262 -0.4497
vn -0.1590 0.9629 -0.2181
vn -0.1810 0.9809 0.0717
vn 0.1618 0.9632 0.2147
vn 0.1725 0.9829 -0.0649
vn -0.0849 0.7372 -0.6704
vn 0.0893 0.6951 0.7133
vn 0.5544 0.6907 -0.4642
vn -0.4042 0.0132 -0.9146
vn 0.0052 0.9976 0.0697
vn -0.0162 0.9976 0.0680
vn -0.0079 0.7131 0.7010
vn 0.0004 0.1207 -0.9927
vn 0.0143 0.0147 0.9998
vn -0.0617 0.9408 -0.3333
vn -0.0616 0.7392 -0.6706
vn 0.3129 0.0203 0.9496
vn 0.0785 0.9968 -0.0115
vn -0.9511 0.0208 -0.3081
vn -0.9989 0.0182 0.0435
vn -0.9941 0.0403 -0.1008
vn -0.9937 0.0329 0.1069
vn -0.9170 0.0358 -0.3973
vn -0.8165 0.0256 -0.5768
vn 0.7778 0.0189 -0.6283
vn 0.9937 0.0232 -0.1098
vn 0.9998 0.0185 0.0023
vn 0.8012 0.0292 -0.5977
vn -0.0128 0.0082 0.9999
vn -0.0049 0.0121 0.9999
vn -0.2759 0.0077 0.9612
vn 0.0999 0.0005 0.9950
vn 0.5544 0.6875 -0.4689
vn 0.0907 0.7285 -0.6790
vn -0.2444 0.3994 -0.8836
vn 0.0372 0.4520 -0.8913
vn 0.0080 0.1137 -0.9935
vn -0.0968 0.4605 -0.8824
vn -0.6850 0.6099 0.3985
vn -0.9712 0.2383 -0.0016
vn -0.8414 0.2400 0.4842
vn 0.6850 0.6099 -0.3985
vn 0.8477 0.5304 0.0021
vn 0.9699 0.2436 0.0029
vn 0.8394 0.2407 -0.4872
vn 0.2444 0.3994 0.8836
vn -0.0000 0.2646 0.9644
vn 0.0003 0.1117 0.9937
vn 0.0967 0.4579 0.8837
vn 0.2276 0.0115 -0.9737
vn -0.0001 0.0124 -0.9999
vn 0.0034 0.1031 -0.9947
vn 0.1803 0.2313 -0.9560
vn 0.1862 0.9805 0.0636
vn -0.4953 0.7503 -0.4379
vn -0.0000 0.5026 0.8645
vn -0.0000 0.9429 -0.3330
vn 0.1642 0.9663 -0.1984
vn -0.2705 0.7016 0.6592
vn 0.6916 0.7204 -0.0510
vn -0.4362 0.8965 -0.0772
vn -0.1489 0.9806 -0.1276
vn 0.5145 0.7634 0.3906
vn -0.0479 0.4708 -0.8810
vn 0.0235 0.9355 0.3526
vn -0.2156 0.9648 0.1505
vn 0.2464 0.6953 -0.6752
vn 0.5555 0.6996 0.4494
vn -0.0000 0.7513 -0.6600
vn -0.5727 0.8173 -0.0636
vn -0.5529 0.6629 -0.5049
vn 0.0299 0.7725 0.6343
vn -0.1232 0.7082 0.6952
vn -0.8701 0.0265 0.4921
vn -0.8786 0.0244 0.4768
vn -0.8434 0.2353 -0.4831
vn 0.1269 0.0153 -0.9918
vn 0.8452 0.2465 0.4742
vn -0.2066 0.5045 0.8383
vn -0.2617 0.0167 -0.9650
vn 0.2613 0.0138 0.9652
vn 0.8859 0.0258 0.4632
vn 0.1585 0.9643 0.2122
vn 0.1762 0.9827 -0.0573
vn -0.1613 0.9645 -0.2089
vn -0.1680 0.9845 0.0505
vn 0.0789 0.7348 0.6737
vn -0.0835 0.6888 -0.7201
vn -0.5503 0.6869 0.4747
vn 0.3860 0.0124 0.9224
vn 0.0040 0.0106 0.9999
vn 0.0058 0.0075 1.0000
vn -0.0056 0.9972 -0.0752
vn 0.0163 0.9972 -0.0736
vn 0.0080 0.7056 -0.7085
vn -0.0003 0.1118 0.9937
vn -0.0132 0.0136 -0.9998
vn -0.0006 0.0116 -0.9999
vn -0.0277 0.0096 -0.9996
vn 0.0619 0.9454 0.3201
vn 0.0612 0.7353 0.6749
vn -0.2941 0.0189 -0.9556
vn -0.9995 0.0315 0.0008
vn -0.9997 0.0245 -0.0060
vn 0.9729 0.2307 -0.0123
vn 0.9994 0.0226 -0.0276
vn -0.4202 0.9074 0.0024
vn -0.6208 0.7840 0.0022
vn 0.0446 0.9990 -0.0055
vn -0.0781 0.9969 0.0127
vn 0.0774 0.9970 -0.0052
vn 0.9463 0.0207 0.3227
vn 0.9987 0.0181 -0.0472
vt 0.922990 0.978771
vt 0.925016 0.775168
vt 0.962695 0.774739
vt 0.969609 0.978244
vt 0.959825 0.221249
vt 0.926680 0.220438
vt 0.935912 0.017318
vt 0.970670 0.017655
vt 0.050561 0.024580
vt 0.071140 0.227750
vt 0.036656 0.229667
vt 0.018773 0.026360
vt 0.221362 0.541109
vt 0.218513 0.538073
vt 0.241571 0.538797
vt 0.241220 0.542453
vt 0.960680 0.559617
vt 0.963012 0.527347
vt 0.970447 0.527713
vt 0.968383 0.567285
vt 0.205371 0.563336
vt 0.236420 0.564226
vt 0.236286 0.571658
vt 0.199744 0.570578
vt 0.952959 0.431305
vt 0.917802 0.430453
vt 0.917857 0.423044
vt 0.958507 0.424139
vt 0.197564 0.435336
vt 0.195350 0.467641
vt 0.187665 0.467212
vt 0.189850 0.427443
vt 0.022073 0.692652
vt 0.051239 0.692685
vt 0.087299 0.893195
vt 0.020325 0.897148
vt 0.917341 0.565255
vt 0.917241 0.555337
vt 0.942146 0.553955
vt 0.952466 0.564544
vt 0.195100 0.525927
vt 0.205548 0.525368
vt 0.207837 0.546558
vt 0.197187 0.558264
vt 0.238623 0.429188
vt 0.238627 0.439307
vt 0.216072 0.440750
vt 0.205772 0.430336
vt 0.964395 0.496221
vt 0.953217 0.496689
vt 0.950717 0.447912
vt 0.961168 0.436415
vt 0.913209 0.543291
vt 0.936763 0.542090
vt 0.218217 0.521196
vt 0.243038 0.451607
vt 0.221730 0.452715
vt 0.940069 0.498752
vt 0.940158 0.456709
vt 0.176815 0.976571
vt 0.181691 0.772720
vt 0.191678 0.773480
vt 0.187240 0.977029
vt 0.958008 0.571831
vt 0.991311 0.018897
vt 0.976097 0.222261
vt 0.200260 0.423191
vt 0.189346 0.565924
vt 0.972694 0.773997
vt 0.968790 0.428872
vt 0.182776 0.221427
vt 0.192699 0.220395
vt 0.950212 0.547809
vt 0.215818 0.552850
vt 0.208142 0.447019
vt 0.942619 0.441697
vt 0.939728 0.539091
vt 0.218767 0.455879
vt 0.937214 0.453721
vt 0.178717 0.017504
vt 0.148220 0.223651
vt 0.147052 0.019486
vt 0.243158 0.455276
vt 0.242902 0.472906
vt 0.218387 0.472879
vt 0.972744 0.495846
vt 0.187408 0.526348
vt 0.138172 0.489161
vt 0.128220 0.692757
vt 0.041814 0.489176
vt 0.205790 0.468159
vt 0.952829 0.526795
vt 0.940358 0.522020
vt 0.241856 0.521207
vt 0.169902 0.489293
vt 0.162621 0.692747
vt 0.217442 0.977424
vt 0.227094 0.774189
vt 0.238681 0.421489
vt 0.252985 0.219954
vt 0.913078 0.539646
vt 0.917350 0.572720
vt 0.236760 0.554380
vt 0.917669 0.440301
vt 0.913586 0.452515
vt 0.913194 0.498880
vt 0.913355 0.456087
vt 0.913176 0.522137
vt 0.090973 0.430533
vt 0.051478 0.434800
vt 0.021133 0.489031
vt 0.980031 0.977810
vt 0.193794 0.016883
vt 0.150173 0.427312
vt 0.119165 0.895492
vt 0.158738 0.897556
vt 0.266783 0.016711
s 1
f 1/1/1 2/2/2 3/3/3
f 3/3/3 4/4/4 1/1/1
f 5/5/5 6/6/6 7/7/7
f 7/7/7 8/8/8 5/5/5
f 9/9/9 10/10/10 11/11/11
f 11/11/11 12/12/12 9/9/9
f 13/13/13 14/14/14 15/15/15
f 15/15/15 16/16/16 13/13/13
f 17/17/17 18/18/18 19/19/19
f 19/19/19 20/20/20 17/17/17
f 21/21/21 22/22/22 23/23/23
f 23/23/23 24/24/24 21/21/21
f 25/25/25 26/26/26 27/27/27
f 27/27/27 28/28/28 25/25/25
f 29/29/29 30/30/30 31/31/31
f 31/31/31 32/32/32 29/29/29
f 33/33/33 34/34/34 35/35/35
f 35/35/35 36/36/36 33/33/33
f 37/37/37 38/38/38 39/39/39
f 39/39/39 40/40/40 37/37/37
f 41/41/41 42/42/42 43/43/43
f 43/43/43 44/44/44 41/41/41
f 45/45/45 46/46/46 47/47/47
f 47/47/47 48/48/48 45/45/45
f 49/49/49 50/50/50 51/51/51
f 51/51/51 52/52/52 49/49/49
f 39/39/39 38/38/38 53/53/16
f 53/53/16 54/54/53 39/39/39
f 42/42/42 55/55/54 14/14/14
f 14/14/14 43/43/43 42/42/42
f 47/47/47 46/46/46 56/56/55
f 56/56/55 57/57/56 47/47/47
f 50/50/50 58/58/57 59/59/58
f 59/59/58 51/51/51 50/50/50
f 12/60/12 11/61/11 60/62/59
f 60/62/59 61/63/60 12/60/12
f 40/40/40 17/17/17 20/20/20
f 20/20/20 62/64/61 40/40/40
f 63/65/62 33/66/33 5/5/5
f 5/5/5 8/8/8 63/65/62
f 48/48/48 29/29/29 32/32/32
f 32/32/32 64/67/63 48/48/48
f 24/24/24 65/68/64 44/44/44
f 44/44/44 21/21/21 24/24/24
f 20/20/20 66/69/65 3/3/3
f 3/3/3 62/64/61 20/20/20
f 28/28/28 36/70/36 52/52/52
f 52/52/52 25/25/25 28/28/28
f 32/32/32 67/71/66 68/72/67
f 68/72/67 64/67/63 32/32/32
f 17/17/17 40/40/40 39/39/39
f 39/39/39 69/73/68 17/17/17
f 21/21/21 44/44/44 43/43/43
f 43/43/43 70/74/69 21/21/21
f 29/29/29 48/48/48 47/47/47
f 47/47/47 71/75/70 29/29/29
f 25/25/25 52/52/52 51/51/51
f 51/51/51 72/76/71 25/25/25
f 69/73/68 39/39/39 54/54/53
f 54/54/53 73/77/72 69/73/68
f 70/74/69 43/43/43 14/14/14
f 14/14/14 13/13/13 70/74/69
f 71/75/70 47/47/47 57/57/56
f 57/57/56 74/78/73 71/75/70
f 72/76/71 51/51/51 59/59/58
f 59/59/58 75/79/74 72/76/71
f 76/80/75 67/71/66 77/81/76
f 77/81/76 78/82/77 76/80/75
f 74/78/73 79/83/78 80/84/79
f 80/84/79 81/85/80 74/78/73
f 52/52/52 36/70/36 35/86/35
f 35/86/35 49/49/49 52/52/52
f 41/41/41 82/87/81 31/31/31
f 31/31/31 30/30/30 41/41/41
f 83/88/82 84/89/83 34/34/34
f 34/34/34 85/90/84 83/88/82
f 30/30/30 29/29/29 71/75/70
f 71/75/70 86/91/42 30/30/30
f 18/18/18 87/92/85 50/50/50
f 50/50/50 49/49/49 18/18/18
f 71/75/70 74/78/73 81/85/80
f 81/85/80 86/91/42 71/75/70
f 87/92/85 88/93/86 58/58/57
f 58/58/57 50/50/50 87/92/85
f 78/82/77 77/81/76 10/10/10
f 10/10/10 9/9/9 78/82/77
f 81/85/80 80/84/79 89/94/87
f 89/94/87 55/55/54 81/85/80
f 49/49/49 35/86/35 19/19/19
f 19/19/19 18/18/18 49/49/49
f 30/30/30 86/91/42 42/42/42
f 42/42/42 41/41/41 30/30/30
f 86/91/42 81/85/80 55/55/54
f 55/55/54 42/42/42 86/91/42
f 44/44/44 65/68/64 82/87/81
f 82/87/81 41/41/41 44/44/44
f 90/95/88 66/96/65 84/89/83
f 84/89/83 83/88/82 90/95/88
f 18/18/18 17/17/17 69/73/68
f 69/73/68 87/92/85 18/18/18
f 69/73/68 73/77/72 88/93/86
f 88/93/86 87/92/85 69/73/68
f 91/97/89 92/98/90 2/2/2
f 2/2/2 1/1/1 91/97/89
f 27/27/27 93/99/91 94/100/92
f 94/100/92 6/6/6 27/27/27
f 54/54/53 53/53/16 95/101/15
f 95/101/15 73/77/72 54/54/53
f 40/40/40 62/64/61 96/102/93
f 96/102/93 37/37/37 40/40/40
f 45/45/45 93/99/91 27/27/27
f 27/27/27 26/26/26 45/45/45
f 22/22/22 97/103/38 38/38/38
f 38/38/38 37/37/37 22/22/22
f 26/26/26 25/25/25 72/76/71
f 72/76/71 98/104/94 26/26/26
f 97/103/38 16/16/16 53/53/16
f 53/53/16 38/38/38 97/103/38
f 72/76/71 75/79/74 99/105/95
f 99/105/95 98/104/94 72/76/71
f 58/58/57 100/106/96 101/107/97
f 101/107/97 59/59/58 58/58/57
f 58/58/57 88/93/86 102/108/98
f 102/108/98 100/106/96 58/58/57
f 53/53/16 16/16/16 15/15/15
f 15/15/15 95/101/15 53/53/16
f 37/37/37 96/102/93 23/23/23
f 23/23/23 22/22/22 37/37/37
f 26/26/26 98/104/94 46/46/46
f 46/46/46 45/45/45 26/26/26
f 98/104/94 99/105/95 56/56/55
f 56/56/55 46/46/46 98/104/94
f 100/106/96 80/84/79 79/83/78
f 79/83/78 101/107/97 100/106/96
f 80/84/79 100/106/96 102/108/98
f 102/108/98 89/94/87 80/84/79
f 91/97/89 61/63/60 60/62/59
f 60/62/59 92/98/90 91/97/89
f 93/99/91 64/67/63 68/72/67
f 68/72/67 94/100/92 93/99/91
f 48/48/48 64/67/63 93/99/91
f 93/99/91 45/45/45 48/48/48
f 22/22/22 21/21/21 70/74/69
f 70/74/69 97/103/38 22/22/22
f 70/74/69 13/13/13 16/16/16
f 16/16/16 97/103/38 70/74/69
f 2/2/2 96/102/93 62/64/61
f 62/64/61 3/3/3 2/2/2
f 28/28/28 27/27/27 6/6/6
f 6/6/6 5/5/5 28/28/28
f 82/109/81 65/110/64 11/11/11
f 11/11/11 10/10/10 82/109/81
f 63/111/62 85/90/84 34/34/34
f 34/34/34 33/33/33 63/111/62
f 65/68/64 24/24/24 60/62/59
f 60/62/59 11/61/11 65/68/64
f 36/70/36 28/28/28 5/5/5
f 5/5/5 33/66/33 36/70/36
f 90/112/88 4/4/4 3/3/3
f 3/3/3 66/69/65 90/112/88
f 76/80/75 103/113/99 68/72/67
f 68/72/67 67/71/66 76/80/75
f 32/32/32 31/114/31 77/81/76
f 77/81/76 67/71/66 32/32/32
f 19/115/19 35/35/35 34/34/34
f 34/34/34 84/89/83 19/115/19
f 31/114/31 82/109/81 10/10/10
f 10/10/10 77/81/76 31/114/31
f 20/116/20 19/115/19 84/89/83
f 84/89/83 66/96/65 20/116/20
f 23/23/23 96/102/93 2/2/2
f 2/2/2 92/98/90 23/23/23
f 104/117/100 7/7/7 6/6/6
f 6/6/6 94/100/92 104/117/100
f 24/24/24 23/23/23 92/98/90
f 92/98/90 60/62/59 24/24/24
f 103/113/99 104/117/100 94/100/92
f 94/100/92 68/72/67 103/113/99
f 55/55/54 89/94/87 15/15/15
f 15/15/15 14/14/14 55/55/54
f 89/94/87 102/108/98 95/101/15
f 95/101/15 15/15/15 89/94/87
f 102/108/98 88/93/86 73/77/72
f 73/77/72 95/101/15 102/108/98
f 57/57/56 56/56/55 79/83/78
f 79/83/78 74/78/73 57/57/56
f 56/56/55 99/105/95 101/107/97
f 101/107/97 79/83/78 56/56/55
f 101/107/97 99/105/95 75/79/74
f 75/79/74 59/59/58 101/107/97
f 105/1/101 106/2/102 107/3/103
f 107/3/103 108/4/104 105/1/101
f 109/5/105 110/6/106 111/7/107
f 111/7/107 112/8/108 109/5/105
f 113/9/109 114/10/110 115/11/111
f 115/11/111 116/12/112 113/9/109
f 117/13/113 118/14/114 119/15/15
f 119/15/15 120/16/115 117/13/113
f 121/17/116 122/18/117 123/19/118
f 123/19/118 124/20/119 121/17/116
f 125/21/120 126/22/121 127/23/122
f 127/23/122 128/24/123 125/21/120
f 129/25/124 130/26/125 131/27/126
f 131/27/126 132/28/127 129/25/124
f 133/29/128 134/30/129 135/31/130
f 135/31/130 136/32/131 133/29/128
f 137/33/132 138/34/133 139/35/134
f 139/35/134 140/36/135 137/33/132
f 141/37/136 142/38/137 143/39/138
f 143/39/138 144/40/139 141/37/136
f 145/41/140 146/42/141 147/43/142
f 147/43/142 148/44/143 145/41/140
f 149/45/144 150/46/145 151/47/146
f 151/47/146 152/48/147 149/45/144
f 153/49/148 154/50/149 155/51/150
f 155/51/150 156/52/151 153/49/148
f 143/39/138 142/38/137 157/53/115
f 157/53/115 158/54/152 143/39/138
f 146/42/141 159/55/153 118/14/114
f 118/14/114 147/43/142 146/42/141
f 151/47/146 150/46/145 160/56/154
f 160/56/154 161/57/155 151/47/146
f 154/50/149 162/58/156 163/59/157
f 163/59/157 155/51/150 154/50/149
f 116/60/112 115/61/111 164/62/158
f 164/62/158 165/63/159 116/60/112
f 144/40/139 121/17/116 124/20/119
f 124/20/119 166/64/160 144/40/139
f 167/65/161 137/66/132 109/5/105
f 109/5/105 112/8/108 167/65/161
f 152/48/147 133/29/128 136/32/131
f 136/32/131 168/67/162 152/48/147
f 128/24/123 169/68/163 148/44/143
f 148/44/143 125/21/120 128/24/123
f 124/20/119 170/69/164 107/3/103
f 107/3/103 166/64/160 124/20/119
f 132/28/127 140/70/135 156/52/151
f 156/52/151 129/25/124 132/28/127
f 136/32/131 171/71/165 172/72/166
f 172/72/166 168/67/162 136/32/131
f 121/17/116 144/40/139 143/39/138
f 143/39/138 173/73/167 121/17/116
f 125/21/120 148/44/143 147/43/142
f 147/43/142 174/74/168 125/21/120
f 133/29/128 152/48/147 151/47/146
f 151/47/146 175/75/169 133/29/128
f 129/25/124 156/52/151 155/51/150
f 155/51/150 176/76/170 129/25/124
f 173/73/167 143/39/138 158/54/152
f 158/54/152 177/77/171 173/73/167
f 174/74/168 147/43/142 118/14/114
f 118/14/114 117/13/113 174/74/168
f 175/75/169 151/47/146 161/57/155
f 161/57/155 178/78/172 175/75/169
f 176/76/170 155/51/150 163/59/157
f 163/59/157 179/79/173 176/76/170
f 180/80/174 171/71/165 181/81/175
f 181/81/175 182/82/176 180/80/174
f 178/78/172 183/83/177 184/84/178
f 184/84/178 185/85/179 178/78/172
f 156/52/151 140/70/135 139/86/134
f 139/86/134 153/49/148 156/52/151
f 145/41/140 186/87/180 135/31/130
f 135/31/130 134/30/129 145/41/140
f 187/88/181 188/89/182 138/34/133
f 138/34/133 189/90/183 187/88/181
f 134/30/129 133/29/128 175/75/169
f 175/75/169 190/91/184 134/30/129
f 122/18/117 191/92/185 154/50/149
f 154/50/149 153/49/148 122/18/117
f 175/75/169 178/78/172 185/85/179
f 185/85/179 190/91/184 175/75/169
f 191/92/185 192/93/186 162/58/156
f 162/58/156 154/50/149 191/92/185
f 182/82/176 181/81/175 114/10/110
f 114/10/110 113/9/109 182/82/176
f 185/85/179 184/84/178 193/94/187
f 193/94/187 159/55/153 185/85/179
f 153/49/148 139/86/134 123/19/118
f 123/19/118 122/18/117 153/49/148
f 134/30/129 190/91/184 146/42/141
f 146/42/141 145/41/140 134/30/129
f 190/91/184 185/85/179 159/55/153
f 159/55/153 146/42/141 190/91/184
f 148/44/143 169/68/163 186/87/180
f 186/87/180 145/41/140 148/44/143
f 194/95/188 170/96/164 188/89/182
f 188/89/182 187/88/181 194/95/188
f 122/18/117 121/17/116 173/73/167
f 173/73/167 191/92/185 122/18/117
f 173/73/167 177/77/171 192/93/186
f 192/93/186 191/92/185 173/73/167
f 195/97/189 196/98/190 106/2/102
f 106/2/102 105/1/101 195/97/189
f 131/27/126 197/99/191 198/100/192
f 198/100/192 110/6/106 131/27/126
f 158/54/152 157/53/115 199/101/15
f 199/101/15 177/77/171 158/54/152
f 144/40/139 166/64/160 200/102/193
f 200/102/193 141/37/136 144/40/139
f 149/45/144 197/99/191 131/27/126
f 131/27/126 130/26/125 149/45/144
f 126/22/121 201/103/137 142/38/137
f 142/38/137 141/37/136 126/22/121
f 130/26/125 129/25/124 176/76/170
f 176/76/170 202/104/194 130/26/125
f 201/103/137 120/16/115 157/53/115
f 157/53/115 142/38/137 201/103/137
f 176/76/170 179/79/173 203/105/195
f 203/105/195 202/104/194 176/76/170
f 162/58/156 204/106/196 205/107/197
f 205/107/197 163/59/157 162/58/156
f 162/58/156 192/93/186 206/108/198
f 206/108/198 204/106/196 162/58/156
f 157/53/115 120/16/115 119/15/15
f 119/15/15 199/101/15 157/53/115
f 141/37/136 200/102/193 127/23/122
f 127/23/122 126/22/121 141/37/136
f 130/26/125 202/104/194 150/46/145
f 150/46/145 149/45/144 130/26/125
f 202/104/194 203/105/195 160/56/154
f 160/56/154 150/46/145 202/104/194
f 204/106/196 184/84/178 183/83/177
f 183/83/177 205/107/197 204/106/196
f 184/84/178 204/106/196 206/108/198
f 206/108/198 193/94/187 184/84/178
f 195/97/189 165/63/159 164/62/158
f 164/62/158 196/98/190 195/97/189
f 197/99/191 168/67/162 172/72/166
f 172/72/166 198/100/192 197/99/191
f 152/48/147 168/67/162 197/99/191
f 197/99/191 149/45/144 152/48/147
f 126/22/121 125/21/120 174/74/168
f 174/74/168 201/103/137 126/22/121
f 174/74/168 117/13/113 120/16/115
f 120/16/115 201/103/137 174/74/168
f 106/2/102 200/102/193 166/64/160
f 166/64/160 107/3/103 106/2/102
f 132/28/127 131/27/126 110/6/106
f 110/6/106 109/5/105 132/28/127
f 186/109/180 169/110/163 115/11/111
f 115/11/111 114/10/110 186/109/180
f 167/111/161 189/90/183 138/34/133
f 138/34/133 137/33/132 167/111/161
f 169/68/163 128/24/123 164/62/158
f 164/62/158 115/61/111 169/68/163
f 140/70/135 132/28/127 109/5/105
f 109/5/105 137/66/132 140/70/135
f 194/112/188 108/4/104 107/3/103
f 107/3/103 170/69/164 194/112/188
f 180/80/174 207/113/199 172/72/166
f 172/72/166 171/71/165 180/80/174
f 136/32/131 135/114/130 181/81/175
f 181/81/175 171/71/165 136/32/131
f 123/115/118 139/35/134 138/34/133
f 138/34/133 188/89/182 123/115/118
f 135/114/130 186/109/180 114/10/110
f 114/10/110 181/81/175 135/114/130
f 124/116/119 123/115/118 188/89/182
f 188/89/182 170/96/164 124/116/119
f 127/23/122 200/102/193 106/2/102
f 106/2/102 196/98/190 127/23/122
f 208/117/200 111/7/107 110/6/106
f 110/6/106 198/100/192 208/117/200
f 128/24/123 127/23/122 196/98/190
f 196/98/190 164/62/158 128/24/123
f 207/113/199 208/117/200 198/100/192
f 198/100/192 172/72/166 207/113/199
f 159/55/153 193/94/187 119/15/15
f 119/15/15 118/14/114 159/55/153
f 193/94/187 206/108/198 199/101/15
f 199/101/15 119/15/15 193/94/187
f 206/108/198 192/93/186 177/77/171
f 177/77/171 199/101/15 206/108/198
f 161/57/155 160/56/154 183/83/177
f 183/83/177 178/78/172 161/57/155
f 160/56/154 203/105/195 205/107/197
f 205/107/197 183/83/177 160/56/154
f 205/107/197 203/105/195 179/79/173
f 179/79/173 163/59/157 205/107/197
f 209/1/201 210/2/202 211/3/203
f 211/3/203 212/4/204 209/1/201
f 213/5/205 214/6/206 215/7/207
f 215/7/207 216/8/208 213/5/205
f 217/9/209 218/10/210 219/11/211
f 219/11/211 220/12/212 217/9/209
f 221/13/213 222/14/214 223/15/15
f 223/15/15 224/16/215 221/13/213
f 225/17/216 226/18/217 227/19/218
f 227/19/218 228/20/219 225/17/216
f 229/21/220 230/22/221 231/23/222
f 231/23/222 232/24/223 229/21/220
f 233/25/224 234/26/225 235/27/226
f 235/27/226 236/28/227 233/25/224
f 237/29/228 238/30/229 239/31/230
f 239/31/230 240/32/231 237/29/228
f 241/33/232 242/34/233 243/35/234
f 243/35/234 244/36/235 241/33/232
f 245/37/236 246/38/237 247/39/238
f 247/39/238 248/40/239 245/37/236
f 249/41/240 250/42/241 251/43/242
f 251/43/242 252/44/243 249/41/240
f 253/45/244 254/46/245 255/47/246
f 255/47/246 256/48/247 253/45/244
f 257/49/248 258/50/249 259/51/250
f 259/51/250 260/52/251 257/49/248
f 247/39/238 246/38/237 261/53/215
f 261/53/215 262/54/252 247/39/238
f 250/42/241 263/55/253 222/14/214
f 222/14/214 251/43/242 250/42/241
f 255/47/246 254/46/245 264/56/254
f 264/56/254 265/57/255 255/47/246
f 258/50/249 266/58/256 267/59/257
f 267/59/257 259/51/250 258/50/249
f 220/60/212 219/61/211 268/62/258
f 268/62/258 269/63/259 220/60/212
f 248/40/239 225/17/216 228/20/219
f 228/20/219 270/64/260 248/40/239
f 271/65/261 241/66/232 213/5/205
f 213/5/205 216/8/208 271/65/261
f 256/48/247 237/29/228 240/32/231
f 240/32/231 272/67/262 256/48/247
f 232/24/223 273/68/263 252/44/243
f 252/44/243 229/21/220 232/24/223
f 228/20/219 274/69/264 211/3/203
f 211/3/203 270/64/260 228/20/219
f 236/28/227 244/70/235 260/52/251
f 260/52/251 233/25/224 236/28/227
f 240/32/231 275/71/265 276/72/266
f 276/72/266 272/67/262 240/32/231
f 225/17/216 248/40/239 247/39/238
f 247/39/238 277/73/267 225/17/216
f 229/21/220 252/44/243 251/43/242
f 251/43/242 278/74/268 229/21/220
f 237/29/228 256/48/247 255/47/246
f 255/47/246 279/75/269 237/29/228
f 233/25/224 260/52/251 259/51/250
f 259/51/250 280/76/270 233/25/224
f 277/73/267 247/39/238 262/54/252
f 262/54/252 281/77/271 277/73/267
f 278/74/268 251/43/242 222/14/214
f 222/14/214 221/13/213 278/74/268
f 279/75/269 255/47/246 265/57/255
f 265/57/255 282/78/272 279/75/269
f 280/76/270 259/51/250 267/59/257
f 267/59/257 283/79/273 280/76/270
f 284/80/274 275/71/265 285/81/275
f 285/81/275 286/82/276 284/80/274
f 282/78/272 287/83/277 288/84/278
f 288/84/278 289/85/279 282/78/272
f 260/52/251 244/70/235 243/86/234
f 243/86/234 257/49/248 260/52/251
f 249/41/240 290/87/280 239/31/230
f 239/31/230 238/30/229 249/41/240
f 291/88/281 292/89/282 242/34/233
f 242/34/233 293/90/283 291/88/281
f 238/30/229 237/29/228 279/75/269
f 279/75/269 294/91/241 238/30/229
f 226/18/217 295/92/284 258/50/249
f 258/50/249 257/49/248 226/18/217
f 279/75/269 282/78/272 289/85/279
f 289/85/279 294/91/241 279/75/269
f 295/92/284 296/93/285 266/58/256
f 266/58/256 258/50/249 295/92/284
f 286/82/276 285/81/275 218/10/210
f 218/10/210 217/9/209 286/82/276
f 289/85/279 288/84/278 297/94/286
f 297/94/286 263/55/253 289/85/279
f 257/49/248 243/86/234 227/19/218
f 227/19/218 226/18/217 257/49/248
f 238/30/229 294/91/241 250/42/241
f 250/42/241 249/41/240 238/30/229
f 294/91/241 289/85/279 263/55/253
f 263/55/253 250/42/241 294/91/241
f 252/44/243 273/68/263 290/87/280
f 290/87/280 249/41/240 252/44/243
f 298/95/287 274/96/264 292/89/282
f 292/89/282 291/88/281 298/95/287
f 226/18/217 225/17/216 277/73/267
f 277/73/267 295/92/284 226/18/217
f 277/73/267 281/77/271 296/93/285
f 296/93/285 295/92/284 277/73/267
f 299/97/288 300/98/289 210/2/202
f 210/2/202 209/1/201 299/97/288
f 235/27/226 301/99/290 302/100/291
f 302/100/291 214/6/206 235/27/226
f 262/54/252 261/53/215 303/101/15
f 303/101/15 281/77/271 262/54/252
f 248/40/239 270/64/260 304/102/292
f 304/102/292 245/37/236 248/40/239
f 253/45/244 301/99/290 235/27/226
f 235/27/226 234/26/225 253/45/244
f 230/22/221 305/103/237 246/38/237
f 246/38/237 245/37/236 230/22/221
f 234/26/225 233/25/224 280/76/270
f 280/76/270 306/104/293 234/26/225
f 305/103/237 224/16/215 261/53/215
f 261/53/215 246/38/237 305/103/237
f 280/76/270 283/79/273 307/105/294
f 307/105/294 306/104/293 280/76/270
f 266/58/256 308/106/295 309/107/296
f 309/107/296 267/59/257 266/58/256
f 266/58/256 296/93/285 310/108/297
f 310/108/297 308/106/295 266/58/256
f 261/53/215 224/16/215 223/15/15
f 223/15/15 303/101/15 261/53/215
f 245/37/236 304/102/292 231/23/222
f 231/23/222 230/22/221 245/37/236
f 234/26/225 306/104/293 254/46/245
f 254/46/245 253/45/244 234/26/225
f 306/104/293 307/105/294 264/56/254
f 264/56/254 254/46/245 306/104/293
f 308/106/295 288/84/278 287/83/277
f 287/83/277 309/107/296 308/106/295
f 288/84/278 308/106/295 310/108/297
f 310/108/297 297/94/286 288/84/278
f 299/97/288 269/63/259 268/62/258
f 268/62/258 300/98/289 299/97/288
f 301/99/290 272/67/262 276/72/266
f 276/72/266 302/100/291 301/99/290
f 256/48/247 272/67/262 301/99/290
f 301/99/290 253/45/244 256/48/247
f 230/22/221 229/21/220 278/74/268
f 278/74/268 305/103/237 230/22/221
f 278/74/268 221/13/213 224/16/215
f 224/16/215 305/103/237 278/74/268
f 210/2/202 304/102/292 270/64/260
f 270/64/260 211/3/203 210/2/202
f 236/28/227 235/27/226 214/6/206
f 214/6/206 213/5/205 236/28/227
f 290/109/280 273/110/263 219/11/211
f 219/11/211 218/10/210 290/109/280
f 271/111/261 293/90/283 242/34/233
f 242/34/233 241/33/232 271/111/261
f 273/68/263 232/24/223 268/62/258
f 268/62/258 219/61/211 273/68/263
f 244/70/235 236/28/227 213/5/205
f 213/5/205 241/66/232 244/70/235
f 298/112/287 212/4/204 211/3/203
f 211/3/203 274/69/264 298/112/287
f 284/80/274 311/113/298 276/72/266
f 276/72/266 275/71/265 284/80/274
f 240/32/231 239/114/230 285/81/275
f 285/81/275 275/71/265 240/32/231
f 227/115/218 243/35/234 242/34/233
f 242/34/233 292/89/282 227/115/218
f 239/114/230 290/109/280 218/10/210
f 218/10/210 285/81/275 239/114/230
f 228/116/219 227/115/218 292/89/282
f 292/89/282 274/96/264 228/116/219
f 231/23/222 304/102/292 210/2/202
f 210/2/202 300/98/289 231/23/222
f 312/117/299 215/7/207 214/6/206
f 214/6/206 302/100/291 312/117/299
f 232/24/223 231/23/222 300/98/289
f 300/98/289 268/62/258 232/24/223
f 311/113/298 312/117/299 302/100/291
f 302/100/291 276/72/266 311/113/298
f 263/55/253 297/94/286 223/15/15
f 223/15/15 222/14/214 263/55/253
f 297/94/286 310/108/297 303/101/15
f 303/101/15 223/15/15 297/94/286
f 310/108/297 296/93/285 281/77/271
f 281/77/271 303/101/15 310/108/297
f 265/57/255 264/56/254 287/83/277
f 287/83/277 282/78/272 265/57/255
f 264/56/254 307/105/294 309/107/296
f 309/107/296 287/83/277 264/56/254
f 309/107/296 307/105/294 283/79/273
f 283/79/273 267/59/257 309/107/296
f 313/1/300 314/2/301 315/3/302
f 315/3/302 316/4/303 313/1/300
f 317/5/304 318/6/305 319/7/306
f 319/7/306 320/8/307 317/5/304
f 321/9/308 322/10/309 323/11/310
f 323/11/310 324/12/311 321/9/308
f 325/13/312 326/14/313 327/15/15
f 327/15/15 328/16/215 325/13/312
f 329/17/314 330/18/315 331/19/316
f 331/19/316 332/20/317 329/17/314
f 333/21/318 334/22/221 335/23/222
f 335/23/222 336/24/319 333/21/318
f 337/25/320 338/26/321 339/27/322
f 339/27/322 340/28/323 337/25/320
f 341/29/324 342/30/325 343/31/326
f 343/31/326 344/32/327 341/29/324
f 345/33/328 346/34/329 347/35/330
f 347/35/330 348/36/331 345/33/328
f 349/37/236 350/38/237 351/39/332
f 351/39/332 352/40/333 349/37/236
f 353/41/334 354/42/335 355/43/336
f 355/43/336 356/44/337 353/41/334
f 357/45/338 358/46/339 359/47/340
f 359/47/340 360/48/341 357/45/338
f 361/49/342 362/50/343 363/51/344
f 363/51/344 364/52/345 361/49/342
f 351/39/332 350/38/237 365/53/215
f 365/53/215 366/54/346 351/39/332
f 354/42/335 367/55/347 326/14/313
f 326/14/313 355/43/336 354/42/335
f 359/47/340 358/46/339 368/56/348
f 368/56/348 369/57/349 359/47/340
f 362/50/343 370/58/350 371/59/351
f 371/59/351 363/51/344 362/50/343
f 324/60/311 323/61/310 372/62/352
f 372/62/352 373/63/353 324/60/311
f 352/40/333 329/17/314 332/20/317
f 332/20/317 374/64/354 352/40/333
f 375/65/355 345/66/328 317/5/304
f 317/5/304 320/8/307 375/65/355
f 360/48/341 341/29/324 344/32/327
f 344/32/327 376/67/356 360/48/341
f 336/24/319 377/68/357 356/44/337
f 356/44/337 333/21/318 336/24/319
f 332/20/317 378/69/358 315/3/302
f 315/3/302 374/64/354 332/20/317
f 340/28/323 348/70/331 364/52/345
f 364/52/345 337/25/320 340/28/323
f 344/32/327 379/71/359 380/72/360
f 380/72/360 376/67/356 344/32/327
f 329/17/314 352/40/333 351/39/332
f 351/39/332 381/73/361 329/17/314
f 333/21/318 356/44/337 355/43/336
f 355/43/336 382/74/362 333/21/318
f 341/29/324 360/48/341 359/47/340
f 359/47/340 383/75/363 341/29/324
f 337/25/320 364/52/345 363/51/344
f 363/51/344 384/76/364 337/25/320
f 381/73/361 351/39/332 366/54/346
f 366/54/346 385/77/365 381/73/361
f 382/74/362 355/43/336 326/14/313
f 326/14/313 325/13/312 382/74/362
f 383/75/363 359/47/340 369/57/349
f 369/57/349 386/78/366 383/75/363
f 384/76/364 363/51/344 371/59/351
f 371/59/351 387/79/367 384/76/364
f 388/80/368 379/71/359 389/81/369
f 389/81/369 390/82/370 388/80/368
f 386/78/366 391/83/371 392/84/372
f 392/84/372 393/85/373 386/78/366
f 364/52/345 348/70/331 347/86/330
f 347/86/330 361/49/342 364/52/345
f 353/41/334 394/87/374 343/31/326
f 343/31/326 342/30/325 353/41/334
f 395/88/375 396/89/376 346/34/329
f 346/34/329 397/90/377 395/88/375
f 342/30/325 341/29/324 383/75/363
f 383/75/363 398/91/335 342/30/325
f 330/18/315 399/92/378 362/50/343
f 362/50/343 361/49/342 330/18/315
f 383/75/363 386/78/366 393/85/373
f 393/85/373 398/91/335 383/75/363
f 399/92/378 400/93/379 370/58/350
f 370/58/350 362/50/343 399/92/378
f 390/82/370 389/81/369 322/10/309
f 322/10/309 321/9/308 390/82/370
f 393/85/373 392/84/372 401/94/380
f 401/94/380 367/55/347 393/85/373
f 361/49/342 347/86/330 331/19/316
f 331/19/316 330/18/315 361/49/342
f 342/30/325 398/91/335 354/42/335
f 354/42/335 353/41/334 342/30/325
f 398/91/335 393/85/373 367/55/347
f 367/55/347 354/42/335 398/91/335
f 356/44/337 377/68/357 394/87/374
f 394/87/374 353/41/334 356/44/337
f 402/95/381 378/96/358 396/89/376
f 396/89/376 395/88/375 402/95/381
f 330/18/315 329/17/314 381/73/361
f 381/73/361 399/92/378 330/18/315
f 381/73/361 385/77/365 400/93/379
f 400/93/379 399/92/378 381/73/361
f 403/97/382 404/98/383 314/2/301
f 314/2/301 313/1/300 403/97/382
f 339/27/322 405/99/384 406/100/385
f 406/100/385 318/6/305 339/27/322
f 366/54/346 365/53/215 407/101/15
f 407/101/15 385/77/365 366/54/346
f 352/40/333 374/64/354 408/102/292
f 408/102/292 349/37/236 352/40/333
f 357/45/338 405/99/384 339/27/322
f 339/27/322 338/26/321 357/45/338
f 334/22/221 409/103/237 350/38/237
f 350/38/237 349/37/236 334/22/221
f 338/26/321 337/25/320 384/76/364
f 384/76/364 410/104/386 338/26/321
f 409/103/237 328/16/215 365/53/215
f 365/53/215 350/38/237 409/103/237
f 384/76/364 387/79/367 411/105/387
f 411/105/387 410/104/386 384/76/364
f 370/58/350 412/106/388 413/107/389
f 413/107/389 371/59/351 370/58/350
f 370/58/350 400/93/379 414/108/390
f 414/108/390 412/106/388 370/58/350
f 365/53/215 328/16/215 327/15/15
f 327/15/15 407/101/15 365/53/215
f 349/37/236 408/102/292 335/23/222
f 335/23/222 334/22/221 349/37/236
f 338/26/321 410/104/386 358/46/339
f 358/46/339 357/45/338 338/26/321
f 410/104/386 411/105/387 368/56/348
f 368/56/348 358/46/339 410/104/386
f 412/106/388 392/84/372 391/83/371
f 391/83/371 413/107/389 412/106/388
f 392/84/372 412/106/388 414/108/390
f 414/108/390 401/94/380 392/84/372
f 403/97/382 373/63/353 372/62/352
f 372/62/352 404/98/383 403/97/382
f 405/99/384 376/67/356 380/72/360
f 380/72/360 406/100/385 405/99/384
f 360/48/341 376/67/356 405/99/384
f 405/99/384 357/45/338 360/48/341
f 334/22/221 333/21/318 382/74/362
f 382/74/362 409/103/237 334/22/221
f 382/74/362 325/13/312 328/16/215
f 328/16/215 409/103/237 382/74/362
f 314/2/301 408/102/292 374/64/354
f 374/64/354 315/3/302 314/2/301
f 340/28/323 339/27/322 318/6/305
f 318/6/305 317/5/304 340/28/323
f 394/109/374 377/110/357 323/11/310
f 323/11/310 322/10/309 394/109/374
f 375/111/355 397/90/377 346/34/329
f 346/34/329 345/33/328 375/111/355
f 377/68/357 336/24/319 372/62/352
f 372/62/352 323/61/310 377/68/357
f 348/70/331 340/28/323 317/5/304
f 317/5/304 345/66/328 348/70/331
f 402/112/381 316/4/303 315/3/302
f 315/3/302 378/69/358 402/112/381
f 388/80/368 415/113/391 380/72/360
f 380/72/360 379/71/359 388/80/368
f 344/32/327 343/114/326 389/81/369
f 389/81/369 379/71/359 344/32/327
f 331/115/316 347/35/330 346/34/329
f 346/34/329 396/89/376 331/115/316
f 343/114/326 394/109/374 322/10/309
f 322/10/309 389/81/369 343/114/326
f 332/116/317 331/115/316 396/89/376
f 396/89/376 378/96/358 332/116/317
f 335/23/222 408/102/292 314/2/301
f 314/2/301 404/98/383 335/23/222
f 416/117/392 319/7/306 318/6/305
f 318/6/305 406/100/385 416/117/392
f 336/24/319 335/23/222 404/98/383
f 404/98/383 372/62/352 336/24/319
f 415/113/391 416/117/392 406/100/385
f 406/100/385 380/72/360 415/113/391
f 367/55/347 401/94/380 327/15/15
f 327/15/15 326/14/313 367/55/347
f 401/94/380 414/108/390 407/101/15
f 407/101/15 327/15/15 401/94/380
f 414/108/390 400/93/379 385/77/365
f 385/77/365 407/101/15 414/108/390
f 369/57/349 368/56/348 391/83/371
f 391/83/371 386/78/366 369/57/349
f 368/56/348 411/105/387 413/107/389
f 413/107/389 391/83/371 368/56/348
f 413/107/389 411/105/387 387/79/367
f 387/79/367 371/59/351 413/107/389
f 417/1/393 418/2/394 419/3/395
f 419/3/395 420/4/396 417/1/393
f 421/5/397 422/6/398 423/7/399
f 423/7/399 424/8/400 421/5/397
f 425/9/401 426/10/402 427/11/403
f 427/11/403 428/12/404 425/9/401
f 429/13/405 430/14/406 431/15/15
f 431/15/15 432/16/407 429/13/405
f 433/17/408 434/18/409 435/19/410
f 435/19/410 436/20/411 433/17/408
f 437/21/412 438/22/413 439/23/414
f 439/23/414 440/24/415 437/21/412
f 441/25/416 442/26/417 443/27/418
f 443/27/418 444/28/419 441/25/416
f 445/29/420 446/30/421 447/31/422
f 447/31/422 448/32/423 445/29/420
f 449/33/424 450/34/425 451/35/426
f 451/35/426 452/36/427 449/33/424
f 453/37/428 454/38/429 455/39/430
f 455/39/430 456/40/431 453/37/428
f 457/41/432 458/42/433 459/43/434
f 459/43/434 460/44/435 457/41/432
f 461/45/436 462/46/437 463/47/438
f 463/47/438 464/48/439 461/45/436
f 465/49/440 466/50/441 467/51/442
f 467/51/442 468/52/443 465/49/440
f 455/39/430 454/38/429 469/53/407
f 469/53/407 470/54/444 455/39/430
f 458/42/433 471/55/445 430/14/406
f 430/14/406 459/43/434 458/42/433
f 463/47/438 462/46/437 472/56/446
f 472/56/446 473/57/447 463/47/438
f 466/50/441 474/58/448 475/59/449
f 475/59/449 467/51/442 466/50/441
f 428/60/404 427/61/403 476/62/450
f 476/62/450 477/63/451 428/60/404
f 456/40/431 433/17/408 436/20/411
f 436/20/411 478/64/452 456/40/431
f 479/65/453 449/66/424 421/5/397
f 421/5/397 424/8/400 479/65/453
f 464/48/439 445/29/420 448/32/423
f 448/32/423 480/67/454 464/48/439
f 440/24/415 481/68/455 460/44/435
f 460/44/435 437/21/412 440/24/415
f 436/20/411 482/69/456 419/3/395
f 419/3/395 478/64/452 436/20/411
f 444/28/419 452/70/427 468/52/443
f 468/52/443 441/25/416 444/28/419
f 448/32/423 483/71/457 484/72/458
f 484/72/458 480/67/454 448/32/423
f 433/17/408 456/40/431 455/39/430
f 455/39/430 485/73/459 433/17/408
f 437/21/412 460/44/435 459/43/434
f 459/43/434 486/74/460 437/21/412
f 445/29/420 464/48/439 463/47/438
f 463/47/438 487/75/461 445/29/420
f 441/25/416 468/52/443 467/51/442
f 467/51/442 488/76/462 441/25/416
f 485/73/459 455/39/430 470/54/444
f 470/54/444 489/77/463 485/73/459
f 486/74/460 459/43/434 430/14/406
f 430/14/406 429/13/405 486/74/460
f 487/75/461 463/47/438 473/57/447
f 473/57/447 490/78/464 487/75/461
f 488/76/462 467/51/442 475/59/449
f 475/59/449 491/79/465 488/76/462
f 492/80/466 483/71/457 493/81/467
f 493/81/467 494/82/468 492/80/466
f 490/78/464 495/83/469 496/84/470
f 496/84/470 497/85/471 490/78/464
f 468/52/443 452/70/427 451/86/426
f 451/86/426 465/49/440 468/52/443
f 457/41/432 498/87/472 447/31/422
f 447/31/422 446/30/421 457/41/432
f 499/88/473 500/89/474 450/34/425
f 450/34/425 501/90/475 499/88/473
f 446/30/421 445/29/420 487/75/461
f 487/75/461 502/91/433 446/30/421
f 434/18/409 503/92/476 466/50/441
f 466/50/441 465/49/440 434/18/409
f 487/75/461 490/78/464 497/85/471
f 497/85/471 502/91/433 487/75/461
f 503/92/476 504/93/477 474/58/448
f 474/58/448 466/50/441 503/92/476
f 494/82/468 493/81/467 426/10/402
f 426/10/402 425/9/401 494/82/468
f 497/85/471 496/84/470 505/94/478
f 505/94/478 471/55/445 497/85/471
f 465/49/440 451/86/426 435/19/410
f 435/19/410 434/18/409 465/49/440
f 446/30/421 502/91/433 458/42/433
f 458/42/433 457/41/432 446/30/421
f 502/91/433 497/85/471 471/55/445
f 471/55/445 458/42/433 502/91/433
f 460/44/435 481/68/455 498/87/472
f 498/87/472 457/41/432 460/44/435
f 506/95/479 482/96/456 500/89/474
f 500/89/474 499/88/473 506/95/479
f 434/18/409 433/17/408 485/73/459
f 485/73/459 503/92/476 434/18/409
f 485/73/459 489/77/463 504/93/477
f 504/93/477 503/92/476 485/73/459
f 507/97/480 508/98/481 418/2/394
f 418/2/394 417/1/393 507/97/480
f 443/27/418 509/99/482 510/100/483
f 510/100/483 422/6/398 443/27/418
f 470/54/444 469/53/407 511/101/15
f 511/101/15 489/77/463 470/54/444
f 456/40/431 478/64/452 512/102/484
f 512/102/484 453/37/428 456/40/431
f 461/45/436 509/99/482 443/27/418
f 443/27/418 442/26/417 461/45/436
f 438/22/413 513/103/429 454/38/429
f 454/38/429 453/37/428 438/22/413
f 442/26/417 441/25/416 488/76/462
f 488/76/462 514/104/485 442/26/417
f 513/103/429 432/16/407 469/53/407
f 469/53/407 454/38/429 513/103/429
f 488/76/462 491/79/465 515/105/486
f 515/105/486 514/104/485 488/76/462
f 474/58/448 516/106/487 517/107/488
f 517/107/488 475/59/449 474/58/448
f 474/58/448 504/93/477 518/108/489
f 518/108/489 516/106/487 474/58/448
f 469/53/407 432/16/407 431/15/15
f 431/15/15 511/101/15 469/53/407
f 453/37/428 512/102/484 439/23/414
f 439/23/414 438/22/413 453/37/428
f 442/26/417 514/104/485 462/46/437
f 462/46/437 461/45/436 442/26/417
f 514/104/485 515/105/486 472/56/446
f 472/56/446 462/46/437 514/104/485
f 516/106/487 496/84/470 495/83/469
f 495/83/469 517/107/488 516/106/487
f 496/84/470 516/106/487 518/108/489
f 518/108/489 505/94/478 496/84/470
f 507/97/480 477/63/451 476/62/450
f 476/62/450 508/98/481 507/97/480
f 509/99/482 480/67/454 484/72/458
f 484/72/458 510/100/483 509/99/482
f 464/48/439 480/67/454 509/99/482
f 509/99/482 461/45/436 464/48/439
f 438/22/413 437/21/412 486/74/460
f 486/74/460 513/103/429 438/22/413
f 486/74/460 429/13/405 432/16/407
f 432/16/407 513/103/429 486/74/460
f 418/2/394 512/102/484 478/64/452
f 478/64/452 419/3/395 418/2/394
f 444/28/419 443/27/418 422/6/398
f 422/6/398 421/5/397 444/28/419
f 498/109/472 481/110/455 427/11/403
f 427/11/403 426/10/402 498/109/472
f 479/111/453 501/90/475 450/34/425
f 450/34/425 449/33/424 479/111/453
f 481/68/455 440/24/415 476/62/450
f 476/62/450 427/61/403 481/68/455
f 452/70/427 444/28/419 421/5/397
f 421/5/397 449/66/424 452/70/427
f 506/112/479 420/4/396 419/3/395
f 419/3/395 482/69/456 506/112/479
f 492/80/466 519/113/490 484/72/458
f 484/72/458 483/71/457 492/80/466
f 448/32/423 447/114/422 493/81/467
f 493/81/467 483/71/457 448/32/423
f 435/115/410 451/35/426 450/34/425
f 450/34/425 500/89/474 435/115/410
f 447/114/422 498/109/472 426/10/402
f 426/10/402 493/81/467 447/114/422
f 436/116/411 435/115/410 500/89/474
f 500/89/474 482/96/456 436/116/411
f 439/23/414 512/102/484 418/2/394
f 418/2/394 508/98/481 439/23/414
f 520/117/491 423/7/399 422/6/398
f 422/6/398 510/100/483 520/117/491
f 440/24/415 439/23/414 508/98/481
f 508/98/481 476/62/450 440/24/415
f 519/113/490 520/117/491 510/100/483
f 510/100/483 484/72/458 519/113/490
f 471/55/445 505/94/478 431/15/15
f 431/15/15 430/14/406 471/55/445
f 505/94/478 518/108/489 511/101/15
f 511/101/15 431/15/15 505/94/478
f 518/108/489 504/93/477 489/77/463
f 489/77/463 511/101/15 518/108/489
f 473/57/447 472/56/446 495/83/469
f 495/83/469 490/78/464 473/57/447
f 472/56/446 515/105/486 517/107/488
f 517/107/488 495/83/469 472/56/446
f 517/107/488 515/105/486 491/79/465
f 491/79/465 475/59/449 517/107/488
f 521/1/492 522/2/493 523/3/494
f 523/3/494 524/4/495 521/1/492
f 525/5/496 526/6/497 527/7/306
f 527/7/306 528/8/498 525/5/496
f 529/9/308 530/10/309 531/11/499
f 531/11/499 532/12/500 529/9/308
f 533/13/501 534/14/502 535/15/15
f 535/15/15 536/16/215 533/13/501
f 537/17/503 538/18/504 539/19/505
f 539/19/505 540/20/506 537/17/503
f 541/21/507 542/22/221 543/23/222
f 543/23/222 544/24/508 541/21/507
f 545/25/509 546/26/321 547/27/322
f 547/27/322 548/28/510 545/25/509
f 549/29/511 550/30/512 551/31/513
f 551/31/513 552/32/514 549/29/511
f 553/33/515 554/34/329 555/35/516
f 555/35/516 556/36/517 553/33/515
f 557/37/236 558/38/237 559/39/518
f 559/39/518 560/40/519 557/37/236
f 561/41/520 562/42/521 563/43/522
f 563/43/522 564/44/523 561/41/520
f 565/45/524 566/46/525 567/47/526
f 567/47/526 568/48/527 565/45/524
f 569/49/528 570/50/529 571/51/530
f 571/51/530 572/52/531 569/49/528
f 559/39/518 558/38/237 573/53/215
f 573/53/215 574/54/532 559/39/518
f 562/42/521 575/55/533 534/14/502
f 534/14/502 563/43/522 562/42/521
f 567/47/526 566/46/525 576/56/534
f 576/56/534 577/57/535 567/47/526
f 570/50/529 578/58/536 579/59/537
f 579/59/537 571/51/530 570/50/529
f 532/60/500 531/61/499 580/62/538
f 580/62/538 581/63/539 532/60/500
f 560/40/519 537/17/503 540/20/506
f 540/20/506 582/64/540 560/40/519
f 583/65/541 553/66/515 525/5/496
f 525/5/496 528/8/498 583/65/541
f 568/48/527 549/29/511 552/32/514
f 552/32/514 584/67/542 568/48/527
f 544/24/508 585/68/543 564/44/523
f 564/44/523 541/21/507 544/24/508
f 540/20/506 586/69/544 523/3/494
f 523/3/494 582/64/540 540/20/506
f 548/28/510 556/70/517 572/52/531
f 572/52/531 545/25/509 548/28/510
f 552/32/514 587/71/545 588/72/546
f 588/72/546 584/67/542 552/32/514
f 537/17/503 560/40/519 559/39/518
f 559/39/518 589/73/547 537/17/503
f 541/21/507 564/44/523 563/43/522
f 563/43/522 590/74/548 541/21/507
f 549/29/511 568/48/527 567/47/526
f 567/47/526 591/75/549 549/29/511
f 545/25/509 572/52/531 571/51/530
f 571/51/530 592/76/550 545/25/509
f 589/73/547 559/39/518 574/54/532
f 574/54/532 593/77/551 589/73/547
f 590/74/548 563/43/522 534/14/502
f 534/14/502 533/13/501 590/74/548
f 591/75/549 567/47/526 577/57/535
f 577/57/535 594/78/552 591/75/549
f 592/76/550 571/51/530 579/59/537
f 579/59/537 595/79/553 592/76/550
f 596/80/554 587/71/545 597/81/369
f 597/81/369 598/82/370 596/80/554
f 594/78/552 599/83/555 600/84/556
f 600/84/556 601/85/557 594/78/552
f 572/52/531 556/70/517 555/86/516
f 555/86/516 569/49/528 572/52/531
f 561/41/520 602/87/558 551/31/513
f 551/31/513 550/30/512 561/41/520
f 603/88/559 604/89/376 554/34/329
f 554/34/329 605/90/377 603/88/559
f 550/30/512 549/29/511 591/75/549
f 591/75/549 606/91/521 550/30/512
f 538/18/504 607/92/560 570/50/529
f 570/50/529 569/49/528 538/18/504
f 591/75/549 594/78/552 601/85/557
f 601/85/557 606/91/521 591/75/549
f 607/92/560 608/93/561 578/58/536
f 578/58/536 570/50/529 607/92/560
f 598/82/370 597/81/369 530/10/309
f 530/10/309 529/9/308 598/82/370
f 601/85/557 600/84/556 609/94/380
f 609/94/380 575/55/533 601/85/557
f 569/49/528 555/86/516 539/19/505
f 539/19/505 538/18/504 569/49/528
f 550/30/512 606/91/521 562/42/521
f 562/42/521 561/41/520 550/30/512
f 606/91/521 601/85/557 575/55/533
f 575/55/533 562/42/521 606/91/521
f 564/44/523 585/68/543 602/87/558
f 602/87/558 561/41/520 564/44/523
f 610/95/562 586/96/544 604/89/376
f 604/89/376 603/88/559 610/95/562
f 538/18/504 537/17/503 589/73/547
f 589/73/547 607/92/560 538/18/504
f 589/73/547 593/77/551 608/93/561
f 608/93/561 607/92/560 589/73/547
f 611/97/382 612/98/383 522/2/493
f 522/2/493 521/1/492 611/97/382
f 547/27/322 613/99/384 614/100/385
f 614/100/385 526/6/497 547/27/322
f 574/54/532 573/53/215 615/101/15
f 615/101/15 593/77/551 574/54/532
f 560/40/519 582/64/540 616/102/292
f 616/102/292 557/37/236 560/40/519
f 565/45/524 613/99/384 547/27/322
f 547/27/322 546/26/321 565/45/524
f 542/22/221 617/103/237 558/38/237
f 558/38/237 557/37/236 542/22/221
f 546/26/321 545/25/509 592/76/550
f 592/76/550 618/104/386 546/26/321
f 617/103/237 536/16/215 573/53/215
f 573/53/215 558/38/237 617/103/237
f 592/76/550 595/79/553 619/105/387
f 619/105/387 618/104/386 592/76/550
f 578/58/536 620/106/388 621/107/563
f 621/107/563 579/59/537 578/58/536
f 578/58/536 608/93/561 622/108/390
f 622/108/390 620/106/388 578/58/536
f 573/53/215 536/16/215 535/15/15
f 535/15/15 615/101/15 573/53/215
f 557/37/236 616/102/292 543/23/222
f 543/23/222 542/22/221 557/37/236
f 546/26/321 618/104/386 566/46/525
f 566/46/525 565/45/524 546/26/321
f 618/104/386 619/105/387 576/56/534
f 576/56/534 566/46/525 618/104/386
f 620/106/388 600/84/556 599/83/555
f 599/83/555 621/107/563 620/106/388
f 600/84/556 620/106/388 622/108/390
f 622/108/390 609/94/380 600/84/556
f 611/97/382 581/63/539 580/62/538
f 580/62/538 612/98/383 611/97/382
f 613/99/384 584/67/542 588/72/546
f 588/72/546 614/100/385 613/99/384
f 568/48/527 584/67/542 613/99/384
f 613/99/384 565/45/524 568/48/527
f 542/22/221 541/21/507 590/74/548
f 590/74/548 617/103/237 542/22/221
f 590/74/548 533/13/501 536/16/215
f 536/16/215 617/103/237 590/74/548
f 522/2/493 616/102/292 582/64/540
f 582/64/540 523/3/494 522/2/493
f 548/28/510 547/27/322 526/6/497
f 526/6/497 525/5/496 548/28/510
f 602/109/558 585/110/543 531/11/499
f 531/11/499 530/10/309 602/109/558
f 583/111/541 605/90/377 554/34/329
f 554/34/329 553/33/515 583/111/541
f 585/68/543 544/24/508 580/62/538
f 580/62/538 531/61/499 585/68/543
f 556/70/517 548/28/510 525/5/496
f 525/5/496 553/66/515 556/70/517
f 610/112/562 524/4/495 523/3/494
f 523/3/494 586/69/544 610/112/562
f 596/80/554 623/113/564 588/72/546
f 588/72/546 587/71/545 596/80/554
f 552/32/514 551/114/513 597/81/369
f 597/81/369 587/71/545 552/32/514
f 539/115/505 555/35/516 554/34/329
f 554/34/329 604/89/376 539/115/505
f 551/114/513 602/109/558 530/10/309
f 530/10/309 597/81/369 551/114/513
f 540/116/506 539/115/505 604/89/376
f 604/89/376 586/96/544 540/116/506
f 543/23/222 616/102/292 522/2/493
f 522/2/493 612/98/383 543/23/222
f 624/117/565 527/7/306 526/6/497
f 526/6/497 614/100/385 624/117/565
f 544/24/508 543/23/222 612/98/383
f 612/98/383 580/62/538 544/24/508
f 623/113/564 624/117/565 614/100/385
f 614/100/385 588/72/546 623/113/564
f 575/55/533 609/94/380 535/15/15
f 535/15/15 534/14/502 575/55/533
f 609/94/380 622/108/390 615/101/15
f 615/101/15 535/15/15 609/94/380
f 622/108/390 608/93/561 593/77/551
f 593/77/551 615/101/15 622/108/390
f 577/57/535 576/56/534 599/83/555
f 599/83/555 594/78/552 577/57/535
f 576/56/534 619/105/387 621/107/563
f 621/107/563 599/83/555 576/56/534
f 621/107/563 619/105/387 595/79/553
f 595/79/553 579/59/537 621/107/563
f 625/1/566 626/2/567 627/3/568
f 627/3/568 628/4/569 625/1/566
f 629/5/570 630/6/571 631/7/572
f 631/7/572 632/8/573 629/5/570
f 633/9/574 634/10/575 635/11/576
f 635/11/576 636/12/577 633/9/574
f 637/13/578 638/14/579 639/15/15
f 639/15/15 640/16/407 637/13/578
f 641/17/580 642/18/581 643/19/582
f 643/19/582 644/20/583 641/17/580
f 645/21/584 646/22/413 647/23/585
f 647/23/585 648/24/586 645/21/584
f 649/25/587 650/26/588 651/27/589
f 651/27/589 652/28/590 649/25/587
f 653/29/591 654/30/592 655/31/593
f 655/31/593 656/32/594 653/29/591
f 657/33/595 658/34/596 659/35/597
f 659/35/597 660/36/598 657/33/595
f 661/37/428 662/38/429 663/39/599
f 663/39/599 664/40/600 661/37/428
f 665/41/601 666/42/602 667/43/603
f 667/43/603 668/44/604 665/41/601
f 669/45/605 670/46/606 671/47/607
f 671/47/607 672/48/608 669/45/605
f 673/49/609 674/50/610 675/51/611
f 675/51/611 676/52/612 673/49/609
f 663/39/599 662/38/429 677/53/407
f 677/53/407 678/54/613 663/39/599
f 666/42/602 679/55/614 638/14/579
f 638/14/579 667/43/603 666/42/602
f 671/47/607 670/46/606 680/56/615
f 680/56/615 681/57/616 671/47/607
f 674/50/610 682/58/617 683/59/618
f 683/59/618 675/51/611 674/50/610
f 636/60/577 635/61/576 684/62/619
f 684/62/619 685/63/620 636/60/577
f 664/40/600 641/17/580 644/20/583
f 644/20/583 686/64/621 664/40/600
f 687/65/622 657/66/595 629/5/570
f 629/5/570 632/8/573 687/65/622
f 672/48/608 653/29/591 656/32/594
f 656/32/594 688/67/623 672/48/608
f 648/24/586 689/68/624 668/44/604
f 668/44/604 645/21/584 648/24/586
f 644/20/583 690/69/625 627/3/568
f 627/3/568 686/64/621 644/20/583
f 652/28/590 660/70/598 676/52/612
f 676/52/612 649/25/587 652/28/590
f 656/32/594 691/71/626 692/72/627
f 692/72/627 688/67/623 656/32/594
f 641/17/580 664/40/600 663/39/599
f 663/39/599 693/73/628 641/17/580
f 645/21/584 668/44/604 667/43/603
f 667/43/603 694/74/629 645/21/584
f 653/29/591 672/48/608 671/47/607
f 671/47/607 695/75/630 653/29/591
f 649/25/587 676/52/612 675/51/611
f 675/51/611 696/76/631 649/25/587
f 693/73/628 663/39/599 678/54/613
f 678/54/613 697/77/632 693/73/628
f 694/74/629 667/43/603 638/14/579
f 638/14/579 637/13/578 694/74/629
f 695/75/630 671/47/607 681/57/616
f 681/57/616 698/78/633 695/75/630
f 696/76/631 675/51/611 683/59/618
f 683/59/618 699/79/634 696/76/631
f 700/80/635 691/71/626 701/81/636
f 701/81/636 702/82/637 700/80/635
f 698/78/633 703/83/638 704/84/639
f 704/84/639 705/85/640 698/78/633
f 676/52/612 660/70/598 659/86/597
f 659/86/597 673/49/609 676/52/612
f 665/41/601 706/87/641 655/31/593
f 655/31/593 654/30/592 665/41/601
f 707/88/642 708/89/643 658/34/596
f 658/34/596 709/90/644 707/88/642
f 654/30/592 653/29/591 695/75/630
f 695/75/630 710/91/602 654/30/592
f 642/18/581 711/92/645 674/50/610
f 674/50/610 673/49/609 642/18/581
f 695/75/630 698/78/633 705/85/640
f 705/85/640 710/91/602 695/75/630
f 711/92/645 712/93/646 682/58/617
f 682/58/617 674/50/610 711/92/645
f 702/82/637 701/81/636 634/10/575
f 634/10/575 633/9/574 702/82/637
f 705/85/640 704/84/639 713/94/478
f 713/94/478 679/55/614 705/85/640
f 673/49/609 659/86/597 643/19/582
f 643/19/582 642/18/581 673/49/609
f 654/30/592 710/91/602 666/42/602
f 666/42/602 665/41/601 654/30/592
f 710/91/602 705/85/640 679/55/614
f 679/55/614 666/42/602 710/91/602
f 668/44/604 689/68/624 706/87/641
f 706/87/641 665/41/601 668/44/604
f 714/95/647 690/96/625 708/89/643
f 708/89/643 707/88/642 714/95/647
f 642/18/581 641/17/580 693/73/628
f 693/73/628 711/92/645 642/18/581
f 693/73/628 697/77/632 712/93/646
f 712/93/646 711/92/645 693/73/628
f 715/97/648 716/98/649 626/2/567
f 626/2/567 625/1/566 715/97/648
f 651/27/589 717/99/650 718/100/651
f 718/100/651 630/6/571 651/27/589
f 678/54/613 677/53/407 719/101/15
f 719/101/15 697/77/632 678/54/613
f 664/40/600 686/64/621 720/102/484
f 720/102/484 661/37/428 664/40/600
f 669/45/605 717/99/650 651/27/589
f 651/27/589 650/26/588 669/45/605
f 646/22/413 721/103/429 662/38/429
f 662/38/429 661/37/428 646/22/413
f 650/26/588 649/25/587 696/76/631
f 696/76/631 722/104/652 650/26/588
f 721/103/429 640/16/407 677/53/407
f 677/53/407 662/38/429 721/103/429
f 696/76/631 699/79/634 723/105/653
f 723/105/653 722/104/652 696/76/631
f 682/58/617 724/106/654 725/107/655
f 725/107/655 683/59/618 682/58/617
f 682/58/617 712/93/646 726/108/656
f 726/108/656 724/106/654 682/58/617
f 677/53/407 640/16/407 639/15/15
f 639/15/15 719/101/15 677/53/407
f 661/37/428 720/102/484 647/23/585
f 647/23/585 646/22/413 661/37/428
f 650/26/588 722/104/652 670/46/606
f 670/46/606 669/45/605 650/26/588
f 722/104/652 723/105/653 680/56/615
f 680/56/615 670/46/606 722/104/652
f 724/106/654 704/84/639 703/83/638
f 703/83/638 725/107/655 724/106/654
f 704/84/639 724/106/654 726/108/656
f 726/108/656 713/94/478 704/84/639
f 715/97/648 685/63/620 684/62/619
f 684/62/619 716/98/649 715/97/648
f 717/99/650 688/67/623 692/72/627
f 692/72/627 718/100/651 717/99/650
f 672/48/608 688/67/623 717/99/650
f 717/99/650 669/45/605 672/48/608
f 646/22/413 645/21/584 694/74/629
f 694/74/629 721/103/429 646/22/413
f 694/74/629 637/13/578 640/16/407
f 640/16/407 721/103/429 694/74/629
f 626/2/567 720/102/484 686/64/621
f 686/64/621 627/3/568 626/2/567
f 652/28/590 651/27/589 630/6/571
f 630/6/571 629/5/570 652/28/590
f 706/109/641 689/110/624 635/11/576
f 635/11/576 634/10/575 706/109/641
f 687/111/622 709/90/644 658/34/596
f 658/34/596 657/33/595 687/111/622
f 689/68/624 648/24/586 684/62/619
f 684/62/619 635/61/576 689/68/624
f 660/70/598 652/28/590 629/5/570
f 629/5/570 657/66/595 660/70/598
f 714/112/647 628/4/569 627/3/568
f 627/3/568 690/69/625 714/112/647
f 700/80/635 727/113/657 692/72/627
f 692/72/627 691/71/626 700/80/635
f 656/32/594 655/114/593 701/81/636
f 701/81/636 691/71/626 656/32/594
f 643/115/582 659/35/597 658/34/596
f 658/34/596 708/89/643 643/115/582
f 655/114/593 706/109/641 634/10/575
f 634/10/575 701/81/636 655/114/593
f 644/116/583 643/115/582 708/89/643
f 708/89/643 690/96/625 644/116/583
f 647/23/585 720/102/484 626/2/567
f 626/2/567 716/98/649 647/23/585
f 728/117/658 631/7/572 630/6/571
f 630/6/571 718/100/651 728/117/658
f 648/24/586 647/23/585 716/98/649
f 716/98/649 684/62/619 648/24/586
f 727/113/657 728/117/658 718/100/651
f 718/100/651 692/72/627 727/113/657
f 679/55/614 713/94/478 639/15/15
f 639/15/15 638/14/579 679/55/614
f 713/94/478 726/108/656 719/101/15
f 719/101/15 639/15/15 713/94/478
f 726/108/656 712/93/646 697/77/632
f 697/77/632 719/101/15 726/108/656
f 681/57/616 680/56/615 703/83/638
f 703/83/638 698/78/633 681/57/616
f 680/56/615 723/105/653 725/107/655
f 725/107/655 703/83/638 680/56/615
f 725/107/655 723/105/653 699/79/634
f 699/79/634 683/59/618 725/107/655
