# Blender 4.5.0
# www.blender.org
g medium_wall.xml.387_Mesh
v 241.380829 -42.549320 102.745789
v 240.972809 -39.063946 102.769180
v 241.067291 -39.063946 103.270615
v 241.256897 -42.549320 103.359451
v 236.858734 -39.063946 103.213943
v 236.768097 -39.063946 102.777618
v 236.669128 -42.549320 102.897583
v 236.669128 -42.549320 103.359451
v 240.256165 -42.549320 92.837753
v 239.993500 -39.063946 92.919250
v 240.915344 -39.063950 92.938705
v 241.104980 -42.549320 92.876663
v 240.296143 -35.618832 93.413757
v 240.155914 -35.618832 93.366791
v 240.155914 -35.618832 93.690826
v 240.296143 -35.618832 93.690109
v 240.587433 -35.452785 103.213348
v 239.730804 -35.452785 103.213348
v 239.730804 -35.578571 103.283264
v 240.725677 -35.578571 103.283264
v 240.739716 -35.452785 93.238770
v 240.739716 -35.452785 93.639999
v 240.877716 -35.578571 93.639282
v 240.877716 -35.578571 93.170288
v 237.186340 -35.452785 103.113312
v 237.186340 -35.452785 102.657669
v 237.048340 -35.578571 102.657669
v 237.048340 -35.578571 103.181793
v 237.338593 -35.452785 93.138718
v 238.195587 -35.452785 93.138718
v 238.195587 -35.578571 93.068802
v 237.200348 -35.578571 93.068802
v 237.148315 -39.063946 103.379333
v 237.932922 -39.063946 103.379333
v 238.928619 -35.627796 103.283264
v 237.200348 -35.578571 103.283264
v 240.739716 -35.452785 102.657669
v 240.438751 -35.397266 102.657669
v 240.438751 -35.397266 102.974075
v 240.739716 -35.452785 103.113312
v 239.730804 -35.452785 93.138718
v 239.730804 -35.397266 93.291214
v 240.286560 -35.397266 93.291214
v 240.587433 -35.452785 93.138718
v 237.186340 -35.471283 93.663498
v 237.487305 -35.415768 93.661926
v 237.487305 -35.397266 93.377991
v 237.186340 -35.452785 93.238770
v 238.928619 -35.502010 103.213348
v 238.928619 -35.446491 103.060852
v 237.639465 -35.397266 103.060852
v 237.338593 -35.452785 103.213348
v 240.296143 -35.618832 102.611221
v 240.296143 -35.618832 102.936340
v 239.642822 -35.618832 93.366791
v 237.646881 -35.637329 93.708908
v 237.646881 -35.618832 93.413757
v 238.977020 -35.668056 102.983307
v 237.787109 -35.618832 102.983307
v 241.067291 -39.063950 93.047424
v 241.256897 -42.549320 92.992615
v 240.877716 -35.578571 103.181793
v 237.121521 -42.549320 103.517838
v 237.048340 -35.578571 93.170288
v 240.725677 -35.578571 93.068802
v 240.915344 -39.063946 103.379333
v 237.010712 -39.063946 92.938705
v 236.858734 -39.063946 93.047424
v 240.286560 -35.397266 103.060852
v 240.438751 -35.397266 93.377991
v 237.639465 -35.397266 93.291214
v 237.487305 -35.397266 102.974075
v 240.155914 -35.618832 102.983307
v 237.787109 -35.618832 93.366791
v 237.646881 -35.618832 102.936340
v 236.821075 -42.549320 92.876663
v 237.932922 -39.063946 92.938705
v 237.670258 -42.549320 92.876663
v 237.786438 -35.637329 93.708176
v 238.300537 -35.637329 93.705505
v 238.300537 -35.618832 93.366791
v 239.730804 -35.578571 93.068802
v 240.256165 -42.549320 103.510651
v 239.993469 -39.063946 103.379333
v 237.670258 -42.549320 103.475403
v 238.195587 -35.397266 93.291214
v 239.730804 -35.397266 103.060852
v 239.642822 -35.618832 102.983307
v 239.642822 -35.618832 93.693497
v 241.104980 -42.549320 103.475403
v 241.256897 -42.549320 93.391724
v 241.067291 -39.063950 93.515503
v 237.048340 -35.597073 93.664215
v 236.904144 -39.063946 93.845520
v 240.155914 -35.618832 102.611221
v 240.877716 -35.578571 102.657669
v 240.438751 -35.397266 93.641556
v 237.487305 -35.397266 102.657669
v 237.646881 -35.618832 102.611221
v 238.977020 -35.668056 102.611221
v 237.786926 -35.624012 102.611221
v 239.642822 -35.618832 102.611221
v 236.669128 -42.549320 93.061874
v 236.759918 -42.549320 94.026825
v 241.380829 -42.549419 118.388992
v 240.972809 -39.064045 118.409882
v 241.067291 -39.064045 118.858093
v 241.256897 -42.549419 118.937500
v 236.858734 -39.064045 118.807434
v 236.768097 -39.064045 118.417435
v 236.669128 -42.549419 118.524658
v 236.669128 -42.549419 118.937500
v 240.256165 -42.549419 109.532928
v 239.993500 -39.064045 109.605774
v 240.915344 -39.064049 109.623154
v 241.104980 -42.549419 109.567703
v 240.296143 -35.618931 110.047775
v 240.155914 -35.618931 110.005798
v 240.155914 -35.618931 110.295425
v 240.296143 -35.618931 110.294785
v 240.587433 -35.452885 118.806900
v 239.730804 -35.452885 118.806900
v 239.730804 -35.578671 118.869400
v 240.725677 -35.578671 118.869400
v 240.739716 -35.452885 109.891357
v 240.739716 -35.452885 110.249985
v 240.877716 -35.578671 110.249344
v 240.877716 -35.578671 109.830154
v 237.186340 -35.452885 118.717484
v 237.186340 -35.452885 118.310211
v 237.048340 -35.578671 118.310211
v 237.048340 -35.578671 118.778687
v 237.338593 -35.452885 109.801941
v 238.195587 -35.452885 109.801941
v 238.195587 -35.578671 109.739441
v 237.200348 -35.578671 109.739441
v 237.148315 -39.064045 118.955261
v 237.932922 -39.064045 118.955261
v 238.928619 -35.627895 118.869400
v 237.200348 -35.578671 118.869400
v 240.739716 -35.452885 118.310211
v 240.438751 -35.397366 118.310211
v 240.438751 -35.397366 118.593033
v 240.739716 -35.452885 118.717484
v 239.730804 -35.452885 109.801941
v 239.730804 -35.397366 109.938248
v 240.286560 -35.397366 109.938248
v 240.587433 -35.452885 109.801941
v 237.186340 -35.471382 110.270996
v 237.487305 -35.415867 110.269592
v 237.487305 -35.397366 110.015808
v 237.186340 -35.452885 109.891357
v 238.928619 -35.502110 118.806900
v 238.928619 -35.446590 118.670593
v 237.639465 -35.397366 118.670593
v 237.338593 -35.452885 118.806900
v 240.296143 -35.618931 118.268707
v 240.296143 -35.618931 118.559311
v 239.642822 -35.618931 110.005798
v 237.646881 -35.637428 110.311584
v 237.646881 -35.618931 110.047775
v 238.977020 -35.668156 118.601288
v 237.787109 -35.618931 118.601288
v 241.067291 -39.064049 109.720337
v 241.256897 -42.549419 109.671341
v 240.877716 -35.578671 118.778687
v 237.121521 -42.549419 119.079071
v 237.048340 -35.578671 109.830154
v 240.725677 -35.578671 109.739441
v 240.915344 -39.064045 118.955261
v 237.010712 -39.064045 109.623154
v 236.858734 -39.064045 109.720337
v 240.286560 -35.397366 118.670593
v 240.438751 -35.397366 110.015808
v 237.639465 -35.397366 109.938248
v 237.487305 -35.397366 118.593033
v 240.155914 -35.618931 118.601288
v 237.787109 -35.618931 110.005798
v 237.646881 -35.618931 118.559311
v 236.821075 -42.549419 109.567703
v 237.932922 -39.064045 109.623154
v 237.670258 -42.549419 109.567703
v 237.786438 -35.637428 110.310928
v 238.300537 -35.637428 110.308548
v 238.300537 -35.618931 110.005798
v 239.730804 -35.578671 109.739441
v 240.256165 -42.549419 119.072632
v 239.993500 -39.064045 118.955261
v 237.670258 -42.549419 119.041138
v 238.195587 -35.397366 109.938248
v 239.730804 -35.397366 118.670593
v 239.642822 -35.618931 118.601288
v 239.642822 -35.618931 110.297821
v 241.104980 -42.549419 119.041138
v 241.256897 -42.549419 110.028076
v 241.067291 -39.064049 110.138718
v 237.048340 -35.597172 110.271637
v 236.904144 -39.064045 110.433685
v 240.155914 -35.618931 118.268707
v 240.877716 -35.578671 118.310211
v 240.438751 -35.397366 110.251389
v 237.487305 -35.397366 118.310211
v 237.646881 -35.618931 118.268707
v 238.977020 -35.668156 118.268707
v 237.786926 -35.624111 118.268707
v 239.642822 -35.618931 118.268707
v 236.669128 -42.549419 109.733261
v 236.759918 -42.549419 110.595749
v 242.068115 -49.013634 102.218719
v 241.550385 -44.780983 102.243256
v 241.670319 -44.780979 102.769501
v 241.910889 -49.013634 102.862732
v 236.330414 -44.780979 102.710022
v 236.215424 -44.780979 102.252121
v 236.089844 -49.013634 102.378006
v 236.089844 -49.013634 102.862732
v 240.641113 -49.013634 91.820633
v 240.307831 -44.780983 91.906158
v 241.477478 -44.780983 91.926575
v 241.718109 -49.013634 91.861465
v 240.691833 -40.597214 92.425125
v 240.513947 -40.597214 92.375839
v 240.513947 -40.597214 92.715912
v 240.691833 -40.597214 92.715134
v 241.061462 -40.395569 102.709396
v 239.974548 -40.395569 102.709396
v 239.974548 -40.548325 102.782776
v 241.236847 -40.548325 102.782776
v 241.254639 -40.395569 92.241486
v 241.254639 -40.395569 92.662552
v 241.429749 -40.548325 92.661804
v 241.429749 -40.548325 92.169617
v 236.746094 -40.395569 102.604401
v 236.746094 -40.395569 102.126236
v 236.571014 -40.548325 102.126236
v 236.571014 -40.548325 102.676270
v 236.939270 -40.395569 92.136490
v 238.026642 -40.395569 92.136490
v 238.026642 -40.548325 92.063110
v 236.763885 -40.548325 92.063110
v 236.697845 -44.780979 102.883591
v 237.693359 -44.780979 102.883591
v 238.956726 -40.608105 102.782776
v 236.763885 -40.548325 102.782776
v 241.254639 -40.395569 102.126236
v 240.872803 -40.328148 102.126236
v 240.872803 -40.328148 102.458298
v 241.254639 -40.395569 102.604401
v 239.974548 -40.395569 92.136490
v 239.974548 -40.328148 92.296524
v 240.679688 -40.328148 92.296524
v 241.061462 -40.395569 92.136490
v 236.746094 -40.418034 92.687210
v 237.127930 -40.350613 92.685577
v 237.127930 -40.328148 92.387589
v 236.746094 -40.395569 92.241486
v 238.956726 -40.455349 102.709396
v 238.956726 -40.387928 102.549362
v 237.321014 -40.328148 102.549362
v 236.939270 -40.395569 102.709396
v 240.691833 -40.597214 102.077484
v 240.691833 -40.597214 102.418686
v 239.862915 -40.597214 92.375839
v 237.330444 -40.619682 92.734863
v 237.330444 -40.597214 92.425125
v 239.018127 -40.656994 102.467972
v 237.508331 -40.597214 102.467972
v 241.670319 -44.780983 92.040680
v 241.910889 -49.013634 91.983154
v 241.429749 -40.548325 102.676270
v 236.663849 -49.013634 103.028946
v 236.571014 -40.548325 92.169617
v 241.236847 -40.548325 92.063110
v 241.477478 -44.780983 102.883591
v 236.523254 -44.780979 91.926575
v 236.330414 -44.780979 92.040680
v 240.679688 -40.328148 102.549362
v 240.872803 -40.328148 92.387589
v 237.321045 -40.328148 92.296524
v 237.127930 -40.328148 102.458298
v 240.513947 -40.597214 102.467972
v 237.508331 -40.597214 92.375839
v 237.330444 -40.597214 102.418686
v 236.282623 -49.013634 91.861465
v 237.693359 -44.780983 91.926575
v 237.360077 -49.013634 91.861465
v 237.507507 -40.619682 92.734100
v 238.159790 -40.619682 92.731293
v 238.159790 -40.597214 92.375839
v 239.974548 -40.548325 92.063110
v 240.641113 -49.013634 103.021393
v 240.307831 -44.780983 102.883591
v 237.360077 -49.013634 102.984421
v 238.026642 -40.328148 92.296524
v 239.974548 -40.328148 102.549362
v 239.862915 -40.597214 102.467972
v 239.862915 -40.597214 92.718704
v 241.718109 -49.013634 102.984421
v 241.910889 -49.013634 92.401993
v 241.670319 -44.780983 92.531906
v 236.571014 -40.570789 92.687973
v 236.388031 -44.780979 92.878235
v 240.513947 -40.597214 102.077484
v 241.429749 -40.548325 102.126236
v 240.872803 -40.328148 92.664200
v 237.127930 -40.328148 102.126236
v 237.330444 -40.597214 102.077484
v 239.018127 -40.656994 102.077484
v 237.508118 -40.603508 102.077484
v 239.862915 -40.597214 102.077484
v 236.089844 -49.013634 92.055847
v 236.205048 -49.013634 93.068512
v 242.068115 -49.013634 120.599915
v 241.550385 -44.780983 120.624466
v 241.670319 -44.780979 121.150711
v 241.910889 -49.013634 121.243927
v 236.330414 -44.780979 121.091232
v 236.215424 -44.780979 120.633316
v 236.089844 -49.013634 120.759216
v 236.089844 -49.013634 121.243927
v 240.641113 -49.013634 110.201843
v 240.307831 -44.780983 110.287369
v 241.477478 -44.780983 110.307785
v 241.718109 -49.013634 110.242676
v 240.691833 -40.597214 110.806320
v 240.513947 -40.597214 110.757050
v 240.513947 -40.597214 111.097107
v 240.691833 -40.597214 111.096344
v 241.061462 -40.395569 121.090591
v 239.974548 -40.395569 121.090591
v 239.974548 -40.548325 121.163971
v 241.236847 -40.548325 121.163971
v 241.254639 -40.395569 110.622681
v 241.254639 -40.395569 111.043762
v 241.429749 -40.548325 111.042999
v 241.429749 -40.548325 110.550812
v 236.746094 -40.395569 120.985611
v 236.746094 -40.395569 120.507431
v 236.571014 -40.548325 120.507431
v 236.571014 -40.548325 121.057480
v 236.939270 -40.395569 110.517700
v 238.026642 -40.395569 110.517700
v 238.026642 -40.548325 110.444321
v 236.763885 -40.548325 110.444321
v 236.697845 -44.780979 121.264801
v 237.693359 -44.780979 121.264801
v 238.956726 -40.608105 121.163971
v 236.763885 -40.548325 121.163971
v 241.254639 -40.395569 120.507431
v 240.872803 -40.328148 120.507431
v 240.872803 -40.328148 120.839493
v 241.254639 -40.395569 120.985611
v 239.974548 -40.395569 110.517700
v 239.974548 -40.328148 110.677719
v 240.679688 -40.328148 110.677719
v 241.061462 -40.395569 110.517700
v 236.746094 -40.418034 111.068420
v 237.127930 -40.350613 111.066772
v 237.127930 -40.328148 110.768799
v 236.746094 -40.395569 110.622681
v 238.956726 -40.455349 121.090591
v 238.956726 -40.387928 120.930573
v 237.321014 -40.328148 120.930573
v 236.939270 -40.395569 121.090591
v 240.691833 -40.597214 120.458694
v 240.691833 -40.597214 120.799896
v 239.862915 -40.597214 110.757050
v 237.330444 -40.619682 111.116074
v 237.330444 -40.597214 110.806320
v 239.018127 -40.656994 120.849182
v 237.508331 -40.597214 120.849182
v 241.670319 -44.780983 110.421875
v 241.910889 -49.013634 110.364365
v 241.429749 -40.548325 121.057480
v 236.663849 -49.013634 121.410156
v 236.571014 -40.548325 110.550812
v 241.236847 -40.548325 110.444321
v 241.477478 -44.780983 121.264801
v 236.523254 -44.780979 110.307785
v 236.330414 -44.780979 110.421875
v 240.679688 -40.328148 120.930573
v 240.872803 -40.328148 110.768799
v 237.321045 -40.328148 110.677719
v 237.127930 -40.328148 120.839493
v 240.513947 -40.597214 120.849182
v 237.508331 -40.597214 110.757050
v 237.330444 -40.597214 120.799896
v 236.282623 -49.013634 110.242676
v 237.693359 -44.780983 110.307785
v 237.360077 -49.013634 110.242676
v 237.507507 -40.619682 111.115311
v 238.159790 -40.619682 111.112503
v 238.159790 -40.597214 110.757050
v 239.974548 -40.548325 110.444321
v 240.641113 -49.013634 121.402603
v 240.307831 -44.780983 121.264801
v 237.360077 -49.013634 121.365616
v 238.026642 -40.328148 110.677719
v 239.974548 -40.328148 120.930573
v 239.862915 -40.597214 120.849182
v 239.862915 -40.597214 111.099915
v 241.718109 -49.013634 121.365616
v 241.910889 -49.013634 110.783203
v 241.670319 -44.780983 110.913101
v 236.571014 -40.570789 111.069168
v 236.388031 -44.780979 111.259445
v 240.513947 -40.597214 120.458694
v 241.429749 -40.548325 120.507431
v 240.872803 -40.328148 111.045395
v 237.127930 -40.328148 120.507431
v 237.330444 -40.597214 120.458694
v 239.018127 -40.656994 120.458694
v 237.508118 -40.603508 120.458694
v 239.862915 -40.597214 120.458694
v 236.089844 -49.013634 110.437042
v 236.205048 -49.013634 111.449722
v 241.386841 -48.752022 71.478119
v 240.978821 -42.261124 71.498886
v 241.073303 -42.261124 71.944351
v 241.262909 -48.752022 72.023270
v 236.864746 -42.261124 71.894012
v 236.774109 -42.261124 71.506393
v 236.675140 -48.752022 71.612961
v 236.675140 -48.752022 72.023270
v 240.262177 -48.752022 62.676212
v 239.999512 -42.261124 62.748611
v 240.921356 -42.261124 62.765892
v 241.110992 -48.752022 62.710777
v 240.302155 -35.845196 63.187904
v 240.161926 -35.845196 63.146187
v 240.161926 -35.845196 63.434052
v 240.302155 -35.845196 63.433403
v 240.593445 -35.535965 71.893478
v 239.736816 -35.535965 71.893478
v 239.736816 -35.770222 71.955582
v 240.731689 -35.770222 71.955582
v 240.745728 -35.535965 63.032452
v 240.745728 -35.535965 63.388889
v 240.883728 -35.770222 63.388248
v 240.883728 -35.770222 62.971619
v 237.192352 -35.535965 71.804596
v 237.192352 -35.535965 71.399826
v 237.054352 -35.770222 71.399826
v 237.054352 -35.770222 71.865433
v 237.344604 -35.535965 62.943581
v 238.201599 -35.535965 62.943581
v 238.201599 -35.770222 62.881466
v 237.206360 -35.770222 62.881466
v 237.154327 -42.261124 72.040939
v 237.938934 -42.261124 72.040939
v 238.934631 -35.861897 71.955582
v 237.206360 -35.770222 71.955582
v 240.745728 -35.535965 71.399826
v 240.444763 -35.432571 71.399826
v 240.444763 -35.432571 71.680923
v 240.745728 -35.535965 71.804596
v 239.736816 -35.535965 62.943581
v 239.736816 -35.432571 63.079048
v 240.292572 -35.432571 63.079048
v 240.593445 -35.535965 62.943581
v 237.192352 -35.570419 63.409763
v 237.493317 -35.467026 63.408375
v 237.493317 -35.432571 63.156136
v 237.192352 -35.535965 63.032452
v 238.934631 -35.627640 71.893478
v 238.934631 -35.524246 71.758011
v 237.645477 -35.432571 71.758011
v 237.344604 -35.535965 71.893478
v 240.302155 -35.845196 71.358566
v 240.302155 -35.845196 71.647400
v 239.648834 -35.845196 63.146187
v 237.652893 -35.879650 63.450100
v 237.652893 -35.845196 63.187904
v 238.983032 -35.936871 71.689117
v 237.793121 -35.845196 71.689117
v 241.073303 -42.261124 62.862473
v 241.262909 -48.752022 62.813786
v 240.883728 -35.770222 71.865433
v 237.127533 -48.752018 72.163971
v 237.054352 -35.770222 62.971619
v 240.731689 -35.770222 62.881466
v 240.921356 -42.261124 72.040939
v 237.016724 -42.261124 62.765892
v 236.864746 -42.261124 62.862473
v 240.292572 -35.432571 71.758011
v 240.444763 -35.432571 63.156136
v 237.645477 -35.432571 63.079048
v 237.493317 -35.432571 71.680923
v 240.161926 -35.845196 71.689117
v 237.793121 -35.845196 63.146187
v 237.652893 -35.845196 71.647400
v 236.827087 -48.752022 62.710777
v 237.938934 -42.261124 62.765892
v 237.676270 -48.752022 62.710777
v 237.792450 -35.879650 63.449455
v 238.306549 -35.879650 63.447083
v 238.306549 -35.845196 63.146187
v 239.736816 -35.770222 62.881466
v 240.262177 -48.752022 72.157578
v 239.999512 -42.261124 72.040939
v 237.676270 -48.752018 72.126282
v 238.201599 -35.432571 63.079048
v 239.736816 -35.432571 71.758011
v 239.648834 -35.845196 71.689117
v 239.648834 -35.845196 63.436420
v 241.110992 -48.752022 72.126282
v 241.262909 -48.752022 63.168331
v 241.073303 -42.261124 63.278290
v 237.054352 -35.804672 63.410400
v 236.910156 -42.261124 63.571465
v 240.161926 -35.845196 71.358566
v 240.883728 -35.770222 71.399826
v 240.444763 -35.432571 63.390278
v 237.493317 -35.432571 71.399826
v 237.652893 -35.845196 71.358566
v 238.983032 -35.936871 71.358566
v 237.792938 -35.854847 71.358566
v 239.648834 -35.845196 71.358566
v 236.675140 -48.752022 62.875313
v 236.765930 -48.752022 63.732529
v 236.669128 -48.716717 78.387177
v 237.077179 -42.225819 78.366394
v 236.982666 -42.225819 77.920929
v 236.793060 -48.716717 77.842026
v 241.191223 -42.225819 77.971283
v 241.281891 -42.225819 78.358902
v 241.380829 -48.716717 78.252335
v 241.380829 -48.716717 77.842026
v 237.793823 -48.716717 87.189072
v 238.056488 -42.225819 87.116684
v 237.134644 -42.225819 87.099396
v 236.945007 -48.716717 87.154510
v 237.753845 -35.809891 86.677383
v 237.894043 -35.809891 86.719101
v 237.894043 -35.809891 86.431229
v 237.753845 -35.809891 86.431885
v 237.462524 -35.500660 77.971817
v 238.319153 -35.500660 77.971817
v 238.319153 -35.734917 77.909698
v 237.324280 -35.734917 77.909698
v 237.310272 -35.500660 86.832840
v 237.310272 -35.500660 86.476395
v 237.172272 -35.734917 86.477036
v 237.172272 -35.734917 86.893677
v 240.863647 -35.500660 78.060684
v 240.863647 -35.500660 78.465454
v 241.001617 -35.734917 78.465454
v 241.001617 -35.734917 77.999847
v 240.711365 -35.500660 86.921707
v 239.854370 -35.500660 86.921707
v 239.854370 -35.734917 86.983826
v 240.849609 -35.734917 86.983826
v 240.901672 -42.225819 77.824356
v 240.117065 -42.225819 77.824356
v 239.121338 -35.826591 77.909698
v 240.849609 -35.734917 77.909698
v 237.310272 -35.500660 78.465454
v 237.611206 -35.397266 78.465454
v 237.611206 -35.397266 78.184372
v 237.310272 -35.500660 78.060684
v 238.319153 -35.500656 86.921707
v 238.319153 -35.397266 86.786240
v 237.763397 -35.397266 86.786240
v 237.462524 -35.500660 86.921707
v 240.863647 -35.535110 86.455521
v 240.562683 -35.431721 86.456909
v 240.562683 -35.397266 86.709152
v 240.863647 -35.500660 86.832840
v 239.121338 -35.592335 77.971817
v 239.121338 -35.488941 78.107285
v 240.410492 -35.397266 78.107285
v 240.711365 -35.500660 77.971817
v 237.753845 -35.809891 78.506714
v 237.753845 -35.809891 78.217896
v 238.407166 -35.809891 86.719101
v 240.403076 -35.844345 86.415192
v 240.403076 -35.809891 86.677383
v 239.072968 -35.901566 78.176178
v 240.262878 -35.809891 78.176178
v 236.982666 -42.225819 87.002823
v 236.793060 -48.716717 87.051498
v 237.172272 -35.734917 77.999847
v 240.928436 -48.716713 77.701309
v 241.001617 -35.734917 86.893677
v 237.324280 -35.734917 86.983826
v 237.134644 -42.225819 77.824356
v 241.039276 -42.225815 87.099396
v 241.191223 -42.225815 87.002823
v 237.763397 -35.397266 78.107285
v 237.611206 -35.397266 86.709152
v 240.410492 -35.397266 86.786240
v 240.562683 -35.397266 78.184372
v 237.894043 -35.809891 78.176178
v 240.262878 -35.809891 86.719101
v 240.403076 -35.809891 78.217896
v 241.228912 -48.716713 87.154510
v 240.117065 -42.225819 87.099396
v 240.379730 -48.716713 87.154510
v 240.263519 -35.844345 86.415833
v 239.749420 -35.844345 86.418198
v 239.749420 -35.809891 86.719101
v 238.319153 -35.734917 86.983826
v 237.793823 -48.716717 77.707703
v 238.056488 -42.225819 77.824356
v 240.379730 -48.716713 77.739014
v 239.854370 -35.397266 86.786240
v 238.319153 -35.397266 78.107285
v 238.407166 -35.809891 78.176178
v 238.407166 -35.809891 86.428864
v 236.945007 -48.716717 77.739014
v 236.793060 -48.716717 86.696960
v 236.982666 -42.225819 86.586990
v 241.001617 -35.769367 86.454880
v 241.145844 -42.225815 86.293823
v 237.894043 -35.809891 78.506714
v 237.172272 -35.734917 78.465454
v 237.611206 -35.397266 86.475006
v 240.562683 -35.397266 78.465454
v 240.403076 -35.809891 78.506714
v 239.072968 -35.901566 78.506714
v 240.263062 -35.819542 78.506714
v 238.407166 -35.809891 78.506714
v 241.380829 -48.716717 86.989975
v 241.290039 -48.716717 86.132751
v 235.677032 -48.716713 134.716156
v 235.697784 -42.225815 135.124191
v 236.143250 -42.225815 135.029694
v 236.222168 -48.716713 134.840088
v 236.092896 -42.225815 139.238251
v 235.705292 -42.225815 139.328903
v 235.811859 -48.716713 139.427856
v 236.222168 -48.716713 139.427856
v 226.875122 -48.716713 135.840836
v 226.947510 -42.225815 136.103500
v 226.964783 -42.225815 135.181656
v 226.909668 -48.716713 134.992020
v 227.386810 -35.809887 135.800858
v 227.345093 -35.809887 135.941071
v 227.632965 -35.809887 135.941071
v 227.632294 -35.809887 135.800858
v 236.092377 -35.500656 135.509552
v 236.092377 -35.500656 136.366180
v 236.154480 -35.734913 136.366180
v 236.154480 -35.734913 135.371307
v 227.231354 -35.500656 135.357285
v 227.587799 -35.500656 135.357285
v 227.587158 -35.734913 135.219284
v 227.170532 -35.734913 135.219284
v 236.003510 -35.500656 138.910660
v 235.598724 -35.500656 138.910660
v 235.598724 -35.734913 139.048645
v 236.064331 -35.734913 139.048645
v 227.142487 -35.500656 138.758392
v 227.142487 -35.500656 137.901398
v 227.080383 -35.734913 137.901398
v 227.080383 -35.734913 138.896637
v 236.239838 -42.225815 138.948685
v 236.239838 -42.225815 138.164078
v 236.154480 -35.826588 137.168365
v 236.154480 -35.734913 138.896637
v 235.598724 -35.500656 135.357285
v 235.598724 -35.397263 135.658234
v 235.879822 -35.397263 135.658234
v 236.003510 -35.500656 135.357285
v 227.142487 -35.500656 136.366180
v 227.277954 -35.397263 136.366180
v 227.277954 -35.397263 135.810425
v 227.142487 -35.500656 135.509552
v 227.608673 -35.535110 138.910645
v 227.607269 -35.431717 138.609695
v 227.355042 -35.397263 138.609695
v 227.231354 -35.500656 138.910645
v 236.092377 -35.592331 137.168365
v 235.956909 -35.488937 137.168365
v 235.956909 -35.397263 138.457520
v 236.092377 -35.500656 138.758392
v 235.557465 -35.809887 135.800858
v 235.846283 -35.809887 135.800858
v 227.345093 -35.809887 136.454178
v 227.649017 -35.844341 138.450104
v 227.386810 -35.809887 138.450104
v 235.888031 -35.901562 137.119980
v 235.888031 -35.809887 138.309891
v 227.061371 -42.225815 135.029694
v 227.012695 -48.716713 134.840088
v 236.064331 -35.734913 135.219284
v 236.362885 -48.716709 138.975464
v 227.170532 -35.734913 139.048645
v 227.080383 -35.734913 135.371307
v 236.239838 -42.225815 135.181656
v 226.964783 -42.225815 139.086273
v 227.061371 -42.225815 139.238251
v 235.956909 -35.397263 135.810425
v 227.355042 -35.397263 135.658234
v 227.277954 -35.397263 138.457520
v 235.879822 -35.397263 138.609695
v 235.888031 -35.809887 135.941071
v 227.345093 -35.809887 138.309891
v 235.846283 -35.809887 138.450104
v 226.909668 -48.716713 139.275925
v 226.964783 -42.225815 138.164078
v 226.909668 -48.716713 138.426743
v 227.648346 -35.844341 138.310547
v 227.645996 -35.844341 137.796448
v 227.345093 -35.809887 137.796448
v 227.080383 -35.734913 136.366180
v 236.356476 -48.716713 135.840836
v 236.239838 -42.225815 136.103516
v 236.325195 -48.716709 138.426743
v 227.277954 -35.397263 137.901398
v 235.956909 -35.397263 136.366180
v 235.888031 -35.809887 136.454178
v 227.635315 -35.809887 136.454178
v 236.325195 -48.716713 134.992020
v 227.367249 -48.716713 134.840088
v 227.477203 -42.225815 135.029694
v 227.609314 -35.769363 139.048645
v 227.770355 -42.225815 139.192856
v 235.557465 -35.809887 135.941071
v 235.598724 -35.734913 135.219284
v 227.589172 -35.397263 135.658234
v 235.598724 -35.397263 138.609695
v 235.557465 -35.809887 138.450104
v 235.557465 -35.901562 137.119980
v 235.557465 -35.819538 138.310074
v 235.557465 -35.809887 136.454178
v 227.074219 -48.716713 139.427856
v 227.931427 -48.716713 139.337067
v 241.382843 -48.716713 133.421036
v 240.974792 -42.225815 133.441803
v 241.069305 -42.225815 133.887268
v 241.258911 -48.716713 133.966187
v 236.860748 -42.225815 133.836914
v 236.770081 -42.225815 133.449310
v 236.671143 -48.716713 133.555862
v 236.671143 -48.716713 133.966187
v 240.258148 -48.716713 124.619125
v 239.995483 -42.225815 124.691513
v 240.917328 -42.225815 124.708801
v 241.106964 -48.716713 124.653687
v 240.298126 -35.809887 125.130814
v 240.157928 -35.809887 125.089096
v 240.157928 -35.809887 125.376953
v 240.298126 -35.809887 125.376312
v 240.589447 -35.500656 133.836380
v 239.732819 -35.500656 133.836380
v 239.732819 -35.734913 133.898499
v 240.727692 -35.734913 133.898499
v 240.741699 -35.500656 124.975357
v 240.741699 -35.500656 125.331802
v 240.879700 -35.734913 125.331161
v 240.879700 -35.734913 124.914520
v 237.188324 -35.500656 133.747513
v 237.188324 -35.500656 133.342743
v 237.050354 -35.734913 133.342743
v 237.050354 -35.734913 133.808350
v 237.340607 -35.500656 124.886490
v 238.197601 -35.500656 124.886490
v 238.197601 -35.734913 124.824371
v 237.202362 -35.734913 124.824371
v 237.150299 -42.225815 133.983841
v 237.934906 -42.225815 133.983841
v 238.930634 -35.826588 133.898499
v 237.202362 -35.734913 133.898499
v 240.741699 -35.500656 133.342743
v 240.440765 -35.397263 133.342743
v 240.440765 -35.397263 133.623825
v 240.741699 -35.500656 133.747513
v 239.732819 -35.500656 124.886490
v 239.732819 -35.397263 125.021957
v 240.288574 -35.397263 125.021957
v 240.589447 -35.500656 124.886490
v 237.188354 -35.535110 125.352676
v 237.489288 -35.431717 125.351288
v 237.489288 -35.397263 125.099045
v 237.188354 -35.500656 124.975357
v 238.930634 -35.592331 133.836380
v 238.930634 -35.488937 133.700928
v 237.641479 -35.397263 133.700928
v 237.340607 -35.500656 133.836380
v 240.298126 -35.809887 133.301483
v 240.298126 -35.809887 133.590302
v 239.644806 -35.809887 125.089096
v 237.648895 -35.844341 125.393005
v 237.648895 -35.809887 125.130814
v 238.979004 -35.901562 133.632034
v 237.789093 -35.809887 133.632034
v 241.069305 -42.225815 124.805389
v 241.258911 -48.716713 124.756699
v 240.879700 -35.734913 133.808350
v 237.123535 -48.716709 134.106888
v 237.050354 -35.734913 124.914520
v 240.727692 -35.734913 124.824371
v 240.917328 -42.225815 133.983841
v 237.012726 -42.225815 124.708801
v 236.860748 -42.225815 124.805389
v 240.288574 -35.397263 133.700928
v 240.440765 -35.397263 125.099045
v 237.641479 -35.397263 125.021957
v 237.489288 -35.397263 133.623825
v 240.157928 -35.809887 133.632034
v 237.789093 -35.809887 125.089096
v 237.648895 -35.809887 133.590302
v 236.823059 -48.716713 124.653687
v 237.934906 -42.225815 124.708801
v 237.672241 -48.716713 124.653687
v 237.788452 -35.844341 125.392365
v 238.302551 -35.844341 125.389984
v 238.302551 -35.809887 125.089096
v 239.732819 -35.734913 124.824371
v 240.258148 -48.716713 134.100494
v 239.995483 -42.225815 133.983841
v 237.672241 -48.716709 134.069199
v 238.197601 -35.397263 125.021957
v 239.732819 -35.397263 133.700928
v 239.644806 -35.809887 133.632034
v 239.644806 -35.809887 125.379333
v 241.106964 -48.716713 134.069199
v 241.258911 -48.716713 125.111237
v 241.069305 -42.225815 125.221207
v 237.050354 -35.769363 125.353317
v 236.906128 -42.225815 125.514374
v 240.157928 -35.809887 133.301483
v 240.879700 -35.734913 133.342743
v 240.440765 -35.397263 125.333191
v 237.489288 -35.397263 133.342743
v 237.648895 -35.809887 133.301483
v 238.979004 -35.901562 133.301483
v 237.788910 -35.819538 133.301483
v 239.644806 -35.809887 133.301483
v 236.671143 -48.716713 124.818222
v 236.761932 -48.716713 125.675446
vn 0.9931 0.0909 0.0743
vn 0.9931 0.0748 -0.0905
vn 0.9209 0.0789 0.3818
vn 0.8471 0.0595 0.5281
vn -0.8107 0.0449 0.5838
vn -0.9946 0.0508 0.0906
vn -0.9992 0.0407 0.0032
vn -0.8132 0.0684 0.5780
vn 0.0148 0.0216 -0.9997
vn 0.0058 0.0322 -0.9995
vn 0.3128 0.0354 -0.9491
vn -0.0573 0.0227 -0.9981
vn -0.4595 0.7870 0.4116
vn -0.0845 0.7984 0.5962
vn -0.0000 1.0000 -0.0000
vn -0.4789 0.8779 -0.0000
vn 0.1743 0.6543 0.7359
vn -0.0264 0.7298 0.6831
vn -0.0082 0.2687 0.9632
vn 0.0254 0.6004 0.7993
vn 0.5034 0.8257 -0.2545
vn 0.4468 0.8946 -0.0000
vn 0.9042 0.4272 0.0022
vn 0.8033 0.4151 -0.4271
vn -0.5034 0.8257 0.2545
vn -0.6569 0.7540 -0.0010
vn -0.8988 0.4383 -0.0036
vn -0.7988 0.4154 0.4352
vn -0.1743 0.6543 -0.7359
vn -0.0000 0.5817 -0.8134
vn -0.0009 0.2700 -0.9629
vn -0.0267 0.6001 -0.7995
vn -0.2617 0.0333 0.9646
vn 0.0004 0.0318 0.9995
vn -0.0040 0.2580 0.9661
vn -0.1979 0.4190 0.8862
vn 0.4446 0.8957 -0.0000
vn -0.3970 0.9178 -0.0000
vn -0.2078 0.9730 -0.1004
vn 0.2993 0.9078 0.2937
vn -0.0000 0.7725 -0.6350
vn -0.0000 0.9020 0.4318
vn -0.1392 0.9539 0.2658
vn 0.1985 0.8727 -0.4461
vn -0.4487 0.8933 0.0276
vn 0.3751 0.9265 0.0308
vn 0.1842 0.9756 0.1192
vn -0.3155 0.9100 -0.2692
vn 0.0518 0.7554 0.6532
vn -0.0086 0.8994 -0.4371
vn 0.1585 0.9610 -0.2266
vn -0.1803 0.8661 0.4663
vn -0.4789 0.8778 -0.0000
vn -0.4609 0.8082 -0.3666
vn -0.0000 0.8133 0.5819
vn 0.4511 0.8921 0.0260
vn 0.4430 0.8059 0.3927
vn -0.0146 0.8220 -0.5693
vn 0.0977 0.7965 -0.5967
vn 0.8865 0.0608 -0.4587
vn 0.8961 0.0557 -0.4403
vn 0.8087 0.4063 0.4253
vn -0.1521 0.0408 0.9875
vn -0.8050 0.4183 -0.4208
vn 0.1257 0.6669 -0.7345
vn 0.2985 0.0428 0.9535
vn -0.2976 0.0397 -0.9539
vn -0.8986 0.0590 -0.4347
vn -0.1322 0.9471 -0.2924
vn -0.1948 0.9759 0.0989
vn 0.1349 0.9488 0.2857
vn 0.1810 0.9794 -0.0892
vn -0.0668 0.8054 -0.5890
vn 0.0667 0.7894 0.6103
vn 0.4428 0.7977 -0.4094
vn -0.4275 0.0318 -0.9035
vn -0.0047 0.0279 -0.9996
vn -0.0062 0.0193 -0.9998
vn 0.0022 0.9996 0.0290
vn -0.0073 0.9996 0.0282
vn -0.0034 0.7983 0.6022
vn 0.0009 0.2706 -0.9627
vn 0.0174 0.0364 0.9992
vn 0.0015 0.0307 0.9995
vn 0.0340 0.0250 0.9991
vn -0.0267 0.9062 -0.4219
vn -0.0320 0.8122 -0.5826
vn -0.0039 1.0000 0.0022
vn 0.3365 0.0483 0.9405
vn 0.9981 0.0613 0.0023
vn 0.9985 0.0541 0.0051
vn -0.9070 0.4210 0.0105
vn -0.9986 0.0473 0.0254
vn 0.9092 0.4164 -0.0000
vn 0.3727 0.9280 -0.0009
vn 0.4723 0.8815 -0.0010
vn -0.0201 0.9998 0.0021
vn 0.0357 0.9994 -0.0046
vn -0.0355 0.9994 0.0020
vn -0.9559 0.0468 -0.2899
vn -0.9984 0.0417 0.0381
vn 0.9923 0.0906 0.0848
vn 0.9921 0.0745 -0.1011
vn 0.9149 0.0784 0.3959
vn 0.8270 0.0577 0.5592
vn -0.7896 0.0433 0.6121
vn -0.9935 0.0508 0.1014
vn -0.9992 0.0408 0.0026
vn -0.8045 0.0658 0.5903
vn 0.0132 0.0193 -0.9997
vn 0.0052 0.0288 -0.9996
vn 0.2872 0.0313 -0.9574
vn -0.0835 0.0193 -0.9963
vn -0.4540 0.7796 0.4314
vn -0.0768 0.7898 0.6085
vn 0.1693 0.6309 0.7571
vn -0.0256 0.7008 0.7129
vn -0.0075 0.2446 0.9696
vn 0.0045 0.5756 0.8177
vn 0.5024 0.8182 -0.2795
vn 0.9042 0.4270 0.0024
vn 0.7964 0.4083 -0.4462
vn -0.5024 0.8182 0.2795
vn -0.6571 0.7538 -0.0011
vn -0.8989 0.4381 -0.0039
vn -0.7916 0.4091 0.4539
vn -0.1693 0.6309 -0.7571
vn -0.0000 0.5471 -0.8370
vn -0.0008 0.2456 -0.9694
vn -0.0059 0.5750 -0.8182
vn -0.2389 0.0298 0.9706
vn 0.0004 0.0285 0.9996
vn -0.0036 0.2347 0.9721
vn -0.1799 0.4009 0.8983
vn -0.2018 0.9750 -0.0927
vn 0.2963 0.9004 0.3185
vn -0.0000 0.7452 -0.6668
vn -0.0000 0.9030 0.4296
vn -0.1387 0.9519 0.2734
vn 0.1933 0.8584 -0.4752
vn -0.4490 0.8930 0.0299
vn 0.3756 0.9261 0.0344
vn 0.1780 0.9773 0.1148
vn -0.3128 0.9039 -0.2919
vn 0.0523 0.7270 0.6846
vn -0.0087 0.9001 -0.4355
vn 0.1592 0.9595 -0.2323
vn -0.1756 0.8512 0.4947
vn -0.4558 0.8005 -0.3892
vn -0.0000 0.8036 0.5951
vn 0.4506 0.8922 0.0292
vn 0.4376 0.7961 0.4180
vn -0.0145 0.8127 -0.5825
vn 0.0902 0.7869 -0.6104
vn 0.8744 0.0593 -0.4815
vn 0.8846 0.0546 -0.4631
vn 0.8018 0.3996 0.4444
vn -0.1386 0.0366 0.9897
vn -0.7982 0.4123 -0.4391
vn 0.1029 0.6454 -0.7569
vn 0.2737 0.0389 0.9610
vn -0.2730 0.0359 -0.9613
vn -0.8887 0.0577 -0.4549
vn -0.1309 0.9451 -0.2995
vn -0.1899 0.9776 0.0904
vn 0.1337 0.9467 0.2930
vn 0.1764 0.9810 -0.0807
vn -0.0607 0.7963 -0.6019
vn 0.0611 0.7781 0.6252
vn 0.4376 0.7897 -0.4300
vn -0.4023 0.0293 -0.9150
vn -0.0042 0.0249 -0.9997
vn -0.0056 0.0173 -0.9998
vn 0.0024 0.9995 0.0323
vn -0.0073 0.9995 0.0316
vn -0.0035 0.7864 0.6178
vn 0.0008 0.2463 -0.9692
vn 0.0156 0.0326 0.9993
vn 0.0014 0.0274 0.9996
vn 0.0304 0.0223 0.9993
vn -0.0268 0.9071 -0.4200
vn -0.0314 0.8019 -0.5966
vn 0.3095 0.0438 0.9499
vn 0.9981 0.0620 0.0023
vn 0.9985 0.0541 0.0057
vn -0.9072 0.4205 0.0114
vn -0.9985 0.0476 0.0281
vn 0.3727 0.9280 -0.0010
vn 0.4723 0.8814 -0.0011
vn -0.0203 0.9998 0.0023
vn 0.0355 0.9994 -0.0053
vn -0.0353 0.9994 0.0023
vn -0.9494 0.0464 -0.3106
vn -0.9982 0.0416 0.0429
vn 0.9913 0.0945 0.0919
vn 0.9910 0.0776 -0.1090
vn 0.9108 0.0815 0.4048
vn 0.8124 0.0590 0.5800
vn -0.7746 0.0442 0.6310
vn -0.9926 0.0531 0.1094
vn -0.9991 0.0426 0.0026
vn -0.7988 0.0670 0.5979
vn 0.0122 0.0187 -0.9998
vn 0.0048 0.0278 -0.9996
vn 0.2699 0.0303 -0.9624
vn -0.1007 0.0185 -0.9947
vn -0.4425 0.7805 0.4416
vn -0.0704 0.7884 0.6111
vn -0.4701 0.8826 -0.0000
vn 0.1620 0.6258 0.7630
vn -0.0243 0.6917 0.7218
vn -0.0070 0.2375 0.9714
vn -0.0154 0.5642 0.8255
vn 0.4901 0.8219 -0.2903
vn 0.4336 0.9011 -0.0000
vn 0.8991 0.4378 0.0025
vn 0.7880 0.4130 -0.4567
vn -0.4901 0.8219 0.2903
vn -0.6458 0.7635 -0.0011
vn -0.8934 0.4493 -0.0042
vn -0.7828 0.4141 0.4645
vn -0.1620 0.6258 -0.7630
vn -0.0000 0.5367 -0.8438
vn -0.0007 0.2386 -0.9711
vn 0.0139 0.5635 -0.8260
vn -0.2240 0.0288 0.9742
vn 0.0003 0.0275 0.9996
vn -0.0034 0.2283 0.9736
vn -0.1662 0.3979 0.9023
vn 0.4314 0.9022 -0.0000
vn -0.3913 0.9203 -0.0000
vn -0.1958 0.9769 -0.0859
vn 0.2826 0.9010 0.3293
vn -0.0000 0.7367 -0.6762
vn -0.0000 0.9036 0.4284
vn -0.1361 0.9510 0.2778
vn 0.1857 0.8549 -0.4844
vn -0.4358 0.8995 0.0307
vn 0.3694 0.9286 0.0356
vn 0.1722 0.9790 0.1091
vn -0.2992 0.9052 -0.3018
vn 0.0528 0.7185 0.6935
vn -0.0083 0.9009 -0.4340
vn 0.1562 0.9591 -0.2361
vn -0.1686 0.8474 0.5035
vn -0.4447 0.8014 -0.3999
vn -0.0000 0.8009 0.5988
vn 0.4413 0.8969 0.0304
vn 0.4255 0.7964 0.4297
vn -0.0139 0.8097 -0.5867
vn 0.0832 0.7853 -0.6135
vn 0.8659 0.0609 -0.4965
vn 0.8766 0.0563 -0.4780
vn 0.7937 0.4039 0.4548
vn -0.1303 0.0355 0.9908
vn -0.7899 0.4174 -0.4492
vn 0.0808 0.6374 -0.7663
vn 0.2570 0.0380 0.9657
vn -0.2564 0.0350 -0.9659
vn -0.8818 0.0593 -0.4680
vn -0.1279 0.9440 -0.3042
vn -0.1847 0.9793 0.0833
vn 0.1308 0.9457 0.2976
vn 0.1712 0.9825 -0.0735
vn -0.0554 0.7944 -0.6048
vn 0.0559 0.7754 0.6290
vn 0.4259 0.7904 -0.4403
vn -0.3848 0.0289 -0.9226
vn -0.0039 0.0241 -0.9997
vn -0.0051 0.0167 -0.9998
vn 0.0025 0.9994 0.0334
vn -0.0071 0.9994 0.0327
vn -0.0034 0.7828 0.6223
vn 0.0007 0.2392 -0.9710
vn 0.0146 0.0315 0.9994
vn 0.0013 0.0265 0.9996
vn 0.0282 0.0216 0.9994
vn -0.0256 0.9076 -0.4191
vn -0.0300 0.7992 -0.6003
vn -0.0037 1.0000 0.0021
vn 0.2915 0.0427 0.9556
vn 0.9979 0.0651 0.0024
vn 0.9984 0.0566 0.0062
vn -0.9023 0.4310 0.0121
vn -0.9983 0.0498 0.0302
vn 0.9043 0.4268 -0.0000
vn 0.3665 0.9304 -0.0011
vn 0.4623 0.8867 -0.0011
vn -0.0195 0.9998 0.0024
vn 0.0338 0.9994 -0.0056
vn -0.0337 0.9994 0.0023
vn -0.9447 0.0482 -0.3244
vn -0.9980 0.0434 0.0464
vn 0.1562 0.9591 -0.2360
vn 0.4255 0.7964 0.4298
vn 0.1307 0.9457 0.2976
vn 0.9944 0.0481 0.0941
vn 0.9940 0.0394 -0.1020
vn 0.9188 0.0426 0.3925
vn 0.8262 0.0310 0.5625
vn -0.7878 0.0230 0.6155
vn -0.9942 0.0275 0.1042
vn -0.9998 0.0220 -0.0013
vn -0.8051 0.0353 0.5921
vn 0.0134 0.0102 -0.9999
vn 0.0052 0.0152 -0.9999
vn 0.2870 0.0120 -0.9578
vn -0.0880 0.0040 -0.9961
vn -0.5403 0.7057 0.4585
vn -0.0924 0.7397 0.6665
vn -0.5802 0.8145 -0.0000
vn 0.2318 0.4607 0.8567
vn -0.0355 0.5209 0.8529
vn -0.0082 0.1402 0.9901
vn 0.0871 0.4901 0.8673
vn 0.6522 0.6630 -0.3676
vn 0.6343 0.7731 -0.0000
vn 0.9613 0.2756 0.0017
vn 0.8376 0.2765 -0.4711
vn -0.6522 0.6630 0.3676
vn -0.8112 0.5848 -0.0018
vn -0.9595 0.2819 -0.0031
vn -0.8353 0.2772 0.4748
vn -0.2318 0.4608 -0.8567
vn -0.0000 0.3398 -0.9405
vn -0.0004 0.1386 -0.9903
vn -0.0873 0.4878 -0.8686
vn -0.2375 0.0149 0.9713
vn 0.0001 0.0155 0.9999
vn -0.0036 0.1293 0.9916
vn -0.1899 0.2683 0.9444
vn 0.6324 0.7746 -0.0000
vn -0.4381 0.8989 -0.0000
vn -0.2017 0.9759 -0.0832
vn 0.4569 0.7908 0.4072
vn -0.0000 0.5706 -0.8212
vn -0.0000 0.9291 0.3698
vn -0.1593 0.9605 0.2282
vn 0.2576 0.7463 -0.6137
vn -0.6410 0.7662 0.0445
vn 0.4329 0.8993 0.0618
vn 0.1690 0.9766 0.1328
vn -0.4751 0.7997 -0.3670
vn 0.0485 0.5420 0.8390
vn -0.0189 0.9222 -0.3863
vn 0.2020 0.9626 -0.1806
vn -0.2351 0.7396 0.6306
vn -0.5414 0.7199 -0.4343
vn -0.0000 0.7618 0.6478
vn 0.5537 0.8311 0.0516
vn 0.5351 0.6944 0.4811
vn -0.0254 0.7794 -0.6261
vn 0.1195 0.7250 -0.6783
vn 0.8754 0.0319 -0.4823
vn 0.8841 0.0293 -0.4664
vn 0.8401 0.2711 0.4698
vn -0.1333 0.0192 0.9909
vn -0.8408 0.2822 -0.4620
vn 0.1955 0.5392 -0.8192
vn 0.2726 0.0208 0.9619
vn -0.2721 0.0179 -0.9621
vn -0.8900 0.0310 -0.4549
vn -0.1529 0.9575 -0.2447
vn -0.1905 0.9786 0.0782
vn 0.1558 0.9580 0.2407
vn 0.1810 0.9809 -0.0706
vn -0.0787 0.7466 -0.6606
vn 0.0821 0.7107 0.6987
vn 0.5333 0.7084 -0.4624
vn -0.3982 0.0154 -0.9172
vn -0.0042 0.0133 -0.9999
vn -0.0060 0.0094 -0.9999
vn 0.0045 0.9982 0.0604
vn -0.0137 0.9982 0.0590
vn -0.0067 0.7262 0.6874
vn 0.0004 0.1388 -0.9903
vn 0.0142 0.0170 0.9998
vn 0.0008 0.0145 0.9999
vn 0.0293 0.0120 0.9995
vn -0.0516 0.9325 -0.3575
vn -0.0528 0.7502 -0.6591
vn -0.0073 1.0000 0.0040
vn 0.3064 0.0235 0.9516
vn 0.9993 0.0362 0.0001
vn 0.9996 0.0291 0.0057
vn -0.9632 0.2685 0.0119
vn -0.9993 0.0265 0.0267
vn 0.9628 0.2701 -0.0000
vn 0.4214 0.9069 -0.0019
vn 0.5937 0.8047 -0.0018
vn -0.0375 0.9993 0.0043
vn 0.0659 0.9978 -0.0100
vn -0.0654 0.9979 0.0042
vn -0.9494 0.0248 -0.3131
vn -0.9988 0.0218 0.0445
vn -0.9944 0.0481 -0.0941
vn -0.9940 0.0394 0.1020
vn -0.9188 0.0426 -0.3925
vn -0.8262 0.0310 -0.5625
vn 0.7878 0.0230 -0.6155
vn 0.9942 0.0275 -0.1042
vn 0.9998 0.0220 0.0013
vn 0.8051 0.0353 -0.5921
vn -0.0134 0.0102 0.9999
vn -0.0052 0.0152 0.9999
vn -0.2870 0.0120 0.9579
vn 0.0879 0.0040 0.9961
vn 0.5403 0.7056 -0.4585
vn 0.0924 0.7397 -0.6665
vn 0.5802 0.8145 -0.0000
vn 0.0355 0.5209 -0.8529
vn 0.0082 0.1402 -0.9901
vn -0.0871 0.4901 -0.8673
vn -0.6343 0.7731 -0.0000
vn -0.9613 0.2756 -0.0017
vn -0.8376 0.2765 0.4711
vn 0.8112 0.5848 0.0018
vn 0.9595 0.2819 0.0031
vn 0.8353 0.2772 -0.4748
vn 0.2318 0.4608 0.8567
vn -0.0000 0.3398 0.9405
vn 0.0004 0.1386 0.9903
vn 0.0873 0.4878 0.8686
vn 0.2375 0.0149 -0.9713
vn -0.0001 0.0155 -0.9999
vn 0.0036 0.1293 -0.9916
vn 0.1899 0.2683 -0.9444
vn -0.6324 0.7746 -0.0000
vn 0.4381 0.8989 -0.0000
vn 0.2017 0.9759 0.0831
vn -0.4569 0.7908 -0.4072
vn -0.0000 0.5706 0.8212
vn -0.0000 0.9291 -0.3698
vn 0.1593 0.9605 -0.2282
vn -0.2576 0.7463 0.6137
vn 0.6410 0.7662 -0.0445
vn -0.4329 0.8993 -0.0618
vn -0.1690 0.9766 -0.1328
vn 0.4751 0.7997 0.3670
vn -0.0485 0.5420 -0.8390
vn 0.0189 0.9222 0.3863
vn -0.2020 0.9626 0.1806
vn 0.2351 0.7396 -0.6306
vn 0.5414 0.7199 0.4343
vn -0.0000 0.7618 -0.6478
vn -0.5537 0.8311 -0.0516
vn -0.5351 0.6944 -0.4811
vn 0.0254 0.7794 0.6261
vn -0.1195 0.7250 0.6783
vn -0.8754 0.0319 0.4823
vn -0.8841 0.0293 0.4664
vn -0.8401 0.2711 -0.4698
vn 0.1333 0.0192 -0.9909
vn 0.8408 0.2822 0.4620
vn -0.1955 0.5392 0.8192
vn -0.2726 0.0208 -0.9619
vn 0.2721 0.0179 0.9621
vn 0.8900 0.0310 0.4549
vn 0.1529 0.9575 0.2447
vn 0.1905 0.9786 -0.0782
vn -0.1558 0.9580 -0.2407
vn -0.1810 0.9809 0.0706
vn 0.0787 0.7466 0.6606
vn -0.0821 0.7107 -0.6987
vn -0.5333 0.7084 0.4624
vn 0.3982 0.0154 0.9172
vn 0.0042 0.0133 0.9999
vn 0.0060 0.0094 0.9999
vn -0.0045 0.9982 -0.0604
vn 0.0137 0.9982 -0.0590
vn 0.0067 0.7262 -0.6874
vn -0.0004 0.1388 0.9903
vn -0.0142 0.0170 -0.9998
vn -0.0008 0.0145 -0.9999
vn -0.0293 0.0120 -0.9995
vn 0.0516 0.9325 0.3575
vn 0.0528 0.7502 0.6591
vn 0.0073 1.0000 -0.0040
vn -0.3064 0.0235 -0.9516
vn -0.9993 0.0362 -0.0001
vn -0.9996 0.0291 -0.0057
vn 0.9632 0.2684 -0.0119
vn 0.9993 0.0265 -0.0267
vn -0.9628 0.2701 -0.0000
vn -0.4214 0.9069 0.0019
vn -0.5937 0.8047 0.0018
vn 0.0375 0.9993 -0.0043
vn -0.0659 0.9978 0.0100
vn 0.0654 0.9979 -0.0042
vn 0.9494 0.0248 0.3131
vn 0.9988 0.0218 -0.0445
vn 0.0941 0.0481 -0.9944
vn -0.1020 0.0394 -0.9940
vn 0.3925 0.0426 -0.9187
vn 0.5625 0.0310 -0.8262
vn 0.6155 0.0230 0.7878
vn 0.1042 0.0275 0.9942
vn -0.0013 0.0220 0.9998
vn 0.5921 0.0353 0.8051
vn -0.9999 0.0102 -0.0134
vn -0.9999 0.0152 -0.0052
vn -0.9578 0.0120 -0.2870
vn -0.9961 0.0040 0.0879
vn 0.4585 0.7057 0.5403
vn 0.6665 0.7397 0.0924
vn -0.0000 0.8145 0.5802
vn 0.8567 0.4608 -0.2318
vn 0.8529 0.5209 0.0355
vn 0.9901 0.1402 0.0082
vn 0.8673 0.4901 -0.0871
vn -0.3676 0.6630 -0.6522
vn -0.0000 0.7731 -0.6343
vn 0.0017 0.2756 -0.9613
vn -0.4711 0.2765 -0.8376
vn 0.3676 0.6630 0.6522
vn -0.0018 0.5848 0.8112
vn -0.0031 0.2819 0.9594
vn 0.4748 0.2772 0.8353
vn -0.8567 0.4607 0.2318
vn -0.9405 0.3398 -0.0000
vn -0.9903 0.1386 0.0004
vn -0.8686 0.4878 0.0873
vn 0.9713 0.0149 0.2375
vn 0.9999 0.0155 -0.0001
vn 0.9916 0.1293 0.0036
vn 0.9444 0.2683 0.1899
vn -0.0000 0.7746 -0.6324
vn -0.0000 0.8989 0.4381
vn -0.0832 0.9759 0.2017
vn 0.4072 0.7908 -0.4569
vn -0.8212 0.5706 -0.0000
vn 0.3698 0.9291 -0.0000
vn 0.2282 0.9605 0.1593
vn -0.6137 0.7463 -0.2576
vn 0.0445 0.7662 0.6410
vn 0.0618 0.8993 -0.4329
vn 0.1328 0.9766 -0.1690
vn -0.3670 0.7998 0.4751
vn 0.8390 0.5420 -0.0485
vn -0.3863 0.9222 0.0189
vn -0.1805 0.9626 -0.2020
vn 0.6306 0.7396 0.2351
vn -0.4343 0.7199 0.5415
vn 0.6478 0.7618 -0.0000
vn 0.0516 0.8311 -0.5537
vn 0.4811 0.6944 -0.5351
vn -0.6261 0.7794 0.0254
vn -0.6783 0.7249 -0.1196
vn -0.4823 0.0319 -0.8754
vn -0.4664 0.0293 -0.8841
vn 0.4698 0.2711 -0.8401
vn 0.9909 0.0192 0.1333
vn -0.4620 0.2822 0.8408
vn -0.8192 0.5392 -0.1955
vn 0.9619 0.0208 -0.2726
vn -0.9621 0.0179 0.2721
vn -0.4549 0.0310 0.8900
vn -0.2447 0.9575 0.1529
vn 0.0782 0.9786 0.1905
vn 0.2407 0.9580 -0.1558
vn -0.0707 0.9809 -0.1810
vn -0.6606 0.7466 0.0787
vn 0.6987 0.7106 -0.0821
vn -0.4624 0.7084 -0.5333
vn -0.9172 0.0154 0.3982
vn -0.9999 0.0133 0.0042
vn -0.9999 0.0094 0.0060
vn 0.0604 0.9982 -0.0045
vn 0.0590 0.9982 0.0137
vn 0.6874 0.7262 0.0067
vn -0.9903 0.1388 -0.0004
vn 0.9998 0.0170 -0.0142
vn 0.9999 0.0145 -0.0008
vn 0.9995 0.0120 -0.0293
vn -0.3575 0.9325 0.0516
vn -0.6591 0.7502 0.0528
vn 0.0040 1.0000 0.0073
vn 0.9516 0.0235 -0.3064
vn 0.0001 0.0362 -0.9993
vn 0.0057 0.0291 -0.9996
vn 0.0119 0.2685 0.9632
vn 0.0267 0.0265 0.9993
vn -0.0000 0.2701 -0.9628
vn -0.0019 0.9069 -0.4214
vn -0.0018 0.8047 -0.5937
vn 0.0043 0.9993 0.0375
vn -0.0100 0.9978 -0.0659
vn 0.0042 0.9979 0.0654
vn -0.3131 0.0248 0.9494
vn 0.0445 0.0218 0.9988
vn 0.9187 0.0426 0.3925
vn -0.0879 0.0040 -0.9961
vn -0.5403 0.7057 0.4584
vn -0.4751 0.7998 -0.3670
vn 0.2020 0.9626 -0.1805
vn -0.5415 0.7199 -0.4343
vn 0.1196 0.7249 -0.6783
vn 0.1810 0.9809 -0.0707
vn 0.0821 0.7106 0.6987
vn -0.0528 0.7502 -0.6592
vt 0.922990 0.978771
vt 0.925016 0.775168
vt 0.962695 0.774739
vt 0.969609 0.978244
vt 0.959825 0.221249
vt 0.926680 0.220438
vt 0.935912 0.017318
vt 0.970670 0.017655
vt 0.050561 0.024580
vt 0.071140 0.227750
vt 0.036656 0.229667
vt 0.018773 0.026360
vt 0.221362 0.541109
vt 0.218513 0.538073
vt 0.241571 0.538797
vt 0.241220 0.542453
vt 0.960680 0.559617
vt 0.963012 0.527347
vt 0.970447 0.527713
vt 0.968383 0.567285
vt 0.205371 0.563336
vt 0.236420 0.564226
vt 0.236286 0.571658
vt 0.199744 0.570578
vt 0.952959 0.431305
vt 0.917802 0.430453
vt 0.917857 0.423044
vt 0.958507 0.424139
vt 0.197564 0.435336
vt 0.195350 0.467641
vt 0.187665 0.467212
vt 0.189850 0.427443
vt 0.022073 0.692652
vt 0.051239 0.692685
vt 0.087299 0.893195
vt 0.020325 0.897148
vt 0.917341 0.565255
vt 0.917241 0.555337
vt 0.942146 0.553955
vt 0.952466 0.564544
vt 0.195100 0.525927
vt 0.205548 0.525368
vt 0.207837 0.546558
vt 0.197187 0.558264
vt 0.238623 0.429188
vt 0.238627 0.439307
vt 0.216072 0.440750
vt 0.205772 0.430336
vt 0.964395 0.496221
vt 0.953217 0.496689
vt 0.950717 0.447912
vt 0.961168 0.436415
vt 0.913209 0.543291
vt 0.936763 0.542090
vt 0.218217 0.521196
vt 0.243038 0.451607
vt 0.221730 0.452715
vt 0.940069 0.498752
vt 0.940158 0.456709
vt 0.176815 0.976571
vt 0.181691 0.772720
vt 0.191678 0.773480
vt 0.187240 0.977029
vt 0.958008 0.571831
vt 0.991311 0.018897
vt 0.976097 0.222261
vt 0.200260 0.423191
vt 0.189346 0.565924
vt 0.972694 0.773997
vt 0.968790 0.428872
vt 0.182776 0.221427
vt 0.192699 0.220395
vt 0.950212 0.547809
vt 0.215818 0.552850
vt 0.208142 0.447019
vt 0.942619 0.441697
vt 0.939728 0.539091
vt 0.218767 0.455879
vt 0.937214 0.453721
vt 0.178717 0.017504
vt 0.148220 0.223651
vt 0.147052 0.019486
vt 0.243158 0.455276
vt 0.242902 0.472906
vt 0.218387 0.472879
vt 0.972744 0.495846
vt 0.187408 0.526348
vt 0.138172 0.489161
vt 0.128220 0.692757
vt 0.041814 0.489176
vt 0.205790 0.468159
vt 0.952829 0.526795
vt 0.940358 0.522020
vt 0.241856 0.521207
vt 0.169902 0.489293
vt 0.162621 0.692747
vt 0.217442 0.977424
vt 0.227094 0.774189
vt 0.238681 0.421489
vt 0.252985 0.219954
vt 0.913078 0.539646
vt 0.917350 0.572720
vt 0.236760 0.554380
vt 0.917669 0.440301
vt 0.913586 0.452515
vt 0.913194 0.498880
vt 0.913355 0.456087
vt 0.913176 0.522137
vt 0.090973 0.430533
vt 0.051478 0.434800
vt 0.021133 0.489031
vt 0.980031 0.977810
vt 0.193794 0.016883
vt 0.150173 0.427312
vt 0.119165 0.895492
vt 0.158738 0.897556
vt 0.266783 0.016711
s 1
f 1/1/1 2/2/2 3/3/3
f 3/3/3 4/4/4 1/1/1
f 5/5/5 6/6/6 7/7/7
f 7/7/7 8/8/8 5/5/5
f 9/9/9 10/10/10 11/11/11
f 11/11/11 12/12/12 9/9/9
f 13/13/13 14/14/14 15/15/15
f 15/15/15 16/16/16 13/13/13
f 17/17/17 18/18/18 19/19/19
f 19/19/19 20/20/20 17/17/17
f 21/21/21 22/22/22 23/23/23
f 23/23/23 24/24/24 21/21/21
f 25/25/25 26/26/26 27/27/27
f 27/27/27 28/28/28 25/25/25
f 29/29/29 30/30/30 31/31/31
f 31/31/31 32/32/32 29/29/29
f 33/33/33 34/34/34 35/35/35
f 35/35/35 36/36/36 33/33/33
f 37/37/37 38/38/38 39/39/39
f 39/39/39 40/40/40 37/37/37
f 41/41/41 42/42/42 43/43/43
f 43/43/43 44/44/44 41/41/41
f 45/45/45 46/46/46 47/47/47
f 47/47/47 48/48/48 45/45/45
f 49/49/49 50/50/50 51/51/51
f 51/51/51 52/52/52 49/49/49
f 39/39/39 38/38/38 53/53/53
f 53/53/53 54/54/54 39/39/39
f 42/42/42 55/55/55 14/14/14
f 14/14/14 43/43/43 42/42/42
f 47/47/47 46/46/46 56/56/56
f 56/56/56 57/57/57 47/47/47
f 50/50/50 58/58/58 59/59/59
f 59/59/59 51/51/51 50/50/50
f 12/60/12 11/61/11 60/62/60
f 60/62/60 61/63/61 12/60/12
f 40/40/40 17/17/17 20/20/20
f 20/20/20 62/64/62 40/40/40
f 63/65/63 33/66/33 5/5/5
f 5/5/5 8/8/8 63/65/63
f 48/48/48 29/29/29 32/32/32
f 32/32/32 64/67/64 48/48/48
f 24/24/24 65/68/65 44/44/44
f 44/44/44 21/21/21 24/24/24
f 20/20/20 66/69/66 3/3/3
f 3/3/3 62/64/62 20/20/20
f 28/28/28 36/70/36 52/52/52
f 52/52/52 25/25/25 28/28/28
f 32/32/32 67/71/67 68/72/68
f 68/72/68 64/67/64 32/32/32
f 17/17/17 40/40/40 39/39/39
f 39/39/39 69/73/69 17/17/17
f 21/21/21 44/44/44 43/43/43
f 43/43/43 70/74/70 21/21/21
f 29/29/29 48/48/48 47/47/47
f 47/47/47 71/75/71 29/29/29
f 25/25/25 52/52/52 51/51/51
f 51/51/51 72/76/72 25/25/25
f 69/73/69 39/39/39 54/54/54
f 54/54/54 73/77/73 69/73/69
f 70/74/70 43/43/43 14/14/14
f 14/14/14 13/13/13 70/74/70
f 71/75/71 47/47/47 57/57/57
f 57/57/57 74/78/74 71/75/71
f 72/76/72 51/51/51 59/59/59
f 59/59/59 75/79/75 72/76/72
f 76/80/76 67/71/67 77/81/77
f 77/81/77 78/82/78 76/80/76
f 74/78/74 79/83/79 80/84/80
f 80/84/80 81/85/81 74/78/74
f 52/52/52 36/70/36 35/86/35
f 35/86/35 49/49/49 52/52/52
f 41/41/41 82/87/82 31/31/31
f 31/31/31 30/30/30 41/41/41
f 83/88/83 84/89/84 34/34/34
f 34/34/34 85/90/85 83/88/83
f 30/30/30 29/29/29 71/75/71
f 71/75/71 86/91/42 30/30/30
f 18/18/18 87/92/86 50/50/50
f 50/50/50 49/49/49 18/18/18
f 71/75/71 74/78/74 81/85/81
f 81/85/81 86/91/42 71/75/71
f 87/92/86 88/93/87 58/58/58
f 58/58/58 50/50/50 87/92/86
f 78/82/78 77/81/77 10/10/10
f 10/10/10 9/9/9 78/82/78
f 81/85/81 80/84/80 89/94/88
f 89/94/88 55/55/55 81/85/81
f 49/49/49 35/86/35 19/19/19
f 19/19/19 18/18/18 49/49/49
f 30/30/30 86/91/42 42/42/42
f 42/42/42 41/41/41 30/30/30
f 86/91/42 81/85/81 55/55/55
f 55/55/55 42/42/42 86/91/42
f 44/44/44 65/68/65 82/87/82
f 82/87/82 41/41/41 44/44/44
f 90/95/89 66/96/66 84/89/84
f 84/89/84 83/88/83 90/95/89
f 18/18/18 17/17/17 69/73/69
f 69/73/69 87/92/86 18/18/18
f 69/73/69 73/77/73 88/93/87
f 88/93/87 87/92/86 69/73/69
f 91/97/90 92/98/91 2/2/2
f 2/2/2 1/1/1 91/97/90
f 27/27/27 93/99/92 94/100/93
f 94/100/93 6/6/6 27/27/27
f 54/54/54 53/53/53 95/101/15
f 95/101/15 73/77/73 54/54/54
f 40/40/40 62/64/62 96/102/94
f 96/102/94 37/37/37 40/40/40
f 45/45/45 93/99/92 27/27/27
f 27/27/27 26/26/26 45/45/45
f 22/22/22 97/103/38 38/38/38
f 38/38/38 37/37/37 22/22/22
f 26/26/26 25/25/25 72/76/72
f 72/76/72 98/104/95 26/26/26
f 97/103/38 16/16/16 53/53/53
f 53/53/53 38/38/38 97/103/38
f 72/76/72 75/79/75 99/105/96
f 99/105/96 98/104/95 72/76/72
f 58/58/58 100/106/97 101/107/98
f 101/107/98 59/59/59 58/58/58
f 58/58/58 88/93/87 102/108/99
f 102/108/99 100/106/97 58/58/58
f 53/53/53 16/16/16 15/15/15
f 15/15/15 95/101/15 53/53/53
f 37/37/37 96/102/94 23/23/23
f 23/23/23 22/22/22 37/37/37
f 26/26/26 98/104/95 46/46/46
f 46/46/46 45/45/45 26/26/26
f 98/104/95 99/105/96 56/56/56
f 56/56/56 46/46/46 98/104/95
f 100/106/97 80/84/80 79/83/79
f 79/83/79 101/107/98 100/106/97
f 80/84/80 100/106/97 102/108/99
f 102/108/99 89/94/88 80/84/80
f 91/97/90 61/63/61 60/62/60
f 60/62/60 92/98/91 91/97/90
f 93/99/92 64/67/64 68/72/68
f 68/72/68 94/100/93 93/99/92
f 48/48/48 64/67/64 93/99/92
f 93/99/92 45/45/45 48/48/48
f 22/22/22 21/21/21 70/74/70
f 70/74/70 97/103/38 22/22/22
f 70/74/70 13/13/13 16/16/16
f 16/16/16 97/103/38 70/74/70
f 2/2/2 96/102/94 62/64/62
f 62/64/62 3/3/3 2/2/2
f 28/28/28 27/27/27 6/6/6
f 6/6/6 5/5/5 28/28/28
f 82/109/82 65/110/65 11/11/11
f 11/11/11 10/10/10 82/109/82
f 63/111/63 85/90/85 34/34/34
f 34/34/34 33/33/33 63/111/63
f 65/68/65 24/24/24 60/62/60
f 60/62/60 11/61/11 65/68/65
f 36/70/36 28/28/28 5/5/5
f 5/5/5 33/66/33 36/70/36
f 90/112/89 4/4/4 3/3/3
f 3/3/3 66/69/66 90/112/89
f 76/80/76 103/113/100 68/72/68
f 68/72/68 67/71/67 76/80/76
f 32/32/32 31/114/31 77/81/77
f 77/81/77 67/71/67 32/32/32
f 19/115/19 35/35/35 34/34/34
f 34/34/34 84/89/84 19/115/19
f 31/114/31 82/109/82 10/10/10
f 10/10/10 77/81/77 31/114/31
f 20/116/20 19/115/19 84/89/84
f 84/89/84 66/96/66 20/116/20
f 23/23/23 96/102/94 2/2/2
f 2/2/2 92/98/91 23/23/23
f 104/117/101 7/7/7 6/6/6
f 6/6/6 94/100/93 104/117/101
f 24/24/24 23/23/23 92/98/91
f 92/98/91 60/62/60 24/24/24
f 103/113/100 104/117/101 94/100/93
f 94/100/93 68/72/68 103/113/100
f 55/55/55 89/94/88 15/15/15
f 15/15/15 14/14/14 55/55/55
f 89/94/88 102/108/99 95/101/15
f 95/101/15 15/15/15 89/94/88
f 102/108/99 88/93/87 73/77/73
f 73/77/73 95/101/15 102/108/99
f 57/57/57 56/56/56 79/83/79
f 79/83/79 74/78/74 57/57/57
f 56/56/56 99/105/96 101/107/98
f 101/107/98 79/83/79 56/56/56
f 101/107/98 99/105/96 75/79/75
f 75/79/75 59/59/59 101/107/98
f 105/1/102 106/2/103 107/3/104
f 107/3/104 108/4/105 105/1/102
f 109/5/106 110/6/107 111/7/108
f 111/7/108 112/8/109 109/5/106
f 113/9/110 114/10/111 115/11/112
f 115/11/112 116/12/113 113/9/110
f 117/13/114 118/14/115 119/15/15
f 119/15/15 120/16/16 117/13/114
f 121/17/116 122/18/117 123/19/118
f 123/19/118 124/20/119 121/17/116
f 125/21/120 126/22/22 127/23/121
f 127/23/121 128/24/122 125/21/120
f 129/25/123 130/26/124 131/27/125
f 131/27/125 132/28/126 129/25/123
f 133/29/127 134/30/128 135/31/129
f 135/31/129 136/32/130 133/29/127
f 137/33/131 138/34/132 139/35/133
f 139/35/133 140/36/134 137/33/131
f 141/37/37 142/38/38 143/39/135
f 143/39/135 144/40/136 141/37/37
f 145/41/137 146/42/138 147/43/139
f 147/43/139 148/44/140 145/41/137
f 149/45/141 150/46/142 151/47/143
f 151/47/143 152/48/144 149/45/141
f 153/49/145 154/50/146 155/51/147
f 155/51/147 156/52/148 153/49/145
f 143/39/135 142/38/38 157/53/53
f 157/53/53 158/54/149 143/39/135
f 146/42/138 159/55/150 118/14/115
f 118/14/115 147/43/139 146/42/138
f 151/47/143 150/46/142 160/56/151
f 160/56/151 161/57/152 151/47/143
f 154/50/146 162/58/153 163/59/154
f 163/59/154 155/51/147 154/50/146
f 116/60/113 115/61/112 164/62/155
f 164/62/155 165/63/156 116/60/113
f 144/40/136 121/17/116 124/20/119
f 124/20/119 166/64/157 144/40/136
f 167/65/158 137/66/131 109/5/106
f 109/5/106 112/8/109 167/65/158
f 152/48/144 133/29/127 136/32/130
f 136/32/130 168/67/159 152/48/144
f 128/24/122 169/68/160 148/44/140
f 148/44/140 125/21/120 128/24/122
f 124/20/119 170/69/161 107/3/104
f 107/3/104 166/64/157 124/20/119
f 132/28/126 140/70/134 156/52/148
f 156/52/148 129/25/123 132/28/126
f 136/32/130 171/71/162 172/72/163
f 172/72/163 168/67/159 136/32/130
f 121/17/116 144/40/136 143/39/135
f 143/39/135 173/73/164 121/17/116
f 125/21/120 148/44/140 147/43/139
f 147/43/139 174/74/165 125/21/120
f 133/29/127 152/48/144 151/47/143
f 151/47/143 175/75/166 133/29/127
f 129/25/123 156/52/148 155/51/147
f 155/51/147 176/76/167 129/25/123
f 173/73/164 143/39/135 158/54/149
f 158/54/149 177/77/168 173/73/164
f 174/74/165 147/43/139 118/14/115
f 118/14/115 117/13/114 174/74/165
f 175/75/166 151/47/143 161/57/152
f 161/57/152 178/78/169 175/75/166
f 176/76/167 155/51/147 163/59/154
f 163/59/154 179/79/170 176/76/167
f 180/80/171 171/71/162 181/81/172
f 181/81/172 182/82/173 180/80/171
f 178/78/169 183/83/174 184/84/175
f 184/84/175 185/85/176 178/78/169
f 156/52/148 140/70/134 139/86/133
f 139/86/133 153/49/145 156/52/148
f 145/41/137 186/87/177 135/31/129
f 135/31/129 134/30/128 145/41/137
f 187/88/178 188/89/179 138/34/132
f 138/34/132 189/90/180 187/88/178
f 134/30/128 133/29/127 175/75/166
f 175/75/166 190/91/138 134/30/128
f 122/18/117 191/92/181 154/50/146
f 154/50/146 153/49/145 122/18/117
f 175/75/166 178/78/169 185/85/176
f 185/85/176 190/91/138 175/75/166
f 191/92/181 192/93/182 162/58/153
f 162/58/153 154/50/146 191/92/181
f 182/82/173 181/81/172 114/10/111
f 114/10/111 113/9/110 182/82/173
f 185/85/176 184/84/175 193/94/88
f 193/94/88 159/55/150 185/85/176
f 153/49/145 139/86/133 123/19/118
f 123/19/118 122/18/117 153/49/145
f 134/30/128 190/91/138 146/42/138
f 146/42/138 145/41/137 134/30/128
f 190/91/138 185/85/176 159/55/150
f 159/55/150 146/42/138 190/91/138
f 148/44/140 169/68/160 186/87/177
f 186/87/177 145/41/137 148/44/140
f 194/95/183 170/96/161 188/89/179
f 188/89/179 187/88/178 194/95/183
f 122/18/117 121/17/116 173/73/164
f 173/73/164 191/92/181 122/18/117
f 173/73/164 177/77/168 192/93/182
f 192/93/182 191/92/181 173/73/164
f 195/97/184 196/98/185 106/2/103
f 106/2/103 105/1/102 195/97/184
f 131/27/125 197/99/186 198/100/187
f 198/100/187 110/6/107 131/27/125
f 158/54/149 157/53/53 199/101/15
f 199/101/15 177/77/168 158/54/149
f 144/40/136 166/64/157 200/102/94
f 200/102/94 141/37/37 144/40/136
f 149/45/141 197/99/186 131/27/125
f 131/27/125 130/26/124 149/45/141
f 126/22/22 201/103/38 142/38/38
f 142/38/38 141/37/37 126/22/22
f 130/26/124 129/25/123 176/76/167
f 176/76/167 202/104/188 130/26/124
f 201/103/38 120/16/16 157/53/53
f 157/53/53 142/38/38 201/103/38
f 176/76/167 179/79/170 203/105/189
f 203/105/189 202/104/188 176/76/167
f 162/58/153 204/106/190 205/107/191
f 205/107/191 163/59/154 162/58/153
f 162/58/153 192/93/182 206/108/192
f 206/108/192 204/106/190 162/58/153
f 157/53/53 120/16/16 119/15/15
f 119/15/15 199/101/15 157/53/53
f 141/37/37 200/102/94 127/23/121
f 127/23/121 126/22/22 141/37/37
f 130/26/124 202/104/188 150/46/142
f 150/46/142 149/45/141 130/26/124
f 202/104/188 203/105/189 160/56/151
f 160/56/151 150/46/142 202/104/188
f 204/106/190 184/84/175 183/83/174
f 183/83/174 205/107/191 204/106/190
f 184/84/175 204/106/190 206/108/192
f 206/108/192 193/94/88 184/84/175
f 195/97/184 165/63/156 164/62/155
f 164/62/155 196/98/185 195/97/184
f 197/99/186 168/67/159 172/72/163
f 172/72/163 198/100/187 197/99/186
f 152/48/144 168/67/159 197/99/186
f 197/99/186 149/45/141 152/48/144
f 126/22/22 125/21/120 174/74/165
f 174/74/165 201/103/38 126/22/22
f 174/74/165 117/13/114 120/16/16
f 120/16/16 201/103/38 174/74/165
f 106/2/103 200/102/94 166/64/157
f 166/64/157 107/3/104 106/2/103
f 132/28/126 131/27/125 110/6/107
f 110/6/107 109/5/106 132/28/126
f 186/109/177 169/110/160 115/11/112
f 115/11/112 114/10/111 186/109/177
f 167/111/158 189/90/180 138/34/132
f 138/34/132 137/33/131 167/111/158
f 169/68/160 128/24/122 164/62/155
f 164/62/155 115/61/112 169/68/160
f 140/70/134 132/28/126 109/5/106
f 109/5/106 137/66/131 140/70/134
f 194/112/183 108/4/105 107/3/104
f 107/3/104 170/69/161 194/112/183
f 180/80/171 207/113/193 172/72/163
f 172/72/163 171/71/162 180/80/171
f 136/32/130 135/114/129 181/81/172
f 181/81/172 171/71/162 136/32/130
f 123/115/118 139/35/133 138/34/132
f 138/34/132 188/89/179 123/115/118
f 135/114/129 186/109/177 114/10/111
f 114/10/111 181/81/172 135/114/129
f 124/116/119 123/115/118 188/89/179
f 188/89/179 170/96/161 124/116/119
f 127/23/121 200/102/94 106/2/103
f 106/2/103 196/98/185 127/23/121
f 208/117/194 111/7/108 110/6/107
f 110/6/107 198/100/187 208/117/194
f 128/24/122 127/23/121 196/98/185
f 196/98/185 164/62/155 128/24/122
f 207/113/193 208/117/194 198/100/187
f 198/100/187 172/72/163 207/113/193
f 159/55/150 193/94/88 119/15/15
f 119/15/15 118/14/115 159/55/150
f 193/94/88 206/108/192 199/101/15
f 199/101/15 119/15/15 193/94/88
f 206/108/192 192/93/182 177/77/168
f 177/77/168 199/101/15 206/108/192
f 161/57/152 160/56/151 183/83/174
f 183/83/174 178/78/169 161/57/152
f 160/56/151 203/105/189 205/107/191
f 205/107/191 183/83/174 160/56/151
f 205/107/191 203/105/189 179/79/170
f 179/79/170 163/59/154 205/107/191
f 209/1/195 210/2/196 211/3/197
f 211/3/197 212/4/198 209/1/195
f 213/5/199 214/6/200 215/7/201
f 215/7/201 216/8/202 213/5/199
f 217/9/203 218/10/204 219/11/205
f 219/11/205 220/12/206 217/9/203
f 221/13/207 222/14/208 223/15/15
f 223/15/15 224/16/209 221/13/207
f 225/17/210 226/18/211 227/19/212
f 227/19/212 228/20/213 225/17/210
f 229/21/214 230/22/215 231/23/216
f 231/23/216 232/24/217 229/21/214
f 233/25/218 234/26/219 235/27/220
f 235/27/220 236/28/221 233/25/218
f 237/29/222 238/30/223 239/31/224
f 239/31/224 240/32/225 237/29/222
f 241/33/226 242/34/227 243/35/228
f 243/35/228 244/36/229 241/33/226
f 245/37/230 246/38/231 247/39/232
f 247/39/232 248/40/233 245/37/230
f 249/41/234 250/42/235 251/43/236
f 251/43/236 252/44/237 249/41/234
f 253/45/238 254/46/239 255/47/240
f 255/47/240 256/48/241 253/45/238
f 257/49/242 258/50/243 259/51/244
f 259/51/244 260/52/245 257/49/242
f 247/39/232 246/38/231 261/53/209
f 261/53/209 262/54/246 247/39/232
f 250/42/235 263/55/247 222/14/208
f 222/14/208 251/43/236 250/42/235
f 255/47/240 254/46/239 264/56/248
f 264/56/248 265/57/249 255/47/240
f 258/50/243 266/58/250 267/59/251
f 267/59/251 259/51/244 258/50/243
f 220/60/206 219/61/205 268/62/252
f 268/62/252 269/63/253 220/60/206
f 248/40/233 225/17/210 228/20/213
f 228/20/213 270/64/254 248/40/233
f 271/65/255 241/66/226 213/5/199
f 213/5/199 216/8/202 271/65/255
f 256/48/241 237/29/222 240/32/225
f 240/32/225 272/67/256 256/48/241
f 232/24/217 273/68/257 252/44/237
f 252/44/237 229/21/214 232/24/217
f 228/20/213 274/69/258 211/3/197
f 211/3/197 270/64/254 228/20/213
f 236/28/221 244/70/229 260/52/245
f 260/52/245 233/25/218 236/28/221
f 240/32/225 275/71/259 276/72/260
f 276/72/260 272/67/256 240/32/225
f 225/17/210 248/40/233 247/39/232
f 247/39/232 277/73/261 225/17/210
f 229/21/214 252/44/237 251/43/236
f 251/43/236 278/74/262 229/21/214
f 237/29/222 256/48/241 255/47/240
f 255/47/240 279/75/263 237/29/222
f 233/25/218 260/52/245 259/51/244
f 259/51/244 280/76/264 233/25/218
f 277/73/261 247/39/232 262/54/246
f 262/54/246 281/77/265 277/73/261
f 278/74/262 251/43/236 222/14/208
f 222/14/208 221/13/207 278/74/262
f 279/75/263 255/47/240 265/57/249
f 265/57/249 282/78/266 279/75/263
f 280/76/264 259/51/244 267/59/251
f 267/59/251 283/79/267 280/76/264
f 284/80/268 275/71/259 285/81/269
f 285/81/269 286/82/270 284/80/268
f 282/78/266 287/83/271 288/84/272
f 288/84/272 289/85/273 282/78/266
f 260/52/245 244/70/229 243/86/228
f 243/86/228 257/49/242 260/52/245
f 249/41/234 290/87/274 239/31/224
f 239/31/224 238/30/223 249/41/234
f 291/88/275 292/89/276 242/34/227
f 242/34/227 293/90/277 291/88/275
f 238/30/223 237/29/222 279/75/263
f 279/75/263 294/91/235 238/30/223
f 226/18/211 295/92/278 258/50/243
f 258/50/243 257/49/242 226/18/211
f 279/75/263 282/78/266 289/85/273
f 289/85/273 294/91/235 279/75/263
f 295/92/278 296/93/279 266/58/250
f 266/58/250 258/50/243 295/92/278
f 286/82/270 285/81/269 218/10/204
f 218/10/204 217/9/203 286/82/270
f 289/85/273 288/84/272 297/94/280
f 297/94/280 263/55/247 289/85/273
f 257/49/242 243/86/228 227/19/212
f 227/19/212 226/18/211 257/49/242
f 238/30/223 294/91/235 250/42/235
f 250/42/235 249/41/234 238/30/223
f 294/91/235 289/85/273 263/55/247
f 263/55/247 250/42/235 294/91/235
f 252/44/237 273/68/257 290/87/274
f 290/87/274 249/41/234 252/44/237
f 298/95/281 274/96/258 292/89/276
f 292/89/276 291/88/275 298/95/281
f 226/18/211 225/17/210 277/73/261
f 277/73/261 295/92/278 226/18/211
f 277/73/261 281/77/265 296/93/279
f 296/93/279 295/92/278 277/73/261
f 299/97/282 300/98/283 210/2/196
f 210/2/196 209/1/195 299/97/282
f 235/27/220 301/99/284 302/100/285
f 302/100/285 214/6/200 235/27/220
f 262/54/246 261/53/209 303/101/15
f 303/101/15 281/77/265 262/54/246
f 248/40/233 270/64/254 304/102/286
f 304/102/286 245/37/230 248/40/233
f 253/45/238 301/99/284 235/27/220
f 235/27/220 234/26/219 253/45/238
f 230/22/215 305/103/231 246/38/231
f 246/38/231 245/37/230 230/22/215
f 234/26/219 233/25/218 280/76/264
f 280/76/264 306/104/287 234/26/219
f 305/103/231 224/16/209 261/53/209
f 261/53/209 246/38/231 305/103/231
f 280/76/264 283/79/267 307/105/288
f 307/105/288 306/104/287 280/76/264
f 266/58/250 308/106/289 309/107/290
f 309/107/290 267/59/251 266/58/250
f 266/58/250 296/93/279 310/108/291
f 310/108/291 308/106/289 266/58/250
f 261/53/209 224/16/209 223/15/15
f 223/15/15 303/101/15 261/53/209
f 245/37/230 304/102/286 231/23/216
f 231/23/216 230/22/215 245/37/230
f 234/26/219 306/104/287 254/46/239
f 254/46/239 253/45/238 234/26/219
f 306/104/287 307/105/288 264/56/248
f 264/56/248 254/46/239 306/104/287
f 308/106/289 288/84/272 287/83/271
f 287/83/271 309/107/290 308/106/289
f 288/84/272 308/106/289 310/108/291
f 310/108/291 297/94/280 288/84/272
f 299/97/282 269/63/253 268/62/252
f 268/62/252 300/98/283 299/97/282
f 301/99/284 272/67/256 276/72/260
f 276/72/260 302/100/285 301/99/284
f 256/48/241 272/67/256 301/99/284
f 301/99/284 253/45/238 256/48/241
f 230/22/215 229/21/214 278/74/262
f 278/74/262 305/103/231 230/22/215
f 278/74/262 221/13/207 224/16/209
f 224/16/209 305/103/231 278/74/262
f 210/2/196 304/102/286 270/64/254
f 270/64/254 211/3/197 210/2/196
f 236/28/221 235/27/220 214/6/200
f 214/6/200 213/5/199 236/28/221
f 290/109/274 273/110/257 219/11/205
f 219/11/205 218/10/204 290/109/274
f 271/111/255 293/90/277 242/34/227
f 242/34/227 241/33/226 271/111/255
f 273/68/257 232/24/217 268/62/252
f 268/62/252 219/61/205 273/68/257
f 244/70/229 236/28/221 213/5/199
f 213/5/199 241/66/226 244/70/229
f 298/112/281 212/4/198 211/3/197
f 211/3/197 274/69/258 298/112/281
f 284/80/268 311/113/292 276/72/260
f 276/72/260 275/71/259 284/80/268
f 240/32/225 239/114/224 285/81/269
f 285/81/269 275/71/259 240/32/225
f 227/115/212 243/35/228 242/34/227
f 242/34/227 292/89/276 227/115/212
f 239/114/224 290/109/274 218/10/204
f 218/10/204 285/81/269 239/114/224
f 228/116/213 227/115/212 292/89/276
f 292/89/276 274/96/258 228/116/213
f 231/23/216 304/102/286 210/2/196
f 210/2/196 300/98/283 231/23/216
f 312/117/293 215/7/201 214/6/200
f 214/6/200 302/100/285 312/117/293
f 232/24/217 231/23/216 300/98/283
f 300/98/283 268/62/252 232/24/217
f 311/113/292 312/117/293 302/100/285
f 302/100/285 276/72/260 311/113/292
f 263/55/247 297/94/280 223/15/15
f 223/15/15 222/14/208 263/55/247
f 297/94/280 310/108/291 303/101/15
f 303/101/15 223/15/15 297/94/280
f 310/108/291 296/93/279 281/77/265
f 281/77/265 303/101/15 310/108/291
f 265/57/249 264/56/248 287/83/271
f 287/83/271 282/78/266 265/57/249
f 264/56/248 307/105/288 309/107/290
f 309/107/290 287/83/271 264/56/248
f 309/107/290 307/105/288 283/79/267
f 283/79/267 267/59/251 309/107/290
f 313/1/195 314/2/196 315/3/197
f 315/3/197 316/4/198 313/1/195
f 317/5/199 318/6/200 319/7/201
f 319/7/201 320/8/202 317/5/199
f 321/9/203 322/10/204 323/11/205
f 323/11/205 324/12/206 321/9/203
f 325/13/207 326/14/208 327/15/15
f 327/15/15 328/16/209 325/13/207
f 329/17/210 330/18/211 331/19/212
f 331/19/212 332/20/213 329/17/210
f 333/21/214 334/22/215 335/23/216
f 335/23/216 336/24/217 333/21/214
f 337/25/218 338/26/219 339/27/220
f 339/27/220 340/28/221 337/25/218
f 341/29/222 342/30/223 343/31/224
f 343/31/224 344/32/225 341/29/222
f 345/33/226 346/34/227 347/35/228
f 347/35/228 348/36/229 345/33/226
f 349/37/230 350/38/231 351/39/232
f 351/39/232 352/40/233 349/37/230
f 353/41/234 354/42/235 355/43/236
f 355/43/236 356/44/237 353/41/234
f 357/45/238 358/46/239 359/47/240
f 359/47/240 360/48/241 357/45/238
f 361/49/242 362/50/243 363/51/294
f 363/51/294 364/52/245 361/49/242
f 351/39/232 350/38/231 365/53/209
f 365/53/209 366/54/246 351/39/232
f 354/42/235 367/55/247 326/14/208
f 326/14/208 355/43/236 354/42/235
f 359/47/240 358/46/239 368/56/248
f 368/56/248 369/57/295 359/47/240
f 362/50/243 370/58/250 371/59/251
f 371/59/251 363/51/294 362/50/243
f 324/60/206 323/61/205 372/62/252
f 372/62/252 373/63/253 324/60/206
f 352/40/233 329/17/210 332/20/213
f 332/20/213 374/64/254 352/40/233
f 375/65/255 345/66/226 317/5/199
f 317/5/199 320/8/202 375/65/255
f 360/48/241 341/29/222 344/32/225
f 344/32/225 376/67/256 360/48/241
f 336/24/217 377/68/257 356/44/237
f 356/44/237 333/21/214 336/24/217
f 332/20/213 378/69/258 315/3/197
f 315/3/197 374/64/254 332/20/213
f 340/28/221 348/70/229 364/52/245
f 364/52/245 337/25/218 340/28/221
f 344/32/225 379/71/259 380/72/260
f 380/72/260 376/67/256 344/32/225
f 329/17/210 352/40/233 351/39/232
f 351/39/232 381/73/261 329/17/210
f 333/21/214 356/44/237 355/43/236
f 355/43/236 382/74/262 333/21/214
f 341/29/222 360/48/241 359/47/240
f 359/47/240 383/75/296 341/29/222
f 337/25/218 364/52/245 363/51/294
f 363/51/294 384/76/264 337/25/218
f 381/73/261 351/39/232 366/54/246
f 366/54/246 385/77/265 381/73/261
f 382/74/262 355/43/236 326/14/208
f 326/14/208 325/13/207 382/74/262
f 383/75/296 359/47/240 369/57/295
f 369/57/295 386/78/266 383/75/296
f 384/76/264 363/51/294 371/59/251
f 371/59/251 387/79/267 384/76/264
f 388/80/268 379/71/259 389/81/269
f 389/81/269 390/82/270 388/80/268
f 386/78/266 391/83/271 392/84/272
f 392/84/272 393/85/273 386/78/266
f 364/52/245 348/70/229 347/86/228
f 347/86/228 361/49/242 364/52/245
f 353/41/234 394/87/274 343/31/224
f 343/31/224 342/30/223 353/41/234
f 395/88/275 396/89/276 346/34/227
f 346/34/227 397/90/277 395/88/275
f 342/30/223 341/29/222 383/75/296
f 383/75/296 398/91/235 342/30/223
f 330/18/211 399/92/278 362/50/243
f 362/50/243 361/49/242 330/18/211
f 383/75/296 386/78/266 393/85/273
f 393/85/273 398/91/235 383/75/296
f 399/92/278 400/93/279 370/58/250
f 370/58/250 362/50/243 399/92/278
f 390/82/270 389/81/269 322/10/204
f 322/10/204 321/9/203 390/82/270
f 393/85/273 392/84/272 401/94/280
f 401/94/280 367/55/247 393/85/273
f 361/49/242 347/86/228 331/19/212
f 331/19/212 330/18/211 361/49/242
f 342/30/223 398/91/235 354/42/235
f 354/42/235 353/41/234 342/30/223
f 398/91/235 393/85/273 367/55/247
f 367/55/247 354/42/235 398/91/235
f 356/44/237 377/68/257 394/87/274
f 394/87/274 353/41/234 356/44/237
f 402/95/281 378/96/258 396/89/276
f 396/89/276 395/88/275 402/95/281
f 330/18/211 329/17/210 381/73/261
f 381/73/261 399/92/278 330/18/211
f 381/73/261 385/77/265 400/93/279
f 400/93/279 399/92/278 381/73/261
f 403/97/282 404/98/283 314/2/196
f 314/2/196 313/1/195 403/97/282
f 339/27/220 405/99/284 406/100/285
f 406/100/285 318/6/200 339/27/220
f 366/54/246 365/53/209 407/101/15
f 407/101/15 385/77/265 366/54/246
f 352/40/233 374/64/254 408/102/286
f 408/102/286 349/37/230 352/40/233
f 357/45/238 405/99/284 339/27/220
f 339/27/220 338/26/219 357/45/238
f 334/22/215 409/103/231 350/38/231
f 350/38/231 349/37/230 334/22/215
f 338/26/219 337/25/218 384/76/264
f 384/76/264 410/104/287 338/26/219
f 409/103/231 328/16/209 365/53/209
f 365/53/209 350/38/231 409/103/231
f 384/76/264 387/79/267 411/105/288
f 411/105/288 410/104/287 384/76/264
f 370/58/250 412/106/289 413/107/290
f 413/107/290 371/59/251 370/58/250
f 370/58/250 400/93/279 414/108/291
f 414/108/291 412/106/289 370/58/250
f 365/53/209 328/16/209 327/15/15
f 327/15/15 407/101/15 365/53/209
f 349/37/230 408/102/286 335/23/216
f 335/23/216 334/22/215 349/37/230
f 338/26/219 410/104/287 358/46/239
f 358/46/239 357/45/238 338/26/219
f 410/104/287 411/105/288 368/56/248
f 368/56/248 358/46/239 410/104/287
f 412/106/289 392/84/272 391/83/271
f 391/83/271 413/107/290 412/106/289
f 392/84/272 412/106/289 414/108/291
f 414/108/291 401/94/280 392/84/272
f 403/97/282 373/63/253 372/62/252
f 372/62/252 404/98/283 403/97/282
f 405/99/284 376/67/256 380/72/260
f 380/72/260 406/100/285 405/99/284
f 360/48/241 376/67/256 405/99/284
f 405/99/284 357/45/238 360/48/241
f 334/22/215 333/21/214 382/74/262
f 382/74/262 409/103/231 334/22/215
f 382/74/262 325/13/207 328/16/209
f 328/16/209 409/103/231 382/74/262
f 314/2/196 408/102/286 374/64/254
f 374/64/254 315/3/197 314/2/196
f 340/28/221 339/27/220 318/6/200
f 318/6/200 317/5/199 340/28/221
f 394/109/274 377/110/257 323/11/205
f 323/11/205 322/10/204 394/109/274
f 375/111/255 397/90/277 346/34/227
f 346/34/227 345/33/226 375/111/255
f 377/68/257 336/24/217 372/62/252
f 372/62/252 323/61/205 377/68/257
f 348/70/229 340/28/221 317/5/199
f 317/5/199 345/66/226 348/70/229
f 402/112/281 316/4/198 315/3/197
f 315/3/197 378/69/258 402/112/281
f 388/80/268 415/113/292 380/72/260
f 380/72/260 379/71/259 388/80/268
f 344/32/225 343/114/224 389/81/269
f 389/81/269 379/71/259 344/32/225
f 331/115/212 347/35/228 346/34/227
f 346/34/227 396/89/276 331/115/212
f 343/114/224 394/109/274 322/10/204
f 322/10/204 389/81/269 343/114/224
f 332/116/213 331/115/212 396/89/276
f 396/89/276 378/96/258 332/116/213
f 335/23/216 408/102/286 314/2/196
f 314/2/196 404/98/283 335/23/216
f 416/117/293 319/7/201 318/6/200
f 318/6/200 406/100/285 416/117/293
f 336/24/217 335/23/216 404/98/283
f 404/98/283 372/62/252 336/24/217
f 415/113/292 416/117/293 406/100/285
f 406/100/285 380/72/260 415/113/292
f 367/55/247 401/94/280 327/15/15
f 327/15/15 326/14/208 367/55/247
f 401/94/280 414/108/291 407/101/15
f 407/101/15 327/15/15 401/94/280
f 414/108/291 400/93/279 385/77/265
f 385/77/265 407/101/15 414/108/291
f 369/57/295 368/56/248 391/83/271
f 391/83/271 386/78/266 369/57/295
f 368/56/248 411/105/288 413/107/290
f 413/107/290 391/83/271 368/56/248
f 413/107/290 411/105/288 387/79/267
f 387/79/267 371/59/251 413/107/290
f 417/1/297 418/2/298 419/3/299
f 419/3/299 420/4/300 417/1/297
f 421/5/301 422/6/302 423/7/303
f 423/7/303 424/8/304 421/5/301
f 425/9/305 426/10/306 427/11/307
f 427/11/307 428/12/308 425/9/305
f 429/13/309 430/14/310 431/15/15
f 431/15/15 432/16/311 429/13/309
f 433/17/312 434/18/313 435/19/314
f 435/19/314 436/20/315 433/17/312
f 437/21/316 438/22/317 439/23/318
f 439/23/318 440/24/319 437/21/316
f 441/25/320 442/26/321 443/27/322
f 443/27/322 444/28/323 441/25/320
f 445/29/324 446/30/325 447/31/326
f 447/31/326 448/32/327 445/29/324
f 449/33/328 450/34/329 451/35/330
f 451/35/330 452/36/331 449/33/328
f 453/37/332 454/38/333 455/39/334
f 455/39/334 456/40/335 453/37/332
f 457/41/336 458/42/337 459/43/338
f 459/43/338 460/44/339 457/41/336
f 461/45/340 462/46/341 463/47/342
f 463/47/342 464/48/343 461/45/340
f 465/49/344 466/50/345 467/51/346
f 467/51/346 468/52/347 465/49/344
f 455/39/334 454/38/333 469/53/311
f 469/53/311 470/54/348 455/39/334
f 458/42/337 471/55/349 430/14/310
f 430/14/310 459/43/338 458/42/337
f 463/47/342 462/46/341 472/56/350
f 472/56/350 473/57/351 463/47/342
f 466/50/345 474/58/352 475/59/353
f 475/59/353 467/51/346 466/50/345
f 428/60/308 427/61/307 476/62/354
f 476/62/354 477/63/355 428/60/308
f 456/40/335 433/17/312 436/20/315
f 436/20/315 478/64/356 456/40/335
f 479/65/357 449/66/328 421/5/301
f 421/5/301 424/8/304 479/65/357
f 464/48/343 445/29/324 448/32/327
f 448/32/327 480/67/358 464/48/343
f 440/24/319 481/68/359 460/44/339
f 460/44/339 437/21/316 440/24/319
f 436/20/315 482/69/360 419/3/299
f 419/3/299 478/64/356 436/20/315
f 444/28/323 452/70/331 468/52/347
f 468/52/347 441/25/320 444/28/323
f 448/32/327 483/71/361 484/72/362
f 484/72/362 480/67/358 448/32/327
f 433/17/312 456/40/335 455/39/334
f 455/39/334 485/73/363 433/17/312
f 437/21/316 460/44/339 459/43/338
f 459/43/338 486/74/364 437/21/316
f 445/29/324 464/48/343 463/47/342
f 463/47/342 487/75/365 445/29/324
f 441/25/320 468/52/347 467/51/346
f 467/51/346 488/76/366 441/25/320
f 485/73/363 455/39/334 470/54/348
f 470/54/348 489/77/367 485/73/363
f 486/74/364 459/43/338 430/14/310
f 430/14/310 429/13/309 486/74/364
f 487/75/365 463/47/342 473/57/351
f 473/57/351 490/78/368 487/75/365
f 488/76/366 467/51/346 475/59/353
f 475/59/353 491/79/369 488/76/366
f 492/80/370 483/71/361 493/81/371
f 493/81/371 494/82/372 492/80/370
f 490/78/368 495/83/373 496/84/374
f 496/84/374 497/85/375 490/78/368
f 468/52/347 452/70/331 451/86/330
f 451/86/330 465/49/344 468/52/347
f 457/41/336 498/87/376 447/31/326
f 447/31/326 446/30/325 457/41/336
f 499/88/377 500/89/378 450/34/329
f 450/34/329 501/90/379 499/88/377
f 446/30/325 445/29/324 487/75/365
f 487/75/365 502/91/337 446/30/325
f 434/18/313 503/92/380 466/50/345
f 466/50/345 465/49/344 434/18/313
f 487/75/365 490/78/368 497/85/375
f 497/85/375 502/91/337 487/75/365
f 503/92/380 504/93/381 474/58/352
f 474/58/352 466/50/345 503/92/380
f 494/82/372 493/81/371 426/10/306
f 426/10/306 425/9/305 494/82/372
f 497/85/375 496/84/374 505/94/382
f 505/94/382 471/55/349 497/85/375
f 465/49/344 451/86/330 435/19/314
f 435/19/314 434/18/313 465/49/344
f 446/30/325 502/91/337 458/42/337
f 458/42/337 457/41/336 446/30/325
f 502/91/337 497/85/375 471/55/349
f 471/55/349 458/42/337 502/91/337
f 460/44/339 481/68/359 498/87/376
f 498/87/376 457/41/336 460/44/339
f 506/95/383 482/96/360 500/89/378
f 500/89/378 499/88/377 506/95/383
f 434/18/313 433/17/312 485/73/363
f 485/73/363 503/92/380 434/18/313
f 485/73/363 489/77/367 504/93/381
f 504/93/381 503/92/380 485/73/363
f 507/97/384 508/98/385 418/2/298
f 418/2/298 417/1/297 507/97/384
f 443/27/322 509/99/386 510/100/387
f 510/100/387 422/6/302 443/27/322
f 470/54/348 469/53/311 511/101/15
f 511/101/15 489/77/367 470/54/348
f 456/40/335 478/64/356 512/102/388
f 512/102/388 453/37/332 456/40/335
f 461/45/340 509/99/386 443/27/322
f 443/27/322 442/26/321 461/45/340
f 438/22/317 513/103/333 454/38/333
f 454/38/333 453/37/332 438/22/317
f 442/26/321 441/25/320 488/76/366
f 488/76/366 514/104/389 442/26/321
f 513/103/333 432/16/311 469/53/311
f 469/53/311 454/38/333 513/103/333
f 488/76/366 491/79/369 515/105/390
f 515/105/390 514/104/389 488/76/366
f 474/58/352 516/106/391 517/107/392
f 517/107/392 475/59/353 474/58/352
f 474/58/352 504/93/381 518/108/393
f 518/108/393 516/106/391 474/58/352
f 469/53/311 432/16/311 431/15/15
f 431/15/15 511/101/15 469/53/311
f 453/37/332 512/102/388 439/23/318
f 439/23/318 438/22/317 453/37/332
f 442/26/321 514/104/389 462/46/341
f 462/46/341 461/45/340 442/26/321
f 514/104/389 515/105/390 472/56/350
f 472/56/350 462/46/341 514/104/389
f 516/106/391 496/84/374 495/83/373
f 495/83/373 517/107/392 516/106/391
f 496/84/374 516/106/391 518/108/393
f 518/108/393 505/94/382 496/84/374
f 507/97/384 477/63/355 476/62/354
f 476/62/354 508/98/385 507/97/384
f 509/99/386 480/67/358 484/72/362
f 484/72/362 510/100/387 509/99/386
f 464/48/343 480/67/358 509/99/386
f 509/99/386 461/45/340 464/48/343
f 438/22/317 437/21/316 486/74/364
f 486/74/364 513/103/333 438/22/317
f 486/74/364 429/13/309 432/16/311
f 432/16/311 513/103/333 486/74/364
f 418/2/298 512/102/388 478/64/356
f 478/64/356 419/3/299 418/2/298
f 444/28/323 443/27/322 422/6/302
f 422/6/302 421/5/301 444/28/323
f 498/109/376 481/110/359 427/11/307
f 427/11/307 426/10/306 498/109/376
f 479/111/357 501/90/379 450/34/329
f 450/34/329 449/33/328 479/111/357
f 481/68/359 440/24/319 476/62/354
f 476/62/354 427/61/307 481/68/359
f 452/70/331 444/28/323 421/5/301
f 421/5/301 449/66/328 452/70/331
f 506/112/383 420/4/300 419/3/299
f 419/3/299 482/69/360 506/112/383
f 492/80/370 519/113/394 484/72/362
f 484/72/362 483/71/361 492/80/370
f 448/32/327 447/114/326 493/81/371
f 493/81/371 483/71/361 448/32/327
f 435/115/314 451/35/330 450/34/329
f 450/34/329 500/89/378 435/115/314
f 447/114/326 498/109/376 426/10/306
f 426/10/306 493/81/371 447/114/326
f 436/116/315 435/115/314 500/89/378
f 500/89/378 482/96/360 436/116/315
f 439/23/318 512/102/388 418/2/298
f 418/2/298 508/98/385 439/23/318
f 520/117/395 423/7/303 422/6/302
f 422/6/302 510/100/387 520/117/395
f 440/24/319 439/23/318 508/98/385
f 508/98/385 476/62/354 440/24/319
f 519/113/394 520/117/395 510/100/387
f 510/100/387 484/72/362 519/113/394
f 471/55/349 505/94/382 431/15/15
f 431/15/15 430/14/310 471/55/349
f 505/94/382 518/108/393 511/101/15
f 511/101/15 431/15/15 505/94/382
f 518/108/393 504/93/381 489/77/367
f 489/77/367 511/101/15 518/108/393
f 473/57/351 472/56/350 495/83/373
f 495/83/373 490/78/368 473/57/351
f 472/56/350 515/105/390 517/107/392
f 517/107/392 495/83/373 472/56/350
f 517/107/392 515/105/390 491/79/369
f 491/79/369 475/59/353 517/107/392
f 521/1/396 522/2/397 523/3/398
f 523/3/398 524/4/399 521/1/396
f 525/5/400 526/6/401 527/7/402
f 527/7/402 528/8/403 525/5/400
f 529/9/404 530/10/405 531/11/406
f 531/11/406 532/12/407 529/9/404
f 533/13/408 534/14/409 535/15/15
f 535/15/15 536/16/410 533/13/408
f 537/17/324 538/18/411 539/19/412
f 539/19/412 540/20/413 537/17/324
f 541/21/320 542/22/414 543/23/415
f 543/23/415 544/24/416 541/21/320
f 545/25/316 546/26/417 547/27/418
f 547/27/418 548/28/419 545/25/316
f 549/29/420 550/30/421 551/31/422
f 551/31/422 552/32/423 549/29/420
f 553/33/424 554/34/425 555/35/426
f 555/35/426 556/36/427 553/33/424
f 557/37/428 558/38/429 559/39/430
f 559/39/430 560/40/431 557/37/428
f 561/41/432 562/42/433 563/43/434
f 563/43/434 564/44/435 561/41/432
f 565/45/436 566/46/437 567/47/438
f 567/47/438 568/48/439 565/45/436
f 569/49/440 570/50/441 571/51/442
f 571/51/442 572/52/443 569/49/440
f 559/39/430 558/38/429 573/53/410
f 573/53/410 574/54/444 559/39/430
f 562/42/433 575/55/445 534/14/409
f 534/14/409 563/43/434 562/42/433
f 567/47/438 566/46/437 576/56/446
f 576/56/446 577/57/447 567/47/438
f 570/50/441 578/58/448 579/59/449
f 579/59/449 571/51/442 570/50/441
f 532/60/407 531/61/406 580/62/450
f 580/62/450 581/63/451 532/60/407
f 560/40/431 537/17/324 540/20/413
f 540/20/413 582/64/452 560/40/431
f 583/65/453 553/66/424 525/5/400
f 525/5/400 528/8/403 583/65/453
f 568/48/439 549/29/420 552/32/423
f 552/32/423 584/67/454 568/48/439
f 544/24/416 585/68/455 564/44/435
f 564/44/435 541/21/320 544/24/416
f 540/20/413 586/69/456 523/3/398
f 523/3/398 582/64/452 540/20/413
f 548/28/419 556/70/427 572/52/443
f 572/52/443 545/25/316 548/28/419
f 552/32/423 587/71/457 588/72/458
f 588/72/458 584/67/454 552/32/423
f 537/17/324 560/40/431 559/39/430
f 559/39/430 589/73/459 537/17/324
f 541/21/320 564/44/435 563/43/434
f 563/43/434 590/74/460 541/21/320
f 549/29/420 568/48/439 567/47/438
f 567/47/438 591/75/461 549/29/420
f 545/25/316 572/52/443 571/51/442
f 571/51/442 592/76/462 545/25/316
f 589/73/459 559/39/430 574/54/444
f 574/54/444 593/77/463 589/73/459
f 590/74/460 563/43/434 534/14/409
f 534/14/409 533/13/408 590/74/460
f 591/75/461 567/47/438 577/57/447
f 577/57/447 594/78/464 591/75/461
f 592/76/462 571/51/442 579/59/449
f 579/59/449 595/79/465 592/76/462
f 596/80/466 587/71/457 597/81/467
f 597/81/467 598/82/468 596/80/466
f 594/78/464 599/83/469 600/84/470
f 600/84/470 601/85/471 594/78/464
f 572/52/443 556/70/427 555/86/426
f 555/86/426 569/49/440 572/52/443
f 561/41/432 602/87/472 551/31/422
f 551/31/422 550/30/421 561/41/432
f 603/88/473 604/89/474 554/34/425
f 554/34/425 605/90/475 603/88/473
f 550/30/421 549/29/420 591/75/461
f 591/75/461 606/91/433 550/30/421
f 538/18/411 607/92/476 570/50/441
f 570/50/441 569/49/440 538/18/411
f 591/75/461 594/78/464 601/85/471
f 601/85/471 606/91/433 591/75/461
f 607/92/476 608/93/477 578/58/448
f 578/58/448 570/50/441 607/92/476
f 598/82/468 597/81/467 530/10/405
f 530/10/405 529/9/404 598/82/468
f 601/85/471 600/84/470 609/94/478
f 609/94/478 575/55/445 601/85/471
f 569/49/440 555/86/426 539/19/412
f 539/19/412 538/18/411 569/49/440
f 550/30/421 606/91/433 562/42/433
f 562/42/433 561/41/432 550/30/421
f 606/91/433 601/85/471 575/55/445
f 575/55/445 562/42/433 606/91/433
f 564/44/435 585/68/455 602/87/472
f 602/87/472 561/41/432 564/44/435
f 610/95/479 586/96/456 604/89/474
f 604/89/474 603/88/473 610/95/479
f 538/18/411 537/17/324 589/73/459
f 589/73/459 607/92/476 538/18/411
f 589/73/459 593/77/463 608/93/477
f 608/93/477 607/92/476 589/73/459
f 611/97/480 612/98/481 522/2/397
f 522/2/397 521/1/396 611/97/480
f 547/27/418 613/99/482 614/100/483
f 614/100/483 526/6/401 547/27/418
f 574/54/444 573/53/410 615/101/15
f 615/101/15 593/77/463 574/54/444
f 560/40/431 582/64/452 616/102/484
f 616/102/484 557/37/428 560/40/431
f 565/45/436 613/99/482 547/27/418
f 547/27/418 546/26/417 565/45/436
f 542/22/414 617/103/429 558/38/429
f 558/38/429 557/37/428 542/22/414
f 546/26/417 545/25/316 592/76/462
f 592/76/462 618/104/485 546/26/417
f 617/103/429 536/16/410 573/53/410
f 573/53/410 558/38/429 617/103/429
f 592/76/462 595/79/465 619/105/486
f 619/105/486 618/104/485 592/76/462
f 578/58/448 620/106/487 621/107/488
f 621/107/488 579/59/449 578/58/448
f 578/58/448 608/93/477 622/108/489
f 622/108/489 620/106/487 578/58/448
f 573/53/410 536/16/410 535/15/15
f 535/15/15 615/101/15 573/53/410
f 557/37/428 616/102/484 543/23/415
f 543/23/415 542/22/414 557/37/428
f 546/26/417 618/104/485 566/46/437
f 566/46/437 565/45/436 546/26/417
f 618/104/485 619/105/486 576/56/446
f 576/56/446 566/46/437 618/104/485
f 620/106/487 600/84/470 599/83/469
f 599/83/469 621/107/488 620/106/487
f 600/84/470 620/106/487 622/108/489
f 622/108/489 609/94/478 600/84/470
f 611/97/480 581/63/451 580/62/450
f 580/62/450 612/98/481 611/97/480
f 613/99/482 584/67/454 588/72/458
f 588/72/458 614/100/483 613/99/482
f 568/48/439 584/67/454 613/99/482
f 613/99/482 565/45/436 568/48/439
f 542/22/414 541/21/320 590/74/460
f 590/74/460 617/103/429 542/22/414
f 590/74/460 533/13/408 536/16/410
f 536/16/410 617/103/429 590/74/460
f 522/2/397 616/102/484 582/64/452
f 582/64/452 523/3/398 522/2/397
f 548/28/419 547/27/418 526/6/401
f 526/6/401 525/5/400 548/28/419
f 602/109/472 585/110/455 531/11/406
f 531/11/406 530/10/405 602/109/472
f 583/111/453 605/90/475 554/34/425
f 554/34/425 553/33/424 583/111/453
f 585/68/455 544/24/416 580/62/450
f 580/62/450 531/61/406 585/68/455
f 556/70/427 548/28/419 525/5/400
f 525/5/400 553/66/424 556/70/427
f 610/112/479 524/4/399 523/3/398
f 523/3/398 586/69/456 610/112/479
f 596/80/466 623/113/490 588/72/458
f 588/72/458 587/71/457 596/80/466
f 552/32/423 551/114/422 597/81/467
f 597/81/467 587/71/457 552/32/423
f 539/115/412 555/35/426 554/34/425
f 554/34/425 604/89/474 539/115/412
f 551/114/422 602/109/472 530/10/405
f 530/10/405 597/81/467 551/114/422
f 540/116/413 539/115/412 604/89/474
f 604/89/474 586/96/456 540/116/413
f 543/23/415 616/102/484 522/2/397
f 522/2/397 612/98/481 543/23/415
f 624/117/491 527/7/402 526/6/401
f 526/6/401 614/100/483 624/117/491
f 544/24/416 543/23/415 612/98/481
f 612/98/481 580/62/450 544/24/416
f 623/113/490 624/117/491 614/100/483
f 614/100/483 588/72/458 623/113/490
f 575/55/445 609/94/478 535/15/15
f 535/15/15 534/14/409 575/55/445
f 609/94/478 622/108/489 615/101/15
f 615/101/15 535/15/15 609/94/478
f 622/108/489 608/93/477 593/77/463
f 593/77/463 615/101/15 622/108/489
f 577/57/447 576/56/446 599/83/469
f 599/83/469 594/78/464 577/57/447
f 576/56/446 619/105/486 621/107/488
f 621/107/488 599/83/469 576/56/446
f 621/107/488 619/105/486 595/79/465
f 595/79/465 579/59/449 621/107/488
f 625/1/492 626/2/493 627/3/494
f 627/3/494 628/4/495 625/1/492
f 629/5/496 630/6/497 631/7/498
f 631/7/498 632/8/499 629/5/496
f 633/9/500 634/10/501 635/11/502
f 635/11/502 636/12/503 633/9/500
f 637/13/504 638/14/505 639/15/15
f 639/15/15 640/16/506 637/13/504
f 641/17/507 642/18/508 643/19/509
f 643/19/509 644/20/510 641/17/507
f 645/21/511 646/22/512 647/23/513
f 647/23/513 648/24/514 645/21/511
f 649/25/515 650/26/516 651/27/517
f 651/27/517 652/28/518 649/25/515
f 653/29/519 654/30/520 655/31/521
f 655/31/521 656/32/522 653/29/519
f 657/33/523 658/34/524 659/35/525
f 659/35/525 660/36/526 657/33/523
f 661/37/527 662/38/528 663/39/529
f 663/39/529 664/40/530 661/37/527
f 665/41/531 666/42/532 667/43/533
f 667/43/533 668/44/534 665/41/531
f 669/45/535 670/46/536 671/47/537
f 671/47/537 672/48/538 669/45/535
f 673/49/539 674/50/540 675/51/541
f 675/51/541 676/52/542 673/49/539
f 663/39/529 662/38/528 677/53/506
f 677/53/506 678/54/543 663/39/529
f 666/42/532 679/55/544 638/14/505
f 638/14/505 667/43/533 666/42/532
f 671/47/537 670/46/536 680/56/545
f 680/56/545 681/57/546 671/47/537
f 674/50/540 682/58/547 683/59/548
f 683/59/548 675/51/541 674/50/540
f 636/60/503 635/61/502 684/62/549
f 684/62/549 685/63/550 636/60/503
f 664/40/530 641/17/507 644/20/510
f 644/20/510 686/64/551 664/40/530
f 687/65/552 657/66/523 629/5/496
f 629/5/496 632/8/499 687/65/552
f 672/48/538 653/29/519 656/32/522
f 656/32/522 688/67/553 672/48/538
f 648/24/514 689/68/554 668/44/534
f 668/44/534 645/21/511 648/24/514
f 644/20/510 690/69/555 627/3/494
f 627/3/494 686/64/551 644/20/510
f 652/28/518 660/70/526 676/52/542
f 676/52/542 649/25/515 652/28/518
f 656/32/522 691/71/556 692/72/557
f 692/72/557 688/67/553 656/32/522
f 641/17/507 664/40/530 663/39/529
f 663/39/529 693/73/558 641/17/507
f 645/21/511 668/44/534 667/43/533
f 667/43/533 694/74/559 645/21/511
f 653/29/519 672/48/538 671/47/537
f 671/47/537 695/75/560 653/29/519
f 649/25/515 676/52/542 675/51/541
f 675/51/541 696/76/561 649/25/515
f 693/73/558 663/39/529 678/54/543
f 678/54/543 697/77/562 693/73/558
f 694/74/559 667/43/533 638/14/505
f 638/14/505 637/13/504 694/74/559
f 695/75/560 671/47/537 681/57/546
f 681/57/546 698/78/563 695/75/560
f 696/76/561 675/51/541 683/59/548
f 683/59/548 699/79/564 696/76/561
f 700/80/565 691/71/556 701/81/566
f 701/81/566 702/82/567 700/80/565
f 698/78/563 703/83/568 704/84/569
f 704/84/569 705/85/570 698/78/563
f 676/52/542 660/70/526 659/86/525
f 659/86/525 673/49/539 676/52/542
f 665/41/531 706/87/571 655/31/521
f 655/31/521 654/30/520 665/41/531
f 707/88/572 708/89/573 658/34/524
f 658/34/524 709/90/574 707/88/572
f 654/30/520 653/29/519 695/75/560
f 695/75/560 710/91/532 654/30/520
f 642/18/508 711/92/575 674/50/540
f 674/50/540 673/49/539 642/18/508
f 695/75/560 698/78/563 705/85/570
f 705/85/570 710/91/532 695/75/560
f 711/92/575 712/93/576 682/58/547
f 682/58/547 674/50/540 711/92/575
f 702/82/567 701/81/566 634/10/501
f 634/10/501 633/9/500 702/82/567
f 705/85/570 704/84/569 713/94/577
f 713/94/577 679/55/544 705/85/570
f 673/49/539 659/86/525 643/19/509
f 643/19/509 642/18/508 673/49/539
f 654/30/520 710/91/532 666/42/532
f 666/42/532 665/41/531 654/30/520
f 710/91/532 705/85/570 679/55/544
f 679/55/544 666/42/532 710/91/532
f 668/44/534 689/68/554 706/87/571
f 706/87/571 665/41/531 668/44/534
f 714/95/578 690/96/555 708/89/573
f 708/89/573 707/88/572 714/95/578
f 642/18/508 641/17/507 693/73/558
f 693/73/558 711/92/575 642/18/508
f 693/73/558 697/77/562 712/93/576
f 712/93/576 711/92/575 693/73/558
f 715/97/579 716/98/580 626/2/493
f 626/2/493 625/1/492 715/97/579
f 651/27/517 717/99/581 718/100/582
f 718/100/582 630/6/497 651/27/517
f 678/54/543 677/53/506 719/101/15
f 719/101/15 697/77/562 678/54/543
f 664/40/530 686/64/551 720/102/583
f 720/102/583 661/37/527 664/40/530
f 669/45/535 717/99/581 651/27/517
f 651/27/517 650/26/516 669/45/535
f 646/22/512 721/103/528 662/38/528
f 662/38/528 661/37/527 646/22/512
f 650/26/516 649/25/515 696/76/561
f 696/76/561 722/104/584 650/26/516
f 721/103/528 640/16/506 677/53/506
f 677/53/506 662/38/528 721/103/528
f 696/76/561 699/79/564 723/105/585
f 723/105/585 722/104/584 696/76/561
f 682/58/547 724/106/586 725/107/587
f 725/107/587 683/59/548 682/58/547
f 682/58/547 712/93/576 726/108/588
f 726/108/588 724/106/586 682/58/547
f 677/53/506 640/16/506 639/15/15
f 639/15/15 719/101/15 677/53/506
f 661/37/527 720/102/583 647/23/513
f 647/23/513 646/22/512 661/37/527
f 650/26/516 722/104/584 670/46/536
f 670/46/536 669/45/535 650/26/516
f 722/104/584 723/105/585 680/56/545
f 680/56/545 670/46/536 722/104/584
f 724/106/586 704/84/569 703/83/568
f 703/83/568 725/107/587 724/106/586
f 704/84/569 724/106/586 726/108/588
f 726/108/588 713/94/577 704/84/569
f 715/97/579 685/63/550 684/62/549
f 684/62/549 716/98/580 715/97/579
f 717/99/581 688/67/553 692/72/557
f 692/72/557 718/100/582 717/99/581
f 672/48/538 688/67/553 717/99/581
f 717/99/581 669/45/535 672/48/538
f 646/22/512 645/21/511 694/74/559
f 694/74/559 721/103/528 646/22/512
f 694/74/559 637/13/504 640/16/506
f 640/16/506 721/103/528 694/74/559
f 626/2/493 720/102/583 686/64/551
f 686/64/551 627/3/494 626/2/493
f 652/28/518 651/27/517 630/6/497
f 630/6/497 629/5/496 652/28/518
f 706/109/571 689/110/554 635/11/502
f 635/11/502 634/10/501 706/109/571
f 687/111/552 709/90/574 658/34/524
f 658/34/524 657/33/523 687/111/552
f 689/68/554 648/24/514 684/62/549
f 684/62/549 635/61/502 689/68/554
f 660/70/526 652/28/518 629/5/496
f 629/5/496 657/66/523 660/70/526
f 714/112/578 628/4/495 627/3/494
f 627/3/494 690/69/555 714/112/578
f 700/80/565 727/113/589 692/72/557
f 692/72/557 691/71/556 700/80/565
f 656/32/522 655/114/521 701/81/566
f 701/81/566 691/71/556 656/32/522
f 643/115/509 659/35/525 658/34/524
f 658/34/524 708/89/573 643/115/509
f 655/114/521 706/109/571 634/10/501
f 634/10/501 701/81/566 655/114/521
f 644/116/510 643/115/509 708/89/573
f 708/89/573 690/96/555 644/116/510
f 647/23/513 720/102/583 626/2/493
f 626/2/493 716/98/580 647/23/513
f 728/117/590 631/7/498 630/6/497
f 630/6/497 718/100/582 728/117/590
f 648/24/514 647/23/513 716/98/580
f 716/98/580 684/62/549 648/24/514
f 727/113/589 728/117/590 718/100/582
f 718/100/582 692/72/557 727/113/589
f 679/55/544 713/94/577 639/15/15
f 639/15/15 638/14/505 679/55/544
f 713/94/577 726/108/588 719/101/15
f 719/101/15 639/15/15 713/94/577
f 726/108/588 712/93/576 697/77/562
f 697/77/562 719/101/15 726/108/588
f 681/57/546 680/56/545 703/83/568
f 703/83/568 698/78/563 681/57/546
f 680/56/545 723/105/585 725/107/587
f 725/107/587 703/83/568 680/56/545
f 725/107/587 723/105/585 699/79/564
f 699/79/564 683/59/548 725/107/587
f 729/1/297 730/2/298 731/3/591
f 731/3/591 732/4/300 729/1/297
f 733/5/301 734/6/302 735/7/303
f 735/7/303 736/8/304 733/5/301
f 737/9/305 738/10/306 739/11/307
f 739/11/307 740/12/592 737/9/305
f 741/13/593 742/14/310 743/15/15
f 743/15/15 744/16/311 741/13/593
f 745/17/420 746/18/313 747/19/314
f 747/19/314 748/20/315 745/17/420
f 749/21/316 750/22/317 751/23/318
f 751/23/318 752/24/319 749/21/316
f 753/25/320 754/26/321 755/27/322
f 755/27/322 756/28/323 753/25/320
f 757/29/324 758/30/325 759/31/326
f 759/31/326 760/32/327 757/29/324
f 761/33/328 762/34/329 763/35/330
f 763/35/330 764/36/331 761/33/328
f 765/37/332 766/38/333 767/39/334
f 767/39/334 768/40/335 765/37/332
f 769/41/336 770/42/337 771/43/338
f 771/43/338 772/44/339 769/41/336
f 773/45/340 774/46/341 775/47/342
f 775/47/342 776/48/594 773/45/340
f 777/49/344 778/50/345 779/51/595
f 779/51/595 780/52/347 777/49/344
f 767/39/334 766/38/333 781/53/311
f 781/53/311 782/54/596 767/39/334
f 770/42/337 783/55/349 742/14/310
f 742/14/310 771/43/338 770/42/337
f 775/47/342 774/46/341 784/56/350
f 784/56/350 785/57/351 775/47/342
f 778/50/345 786/58/352 787/59/597
f 787/59/597 779/51/595 778/50/345
f 740/60/592 739/61/307 788/62/354
f 788/62/354 789/63/355 740/60/592
f 768/40/335 745/17/420 748/20/315
f 748/20/315 790/64/356 768/40/335
f 791/65/357 761/66/328 733/5/301
f 733/5/301 736/8/304 791/65/357
f 776/48/594 757/29/324 760/32/327
f 760/32/327 792/67/358 776/48/594
f 752/24/319 793/68/359 772/44/339
f 772/44/339 749/21/316 752/24/319
f 748/20/315 794/69/360 731/3/591
f 731/3/591 790/64/356 748/20/315
f 756/28/323 764/70/331 780/52/347
f 780/52/347 753/25/320 756/28/323
f 760/32/327 795/71/361 796/72/362
f 796/72/362 792/67/358 760/32/327
f 745/17/420 768/40/335 767/39/334
f 767/39/334 797/73/363 745/17/420
f 749/21/316 772/44/339 771/43/338
f 771/43/338 798/74/364 749/21/316
f 757/29/324 776/48/594 775/47/342
f 775/47/342 799/75/365 757/29/324
f 753/25/320 780/52/347 779/51/595
f 779/51/595 800/76/598 753/25/320
f 797/73/363 767/39/334 782/54/596
f 782/54/596 801/77/367 797/73/363
f 798/74/364 771/43/338 742/14/310
f 742/14/310 741/13/593 798/74/364
f 799/75/365 775/47/342 785/57/351
f 785/57/351 802/78/599 799/75/365
f 800/76/598 779/51/595 787/59/597
f 787/59/597 803/79/369 800/76/598
f 804/80/370 795/71/361 805/81/371
f 805/81/371 806/82/372 804/80/370
f 802/78/599 807/83/373 808/84/374
f 808/84/374 809/85/375 802/78/599
f 780/52/347 764/70/331 763/86/330
f 763/86/330 777/49/344 780/52/347
f 769/41/336 810/87/376 759/31/326
f 759/31/326 758/30/325 769/41/336
f 811/88/377 812/89/378 762/34/329
f 762/34/329 813/90/379 811/88/377
f 758/30/325 757/29/324 799/75/365
f 799/75/365 814/91/337 758/30/325
f 746/18/313 815/92/380 778/50/345
f 778/50/345 777/49/344 746/18/313
f 799/75/365 802/78/599 809/85/375
f 809/85/375 814/91/337 799/75/365
f 815/92/380 816/93/600 786/58/352
f 786/58/352 778/50/345 815/92/380
f 806/82/372 805/81/371 738/10/306
f 738/10/306 737/9/305 806/82/372
f 809/85/375 808/84/374 817/94/382
f 817/94/382 783/55/349 809/85/375
f 777/49/344 763/86/330 747/19/314
f 747/19/314 746/18/313 777/49/344
f 758/30/325 814/91/337 770/42/337
f 770/42/337 769/41/336 758/30/325
f 814/91/337 809/85/375 783/55/349
f 783/55/349 770/42/337 814/91/337
f 772/44/339 793/68/359 810/87/376
f 810/87/376 769/41/336 772/44/339
f 818/95/383 794/96/360 812/89/378
f 812/89/378 811/88/377 818/95/383
f 746/18/313 745/17/420 797/73/363
f 797/73/363 815/92/380 746/18/313
f 797/73/363 801/77/367 816/93/600
f 816/93/600 815/92/380 797/73/363
f 819/97/384 820/98/385 730/2/298
f 730/2/298 729/1/297 819/97/384
f 755/27/322 821/99/386 822/100/387
f 822/100/387 734/6/302 755/27/322
f 782/54/596 781/53/311 823/101/15
f 823/101/15 801/77/367 782/54/596
f 768/40/335 790/64/356 824/102/388
f 824/102/388 765/37/332 768/40/335
f 773/45/340 821/99/386 755/27/322
f 755/27/322 754/26/321 773/45/340
f 750/22/317 825/103/333 766/38/333
f 766/38/333 765/37/332 750/22/317
f 754/26/321 753/25/320 800/76/598
f 800/76/598 826/104/389 754/26/321
f 825/103/333 744/16/311 781/53/311
f 781/53/311 766/38/333 825/103/333
f 800/76/598 803/79/369 827/105/390
f 827/105/390 826/104/389 800/76/598
f 786/58/352 828/106/391 829/107/392
f 829/107/392 787/59/597 786/58/352
f 786/58/352 816/93/600 830/108/393
f 830/108/393 828/106/391 786/58/352
f 781/53/311 744/16/311 743/15/15
f 743/15/15 823/101/15 781/53/311
f 765/37/332 824/102/388 751/23/318
f 751/23/318 750/22/317 765/37/332
f 754/26/321 826/104/389 774/46/341
f 774/46/341 773/45/340 754/26/321
f 826/104/389 827/105/390 784/56/350
f 784/56/350 774/46/341 826/104/389
f 828/106/391 808/84/374 807/83/373
f 807/83/373 829/107/392 828/106/391
f 808/84/374 828/106/391 830/108/393
f 830/108/393 817/94/382 808/84/374
f 819/97/384 789/63/355 788/62/354
f 788/62/354 820/98/385 819/97/384
f 821/99/386 792/67/358 796/72/362
f 796/72/362 822/100/387 821/99/386
f 776/48/594 792/67/358 821/99/386
f 821/99/386 773/45/340 776/48/594
f 750/22/317 749/21/316 798/74/364
f 798/74/364 825/103/333 750/22/317
f 798/74/364 741/13/593 744/16/311
f 744/16/311 825/103/333 798/74/364
f 730/2/298 824/102/388 790/64/356
f 790/64/356 731/3/591 730/2/298
f 756/28/323 755/27/322 734/6/302
f 734/6/302 733/5/301 756/28/323
f 810/109/376 793/110/359 739/11/307
f 739/11/307 738/10/306 810/109/376
f 791/111/357 813/90/379 762/34/329
f 762/34/329 761/33/328 791/111/357
f 793/68/359 752/24/319 788/62/354
f 788/62/354 739/61/307 793/68/359
f 764/70/331 756/28/323 733/5/301
f 733/5/301 761/66/328 764/70/331
f 818/112/383 732/4/300 731/3/591
f 731/3/591 794/69/360 818/112/383
f 804/80/370 831/113/394 796/72/362
f 796/72/362 795/71/361 804/80/370
f 760/32/327 759/114/326 805/81/371
f 805/81/371 795/71/361 760/32/327
f 747/115/314 763/35/330 762/34/329
f 762/34/329 812/89/378 747/115/314
f 759/114/326 810/109/376 738/10/306
f 738/10/306 805/81/371 759/114/326
f 748/116/315 747/115/314 812/89/378
f 812/89/378 794/96/360 748/116/315
f 751/23/318 824/102/388 730/2/298
f 730/2/298 820/98/385 751/23/318
f 832/117/395 735/7/303 734/6/302
f 734/6/302 822/100/387 832/117/395
f 752/24/319 751/23/318 820/98/385
f 820/98/385 788/62/354 752/24/319
f 831/113/394 832/117/395 822/100/387
f 822/100/387 796/72/362 831/113/394
f 783/55/349 817/94/382 743/15/15
f 743/15/15 742/14/310 783/55/349
f 817/94/382 830/108/393 823/101/15
f 823/101/15 743/15/15 817/94/382
f 830/108/393 816/93/600 801/77/367
f 801/77/367 823/101/15 830/108/393
f 785/57/351 784/56/350 807/83/373
f 807/83/373 802/78/599 785/57/351
f 784/56/350 827/105/390 829/107/392
f 829/107/392 807/83/373 784/56/350
f 829/107/392 827/105/390 803/79/369
f 803/79/369 787/59/597 829/107/392
