# Blender 4.5.0
# www.blender.org
g medium_wall.xml.095_Mesh
v 238.638977 -48.739098 6.522915
v 238.684082 -43.590321 7.089092
v 239.650970 -43.590321 6.957958
v 239.822235 -48.739098 6.694874
v 239.541687 -43.590321 12.797547
v 238.700348 -43.590321 12.923320
v 238.931641 -48.739098 13.060632
v 239.822235 -48.739098 13.060632
v 219.534363 -48.739098 8.083462
v 219.691498 -43.590321 8.447933
v 219.729004 -43.590324 7.168825
v 219.609375 -48.739098 6.905685
v 220.644989 -38.501015 8.027992
v 220.554443 -38.501015 8.222534
v 221.179260 -38.501015 8.222534
v 221.177856 -38.501015 8.027992
v 239.540527 -38.255718 7.623791
v 239.540527 -38.255718 8.812405
v 239.675354 -38.441540 8.812405
v 239.675354 -38.441540 7.431969
v 220.307587 -38.255722 7.412518
v 221.081238 -38.255722 7.412518
v 221.079834 -38.441540 7.221039
v 220.175537 -38.441540 7.221039
v 239.347626 -38.255718 12.342984
v 238.469055 -38.255718 12.342984
v 238.469055 -38.441540 12.534459
v 239.479675 -38.441540 12.534459
v 220.114685 -38.255722 12.131709
v 220.114685 -38.255722 10.942596
v 219.979858 -38.441540 10.942596
v 219.979858 -38.441540 12.323531
v 239.860596 -43.590321 12.395745
v 239.860596 -43.590321 11.307073
v 239.675354 -38.514259 9.925476
v 239.675354 -38.441540 12.323534
v 238.469055 -38.255718 7.412518
v 238.469055 -38.173706 7.830105
v 239.079163 -38.173706 7.830105
v 239.347626 -38.255718 7.412518
v 220.114685 -38.255718 8.812403
v 220.408722 -38.173706 8.812403
v 220.408722 -38.173706 8.041260
v 220.114685 -38.255722 7.623791
v 221.126526 -38.283051 12.342980
v 221.123535 -38.201035 11.925395
v 220.576050 -38.173706 11.925395
v 220.307587 -38.255722 12.342980
v 239.540527 -38.328438 9.925476
v 239.246490 -38.246426 9.925476
v 239.246490 -38.173706 11.714240
v 239.540527 -38.255718 12.131711
v 238.379517 -38.501011 8.027992
v 239.006409 -38.501011 8.027992
v 220.554443 -38.501015 8.934494
v 221.214081 -38.528343 11.703940
v 220.644989 -38.501015 11.703940
v 239.096954 -38.573730 9.858337
v 239.096954 -38.501011 11.509398
v 219.938629 -43.590324 6.957956
v 219.832947 -48.739098 6.694872
v 239.479675 -38.441540 7.221043
v 240.127655 -48.739098 12.432907
v 220.175537 -38.441540 12.534457
v 219.979858 -38.441540 7.431967
v 239.860596 -43.590321 7.168829
v 219.729004 -43.590321 12.586675
v 219.938629 -43.590321 12.797544
v 239.246490 -38.173706 8.041262
v 220.576050 -38.173706 7.830105
v 220.408722 -38.173706 11.714237
v 239.079163 -38.173706 11.925397
v 239.096954 -38.501011 8.222538
v 220.554443 -38.501015 11.509397
v 239.006409 -38.501011 11.703942
v 219.609375 -48.739098 12.849816
v 219.729004 -43.590321 11.307071
v 219.609375 -48.739098 11.671543
v 221.212708 -38.528343 11.510314
v 221.207550 -38.528343 10.796978
v 220.554443 -38.501015 10.796978
v 219.979858 -38.441540 8.812403
v 240.113770 -48.739098 8.083462
v 239.860596 -43.590321 8.447933
v 240.045837 -48.739098 11.671543
v 220.408722 -38.173706 10.942596
v 239.246490 -38.173706 8.812405
v 239.096954 -38.501011 8.934498
v 221.184387 -38.501015 8.934494
v 240.045837 -48.739098 6.905687
v 220.602509 -48.739098 6.694872
v 220.841187 -43.590321 6.957956
v 221.127930 -38.468868 12.534457
v 221.477509 -43.590321 12.734554
v 238.379517 -38.501011 8.222538
v 238.469055 -38.441540 7.221043
v 221.084259 -38.173706 7.830105
v 238.469055 -38.173706 11.925397
v 238.379517 -38.501011 11.703942
v 238.379517 -38.573730 9.858337
v 238.379517 -38.508667 11.509654
v 238.379517 -38.501011 8.934498
v 219.966492 -48.739098 13.060630
v 221.827118 -48.739098 12.934648
v 192.905029 -39.553265 12.066350
v 192.925812 -31.830078 12.474393
v 193.371277 -31.830076 12.379884
v 193.450195 -39.553265 12.190281
v 193.320923 -31.830076 16.588451
v 192.933319 -31.830076 16.679096
v 193.039856 -39.553265 16.778057
v 193.450195 -39.553265 16.778057
v 184.103119 -39.553265 13.191031
v 184.175537 -31.830076 13.453703
v 184.192810 -31.830078 12.531856
v 184.137695 -39.553265 12.342213
v 184.614807 -24.196093 13.151052
v 184.573090 -24.196093 13.291260
v 184.860962 -24.196093 13.291260
v 184.860321 -24.196093 13.151052
v 193.320374 -23.828152 12.859747
v 193.320374 -23.828152 13.716375
v 193.382507 -24.106882 13.716375
v 193.382507 -24.106882 12.721502
v 184.459381 -23.828154 12.707483
v 184.815796 -23.828154 12.707483
v 184.815155 -24.106884 12.569487
v 184.398529 -24.106884 12.569487
v 193.231506 -23.828152 16.260849
v 192.826752 -23.828152 16.260849
v 192.826752 -24.106882 16.398846
v 193.292358 -24.106882 16.398846
v 184.370483 -23.828154 16.108585
v 184.370483 -23.828154 15.251596
v 184.308380 -24.106884 15.251596
v 184.308380 -24.106884 16.246830
v 193.467834 -31.830076 16.298874
v 193.467834 -31.830076 15.514273
v 193.382507 -24.215961 14.518561
v 193.382507 -24.106882 16.246834
v 192.826752 -23.828152 12.707483
v 192.826752 -23.705132 13.008437
v 193.107819 -23.705132 13.008437
v 193.231506 -23.828152 12.707483
v 184.370483 -23.828152 13.716374
v 184.505951 -23.705132 13.716374
v 184.505951 -23.705132 13.160616
v 184.370483 -23.828154 12.859746
v 184.836670 -23.869146 16.260849
v 184.835297 -23.746124 15.959895
v 184.583038 -23.705132 15.959895
v 184.459381 -23.828154 16.260849
v 193.320374 -23.937231 14.518561
v 193.184937 -23.814209 14.518561
v 193.184937 -23.705132 15.807716
v 193.320374 -23.828152 16.108585
v 192.785492 -24.196091 13.151053
v 193.074310 -24.196091 13.151053
v 184.573090 -24.196093 13.804366
v 184.877014 -24.237085 15.800294
v 184.614807 -24.196093 15.800294
v 193.116028 -24.305172 14.470175
v 193.116028 -24.196091 15.660088
v 184.289398 -31.830078 12.379883
v 184.240692 -39.553265 12.190280
v 193.292358 -24.106882 12.569488
v 193.590881 -39.553261 16.325657
v 184.398529 -24.106884 16.398846
v 184.308380 -24.106884 12.721500
v 193.467834 -31.830078 12.531857
v 184.192810 -31.830074 16.436478
v 184.289398 -31.830074 16.588448
v 193.184937 -23.705132 13.160617
v 184.583038 -23.705132 13.008436
v 184.505951 -23.705132 15.807714
v 193.107819 -23.705132 15.959896
v 193.116028 -24.196091 13.291261
v 184.573090 -24.196093 15.660087
v 193.074310 -24.196091 15.800294
v 184.137695 -39.553265 16.626122
v 184.192810 -31.830076 15.514272
v 184.137695 -39.553265 15.776946
v 184.876373 -24.237085 15.660748
v 184.873993 -24.237085 15.146649
v 184.573090 -24.196093 15.146649
v 184.308380 -24.106884 13.716374
v 193.584503 -39.553265 13.191031
v 193.467834 -31.830078 13.453704
v 193.553192 -39.553261 15.776945
v 184.505951 -23.705132 15.251596
v 193.184937 -23.705132 13.716375
v 193.116028 -24.196091 13.804367
v 184.863342 -24.196093 13.804366
v 193.553192 -39.553265 12.342214
v 184.595245 -39.553265 12.190280
v 184.705200 -31.830078 12.379884
v 184.837311 -24.147877 16.398846
v 184.998383 -31.830074 16.543053
v 192.785492 -24.196091 13.291261
v 192.826752 -24.106882 12.569488
v 184.817200 -23.705132 13.008436
v 192.826752 -23.705132 15.959896
v 192.785492 -24.196091 15.800294
v 192.785492 -24.305172 14.470175
v 192.785492 -24.207573 15.660273
v 192.785492 -24.196091 13.804367
v 184.302216 -39.553265 16.778053
v 185.159454 -39.553265 16.687260
v 232.596130 -39.553864 12.066851
v 232.624603 -31.830679 12.474893
v 233.235626 -31.830677 12.380383
v 233.343872 -39.553864 12.190781
v 233.166565 -31.830677 16.588951
v 232.634888 -31.830677 16.679596
v 232.781067 -39.553864 16.778557
v 233.343872 -39.553864 16.778557
v 220.523163 -39.553867 13.191530
v 220.622467 -31.830677 13.454203
v 220.646149 -31.830679 12.532355
v 220.570557 -39.553867 12.342712
v 221.225006 -24.196693 13.151552
v 221.167786 -24.196693 13.291759
v 221.562622 -24.196693 13.291759
v 221.561737 -24.196693 13.151552
v 233.165833 -23.828753 12.860248
v 233.165833 -23.828753 13.716875
v 233.251038 -24.107483 13.716875
v 233.251038 -24.107483 12.722002
v 221.011780 -23.828754 12.707982
v 221.500671 -23.828754 12.707982
v 221.499817 -24.107483 12.569986
v 220.928345 -24.107483 12.569986
v 233.043945 -23.828753 16.261349
v 232.488739 -23.828753 16.261349
v 232.488739 -24.107483 16.399345
v 233.127380 -24.107483 16.399345
v 220.889893 -23.828754 16.109085
v 220.889893 -23.828754 15.252096
v 220.804688 -24.107483 15.252096
v 220.804688 -24.107483 16.247330
v 233.368103 -31.830677 16.299374
v 233.368103 -31.830677 15.514772
v 233.251038 -24.216562 14.519061
v 233.251038 -24.107483 16.247334
v 232.488739 -23.828753 12.707984
v 232.488739 -23.705732 13.008937
v 232.874298 -23.705732 13.008937
v 233.043945 -23.828753 12.707984
v 220.889893 -23.828753 13.716874
v 221.075684 -23.705732 13.716874
v 221.075684 -23.705732 13.161116
v 220.889893 -23.828754 12.860246
v 221.529297 -23.869747 16.261349
v 221.527405 -23.746727 15.960395
v 221.181427 -23.705732 15.960395
v 221.011780 -23.828754 16.261349
v 233.165833 -23.937832 14.519061
v 232.980011 -23.814812 14.519061
v 232.980011 -23.705732 15.808216
v 233.165833 -23.828753 16.109085
v 232.432159 -24.196693 13.151553
v 232.828308 -24.196693 13.151553
v 221.167786 -24.196693 13.804866
v 221.584656 -24.237686 15.800794
v 221.225006 -24.196693 15.800794
v 232.885529 -24.305771 14.470675
v 232.885529 -24.196693 15.660587
v 220.778625 -31.830679 12.380383
v 220.711853 -39.553867 12.190780
v 233.127380 -24.107483 12.569987
v 233.536865 -39.553864 16.326157
v 220.928345 -24.107483 16.399345
v 220.804688 -24.107483 12.722000
v 233.368103 -31.830679 12.532358
v 220.646149 -31.830675 16.436977
v 220.778625 -31.830675 16.588947
v 232.980011 -23.705732 13.161117
v 221.181427 -23.705732 13.008936
v 221.075684 -23.705732 15.808214
v 232.874298 -23.705732 15.960396
v 232.885529 -24.196693 13.291760
v 221.167786 -24.196693 15.660586
v 232.828308 -24.196693 15.800795
v 220.570557 -39.553864 16.626621
v 220.646149 -31.830677 15.514771
v 220.570557 -39.553864 15.777445
v 221.583771 -24.237686 15.661247
v 221.580505 -24.237686 15.147149
v 221.167786 -24.196693 15.147148
v 220.804688 -24.107483 13.716874
v 233.528107 -39.553864 13.191531
v 233.368103 -31.830679 13.454204
v 233.485168 -39.553864 15.777445
v 221.075684 -23.705732 15.252096
v 232.980011 -23.705732 13.716875
v 232.885529 -24.196693 13.804867
v 221.565887 -24.196693 13.804866
v 233.485168 -39.553864 12.342713
v 221.198151 -39.553867 12.190780
v 221.348969 -31.830679 12.380383
v 221.530182 -24.148478 16.399345
v 221.751099 -31.830675 16.543552
v 232.432159 -24.196693 13.291760
v 232.488739 -24.107483 12.569987
v 221.502594 -23.705732 13.008936
v 232.488739 -23.705732 15.960396
v 232.432159 -24.196693 15.800795
v 232.432159 -24.305771 14.470675
v 232.432159 -24.208174 15.660772
v 232.432159 -24.196693 13.804867
v 220.796234 -39.553867 16.778553
v 221.972015 -39.553867 16.687759
v 211.288116 -39.553864 12.066851
v 211.316620 -31.830679 12.474893
v 211.927612 -31.830677 12.380383
v 212.035858 -39.553864 12.190781
v 211.858582 -31.830677 16.588951
v 211.326904 -31.830677 16.679596
v 211.473053 -39.553864 16.778557
v 212.035858 -39.553864 16.778557
v 199.215149 -39.553867 13.191530
v 199.314453 -31.830677 13.454203
v 199.338165 -31.830679 12.532355
v 199.262573 -39.553867 12.342712
v 199.916992 -24.196693 13.151552
v 199.859772 -24.196693 13.291759
v 200.254639 -24.196693 13.291759
v 200.253723 -24.196693 13.151552
v 211.857849 -23.828753 12.860248
v 211.857849 -23.828753 13.716875
v 211.943024 -24.107483 13.716875
v 211.943024 -24.107483 12.722002
v 199.703796 -23.828754 12.707982
v 200.192688 -23.828754 12.707982
v 200.191803 -24.107483 12.569986
v 199.620331 -24.107483 12.569986
v 211.735931 -23.828753 16.261349
v 211.180725 -23.828753 16.261349
v 211.180725 -24.107483 16.399345
v 211.819366 -24.107483 16.399345
v 199.581879 -23.828754 16.109085
v 199.581879 -23.828754 15.252096
v 199.496674 -24.107483 15.252096
v 199.496674 -24.107483 16.247330
v 212.060089 -31.830677 16.299374
v 212.060089 -31.830677 15.514772
v 211.943024 -24.216562 14.519061
v 211.943024 -24.107483 16.247334
v 211.180725 -23.828753 12.707984
v 211.180725 -23.705732 13.008937
v 211.566284 -23.705732 13.008937
v 211.735931 -23.828753 12.707984
v 199.581879 -23.828753 13.716874
v 199.767700 -23.705732 13.716874
v 199.767700 -23.705732 13.161116
v 199.581879 -23.828754 12.860246
v 200.221313 -23.869747 16.261349
v 200.219421 -23.746727 15.960395
v 199.873444 -23.705732 15.960395
v 199.703796 -23.828754 16.261349
v 211.857849 -23.937832 14.519061
v 211.672028 -23.814812 14.519061
v 211.672028 -23.705732 15.808216
v 211.857849 -23.828753 16.109085
v 211.124146 -24.196693 13.151553
v 211.520294 -24.196693 13.151553
v 199.859772 -24.196693 13.804866
v 200.276642 -24.237686 15.800794
v 199.916992 -24.196693 15.800794
v 211.577545 -24.305771 14.470675
v 211.577545 -24.196693 15.660587
v 199.470642 -31.830679 12.380383
v 199.403839 -39.553867 12.190780
v 211.819366 -24.107483 12.569987
v 212.228851 -39.553864 16.326157
v 199.620331 -24.107483 16.399345
v 199.496674 -24.107483 12.722000
v 212.060089 -31.830679 12.532358
v 199.338165 -31.830675 16.436977
v 199.470642 -31.830675 16.588947
v 211.672028 -23.705732 13.161117
v 199.873444 -23.705732 13.008936
v 199.767700 -23.705732 15.808214
v 211.566284 -23.705732 15.960396
v 211.577545 -24.196693 13.291760
v 199.859772 -24.196693 15.660586
v 211.520294 -24.196693 15.800795
v 199.262573 -39.553864 16.626621
v 199.338165 -31.830677 15.514771
v 199.262573 -39.553864 15.777445
v 200.275757 -24.237686 15.661247
v 200.272491 -24.237686 15.147149
v 199.859772 -24.196693 15.147148
v 199.496674 -24.107483 13.716874
v 212.220093 -39.553864 13.191531
v 212.060089 -31.830679 13.454204
v 212.177155 -39.553864 15.777445
v 199.767700 -23.705732 15.252096
v 211.672028 -23.705732 13.716875
v 211.577545 -24.196693 13.804867
v 200.257874 -24.196693 13.804866
v 212.177155 -39.553864 12.342713
v 199.890167 -39.553867 12.190780
v 200.040985 -31.830679 12.380383
v 200.222198 -24.148478 16.399345
v 200.443115 -31.830675 16.543552
v 211.124146 -24.196693 13.291760
v 211.180725 -24.107483 12.569987
v 200.194580 -23.705732 13.008936
v 211.180725 -23.705732 15.960396
v 211.124146 -24.196693 15.800795
v 211.124146 -24.305771 14.470675
v 211.124146 -24.208174 15.660772
v 211.124146 -24.196693 13.804867
v 199.488251 -39.553867 16.778553
v 200.664032 -39.553867 16.687759
v 237.511871 -39.556564 29.057615
v 237.103821 -31.833378 29.086107
v 237.198334 -31.833376 29.697119
v 237.387939 -39.556564 29.805365
v 232.989777 -31.833376 29.628061
v 232.899109 -31.833376 29.096395
v 232.800171 -39.556564 29.242563
v 232.800171 -39.556564 29.805365
v 236.387177 -39.556564 16.984646
v 236.124512 -31.833376 17.083950
v 237.046356 -31.833378 17.107655
v 237.235992 -39.556564 17.032055
v 236.427155 -24.199392 17.686501
v 236.286957 -24.199392 17.629276
v 236.286957 -24.199392 18.024120
v 236.427155 -24.199392 18.023232
v 236.718475 -23.831451 29.627329
v 235.861847 -23.831451 29.627329
v 235.861847 -24.110182 29.712530
v 236.856720 -24.110182 29.712530
v 236.870728 -23.831453 17.473278
v 236.870728 -23.831453 17.962173
v 237.008728 -24.110184 17.961300
v 237.008728 -24.110184 17.389832
v 233.317352 -23.831451 29.505430
v 233.317352 -23.831451 28.950232
v 233.179382 -24.110182 28.950232
v 233.179382 -24.110182 29.588873
v 233.469635 -23.831453 17.351376
v 234.326630 -23.831453 17.351376
v 234.326630 -24.110184 17.266178
v 233.331390 -24.110184 17.266178
v 233.279327 -31.833376 29.829592
v 234.063934 -31.833376 29.829592
v 235.059662 -24.219261 29.712530
v 233.331390 -24.110182 29.712530
v 236.870728 -23.831451 28.950232
v 236.569763 -23.708431 28.950232
v 236.569763 -23.708431 29.335783
v 236.870728 -23.831451 29.505430
v 235.861847 -23.831451 17.351376
v 235.861847 -23.708431 17.537186
v 236.417603 -23.708431 17.537186
v 236.718475 -23.831453 17.351376
v 233.317383 -23.872446 17.990807
v 233.618317 -23.749424 17.988903
v 233.618317 -23.708431 17.642925
v 233.317383 -23.831453 17.473278
v 235.059662 -23.940531 29.627329
v 235.059662 -23.817509 29.441523
v 233.770508 -23.708431 29.441523
v 233.469635 -23.831451 29.627329
v 236.427155 -24.199390 28.893641
v 236.427155 -24.199390 29.289801
v 235.773834 -24.199392 17.629276
v 233.777924 -24.240385 18.046139
v 233.777924 -24.199392 17.686501
v 235.108032 -24.308472 29.347025
v 233.918121 -24.199390 29.347025
v 237.198334 -31.833378 17.240128
v 237.387939 -39.556564 17.173347
v 237.008728 -24.110182 29.588873
v 233.252563 -39.556564 29.998358
v 233.179382 -24.110184 17.389832
v 236.856720 -24.110184 17.266178
v 237.046356 -31.833378 29.829592
v 233.141754 -31.833374 17.107655
v 232.989777 -31.833374 17.240128
v 236.417603 -23.708431 29.441523
v 236.569794 -23.708431 17.642925
v 233.770508 -23.708431 17.537186
v 233.618317 -23.708431 29.335783
v 236.286957 -24.199390 29.347025
v 233.918121 -24.199392 17.629276
v 233.777924 -24.199390 29.289801
v 232.952087 -39.556564 17.032055
v 234.063934 -31.833376 17.107655
v 233.801270 -39.556564 17.032055
v 233.917480 -24.240385 18.045254
v 234.431580 -24.240385 18.041996
v 234.431580 -24.199392 17.629276
v 235.861847 -24.110184 17.266178
v 236.387177 -39.556564 29.989592
v 236.124512 -31.833378 29.829592
v 233.801270 -39.556564 29.946653
v 234.326630 -23.708431 17.537186
v 235.861847 -23.708431 29.441523
v 235.773834 -24.199390 29.347025
v 235.773834 -24.199392 18.027374
v 237.235992 -39.556564 29.946653
v 237.387939 -39.556564 17.659653
v 237.198334 -31.833378 17.810474
v 233.179382 -24.151176 17.991684
v 233.035156 -31.833374 18.212605
v 236.286957 -24.199390 28.893641
v 237.008728 -24.110182 28.950232
v 236.569794 -23.708431 17.964081
v 233.618317 -23.708431 28.950232
v 233.777924 -24.199390 28.893641
v 235.108032 -24.308472 28.893641
v 233.917938 -24.210873 28.893641
v 235.773834 -24.199390 28.893641
v 232.800171 -39.556564 17.257740
v 232.890961 -39.556564 18.433525
v 237.511871 -39.556561 46.847412
v 237.103821 -31.833376 46.875908
v 237.198334 -31.833374 47.486916
v 237.387939 -39.556561 47.595161
v 232.989777 -31.833374 47.417862
v 232.899109 -31.833374 46.886200
v 232.800171 -39.556561 47.032364
v 232.800171 -39.556561 47.595161
v 236.387177 -39.556564 34.774445
v 236.124512 -31.833374 34.873749
v 237.046356 -31.833376 34.897453
v 237.235992 -39.556564 34.821854
v 236.427155 -24.199390 35.476303
v 236.286957 -24.199390 35.419075
v 236.286957 -24.199390 35.813919
v 236.427155 -24.199390 35.813034
v 236.718475 -23.831450 47.417130
v 235.861847 -23.831450 47.417130
v 235.861847 -24.110180 47.502327
v 236.856720 -24.110180 47.502327
v 236.870728 -23.831451 35.263077
v 236.870728 -23.831451 35.751976
v 237.008728 -24.110180 35.751099
v 237.008728 -24.110180 35.179634
v 233.317352 -23.831450 47.295227
v 233.317352 -23.831450 46.740028
v 233.179382 -24.110180 46.740028
v 233.179382 -24.110180 47.378677
v 233.469635 -23.831451 35.141174
v 234.326630 -23.831451 35.141174
v 234.326630 -24.110180 35.055977
v 233.331390 -24.110180 35.055977
v 233.279327 -31.833374 47.619392
v 234.063934 -31.833374 47.619392
v 235.059662 -24.219259 47.502327
v 233.331390 -24.110180 47.502327
v 236.870728 -23.831450 46.740028
v 236.569763 -23.708429 46.740028
v 236.569763 -23.708429 47.125587
v 236.870728 -23.831450 47.295227
v 235.861847 -23.831450 35.141174
v 235.861847 -23.708429 35.326988
v 236.417603 -23.708429 35.326988
v 236.718475 -23.831451 35.141174
v 233.317383 -23.872444 35.780609
v 233.618317 -23.749424 35.778702
v 233.618317 -23.708429 35.432724
v 233.317383 -23.831451 35.263077
v 235.059662 -23.940529 47.417130
v 235.059662 -23.817509 47.231323
v 233.770508 -23.708429 47.231323
v 233.469635 -23.831450 47.417130
v 236.427155 -24.199390 46.683441
v 236.427155 -24.199390 47.079605
v 235.773834 -24.199390 35.419075
v 233.777924 -24.240383 35.835938
v 233.777924 -24.199390 35.476303
v 235.108032 -24.308468 47.136826
v 233.918121 -24.199390 47.136826
v 237.198334 -31.833376 35.029922
v 237.387939 -39.556564 34.963142
v 237.008728 -24.110180 47.378677
v 233.252563 -39.556561 47.788162
v 233.179382 -24.110180 35.179634
v 236.856720 -24.110180 35.055977
v 237.046356 -31.833376 47.619392
v 233.141754 -31.833372 34.897453
v 232.989777 -31.833372 35.029922
v 236.417603 -23.708429 47.231323
v 236.569794 -23.708429 35.432724
v 233.770508 -23.708429 35.326988
v 233.618317 -23.708429 47.125587
v 236.286957 -24.199390 47.136826
v 233.918121 -24.199390 35.419075
v 233.777924 -24.199390 47.079605
v 232.952087 -39.556561 34.821854
v 234.063934 -31.833374 34.897453
v 233.801270 -39.556561 34.821854
v 233.917480 -24.240383 35.835052
v 234.431580 -24.240383 35.831795
v 234.431580 -24.199390 35.419075
v 235.861847 -24.110180 35.055977
v 236.387177 -39.556561 47.779396
v 236.124512 -31.833376 47.619392
v 233.801270 -39.556561 47.736450
v 234.326630 -23.708429 35.326988
v 235.861847 -23.708429 47.231323
v 235.773834 -24.199390 47.136826
v 235.773834 -24.199390 35.817169
v 237.235992 -39.556561 47.736450
v 237.387939 -39.556564 35.449455
v 237.198334 -31.833376 35.600273
v 233.179382 -24.151175 35.781479
v 233.035156 -31.833372 36.002403
v 236.286957 -24.199390 46.683441
v 237.008728 -24.110180 46.740028
v 236.569794 -23.708429 35.753883
v 233.618317 -23.708429 46.740028
v 233.777924 -24.199390 46.683441
v 235.108032 -24.308468 46.683441
v 233.917938 -24.210871 46.683441
v 235.773834 -24.199390 46.683441
v 232.800171 -39.556564 35.047539
v 232.890961 -39.556564 36.223328
v 241.386871 -48.711624 25.990427
v 240.978821 -42.220726 26.011202
v 241.073334 -42.220726 26.456663
v 241.262939 -48.711624 26.535578
v 236.864777 -42.220726 26.406317
v 236.774109 -42.220726 26.018702
v 236.675171 -48.711624 26.125265
v 236.675171 -48.711624 26.535578
v 240.262177 -48.711624 17.188522
v 239.999512 -42.220726 17.260918
v 240.921356 -42.220726 17.278202
v 241.110992 -48.711624 17.223087
v 240.302155 -35.804798 17.700214
v 240.161957 -35.804798 17.658497
v 240.161957 -35.804798 17.946362
v 240.302155 -35.804798 17.945713
v 240.593475 -35.495567 26.405783
v 239.736847 -35.495567 26.405783
v 239.736847 -35.729824 26.467897
v 240.731720 -35.729824 26.467897
v 240.745728 -35.495567 17.544762
v 240.745728 -35.495567 17.901196
v 240.883728 -35.729824 17.900558
v 240.883728 -35.729824 17.483929
v 237.192352 -35.495567 26.316912
v 237.192352 -35.495567 25.912138
v 237.054382 -35.729824 25.912138
v 237.054382 -35.729824 26.377745
v 237.344635 -35.495567 17.455891
v 238.201630 -35.495567 17.455891
v 238.201630 -35.729824 17.393776
v 237.206390 -35.729824 17.393776
v 237.154327 -42.220726 26.553244
v 237.938934 -42.220726 26.553244
v 238.934662 -35.821499 26.467897
v 237.206390 -35.729824 26.467897
v 240.745728 -35.495567 25.912138
v 240.444794 -35.392174 25.912138
v 240.444794 -35.392174 26.193228
v 240.745728 -35.495567 26.316912
v 239.736847 -35.495567 17.455891
v 239.736847 -35.392174 17.591354
v 240.292603 -35.392174 17.591354
v 240.593475 -35.495567 17.455891
v 237.192383 -35.530022 17.922073
v 237.493317 -35.426628 17.920685
v 237.493317 -35.392174 17.668446
v 237.192383 -35.495567 17.544762
v 238.934662 -35.587242 26.405783
v 238.934662 -35.483849 26.270315
v 237.645508 -35.392174 26.270315
v 237.344635 -35.495567 26.405783
v 240.302155 -35.804798 25.870878
v 240.302155 -35.804798 26.159704
v 239.648834 -35.804798 17.658497
v 237.652924 -35.839252 17.962410
v 237.652924 -35.804798 17.700214
v 238.983032 -35.896473 26.201422
v 237.793121 -35.804798 26.201422
v 241.073334 -42.220726 17.374783
v 241.262939 -48.711624 17.326096
v 240.883728 -35.729824 26.377745
v 237.127563 -48.711620 26.676283
v 237.054382 -35.729824 17.483929
v 240.731720 -35.729824 17.393776
v 240.921356 -42.220726 26.553244
v 237.016724 -42.220726 17.278202
v 236.864777 -42.220726 17.374783
v 240.292603 -35.392174 26.270319
v 240.444794 -35.392174 17.668446
v 237.645508 -35.392174 17.591354
v 237.493317 -35.392174 26.193228
v 240.161957 -35.804798 26.201422
v 237.793121 -35.804798 17.658497
v 237.652924 -35.804798 26.159704
v 236.827087 -48.711624 17.223087
v 237.938934 -42.220726 17.278202
v 237.676270 -48.711624 17.223087
v 237.792480 -35.839252 17.961765
v 238.306580 -35.839252 17.959393
v 238.306580 -35.804798 17.658497
v 239.736847 -35.729824 17.393776
v 240.262177 -48.711624 26.669893
v 239.999512 -42.220726 26.553244
v 237.676270 -48.711620 26.638590
v 238.201630 -35.392174 17.591354
v 239.736847 -35.392174 26.270319
v 239.648834 -35.804798 26.201422
v 239.648834 -35.804798 17.948730
v 241.110992 -48.711624 26.638590
v 241.262939 -48.711624 17.680641
v 241.073334 -42.220726 17.790600
v 237.054382 -35.764275 17.922710
v 236.910156 -42.220726 18.083775
v 240.161957 -35.804798 25.870878
v 240.883728 -35.729824 25.912138
v 240.444794 -35.392174 17.902588
v 237.493317 -35.392174 25.912138
v 237.652924 -35.804798 25.870878
v 238.983032 -35.896473 25.870878
v 237.792938 -35.814449 25.870878
v 239.648834 -35.804798 25.870878
v 236.675171 -48.711624 17.387623
v 236.765961 -48.711624 18.244839
v 241.386871 -48.711620 41.126724
v 240.978821 -42.220722 41.147499
v 241.073334 -42.220722 41.592964
v 241.262939 -48.711620 41.671875
v 236.864777 -42.220722 41.542610
v 236.774109 -42.220722 41.154999
v 236.675171 -48.711620 41.261566
v 236.675171 -48.711620 41.671875
v 240.262177 -48.711620 32.324821
v 239.999512 -42.220722 32.397217
v 240.921356 -42.220722 32.414497
v 241.110992 -48.711620 32.359383
v 240.302155 -35.804794 32.836510
v 240.161957 -35.804794 32.794792
v 240.161957 -35.804794 33.082657
v 240.302155 -35.804794 33.082008
v 240.593475 -35.495564 41.542084
v 239.736847 -35.495564 41.542084
v 239.736847 -35.729820 41.604195
v 240.731720 -35.729820 41.604195
v 240.745728 -35.495564 32.681061
v 240.745728 -35.495564 33.037498
v 240.883728 -35.729820 33.036858
v 240.883728 -35.729820 32.620224
v 237.192352 -35.495564 41.453209
v 237.192352 -35.495564 41.048439
v 237.054382 -35.729820 41.048439
v 237.054382 -35.729820 41.514046
v 237.344635 -35.495564 32.592186
v 238.201630 -35.495564 32.592186
v 238.201630 -35.729820 32.530075
v 237.206390 -35.729820 32.530075
v 237.154327 -42.220722 41.689545
v 237.938934 -42.220722 41.689545
v 238.934662 -35.821495 41.604195
v 237.206390 -35.729820 41.604195
v 240.745728 -35.495564 41.048439
v 240.444794 -35.392170 41.048439
v 240.444794 -35.392170 41.329529
v 240.745728 -35.495564 41.453209
v 239.736847 -35.495564 32.592186
v 239.736847 -35.392170 32.727654
v 240.292603 -35.392170 32.727654
v 240.593475 -35.495564 32.592186
v 237.192383 -35.530014 33.058372
v 237.493317 -35.426624 33.056984
v 237.493317 -35.392170 32.804741
v 237.192383 -35.495564 32.681061
v 238.934662 -35.587238 41.542084
v 238.934662 -35.483845 41.406616
v 237.645508 -35.392170 41.406616
v 237.344635 -35.495564 41.542084
v 240.302155 -35.804794 41.007179
v 240.302155 -35.804794 41.296005
v 239.648834 -35.804794 32.794792
v 237.652924 -35.839249 33.098709
v 237.652924 -35.804794 32.836510
v 238.983032 -35.896469 41.337723
v 237.793121 -35.804794 41.337723
v 241.073334 -42.220722 32.511078
v 241.262939 -48.711620 32.462395
v 240.883728 -35.729820 41.514046
v 237.127563 -48.711617 41.812584
v 237.054382 -35.729820 32.620224
v 240.731720 -35.729820 32.530075
v 240.921356 -42.220722 41.689545
v 237.016724 -42.220722 32.414497
v 236.864777 -42.220722 32.511078
v 240.292603 -35.392170 41.406616
v 240.444794 -35.392170 32.804741
v 237.645508 -35.392170 32.727654
v 237.493317 -35.392170 41.329529
v 240.161957 -35.804794 41.337723
v 237.793121 -35.804794 32.794792
v 237.652924 -35.804794 41.296005
v 236.827087 -48.711617 32.359383
v 237.938934 -42.220722 32.414497
v 237.676270 -48.711617 32.359383
v 237.792480 -35.839249 33.098061
v 238.306580 -35.839249 33.095688
v 238.306580 -35.804794 32.794792
v 239.736847 -35.729820 32.530075
v 240.262177 -48.711620 41.806190
v 239.999512 -42.220722 41.689545
v 237.676270 -48.711617 41.774887
v 238.201630 -35.392170 32.727654
v 239.736847 -35.392170 41.406616
v 239.648834 -35.804794 41.337723
v 239.648834 -35.804794 33.085030
v 241.110992 -48.711620 41.774887
v 241.262939 -48.711620 32.816940
v 241.073334 -42.220722 32.926895
v 237.054382 -35.764275 33.059006
v 236.910156 -42.220722 33.220070
v 240.161957 -35.804794 41.007179
v 240.883728 -35.729820 41.048439
v 240.444794 -35.392170 33.038887
v 237.493317 -35.392170 41.048439
v 237.652924 -35.804794 41.007179
v 238.983032 -35.896469 41.007179
v 237.792938 -35.814445 41.007179
v 239.648834 -35.804794 41.007179
v 236.675171 -48.711620 32.523918
v 236.765961 -48.711620 33.381134
vn 0.0502 0.0861 -0.9950
vn -0.0652 0.0708 -0.9954
vn 0.3298 0.0757 -0.9410
vn 0.4356 0.0604 -0.8981
vn 0.4962 0.0463 0.8670
vn 0.0647 0.0478 0.9968
vn 0.0042 0.0381 0.9993
vn 0.5342 0.0721 0.8423
vn -0.9994 0.0282 -0.0205
vn -0.9991 0.0419 -0.0081
vn -0.9190 0.0459 -0.3915
vn -0.9992 0.0313 -0.0237
vn 0.3512 0.8003 0.4861
vn 0.5624 0.8190 0.1140
vn -0.0000 1.0000 -0.0000
vn -0.0000 0.8710 0.4912
vn 0.6807 0.7057 -0.1966
vn 0.6082 0.7932 0.0298
vn 0.9435 0.3313 0.0108
vn 0.7428 0.6617 -0.1016
vn -0.1961 0.8309 -0.5207
vn -0.0000 0.8849 -0.4658
vn 0.0017 0.4119 -0.9112
vn -0.3682 0.4230 -0.8280
vn 0.1961 0.8309 0.5207
vn -0.0007 0.7399 0.6727
vn -0.0028 0.4225 0.9063
vn 0.3770 0.4221 0.8244
vn -0.6807 0.7057 0.1965
vn -0.7519 0.6592 -0.0000
vn -0.9429 0.3331 0.0011
vn -0.7424 0.6621 0.1025
vn 0.9414 0.0428 0.3345
vn 0.9991 0.0416 -0.0005
vn 0.9481 0.3179 0.0053
vn 0.8545 0.4538 0.2526
vn -0.0000 0.8860 -0.4637
vn -0.0000 0.9145 0.4046
vn -0.1166 0.9658 0.2317
vn 0.2352 0.9168 -0.3226
vn -0.5558 0.8313 -0.0000
vn 0.4259 0.9048 -0.0000
vn 0.2375 0.9616 0.1373
vn -0.3721 0.9013 -0.2217
vn 0.0229 0.8839 0.4671
vn 0.0238 0.9236 -0.3827
vn 0.1295 0.9696 -0.2078
vn -0.2153 0.9162 0.3381
vn 0.5751 0.8166 -0.0498
vn -0.4301 0.9027 0.0090
vn -0.2034 0.9667 -0.1553
vn 0.3941 0.8967 0.2016
vn -0.3020 0.8204 0.4855
vn 0.5446 0.8387 -0.0000
vn 0.0196 0.8852 -0.4649
vn 0.3226 0.8220 -0.4694
vn -0.5316 0.8469 0.0158
vn -0.5594 0.8191 -0.1273
vn -0.3859 0.0608 -0.9205
vn -0.3686 0.0550 -0.9280
vn 0.3665 0.4146 -0.8329
vn 0.9790 0.0523 0.1969
vn -0.3636 0.4245 0.8292
vn -0.6685 0.7138 -0.2088
vn 0.9260 0.0526 -0.3740
vn -0.9266 0.0493 0.3727
vn -0.3683 0.0591 0.9278
vn -0.2625 0.9558 0.1325
vn 0.1174 0.9695 0.2150
vn 0.2562 0.9572 -0.1349
vn -0.1083 0.9737 -0.2004
vn -0.5537 0.8278 0.0904
vn 0.5707 0.8163 -0.0894
vn -0.3474 0.8120 -0.4690
vn -0.8685 0.0372 0.4944
vn -0.9993 0.0364 0.0066
vn -0.9996 0.0252 0.0088
vn 0.0224 0.9997 -0.0018
vn 0.0216 0.9997 0.0076
vn 0.5603 0.8283 0.0033
vn -0.9426 0.3339 -0.0012
vn 0.9986 0.0474 -0.0240
vn 0.9992 0.0400 -0.0020
vn 0.9984 0.0326 -0.0469
vn -0.4153 0.9093 0.0286
vn -0.5436 0.8386 0.0353
vn 0.0023 1.0000 0.0044
vn 0.9069 0.0596 -0.4172
vn 0.0021 0.0561 -0.9984
vn 0.0037 0.0509 -0.9987
vn 0.0082 0.4065 0.9136
vn 0.0188 0.0439 0.9989
vn -0.0000 0.4014 -0.9159
vn -0.0007 0.9246 -0.3810
vn -0.0007 0.8739 -0.4862
vn 0.0015 0.9998 0.0209
vn -0.0032 0.9993 -0.0385
vn 0.0016 0.9993 0.0382
vn -0.2298 0.0450 0.9722
vn 0.0270 0.0395 0.9989
vn 0.0957 0.0403 -0.9946
vn -0.1018 0.0329 -0.9943
vn 0.3918 0.0359 -0.9194
vn 0.5628 0.0260 -0.8262
vn 0.6159 0.0193 0.7876
vn 0.1045 0.0232 0.9943
vn -0.0020 0.0185 0.9998
vn 0.5923 0.0297 0.8052
vn -0.9999 0.0086 -0.0134
vn -0.9999 0.0128 -0.0052
vn -0.9578 0.0085 -0.2872
vn -0.9961 0.0012 0.0885
vn 0.4626 0.6895 0.5572
vn 0.6771 0.7297 0.0951
vn -0.0000 0.7997 0.6004
vn 0.8774 0.4101 -0.2489
vn 0.8830 0.4678 0.0383
vn 0.9928 0.1194 0.0084
vn 0.8769 0.4686 -0.1069
vn -0.3878 0.6144 -0.6871
vn -0.0000 0.7303 -0.6831
vn 0.0015 0.2383 -0.9712
vn -0.4759 0.2423 -0.8455
vn 0.3878 0.6144 0.6871
vn -0.0020 0.5306 0.8476
vn -0.0028 0.2437 0.9699
vn 0.4790 0.2429 0.8435
vn -0.8774 0.4101 0.2490
vn -0.9596 0.2813 -0.0000
vn -0.9931 0.1173 0.0004
vn -0.8783 0.4660 0.1069
vn 0.9713 0.0122 0.2374
vn 0.9999 0.0131 -0.0001
vn 0.9941 0.1084 0.0035
vn 0.9525 0.2380 0.1902
vn -0.0000 0.7320 -0.6813
vn -0.0000 0.9004 0.4350
vn -0.0726 0.9792 0.1896
vn 0.4273 0.7546 -0.4981
vn -0.8554 0.5180 -0.0000
vn 0.3418 0.9398 -0.0000
vn 0.2019 0.9655 0.1644
vn -0.6482 0.7100 -0.2752
vn 0.0490 0.7209 0.6913
vn 0.0734 0.8973 -0.4353
vn 0.1332 0.9792 -0.1531
vn -0.3822 0.7661 0.5168
vn 0.8725 0.4863 -0.0475
vn -0.3616 0.9320 0.0233
vn -0.1538 0.9644 -0.2150
vn 0.6646 0.7038 0.2507
vn -0.4422 0.7020 0.5583
vn 0.6575 0.7535 -0.0000
vn 0.0604 0.8171 -0.5734
vn 0.4954 0.6675 -0.5558
vn -0.6319 0.7745 0.0299
vn -0.6924 0.7101 -0.1276
vn -0.4822 0.0268 -0.8756
vn -0.4667 0.0246 -0.8841
vn 0.4748 0.2376 -0.8474
vn 0.9911 0.0161 0.1325
vn -0.4664 0.2483 0.8490
vn -0.8312 0.5119 -0.2171
vn 0.9620 0.0175 -0.2726
vn -0.9621 0.0146 0.2722
vn -0.4546 0.0260 0.8903
vn -0.2161 0.9634 0.1589
vn 0.0667 0.9816 0.1792
vn 0.2127 0.9637 -0.1616
vn -0.0599 0.9835 -0.1708
vn -0.6716 0.7363 0.0827
vn 0.7158 0.6929 -0.0872
vn -0.4680 0.6894 -0.5529
vn -0.9174 0.0129 0.3977
vn -0.9999 0.0112 0.0042
vn -1.0000 0.0079 0.0061
vn 0.0717 0.9974 -0.0053
vn 0.0700 0.9974 0.0162
vn 0.7037 0.7104 0.0080
vn -0.9931 0.1174 -0.0004
vn 0.9998 0.0143 -0.0139
vn 0.9999 0.0122 -0.0006
vn 0.9995 0.0101 -0.0291
vn -0.3286 0.9425 0.0618
vn -0.6722 0.7378 0.0614
vn 0.0048 1.0000 0.0086
vn 0.9518 0.0198 -0.3061
vn -0.0006 0.0312 -0.9995
vn 0.0057 0.0245 -0.9997
vn 0.0118 0.2311 0.9729
vn 0.0263 0.0225 0.9994
vn -0.0000 0.2338 -0.9723
vn -0.0023 0.9074 -0.4202
vn -0.0021 0.7840 -0.6207
vn 0.0052 0.9990 0.0444
vn -0.0119 0.9969 -0.0784
vn 0.0050 0.9970 0.0776
vn -0.3134 0.0208 0.9494
vn 0.0448 0.0181 0.9988
vn 0.0682 0.0405 -0.9968
vn -0.0751 0.0334 -0.9966
vn 0.3475 0.0367 -0.9370
vn 0.4732 0.0282 -0.8805
vn 0.5343 0.0212 0.8450
vn 0.0765 0.0231 0.9968
vn -0.0004 0.0185 0.9998
vn 0.5525 0.0331 0.8329
vn -0.9998 0.0118 -0.0184
vn -0.9998 0.0175 -0.0071
vn -0.9322 0.0141 -0.3616
vn -0.9999 0.0056 0.0126
vn 0.4169 0.7035 0.5756
vn 0.6618 0.7389 0.1267
vn 0.8354 0.4747 -0.2770
vn 0.8235 0.5655 0.0448
vn 0.9869 0.1612 0.0113
vn 0.8356 0.5213 -0.1734
vn -0.3189 0.6415 -0.6977
vn 0.0013 0.2386 -0.9711
vn -0.4188 0.2577 -0.8708
vn 0.3189 0.6415 0.6977
vn -0.0015 0.5315 0.8471
vn -0.0024 0.2440 0.9698
vn 0.4224 0.2577 0.8690
vn -0.8354 0.4747 0.2770
vn -0.9221 0.3869 -0.0000
vn -0.9873 0.1586 0.0005
vn -0.8369 0.5193 0.1733
vn 0.9524 0.0170 0.3043
vn 0.9998 0.0179 -0.0002
vn 0.9892 0.1465 0.0048
vn 0.9260 0.2810 0.2521
vn -0.1157 0.9695 0.2159
vn 0.3587 0.7796 -0.5133
vn -0.7902 0.6128 -0.0000
vn 0.3897 0.9209 -0.0000
vn 0.2162 0.9627 0.1628
vn -0.5774 0.7577 -0.3042
vn 0.0386 0.7236 0.6891
vn 0.0538 0.9007 -0.4310
vn 0.1590 0.9701 -0.1834
vn -0.3247 0.7836 0.5296
vn 0.8116 0.5825 -0.0449
vn -0.4099 0.9118 0.0224
vn -0.1691 0.9633 -0.2084
vn 0.5965 0.7532 0.2772
vn -0.3909 0.7181 0.5758
vn 0.6386 0.7695 -0.0000
vn 0.0440 0.8155 -0.5771
vn 0.4320 0.6952 -0.5745
vn -0.6134 0.7892 0.0300
vn -0.6718 0.7235 -0.1590
vn -0.4151 0.0286 -0.9093
vn -0.3988 0.0260 -0.9167
vn 0.4176 0.2528 -0.8727
vn 0.9849 0.0219 0.1717
vn -0.4118 0.2611 0.8731
vn -0.7789 0.5586 -0.2851
vn 0.9387 0.0228 -0.3441
vn -0.9390 0.0198 0.3435
vn -0.3944 0.0277 0.9185
vn -0.2326 0.9596 0.1586
vn 0.1128 0.9727 0.2028
vn 0.2287 0.9601 -0.1612
vn -0.1061 0.9754 -0.1934
vn -0.6551 0.7475 0.1100
vn 0.6875 0.7173 -0.1133
vn -0.4205 0.7058 -0.5701
vn -0.8844 0.0161 0.4664
vn -0.9999 0.0154 0.0057
vn -0.9999 0.0108 0.0084
vn 0.0528 0.9986 -0.0041
vn 0.0511 0.9986 0.0159
vn 0.6726 0.7400 0.0075
vn -0.9873 0.1588 -0.0005
vn 0.9996 0.0196 -0.0190
vn 0.9999 0.0167 -0.0009
vn 0.9991 0.0138 -0.0399
vn 0.3897 0.9210 -0.0000
vn -0.3752 0.9250 0.0608
vn -0.6518 0.7557 0.0633
vn 0.0047 0.9999 0.0090
vn 0.9230 0.0259 -0.3839
vn 0.0005 0.0298 -0.9996
vn 0.0042 0.0245 -0.9997
vn 0.0091 0.2330 0.9724
vn 0.0197 0.0221 0.9996
vn -0.0017 0.9074 -0.4203
vn -0.0015 0.7841 -0.6206
vn 0.0037 0.9991 0.0433
vn -0.0078 0.9968 -0.0795
vn 0.0038 0.9969 0.0785
vn -0.2543 0.0213 0.9669
vn 0.0323 0.0184 0.9993
vn 0.8236 0.5655 0.0448
vn -0.3908 0.7181 0.5758
vn -0.3751 0.9250 0.0609
vn -0.6518 0.7558 0.0633
vn 0.9968 0.0405 0.0682
vn 0.9966 0.0334 -0.0751
vn 0.9370 0.0367 0.3475
vn 0.8805 0.0282 0.4732
vn -0.8450 0.0212 0.5343
vn -0.9968 0.0231 0.0765
vn -0.9998 0.0185 -0.0004
vn -0.8329 0.0331 0.5525
vn 0.0184 0.0118 -0.9998
vn 0.0071 0.0175 -0.9998
vn 0.3616 0.0141 -0.9322
vn -0.0126 0.0056 -0.9999
vn -0.5756 0.7035 0.4169
vn -0.1267 0.7389 0.6618
vn -0.6004 0.7997 -0.0000
vn 0.2770 0.4747 0.8354
vn -0.0448 0.5655 0.8235
vn -0.0113 0.1612 0.9869
vn 0.1734 0.5214 0.8355
vn 0.6977 0.6415 -0.3189
vn 0.6831 0.7303 -0.0000
vn 0.9711 0.2386 0.0013
vn 0.8708 0.2577 -0.4188
vn -0.6977 0.6415 0.3189
vn -0.8471 0.5314 -0.0015
vn -0.9698 0.2440 -0.0024
vn -0.8690 0.2577 0.4224
vn -0.2770 0.4747 -0.8354
vn -0.0000 0.3869 -0.9221
vn -0.0005 0.1586 -0.9873
vn -0.1733 0.5193 -0.8369
vn -0.3043 0.0170 0.9524
vn 0.0002 0.0179 0.9998
vn -0.0048 0.1465 0.9892
vn -0.2521 0.2811 0.9260
vn 0.6813 0.7320 -0.0000
vn -0.4350 0.9004 -0.0000
vn -0.2159 0.9695 -0.1157
vn 0.5133 0.7796 0.3587
vn -0.0000 0.6128 -0.7902
vn -0.0000 0.9209 0.3897
vn -0.1628 0.9627 0.2163
vn 0.3041 0.7577 -0.5774
vn -0.6891 0.7236 0.0386
vn 0.4310 0.9007 0.0538
vn 0.1834 0.9701 0.1591
vn -0.5296 0.7836 -0.3247
vn 0.0449 0.5825 0.8116
vn -0.0224 0.9119 -0.4099
vn 0.2084 0.9633 -0.1690
vn -0.2772 0.7532 0.5965
vn -0.5758 0.7181 -0.3909
vn -0.0000 0.7695 0.6386
vn 0.5771 0.8155 0.0440
vn 0.5745 0.6952 0.4320
vn -0.0300 0.7892 -0.6134
vn 0.1589 0.7235 -0.6718
vn 0.9094 0.0286 -0.4150
vn 0.9167 0.0260 -0.3988
vn 0.8727 0.2528 0.4176
vn -0.1717 0.0219 0.9849
vn -0.8731 0.2611 -0.4118
vn 0.2851 0.5586 -0.7789
vn 0.3441 0.0228 0.9386
vn -0.3434 0.0198 -0.9390
vn -0.9185 0.0277 -0.3944
vn -0.1586 0.9596 -0.2326
vn -0.2028 0.9727 0.1128
vn 0.1612 0.9601 0.2287
vn 0.1934 0.9754 -0.1061
vn -0.1100 0.7475 -0.6551
vn 0.1133 0.7173 0.6875
vn 0.5701 0.7058 -0.4205
vn -0.4664 0.0161 -0.8844
vn -0.0058 0.0154 -0.9999
vn -0.0084 0.0108 -0.9999
vn 0.0041 0.9986 0.0528
vn -0.0159 0.9986 0.0511
vn -0.0075 0.7400 0.6726
vn 0.0005 0.1588 -0.9873
vn 0.0190 0.0196 0.9996
vn 0.0009 0.0167 0.9999
vn 0.0399 0.0138 0.9991
vn -0.0000 0.9210 0.3897
vn -0.0608 0.9250 -0.3751
vn -0.0633 0.7558 -0.6518
vn -0.0090 0.9999 0.0047
vn 0.3838 0.0259 0.9230
vn 0.9996 0.0298 0.0005
vn 0.9997 0.0245 0.0042
vn -0.9724 0.2330 0.0091
vn -0.9996 0.0221 0.0197
vn 0.9723 0.2338 -0.0000
vn 0.4204 0.9074 -0.0017
vn 0.6206 0.7841 -0.0015
vn -0.0433 0.9991 0.0037
vn 0.0795 0.9968 -0.0078
vn -0.0785 0.9969 0.0038
vn -0.9669 0.0213 -0.2543
vn -0.9993 0.0184 0.0323
vn -0.0609 0.9250 -0.3751
vn 0.9944 0.0481 0.0941
vn 0.9940 0.0394 -0.1020
vn 0.9187 0.0426 0.3925
vn 0.8262 0.0310 0.5625
vn -0.7878 0.0230 0.6155
vn -0.9942 0.0275 0.1042
vn -0.9998 0.0220 -0.0013
vn -0.8051 0.0353 0.5921
vn 0.0134 0.0102 -0.9999
vn 0.0052 0.0152 -0.9999
vn 0.2870 0.0120 -0.9578
vn -0.0880 0.0040 -0.9961
vn -0.5403 0.7057 0.4585
vn -0.0924 0.7397 0.6665
vn -0.5802 0.8145 -0.0000
vn 0.2318 0.4607 0.8567
vn -0.0355 0.5209 0.8529
vn -0.0082 0.1402 0.9901
vn 0.0871 0.4901 0.8673
vn 0.6522 0.6630 -0.3676
vn 0.6343 0.7731 -0.0000
vn 0.9613 0.2756 0.0017
vn 0.8376 0.2765 -0.4711
vn -0.6522 0.6630 0.3676
vn -0.8112 0.5848 -0.0018
vn -0.9595 0.2819 -0.0031
vn -0.8353 0.2772 0.4748
vn -0.2318 0.4608 -0.8567
vn -0.0000 0.3398 -0.9405
vn -0.0004 0.1386 -0.9903
vn -0.0873 0.4878 -0.8686
vn -0.2375 0.0149 0.9713
vn 0.0001 0.0155 0.9999
vn -0.0036 0.1293 0.9916
vn -0.1899 0.2683 0.9444
vn 0.6324 0.7746 -0.0000
vn -0.4381 0.8989 -0.0000
vn -0.2017 0.9759 -0.0832
vn 0.4569 0.7908 0.4072
vn -0.0000 0.5706 -0.8212
vn -0.0000 0.9291 0.3698
vn -0.1593 0.9605 0.2282
vn 0.2576 0.7463 -0.6137
vn -0.6410 0.7662 0.0445
vn 0.4329 0.8993 0.0618
vn 0.1690 0.9766 0.1328
vn -0.4751 0.7997 -0.3670
vn 0.0485 0.5420 0.8390
vn -0.0189 0.9222 -0.3863
vn 0.2020 0.9626 -0.1806
vn -0.2351 0.7396 0.6306
vn -0.5414 0.7199 -0.4343
vn -0.0000 0.7618 0.6478
vn 0.5537 0.8311 0.0516
vn 0.5351 0.6944 0.4811
vn -0.0254 0.7794 -0.6261
vn 0.1195 0.7250 -0.6783
vn 0.8754 0.0319 -0.4823
vn 0.8841 0.0293 -0.4664
vn 0.8401 0.2711 0.4698
vn -0.1333 0.0192 0.9909
vn -0.8408 0.2822 -0.4620
vn 0.1955 0.5392 -0.8192
vn 0.2726 0.0208 0.9619
vn -0.2721 0.0179 -0.9621
vn -0.8900 0.0310 -0.4549
vn -0.1529 0.9575 -0.2447
vn -0.1905 0.9786 0.0782
vn 0.1558 0.9580 0.2407
vn 0.1810 0.9809 -0.0706
vn -0.0787 0.7466 -0.6606
vn 0.0821 0.7107 0.6987
vn 0.5333 0.7084 -0.4624
vn -0.3982 0.0154 -0.9172
vn -0.0042 0.0133 -0.9999
vn -0.0060 0.0094 -0.9999
vn 0.0045 0.9982 0.0604
vn -0.0137 0.9982 0.0590
vn -0.0067 0.7262 0.6874
vn 0.0004 0.1388 -0.9903
vn 0.0142 0.0170 0.9998
vn 0.0008 0.0145 0.9999
vn 0.0293 0.0120 0.9995
vn -0.0516 0.9325 -0.3575
vn -0.0528 0.7502 -0.6591
vn -0.0073 1.0000 0.0040
vn 0.3064 0.0235 0.9516
vn 0.9993 0.0362 0.0001
vn 0.9996 0.0291 0.0057
vn -0.9632 0.2685 0.0119
vn -0.9993 0.0265 0.0267
vn 0.9628 0.2701 -0.0000
vn 0.4214 0.9069 -0.0019
vn 0.5937 0.8047 -0.0018
vn -0.0375 0.9993 0.0043
vn 0.0659 0.9978 -0.0100
vn -0.0654 0.9979 0.0042
vn -0.9494 0.0248 -0.3131
vn -0.9988 0.0218 0.0445
vn -0.5403 0.7056 0.4585
vn -0.2017 0.9759 -0.0831
vn 0.2020 0.9626 -0.1805
vt 0.922990 0.978771
vt 0.925016 0.775168
vt 0.962695 0.774739
vt 0.969609 0.978244
vt 0.959825 0.221249
vt 0.926680 0.220438
vt 0.935912 0.017318
vt 0.970670 0.017655
vt 0.050561 0.024580
vt 0.071140 0.227750
vt 0.036656 0.229667
vt 0.018773 0.026360
vt 0.221362 0.541109
vt 0.218513 0.538073
vt 0.241571 0.538797
vt 0.241220 0.542453
vt 0.960680 0.559617
vt 0.963012 0.527347
vt 0.970447 0.527713
vt 0.968383 0.567285
vt 0.205371 0.563336
vt 0.236420 0.564226
vt 0.236286 0.571658
vt 0.199744 0.570578
vt 0.952959 0.431305
vt 0.917802 0.430453
vt 0.917857 0.423044
vt 0.958507 0.424139
vt 0.197564 0.435336
vt 0.195350 0.467641
vt 0.187665 0.467212
vt 0.189850 0.427443
vt 0.022073 0.692652
vt 0.051239 0.692685
vt 0.087299 0.893195
vt 0.020325 0.897148
vt 0.917341 0.565255
vt 0.917241 0.555337
vt 0.942146 0.553955
vt 0.952466 0.564544
vt 0.195100 0.525927
vt 0.205548 0.525368
vt 0.207837 0.546558
vt 0.197187 0.558264
vt 0.238623 0.429188
vt 0.238627 0.439307
vt 0.216072 0.440750
vt 0.205772 0.430336
vt 0.964395 0.496221
vt 0.953217 0.496689
vt 0.950717 0.447912
vt 0.961168 0.436415
vt 0.913209 0.543291
vt 0.936763 0.542090
vt 0.218217 0.521196
vt 0.243038 0.451607
vt 0.221730 0.452715
vt 0.940069 0.498752
vt 0.940158 0.456709
vt 0.176815 0.976571
vt 0.181691 0.772720
vt 0.191678 0.773480
vt 0.187240 0.977029
vt 0.958008 0.571831
vt 0.991311 0.018897
vt 0.976097 0.222261
vt 0.200260 0.423191
vt 0.189346 0.565924
vt 0.972694 0.773997
vt 0.968790 0.428872
vt 0.182776 0.221427
vt 0.192699 0.220395
vt 0.950212 0.547809
vt 0.215818 0.552850
vt 0.208142 0.447019
vt 0.942619 0.441697
vt 0.939728 0.539091
vt 0.218767 0.455879
vt 0.937214 0.453721
vt 0.178717 0.017504
vt 0.148220 0.223651
vt 0.147052 0.019486
vt 0.243158 0.455276
vt 0.242902 0.472906
vt 0.218387 0.472879
vt 0.972744 0.495846
vt 0.187408 0.526348
vt 0.138172 0.489161
vt 0.128220 0.692757
vt 0.041814 0.489176
vt 0.205790 0.468159
vt 0.952829 0.526795
vt 0.940358 0.522020
vt 0.241856 0.521207
vt 0.169902 0.489293
vt 0.162621 0.692747
vt 0.217442 0.977424
vt 0.227094 0.774189
vt 0.238681 0.421489
vt 0.252985 0.219954
vt 0.913078 0.539646
vt 0.917350 0.572720
vt 0.236760 0.554380
vt 0.917669 0.440301
vt 0.913586 0.452515
vt 0.913194 0.498880
vt 0.913355 0.456087
vt 0.913176 0.522137
vt 0.090973 0.430533
vt 0.051478 0.434800
vt 0.021133 0.489031
vt 0.980031 0.977810
vt 0.193794 0.016883
vt 0.150173 0.427312
vt 0.119165 0.895492
vt 0.158738 0.897556
vt 0.266783 0.016711
s 1
f 1/1/1 2/2/2 3/3/3
f 3/3/3 4/4/4 1/1/1
f 5/5/5 6/6/6 7/7/7
f 7/7/7 8/8/8 5/5/5
f 9/9/9 10/10/10 11/11/11
f 11/11/11 12/12/12 9/9/9
f 13/13/13 14/14/14 15/15/15
f 15/15/15 16/16/16 13/13/13
f 17/17/17 18/18/18 19/19/19
f 19/19/19 20/20/20 17/17/17
f 21/21/21 22/22/22 23/23/23
f 23/23/23 24/24/24 21/21/21
f 25/25/25 26/26/26 27/27/27
f 27/27/27 28/28/28 25/25/25
f 29/29/29 30/30/30 31/31/31
f 31/31/31 32/32/32 29/29/29
f 33/33/33 34/34/34 35/35/35
f 35/35/35 36/36/36 33/33/33
f 37/37/37 38/38/38 39/39/39
f 39/39/39 40/40/40 37/37/37
f 41/41/41 42/42/42 43/43/43
f 43/43/43 44/44/44 41/41/41
f 45/45/45 46/46/46 47/47/47
f 47/47/47 48/48/48 45/45/45
f 49/49/49 50/50/50 51/51/51
f 51/51/51 52/52/52 49/49/49
f 39/39/39 38/38/38 53/53/16
f 53/53/16 54/54/53 39/39/39
f 42/42/42 55/55/54 14/14/14
f 14/14/14 43/43/43 42/42/42
f 47/47/47 46/46/46 56/56/55
f 56/56/55 57/57/56 47/47/47
f 50/50/50 58/58/57 59/59/58
f 59/59/58 51/51/51 50/50/50
f 12/60/12 11/61/11 60/62/59
f 60/62/59 61/63/60 12/60/12
f 40/40/40 17/17/17 20/20/20
f 20/20/20 62/64/61 40/40/40
f 63/65/62 33/66/33 5/5/5
f 5/5/5 8/8/8 63/65/62
f 48/48/48 29/29/29 32/32/32
f 32/32/32 64/67/63 48/48/48
f 24/24/24 65/68/64 44/44/44
f 44/44/44 21/21/21 24/24/24
f 20/20/20 66/69/65 3/3/3
f 3/3/3 62/64/61 20/20/20
f 28/28/28 36/70/36 52/52/52
f 52/52/52 25/25/25 28/28/28
f 32/32/32 67/71/66 68/72/67
f 68/72/67 64/67/63 32/32/32
f 17/17/17 40/40/40 39/39/39
f 39/39/39 69/73/68 17/17/17
f 21/21/21 44/44/44 43/43/43
f 43/43/43 70/74/69 21/21/21
f 29/29/29 48/48/48 47/47/47
f 47/47/47 71/75/70 29/29/29
f 25/25/25 52/52/52 51/51/51
f 51/51/51 72/76/71 25/25/25
f 69/73/68 39/39/39 54/54/53
f 54/54/53 73/77/72 69/73/68
f 70/74/69 43/43/43 14/14/14
f 14/14/14 13/13/13 70/74/69
f 71/75/70 47/47/47 57/57/56
f 57/57/56 74/78/73 71/75/70
f 72/76/71 51/51/51 59/59/58
f 59/59/58 75/79/74 72/76/71
f 76/80/75 67/71/66 77/81/76
f 77/81/76 78/82/77 76/80/75
f 74/78/73 79/83/78 80/84/79
f 80/84/79 81/85/80 74/78/73
f 52/52/52 36/70/36 35/86/35
f 35/86/35 49/49/49 52/52/52
f 41/41/41 82/87/81 31/31/31
f 31/31/31 30/30/30 41/41/41
f 83/88/82 84/89/83 34/34/34
f 34/34/34 85/90/84 83/88/82
f 30/30/30 29/29/29 71/75/70
f 71/75/70 86/91/42 30/30/30
f 18/18/18 87/92/85 50/50/50
f 50/50/50 49/49/49 18/18/18
f 71/75/70 74/78/73 81/85/80
f 81/85/80 86/91/42 71/75/70
f 87/92/85 88/93/86 58/58/57
f 58/58/57 50/50/50 87/92/85
f 78/82/77 77/81/76 10/10/10
f 10/10/10 9/9/9 78/82/77
f 81/85/80 80/84/79 89/94/87
f 89/94/87 55/55/54 81/85/80
f 49/49/49 35/86/35 19/19/19
f 19/19/19 18/18/18 49/49/49
f 30/30/30 86/91/42 42/42/42
f 42/42/42 41/41/41 30/30/30
f 86/91/42 81/85/80 55/55/54
f 55/55/54 42/42/42 86/91/42
f 44/44/44 65/68/64 82/87/81
f 82/87/81 41/41/41 44/44/44
f 90/95/88 66/96/65 84/89/83
f 84/89/83 83/88/82 90/95/88
f 18/18/18 17/17/17 69/73/68
f 69/73/68 87/92/85 18/18/18
f 69/73/68 73/77/72 88/93/86
f 88/93/86 87/92/85 69/73/68
f 91/97/89 92/98/90 2/2/2
f 2/2/2 1/1/1 91/97/89
f 27/27/27 93/99/91 94/100/92
f 94/100/92 6/6/6 27/27/27
f 54/54/53 53/53/16 95/101/15
f 95/101/15 73/77/72 54/54/53
f 40/40/40 62/64/61 96/102/93
f 96/102/93 37/37/37 40/40/40
f 45/45/45 93/99/91 27/27/27
f 27/27/27 26/26/26 45/45/45
f 22/22/22 97/103/38 38/38/38
f 38/38/38 37/37/37 22/22/22
f 26/26/26 25/25/25 72/76/71
f 72/76/71 98/104/94 26/26/26
f 97/103/38 16/16/16 53/53/16
f 53/53/16 38/38/38 97/103/38
f 72/76/71 75/79/74 99/105/95
f 99/105/95 98/104/94 72/76/71
f 58/58/57 100/106/96 101/107/97
f 101/107/97 59/59/58 58/58/57
f 58/58/57 88/93/86 102/108/98
f 102/108/98 100/106/96 58/58/57
f 53/53/16 16/16/16 15/15/15
f 15/15/15 95/101/15 53/53/16
f 37/37/37 96/102/93 23/23/23
f 23/23/23 22/22/22 37/37/37
f 26/26/26 98/104/94 46/46/46
f 46/46/46 45/45/45 26/26/26
f 98/104/94 99/105/95 56/56/55
f 56/56/55 46/46/46 98/104/94
f 100/106/96 80/84/79 79/83/78
f 79/83/78 101/107/97 100/106/96
f 80/84/79 100/106/96 102/108/98
f 102/108/98 89/94/87 80/84/79
f 91/97/89 61/63/60 60/62/59
f 60/62/59 92/98/90 91/97/89
f 93/99/91 64/67/63 68/72/67
f 68/72/67 94/100/92 93/99/91
f 48/48/48 64/67/63 93/99/91
f 93/99/91 45/45/45 48/48/48
f 22/22/22 21/21/21 70/74/69
f 70/74/69 97/103/38 22/22/22
f 70/74/69 13/13/13 16/16/16
f 16/16/16 97/103/38 70/74/69
f 2/2/2 96/102/93 62/64/61
f 62/64/61 3/3/3 2/2/2
f 28/28/28 27/27/27 6/6/6
f 6/6/6 5/5/5 28/28/28
f 82/109/81 65/110/64 11/11/11
f 11/11/11 10/10/10 82/109/81
f 63/111/62 85/90/84 34/34/34
f 34/34/34 33/33/33 63/111/62
f 65/68/64 24/24/24 60/62/59
f 60/62/59 11/61/11 65/68/64
f 36/70/36 28/28/28 5/5/5
f 5/5/5 33/66/33 36/70/36
f 90/112/88 4/4/4 3/3/3
f 3/3/3 66/69/65 90/112/88
f 76/80/75 103/113/99 68/72/67
f 68/72/67 67/71/66 76/80/75
f 32/32/32 31/114/31 77/81/76
f 77/81/76 67/71/66 32/32/32
f 19/115/19 35/35/35 34/34/34
f 34/34/34 84/89/83 19/115/19
f 31/114/31 82/109/81 10/10/10
f 10/10/10 77/81/76 31/114/31
f 20/116/20 19/115/19 84/89/83
f 84/89/83 66/96/65 20/116/20
f 23/23/23 96/102/93 2/2/2
f 2/2/2 92/98/90 23/23/23
f 104/117/100 7/7/7 6/6/6
f 6/6/6 94/100/92 104/117/100
f 24/24/24 23/23/23 92/98/90
f 92/98/90 60/62/59 24/24/24
f 103/113/99 104/117/100 94/100/92
f 94/100/92 68/72/67 103/113/99
f 55/55/54 89/94/87 15/15/15
f 15/15/15 14/14/14 55/55/54
f 89/94/87 102/108/98 95/101/15
f 95/101/15 15/15/15 89/94/87
f 102/108/98 88/93/86 73/77/72
f 73/77/72 95/101/15 102/108/98
f 57/57/56 56/56/55 79/83/78
f 79/83/78 74/78/73 57/57/56
f 56/56/55 99/105/95 101/107/97
f 101/107/97 79/83/78 56/56/55
f 101/107/97 99/105/95 75/79/74
f 75/79/74 59/59/58 101/107/97
f 105/1/101 106/2/102 107/3/103
f 107/3/103 108/4/104 105/1/101
f 109/5/105 110/6/106 111/7/107
f 111/7/107 112/8/108 109/5/105
f 113/9/109 114/10/110 115/11/111
f 115/11/111 116/12/112 113/9/109
f 117/13/113 118/14/114 119/15/15
f 119/15/15 120/16/115 117/13/113
f 121/17/116 122/18/117 123/19/118
f 123/19/118 124/20/119 121/17/116
f 125/21/120 126/22/121 127/23/122
f 127/23/122 128/24/123 125/21/120
f 129/25/124 130/26/125 131/27/126
f 131/27/126 132/28/127 129/25/124
f 133/29/128 134/30/129 135/31/130
f 135/31/130 136/32/131 133/29/128
f 137/33/132 138/34/133 139/35/134
f 139/35/134 140/36/135 137/33/132
f 141/37/136 142/38/137 143/39/138
f 143/39/138 144/40/139 141/37/136
f 145/41/140 146/42/141 147/43/142
f 147/43/142 148/44/143 145/41/140
f 149/45/144 150/46/145 151/47/146
f 151/47/146 152/48/147 149/45/144
f 153/49/148 154/50/149 155/51/150
f 155/51/150 156/52/151 153/49/148
f 143/39/138 142/38/137 157/53/115
f 157/53/115 158/54/152 143/39/138
f 146/42/141 159/55/153 118/14/114
f 118/14/114 147/43/142 146/42/141
f 151/47/146 150/46/145 160/56/154
f 160/56/154 161/57/155 151/47/146
f 154/50/149 162/58/156 163/59/157
f 163/59/157 155/51/150 154/50/149
f 116/60/112 115/61/111 164/62/158
f 164/62/158 165/63/159 116/60/112
f 144/40/139 121/17/116 124/20/119
f 124/20/119 166/64/160 144/40/139
f 167/65/161 137/66/132 109/5/105
f 109/5/105 112/8/108 167/65/161
f 152/48/147 133/29/128 136/32/131
f 136/32/131 168/67/162 152/48/147
f 128/24/123 169/68/163 148/44/143
f 148/44/143 125/21/120 128/24/123
f 124/20/119 170/69/164 107/3/103
f 107/3/103 166/64/160 124/20/119
f 132/28/127 140/70/135 156/52/151
f 156/52/151 129/25/124 132/28/127
f 136/32/131 171/71/165 172/72/166
f 172/72/166 168/67/162 136/32/131
f 121/17/116 144/40/139 143/39/138
f 143/39/138 173/73/167 121/17/116
f 125/21/120 148/44/143 147/43/142
f 147/43/142 174/74/168 125/21/120
f 133/29/128 152/48/147 151/47/146
f 151/47/146 175/75/169 133/29/128
f 129/25/124 156/52/151 155/51/150
f 155/51/150 176/76/170 129/25/124
f 173/73/167 143/39/138 158/54/152
f 158/54/152 177/77/171 173/73/167
f 174/74/168 147/43/142 118/14/114
f 118/14/114 117/13/113 174/74/168
f 175/75/169 151/47/146 161/57/155
f 161/57/155 178/78/172 175/75/169
f 176/76/170 155/51/150 163/59/157
f 163/59/157 179/79/173 176/76/170
f 180/80/174 171/71/165 181/81/175
f 181/81/175 182/82/176 180/80/174
f 178/78/172 183/83/177 184/84/178
f 184/84/178 185/85/179 178/78/172
f 156/52/151 140/70/135 139/86/134
f 139/86/134 153/49/148 156/52/151
f 145/41/140 186/87/180 135/31/130
f 135/31/130 134/30/129 145/41/140
f 187/88/181 188/89/182 138/34/133
f 138/34/133 189/90/183 187/88/181
f 134/30/129 133/29/128 175/75/169
f 175/75/169 190/91/141 134/30/129
f 122/18/117 191/92/184 154/50/149
f 154/50/149 153/49/148 122/18/117
f 175/75/169 178/78/172 185/85/179
f 185/85/179 190/91/141 175/75/169
f 191/92/184 192/93/185 162/58/156
f 162/58/156 154/50/149 191/92/184
f 182/82/176 181/81/175 114/10/110
f 114/10/110 113/9/109 182/82/176
f 185/85/179 184/84/178 193/94/186
f 193/94/186 159/55/153 185/85/179
f 153/49/148 139/86/134 123/19/118
f 123/19/118 122/18/117 153/49/148
f 134/30/129 190/91/141 146/42/141
f 146/42/141 145/41/140 134/30/129
f 190/91/141 185/85/179 159/55/153
f 159/55/153 146/42/141 190/91/141
f 148/44/143 169/68/163 186/87/180
f 186/87/180 145/41/140 148/44/143
f 194/95/187 170/96/164 188/89/182
f 188/89/182 187/88/181 194/95/187
f 122/18/117 121/17/116 173/73/167
f 173/73/167 191/92/184 122/18/117
f 173/73/167 177/77/171 192/93/185
f 192/93/185 191/92/184 173/73/167
f 195/97/188 196/98/189 106/2/102
f 106/2/102 105/1/101 195/97/188
f 131/27/126 197/99/190 198/100/191
f 198/100/191 110/6/106 131/27/126
f 158/54/152 157/53/115 199/101/15
f 199/101/15 177/77/171 158/54/152
f 144/40/139 166/64/160 200/102/192
f 200/102/192 141/37/136 144/40/139
f 149/45/144 197/99/190 131/27/126
f 131/27/126 130/26/125 149/45/144
f 126/22/121 201/103/137 142/38/137
f 142/38/137 141/37/136 126/22/121
f 130/26/125 129/25/124 176/76/170
f 176/76/170 202/104/193 130/26/125
f 201/103/137 120/16/115 157/53/115
f 157/53/115 142/38/137 201/103/137
f 176/76/170 179/79/173 203/105/194
f 203/105/194 202/104/193 176/76/170
f 162/58/156 204/106/195 205/107/196
f 205/107/196 163/59/157 162/58/156
f 162/58/156 192/93/185 206/108/197
f 206/108/197 204/106/195 162/58/156
f 157/53/115 120/16/115 119/15/15
f 119/15/15 199/101/15 157/53/115
f 141/37/136 200/102/192 127/23/122
f 127/23/122 126/22/121 141/37/136
f 130/26/125 202/104/193 150/46/145
f 150/46/145 149/45/144 130/26/125
f 202/104/193 203/105/194 160/56/154
f 160/56/154 150/46/145 202/104/193
f 204/106/195 184/84/178 183/83/177
f 183/83/177 205/107/196 204/106/195
f 184/84/178 204/106/195 206/108/197
f 206/108/197 193/94/186 184/84/178
f 195/97/188 165/63/159 164/62/158
f 164/62/158 196/98/189 195/97/188
f 197/99/190 168/67/162 172/72/166
f 172/72/166 198/100/191 197/99/190
f 152/48/147 168/67/162 197/99/190
f 197/99/190 149/45/144 152/48/147
f 126/22/121 125/21/120 174/74/168
f 174/74/168 201/103/137 126/22/121
f 174/74/168 117/13/113 120/16/115
f 120/16/115 201/103/137 174/74/168
f 106/2/102 200/102/192 166/64/160
f 166/64/160 107/3/103 106/2/102
f 132/28/127 131/27/126 110/6/106
f 110/6/106 109/5/105 132/28/127
f 186/109/180 169/110/163 115/11/111
f 115/11/111 114/10/110 186/109/180
f 167/111/161 189/90/183 138/34/133
f 138/34/133 137/33/132 167/111/161
f 169/68/163 128/24/123 164/62/158
f 164/62/158 115/61/111 169/68/163
f 140/70/135 132/28/127 109/5/105
f 109/5/105 137/66/132 140/70/135
f 194/112/187 108/4/104 107/3/103
f 107/3/103 170/69/164 194/112/187
f 180/80/174 207/113/198 172/72/166
f 172/72/166 171/71/165 180/80/174
f 136/32/131 135/114/130 181/81/175
f 181/81/175 171/71/165 136/32/131
f 123/115/118 139/35/134 138/34/133
f 138/34/133 188/89/182 123/115/118
f 135/114/130 186/109/180 114/10/110
f 114/10/110 181/81/175 135/114/130
f 124/116/119 123/115/118 188/89/182
f 188/89/182 170/96/164 124/116/119
f 127/23/122 200/102/192 106/2/102
f 106/2/102 196/98/189 127/23/122
f 208/117/199 111/7/107 110/6/106
f 110/6/106 198/100/191 208/117/199
f 128/24/123 127/23/122 196/98/189
f 196/98/189 164/62/158 128/24/123
f 207/113/198 208/117/199 198/100/191
f 198/100/191 172/72/166 207/113/198
f 159/55/153 193/94/186 119/15/15
f 119/15/15 118/14/114 159/55/153
f 193/94/186 206/108/197 199/101/15
f 199/101/15 119/15/15 193/94/186
f 206/108/197 192/93/185 177/77/171
f 177/77/171 199/101/15 206/108/197
f 161/57/155 160/56/154 183/83/177
f 183/83/177 178/78/172 161/57/155
f 160/56/154 203/105/194 205/107/196
f 205/107/196 183/83/177 160/56/154
f 205/107/196 203/105/194 179/79/173
f 179/79/173 163/59/157 205/107/196
f 209/1/200 210/2/201 211/3/202
f 211/3/202 212/4/203 209/1/200
f 213/5/204 214/6/205 215/7/206
f 215/7/206 216/8/207 213/5/204
f 217/9/208 218/10/209 219/11/210
f 219/11/210 220/12/211 217/9/208
f 221/13/212 222/14/213 223/15/15
f 223/15/15 224/16/115 221/13/212
f 225/17/214 226/18/215 227/19/216
f 227/19/216 228/20/217 225/17/214
f 229/21/218 230/22/121 231/23/219
f 231/23/219 232/24/220 229/21/218
f 233/25/221 234/26/222 235/27/223
f 235/27/223 236/28/224 233/25/221
f 237/29/225 238/30/226 239/31/227
f 239/31/227 240/32/228 237/29/225
f 241/33/229 242/34/230 243/35/231
f 243/35/231 244/36/232 241/33/229
f 245/37/136 246/38/137 247/39/233
f 247/39/233 248/40/234 245/37/136
f 249/41/235 250/42/236 251/43/237
f 251/43/237 252/44/238 249/41/235
f 253/45/239 254/46/240 255/47/241
f 255/47/241 256/48/242 253/45/239
f 257/49/243 258/50/244 259/51/245
f 259/51/245 260/52/246 257/49/243
f 247/39/233 246/38/137 261/53/115
f 261/53/115 262/54/247 247/39/233
f 250/42/236 263/55/248 222/14/213
f 222/14/213 251/43/237 250/42/236
f 255/47/241 254/46/240 264/56/249
f 264/56/249 265/57/250 255/47/241
f 258/50/244 266/58/251 267/59/252
f 267/59/252 259/51/245 258/50/244
f 220/60/211 219/61/210 268/62/253
f 268/62/253 269/63/254 220/60/211
f 248/40/234 225/17/214 228/20/217
f 228/20/217 270/64/255 248/40/234
f 271/65/256 241/66/229 213/5/204
f 213/5/204 216/8/207 271/65/256
f 256/48/242 237/29/225 240/32/228
f 240/32/228 272/67/257 256/48/242
f 232/24/220 273/68/258 252/44/238
f 252/44/238 229/21/218 232/24/220
f 228/20/217 274/69/259 211/3/202
f 211/3/202 270/64/255 228/20/217
f 236/28/224 244/70/232 260/52/246
f 260/52/246 233/25/221 236/28/224
f 240/32/228 275/71/260 276/72/261
f 276/72/261 272/67/257 240/32/228
f 225/17/214 248/40/234 247/39/233
f 247/39/233 277/73/262 225/17/214
f 229/21/218 252/44/238 251/43/237
f 251/43/237 278/74/263 229/21/218
f 237/29/225 256/48/242 255/47/241
f 255/47/241 279/75/264 237/29/225
f 233/25/221 260/52/246 259/51/245
f 259/51/245 280/76/265 233/25/221
f 277/73/262 247/39/233 262/54/247
f 262/54/247 281/77/266 277/73/262
f 278/74/263 251/43/237 222/14/213
f 222/14/213 221/13/212 278/74/263
f 279/75/264 255/47/241 265/57/250
f 265/57/250 282/78/267 279/75/264
f 280/76/265 259/51/245 267/59/252
f 267/59/252 283/79/268 280/76/265
f 284/80/269 275/71/260 285/81/270
f 285/81/270 286/82/271 284/80/269
f 282/78/267 287/83/272 288/84/273
f 288/84/273 289/85/274 282/78/267
f 260/52/246 244/70/232 243/86/231
f 243/86/231 257/49/243 260/52/246
f 249/41/235 290/87/275 239/31/227
f 239/31/227 238/30/226 249/41/235
f 291/88/276 292/89/277 242/34/230
f 242/34/230 293/90/278 291/88/276
f 238/30/226 237/29/225 279/75/264
f 279/75/264 294/91/279 238/30/226
f 226/18/215 295/92/280 258/50/244
f 258/50/244 257/49/243 226/18/215
f 279/75/264 282/78/267 289/85/274
f 289/85/274 294/91/279 279/75/264
f 295/92/280 296/93/281 266/58/251
f 266/58/251 258/50/244 295/92/280
f 286/82/271 285/81/270 218/10/209
f 218/10/209 217/9/208 286/82/271
f 289/85/274 288/84/273 297/94/282
f 297/94/282 263/55/248 289/85/274
f 257/49/243 243/86/231 227/19/216
f 227/19/216 226/18/215 257/49/243
f 238/30/226 294/91/279 250/42/236
f 250/42/236 249/41/235 238/30/226
f 294/91/279 289/85/274 263/55/248
f 263/55/248 250/42/236 294/91/279
f 252/44/238 273/68/258 290/87/275
f 290/87/275 249/41/235 252/44/238
f 298/95/283 274/96/259 292/89/277
f 292/89/277 291/88/276 298/95/283
f 226/18/215 225/17/214 277/73/262
f 277/73/262 295/92/280 226/18/215
f 277/73/262 281/77/266 296/93/281
f 296/93/281 295/92/280 277/73/262
f 299/97/284 300/98/285 210/2/201
f 210/2/201 209/1/200 299/97/284
f 235/27/223 301/99/286 302/100/287
f 302/100/287 214/6/205 235/27/223
f 262/54/247 261/53/115 303/101/15
f 303/101/15 281/77/266 262/54/247
f 248/40/234 270/64/255 304/102/192
f 304/102/192 245/37/136 248/40/234
f 253/45/239 301/99/286 235/27/223
f 235/27/223 234/26/222 253/45/239
f 230/22/121 305/103/137 246/38/137
f 246/38/137 245/37/136 230/22/121
f 234/26/222 233/25/221 280/76/265
f 280/76/265 306/104/288 234/26/222
f 305/103/137 224/16/115 261/53/115
f 261/53/115 246/38/137 305/103/137
f 280/76/265 283/79/268 307/105/289
f 307/105/289 306/104/288 280/76/265
f 266/58/251 308/106/290 309/107/291
f 309/107/291 267/59/252 266/58/251
f 266/58/251 296/93/281 310/108/292
f 310/108/292 308/106/290 266/58/251
f 261/53/115 224/16/115 223/15/15
f 223/15/15 303/101/15 261/53/115
f 245/37/136 304/102/192 231/23/219
f 231/23/219 230/22/121 245/37/136
f 234/26/222 306/104/288 254/46/240
f 254/46/240 253/45/239 234/26/222
f 306/104/288 307/105/289 264/56/249
f 264/56/249 254/46/240 306/104/288
f 308/106/290 288/84/273 287/83/272
f 287/83/272 309/107/291 308/106/290
f 288/84/273 308/106/290 310/108/292
f 310/108/292 297/94/282 288/84/273
f 299/97/284 269/63/254 268/62/253
f 268/62/253 300/98/285 299/97/284
f 301/99/286 272/67/257 276/72/261
f 276/72/261 302/100/287 301/99/286
f 256/48/242 272/67/257 301/99/286
f 301/99/286 253/45/239 256/48/242
f 230/22/121 229/21/218 278/74/263
f 278/74/263 305/103/137 230/22/121
f 278/74/263 221/13/212 224/16/115
f 224/16/115 305/103/137 278/74/263
f 210/2/201 304/102/192 270/64/255
f 270/64/255 211/3/202 210/2/201
f 236/28/224 235/27/223 214/6/205
f 214/6/205 213/5/204 236/28/224
f 290/109/275 273/110/258 219/11/210
f 219/11/210 218/10/209 290/109/275
f 271/111/256 293/90/278 242/34/230
f 242/34/230 241/33/229 271/111/256
f 273/68/258 232/24/220 268/62/253
f 268/62/253 219/61/210 273/68/258
f 244/70/232 236/28/224 213/5/204
f 213/5/204 241/66/229 244/70/232
f 298/112/283 212/4/203 211/3/202
f 211/3/202 274/69/259 298/112/283
f 284/80/269 311/113/293 276/72/261
f 276/72/261 275/71/260 284/80/269
f 240/32/228 239/114/227 285/81/270
f 285/81/270 275/71/260 240/32/228
f 227/115/216 243/35/231 242/34/230
f 242/34/230 292/89/277 227/115/216
f 239/114/227 290/109/275 218/10/209
f 218/10/209 285/81/270 239/114/227
f 228/116/217 227/115/216 292/89/277
f 292/89/277 274/96/259 228/116/217
f 231/23/219 304/102/192 210/2/201
f 210/2/201 300/98/285 231/23/219
f 312/117/294 215/7/206 214/6/205
f 214/6/205 302/100/287 312/117/294
f 232/24/220 231/23/219 300/98/285
f 300/98/285 268/62/253 232/24/220
f 311/113/293 312/117/294 302/100/287
f 302/100/287 276/72/261 311/113/293
f 263/55/248 297/94/282 223/15/15
f 223/15/15 222/14/213 263/55/248
f 297/94/282 310/108/292 303/101/15
f 303/101/15 223/15/15 297/94/282
f 310/108/292 296/93/281 281/77/266
f 281/77/266 303/101/15 310/108/292
f 265/57/250 264/56/249 287/83/272
f 287/83/272 282/78/267 265/57/250
f 264/56/249 307/105/289 309/107/291
f 309/107/291 287/83/272 264/56/249
f 309/107/291 307/105/289 283/79/268
f 283/79/268 267/59/252 309/107/291
f 313/1/200 314/2/201 315/3/202
f 315/3/202 316/4/203 313/1/200
f 317/5/204 318/6/205 319/7/206
f 319/7/206 320/8/207 317/5/204
f 321/9/208 322/10/209 323/11/210
f 323/11/210 324/12/211 321/9/208
f 325/13/212 326/14/213 327/15/15
f 327/15/15 328/16/115 325/13/212
f 329/17/214 330/18/295 331/19/216
f 331/19/216 332/20/217 329/17/214
f 333/21/218 334/22/121 335/23/219
f 335/23/219 336/24/220 333/21/218
f 337/25/221 338/26/222 339/27/223
f 339/27/223 340/28/224 337/25/221
f 341/29/225 342/30/226 343/31/227
f 343/31/227 344/32/228 341/29/225
f 345/33/229 346/34/230 347/35/231
f 347/35/231 348/36/232 345/33/229
f 349/37/136 350/38/137 351/39/233
f 351/39/233 352/40/234 349/37/136
f 353/41/235 354/42/236 355/43/237
f 355/43/237 356/44/238 353/41/235
f 357/45/239 358/46/240 359/47/241
f 359/47/241 360/48/242 357/45/239
f 361/49/243 362/50/244 363/51/245
f 363/51/245 364/52/246 361/49/243
f 351/39/233 350/38/137 365/53/115
f 365/53/115 366/54/296 351/39/233
f 354/42/236 367/55/248 326/14/213
f 326/14/213 355/43/237 354/42/236
f 359/47/241 358/46/240 368/56/249
f 368/56/249 369/57/250 359/47/241
f 362/50/244 370/58/251 371/59/252
f 371/59/252 363/51/245 362/50/244
f 324/60/211 323/61/210 372/62/253
f 372/62/253 373/63/254 324/60/211
f 352/40/234 329/17/214 332/20/217
f 332/20/217 374/64/255 352/40/234
f 375/65/256 345/66/229 317/5/204
f 317/5/204 320/8/207 375/65/256
f 360/48/242 341/29/225 344/32/228
f 344/32/228 376/67/257 360/48/242
f 336/24/220 377/68/258 356/44/238
f 356/44/238 333/21/218 336/24/220
f 332/20/217 378/69/259 315/3/202
f 315/3/202 374/64/255 332/20/217
f 340/28/224 348/70/232 364/52/246
f 364/52/246 337/25/221 340/28/224
f 344/32/228 379/71/260 380/72/261
f 380/72/261 376/67/257 344/32/228
f 329/17/214 352/40/234 351/39/233
f 351/39/233 381/73/262 329/17/214
f 333/21/218 356/44/238 355/43/237
f 355/43/237 382/74/263 333/21/218
f 341/29/225 360/48/242 359/47/241
f 359/47/241 383/75/264 341/29/225
f 337/25/221 364/52/246 363/51/245
f 363/51/245 384/76/265 337/25/221
f 381/73/262 351/39/233 366/54/296
f 366/54/296 385/77/266 381/73/262
f 382/74/263 355/43/237 326/14/213
f 326/14/213 325/13/212 382/74/263
f 383/75/264 359/47/241 369/57/250
f 369/57/250 386/78/267 383/75/264
f 384/76/265 363/51/245 371/59/252
f 371/59/252 387/79/268 384/76/265
f 388/80/269 379/71/260 389/81/270
f 389/81/270 390/82/271 388/80/269
f 386/78/267 391/83/272 392/84/273
f 392/84/273 393/85/274 386/78/267
f 364/52/246 348/70/232 347/86/231
f 347/86/231 361/49/243 364/52/246
f 353/41/235 394/87/275 343/31/227
f 343/31/227 342/30/226 353/41/235
f 395/88/276 396/89/277 346/34/230
f 346/34/230 397/90/278 395/88/276
f 342/30/226 341/29/225 383/75/264
f 383/75/264 398/91/279 342/30/226
f 330/18/295 399/92/297 362/50/244
f 362/50/244 361/49/243 330/18/295
f 383/75/264 386/78/267 393/85/274
f 393/85/274 398/91/279 383/75/264
f 399/92/297 400/93/298 370/58/251
f 370/58/251 362/50/244 399/92/297
f 390/82/271 389/81/270 322/10/209
f 322/10/209 321/9/208 390/82/271
f 393/85/274 392/84/273 401/94/282
f 401/94/282 367/55/248 393/85/274
f 361/49/243 347/86/231 331/19/216
f 331/19/216 330/18/295 361/49/243
f 342/30/226 398/91/279 354/42/236
f 354/42/236 353/41/235 342/30/226
f 398/91/279 393/85/274 367/55/248
f 367/55/248 354/42/236 398/91/279
f 356/44/238 377/68/258 394/87/275
f 394/87/275 353/41/235 356/44/238
f 402/95/283 378/96/259 396/89/277
f 396/89/277 395/88/276 402/95/283
f 330/18/295 329/17/214 381/73/262
f 381/73/262 399/92/297 330/18/295
f 381/73/262 385/77/266 400/93/298
f 400/93/298 399/92/297 381/73/262
f 403/97/284 404/98/285 314/2/201
f 314/2/201 313/1/200 403/97/284
f 339/27/223 405/99/286 406/100/287
f 406/100/287 318/6/205 339/27/223
f 366/54/296 365/53/115 407/101/15
f 407/101/15 385/77/266 366/54/296
f 352/40/234 374/64/255 408/102/192
f 408/102/192 349/37/136 352/40/234
f 357/45/239 405/99/286 339/27/223
f 339/27/223 338/26/222 357/45/239
f 334/22/121 409/103/137 350/38/137
f 350/38/137 349/37/136 334/22/121
f 338/26/222 337/25/221 384/76/265
f 384/76/265 410/104/288 338/26/222
f 409/103/137 328/16/115 365/53/115
f 365/53/115 350/38/137 409/103/137
f 384/76/265 387/79/268 411/105/289
f 411/105/289 410/104/288 384/76/265
f 370/58/251 412/106/290 413/107/291
f 413/107/291 371/59/252 370/58/251
f 370/58/251 400/93/298 414/108/292
f 414/108/292 412/106/290 370/58/251
f 365/53/115 328/16/115 327/15/15
f 327/15/15 407/101/15 365/53/115
f 349/37/136 408/102/192 335/23/219
f 335/23/219 334/22/121 349/37/136
f 338/26/222 410/104/288 358/46/240
f 358/46/240 357/45/239 338/26/222
f 410/104/288 411/105/289 368/56/249
f 368/56/249 358/46/240 410/104/288
f 412/106/290 392/84/273 391/83/272
f 391/83/272 413/107/291 412/106/290
f 392/84/273 412/106/290 414/108/292
f 414/108/292 401/94/282 392/84/273
f 403/97/284 373/63/254 372/62/253
f 372/62/253 404/98/285 403/97/284
f 405/99/286 376/67/257 380/72/261
f 380/72/261 406/100/287 405/99/286
f 360/48/242 376/67/257 405/99/286
f 405/99/286 357/45/239 360/48/242
f 334/22/121 333/21/218 382/74/263
f 382/74/263 409/103/137 334/22/121
f 382/74/263 325/13/212 328/16/115
f 328/16/115 409/103/137 382/74/263
f 314/2/201 408/102/192 374/64/255
f 374/64/255 315/3/202 314/2/201
f 340/28/224 339/27/223 318/6/205
f 318/6/205 317/5/204 340/28/224
f 394/109/275 377/110/258 323/11/210
f 323/11/210 322/10/209 394/109/275
f 375/111/256 397/90/278 346/34/230
f 346/34/230 345/33/229 375/111/256
f 377/68/258 336/24/220 372/62/253
f 372/62/253 323/61/210 377/68/258
f 348/70/232 340/28/224 317/5/204
f 317/5/204 345/66/229 348/70/232
f 402/112/283 316/4/203 315/3/202
f 315/3/202 378/69/259 402/112/283
f 388/80/269 415/113/293 380/72/261
f 380/72/261 379/71/260 388/80/269
f 344/32/228 343/114/227 389/81/270
f 389/81/270 379/71/260 344/32/228
f 331/115/216 347/35/231 346/34/230
f 346/34/230 396/89/277 331/115/216
f 343/114/227 394/109/275 322/10/209
f 322/10/209 389/81/270 343/114/227
f 332/116/217 331/115/216 396/89/277
f 396/89/277 378/96/259 332/116/217
f 335/23/219 408/102/192 314/2/201
f 314/2/201 404/98/285 335/23/219
f 416/117/294 319/7/206 318/6/205
f 318/6/205 406/100/287 416/117/294
f 336/24/220 335/23/219 404/98/285
f 404/98/285 372/62/253 336/24/220
f 415/113/293 416/117/294 406/100/287
f 406/100/287 380/72/261 415/113/293
f 367/55/248 401/94/282 327/15/15
f 327/15/15 326/14/213 367/55/248
f 401/94/282 414/108/292 407/101/15
f 407/101/15 327/15/15 401/94/282
f 414/108/292 400/93/298 385/77/266
f 385/77/266 407/101/15 414/108/292
f 369/57/250 368/56/249 391/83/272
f 391/83/272 386/78/267 369/57/250
f 368/56/249 411/105/289 413/107/291
f 413/107/291 391/83/272 368/56/249
f 413/107/291 411/105/289 387/79/268
f 387/79/268 371/59/252 413/107/291
f 417/1/299 418/2/300 419/3/301
f 419/3/301 420/4/302 417/1/299
f 421/5/303 422/6/304 423/7/305
f 423/7/305 424/8/306 421/5/303
f 425/9/307 426/10/308 427/11/309
f 427/11/309 428/12/310 425/9/307
f 429/13/311 430/14/312 431/15/15
f 431/15/15 432/16/313 429/13/311
f 433/17/314 434/18/315 435/19/316
f 435/19/316 436/20/317 433/17/314
f 437/21/318 438/22/319 439/23/320
f 439/23/320 440/24/321 437/21/318
f 441/25/322 442/26/323 443/27/324
f 443/27/324 444/28/325 441/25/322
f 445/29/326 446/30/327 447/31/328
f 447/31/328 448/32/329 445/29/326
f 449/33/330 450/34/331 451/35/332
f 451/35/332 452/36/333 449/33/330
f 453/37/334 454/38/335 455/39/336
f 455/39/336 456/40/337 453/37/334
f 457/41/338 458/42/339 459/43/340
f 459/43/340 460/44/341 457/41/338
f 461/45/342 462/46/343 463/47/344
f 463/47/344 464/48/345 461/45/342
f 465/49/346 466/50/347 467/51/348
f 467/51/348 468/52/349 465/49/346
f 455/39/336 454/38/335 469/53/313
f 469/53/313 470/54/350 455/39/336
f 458/42/339 471/55/351 430/14/312
f 430/14/312 459/43/340 458/42/339
f 463/47/344 462/46/343 472/56/352
f 472/56/352 473/57/353 463/47/344
f 466/50/347 474/58/354 475/59/355
f 475/59/355 467/51/348 466/50/347
f 428/60/310 427/61/309 476/62/356
f 476/62/356 477/63/357 428/60/310
f 456/40/337 433/17/314 436/20/317
f 436/20/317 478/64/358 456/40/337
f 479/65/359 449/66/330 421/5/303
f 421/5/303 424/8/306 479/65/359
f 464/48/345 445/29/326 448/32/329
f 448/32/329 480/67/360 464/48/345
f 440/24/321 481/68/361 460/44/341
f 460/44/341 437/21/318 440/24/321
f 436/20/317 482/69/362 419/3/301
f 419/3/301 478/64/358 436/20/317
f 444/28/325 452/70/333 468/52/349
f 468/52/349 441/25/322 444/28/325
f 448/32/329 483/71/363 484/72/364
f 484/72/364 480/67/360 448/32/329
f 433/17/314 456/40/337 455/39/336
f 455/39/336 485/73/365 433/17/314
f 437/21/318 460/44/341 459/43/340
f 459/43/340 486/74/366 437/21/318
f 445/29/326 464/48/345 463/47/344
f 463/47/344 487/75/367 445/29/326
f 441/25/322 468/52/349 467/51/348
f 467/51/348 488/76/368 441/25/322
f 485/73/365 455/39/336 470/54/350
f 470/54/350 489/77/369 485/73/365
f 486/74/366 459/43/340 430/14/312
f 430/14/312 429/13/311 486/74/366
f 487/75/367 463/47/344 473/57/353
f 473/57/353 490/78/370 487/75/367
f 488/76/368 467/51/348 475/59/355
f 475/59/355 491/79/371 488/76/368
f 492/80/372 483/71/363 493/81/373
f 493/81/373 494/82/374 492/80/372
f 490/78/370 495/83/375 496/84/376
f 496/84/376 497/85/377 490/78/370
f 468/52/349 452/70/333 451/86/332
f 451/86/332 465/49/346 468/52/349
f 457/41/338 498/87/378 447/31/328
f 447/31/328 446/30/327 457/41/338
f 499/88/379 500/89/380 450/34/331
f 450/34/331 501/90/381 499/88/379
f 446/30/327 445/29/326 487/75/367
f 487/75/367 502/91/382 446/30/327
f 434/18/315 503/92/383 466/50/347
f 466/50/347 465/49/346 434/18/315
f 487/75/367 490/78/370 497/85/377
f 497/85/377 502/91/382 487/75/367
f 503/92/383 504/93/384 474/58/354
f 474/58/354 466/50/347 503/92/383
f 494/82/374 493/81/373 426/10/308
f 426/10/308 425/9/307 494/82/374
f 497/85/377 496/84/376 505/94/385
f 505/94/385 471/55/351 497/85/377
f 465/49/346 451/86/332 435/19/316
f 435/19/316 434/18/315 465/49/346
f 446/30/327 502/91/382 458/42/339
f 458/42/339 457/41/338 446/30/327
f 502/91/382 497/85/377 471/55/351
f 471/55/351 458/42/339 502/91/382
f 460/44/341 481/68/361 498/87/378
f 498/87/378 457/41/338 460/44/341
f 506/95/386 482/96/362 500/89/380
f 500/89/380 499/88/379 506/95/386
f 434/18/315 433/17/314 485/73/365
f 485/73/365 503/92/383 434/18/315
f 485/73/365 489/77/369 504/93/384
f 504/93/384 503/92/383 485/73/365
f 507/97/387 508/98/388 418/2/300
f 418/2/300 417/1/299 507/97/387
f 443/27/324 509/99/389 510/100/390
f 510/100/390 422/6/304 443/27/324
f 470/54/350 469/53/313 511/101/15
f 511/101/15 489/77/369 470/54/350
f 456/40/337 478/64/358 512/102/391
f 512/102/391 453/37/334 456/40/337
f 461/45/342 509/99/389 443/27/324
f 443/27/324 442/26/323 461/45/342
f 438/22/319 513/103/335 454/38/335
f 454/38/335 453/37/334 438/22/319
f 442/26/323 441/25/322 488/76/368
f 488/76/368 514/104/392 442/26/323
f 513/103/335 432/16/313 469/53/313
f 469/53/313 454/38/335 513/103/335
f 488/76/368 491/79/371 515/105/393
f 515/105/393 514/104/392 488/76/368
f 474/58/354 516/106/394 517/107/395
f 517/107/395 475/59/355 474/58/354
f 474/58/354 504/93/384 518/108/396
f 518/108/396 516/106/394 474/58/354
f 469/53/313 432/16/313 431/15/15
f 431/15/15 511/101/15 469/53/313
f 453/37/334 512/102/391 439/23/320
f 439/23/320 438/22/319 453/37/334
f 442/26/323 514/104/392 462/46/343
f 462/46/343 461/45/342 442/26/323
f 514/104/392 515/105/393 472/56/352
f 472/56/352 462/46/343 514/104/392
f 516/106/394 496/84/376 495/83/375
f 495/83/375 517/107/395 516/106/394
f 496/84/376 516/106/394 518/108/396
f 518/108/396 505/94/385 496/84/376
f 507/97/387 477/63/357 476/62/356
f 476/62/356 508/98/388 507/97/387
f 509/99/389 480/67/360 484/72/364
f 484/72/364 510/100/390 509/99/389
f 464/48/345 480/67/360 509/99/389
f 509/99/389 461/45/342 464/48/345
f 438/22/319 437/21/318 486/74/366
f 486/74/366 513/103/335 438/22/319
f 486/74/366 429/13/311 432/16/313
f 432/16/313 513/103/335 486/74/366
f 418/2/300 512/102/391 478/64/358
f 478/64/358 419/3/301 418/2/300
f 444/28/325 443/27/324 422/6/304
f 422/6/304 421/5/303 444/28/325
f 498/109/378 481/110/361 427/11/309
f 427/11/309 426/10/308 498/109/378
f 479/111/359 501/90/381 450/34/331
f 450/34/331 449/33/330 479/111/359
f 481/68/361 440/24/321 476/62/356
f 476/62/356 427/61/309 481/68/361
f 452/70/333 444/28/325 421/5/303
f 421/5/303 449/66/330 452/70/333
f 506/112/386 420/4/302 419/3/301
f 419/3/301 482/69/362 506/112/386
f 492/80/372 519/113/397 484/72/364
f 484/72/364 483/71/363 492/80/372
f 448/32/329 447/114/328 493/81/373
f 493/81/373 483/71/363 448/32/329
f 435/115/316 451/35/332 450/34/331
f 450/34/331 500/89/380 435/115/316
f 447/114/328 498/109/378 426/10/308
f 426/10/308 493/81/373 447/114/328
f 436/116/317 435/115/316 500/89/380
f 500/89/380 482/96/362 436/116/317
f 439/23/320 512/102/391 418/2/300
f 418/2/300 508/98/388 439/23/320
f 520/117/398 423/7/305 422/6/304
f 422/6/304 510/100/390 520/117/398
f 440/24/321 439/23/320 508/98/388
f 508/98/388 476/62/356 440/24/321
f 519/113/397 520/117/398 510/100/390
f 510/100/390 484/72/364 519/113/397
f 471/55/351 505/94/385 431/15/15
f 431/15/15 430/14/312 471/55/351
f 505/94/385 518/108/396 511/101/15
f 511/101/15 431/15/15 505/94/385
f 518/108/396 504/93/384 489/77/369
f 489/77/369 511/101/15 518/108/396
f 473/57/353 472/56/352 495/83/375
f 495/83/375 490/78/370 473/57/353
f 472/56/352 515/105/393 517/107/395
f 517/107/395 495/83/375 472/56/352
f 517/107/395 515/105/393 491/79/371
f 491/79/371 475/59/355 517/107/395
f 521/1/299 522/2/300 523/3/301
f 523/3/301 524/4/302 521/1/299
f 525/5/303 526/6/304 527/7/305
f 527/7/305 528/8/306 525/5/303
f 529/9/307 530/10/308 531/11/309
f 531/11/309 532/12/310 529/9/307
f 533/13/311 534/14/312 535/15/15
f 535/15/15 536/16/313 533/13/311
f 537/17/314 538/18/315 539/19/316
f 539/19/316 540/20/317 537/17/314
f 541/21/318 542/22/319 543/23/320
f 543/23/320 544/24/321 541/21/318
f 545/25/322 546/26/323 547/27/324
f 547/27/324 548/28/325 545/25/322
f 549/29/326 550/30/327 551/31/328
f 551/31/328 552/32/329 549/29/326
f 553/33/330 554/34/331 555/35/332
f 555/35/332 556/36/333 553/33/330
f 557/37/334 558/38/335 559/39/336
f 559/39/336 560/40/337 557/37/334
f 561/41/338 562/42/339 563/43/340
f 563/43/340 564/44/341 561/41/338
f 565/45/342 566/46/343 567/47/344
f 567/47/344 568/48/345 565/45/342
f 569/49/346 570/50/347 571/51/348
f 571/51/348 572/52/349 569/49/346
f 559/39/336 558/38/335 573/53/313
f 573/53/313 574/54/350 559/39/336
f 562/42/339 575/55/351 534/14/312
f 534/14/312 563/43/340 562/42/339
f 567/47/344 566/46/343 576/56/352
f 576/56/352 577/57/353 567/47/344
f 570/50/347 578/58/354 579/59/355
f 579/59/355 571/51/348 570/50/347
f 532/60/310 531/61/309 580/62/356
f 580/62/356 581/63/357 532/60/310
f 560/40/337 537/17/314 540/20/317
f 540/20/317 582/64/358 560/40/337
f 583/65/359 553/66/330 525/5/303
f 525/5/303 528/8/306 583/65/359
f 568/48/345 549/29/326 552/32/329
f 552/32/329 584/67/360 568/48/345
f 544/24/321 585/68/361 564/44/341
f 564/44/341 541/21/318 544/24/321
f 540/20/317 586/69/362 523/3/301
f 523/3/301 582/64/358 540/20/317
f 548/28/325 556/70/333 572/52/349
f 572/52/349 545/25/322 548/28/325
f 552/32/329 587/71/363 588/72/364
f 588/72/364 584/67/360 552/32/329
f 537/17/314 560/40/337 559/39/336
f 559/39/336 589/73/365 537/17/314
f 541/21/318 564/44/341 563/43/340
f 563/43/340 590/74/366 541/21/318
f 549/29/326 568/48/345 567/47/344
f 567/47/344 591/75/367 549/29/326
f 545/25/322 572/52/349 571/51/348
f 571/51/348 592/76/368 545/25/322
f 589/73/365 559/39/336 574/54/350
f 574/54/350 593/77/369 589/73/365
f 590/74/366 563/43/340 534/14/312
f 534/14/312 533/13/311 590/74/366
f 591/75/367 567/47/344 577/57/353
f 577/57/353 594/78/370 591/75/367
f 592/76/368 571/51/348 579/59/355
f 579/59/355 595/79/371 592/76/368
f 596/80/372 587/71/363 597/81/373
f 597/81/373 598/82/374 596/80/372
f 594/78/370 599/83/375 600/84/376
f 600/84/376 601/85/377 594/78/370
f 572/52/349 556/70/333 555/86/332
f 555/86/332 569/49/346 572/52/349
f 561/41/338 602/87/378 551/31/328
f 551/31/328 550/30/327 561/41/338
f 603/88/379 604/89/380 554/34/331
f 554/34/331 605/90/381 603/88/379
f 550/30/327 549/29/326 591/75/367
f 591/75/367 606/91/382 550/30/327
f 538/18/315 607/92/399 570/50/347
f 570/50/347 569/49/346 538/18/315
f 591/75/367 594/78/370 601/85/377
f 601/85/377 606/91/382 591/75/367
f 607/92/399 608/93/384 578/58/354
f 578/58/354 570/50/347 607/92/399
f 598/82/374 597/81/373 530/10/308
f 530/10/308 529/9/307 598/82/374
f 601/85/377 600/84/376 609/94/385
f 609/94/385 575/55/351 601/85/377
f 569/49/346 555/86/332 539/19/316
f 539/19/316 538/18/315 569/49/346
f 550/30/327 606/91/382 562/42/339
f 562/42/339 561/41/338 550/30/327
f 606/91/382 601/85/377 575/55/351
f 575/55/351 562/42/339 606/91/382
f 564/44/341 585/68/361 602/87/378
f 602/87/378 561/41/338 564/44/341
f 610/95/386 586/96/362 604/89/380
f 604/89/380 603/88/379 610/95/386
f 538/18/315 537/17/314 589/73/365
f 589/73/365 607/92/399 538/18/315
f 589/73/365 593/77/369 608/93/384
f 608/93/384 607/92/399 589/73/365
f 611/97/387 612/98/388 522/2/300
f 522/2/300 521/1/299 611/97/387
f 547/27/324 613/99/389 614/100/390
f 614/100/390 526/6/304 547/27/324
f 574/54/350 573/53/313 615/101/15
f 615/101/15 593/77/369 574/54/350
f 560/40/337 582/64/358 616/102/391
f 616/102/391 557/37/334 560/40/337
f 565/45/342 613/99/389 547/27/324
f 547/27/324 546/26/323 565/45/342
f 542/22/319 617/103/335 558/38/335
f 558/38/335 557/37/334 542/22/319
f 546/26/323 545/25/322 592/76/368
f 592/76/368 618/104/392 546/26/323
f 617/103/335 536/16/313 573/53/313
f 573/53/313 558/38/335 617/103/335
f 592/76/368 595/79/371 619/105/393
f 619/105/393 618/104/392 592/76/368
f 578/58/354 620/106/394 621/107/395
f 621/107/395 579/59/355 578/58/354
f 578/58/354 608/93/384 622/108/396
f 622/108/396 620/106/394 578/58/354
f 573/53/313 536/16/313 535/15/15
f 535/15/15 615/101/15 573/53/313
f 557/37/334 616/102/391 543/23/320
f 543/23/320 542/22/319 557/37/334
f 546/26/323 618/104/392 566/46/343
f 566/46/343 565/45/342 546/26/323
f 618/104/392 619/105/393 576/56/352
f 576/56/352 566/46/343 618/104/392
f 620/106/394 600/84/376 599/83/375
f 599/83/375 621/107/395 620/106/394
f 600/84/376 620/106/394 622/108/396
f 622/108/396 609/94/385 600/84/376
f 611/97/387 581/63/357 580/62/356
f 580/62/356 612/98/388 611/97/387
f 613/99/389 584/67/360 588/72/364
f 588/72/364 614/100/390 613/99/389
f 568/48/345 584/67/360 613/99/389
f 613/99/389 565/45/342 568/48/345
f 542/22/319 541/21/318 590/74/366
f 590/74/366 617/103/335 542/22/319
f 590/74/366 533/13/311 536/16/313
f 536/16/313 617/103/335 590/74/366
f 522/2/300 616/102/391 582/64/358
f 582/64/358 523/3/301 522/2/300
f 548/28/325 547/27/324 526/6/304
f 526/6/304 525/5/303 548/28/325
f 602/109/378 585/110/361 531/11/309
f 531/11/309 530/10/308 602/109/378
f 583/111/359 605/90/381 554/34/331
f 554/34/331 553/33/330 583/111/359
f 585/68/361 544/24/321 580/62/356
f 580/62/356 531/61/309 585/68/361
f 556/70/333 548/28/325 525/5/303
f 525/5/303 553/66/330 556/70/333
f 610/112/386 524/4/302 523/3/301
f 523/3/301 586/69/362 610/112/386
f 596/80/372 623/113/397 588/72/364
f 588/72/364 587/71/363 596/80/372
f 552/32/329 551/114/328 597/81/373
f 597/81/373 587/71/363 552/32/329
f 539/115/316 555/35/332 554/34/331
f 554/34/331 604/89/380 539/115/316
f 551/114/328 602/109/378 530/10/308
f 530/10/308 597/81/373 551/114/328
f 540/116/317 539/115/316 604/89/380
f 604/89/380 586/96/362 540/116/317
f 543/23/320 616/102/391 522/2/300
f 522/2/300 612/98/388 543/23/320
f 624/117/398 527/7/305 526/6/304
f 526/6/304 614/100/390 624/117/398
f 544/24/321 543/23/320 612/98/388
f 612/98/388 580/62/356 544/24/321
f 623/113/397 624/117/398 614/100/390
f 614/100/390 588/72/364 623/113/397
f 575/55/351 609/94/385 535/15/15
f 535/15/15 534/14/312 575/55/351
f 609/94/385 622/108/396 615/101/15
f 615/101/15 535/15/15 609/94/385
f 622/108/396 608/93/384 593/77/369
f 593/77/369 615/101/15 622/108/396
f 577/57/353 576/56/352 599/83/375
f 599/83/375 594/78/370 577/57/353
f 576/56/352 619/105/393 621/107/395
f 621/107/395 599/83/375 576/56/352
f 621/107/395 619/105/393 595/79/371
f 595/79/371 579/59/355 621/107/395
f 625/1/400 626/2/401 627/3/402
f 627/3/402 628/4/403 625/1/400
f 629/5/404 630/6/405 631/7/406
f 631/7/406 632/8/407 629/5/404
f 633/9/408 634/10/409 635/11/410
f 635/11/410 636/12/411 633/9/408
f 637/13/412 638/14/413 639/15/15
f 639/15/15 640/16/414 637/13/412
f 641/17/415 642/18/416 643/19/417
f 643/19/417 644/20/418 641/17/415
f 645/21/419 646/22/420 647/23/421
f 647/23/421 648/24/422 645/21/419
f 649/25/423 650/26/424 651/27/425
f 651/27/425 652/28/426 649/25/423
f 653/29/427 654/30/428 655/31/429
f 655/31/429 656/32/430 653/29/427
f 657/33/431 658/34/432 659/35/433
f 659/35/433 660/36/434 657/33/431
f 661/37/435 662/38/436 663/39/437
f 663/39/437 664/40/438 661/37/435
f 665/41/439 666/42/440 667/43/441
f 667/43/441 668/44/442 665/41/439
f 669/45/443 670/46/444 671/47/445
f 671/47/445 672/48/446 669/45/443
f 673/49/447 674/50/448 675/51/449
f 675/51/449 676/52/450 673/49/447
f 663/39/437 662/38/436 677/53/414
f 677/53/414 678/54/451 663/39/437
f 666/42/440 679/55/452 638/14/413
f 638/14/413 667/43/441 666/42/440
f 671/47/445 670/46/444 680/56/453
f 680/56/453 681/57/454 671/47/445
f 674/50/448 682/58/455 683/59/456
f 683/59/456 675/51/449 674/50/448
f 636/60/411 635/61/410 684/62/457
f 684/62/457 685/63/458 636/60/411
f 664/40/438 641/17/415 644/20/418
f 644/20/418 686/64/459 664/40/438
f 687/65/460 657/66/431 629/5/404
f 629/5/404 632/8/407 687/65/460
f 672/48/446 653/29/427 656/32/430
f 656/32/430 688/67/461 672/48/446
f 648/24/422 689/68/462 668/44/442
f 668/44/442 645/21/419 648/24/422
f 644/20/418 690/69/463 627/3/402
f 627/3/402 686/64/459 644/20/418
f 652/28/426 660/70/434 676/52/450
f 676/52/450 649/25/423 652/28/426
f 656/32/430 691/71/464 692/72/465
f 692/72/465 688/67/461 656/32/430
f 641/17/415 664/40/438 663/39/437
f 663/39/437 693/73/466 641/17/415
f 645/21/419 668/44/442 667/43/441
f 667/43/441 694/74/467 645/21/419
f 653/29/427 672/48/446 671/47/445
f 671/47/445 695/75/468 653/29/427
f 649/25/423 676/52/450 675/51/449
f 675/51/449 696/76/469 649/25/423
f 693/73/466 663/39/437 678/54/451
f 678/54/451 697/77/470 693/73/466
f 694/74/467 667/43/441 638/14/413
f 638/14/413 637/13/412 694/74/467
f 695/75/468 671/47/445 681/57/454
f 681/57/454 698/78/471 695/75/468
f 696/76/469 675/51/449 683/59/456
f 683/59/456 699/79/472 696/76/469
f 700/80/473 691/71/464 701/81/474
f 701/81/474 702/82/475 700/80/473
f 698/78/471 703/83/476 704/84/477
f 704/84/477 705/85/478 698/78/471
f 676/52/450 660/70/434 659/86/433
f 659/86/433 673/49/447 676/52/450
f 665/41/439 706/87/479 655/31/429
f 655/31/429 654/30/428 665/41/439
f 707/88/480 708/89/481 658/34/432
f 658/34/432 709/90/482 707/88/480
f 654/30/428 653/29/427 695/75/468
f 695/75/468 710/91/440 654/30/428
f 642/18/416 711/92/483 674/50/448
f 674/50/448 673/49/447 642/18/416
f 695/75/468 698/78/471 705/85/478
f 705/85/478 710/91/440 695/75/468
f 711/92/483 712/93/484 682/58/455
f 682/58/455 674/50/448 711/92/483
f 702/82/475 701/81/474 634/10/409
f 634/10/409 633/9/408 702/82/475
f 705/85/478 704/84/477 713/94/485
f 713/94/485 679/55/452 705/85/478
f 673/49/447 659/86/433 643/19/417
f 643/19/417 642/18/416 673/49/447
f 654/30/428 710/91/440 666/42/440
f 666/42/440 665/41/439 654/30/428
f 710/91/440 705/85/478 679/55/452
f 679/55/452 666/42/440 710/91/440
f 668/44/442 689/68/462 706/87/479
f 706/87/479 665/41/439 668/44/442
f 714/95/486 690/96/463 708/89/481
f 708/89/481 707/88/480 714/95/486
f 642/18/416 641/17/415 693/73/466
f 693/73/466 711/92/483 642/18/416
f 693/73/466 697/77/470 712/93/484
f 712/93/484 711/92/483 693/73/466
f 715/97/487 716/98/488 626/2/401
f 626/2/401 625/1/400 715/97/487
f 651/27/425 717/99/489 718/100/490
f 718/100/490 630/6/405 651/27/425
f 678/54/451 677/53/414 719/101/15
f 719/101/15 697/77/470 678/54/451
f 664/40/438 686/64/459 720/102/491
f 720/102/491 661/37/435 664/40/438
f 669/45/443 717/99/489 651/27/425
f 651/27/425 650/26/424 669/45/443
f 646/22/420 721/103/436 662/38/436
f 662/38/436 661/37/435 646/22/420
f 650/26/424 649/25/423 696/76/469
f 696/76/469 722/104/492 650/26/424
f 721/103/436 640/16/414 677/53/414
f 677/53/414 662/38/436 721/103/436
f 696/76/469 699/79/472 723/105/493
f 723/105/493 722/104/492 696/76/469
f 682/58/455 724/106/494 725/107/495
f 725/107/495 683/59/456 682/58/455
f 682/58/455 712/93/484 726/108/496
f 726/108/496 724/106/494 682/58/455
f 677/53/414 640/16/414 639/15/15
f 639/15/15 719/101/15 677/53/414
f 661/37/435 720/102/491 647/23/421
f 647/23/421 646/22/420 661/37/435
f 650/26/424 722/104/492 670/46/444
f 670/46/444 669/45/443 650/26/424
f 722/104/492 723/105/493 680/56/453
f 680/56/453 670/46/444 722/104/492
f 724/106/494 704/84/477 703/83/476
f 703/83/476 725/107/495 724/106/494
f 704/84/477 724/106/494 726/108/496
f 726/108/496 713/94/485 704/84/477
f 715/97/487 685/63/458 684/62/457
f 684/62/457 716/98/488 715/97/487
f 717/99/489 688/67/461 692/72/465
f 692/72/465 718/100/490 717/99/489
f 672/48/446 688/67/461 717/99/489
f 717/99/489 669/45/443 672/48/446
f 646/22/420 645/21/419 694/74/467
f 694/74/467 721/103/436 646/22/420
f 694/74/467 637/13/412 640/16/414
f 640/16/414 721/103/436 694/74/467
f 626/2/401 720/102/491 686/64/459
f 686/64/459 627/3/402 626/2/401
f 652/28/426 651/27/425 630/6/405
f 630/6/405 629/5/404 652/28/426
f 706/109/479 689/110/462 635/11/410
f 635/11/410 634/10/409 706/109/479
f 687/111/460 709/90/482 658/34/432
f 658/34/432 657/33/431 687/111/460
f 689/68/462 648/24/422 684/62/457
f 684/62/457 635/61/410 689/68/462
f 660/70/434 652/28/426 629/5/404
f 629/5/404 657/66/431 660/70/434
f 714/112/486 628/4/403 627/3/402
f 627/3/402 690/69/463 714/112/486
f 700/80/473 727/113/497 692/72/465
f 692/72/465 691/71/464 700/80/473
f 656/32/430 655/114/429 701/81/474
f 701/81/474 691/71/464 656/32/430
f 643/115/417 659/35/433 658/34/432
f 658/34/432 708/89/481 643/115/417
f 655/114/429 706/109/479 634/10/409
f 634/10/409 701/81/474 655/114/429
f 644/116/418 643/115/417 708/89/481
f 708/89/481 690/96/463 644/116/418
f 647/23/421 720/102/491 626/2/401
f 626/2/401 716/98/488 647/23/421
f 728/117/498 631/7/406 630/6/405
f 630/6/405 718/100/490 728/117/498
f 648/24/422 647/23/421 716/98/488
f 716/98/488 684/62/457 648/24/422
f 727/113/497 728/117/498 718/100/490
f 718/100/490 692/72/465 727/113/497
f 679/55/452 713/94/485 639/15/15
f 639/15/15 638/14/413 679/55/452
f 713/94/485 726/108/496 719/101/15
f 719/101/15 639/15/15 713/94/485
f 726/108/496 712/93/484 697/77/470
f 697/77/470 719/101/15 726/108/496
f 681/57/454 680/56/453 703/83/476
f 703/83/476 698/78/471 681/57/454
f 680/56/453 723/105/493 725/107/495
f 725/107/495 703/83/476 680/56/453
f 725/107/495 723/105/493 699/79/472
f 699/79/472 683/59/456 725/107/495
f 729/1/400 730/2/401 731/3/402
f 731/3/402 732/4/403 729/1/400
f 733/5/404 734/6/405 735/7/406
f 735/7/406 736/8/407 733/5/404
f 737/9/408 738/10/409 739/11/410
f 739/11/410 740/12/411 737/9/408
f 741/13/499 742/14/413 743/15/15
f 743/15/15 744/16/414 741/13/499
f 745/17/415 746/18/416 747/19/417
f 747/19/417 748/20/418 745/17/415
f 749/21/419 750/22/420 751/23/421
f 751/23/421 752/24/422 749/21/419
f 753/25/423 754/26/424 755/27/425
f 755/27/425 756/28/426 753/25/423
f 757/29/427 758/30/428 759/31/429
f 759/31/429 760/32/430 757/29/427
f 761/33/431 762/34/432 763/35/433
f 763/35/433 764/36/434 761/33/431
f 765/37/435 766/38/436 767/39/500
f 767/39/500 768/40/438 765/37/435
f 769/41/439 770/42/440 771/43/441
f 771/43/441 772/44/442 769/41/439
f 773/45/443 774/46/444 775/47/445
f 775/47/445 776/48/446 773/45/443
f 777/49/447 778/50/448 779/51/501
f 779/51/501 780/52/450 777/49/447
f 767/39/500 766/38/436 781/53/414
f 781/53/414 782/54/451 767/39/500
f 770/42/440 783/55/452 742/14/413
f 742/14/413 771/43/441 770/42/440
f 775/47/445 774/46/444 784/56/453
f 784/56/453 785/57/454 775/47/445
f 778/50/448 786/58/455 787/59/456
f 787/59/456 779/51/501 778/50/448
f 740/60/411 739/61/410 788/62/457
f 788/62/457 789/63/458 740/60/411
f 768/40/438 745/17/415 748/20/418
f 748/20/418 790/64/459 768/40/438
f 791/65/460 761/66/431 733/5/404
f 733/5/404 736/8/407 791/65/460
f 776/48/446 757/29/427 760/32/430
f 760/32/430 792/67/461 776/48/446
f 752/24/422 793/68/462 772/44/442
f 772/44/442 749/21/419 752/24/422
f 748/20/418 794/69/463 731/3/402
f 731/3/402 790/64/459 748/20/418
f 756/28/426 764/70/434 780/52/450
f 780/52/450 753/25/423 756/28/426
f 760/32/430 795/71/464 796/72/465
f 796/72/465 792/67/461 760/32/430
f 745/17/415 768/40/438 767/39/500
f 767/39/500 797/73/466 745/17/415
f 749/21/419 772/44/442 771/43/441
f 771/43/441 798/74/467 749/21/419
f 757/29/427 776/48/446 775/47/445
f 775/47/445 799/75/468 757/29/427
f 753/25/423 780/52/450 779/51/501
f 779/51/501 800/76/469 753/25/423
f 797/73/466 767/39/500 782/54/451
f 782/54/451 801/77/470 797/73/466
f 798/74/467 771/43/441 742/14/413
f 742/14/413 741/13/499 798/74/467
f 799/75/468 775/47/445 785/57/454
f 785/57/454 802/78/471 799/75/468
f 800/76/469 779/51/501 787/59/456
f 787/59/456 803/79/472 800/76/469
f 804/80/473 795/71/464 805/81/474
f 805/81/474 806/82/475 804/80/473
f 802/78/471 807/83/476 808/84/477
f 808/84/477 809/85/478 802/78/471
f 780/52/450 764/70/434 763/86/433
f 763/86/433 777/49/447 780/52/450
f 769/41/439 810/87/479 759/31/429
f 759/31/429 758/30/428 769/41/439
f 811/88/480 812/89/481 762/34/432
f 762/34/432 813/90/482 811/88/480
f 758/30/428 757/29/427 799/75/468
f 799/75/468 814/91/440 758/30/428
f 746/18/416 815/92/483 778/50/448
f 778/50/448 777/49/447 746/18/416
f 799/75/468 802/78/471 809/85/478
f 809/85/478 814/91/440 799/75/468
f 815/92/483 816/93/484 786/58/455
f 786/58/455 778/50/448 815/92/483
f 806/82/475 805/81/474 738/10/409
f 738/10/409 737/9/408 806/82/475
f 809/85/478 808/84/477 817/94/485
f 817/94/485 783/55/452 809/85/478
f 777/49/447 763/86/433 747/19/417
f 747/19/417 746/18/416 777/49/447
f 758/30/428 814/91/440 770/42/440
f 770/42/440 769/41/439 758/30/428
f 814/91/440 809/85/478 783/55/452
f 783/55/452 770/42/440 814/91/440
f 772/44/442 793/68/462 810/87/479
f 810/87/479 769/41/439 772/44/442
f 818/95/486 794/96/463 812/89/481
f 812/89/481 811/88/480 818/95/486
f 746/18/416 745/17/415 797/73/466
f 797/73/466 815/92/483 746/18/416
f 797/73/466 801/77/470 816/93/484
f 816/93/484 815/92/483 797/73/466
f 819/97/487 820/98/488 730/2/401
f 730/2/401 729/1/400 819/97/487
f 755/27/425 821/99/489 822/100/490
f 822/100/490 734/6/405 755/27/425
f 782/54/451 781/53/414 823/101/15
f 823/101/15 801/77/470 782/54/451
f 768/40/438 790/64/459 824/102/491
f 824/102/491 765/37/435 768/40/438
f 773/45/443 821/99/489 755/27/425
f 755/27/425 754/26/424 773/45/443
f 750/22/420 825/103/436 766/38/436
f 766/38/436 765/37/435 750/22/420
f 754/26/424 753/25/423 800/76/469
f 800/76/469 826/104/492 754/26/424
f 825/103/436 744/16/414 781/53/414
f 781/53/414 766/38/436 825/103/436
f 800/76/469 803/79/472 827/105/493
f 827/105/493 826/104/492 800/76/469
f 786/58/455 828/106/494 829/107/495
f 829/107/495 787/59/456 786/58/455
f 786/58/455 816/93/484 830/108/496
f 830/108/496 828/106/494 786/58/455
f 781/53/414 744/16/414 743/15/15
f 743/15/15 823/101/15 781/53/414
f 765/37/435 824/102/491 751/23/421
f 751/23/421 750/22/420 765/37/435
f 754/26/424 826/104/492 774/46/444
f 774/46/444 773/45/443 754/26/424
f 826/104/492 827/105/493 784/56/453
f 784/56/453 774/46/444 826/104/492
f 828/106/494 808/84/477 807/83/476
f 807/83/476 829/107/495 828/106/494
f 808/84/477 828/106/494 830/108/496
f 830/108/496 817/94/485 808/84/477
f 819/97/487 789/63/458 788/62/457
f 788/62/457 820/98/488 819/97/487
f 821/99/489 792/67/461 796/72/465
f 796/72/465 822/100/490 821/99/489
f 776/48/446 792/67/461 821/99/489
f 821/99/489 773/45/443 776/48/446
f 750/22/420 749/21/419 798/74/467
f 798/74/467 825/103/436 750/22/420
f 798/74/467 741/13/499 744/16/414
f 744/16/414 825/103/436 798/74/467
f 730/2/401 824/102/491 790/64/459
f 790/64/459 731/3/402 730/2/401
f 756/28/426 755/27/425 734/6/405
f 734/6/405 733/5/404 756/28/426
f 810/109/479 793/110/462 739/11/410
f 739/11/410 738/10/409 810/109/479
f 791/111/460 813/90/482 762/34/432
f 762/34/432 761/33/431 791/111/460
f 793/68/462 752/24/422 788/62/457
f 788/62/457 739/61/410 793/68/462
f 764/70/434 756/28/426 733/5/404
f 733/5/404 761/66/431 764/70/434
f 818/112/486 732/4/403 731/3/402
f 731/3/402 794/69/463 818/112/486
f 804/80/473 831/113/497 796/72/465
f 796/72/465 795/71/464 804/80/473
f 760/32/430 759/114/429 805/81/474
f 805/81/474 795/71/464 760/32/430
f 747/115/417 763/35/433 762/34/432
f 762/34/432 812/89/481 747/115/417
f 759/114/429 810/109/479 738/10/409
f 738/10/409 805/81/474 759/114/429
f 748/116/418 747/115/417 812/89/481
f 812/89/481 794/96/463 748/116/418
f 751/23/421 824/102/491 730/2/401
f 730/2/401 820/98/488 751/23/421
f 832/117/498 735/7/406 734/6/405
f 734/6/405 822/100/490 832/117/498
f 752/24/422 751/23/421 820/98/488
f 820/98/488 788/62/457 752/24/422
f 831/113/497 832/117/498 822/100/490
f 822/100/490 796/72/465 831/113/497
f 783/55/452 817/94/485 743/15/15
f 743/15/15 742/14/413 783/55/452
f 817/94/485 830/108/496 823/101/15
f 823/101/15 743/15/15 817/94/485
f 830/108/496 816/93/484 801/77/470
f 801/77/470 823/101/15 830/108/496
f 785/57/454 784/56/453 807/83/476
f 807/83/476 802/78/471 785/57/454
f 784/56/453 827/105/493 829/107/495
f 829/107/495 807/83/476 784/56/453
f 829/107/495 827/105/493 803/79/472
f 803/79/472 787/59/456 829/107/495
