# Blender 4.5.0
# www.blender.org
g medium_wall.xml.057_Mesh
v 123.208847 -53.174530 18.936195
v 122.800804 -46.683632 18.960377
v 122.895317 -46.683632 19.478958
v 123.084915 -53.174530 19.570827
v 118.686745 -46.683632 19.420345
v 118.596100 -46.683632 18.969109
v 118.497147 -53.174530 19.093163
v 118.497147 -53.174530 19.570827
v 122.084167 -53.174530 8.689583
v 121.821495 -46.683632 8.773865
v 122.743340 -46.683632 8.793983
v 122.932983 -53.174530 8.729824
v 122.124146 -40.267700 9.285263
v 121.983940 -40.267700 9.236698
v 121.983940 -40.267700 9.571812
v 122.124146 -40.267700 9.571056
v 122.415451 -39.958473 19.419724
v 121.558823 -39.958473 19.419724
v 121.558823 -40.192726 19.492035
v 122.553696 -40.192726 19.492035
v 122.567719 -39.958473 9.104298
v 122.567719 -39.958473 9.519234
v 122.705711 -40.192726 9.518494
v 122.705711 -40.192726 9.033478
v 119.014351 -39.958473 19.316265
v 119.014351 -39.958473 18.845055
v 118.876350 -40.192726 18.845055
v 118.876350 -40.192726 19.387089
v 119.166611 -39.958473 9.000839
v 120.023605 -39.958473 9.000839
v 120.023605 -40.192726 8.928528
v 119.028366 -40.192726 8.928528
v 118.976326 -46.683632 19.591389
v 119.760925 -46.683632 19.591389
v 120.756638 -40.284401 19.492035
v 119.028366 -40.192726 19.492035
v 122.567719 -39.958473 18.845055
v 122.266762 -39.855080 18.845055
v 122.266762 -39.855080 19.172283
v 122.567719 -39.958473 19.316265
v 121.558823 -39.958473 9.000839
v 121.558823 -39.855080 9.158539
v 122.114586 -39.855080 9.158539
v 122.415451 -39.958473 9.000839
v 119.014351 -39.992920 9.543537
v 119.315300 -39.889534 9.541920
v 119.315300 -39.855080 9.248280
v 119.014351 -39.958473 9.104298
v 120.756638 -40.050148 19.419724
v 120.756638 -39.946754 19.262024
v 119.467484 -39.855080 19.262024
v 119.166611 -39.958473 19.419724
v 122.124146 -40.267700 18.797028
v 122.124146 -40.267700 19.133259
v 121.470833 -40.267700 9.236698
v 119.474907 -40.302155 9.590496
v 119.474907 -40.267700 9.285263
v 120.805023 -40.359375 19.181824
v 119.615112 -40.267700 19.181824
v 122.895317 -46.683632 8.906418
v 123.084915 -53.174530 8.849739
v 122.705711 -40.192726 19.387089
v 118.949539 -53.174522 19.734627
v 118.876358 -40.192726 9.033478
v 122.553696 -40.192726 8.928528
v 122.743340 -46.683632 19.591389
v 118.838722 -46.683632 8.793983
v 118.686752 -46.683632 8.906418
v 122.114586 -39.855080 19.262024
v 122.266762 -39.855080 9.248280
v 119.467484 -39.855080 9.158539
v 119.315300 -39.855080 19.172283
v 121.983940 -40.267700 19.181824
v 119.615112 -40.267700 9.236698
v 119.474907 -40.267700 19.133259
v 118.649078 -53.174522 8.729824
v 119.760925 -46.683632 8.793983
v 119.498253 -53.174522 8.729824
v 119.614449 -40.302155 9.589745
v 120.128548 -40.302155 9.586983
v 120.128548 -40.267700 9.236698
v 121.558823 -40.192726 8.928528
v 122.084167 -53.174530 19.727184
v 121.821495 -46.683632 19.591389
v 119.498253 -53.174522 19.690742
v 120.023605 -39.855080 9.158539
v 121.558823 -39.855080 19.262024
v 121.470833 -40.267700 19.181824
v 121.470833 -40.267700 9.574570
v 122.932983 -53.174530 19.690742
v 123.084915 -53.174530 9.262478
v 122.895317 -46.683632 9.390484
v 118.876358 -40.227180 9.544281
v 118.732147 -46.683632 9.731781
v 121.983940 -40.267700 18.797028
v 122.705711 -40.192726 18.845055
v 122.266762 -39.855080 9.520855
v 119.315300 -39.855080 18.845055
v 119.474907 -40.267700 18.797028
v 120.805023 -40.359375 18.797028
v 119.614929 -40.277351 18.797028
v 121.470833 -40.267700 18.797028
v 118.497147 -53.174530 8.921364
v 118.587936 -53.174530 9.919281
v 118.498146 -53.173721 26.092499
v 118.906189 -46.682823 26.071472
v 118.811676 -46.682823 25.620613
v 118.622070 -53.173721 25.540741
v 123.020248 -46.682823 25.671570
v 123.110886 -46.682823 26.063881
v 123.209846 -53.173721 25.956028
v 123.209846 -53.173721 25.540741
v 119.622826 -53.173721 35.001080
v 119.885498 -46.682823 34.927803
v 118.963654 -46.682823 34.910309
v 118.774010 -53.173721 34.966095
v 119.582848 -40.266899 34.483181
v 119.723053 -40.266899 34.525406
v 119.723053 -40.266899 34.234055
v 119.582848 -40.266899 34.234711
v 119.291542 -39.957664 25.672108
v 120.148170 -39.957664 25.672108
v 120.148170 -40.191925 25.609241
v 119.153297 -40.191925 25.609241
v 119.139275 -39.957664 34.640518
v 119.139275 -39.957664 34.279766
v 119.001282 -40.191925 34.280411
v 119.001282 -40.191925 34.702091
v 122.692642 -39.957664 25.762058
v 122.692642 -39.957664 26.171734
v 122.830635 -40.191925 26.171734
v 122.830635 -40.191925 25.700485
v 122.540382 -39.957664 34.730469
v 121.683395 -39.957664 34.730469
v 121.683395 -40.191925 34.793335
v 122.678627 -40.191925 34.793335
v 122.730667 -46.682823 25.522861
v 121.946068 -46.682823 25.522861
v 120.950356 -40.283600 25.609241
v 122.678627 -40.191925 25.609241
v 119.139275 -39.957664 26.171734
v 119.440231 -39.854271 26.171734
v 119.440231 -39.854271 25.887238
v 119.139275 -39.957664 25.762058
v 120.148170 -39.957664 34.730469
v 120.148170 -39.854271 34.593361
v 119.592407 -39.854271 34.593361
v 119.291542 -39.957664 34.730469
v 122.692642 -39.992119 34.258636
v 122.391693 -39.888725 34.260040
v 122.391693 -39.854271 34.515335
v 122.692642 -39.957664 34.640518
v 120.950356 -40.049339 25.672108
v 120.950356 -39.945946 25.809216
v 122.239510 -39.854271 25.809216
v 122.540382 -39.957664 25.672108
v 119.582848 -40.266899 26.213493
v 119.582848 -40.266899 25.921169
v 120.236160 -40.266899 34.525406
v 122.232086 -40.301353 34.217808
v 122.232086 -40.266899 34.483181
v 120.901970 -40.358574 25.878944
v 122.091881 -40.266899 25.878944
v 118.811676 -46.682823 34.812561
v 118.622078 -53.173721 34.861839
v 119.001282 -40.191925 25.700485
v 122.757446 -53.173721 25.398331
v 122.830643 -40.191925 34.702091
v 119.153297 -40.191925 34.793335
v 118.963654 -46.682823 25.522861
v 122.868271 -46.682823 34.910309
v 123.020241 -46.682823 34.812561
v 119.592407 -39.854271 25.809216
v 119.440231 -39.854271 34.515335
v 122.239510 -39.854271 34.593361
v 122.391693 -39.854271 25.887238
v 119.723053 -40.266899 25.878944
v 122.091881 -40.266899 34.525406
v 122.232086 -40.266899 25.921169
v 123.057915 -53.173721 34.966095
v 121.946068 -46.682823 34.910309
v 122.208740 -53.173721 34.966095
v 122.092545 -40.301353 34.218460
v 121.578445 -40.301353 34.220863
v 121.578445 -40.266899 34.525406
v 120.148170 -40.191925 34.793335
v 119.622826 -53.173721 25.404797
v 119.885498 -46.682823 25.522861
v 122.208740 -53.173721 25.436481
v 121.683395 -39.854271 34.593361
v 120.148170 -39.854271 25.809216
v 120.236160 -40.266899 25.878944
v 120.236160 -40.266899 34.231655
v 118.774010 -53.173721 25.436481
v 118.622078 -53.173721 34.502995
v 118.811676 -46.682823 34.391701
v 122.830643 -40.226372 34.257988
v 122.974846 -46.682823 34.094975
v 119.723053 -40.266899 26.213493
v 119.001282 -40.191925 26.171734
v 119.440231 -39.854271 34.278358
v 122.391693 -39.854271 26.171734
v 122.232086 -40.266899 26.213493
v 120.901970 -40.358574 26.213493
v 122.092064 -40.276550 26.213493
v 120.236160 -40.266899 26.213493
v 123.209846 -53.173721 34.799564
v 123.119057 -53.173721 33.931957
v 123.209846 -53.173721 49.413429
v 122.801804 -46.682823 49.434204
v 122.896317 -46.682823 49.879665
v 123.085915 -53.173721 49.958580
v 118.687744 -46.682823 49.829315
v 118.597107 -46.682823 49.441704
v 118.498146 -53.173721 49.548267
v 118.498146 -53.173721 49.958580
v 122.085167 -53.173721 40.611523
v 121.822495 -46.682823 40.683922
v 122.744339 -46.682823 40.701202
v 122.933983 -53.173721 40.646088
v 122.125145 -40.266899 41.123215
v 121.984940 -40.266899 41.081497
v 121.984940 -40.266899 41.369362
v 122.125145 -40.266899 41.368713
v 122.416451 -39.957664 49.828785
v 121.559822 -39.957664 49.828785
v 121.559822 -40.191925 49.890900
v 122.554695 -40.191925 49.890900
v 122.568718 -39.957664 40.967766
v 122.568718 -39.957664 41.324196
v 122.706711 -40.191925 41.323563
v 122.706711 -40.191925 40.906929
v 119.015350 -39.957664 49.739910
v 119.015350 -39.957664 49.335140
v 118.877350 -40.191925 49.335140
v 118.877350 -40.191925 49.800747
v 119.167610 -39.957664 40.878891
v 120.024605 -39.957664 40.878891
v 120.024605 -40.191925 40.816776
v 119.029366 -40.191925 40.816776
v 118.977325 -46.682823 49.976246
v 119.761925 -46.682823 49.976246
v 120.757637 -40.283600 49.890900
v 119.029366 -40.191925 49.890900
v 122.568718 -39.957664 49.335140
v 122.267761 -39.854271 49.335140
v 122.267761 -39.854271 49.616230
v 122.568718 -39.957664 49.739914
v 121.559822 -39.957664 40.878891
v 121.559822 -39.854271 41.014359
v 122.115585 -39.854271 41.014359
v 122.416451 -39.957664 40.878891
v 119.015350 -39.992119 41.345074
v 119.316299 -39.888725 41.343685
v 119.316299 -39.854271 41.091446
v 119.015350 -39.957664 40.967766
v 120.757637 -40.049339 49.828785
v 120.757637 -39.945946 49.693317
v 119.468483 -39.854271 49.693317
v 119.167610 -39.957664 49.828785
v 122.125145 -40.266899 49.293880
v 122.125145 -40.266899 49.582706
v 121.471832 -40.266899 41.081497
v 119.475906 -40.301353 41.385414
v 119.475906 -40.266899 41.123215
v 120.806023 -40.358574 49.624424
v 119.616112 -40.266899 49.624424
v 122.896317 -46.682823 40.797783
v 123.085922 -53.173721 40.749096
v 122.706711 -40.191925 49.800747
v 118.950539 -53.173721 50.099285
v 118.877357 -40.191925 40.906929
v 122.554695 -40.191925 40.816776
v 122.744339 -46.682823 49.976246
v 118.839722 -46.682823 40.701202
v 118.687752 -46.682823 40.797783
v 122.115585 -39.854271 49.693317
v 122.267761 -39.854271 41.091446
v 119.468483 -39.854271 41.014359
v 119.316299 -39.854271 49.616230
v 121.984940 -40.266899 49.624424
v 119.616112 -40.266899 41.081497
v 119.475906 -40.266899 49.582706
v 118.650078 -53.173721 40.646088
v 119.761925 -46.682823 40.701202
v 119.499252 -53.173721 40.646088
v 119.615448 -40.301353 41.384766
v 120.129547 -40.301353 41.382393
v 120.129547 -40.266899 41.081497
v 121.559822 -40.191925 40.816776
v 122.085167 -53.173721 50.092896
v 121.822495 -46.682823 49.976246
v 119.499252 -53.173721 50.061592
v 120.024605 -39.854271 41.014359
v 121.559822 -39.854271 49.693317
v 121.471832 -40.266899 49.624424
v 121.471832 -40.266899 41.371731
v 122.933983 -53.173721 50.061592
v 123.085922 -53.173721 41.103642
v 122.896317 -46.682823 41.213600
v 118.877357 -40.226372 41.345711
v 118.733147 -46.682823 41.506775
v 121.984940 -40.266899 49.293880
v 122.706711 -40.191925 49.335140
v 122.267761 -39.854271 41.325588
v 119.316299 -39.854271 49.335140
v 119.475906 -40.266899 49.293880
v 120.806023 -40.358574 49.293880
v 119.615929 -40.276550 49.293880
v 121.471832 -40.266899 49.293880
v 118.498146 -53.173721 40.810623
v 118.588936 -53.173721 41.667839
v 118.497147 -53.174522 56.495083
v 118.905190 -46.683624 56.474304
v 118.810677 -46.683624 56.028843
v 118.621078 -53.174522 55.949928
v 123.019249 -46.683624 56.079193
v 123.109886 -46.683624 56.466805
v 123.208847 -53.174522 56.360245
v 123.208847 -53.174522 55.949928
v 119.621826 -53.174522 65.296989
v 119.884499 -46.683624 65.224586
v 118.962654 -46.683624 65.207306
v 118.773010 -53.174522 65.262421
v 119.581848 -40.267700 64.785294
v 119.722054 -40.267700 64.827011
v 119.722054 -40.267700 64.539146
v 119.581848 -40.267700 64.539795
v 119.290543 -39.958466 56.079723
v 120.147171 -39.958466 56.079723
v 120.147171 -40.192726 56.017609
v 119.152298 -40.192726 56.017609
v 119.138275 -39.958466 64.940742
v 119.138275 -39.958466 64.584312
v 119.000282 -40.192726 64.584946
v 119.000282 -40.192726 65.001579
v 122.691643 -39.958466 56.168594
v 122.691643 -39.958466 56.573368
v 122.829636 -40.192726 56.573368
v 122.829636 -40.192726 56.107761
v 122.539383 -39.958466 65.029617
v 121.682396 -39.958466 65.029617
v 121.682396 -40.192726 65.091728
v 122.677628 -40.192726 65.091728
v 122.729668 -46.683624 55.932262
v 121.945068 -46.683624 55.932262
v 120.949356 -40.284401 56.017609
v 122.677628 -40.192726 56.017609
v 119.138275 -39.958466 56.573368
v 119.439232 -39.855072 56.573368
v 119.439232 -39.855072 56.292278
v 119.138275 -39.958466 56.168594
v 120.147171 -39.958466 65.029617
v 120.147171 -39.855072 64.894150
v 119.591408 -39.855072 64.894150
v 119.290543 -39.958466 65.029617
v 122.691643 -39.992920 64.563431
v 122.390694 -39.889526 64.564819
v 122.390694 -39.855072 64.817062
v 122.691643 -39.958466 64.940742
v 120.949356 -40.050140 56.079723
v 120.949356 -39.946747 56.215187
v 122.238510 -39.855072 56.215187
v 122.539383 -39.958466 56.079723
v 119.581848 -40.267700 56.614624
v 119.581848 -40.267700 56.325802
v 120.235161 -40.267700 64.827011
v 122.231087 -40.302155 64.523094
v 122.231087 -40.267700 64.785294
v 120.900970 -40.359375 56.284084
v 122.090881 -40.267700 56.284084
v 118.810677 -46.683624 65.110725
v 118.621078 -53.174522 65.159416
v 119.000282 -40.192726 56.107761
v 122.756447 -53.174522 55.809223
v 122.829643 -40.192726 65.001579
v 119.152298 -40.192726 65.091728
v 118.962654 -46.683624 55.932262
v 122.867271 -46.683624 65.207306
v 123.019241 -46.683624 65.110725
v 119.591408 -39.855072 56.215187
v 119.439232 -39.855072 64.817062
v 122.238510 -39.855072 64.894150
v 122.390694 -39.855072 56.292278
v 119.722054 -40.267700 56.284084
v 122.090881 -40.267700 64.827011
v 122.231087 -40.267700 56.325802
v 123.056915 -53.174522 65.262421
v 121.945068 -46.683624 65.207306
v 122.207741 -53.174522 65.262421
v 122.091545 -40.302155 64.523743
v 121.577446 -40.302155 64.526115
v 121.577446 -40.267700 64.827011
v 120.147171 -40.192726 65.091728
v 119.621826 -53.174522 55.815613
v 119.884499 -46.683624 55.932262
v 122.207741 -53.174522 55.846920
v 121.682396 -39.855072 64.894150
v 120.147171 -39.855072 56.215187
v 120.235161 -40.267700 56.284084
v 120.235161 -40.267700 64.536774
v 118.773010 -53.174522 55.846920
v 118.621078 -53.174522 64.804871
v 118.810677 -46.683624 64.694908
v 122.829643 -40.227173 64.562798
v 122.973846 -46.683624 64.401733
v 119.722054 -40.267700 56.614624
v 119.000282 -40.192726 56.573368
v 119.439232 -39.855072 64.582916
v 122.390694 -39.855072 56.573368
v 122.231087 -40.267700 56.614624
v 120.900970 -40.359375 56.614624
v 122.091064 -40.277351 56.614624
v 120.235161 -40.267700 56.614624
v 123.208847 -53.174522 65.097885
v 123.118057 -53.174522 64.240669
v 123.208847 -53.174522 79.762619
v 122.800804 -46.683624 79.783394
v 122.895317 -46.683624 80.228859
v 123.084915 -53.174522 80.307777
v 118.686745 -46.683624 80.178513
v 118.596100 -46.683624 79.790894
v 118.497147 -53.174522 79.897461
v 118.497147 -53.174522 80.307777
v 122.084167 -53.174522 70.960716
v 121.821495 -46.683624 71.033112
v 122.743340 -46.683624 71.050400
v 122.932983 -53.174522 70.995285
v 122.124146 -40.267700 71.472412
v 121.983940 -40.267700 71.430695
v 121.983940 -40.267700 71.718552
v 122.124146 -40.267700 71.717911
v 122.415451 -39.958466 80.177979
v 121.558823 -39.958466 80.177979
v 121.558823 -40.192726 80.240089
v 122.553696 -40.192726 80.240089
v 122.567719 -39.958466 71.316956
v 122.567719 -39.958466 71.673393
v 122.705711 -40.192726 71.672752
v 122.705711 -40.192726 71.256119
v 119.014351 -39.958466 80.089104
v 119.014351 -39.958466 79.684334
v 118.876350 -40.192726 79.684334
v 118.876350 -40.192726 80.149940
v 119.166611 -39.958466 71.228088
v 120.023605 -39.958466 71.228088
v 120.023605 -40.192726 71.165970
v 119.028366 -40.192726 71.165970
v 118.976326 -46.683624 80.325439
v 119.760925 -46.683624 80.325439
v 120.756638 -40.284401 80.240089
v 119.028366 -40.192726 80.240089
v 122.567719 -39.958466 79.684334
v 122.266762 -39.855072 79.684334
v 122.266762 -39.855072 79.965424
v 122.567719 -39.958466 80.089104
v 121.558823 -39.958466 71.228088
v 121.558823 -39.855072 71.363548
v 122.114586 -39.855072 71.363548
v 122.415451 -39.958466 71.228088
v 119.014351 -39.992920 71.694267
v 119.315300 -39.889526 71.692879
v 119.315300 -39.855072 71.440643
v 119.014351 -39.958466 71.316956
v 120.756638 -40.050140 80.177979
v 120.756638 -39.946747 80.042511
v 119.467484 -39.855072 80.042511
v 119.166611 -39.958466 80.177979
v 122.124146 -40.267700 79.643074
v 122.124146 -40.267700 79.931900
v 121.470833 -40.267700 71.430695
v 119.474907 -40.302155 71.734604
v 119.474907 -40.267700 71.472412
v 120.805023 -40.359375 79.973618
v 119.615112 -40.267700 79.973618
v 122.895317 -46.683624 71.146973
v 123.084915 -53.174522 71.098289
v 122.705711 -40.192726 80.149940
v 118.949539 -53.174522 80.448479
v 118.876358 -40.192726 71.256119
v 122.553696 -40.192726 71.165970
v 122.743340 -46.683624 80.325439
v 118.838722 -46.683624 71.050400
v 118.686752 -46.683624 71.146973
v 122.114586 -39.855072 80.042511
v 122.266762 -39.855072 71.440643
v 119.467484 -39.855072 71.363548
v 119.315300 -39.855072 79.965424
v 121.983940 -40.267700 79.973618
v 119.615112 -40.267700 71.430695
v 119.474907 -40.267700 79.931900
v 118.649078 -53.174522 70.995285
v 119.760925 -46.683624 71.050400
v 119.498253 -53.174522 70.995285
v 119.614449 -40.302155 71.733963
v 120.128548 -40.302155 71.731583
v 120.128548 -40.267700 71.430695
v 121.558823 -40.192726 71.165970
v 122.084167 -53.174522 80.442085
v 121.821495 -46.683624 80.325439
v 119.498253 -53.174522 80.410782
v 120.023605 -39.855072 71.363548
v 121.558823 -39.855072 80.042511
v 121.470833 -40.267700 79.973618
v 121.470833 -40.267700 71.720924
v 122.932983 -53.174522 80.410782
v 123.084915 -53.174522 71.452835
v 122.895317 -46.683624 71.562798
v 118.876358 -40.227173 71.694908
v 118.732147 -46.683624 71.855972
v 121.983940 -40.267700 79.643074
v 122.705711 -40.192726 79.684334
v 122.266762 -39.855072 71.674782
v 119.315300 -39.855072 79.684334
v 119.474907 -40.267700 79.643074
v 120.805023 -40.359375 79.643074
v 119.614929 -40.277351 79.643074
v 121.470833 -40.267700 79.643074
v 118.497147 -53.174522 71.159821
v 118.587936 -53.174522 72.017036
v 118.912209 -62.803810 89.580101
v 118.705193 -57.959496 89.643112
v 118.753143 -57.959496 90.994377
v 118.849335 -62.803810 91.233765
v 116.617989 -57.959496 90.841652
v 116.572006 -57.959496 89.665871
v 116.521797 -62.803810 89.989113
v 116.521797 -62.803810 91.233765
v 118.341621 -62.803810 62.880440
v 118.208359 -57.959496 63.100052
v 118.676041 -57.959496 63.152477
v 118.772255 -62.803810 62.985291
v 118.361900 -53.171135 64.432610
v 118.290771 -53.171135 64.306061
v 118.290771 -53.171135 65.179268
v 118.361900 -53.171135 65.177299
v 118.509689 -52.940346 90.840042
v 118.075089 -52.940346 90.840042
v 118.075089 -53.115173 91.028458
v 118.579826 -53.115173 91.028458
v 118.586937 -52.940346 63.961063
v 118.586937 -52.940346 65.042267
v 118.656952 -53.115173 65.040337
v 118.656952 -53.115173 63.776524
v 116.784195 -52.940346 90.570457
v 116.784195 -52.940346 89.342621
v 116.714188 -53.115173 89.342621
v 116.714180 -53.115173 90.754997
v 116.861443 -52.940346 63.691475
v 117.296227 -52.940346 63.691475
v 117.296227 -53.115173 63.503056
v 116.791306 -53.115173 63.503056
v 116.764900 -57.959496 91.287346
v 117.162956 -57.959496 91.287346
v 117.668114 -53.183594 91.028458
v 116.791306 -53.115173 91.028458
v 118.586937 -52.940346 89.342621
v 118.434250 -52.863182 89.342621
v 118.434250 -52.863182 90.195282
v 118.586937 -52.940346 90.570457
v 118.075096 -52.940346 63.691475
v 118.075096 -52.863182 64.102402
v 118.357048 -52.863182 64.102402
v 118.509689 -52.940346 63.691475
v 116.784195 -52.966057 65.105591
v 116.936882 -52.888893 65.101379
v 116.936882 -52.863182 64.336243
v 116.784195 -52.940346 63.961063
v 117.668114 -53.008759 90.840042
v 117.668114 -52.931595 90.429123
v 117.014084 -52.863182 90.429123
v 116.861443 -52.940346 90.840042
v 118.361900 -53.171127 89.217468
v 118.361900 -53.171127 90.093590
v 118.030457 -53.171135 64.306061
v 117.017853 -53.196846 65.227951
v 117.017853 -53.171135 64.432610
v 117.692665 -53.239548 90.220139
v 117.088982 -53.171127 90.220139
v 118.753143 -57.959496 63.445442
v 118.849335 -62.803810 63.297752
v 118.656944 -53.115173 90.754997
v 116.751312 -62.803802 91.660576
v 116.714188 -53.115173 63.776524
v 118.579826 -53.115173 63.503056
v 118.676041 -57.959496 91.287346
v 116.695091 -57.959496 63.152477
v 116.617996 -57.959496 63.445442
v 118.357048 -52.863182 90.429123
v 118.434258 -52.863182 64.336243
v 117.014084 -52.863182 64.102402
v 116.936874 -52.863182 90.195282
v 118.290764 -53.171127 90.220139
v 117.088982 -53.171135 64.306061
v 117.017845 -53.171127 90.093590
v 116.598877 -62.803810 62.985291
v 117.162956 -57.959496 63.152477
v 117.029694 -62.803810 62.985291
v 117.088646 -53.196846 65.225998
v 117.349464 -53.196846 65.218796
v 117.349464 -53.171135 64.306061
v 118.075096 -53.115173 63.503056
v 118.341614 -62.803810 91.641190
v 118.208351 -57.959496 91.287346
v 117.029694 -62.803802 91.546227
v 117.296227 -52.863182 64.102402
v 118.075089 -52.863182 90.429123
v 118.030449 -53.171127 90.220139
v 118.030457 -53.171135 65.186455
v 118.772255 -62.803810 91.546227
v 118.849335 -62.803810 64.373230
v 118.753143 -57.959496 64.706779
v 116.714188 -53.140892 65.107529
v 116.641022 -57.959496 65.596100
v 118.290764 -53.171127 89.217468
v 118.656944 -53.115173 89.342621
v 118.434258 -52.863182 65.046486
v 116.936874 -52.863182 89.342621
v 117.017845 -53.171127 89.217468
v 117.692665 -53.239548 89.217468
v 117.088890 -53.178329 89.217468
v 118.030449 -53.171127 89.217468
v 116.521797 -62.803810 63.484390
v 116.567863 -62.803810 66.084671
vn 0.9956 0.0482 0.0799
vn 0.9953 0.0397 -0.0882
vn 0.9268 0.0430 0.3731
vn 0.8536 0.0323 0.5199
vn -0.8163 0.0241 0.5771
vn -0.9956 0.0275 0.0897
vn -0.9998 0.0220 -0.0004
vn -0.8177 0.0372 0.5745
vn 0.0156 0.0119 -0.9998
vn 0.0060 0.0177 -0.9998
vn 0.3221 0.0151 -0.9466
vn -0.0523 0.0064 -0.9986
vn -0.5488 0.7127 0.4368
vn -0.1061 0.7452 0.6583
vn -0.0000 1.0000 -0.0000
vn -0.5802 0.8145 -0.0000
vn 0.2436 0.4921 0.8357
vn -0.0381 0.5674 0.8225
vn -0.0094 0.1618 0.9868
vn 0.1180 0.5176 0.8474
vn 0.6569 0.6760 -0.3339
vn 0.6343 0.7731 -0.0000
vn 0.9612 0.2757 0.0016
vn 0.8492 0.2844 -0.4449
vn -0.6569 0.6760 0.3339
vn -0.8109 0.5852 -0.0015
vn -0.9594 0.2821 -0.0028
vn -0.8470 0.2847 0.4490
vn -0.2436 0.4921 -0.8357
vn -0.0000 0.3907 -0.9205
vn -0.0005 0.1600 -0.9871
vn -0.1183 0.5155 -0.8487
vn -0.2685 0.0175 0.9631
vn 0.0002 0.0180 0.9998
vn -0.0042 0.1493 0.9888
vn -0.2187 0.2906 0.9315
vn 0.6324 0.7746 -0.0000
vn -0.4382 0.8989 -0.0000
vn -0.2129 0.9716 -0.1030
vn 0.4640 0.8031 0.3737
vn -0.0000 0.6157 -0.7880
vn -0.0000 0.9204 0.3909
vn -0.1600 0.9591 0.2335
vn 0.2698 0.7691 -0.5794
vn -0.6401 0.7673 0.0396
vn 0.4312 0.9007 0.0533
vn 0.1818 0.9726 0.1449
vn -0.4812 0.8086 -0.3385
vn 0.0475 0.5879 0.8075
vn -0.0186 0.9131 -0.4074
vn 0.2004 0.9617 -0.1868
vn -0.2463 0.7630 0.5976
vn -0.5497 0.7280 -0.4097
vn -0.0000 0.7701 0.6379
vn 0.5552 0.8305 0.0443
vn 0.5439 0.7077 0.4509
vn -0.0255 0.7871 -0.6163
vn 0.1331 0.7324 -0.6678
vn 0.8919 0.0329 -0.4511
vn 0.9000 0.0301 -0.4348
vn 0.8517 0.2789 0.4437
vn -0.1513 0.0223 0.9882
vn -0.8518 0.2887 -0.4371
vn 0.2276 0.5637 -0.7940
vn 0.3063 0.0237 0.9516
vn -0.3058 0.0207 -0.9519
vn -0.9036 0.0320 -0.4272
vn -0.1542 0.9556 -0.2512
vn -0.2004 0.9747 0.0994
vn 0.1570 0.9562 0.2470
vn 0.1904 0.9774 -0.0918
vn -0.0903 0.7530 -0.6518
vn 0.0931 0.7228 0.6847
vn 0.5413 0.7166 -0.4399
vn -0.4322 0.0172 -0.9016
vn -0.0049 0.0155 -0.9999
vn -0.0070 0.0109 -0.9999
vn 0.0040 0.9986 0.0521
vn -0.0135 0.9986 0.0507
vn -0.0065 0.7405 0.6721
vn 0.0005 0.1603 -0.9871
vn 0.0165 0.0198 0.9997
vn 0.0009 0.0169 0.9999
vn 0.0341 0.0139 0.9993
vn -0.0513 0.9244 -0.3781
vn -0.0537 0.7594 -0.6485
vn -0.0074 1.0000 0.0040
vn 0.3432 0.0268 0.9389
vn 0.9994 0.0355 0.0006
vn 0.9996 0.0291 0.0049
vn -0.9630 0.2694 0.0105
vn -0.9994 0.0263 0.0233
vn 0.9628 0.2701 -0.0000
vn 0.4214 0.9069 -0.0017
vn 0.5937 0.8047 -0.0015
vn -0.0370 0.9993 0.0037
vn 0.0664 0.9978 -0.0082
vn -0.0658 0.9978 0.0037
vn -0.9583 0.0251 -0.2848
vn -0.9990 0.0219 0.0380
vn -0.9945 0.0481 -0.0929
vn -0.9941 0.0394 0.1009
vn -0.9193 0.0426 -0.3911
vn -0.8285 0.0311 -0.5592
vn 0.7901 0.0231 -0.6125
vn 0.9943 0.0275 -0.1029
vn 0.9998 0.0220 0.0012
vn 0.8060 0.0355 -0.5908
vn -0.0135 0.0104 0.9999
vn -0.0052 0.0154 0.9999
vn -0.2897 0.0122 0.9570
vn 0.0852 0.0041 0.9964
vn 0.5409 0.7062 -0.4568
vn 0.0934 0.7401 -0.6659
vn 0.5802 0.8145 -0.0000
vn -0.2327 0.4633 -0.8551
vn 0.0357 0.5246 -0.8506
vn 0.0083 0.1418 -0.9899
vn -0.0895 0.4923 -0.8658
vn -0.6526 0.6640 0.3650
vn -0.6343 0.7731 -0.0000
vn -0.9613 0.2756 -0.0017
vn -0.8385 0.2771 0.4691
vn 0.6526 0.6640 -0.3650
vn 0.8111 0.5849 0.0018
vn 0.9594 0.2819 0.0031
vn 0.8362 0.2778 -0.4729
vn 0.2327 0.4633 0.8551
vn -0.0000 0.3439 0.9390
vn 0.0004 0.1402 0.9901
vn 0.0897 0.4900 0.8671
vn 0.2399 0.0151 -0.9707
vn -0.0002 0.0157 -0.9999
vn 0.0036 0.1308 -0.9914
vn 0.1922 0.2701 -0.9435
vn -0.6324 0.7746 -0.0000
vn 0.4382 0.8989 -0.0000
vn 0.2025 0.9756 0.0849
vn -0.4575 0.7918 -0.4045
vn -0.0000 0.5742 0.8187
vn -0.0000 0.9284 -0.3716
vn 0.1594 0.9604 -0.2288
vn -0.2585 0.7482 0.6110
vn 0.6409 0.7663 -0.0441
vn -0.4328 0.8994 -0.0611
vn -0.1700 0.9763 -0.1339
vn 0.4756 0.8005 0.3648
vn -0.0484 0.5457 -0.8366
vn 0.0189 0.9214 0.3881
vn -0.2019 0.9625 0.1812
vn 0.2360 0.7415 -0.6281
vn 0.5421 0.7205 0.4325
vn -0.0000 0.7624 -0.6471
vn -0.5538 0.8311 -0.0510
vn -0.5358 0.6955 -0.4788
vn 0.0254 0.7799 0.6253
vn -0.1206 0.7255 0.6776
vn -0.8767 0.0320 0.4800
vn -0.8854 0.0294 0.4640
vn -0.8410 0.2717 -0.4678
vn 0.1347 0.0195 -0.9907
vn 0.8417 0.2827 0.4601
vn -0.1980 0.5411 0.8173
vn -0.2752 0.0210 -0.9612
vn 0.2747 0.0181 0.9614
vn 0.8911 0.0310 0.4528
vn 0.1531 0.9573 0.2454
vn 0.1913 0.9783 -0.0800
vn -0.1559 0.9578 -0.2414
vn -0.1816 0.9807 0.0725
vn 0.0796 0.7471 0.6600
vn -0.0829 0.7116 -0.6977
vn -0.5339 0.7090 0.4607
vn 0.4010 0.0155 0.9160
vn 0.0042 0.0135 0.9999
vn 0.0061 0.0095 0.9999
vn -0.0045 0.9982 -0.0597
vn 0.0136 0.9982 -0.0583
vn 0.0067 0.7274 -0.6862
vn -0.0004 0.1404 0.9901
vn -0.0143 0.0172 -0.9997
vn -0.0008 0.0147 -0.9999
vn -0.0296 0.0121 -0.9995
vn 0.0516 0.9318 0.3592
vn 0.0529 0.7508 0.6584
vn 0.0073 1.0000 -0.0040
vn -0.3093 0.0238 -0.9507
vn -0.9993 0.0362 -0.0002
vn -0.9996 0.0291 -0.0057
vn 0.9632 0.2685 -0.0117
vn 0.9993 0.0265 -0.0264
vn -0.9628 0.2701 -0.0000
vn -0.4214 0.9069 0.0019
vn -0.5937 0.8047 0.0018
vn 0.0374 0.9993 -0.0043
vn -0.0660 0.9978 0.0098
vn 0.0654 0.9978 -0.0042
vn 0.9501 0.0248 0.3109
vn 0.9988 0.0218 -0.0439
vn 0.9944 0.0481 0.0941
vn 0.9940 0.0394 -0.1020
vn 0.9187 0.0426 0.3925
vn 0.8262 0.0310 0.5625
vn -0.7878 0.0230 0.6155
vn -0.9942 0.0275 0.1042
vn -0.9998 0.0220 -0.0013
vn -0.8051 0.0353 0.5921
vn 0.0134 0.0102 -0.9999
vn 0.0052 0.0152 -0.9999
vn 0.2870 0.0120 -0.9579
vn -0.0880 0.0040 -0.9961
vn -0.5403 0.7056 0.4584
vn -0.0924 0.7397 0.6665
vn 0.2318 0.4608 0.8567
vn -0.0355 0.5209 0.8529
vn -0.0082 0.1402 0.9901
vn 0.0871 0.4901 0.8673
vn 0.6522 0.6630 -0.3676
vn 0.9613 0.2756 0.0017
vn 0.8376 0.2765 -0.4711
vn -0.6522 0.6630 0.3676
vn -0.8111 0.5848 -0.0018
vn -0.9594 0.2819 -0.0031
vn -0.8353 0.2772 0.4748
vn -0.2318 0.4608 -0.8567
vn -0.0000 0.3398 -0.9405
vn -0.0004 0.1386 -0.9903
vn -0.0873 0.4878 -0.8686
vn -0.2375 0.0149 0.9713
vn 0.0001 0.0155 0.9999
vn -0.0036 0.1293 0.9916
vn -0.1899 0.2683 0.9444
vn -0.2017 0.9759 -0.0832
vn 0.4569 0.7908 0.4072
vn -0.0000 0.5706 -0.8212
vn -0.0000 0.9291 0.3698
vn -0.1593 0.9605 0.2282
vn 0.2576 0.7463 -0.6137
vn -0.6410 0.7662 0.0445
vn 0.4329 0.8993 0.0618
vn 0.1690 0.9766 0.1328
vn -0.4751 0.7997 -0.3670
vn 0.0485 0.5420 0.8390
vn -0.0189 0.9222 -0.3863
vn 0.2020 0.9626 -0.1806
vn -0.2351 0.7396 0.6306
vn -0.5414 0.7199 -0.4343
vn -0.0000 0.7618 0.6478
vn 0.5537 0.8311 0.0516
vn 0.5351 0.6944 0.4811
vn -0.0254 0.7794 -0.6261
vn 0.1195 0.7250 -0.6783
vn 0.8754 0.0319 -0.4823
vn 0.8841 0.0293 -0.4664
vn 0.8401 0.2711 0.4698
vn -0.1333 0.0192 0.9909
vn -0.8408 0.2822 -0.4620
vn 0.1955 0.5392 -0.8192
vn 0.2726 0.0208 0.9619
vn -0.2721 0.0179 -0.9621
vn -0.8900 0.0310 -0.4549
vn -0.1529 0.9575 -0.2447
vn -0.1905 0.9786 0.0782
vn 0.1558 0.9580 0.2408
vn 0.1810 0.9810 -0.0706
vn -0.0787 0.7466 -0.6606
vn 0.0821 0.7107 0.6987
vn 0.5333 0.7084 -0.4624
vn -0.3982 0.0154 -0.9172
vn -0.0042 0.0133 -0.9999
vn -0.0060 0.0094 -0.9999
vn 0.0045 0.9982 0.0604
vn -0.0137 0.9982 0.0590
vn -0.0067 0.7262 0.6874
vn 0.0004 0.1388 -0.9903
vn 0.0142 0.0170 0.9998
vn 0.0008 0.0145 0.9999
vn 0.0293 0.0120 0.9995
vn -0.0516 0.9325 -0.3575
vn -0.0528 0.7502 -0.6591
vn -0.0073 1.0000 0.0040
vn 0.3064 0.0235 0.9516
vn 0.9993 0.0362 0.0001
vn 0.9996 0.0291 0.0057
vn -0.9632 0.2685 0.0119
vn -0.9993 0.0265 0.0267
vn 0.4214 0.9069 -0.0019
vn 0.5937 0.8047 -0.0018
vn -0.0375 0.9993 0.0043
vn 0.0659 0.9978 -0.0100
vn -0.0654 0.9979 0.0042
vn -0.9494 0.0248 -0.3131
vn -0.9988 0.0218 0.0445
vn -0.9944 0.0481 -0.0941
vn -0.9940 0.0394 0.1020
vn -0.9187 0.0426 -0.3925
vn -0.8262 0.0310 -0.5625
vn 0.7878 0.0230 -0.6155
vn 0.9942 0.0275 -0.1042
vn 0.9998 0.0220 0.0013
vn 0.8051 0.0353 -0.5921
vn -0.0134 0.0102 0.9999
vn -0.0052 0.0152 0.9999
vn -0.2870 0.0120 0.9579
vn 0.0880 0.0040 0.9961
vn 0.5403 0.7056 -0.4584
vn 0.0924 0.7397 -0.6665
vn 0.0355 0.5209 -0.8529
vn 0.0082 0.1402 -0.9901
vn -0.0871 0.4901 -0.8673
vn -0.8376 0.2765 0.4711
vn 0.8112 0.5848 0.0018
vn 0.8353 0.2772 -0.4748
vn 0.2318 0.4607 0.8567
vn -0.0000 0.3398 0.9405
vn 0.0004 0.1386 0.9903
vn 0.0873 0.4878 0.8686
vn 0.2375 0.0149 -0.9713
vn -0.0001 0.0155 -0.9999
vn 0.0036 0.1293 -0.9916
vn 0.1899 0.2683 -0.9444
vn 0.2017 0.9759 0.0832
vn -0.4569 0.7908 -0.4072
vn -0.0000 0.5706 0.8212
vn -0.0000 0.9291 -0.3698
vn 0.1593 0.9605 -0.2282
vn -0.2576 0.7463 0.6137
vn 0.6410 0.7662 -0.0445
vn -0.4329 0.8993 -0.0618
vn -0.1690 0.9766 -0.1328
vn 0.4751 0.7997 0.3670
vn -0.0485 0.5420 -0.8390
vn 0.0189 0.9222 0.3863
vn -0.2020 0.9626 0.1805
vn 0.2351 0.7396 -0.6306
vn 0.5414 0.7199 0.4343
vn -0.0000 0.7618 -0.6478
vn -0.5537 0.8311 -0.0516
vn -0.5351 0.6944 -0.4811
vn 0.0254 0.7794 0.6261
vn -0.1195 0.7250 0.6783
vn -0.8754 0.0319 0.4823
vn -0.8841 0.0293 0.4664
vn -0.8401 0.2711 -0.4698
vn 0.1333 0.0192 -0.9909
vn 0.8408 0.2822 0.4620
vn -0.1955 0.5392 0.8192
vn -0.2726 0.0208 -0.9619
vn 0.2721 0.0179 0.9621
vn 0.8900 0.0310 0.4549
vn 0.1529 0.9575 0.2447
vn 0.1905 0.9786 -0.0782
vn -0.1558 0.9580 -0.2407
vn -0.1810 0.9810 0.0706
vn 0.0787 0.7466 0.6606
vn -0.0821 0.7107 -0.6987
vn -0.5333 0.7084 0.4624
vn 0.3982 0.0154 0.9172
vn 0.0042 0.0133 0.9999
vn 0.0060 0.0094 0.9999
vn -0.0045 0.9982 -0.0604
vn 0.0137 0.9982 -0.0590
vn 0.0067 0.7262 -0.6874
vn -0.0004 0.1388 0.9903
vn -0.0142 0.0170 -0.9998
vn -0.0008 0.0145 -0.9999
vn -0.0293 0.0120 -0.9995
vn 0.0516 0.9325 0.3575
vn 0.0528 0.7502 0.6591
vn -0.3064 0.0235 -0.9516
vn -0.9993 0.0362 -0.0001
vn 0.9632 0.2685 -0.0119
vn 0.9993 0.0265 -0.0267
vn 0.0375 0.9993 -0.0043
vn -0.0659 0.9978 0.0100
vn 0.0654 0.9979 -0.0042
vn 0.9494 0.0248 0.3131
vn 0.9988 0.0218 -0.0445
vn -0.8353 0.2772 0.4749
vn -0.5415 0.7199 -0.4343
vn 0.8754 0.0319 -0.4824
vn -0.1906 0.9786 0.0782
vn 0.1558 0.9580 0.2407
vn -0.0528 0.7502 -0.6592
vn 0.9994 0.0342 0.0112
vn 0.9995 0.0278 -0.0169
vn 0.9929 0.0311 0.1145
vn 0.9895 0.0267 0.1424
vn -0.9842 0.0214 0.1758
vn -0.9997 0.0187 0.0165
vn -0.9999 0.0147 0.0021
vn -0.9661 0.0398 0.2549
vn 0.0779 0.0414 -0.9961
vn 0.0306 0.0614 -0.9976
vn 0.6493 0.0488 -0.7589
vn 0.3295 0.0294 -0.9437
vn -0.6387 0.7566 0.1405
vn -0.3559 0.8008 0.4816
vn -0.6210 0.7838 -0.0000
vn 0.4188 0.7023 0.5756
vn -0.0776 0.8690 0.4887
vn -0.0377 0.4399 0.8973
vn 0.4603 0.7083 0.5352
vn 0.7414 0.6637 -0.0988
vn 0.7388 0.6739 -0.0000
vn 0.9801 0.1987 0.0004
vn 0.9487 0.2760 -0.1546
vn -0.7414 0.6638 0.0988
vn -0.8846 0.4663 -0.0004
vn -0.9791 0.2032 -0.0008
vn -0.9484 0.2748 0.1585
vn -0.4188 0.7023 -0.5756
vn -0.0000 0.7568 -0.6536
vn -0.0018 0.4349 -0.9005
vn -0.4588 0.7099 -0.5343
vn -0.5922 0.0528 0.8041
vn 0.0006 0.0633 0.9980
vn -0.0164 0.3993 0.9167
vn -0.4300 0.4557 0.7794
vn 0.7372 0.6757 -0.0000
vn -0.4224 0.9064 -0.0000
vn -0.3369 0.9349 -0.1118
vn 0.5874 0.7976 0.1373
vn -0.0000 0.9011 -0.4336
vn -0.0000 0.9209 0.3898
vn -0.0545 0.9846 0.1661
vn 0.4495 0.8643 -0.2258
vn -0.7396 0.6729 0.0159
vn 0.4128 0.9107 0.0160
vn 0.3068 0.9434 0.1262
vn -0.5988 0.7911 -0.1251
vn 0.0262 0.8874 0.4602
vn -0.0264 0.9154 -0.4018
vn 0.0977 0.9852 -0.1407
vn -0.4071 0.8777 0.2528
vn -0.6331 0.7656 -0.1143
vn -0.0000 0.8808 0.4735
vn 0.6073 0.7944 0.0117
vn 0.6406 0.7568 0.1301
vn -0.0384 0.8925 -0.4494
vn 0.3940 0.7881 -0.4730
vn 0.9912 0.0267 -0.1298
vn 0.9922 0.0234 -0.1227
vn 0.9501 0.2715 0.1534
vn -0.3538 0.0639 0.9331
vn -0.9492 0.2750 -0.1530
vn 0.5768 0.6781 -0.4556
vn 0.6038 0.0541 0.7953
vn -0.6002 0.0507 -0.7982
vn -0.9918 0.0259 -0.1250
vn -0.0569 0.9831 -0.1738
vn -0.3160 0.9409 0.1221
vn 0.0592 0.9832 0.1727
vn 0.3038 0.9453 -0.1191
vn -0.3158 0.8209 -0.4759
vn 0.3127 0.8154 0.4872
vn 0.6330 0.7613 -0.1403
vn -0.6412 0.0349 -0.7666
vn -0.0250 0.0540 -0.9982
vn -0.0372 0.0382 -0.9986
vn 0.0015 0.9999 0.0153
vn -0.0186 0.9997 0.0144
vn -0.0043 0.8760 0.4823
vn 0.0018 0.4354 -0.9002
vn 0.0789 0.0681 0.9945
vn 0.0031 0.0587 0.9983
vn 0.1631 0.0482 0.9854
vn -0.0758 0.9246 -0.3734
vn -0.0923 0.8746 -0.4760
vn -0.0147 0.9999 0.0043
vn 0.6812 0.0636 0.7294
vn 0.9998 0.0212 0.0007
vn 0.9998 0.0198 0.0010
vn -0.9805 0.1964 0.0028
vn -0.9998 0.0168 0.0052
vn 0.9810 0.1942 -0.0000
vn -0.4223 0.9064 -0.0000
vn 0.4103 0.9120 -0.0005
vn 0.6499 0.7600 -0.0004
vn -0.0502 0.9987 0.0010
vn 0.1007 0.9949 -0.0012
vn -0.0990 0.9951 0.0011
vn -0.9975 0.0181 -0.0681
vn -0.9999 0.0155 0.0068
vt 0.922990 0.978771
vt 0.925016 0.775168
vt 0.962695 0.774739
vt 0.969609 0.978244
vt 0.959825 0.221249
vt 0.926680 0.220438
vt 0.935912 0.017318
vt 0.970670 0.017655
vt 0.050561 0.024580
vt 0.071140 0.227750
vt 0.036656 0.229667
vt 0.018773 0.026360
vt 0.221362 0.541109
vt 0.218513 0.538073
vt 0.241571 0.538797
vt 0.241220 0.542453
vt 0.960680 0.559617
vt 0.963012 0.527347
vt 0.970447 0.527713
vt 0.968383 0.567285
vt 0.205371 0.563336
vt 0.236420 0.564226
vt 0.236286 0.571658
vt 0.199744 0.570578
vt 0.952959 0.431305
vt 0.917802 0.430453
vt 0.917857 0.423044
vt 0.958507 0.424139
vt 0.197564 0.435336
vt 0.195350 0.467641
vt 0.187665 0.467212
vt 0.189850 0.427443
vt 0.022073 0.692652
vt 0.051239 0.692685
vt 0.087299 0.893195
vt 0.020325 0.897148
vt 0.917341 0.565255
vt 0.917241 0.555337
vt 0.942146 0.553955
vt 0.952466 0.564544
vt 0.195100 0.525927
vt 0.205548 0.525368
vt 0.207837 0.546558
vt 0.197187 0.558264
vt 0.238623 0.429188
vt 0.238627 0.439307
vt 0.216072 0.440750
vt 0.205772 0.430336
vt 0.964395 0.496221
vt 0.953217 0.496689
vt 0.950717 0.447912
vt 0.961168 0.436415
vt 0.913209 0.543291
vt 0.936763 0.542090
vt 0.218217 0.521196
vt 0.243038 0.451607
vt 0.221730 0.452715
vt 0.940069 0.498752
vt 0.940158 0.456709
vt 0.176815 0.976571
vt 0.181691 0.772720
vt 0.191678 0.773480
vt 0.187240 0.977029
vt 0.958008 0.571831
vt 0.991311 0.018897
vt 0.976097 0.222261
vt 0.200260 0.423191
vt 0.189346 0.565924
vt 0.972694 0.773997
vt 0.968790 0.428872
vt 0.182776 0.221427
vt 0.192699 0.220395
vt 0.950212 0.547809
vt 0.215818 0.552850
vt 0.208142 0.447019
vt 0.942619 0.441697
vt 0.939728 0.539091
vt 0.218767 0.455879
vt 0.937214 0.453721
vt 0.178717 0.017504
vt 0.148220 0.223651
vt 0.147052 0.019486
vt 0.243158 0.455276
vt 0.242902 0.472906
vt 0.218387 0.472879
vt 0.972744 0.495846
vt 0.187408 0.526348
vt 0.138172 0.489161
vt 0.128220 0.692757
vt 0.041814 0.489176
vt 0.205790 0.468159
vt 0.952829 0.526795
vt 0.940358 0.522020
vt 0.241856 0.521207
vt 0.169902 0.489293
vt 0.162621 0.692747
vt 0.217442 0.977424
vt 0.227094 0.774189
vt 0.238681 0.421489
vt 0.252985 0.219954
vt 0.913078 0.539646
vt 0.917350 0.572720
vt 0.236760 0.554380
vt 0.917669 0.440301
vt 0.913586 0.452515
vt 0.913194 0.498880
vt 0.913355 0.456087
vt 0.913176 0.522137
vt 0.090973 0.430533
vt 0.051478 0.434800
vt 0.021133 0.489031
vt 0.980031 0.977810
vt 0.193794 0.016883
vt 0.150173 0.427312
vt 0.119165 0.895492
vt 0.158738 0.897556
vt 0.266783 0.016711
s 1
f 1/1/1 2/2/2 3/3/3
f 3/3/3 4/4/4 1/1/1
f 5/5/5 6/6/6 7/7/7
f 7/7/7 8/8/8 5/5/5
f 9/9/9 10/10/10 11/11/11
f 11/11/11 12/12/12 9/9/9
f 13/13/13 14/14/14 15/15/15
f 15/15/15 16/16/16 13/13/13
f 17/17/17 18/18/18 19/19/19
f 19/19/19 20/20/20 17/17/17
f 21/21/21 22/22/22 23/23/23
f 23/23/23 24/24/24 21/21/21
f 25/25/25 26/26/26 27/27/27
f 27/27/27 28/28/28 25/25/25
f 29/29/29 30/30/30 31/31/31
f 31/31/31 32/32/32 29/29/29
f 33/33/33 34/34/34 35/35/35
f 35/35/35 36/36/36 33/33/33
f 37/37/37 38/38/38 39/39/39
f 39/39/39 40/40/40 37/37/37
f 41/41/41 42/42/42 43/43/43
f 43/43/43 44/44/44 41/41/41
f 45/45/45 46/46/46 47/47/47
f 47/47/47 48/48/48 45/45/45
f 49/49/49 50/50/50 51/51/51
f 51/51/51 52/52/52 49/49/49
f 39/39/39 38/38/38 53/53/16
f 53/53/16 54/54/53 39/39/39
f 42/42/42 55/55/54 14/14/14
f 14/14/14 43/43/43 42/42/42
f 47/47/47 46/46/46 56/56/55
f 56/56/55 57/57/56 47/47/47
f 50/50/50 58/58/57 59/59/58
f 59/59/58 51/51/51 50/50/50
f 12/60/12 11/61/11 60/62/59
f 60/62/59 61/63/60 12/60/12
f 40/40/40 17/17/17 20/20/20
f 20/20/20 62/64/61 40/40/40
f 63/65/62 33/66/33 5/5/5
f 5/5/5 8/8/8 63/65/62
f 48/48/48 29/29/29 32/32/32
f 32/32/32 64/67/63 48/48/48
f 24/24/24 65/68/64 44/44/44
f 44/44/44 21/21/21 24/24/24
f 20/20/20 66/69/65 3/3/3
f 3/3/3 62/64/61 20/20/20
f 28/28/28 36/70/36 52/52/52
f 52/52/52 25/25/25 28/28/28
f 32/32/32 67/71/66 68/72/67
f 68/72/67 64/67/63 32/32/32
f 17/17/17 40/40/40 39/39/39
f 39/39/39 69/73/68 17/17/17
f 21/21/21 44/44/44 43/43/43
f 43/43/43 70/74/69 21/21/21
f 29/29/29 48/48/48 47/47/47
f 47/47/47 71/75/70 29/29/29
f 25/25/25 52/52/52 51/51/51
f 51/51/51 72/76/71 25/25/25
f 69/73/68 39/39/39 54/54/53
f 54/54/53 73/77/72 69/73/68
f 70/74/69 43/43/43 14/14/14
f 14/14/14 13/13/13 70/74/69
f 71/75/70 47/47/47 57/57/56
f 57/57/56 74/78/73 71/75/70
f 72/76/71 51/51/51 59/59/58
f 59/59/58 75/79/74 72/76/71
f 76/80/75 67/71/66 77/81/76
f 77/81/76 78/82/77 76/80/75
f 74/78/73 79/83/78 80/84/79
f 80/84/79 81/85/80 74/78/73
f 52/52/52 36/70/36 35/86/35
f 35/86/35 49/49/49 52/52/52
f 41/41/41 82/87/81 31/31/31
f 31/31/31 30/30/30 41/41/41
f 83/88/82 84/89/83 34/34/34
f 34/34/34 85/90/84 83/88/82
f 30/30/30 29/29/29 71/75/70
f 71/75/70 86/91/42 30/30/30
f 18/18/18 87/92/85 50/50/50
f 50/50/50 49/49/49 18/18/18
f 71/75/70 74/78/73 81/85/80
f 81/85/80 86/91/42 71/75/70
f 87/92/85 88/93/86 58/58/57
f 58/58/57 50/50/50 87/92/85
f 78/82/77 77/81/76 10/10/10
f 10/10/10 9/9/9 78/82/77
f 81/85/80 80/84/79 89/94/87
f 89/94/87 55/55/54 81/85/80
f 49/49/49 35/86/35 19/19/19
f 19/19/19 18/18/18 49/49/49
f 30/30/30 86/91/42 42/42/42
f 42/42/42 41/41/41 30/30/30
f 86/91/42 81/85/80 55/55/54
f 55/55/54 42/42/42 86/91/42
f 44/44/44 65/68/64 82/87/81
f 82/87/81 41/41/41 44/44/44
f 90/95/88 66/96/65 84/89/83
f 84/89/83 83/88/82 90/95/88
f 18/18/18 17/17/17 69/73/68
f 69/73/68 87/92/85 18/18/18
f 69/73/68 73/77/72 88/93/86
f 88/93/86 87/92/85 69/73/68
f 91/97/89 92/98/90 2/2/2
f 2/2/2 1/1/1 91/97/89
f 27/27/27 93/99/91 94/100/92
f 94/100/92 6/6/6 27/27/27
f 54/54/53 53/53/16 95/101/15
f 95/101/15 73/77/72 54/54/53
f 40/40/40 62/64/61 96/102/93
f 96/102/93 37/37/37 40/40/40
f 45/45/45 93/99/91 27/27/27
f 27/27/27 26/26/26 45/45/45
f 22/22/22 97/103/38 38/38/38
f 38/38/38 37/37/37 22/22/22
f 26/26/26 25/25/25 72/76/71
f 72/76/71 98/104/94 26/26/26
f 97/103/38 16/16/16 53/53/16
f 53/53/16 38/38/38 97/103/38
f 72/76/71 75/79/74 99/105/95
f 99/105/95 98/104/94 72/76/71
f 58/58/57 100/106/96 101/107/97
f 101/107/97 59/59/58 58/58/57
f 58/58/57 88/93/86 102/108/98
f 102/108/98 100/106/96 58/58/57
f 53/53/16 16/16/16 15/15/15
f 15/15/15 95/101/15 53/53/16
f 37/37/37 96/102/93 23/23/23
f 23/23/23 22/22/22 37/37/37
f 26/26/26 98/104/94 46/46/46
f 46/46/46 45/45/45 26/26/26
f 98/104/94 99/105/95 56/56/55
f 56/56/55 46/46/46 98/104/94
f 100/106/96 80/84/79 79/83/78
f 79/83/78 101/107/97 100/106/96
f 80/84/79 100/106/96 102/108/98
f 102/108/98 89/94/87 80/84/79
f 91/97/89 61/63/60 60/62/59
f 60/62/59 92/98/90 91/97/89
f 93/99/91 64/67/63 68/72/67
f 68/72/67 94/100/92 93/99/91
f 48/48/48 64/67/63 93/99/91
f 93/99/91 45/45/45 48/48/48
f 22/22/22 21/21/21 70/74/69
f 70/74/69 97/103/38 22/22/22
f 70/74/69 13/13/13 16/16/16
f 16/16/16 97/103/38 70/74/69
f 2/2/2 96/102/93 62/64/61
f 62/64/61 3/3/3 2/2/2
f 28/28/28 27/27/27 6/6/6
f 6/6/6 5/5/5 28/28/28
f 82/109/81 65/110/64 11/11/11
f 11/11/11 10/10/10 82/109/81
f 63/111/62 85/90/84 34/34/34
f 34/34/34 33/33/33 63/111/62
f 65/68/64 24/24/24 60/62/59
f 60/62/59 11/61/11 65/68/64
f 36/70/36 28/28/28 5/5/5
f 5/5/5 33/66/33 36/70/36
f 90/112/88 4/4/4 3/3/3
f 3/3/3 66/69/65 90/112/88
f 76/80/75 103/113/99 68/72/67
f 68/72/67 67/71/66 76/80/75
f 32/32/32 31/114/31 77/81/76
f 77/81/76 67/71/66 32/32/32
f 19/115/19 35/35/35 34/34/34
f 34/34/34 84/89/83 19/115/19
f 31/114/31 82/109/81 10/10/10
f 10/10/10 77/81/76 31/114/31
f 20/116/20 19/115/19 84/89/83
f 84/89/83 66/96/65 20/116/20
f 23/23/23 96/102/93 2/2/2
f 2/2/2 92/98/90 23/23/23
f 104/117/100 7/7/7 6/6/6
f 6/6/6 94/100/92 104/117/100
f 24/24/24 23/23/23 92/98/90
f 92/98/90 60/62/59 24/24/24
f 103/113/99 104/117/100 94/100/92
f 94/100/92 68/72/67 103/113/99
f 55/55/54 89/94/87 15/15/15
f 15/15/15 14/14/14 55/55/54
f 89/94/87 102/108/98 95/101/15
f 95/101/15 15/15/15 89/94/87
f 102/108/98 88/93/86 73/77/72
f 73/77/72 95/101/15 102/108/98
f 57/57/56 56/56/55 79/83/78
f 79/83/78 74/78/73 57/57/56
f 56/56/55 99/105/95 101/107/97
f 101/107/97 79/83/78 56/56/55
f 101/107/97 99/105/95 75/79/74
f 75/79/74 59/59/58 101/107/97
f 105/1/101 106/2/102 107/3/103
f 107/3/103 108/4/104 105/1/101
f 109/5/105 110/6/106 111/7/107
f 111/7/107 112/8/108 109/5/105
f 113/9/109 114/10/110 115/11/111
f 115/11/111 116/12/112 113/9/109
f 117/13/113 118/14/114 119/15/15
f 119/15/15 120/16/115 117/13/113
f 121/17/116 122/18/117 123/19/118
f 123/19/118 124/20/119 121/17/116
f 125/21/120 126/22/121 127/23/122
f 127/23/122 128/24/123 125/21/120
f 129/25/124 130/26/125 131/27/126
f 131/27/126 132/28/127 129/25/124
f 133/29/128 134/30/129 135/31/130
f 135/31/130 136/32/131 133/29/128
f 137/33/132 138/34/133 139/35/134
f 139/35/134 140/36/135 137/33/132
f 141/37/136 142/38/137 143/39/138
f 143/39/138 144/40/139 141/37/136
f 145/41/140 146/42/141 147/43/142
f 147/43/142 148/44/143 145/41/140
f 149/45/144 150/46/145 151/47/146
f 151/47/146 152/48/147 149/45/144
f 153/49/148 154/50/149 155/51/150
f 155/51/150 156/52/151 153/49/148
f 143/39/138 142/38/137 157/53/115
f 157/53/115 158/54/152 143/39/138
f 146/42/141 159/55/153 118/14/114
f 118/14/114 147/43/142 146/42/141
f 151/47/146 150/46/145 160/56/154
f 160/56/154 161/57/155 151/47/146
f 154/50/149 162/58/156 163/59/157
f 163/59/157 155/51/150 154/50/149
f 116/60/112 115/61/111 164/62/158
f 164/62/158 165/63/159 116/60/112
f 144/40/139 121/17/116 124/20/119
f 124/20/119 166/64/160 144/40/139
f 167/65/161 137/66/132 109/5/105
f 109/5/105 112/8/108 167/65/161
f 152/48/147 133/29/128 136/32/131
f 136/32/131 168/67/162 152/48/147
f 128/24/123 169/68/163 148/44/143
f 148/44/143 125/21/120 128/24/123
f 124/20/119 170/69/164 107/3/103
f 107/3/103 166/64/160 124/20/119
f 132/28/127 140/70/135 156/52/151
f 156/52/151 129/25/124 132/28/127
f 136/32/131 171/71/165 172/72/166
f 172/72/166 168/67/162 136/32/131
f 121/17/116 144/40/139 143/39/138
f 143/39/138 173/73/167 121/17/116
f 125/21/120 148/44/143 147/43/142
f 147/43/142 174/74/168 125/21/120
f 133/29/128 152/48/147 151/47/146
f 151/47/146 175/75/169 133/29/128
f 129/25/124 156/52/151 155/51/150
f 155/51/150 176/76/170 129/25/124
f 173/73/167 143/39/138 158/54/152
f 158/54/152 177/77/171 173/73/167
f 174/74/168 147/43/142 118/14/114
f 118/14/114 117/13/113 174/74/168
f 175/75/169 151/47/146 161/57/155
f 161/57/155 178/78/172 175/75/169
f 176/76/170 155/51/150 163/59/157
f 163/59/157 179/79/173 176/76/170
f 180/80/174 171/71/165 181/81/175
f 181/81/175 182/82/176 180/80/174
f 178/78/172 183/83/177 184/84/178
f 184/84/178 185/85/179 178/78/172
f 156/52/151 140/70/135 139/86/134
f 139/86/134 153/49/148 156/52/151
f 145/41/140 186/87/180 135/31/130
f 135/31/130 134/30/129 145/41/140
f 187/88/181 188/89/182 138/34/133
f 138/34/133 189/90/183 187/88/181
f 134/30/129 133/29/128 175/75/169
f 175/75/169 190/91/141 134/30/129
f 122/18/117 191/92/184 154/50/149
f 154/50/149 153/49/148 122/18/117
f 175/75/169 178/78/172 185/85/179
f 185/85/179 190/91/141 175/75/169
f 191/92/184 192/93/185 162/58/156
f 162/58/156 154/50/149 191/92/184
f 182/82/176 181/81/175 114/10/110
f 114/10/110 113/9/109 182/82/176
f 185/85/179 184/84/178 193/94/186
f 193/94/186 159/55/153 185/85/179
f 153/49/148 139/86/134 123/19/118
f 123/19/118 122/18/117 153/49/148
f 134/30/129 190/91/141 146/42/141
f 146/42/141 145/41/140 134/30/129
f 190/91/141 185/85/179 159/55/153
f 159/55/153 146/42/141 190/91/141
f 148/44/143 169/68/163 186/87/180
f 186/87/180 145/41/140 148/44/143
f 194/95/187 170/96/164 188/89/182
f 188/89/182 187/88/181 194/95/187
f 122/18/117 121/17/116 173/73/167
f 173/73/167 191/92/184 122/18/117
f 173/73/167 177/77/171 192/93/185
f 192/93/185 191/92/184 173/73/167
f 195/97/188 196/98/189 106/2/102
f 106/2/102 105/1/101 195/97/188
f 131/27/126 197/99/190 198/100/191
f 198/100/191 110/6/106 131/27/126
f 158/54/152 157/53/115 199/101/15
f 199/101/15 177/77/171 158/54/152
f 144/40/139 166/64/160 200/102/192
f 200/102/192 141/37/136 144/40/139
f 149/45/144 197/99/190 131/27/126
f 131/27/126 130/26/125 149/45/144
f 126/22/121 201/103/137 142/38/137
f 142/38/137 141/37/136 126/22/121
f 130/26/125 129/25/124 176/76/170
f 176/76/170 202/104/193 130/26/125
f 201/103/137 120/16/115 157/53/115
f 157/53/115 142/38/137 201/103/137
f 176/76/170 179/79/173 203/105/194
f 203/105/194 202/104/193 176/76/170
f 162/58/156 204/106/195 205/107/196
f 205/107/196 163/59/157 162/58/156
f 162/58/156 192/93/185 206/108/197
f 206/108/197 204/106/195 162/58/156
f 157/53/115 120/16/115 119/15/15
f 119/15/15 199/101/15 157/53/115
f 141/37/136 200/102/192 127/23/122
f 127/23/122 126/22/121 141/37/136
f 130/26/125 202/104/193 150/46/145
f 150/46/145 149/45/144 130/26/125
f 202/104/193 203/105/194 160/56/154
f 160/56/154 150/46/145 202/104/193
f 204/106/195 184/84/178 183/83/177
f 183/83/177 205/107/196 204/106/195
f 184/84/178 204/106/195 206/108/197
f 206/108/197 193/94/186 184/84/178
f 195/97/188 165/63/159 164/62/158
f 164/62/158 196/98/189 195/97/188
f 197/99/190 168/67/162 172/72/166
f 172/72/166 198/100/191 197/99/190
f 152/48/147 168/67/162 197/99/190
f 197/99/190 149/45/144 152/48/147
f 126/22/121 125/21/120 174/74/168
f 174/74/168 201/103/137 126/22/121
f 174/74/168 117/13/113 120/16/115
f 120/16/115 201/103/137 174/74/168
f 106/2/102 200/102/192 166/64/160
f 166/64/160 107/3/103 106/2/102
f 132/28/127 131/27/126 110/6/106
f 110/6/106 109/5/105 132/28/127
f 186/109/180 169/110/163 115/11/111
f 115/11/111 114/10/110 186/109/180
f 167/111/161 189/90/183 138/34/133
f 138/34/133 137/33/132 167/111/161
f 169/68/163 128/24/123 164/62/158
f 164/62/158 115/61/111 169/68/163
f 140/70/135 132/28/127 109/5/105
f 109/5/105 137/66/132 140/70/135
f 194/112/187 108/4/104 107/3/103
f 107/3/103 170/69/164 194/112/187
f 180/80/174 207/113/198 172/72/166
f 172/72/166 171/71/165 180/80/174
f 136/32/131 135/114/130 181/81/175
f 181/81/175 171/71/165 136/32/131
f 123/115/118 139/35/134 138/34/133
f 138/34/133 188/89/182 123/115/118
f 135/114/130 186/109/180 114/10/110
f 114/10/110 181/81/175 135/114/130
f 124/116/119 123/115/118 188/89/182
f 188/89/182 170/96/164 124/116/119
f 127/23/122 200/102/192 106/2/102
f 106/2/102 196/98/189 127/23/122
f 208/117/199 111/7/107 110/6/106
f 110/6/106 198/100/191 208/117/199
f 128/24/123 127/23/122 196/98/189
f 196/98/189 164/62/158 128/24/123
f 207/113/198 208/117/199 198/100/191
f 198/100/191 172/72/166 207/113/198
f 159/55/153 193/94/186 119/15/15
f 119/15/15 118/14/114 159/55/153
f 193/94/186 206/108/197 199/101/15
f 199/101/15 119/15/15 193/94/186
f 206/108/197 192/93/185 177/77/171
f 177/77/171 199/101/15 206/108/197
f 161/57/155 160/56/154 183/83/177
f 183/83/177 178/78/172 161/57/155
f 160/56/154 203/105/194 205/107/196
f 205/107/196 183/83/177 160/56/154
f 205/107/196 203/105/194 179/79/173
f 179/79/173 163/59/157 205/107/196
f 209/1/200 210/2/201 211/3/202
f 211/3/202 212/4/203 209/1/200
f 213/5/204 214/6/205 215/7/206
f 215/7/206 216/8/207 213/5/204
f 217/9/208 218/10/209 219/11/210
f 219/11/210 220/12/211 217/9/208
f 221/13/212 222/14/213 223/15/15
f 223/15/15 224/16/16 221/13/212
f 225/17/214 226/18/215 227/19/216
f 227/19/216 228/20/217 225/17/214
f 229/21/218 230/22/22 231/23/219
f 231/23/219 232/24/220 229/21/218
f 233/25/221 234/26/222 235/27/223
f 235/27/223 236/28/224 233/25/221
f 237/29/225 238/30/226 239/31/227
f 239/31/227 240/32/228 237/29/225
f 241/33/229 242/34/230 243/35/231
f 243/35/231 244/36/232 241/33/229
f 245/37/37 246/38/38 247/39/233
f 247/39/233 248/40/234 245/37/37
f 249/41/235 250/42/236 251/43/237
f 251/43/237 252/44/238 249/41/235
f 253/45/239 254/46/240 255/47/241
f 255/47/241 256/48/242 253/45/239
f 257/49/243 258/50/244 259/51/245
f 259/51/245 260/52/246 257/49/243
f 247/39/233 246/38/38 261/53/16
f 261/53/16 262/54/247 247/39/233
f 250/42/236 263/55/248 222/14/213
f 222/14/213 251/43/237 250/42/236
f 255/47/241 254/46/240 264/56/249
f 264/56/249 265/57/250 255/47/241
f 258/50/244 266/58/251 267/59/252
f 267/59/252 259/51/245 258/50/244
f 220/60/211 219/61/210 268/62/253
f 268/62/253 269/63/254 220/60/211
f 248/40/234 225/17/214 228/20/217
f 228/20/217 270/64/255 248/40/234
f 271/65/256 241/66/229 213/5/204
f 213/5/204 216/8/207 271/65/256
f 256/48/242 237/29/225 240/32/228
f 240/32/228 272/67/257 256/48/242
f 232/24/220 273/68/258 252/44/238
f 252/44/238 229/21/218 232/24/220
f 228/20/217 274/69/259 211/3/202
f 211/3/202 270/64/255 228/20/217
f 236/28/224 244/70/232 260/52/246
f 260/52/246 233/25/221 236/28/224
f 240/32/228 275/71/260 276/72/261
f 276/72/261 272/67/257 240/32/228
f 225/17/214 248/40/234 247/39/233
f 247/39/233 277/73/262 225/17/214
f 229/21/218 252/44/238 251/43/237
f 251/43/237 278/74/263 229/21/218
f 237/29/225 256/48/242 255/47/241
f 255/47/241 279/75/264 237/29/225
f 233/25/221 260/52/246 259/51/245
f 259/51/245 280/76/265 233/25/221
f 277/73/262 247/39/233 262/54/247
f 262/54/247 281/77/266 277/73/262
f 278/74/263 251/43/237 222/14/213
f 222/14/213 221/13/212 278/74/263
f 279/75/264 255/47/241 265/57/250
f 265/57/250 282/78/267 279/75/264
f 280/76/265 259/51/245 267/59/252
f 267/59/252 283/79/268 280/76/265
f 284/80/269 275/71/260 285/81/270
f 285/81/270 286/82/271 284/80/269
f 282/78/267 287/83/272 288/84/273
f 288/84/273 289/85/274 282/78/267
f 260/52/246 244/70/232 243/86/231
f 243/86/231 257/49/243 260/52/246
f 249/41/235 290/87/275 239/31/227
f 239/31/227 238/30/226 249/41/235
f 291/88/276 292/89/277 242/34/230
f 242/34/230 293/90/278 291/88/276
f 238/30/226 237/29/225 279/75/264
f 279/75/264 294/91/236 238/30/226
f 226/18/215 295/92/279 258/50/244
f 258/50/244 257/49/243 226/18/215
f 279/75/264 282/78/267 289/85/274
f 289/85/274 294/91/236 279/75/264
f 295/92/279 296/93/280 266/58/251
f 266/58/251 258/50/244 295/92/279
f 286/82/271 285/81/270 218/10/209
f 218/10/209 217/9/208 286/82/271
f 289/85/274 288/84/273 297/94/281
f 297/94/281 263/55/248 289/85/274
f 257/49/243 243/86/231 227/19/216
f 227/19/216 226/18/215 257/49/243
f 238/30/226 294/91/236 250/42/236
f 250/42/236 249/41/235 238/30/226
f 294/91/236 289/85/274 263/55/248
f 263/55/248 250/42/236 294/91/236
f 252/44/238 273/68/258 290/87/275
f 290/87/275 249/41/235 252/44/238
f 298/95/282 274/96/259 292/89/277
f 292/89/277 291/88/276 298/95/282
f 226/18/215 225/17/214 277/73/262
f 277/73/262 295/92/279 226/18/215
f 277/73/262 281/77/266 296/93/280
f 296/93/280 295/92/279 277/73/262
f 299/97/283 300/98/284 210/2/201
f 210/2/201 209/1/200 299/97/283
f 235/27/223 301/99/285 302/100/286
f 302/100/286 214/6/205 235/27/223
f 262/54/247 261/53/16 303/101/15
f 303/101/15 281/77/266 262/54/247
f 248/40/234 270/64/255 304/102/93
f 304/102/93 245/37/37 248/40/234
f 253/45/239 301/99/285 235/27/223
f 235/27/223 234/26/222 253/45/239
f 230/22/22 305/103/38 246/38/38
f 246/38/38 245/37/37 230/22/22
f 234/26/222 233/25/221 280/76/265
f 280/76/265 306/104/287 234/26/222
f 305/103/38 224/16/16 261/53/16
f 261/53/16 246/38/38 305/103/38
f 280/76/265 283/79/268 307/105/288
f 307/105/288 306/104/287 280/76/265
f 266/58/251 308/106/289 309/107/290
f 309/107/290 267/59/252 266/58/251
f 266/58/251 296/93/280 310/108/291
f 310/108/291 308/106/289 266/58/251
f 261/53/16 224/16/16 223/15/15
f 223/15/15 303/101/15 261/53/16
f 245/37/37 304/102/93 231/23/219
f 231/23/219 230/22/22 245/37/37
f 234/26/222 306/104/287 254/46/240
f 254/46/240 253/45/239 234/26/222
f 306/104/287 307/105/288 264/56/249
f 264/56/249 254/46/240 306/104/287
f 308/106/289 288/84/273 287/83/272
f 287/83/272 309/107/290 308/106/289
f 288/84/273 308/106/289 310/108/291
f 310/108/291 297/94/281 288/84/273
f 299/97/283 269/63/254 268/62/253
f 268/62/253 300/98/284 299/97/283
f 301/99/285 272/67/257 276/72/261
f 276/72/261 302/100/286 301/99/285
f 256/48/242 272/67/257 301/99/285
f 301/99/285 253/45/239 256/48/242
f 230/22/22 229/21/218 278/74/263
f 278/74/263 305/103/38 230/22/22
f 278/74/263 221/13/212 224/16/16
f 224/16/16 305/103/38 278/74/263
f 210/2/201 304/102/93 270/64/255
f 270/64/255 211/3/202 210/2/201
f 236/28/224 235/27/223 214/6/205
f 214/6/205 213/5/204 236/28/224
f 290/109/275 273/110/258 219/11/210
f 219/11/210 218/10/209 290/109/275
f 271/111/256 293/90/278 242/34/230
f 242/34/230 241/33/229 271/111/256
f 273/68/258 232/24/220 268/62/253
f 268/62/253 219/61/210 273/68/258
f 244/70/232 236/28/224 213/5/204
f 213/5/204 241/66/229 244/70/232
f 298/112/282 212/4/203 211/3/202
f 211/3/202 274/69/259 298/112/282
f 284/80/269 311/113/292 276/72/261
f 276/72/261 275/71/260 284/80/269
f 240/32/228 239/114/227 285/81/270
f 285/81/270 275/71/260 240/32/228
f 227/115/216 243/35/231 242/34/230
f 242/34/230 292/89/277 227/115/216
f 239/114/227 290/109/275 218/10/209
f 218/10/209 285/81/270 239/114/227
f 228/116/217 227/115/216 292/89/277
f 292/89/277 274/96/259 228/116/217
f 231/23/219 304/102/93 210/2/201
f 210/2/201 300/98/284 231/23/219
f 312/117/293 215/7/206 214/6/205
f 214/6/205 302/100/286 312/117/293
f 232/24/220 231/23/219 300/98/284
f 300/98/284 268/62/253 232/24/220
f 311/113/292 312/117/293 302/100/286
f 302/100/286 276/72/261 311/113/292
f 263/55/248 297/94/281 223/15/15
f 223/15/15 222/14/213 263/55/248
f 297/94/281 310/108/291 303/101/15
f 303/101/15 223/15/15 297/94/281
f 310/108/291 296/93/280 281/77/266
f 281/77/266 303/101/15 310/108/291
f 265/57/250 264/56/249 287/83/272
f 287/83/272 282/78/267 265/57/250
f 264/56/249 307/105/288 309/107/290
f 309/107/290 287/83/272 264/56/249
f 309/107/290 307/105/288 283/79/268
f 283/79/268 267/59/252 309/107/290
f 313/1/294 314/2/295 315/3/296
f 315/3/296 316/4/297 313/1/294
f 317/5/298 318/6/299 319/7/300
f 319/7/300 320/8/301 317/5/298
f 321/9/302 322/10/303 323/11/304
f 323/11/304 324/12/305 321/9/302
f 325/13/306 326/14/307 327/15/15
f 327/15/15 328/16/115 325/13/306
f 329/17/225 330/18/308 331/19/309
f 331/19/309 332/20/310 329/17/225
f 333/21/221 334/22/121 335/23/122
f 335/23/122 336/24/311 333/21/221
f 337/25/218 338/26/312 339/27/126
f 339/27/126 340/28/313 337/25/218
f 341/29/314 342/30/315 343/31/316
f 343/31/316 344/32/317 341/29/314
f 345/33/318 346/34/319 347/35/320
f 347/35/320 348/36/321 345/33/318
f 349/37/136 350/38/137 351/39/322
f 351/39/322 352/40/323 349/37/136
f 353/41/324 354/42/325 355/43/326
f 355/43/326 356/44/327 353/41/324
f 357/45/328 358/46/329 359/47/330
f 359/47/330 360/48/331 357/45/328
f 361/49/332 362/50/333 363/51/334
f 363/51/334 364/52/335 361/49/332
f 351/39/322 350/38/137 365/53/115
f 365/53/115 366/54/336 351/39/322
f 354/42/325 367/55/337 326/14/307
f 326/14/307 355/43/326 354/42/325
f 359/47/330 358/46/329 368/56/338
f 368/56/338 369/57/339 359/47/330
f 362/50/333 370/58/340 371/59/341
f 371/59/341 363/51/334 362/50/333
f 324/60/305 323/61/304 372/62/342
f 372/62/342 373/63/343 324/60/305
f 352/40/323 329/17/225 332/20/310
f 332/20/310 374/64/344 352/40/323
f 375/65/345 345/66/318 317/5/298
f 317/5/298 320/8/301 375/65/345
f 360/48/331 341/29/314 344/32/317
f 344/32/317 376/67/346 360/48/331
f 336/24/311 377/68/347 356/44/327
f 356/44/327 333/21/221 336/24/311
f 332/20/310 378/69/348 315/3/296
f 315/3/296 374/64/344 332/20/310
f 340/28/313 348/70/321 364/52/335
f 364/52/335 337/25/218 340/28/313
f 344/32/317 379/71/349 380/72/350
f 380/72/350 376/67/346 344/32/317
f 329/17/225 352/40/323 351/39/322
f 351/39/322 381/73/351 329/17/225
f 333/21/221 356/44/327 355/43/326
f 355/43/326 382/74/352 333/21/221
f 341/29/314 360/48/331 359/47/330
f 359/47/330 383/75/353 341/29/314
f 337/25/218 364/52/335 363/51/334
f 363/51/334 384/76/354 337/25/218
f 381/73/351 351/39/322 366/54/336
f 366/54/336 385/77/355 381/73/351
f 382/74/352 355/43/326 326/14/307
f 326/14/307 325/13/306 382/74/352
f 383/75/353 359/47/330 369/57/339
f 369/57/339 386/78/356 383/75/353
f 384/76/354 363/51/334 371/59/341
f 371/59/341 387/79/357 384/76/354
f 388/80/358 379/71/349 389/81/359
f 389/81/359 390/82/360 388/80/358
f 386/78/356 391/83/361 392/84/362
f 392/84/362 393/85/363 386/78/356
f 364/52/335 348/70/321 347/86/320
f 347/86/320 361/49/332 364/52/335
f 353/41/324 394/87/364 343/31/316
f 343/31/316 342/30/315 353/41/324
f 395/88/365 396/89/366 346/34/319
f 346/34/319 397/90/367 395/88/365
f 342/30/315 341/29/314 383/75/353
f 383/75/353 398/91/325 342/30/315
f 330/18/308 399/92/368 362/50/333
f 362/50/333 361/49/332 330/18/308
f 383/75/353 386/78/356 393/85/363
f 393/85/363 398/91/325 383/75/353
f 399/92/368 400/93/369 370/58/340
f 370/58/340 362/50/333 399/92/368
f 390/82/360 389/81/359 322/10/303
f 322/10/303 321/9/302 390/82/360
f 393/85/363 392/84/362 401/94/186
f 401/94/186 367/55/337 393/85/363
f 361/49/332 347/86/320 331/19/309
f 331/19/309 330/18/308 361/49/332
f 342/30/315 398/91/325 354/42/325
f 354/42/325 353/41/324 342/30/315
f 398/91/325 393/85/363 367/55/337
f 367/55/337 354/42/325 398/91/325
f 356/44/327 377/68/347 394/87/364
f 394/87/364 353/41/324 356/44/327
f 402/95/370 378/96/348 396/89/366
f 396/89/366 395/88/365 402/95/370
f 330/18/308 329/17/225 381/73/351
f 381/73/351 399/92/368 330/18/308
f 381/73/351 385/77/355 400/93/369
f 400/93/369 399/92/368 381/73/351
f 403/97/371 404/98/189 314/2/295
f 314/2/295 313/1/294 403/97/371
f 339/27/126 405/99/372 406/100/373
f 406/100/373 318/6/299 339/27/126
f 366/54/336 365/53/115 407/101/15
f 407/101/15 385/77/355 366/54/336
f 352/40/323 374/64/344 408/102/192
f 408/102/192 349/37/136 352/40/323
f 357/45/328 405/99/372 339/27/126
f 339/27/126 338/26/312 357/45/328
f 334/22/121 409/103/137 350/38/137
f 350/38/137 349/37/136 334/22/121
f 338/26/312 337/25/218 384/76/354
f 384/76/354 410/104/193 338/26/312
f 409/103/137 328/16/115 365/53/115
f 365/53/115 350/38/137 409/103/137
f 384/76/354 387/79/357 411/105/194
f 411/105/194 410/104/193 384/76/354
f 370/58/340 412/106/374 413/107/375
f 413/107/375 371/59/341 370/58/340
f 370/58/340 400/93/369 414/108/376
f 414/108/376 412/106/374 370/58/340
f 365/53/115 328/16/115 327/15/15
f 327/15/15 407/101/15 365/53/115
f 349/37/136 408/102/192 335/23/122
f 335/23/122 334/22/121 349/37/136
f 338/26/312 410/104/193 358/46/329
f 358/46/329 357/45/328 338/26/312
f 410/104/193 411/105/194 368/56/338
f 368/56/338 358/46/329 410/104/193
f 412/106/374 392/84/362 391/83/361
f 391/83/361 413/107/375 412/106/374
f 392/84/362 412/106/374 414/108/376
f 414/108/376 401/94/186 392/84/362
f 403/97/371 373/63/343 372/62/342
f 372/62/342 404/98/189 403/97/371
f 405/99/372 376/67/346 380/72/350
f 380/72/350 406/100/373 405/99/372
f 360/48/331 376/67/346 405/99/372
f 405/99/372 357/45/328 360/48/331
f 334/22/121 333/21/221 382/74/352
f 382/74/352 409/103/137 334/22/121
f 382/74/352 325/13/306 328/16/115
f 328/16/115 409/103/137 382/74/352
f 314/2/295 408/102/192 374/64/344
f 374/64/344 315/3/296 314/2/295
f 340/28/313 339/27/126 318/6/299
f 318/6/299 317/5/298 340/28/313
f 394/109/364 377/110/347 323/11/304
f 323/11/304 322/10/303 394/109/364
f 375/111/345 397/90/367 346/34/319
f 346/34/319 345/33/318 375/111/345
f 377/68/347 336/24/311 372/62/342
f 372/62/342 323/61/304 377/68/347
f 348/70/321 340/28/313 317/5/298
f 317/5/298 345/66/318 348/70/321
f 402/112/370 316/4/297 315/3/296
f 315/3/296 378/69/348 402/112/370
f 388/80/358 415/113/377 380/72/350
f 380/72/350 379/71/349 388/80/358
f 344/32/317 343/114/316 389/81/359
f 389/81/359 379/71/349 344/32/317
f 331/115/309 347/35/320 346/34/319
f 346/34/319 396/89/366 331/115/309
f 343/114/316 394/109/364 322/10/303
f 322/10/303 389/81/359 343/114/316
f 332/116/310 331/115/309 396/89/366
f 396/89/366 378/96/348 332/116/310
f 335/23/122 408/102/192 314/2/295
f 314/2/295 404/98/189 335/23/122
f 416/117/378 319/7/300 318/6/299
f 318/6/299 406/100/373 416/117/378
f 336/24/311 335/23/122 404/98/189
f 404/98/189 372/62/342 336/24/311
f 415/113/377 416/117/378 406/100/373
f 406/100/373 380/72/350 415/113/377
f 367/55/337 401/94/186 327/15/15
f 327/15/15 326/14/307 367/55/337
f 401/94/186 414/108/376 407/101/15
f 407/101/15 327/15/15 401/94/186
f 414/108/376 400/93/369 385/77/355
f 385/77/355 407/101/15 414/108/376
f 369/57/339 368/56/338 391/83/361
f 391/83/361 386/78/356 369/57/339
f 368/56/338 411/105/194 413/107/375
f 413/107/375 391/83/361 368/56/338
f 413/107/375 411/105/194 387/79/357
f 387/79/357 371/59/341 413/107/375
f 417/1/200 418/2/201 419/3/202
f 419/3/202 420/4/203 417/1/200
f 421/5/204 422/6/205 423/7/206
f 423/7/206 424/8/207 421/5/204
f 425/9/208 426/10/209 427/11/210
f 427/11/210 428/12/211 425/9/208
f 429/13/212 430/14/213 431/15/15
f 431/15/15 432/16/16 429/13/212
f 433/17/314 434/18/215 435/19/216
f 435/19/216 436/20/217 433/17/314
f 437/21/218 438/22/22 439/23/219
f 439/23/219 440/24/220 437/21/218
f 441/25/221 442/26/222 443/27/223
f 443/27/223 444/28/379 441/25/221
f 445/29/225 446/30/226 447/31/227
f 447/31/227 448/32/228 445/29/225
f 449/33/229 450/34/230 451/35/231
f 451/35/231 452/36/232 449/33/229
f 453/37/37 454/38/38 455/39/233
f 455/39/233 456/40/234 453/37/37
f 457/41/235 458/42/236 459/43/237
f 459/43/237 460/44/238 457/41/235
f 461/45/239 462/46/240 463/47/241
f 463/47/241 464/48/242 461/45/239
f 465/49/243 466/50/244 467/51/245
f 467/51/245 468/52/246 465/49/243
f 455/39/233 454/38/38 469/53/16
f 469/53/16 470/54/380 455/39/233
f 458/42/236 471/55/248 430/14/213
f 430/14/213 459/43/237 458/42/236
f 463/47/241 462/46/240 472/56/249
f 472/56/249 473/57/250 463/47/241
f 466/50/244 474/58/251 475/59/252
f 475/59/252 467/51/245 466/50/244
f 428/60/211 427/61/210 476/62/381
f 476/62/381 477/63/254 428/60/211
f 456/40/234 433/17/314 436/20/217
f 436/20/217 478/64/255 456/40/234
f 479/65/256 449/66/229 421/5/204
f 421/5/204 424/8/207 479/65/256
f 464/48/242 445/29/225 448/32/228
f 448/32/228 480/67/257 464/48/242
f 440/24/220 481/68/258 460/44/238
f 460/44/238 437/21/218 440/24/220
f 436/20/217 482/69/259 419/3/202
f 419/3/202 478/64/255 436/20/217
f 444/28/379 452/70/232 468/52/246
f 468/52/246 441/25/221 444/28/379
f 448/32/228 483/71/260 484/72/261
f 484/72/261 480/67/257 448/32/228
f 433/17/314 456/40/234 455/39/233
f 455/39/233 485/73/262 433/17/314
f 437/21/218 460/44/238 459/43/237
f 459/43/237 486/74/382 437/21/218
f 445/29/225 464/48/242 463/47/241
f 463/47/241 487/75/383 445/29/225
f 441/25/221 468/52/246 467/51/245
f 467/51/245 488/76/265 441/25/221
f 485/73/262 455/39/233 470/54/380
f 470/54/380 489/77/266 485/73/262
f 486/74/382 459/43/237 430/14/213
f 430/14/213 429/13/212 486/74/382
f 487/75/383 463/47/241 473/57/250
f 473/57/250 490/78/267 487/75/383
f 488/76/265 467/51/245 475/59/252
f 475/59/252 491/79/268 488/76/265
f 492/80/269 483/71/260 493/81/270
f 493/81/270 494/82/271 492/80/269
f 490/78/267 495/83/272 496/84/273
f 496/84/273 497/85/274 490/78/267
f 468/52/246 452/70/232 451/86/231
f 451/86/231 465/49/243 468/52/246
f 457/41/235 498/87/275 447/31/227
f 447/31/227 446/30/226 457/41/235
f 499/88/276 500/89/277 450/34/230
f 450/34/230 501/90/278 499/88/276
f 446/30/226 445/29/225 487/75/383
f 487/75/383 502/91/236 446/30/226
f 434/18/215 503/92/279 466/50/244
f 466/50/244 465/49/243 434/18/215
f 487/75/383 490/78/267 497/85/274
f 497/85/274 502/91/236 487/75/383
f 503/92/279 504/93/384 474/58/251
f 474/58/251 466/50/244 503/92/279
f 494/82/271 493/81/270 426/10/209
f 426/10/209 425/9/208 494/82/271
f 497/85/274 496/84/273 505/94/281
f 505/94/281 471/55/248 497/85/274
f 465/49/243 451/86/231 435/19/216
f 435/19/216 434/18/215 465/49/243
f 446/30/226 502/91/236 458/42/236
f 458/42/236 457/41/235 446/30/226
f 502/91/236 497/85/274 471/55/248
f 471/55/248 458/42/236 502/91/236
f 460/44/238 481/68/258 498/87/275
f 498/87/275 457/41/235 460/44/238
f 506/95/282 482/96/259 500/89/277
f 500/89/277 499/88/276 506/95/282
f 434/18/215 433/17/314 485/73/262
f 485/73/262 503/92/279 434/18/215
f 485/73/262 489/77/266 504/93/384
f 504/93/384 503/92/279 485/73/262
f 507/97/283 508/98/284 418/2/201
f 418/2/201 417/1/200 507/97/283
f 443/27/223 509/99/285 510/100/286
f 510/100/286 422/6/205 443/27/223
f 470/54/380 469/53/16 511/101/15
f 511/101/15 489/77/266 470/54/380
f 456/40/234 478/64/255 512/102/93
f 512/102/93 453/37/37 456/40/234
f 461/45/239 509/99/285 443/27/223
f 443/27/223 442/26/222 461/45/239
f 438/22/22 513/103/38 454/38/38
f 454/38/38 453/37/37 438/22/22
f 442/26/222 441/25/221 488/76/265
f 488/76/265 514/104/287 442/26/222
f 513/103/38 432/16/16 469/53/16
f 469/53/16 454/38/38 513/103/38
f 488/76/265 491/79/268 515/105/288
f 515/105/288 514/104/287 488/76/265
f 474/58/251 516/106/289 517/107/290
f 517/107/290 475/59/252 474/58/251
f 474/58/251 504/93/384 518/108/291
f 518/108/291 516/106/289 474/58/251
f 469/53/16 432/16/16 431/15/15
f 431/15/15 511/101/15 469/53/16
f 453/37/37 512/102/93 439/23/219
f 439/23/219 438/22/22 453/37/37
f 442/26/222 514/104/287 462/46/240
f 462/46/240 461/45/239 442/26/222
f 514/104/287 515/105/288 472/56/249
f 472/56/249 462/46/240 514/104/287
f 516/106/289 496/84/273 495/83/272
f 495/83/272 517/107/290 516/106/289
f 496/84/273 516/106/289 518/108/291
f 518/108/291 505/94/281 496/84/273
f 507/97/283 477/63/254 476/62/381
f 476/62/381 508/98/284 507/97/283
f 509/99/285 480/67/257 484/72/261
f 484/72/261 510/100/286 509/99/285
f 464/48/242 480/67/257 509/99/285
f 509/99/285 461/45/239 464/48/242
f 438/22/22 437/21/218 486/74/382
f 486/74/382 513/103/38 438/22/22
f 486/74/382 429/13/212 432/16/16
f 432/16/16 513/103/38 486/74/382
f 418/2/201 512/102/93 478/64/255
f 478/64/255 419/3/202 418/2/201
f 444/28/379 443/27/223 422/6/205
f 422/6/205 421/5/204 444/28/379
f 498/109/275 481/110/258 427/11/210
f 427/11/210 426/10/209 498/109/275
f 479/111/256 501/90/278 450/34/230
f 450/34/230 449/33/229 479/111/256
f 481/68/258 440/24/220 476/62/381
f 476/62/381 427/61/210 481/68/258
f 452/70/232 444/28/379 421/5/204
f 421/5/204 449/66/229 452/70/232
f 506/112/282 420/4/203 419/3/202
f 419/3/202 482/69/259 506/112/282
f 492/80/269 519/113/292 484/72/261
f 484/72/261 483/71/260 492/80/269
f 448/32/228 447/114/227 493/81/270
f 493/81/270 483/71/260 448/32/228
f 435/115/216 451/35/231 450/34/230
f 450/34/230 500/89/277 435/115/216
f 447/114/227 498/109/275 426/10/209
f 426/10/209 493/81/270 447/114/227
f 436/116/217 435/115/216 500/89/277
f 500/89/277 482/96/259 436/116/217
f 439/23/219 512/102/93 418/2/201
f 418/2/201 508/98/284 439/23/219
f 520/117/293 423/7/206 422/6/205
f 422/6/205 510/100/286 520/117/293
f 440/24/220 439/23/219 508/98/284
f 508/98/284 476/62/381 440/24/220
f 519/113/292 520/117/293 510/100/286
f 510/100/286 484/72/261 519/113/292
f 471/55/248 505/94/281 431/15/15
f 431/15/15 430/14/213 471/55/248
f 505/94/281 518/108/291 511/101/15
f 511/101/15 431/15/15 505/94/281
f 518/108/291 504/93/384 489/77/266
f 489/77/266 511/101/15 518/108/291
f 473/57/250 472/56/249 495/83/272
f 495/83/272 490/78/267 473/57/250
f 472/56/249 515/105/288 517/107/290
f 517/107/290 495/83/272 472/56/249
f 517/107/290 515/105/288 491/79/268
f 491/79/268 475/59/252 517/107/290
f 521/1/385 522/2/386 523/3/387
f 523/3/387 524/4/388 521/1/385
f 525/5/389 526/6/390 527/7/391
f 527/7/391 528/8/392 525/5/389
f 529/9/393 530/10/394 531/11/395
f 531/11/395 532/12/396 529/9/393
f 533/13/397 534/14/398 535/15/15
f 535/15/15 536/16/399 533/13/397
f 537/17/400 538/18/401 539/19/402
f 539/19/402 540/20/403 537/17/400
f 541/21/404 542/22/405 543/23/406
f 543/23/406 544/24/407 541/21/404
f 545/25/408 546/26/409 547/27/410
f 547/27/410 548/28/411 545/25/408
f 549/29/412 550/30/413 551/31/414
f 551/31/414 552/32/415 549/29/412
f 553/33/416 554/34/417 555/35/418
f 555/35/418 556/36/419 553/33/416
f 557/37/420 558/38/421 559/39/422
f 559/39/422 560/40/423 557/37/420
f 561/41/424 562/42/425 563/43/426
f 563/43/426 564/44/427 561/41/424
f 565/45/428 566/46/429 567/47/430
f 567/47/430 568/48/431 565/45/428
f 569/49/432 570/50/433 571/51/434
f 571/51/434 572/52/435 569/49/432
f 559/39/422 558/38/421 573/53/399
f 573/53/399 574/54/436 559/39/422
f 562/42/425 575/55/437 534/14/398
f 534/14/398 563/43/426 562/42/425
f 567/47/430 566/46/429 576/56/438
f 576/56/438 577/57/439 567/47/430
f 570/50/433 578/58/440 579/59/441
f 579/59/441 571/51/434 570/50/433
f 532/60/396 531/61/395 580/62/442
f 580/62/442 581/63/443 532/60/396
f 560/40/423 537/17/400 540/20/403
f 540/20/403 582/64/444 560/40/423
f 583/65/445 553/66/416 525/5/389
f 525/5/389 528/8/392 583/65/445
f 568/48/431 549/29/412 552/32/415
f 552/32/415 584/67/446 568/48/431
f 544/24/407 585/68/447 564/44/427
f 564/44/427 541/21/404 544/24/407
f 540/20/403 586/69/448 523/3/387
f 523/3/387 582/64/444 540/20/403
f 548/28/411 556/70/419 572/52/435
f 572/52/435 545/25/408 548/28/411
f 552/32/415 587/71/449 588/72/450
f 588/72/450 584/67/446 552/32/415
f 537/17/400 560/40/423 559/39/422
f 559/39/422 589/73/451 537/17/400
f 541/21/404 564/44/427 563/43/426
f 563/43/426 590/74/452 541/21/404
f 549/29/412 568/48/431 567/47/430
f 567/47/430 591/75/453 549/29/412
f 545/25/408 572/52/435 571/51/434
f 571/51/434 592/76/454 545/25/408
f 589/73/451 559/39/422 574/54/436
f 574/54/436 593/77/455 589/73/451
f 590/74/452 563/43/426 534/14/398
f 534/14/398 533/13/397 590/74/452
f 591/75/453 567/47/430 577/57/439
f 577/57/439 594/78/456 591/75/453
f 592/76/454 571/51/434 579/59/441
f 579/59/441 595/79/457 592/76/454
f 596/80/458 587/71/449 597/81/459
f 597/81/459 598/82/460 596/80/458
f 594/78/456 599/83/461 600/84/462
f 600/84/462 601/85/463 594/78/456
f 572/52/435 556/70/419 555/86/418
f 555/86/418 569/49/432 572/52/435
f 561/41/424 602/87/464 551/31/414
f 551/31/414 550/30/413 561/41/424
f 603/88/465 604/89/466 554/34/417
f 554/34/417 605/90/467 603/88/465
f 550/30/413 549/29/412 591/75/453
f 591/75/453 606/91/425 550/30/413
f 538/18/401 607/92/468 570/50/433
f 570/50/433 569/49/432 538/18/401
f 591/75/453 594/78/456 601/85/463
f 601/85/463 606/91/425 591/75/453
f 607/92/468 608/93/469 578/58/440
f 578/58/440 570/50/433 607/92/468
f 598/82/460 597/81/459 530/10/394
f 530/10/394 529/9/393 598/82/460
f 601/85/463 600/84/462 609/94/470
f 609/94/470 575/55/437 601/85/463
f 569/49/432 555/86/418 539/19/402
f 539/19/402 538/18/401 569/49/432
f 550/30/413 606/91/425 562/42/425
f 562/42/425 561/41/424 550/30/413
f 606/91/425 601/85/463 575/55/437
f 575/55/437 562/42/425 606/91/425
f 564/44/427 585/68/447 602/87/464
f 602/87/464 561/41/424 564/44/427
f 610/95/471 586/96/448 604/89/466
f 604/89/466 603/88/465 610/95/471
f 538/18/401 537/17/400 589/73/451
f 589/73/451 607/92/468 538/18/401
f 589/73/451 593/77/455 608/93/469
f 608/93/469 607/92/468 589/73/451
f 611/97/472 612/98/473 522/2/386
f 522/2/386 521/1/385 611/97/472
f 547/27/410 613/99/474 614/100/475
f 614/100/475 526/6/390 547/27/410
f 574/54/436 573/53/399 615/101/15
f 615/101/15 593/77/455 574/54/436
f 560/40/423 582/64/444 616/102/476
f 616/102/476 557/37/420 560/40/423
f 565/45/428 613/99/474 547/27/410
f 547/27/410 546/26/409 565/45/428
f 542/22/405 617/103/477 558/38/421
f 558/38/421 557/37/420 542/22/405
f 546/26/409 545/25/408 592/76/454
f 592/76/454 618/104/478 546/26/409
f 617/103/477 536/16/399 573/53/399
f 573/53/399 558/38/421 617/103/477
f 592/76/454 595/79/457 619/105/479
f 619/105/479 618/104/478 592/76/454
f 578/58/440 620/106/480 621/107/481
f 621/107/481 579/59/441 578/58/440
f 578/58/440 608/93/469 622/108/482
f 622/108/482 620/106/480 578/58/440
f 573/53/399 536/16/399 535/15/15
f 535/15/15 615/101/15 573/53/399
f 557/37/420 616/102/476 543/23/406
f 543/23/406 542/22/405 557/37/420
f 546/26/409 618/104/478 566/46/429
f 566/46/429 565/45/428 546/26/409
f 618/104/478 619/105/479 576/56/438
f 576/56/438 566/46/429 618/104/478
f 620/106/480 600/84/462 599/83/461
f 599/83/461 621/107/481 620/106/480
f 600/84/462 620/106/480 622/108/482
f 622/108/482 609/94/470 600/84/462
f 611/97/472 581/63/443 580/62/442
f 580/62/442 612/98/473 611/97/472
f 613/99/474 584/67/446 588/72/450
f 588/72/450 614/100/475 613/99/474
f 568/48/431 584/67/446 613/99/474
f 613/99/474 565/45/428 568/48/431
f 542/22/405 541/21/404 590/74/452
f 590/74/452 617/103/477 542/22/405
f 590/74/452 533/13/397 536/16/399
f 536/16/399 617/103/477 590/74/452
f 522/2/386 616/102/476 582/64/444
f 582/64/444 523/3/387 522/2/386
f 548/28/411 547/27/410 526/6/390
f 526/6/390 525/5/389 548/28/411
f 602/109/464 585/110/447 531/11/395
f 531/11/395 530/10/394 602/109/464
f 583/111/445 605/90/467 554/34/417
f 554/34/417 553/33/416 583/111/445
f 585/68/447 544/24/407 580/62/442
f 580/62/442 531/61/395 585/68/447
f 556/70/419 548/28/411 525/5/389
f 525/5/389 553/66/416 556/70/419
f 610/112/471 524/4/388 523/3/387
f 523/3/387 586/69/448 610/112/471
f 596/80/458 623/113/483 588/72/450
f 588/72/450 587/71/449 596/80/458
f 552/32/415 551/114/414 597/81/459
f 597/81/459 587/71/449 552/32/415
f 539/115/402 555/35/418 554/34/417
f 554/34/417 604/89/466 539/115/402
f 551/114/414 602/109/464 530/10/394
f 530/10/394 597/81/459 551/114/414
f 540/116/403 539/115/402 604/89/466
f 604/89/466 586/96/448 540/116/403
f 543/23/406 616/102/476 522/2/386
f 522/2/386 612/98/473 543/23/406
f 624/117/484 527/7/391 526/6/390
f 526/6/390 614/100/475 624/117/484
f 544/24/407 543/23/406 612/98/473
f 612/98/473 580/62/442 544/24/407
f 623/113/483 624/117/484 614/100/475
f 614/100/475 588/72/450 623/113/483
f 575/55/437 609/94/470 535/15/15
f 535/15/15 534/14/398 575/55/437
f 609/94/470 622/108/482 615/101/15
f 615/101/15 535/15/15 609/94/470
f 622/108/482 608/93/469 593/77/455
f 593/77/455 615/101/15 622/108/482
f 577/57/439 576/56/438 599/83/461
f 599/83/461 594/78/456 577/57/439
f 576/56/438 619/105/479 621/107/481
f 621/107/481 599/83/461 576/56/438
f 621/107/481 619/105/479 595/79/457
f 595/79/457 579/59/441 621/107/481
